<svg width="200" height="200" viewBox="0 0 200 200" fill="none" xmlns="http://www.w3.org/2000/svg">
<mask id="path-1-inside-1" fill="white">
<path fill-rule="evenodd" clip-rule="evenodd" d="M75.8209 197.014C129.458 210.366 183.684 177.674 197.027 124.135C210.339 70.5635 177.698 16.1739 124.029 2.98561C70.5226 -10.3663 16.3295 22.3263 2.9857 75.865C-10.3581 129.404 22.2819 183.63 75.8209 197.014ZM125.131 61.9539C139.019 66.6667 149.15 73.6378 147.353 86.9907C145.98 96.7109 140.686 101.456 133.366 103.126C143.366 108.264 148.366 116.053 143.791 129.701C138.104 146.817 124.085 148.355 105.327 145.017L101.013 163.247L90.0325 160.596L94.3462 142.661C91.5684 141.974 88.6599 141.254 85.588 140.435L81.2743 158.501L70.2939 155.85L74.6076 137.621C73.098 137.183 71.5281 136.806 69.9344 136.423C68.9061 136.176 67.868 135.927 66.8298 135.657L52.5161 132.319L57.7122 119.653C57.7122 119.653 65.9148 121.748 65.7841 121.617C68.8233 122.304 70.2285 120.34 70.7841 118.966L77.4508 90.1653C77.6632 90.2308 77.8348 90.2635 78.0063 90.2963C78.1779 90.329 78.3495 90.3617 78.5619 90.4272C78.287 90.2366 78.0259 90.1693 77.7961 90.1101C77.6707 90.0778 77.5546 90.0479 77.4508 90.0017L82.32 69.4159C82.4834 67.1904 81.6338 64.2776 77.1893 63.1649C77.4834 63.0012 69.2808 61.2012 69.2808 61.2012L72.0586 49.5173L87.1893 53.1501C88.3658 53.4283 89.5504 53.6738 90.7351 53.9192C91.9197 54.1647 93.1043 54.4101 94.2808 54.6883L98.5946 36.6226L109.706 39.2735L105.523 56.9466C108.431 57.5357 111.372 58.2229 114.281 58.9102L118.464 41.2372L129.444 43.8881L125.131 61.9539ZM90.9491 127.669C99.7776 129.936 119.687 135.05 122.647 122.435C125.626 109.652 106.962 105.627 97.5978 103.608C96.4852 103.368 95.5039 103.157 94.7057 102.962L89.0194 127.181C89.5782 127.317 90.2265 127.483 90.9491 127.669ZM98.8574 92.2509C106.221 94.1549 122.983 98.4887 125.686 86.9907C128.428 75.4507 112.785 72.0997 105.049 70.4424C104.119 70.2431 103.303 70.0684 102.647 69.9068L97.3527 91.8672C97.7933 91.9758 98.2983 92.1063 98.8574 92.2509Z"/>
</mask>
<path d="M197.027 124.135L198.968 124.619L198.968 124.617L197.027 124.135ZM75.8209 197.014L75.3358 198.955L75.3377 198.955L75.8209 197.014ZM124.029 2.98561L123.545 4.92612L123.551 4.92783L124.029 2.98561ZM2.9857 75.865L1.04507 75.3813L1.04507 75.3813L2.9857 75.865ZM147.353 86.9907L149.333 87.2704L149.335 87.2575L147.353 86.9907ZM125.131 61.9539L123.185 61.4894L122.762 63.2622L124.488 63.8479L125.131 61.9539ZM133.366 103.126L132.921 101.176L127.57 102.396L132.452 104.904L133.366 103.126ZM143.791 129.701L141.894 129.065L141.893 129.07L143.791 129.701ZM105.327 145.017L105.677 143.048L103.816 142.717L103.38 144.557L105.327 145.017ZM101.013 163.247L100.543 165.191L102.496 165.662L102.959 163.707L101.013 163.247ZM90.0325 160.596L88.0879 160.128L87.6206 162.071L89.5631 162.54L90.0325 160.596ZM94.3462 142.661L96.2907 143.129L96.7554 141.197L94.8266 140.719L94.3462 142.661ZM85.588 140.435L86.1028 138.503L84.1194 137.974L83.6427 139.971L85.588 140.435ZM81.2743 158.501L80.8049 160.445L82.7539 160.916L83.2196 158.966L81.2743 158.501ZM70.2939 155.85L68.3476 155.39L67.8892 157.327L69.8245 157.794L70.2939 155.85ZM74.6076 137.621L76.5539 138.081L76.992 136.23L75.1645 135.7L74.6076 137.621ZM69.9344 136.423L70.4016 134.478L70.4016 134.478L69.9344 136.423ZM66.8298 135.657L67.3325 133.721L67.3083 133.715L67.2841 133.709L66.8298 135.657ZM52.5161 132.319L50.6658 131.56L49.7742 133.733L52.0619 134.267L52.5161 132.319ZM57.7122 119.653L58.207 117.715L56.5219 117.285L55.8619 118.894L57.7122 119.653ZM65.7841 121.617L66.2252 119.666L59.4886 118.143L64.3688 123.03L65.7841 121.617ZM70.7841 118.966L72.6384 119.715L72.6972 119.57L72.7326 119.417L70.7841 118.966ZM77.4508 90.1653L78.0397 88.254L75.9867 87.6214L75.5023 89.7143L77.4508 90.1653ZM78.0063 90.2963L77.6316 92.2608L77.6316 92.2608L78.0063 90.2963ZM78.5619 90.4272L77.9729 92.3385L79.7014 88.7836L78.5619 90.4272ZM77.7961 90.1101L78.2951 88.1734L78.2951 88.1734L77.7961 90.1101ZM77.4508 90.0017L75.5045 89.5413L75.1229 91.1547L76.6374 91.8289L77.4508 90.0017ZM82.32 69.4159L84.2663 69.8762L84.303 69.7212L84.3147 69.5623L82.32 69.4159ZM77.1893 63.1649L76.2169 61.4171L71.7967 63.8764L76.7036 65.105L77.1893 63.1649ZM69.2808 61.2012L67.3351 60.7386L66.8643 62.7185L68.8521 63.1547L69.2808 61.2012ZM72.0586 49.5173L72.5255 47.5726L70.5765 47.1046L70.1128 49.0547L72.0586 49.5173ZM87.1893 53.1501L86.7224 55.0949L86.7291 55.0965L87.1893 53.1501ZM90.7351 53.9192L90.3293 55.8776L90.3293 55.8776L90.7351 53.9192ZM94.2808 54.6883L93.8206 56.6347L95.7627 57.0939L96.2261 55.1528L94.2808 54.6883ZM98.5946 36.6226L99.0587 34.6772L97.1137 34.2131L96.6492 36.1581L98.5946 36.6226ZM109.706 39.2735L111.652 39.7342L112.112 37.7914L110.17 37.3281L109.706 39.2735ZM105.523 56.9466L103.576 56.4859L103.101 58.4966L105.126 58.9068L105.523 56.9466ZM114.281 58.9102L113.821 60.8566L115.767 61.3164L116.227 59.3709L114.281 58.9102ZM118.464 41.2372L118.933 39.293L116.98 38.8216L116.518 40.7765L118.464 41.2372ZM129.444 43.8881L131.39 44.3526L131.853 42.4122L129.914 41.944L129.444 43.8881ZM122.647 122.435L124.594 122.892L124.595 122.889L122.647 122.435ZM90.9491 127.669L90.4516 129.606L90.4516 129.606L90.9491 127.669ZM97.5978 103.608L98.0194 101.653L98.0194 101.653L97.5978 103.608ZM94.7057 102.962L95.1794 101.019L93.2197 100.541L92.7586 102.505L94.7057 102.962ZM89.0194 127.181L87.0723 126.723L86.619 128.654L88.5458 129.124L89.0194 127.181ZM125.686 86.9907L123.74 86.5284L123.739 86.533L125.686 86.9907ZM98.8574 92.2509L98.3568 94.1872L98.3568 94.1872L98.8574 92.2509ZM105.049 70.4424L105.468 68.4868L105.468 68.4867L105.049 70.4424ZM102.647 69.9068L103.125 67.9649L101.174 67.4841L100.703 69.4381L102.647 69.9068ZM97.3527 91.8672L95.4084 91.3985L94.9421 93.3329L96.8742 93.8091L97.3527 91.8672ZM195.087 123.651C182.01 176.12 128.868 208.158 76.304 195.074L75.3377 198.955C130.048 212.574 185.358 179.227 198.968 124.619L195.087 123.651ZM123.551 4.92783C176.141 17.8508 208.132 71.15 195.086 123.653L198.968 124.617C212.545 69.977 179.256 14.4971 124.506 1.04339L123.551 4.92783ZM4.92634 76.3487C18.0041 23.8775 71.1147 -8.15724 123.545 4.92611L124.513 1.04512C69.9304 -12.5754 14.655 20.7751 1.04507 75.3813L4.92634 76.3487ZM76.3059 195.074C23.8355 181.957 -8.14989 128.814 4.92634 76.3487L1.04507 75.3813C-12.5664 129.994 20.7284 185.303 75.3358 198.955L76.3059 195.074ZM149.335 87.2575C150.321 79.9328 148.002 74.2339 143.531 69.8105C139.161 65.4877 132.81 62.4477 125.773 60.06L124.488 63.8479C131.34 66.173 136.999 68.9749 140.717 72.654C144.335 76.2326 146.182 80.6957 145.371 86.7239L149.335 87.2575ZM133.81 105.076C137.774 104.172 141.318 102.402 144.059 99.4341C146.8 96.4654 148.603 92.4441 149.333 87.2704L145.372 86.7111C144.73 91.2576 143.199 94.4691 141.12 96.7205C139.041 98.9725 136.278 100.41 132.921 101.176L133.81 105.076ZM145.687 130.336C148.08 123.199 148.063 117.293 145.869 112.403C143.685 107.54 139.502 104.03 134.28 101.347L132.452 104.904C137.229 107.359 140.546 110.314 142.219 114.041C143.881 117.742 144.077 122.555 141.894 129.065L145.687 130.336ZM104.976 146.986C114.42 148.667 123.023 149.198 130.072 146.934C137.306 144.611 142.667 139.426 145.689 130.331L141.893 129.07C139.228 137.092 134.736 141.235 128.849 143.125C122.777 145.075 114.992 144.706 105.677 143.048L104.976 146.986ZM102.959 163.707L107.273 145.478L103.38 144.557L99.0666 162.786L102.959 163.707ZM89.5631 162.54L100.543 165.191L101.482 161.303L90.5018 158.652L89.5631 162.54ZM92.4016 142.193L88.0879 160.128L91.977 161.063L96.2907 143.129L92.4016 142.193ZM85.0733 142.368C88.1647 143.191 91.0897 143.915 93.8658 144.602L94.8266 140.719C92.0471 140.032 89.1551 139.316 86.1028 138.503L85.0733 142.368ZM83.2196 158.966L87.5333 140.9L83.6427 139.971L79.329 158.037L83.2196 158.966ZM69.8245 157.794L80.8049 160.445L81.7437 156.557L70.7633 153.906L69.8245 157.794ZM72.6614 137.16L68.3476 155.39L72.2402 156.311L76.5539 138.081L72.6614 137.16ZM69.4672 138.368C71.0695 138.753 72.5935 139.119 74.0508 139.542L75.1645 135.7C73.6026 135.247 71.9867 134.859 70.4016 134.478L69.4672 138.368ZM66.3272 137.593C67.386 137.868 68.4418 138.121 69.4672 138.368L70.4016 134.478C69.3705 134.231 68.35 133.985 67.3325 133.721L66.3272 137.593ZM52.0619 134.267L66.3756 137.605L67.2841 133.709L52.9704 130.371L52.0619 134.267ZM55.8619 118.894L50.6658 131.56L54.3665 133.078L59.5625 120.412L55.8619 118.894ZM64.3688 123.03C64.2965 122.958 63.7989 122.473 63.7859 121.651C63.7684 120.543 64.5713 119.991 64.8944 119.83C65.2053 119.676 65.4779 119.644 65.5503 119.636C65.6613 119.623 65.7493 119.622 65.7936 119.623C65.8841 119.624 65.9513 119.631 65.9701 119.633C65.9972 119.636 66.0152 119.639 66.0195 119.64C66.025 119.641 65.9895 119.635 65.8882 119.613C65.7017 119.574 65.4119 119.507 65.0394 119.419C64.3006 119.244 63.2967 118.997 62.2811 118.743C61.2672 118.491 60.2486 118.234 59.483 118.04C59.1003 117.943 58.7811 117.862 58.5577 117.805C58.446 117.776 58.3582 117.754 58.2984 117.739C58.2685 117.731 58.2456 117.725 58.2302 117.721C58.2225 117.719 58.2167 117.718 58.2128 117.717C58.2109 117.716 58.2094 117.716 58.2084 117.716C58.208 117.716 58.2076 117.715 58.2074 117.715C58.2072 117.715 58.2072 117.715 58.2071 117.715C58.207 117.715 58.207 117.715 57.7122 119.653C57.2174 121.591 57.2174 121.591 57.2175 121.591C57.2175 121.591 57.2176 121.591 57.2178 121.591C57.218 121.591 57.2184 121.591 57.2189 121.591C57.22 121.592 57.2215 121.592 57.2235 121.593C57.2275 121.594 57.2334 121.595 57.2412 121.597C57.2569 121.601 57.28 121.607 57.3102 121.615C57.3705 121.63 57.4588 121.653 57.5711 121.681C57.7957 121.738 58.1163 121.82 58.5006 121.917C59.2689 122.112 60.2928 122.37 61.3133 122.625C62.3319 122.879 63.3542 123.131 64.1166 123.311C64.4947 123.401 64.8243 123.477 65.0613 123.527C65.1718 123.55 65.2991 123.576 65.4104 123.593C65.4388 123.597 65.5831 123.621 65.7512 123.623C65.8014 123.623 65.8943 123.622 66.0092 123.609C66.0855 123.6 66.3611 123.568 66.6739 123.413C66.999 123.251 67.8029 122.698 67.7854 121.588C67.7724 120.765 67.2738 120.278 67.1993 120.204L64.3688 123.03ZM68.9298 118.216C68.733 118.704 68.4319 119.164 68.0464 119.442C67.7375 119.664 67.2189 119.891 66.2252 119.666L65.3429 123.568C67.3885 124.03 69.0921 123.618 70.3845 122.687C71.6003 121.811 72.2797 120.603 72.6384 119.715L68.9298 118.216ZM75.5023 89.7143L68.8356 118.515L72.7326 119.417L79.3992 90.6164L75.5023 89.7143ZM78.3811 88.3317C78.2114 88.2993 78.1363 88.2838 78.0397 88.254L76.8618 92.0767C77.1901 92.1778 77.4581 92.2277 77.6316 92.2608L78.3811 88.3317ZM79.1508 88.5158C78.8225 88.4147 78.5545 88.3648 78.381 88.3317L77.6316 92.2608C77.8013 92.2932 77.8764 92.3087 77.9729 92.3385L79.1508 88.5158ZM77.2972 92.0469C77.3582 92.0626 77.3906 92.0711 77.4201 92.0796C77.4463 92.0872 77.4578 92.0913 77.4611 92.0925C77.4638 92.0935 77.459 92.0919 77.4499 92.0872C77.4406 92.0825 77.4309 92.0767 77.4223 92.0708L79.7014 88.7836C79.1054 88.3703 78.5306 88.2341 78.2951 88.1734L77.2972 92.0469ZM76.6374 91.8289C76.9223 91.9557 77.2088 92.0242 77.2972 92.0469L78.2951 88.1734C78.279 88.1692 78.2657 88.1658 78.2529 88.1625C78.2404 88.1592 78.2301 88.1565 78.221 88.1541C78.2025 88.1492 78.1934 88.1465 78.1897 88.1454C78.1862 88.1444 78.1919 88.146 78.204 88.1503C78.2162 88.1546 78.237 88.1625 78.2641 88.1745L76.6374 91.8289ZM80.3737 68.9555L75.5045 89.5413L79.3971 90.4621L84.2663 69.8762L80.3737 68.9555ZM76.7036 65.105C78.5374 65.5641 79.3875 66.3222 79.8077 66.9661C80.2493 67.6428 80.3852 68.4545 80.3254 69.2694L84.3147 69.5623C84.4182 68.1517 84.211 66.3943 83.1575 64.78C82.0826 63.133 80.2857 61.8784 77.6751 61.2247L76.7036 65.105ZM69.2808 61.2012C68.8521 63.1547 68.8521 63.1547 68.8522 63.1547C68.8522 63.1547 68.8523 63.1547 68.8524 63.1548C68.8526 63.1548 68.853 63.1549 68.8534 63.155C68.8543 63.1552 68.8558 63.1555 68.8577 63.1559C68.8615 63.1568 68.8672 63.158 68.8748 63.1597C68.89 63.163 68.9128 63.168 68.9424 63.1746C69.0018 63.1877 69.0891 63.2069 69.2003 63.2315C69.4226 63.2808 69.7402 63.3514 70.1205 63.4366C70.8817 63.6072 71.8915 63.8359 72.8904 64.0692C73.8939 64.3037 74.869 64.5387 75.568 64.723C75.9259 64.8173 76.1719 64.888 76.3058 64.9323C76.3964 64.9623 76.3468 64.9513 76.2476 64.9012C76.2152 64.8849 76.1497 64.8505 76.0695 64.7972C76.0075 64.756 75.8344 64.6375 75.6613 64.4314C75.5158 64.2583 75.0924 63.6888 75.2199 62.854C75.3538 61.9772 75.9744 61.5521 76.2169 61.4171L78.1617 64.9126C78.4135 64.7725 79.0391 64.3415 79.174 63.458C79.3025 62.6165 78.8761 62.0396 78.7237 61.8582C78.4267 61.5048 78.0707 61.3408 78.0503 61.3304C77.8633 61.236 77.6676 61.1696 77.562 61.1347C77.3037 61.0492 76.9572 60.9525 76.5874 60.855C75.8312 60.6557 74.8107 60.4101 73.8003 60.1741C72.7854 59.937 71.7629 59.7054 70.9953 59.5334C70.6112 59.4473 70.2902 59.376 70.0651 59.3262C69.9525 59.3012 69.8639 59.2817 69.8033 59.2683C69.773 59.2616 69.7497 59.2565 69.7339 59.253C69.726 59.2513 69.72 59.25 69.7159 59.2491C69.7138 59.2486 69.7123 59.2483 69.7112 59.248C69.7107 59.2479 69.7103 59.2478 69.71 59.2478C69.7098 59.2477 69.7097 59.2477 69.7097 59.2477C69.7096 59.2477 69.7095 59.2477 69.2808 61.2012ZM70.1128 49.0547L67.3351 60.7386L71.2266 61.6638L74.0044 49.9799L70.1128 49.0547ZM87.6562 51.2054L72.5255 47.5726L71.5917 51.4621L86.7224 55.0949L87.6562 51.2054ZM91.1408 51.9608C89.9516 51.7144 88.7943 51.4745 87.6495 51.2038L86.7291 55.0965C87.9372 55.3821 89.1492 55.6331 90.3293 55.8776L91.1408 51.9608ZM94.741 52.742C93.5329 52.4563 92.3209 52.2053 91.1408 51.9608L90.3293 55.8776C91.5185 56.124 92.6758 56.364 93.8206 56.6347L94.741 52.742ZM96.6492 36.1581L92.3355 54.2238L96.2261 55.1528L100.54 37.0871L96.6492 36.1581ZM110.17 37.3281L99.0587 34.6772L98.1304 38.568L109.242 41.2189L110.17 37.3281ZM107.469 57.4072L111.652 39.7342L107.759 38.8129L103.576 56.4859L107.469 57.4072ZM114.741 56.9638C111.833 56.2767 108.863 55.5826 105.92 54.9864L105.126 58.9068C107.999 59.4887 110.912 60.1692 113.821 60.8566L114.741 56.9638ZM116.518 40.7765L112.335 58.4496L116.227 59.3709L120.41 41.6978L116.518 40.7765ZM129.914 41.944L118.933 39.293L117.994 43.1813L128.975 45.8323L129.914 41.944ZM127.076 62.4184L131.39 44.3526L127.499 43.4236L123.185 61.4894L127.076 62.4184ZM120.7 121.978C120.1 124.534 118.696 126.114 116.764 127.119C114.745 128.17 112.066 128.626 108.994 128.633C102.841 128.647 95.9044 126.877 91.4467 125.732L90.4516 129.606C94.8224 130.729 102.254 132.649 109.003 132.633C112.382 132.625 115.787 132.136 118.61 130.668C121.519 129.155 123.714 126.643 124.594 122.892L120.7 121.978ZM97.1763 105.563C101.912 106.584 108.643 108.049 113.825 110.757C116.405 112.106 118.427 113.678 119.645 115.497C120.813 117.242 121.318 119.323 120.699 121.981L124.595 122.889C125.465 119.155 124.754 115.939 122.969 113.272C121.232 110.678 118.562 108.72 115.678 107.213C109.932 104.209 102.649 102.651 98.0194 101.653L97.1763 105.563ZM94.2319 104.905C95.0618 105.107 96.0726 105.325 97.1763 105.563L98.0194 101.653C96.8978 101.411 95.9459 101.206 95.1794 101.019L94.2319 104.905ZM90.9664 127.638L96.6527 103.419L92.7586 102.505L87.0723 126.723L90.9664 127.638ZM91.4467 125.732C90.7277 125.547 90.0662 125.377 89.493 125.237L88.5458 129.124C89.0901 129.256 89.7253 129.419 90.4516 129.606L91.4467 125.732ZM123.739 86.533C123.191 88.8651 121.984 90.288 120.397 91.1946C118.734 92.1448 116.53 92.5928 113.977 92.647C108.85 92.756 103.086 91.2784 99.3581 90.3146L98.3568 94.1872C101.993 95.1274 108.291 96.7687 114.062 96.6461C116.958 96.5846 119.911 96.0791 122.381 94.6676C124.928 93.2125 126.83 90.8654 127.633 87.4485L123.739 86.533ZM104.63 72.398C108.554 73.2386 114.101 74.4418 118.335 76.7641C120.435 77.9159 122.048 79.2586 123.001 80.814C123.913 82.3048 124.309 84.1328 123.74 86.5284L127.632 87.4531C128.434 84.0786 127.903 81.1602 126.412 78.7253C124.961 76.355 122.694 74.5926 120.259 73.257C115.422 70.6044 109.28 69.3034 105.468 68.4868L104.63 72.398ZM102.168 71.8487C102.861 72.0192 103.71 72.201 104.63 72.398L105.468 68.4867C104.527 68.2852 103.745 68.1175 103.125 67.9649L102.168 71.8487ZM99.297 92.3359L104.591 70.3755L100.703 69.4381L95.4084 91.3985L99.297 92.3359ZM99.3581 90.3146C98.8021 90.1708 98.2852 90.0371 97.8313 89.9253L96.8742 93.8091C97.3014 93.9144 97.7944 94.0418 98.3568 94.1872L99.3581 90.3146Z" fill="black" mask="url(#path-1-inside-1)"/>
</svg>
