<svg width="200" height="200" viewBox="0 0 200 200" fill="none" xmlns="http://www.w3.org/2000/svg">
<path fill-rule="evenodd" clip-rule="evenodd" d="M75.8209 197.014C129.458 210.366 183.684 177.674 197.027 124.135C210.339 70.5635 177.698 16.1739 124.029 2.98561C70.5226 -10.3663 16.3295 22.3263 2.9857 75.865C-10.3581 129.404 22.282 183.63 75.8209 197.014ZM125.13 61.9539C139.019 66.6667 149.15 73.6377 147.353 86.9907C145.98 96.7108 140.686 101.456 133.366 103.126C143.366 108.264 148.366 116.053 143.791 129.701C138.104 146.817 124.085 148.355 105.327 145.017L101.013 163.247L90.0324 160.596L94.3461 142.661C91.5683 141.973 88.6598 141.253 85.5879 140.435L81.2742 158.501L70.2938 155.85L74.6076 137.621C73.0979 137.183 71.528 136.806 69.9343 136.423C68.906 136.176 67.8679 135.927 66.8298 135.657L52.516 132.319L57.7121 119.653C57.7121 119.653 65.9147 121.748 65.784 121.617C68.8232 122.304 70.2285 120.34 70.784 118.966L77.4507 90.1653C77.6631 90.2307 77.8347 90.2635 78.0063 90.2962C78.1778 90.3289 78.3494 90.3616 78.5618 90.4271C78.287 90.2365 78.0258 90.1693 77.796 90.1101C77.6706 90.0778 77.5545 90.0479 77.4507 90.0016L82.32 69.4158C82.4834 67.1903 81.6337 64.2775 77.1892 63.1648C77.4834 63.0012 69.2808 61.2011 69.2808 61.2011L72.0585 49.5173L87.1892 53.1501C88.3657 53.4282 89.5504 53.6737 90.735 53.9192C91.9196 54.1646 93.1043 54.4101 94.2808 54.6883L98.5945 36.6225L109.706 39.2734L105.523 56.9465C108.431 57.5356 111.372 58.2229 114.281 58.9102L118.464 41.2371L129.444 43.8881L125.13 61.9539ZM90.9491 127.669C99.7776 129.936 119.686 135.05 122.647 122.435C125.626 109.652 106.962 105.627 97.5978 103.608C96.4851 103.368 95.5038 103.156 94.7056 102.962L89.0193 127.18C89.5781 127.317 90.2265 127.483 90.9491 127.669ZM98.8574 92.2508C106.221 94.1548 122.983 98.4887 125.686 86.9907C128.428 75.4506 112.785 72.0996 105.049 70.4423C104.119 70.2431 103.303 70.0683 102.647 69.9067L97.3527 91.8671C97.7932 91.9757 98.2982 92.1063 98.8574 92.2508Z" fill="#F7931A"/>
</svg>
