<?xml version="1.0" encoding="utf-8"?>
<!-- Generator: Adobe Illustrator 23.0.0, SVG Export Plug-In . SVG Version: 6.00 Build 0)  -->
<svg version="1.1" id="Layer_1" xmlns="http://www.w3.org/2000/svg" xmlns:xlink="http://www.w3.org/1999/xlink" x="0px" y="0px"
	 viewBox="0 0 200 100" style="enable-background:new 0 0 200 100;" xml:space="preserve">
<style type="text/css">
	.st0{fill:#CEDC21;}
	.st1{fill:#51B13E;}
	.st2{fill:#1E7A44;}
	.st3{fill:#FFFFFF;}
</style>
<path class="st0" d="M9.2,91.4c-2.7,0-4.9-2.2-4.9-4.9V13.4c0-2.7,2.2-4.9,4.9-4.9s4.9,2.2,4.9,4.9v73.1
	C14.1,89.3,11.9,91.4,9.2,91.4"/>
<path class="st1" d="M9.2,91.4c-1.8,0-3.6-1-4.4-2.8c-1.2-2.4-0.1-5.3,2.3-6.5l29.3-13.9L6.3,46.1c-2.2-1.6-2.6-4.6-1-6.8
	s4.6-2.6,6.8-1l36.6,27c1.4,1,2.1,2.7,2,4.4c-0.2,1.7-1.2,3.2-2.8,3.9L11.3,91C10.6,91.3,9.9,91.4,9.2,91.4"/>
<path class="st0" d="M9.2,62.7c-1.5,0-3-0.7-3.9-2c-1.6-2.2-1.1-5.2,1-6.8l30.1-22.2L7.1,17.8c-2.4-1.2-3.5-4.1-2.3-6.5
	C6,8.9,8.9,7.9,11.3,9l36.6,17.4c1.5,0.7,2.6,2.2,2.8,3.9c0.2,1.7-0.6,3.4-2,4.4l-36.6,27C11.2,62.4,10.2,62.7,9.2,62.7"/>
<polygon class="st2" points="14.1,39.7 14.1,60.3 28,50 "/>
<rect x="4.3" y="31.1" class="st3" width="9.7" height="23.7"/>
<path class="st0" d="M14.1,13.4c0-2.7-2.2-4.9-4.9-4.9s-4.9,2.2-4.9,4.9v61.2h9.7L14.1,13.4L14.1,13.4z"/>
<path class="st2" d="M78.4,49.4c3.1,0.9,4.8,3.7,4.8,7.2c0,5.5-3.4,8.1-8,8.1H64.8V35.3H74c4.5,0,8,2.1,8,7.7
	C82,45.8,80.8,48.4,78.4,49.4 M74.1,48.7c3.3,0,6-1.2,6-5.7c0-4.6-2.8-5.8-6.1-5.8h-7.2v11.5L74.1,48.7L74.1,48.7z M75.1,62.8
	c3.4,0,6.1-1.8,6.1-6.1c0-4.7-3.1-6.1-6.9-6.1h-7.5v12.3L75.1,62.8L75.1,62.8z"/>
<polygon class="st2" points="102.9,35.3 102.9,37.1 94.8,37.1 94.8,64.7 92.8,64.7 92.8,37.1 84.7,37.1 84.7,35.3 "/>
<path class="st2" d="M116.7,34.8c5,0,9.6,2.5,11,8.5h-1.9c-1.3-4.9-5.3-6.7-9.1-6.7c-6.9,0-10.6,5.7-10.6,13.3
	c0,8.1,3.7,13.3,10.6,13.3c4.1,0,7.8-1.8,9.3-7.3h1.9c-1.3,6.3-6.2,9.2-11.2,9.2c-7.9,0-12.6-5.8-12.6-15.2
	C104.2,41,109.1,34.8,116.7,34.8"/>
<path class="st2" d="M142.7,35.3c5.1,0,8.8,3.3,8.8,9.8c0,6.1-3.7,9.7-8.8,9.7H135v10H133V35.3H142.7z M142.7,52.8
	c3.7,0,6.8-2.4,6.8-7.8c0-5.4-2.9-7.9-6.8-7.9H135v15.7H142.7z"/>
<path class="st2" d="M151.8,64.7v-0.3l11.7-29.3h0.9l11.6,29.3v0.3H174l-3.3-8.5h-13.4l-3.3,8.5H151.8z M164,38.7l-6.1,15.7H170
	L164,38.7z"/>
<polygon class="st2" points="193.6,35.3 195.7,35.3 195.7,35.6 186.5,52.5 186.5,64.7 184.5,64.7 184.5,52.5 175.2,35.5 175.2,35.3 
	177.4,35.3 181.4,42.8 185.4,50.5 185.5,50.5 189.6,42.8 "/>
</svg>
