<svg width="175" height="160" viewBox="0 0 175 160" fill="none" xmlns="http://www.w3.org/2000/svg">
<path fill-rule="evenodd" clip-rule="evenodd" d="M146.343 102.388C161.544 95.0912 168 86.3674 168 79C168 71.6326 161.544 62.9088 146.343 55.6122C131.646 48.5576 110.85 44 87.5 44C64.15 44 43.3543 48.5576 28.6573 55.6122C13.4559 62.9088 7 71.6326 7 79C7 86.3674 13.4559 95.0912 28.6573 102.388C43.3543 109.442 64.15 114 87.5 114C110.85 114 131.646 109.442 146.343 102.388ZM87.5 121C135.825 121 175 102.196 175 79C175 55.804 135.825 37 87.5 37C39.1751 37 0 55.804 0 79C0 102.196 39.1751 121 87.5 121Z" fill="#1F58B9"/>
<path fill-rule="evenodd" clip-rule="evenodd" d="M78.3331 16.3468C64.4133 6.83034 53.6304 5.60128 47.25 9.28496C40.8697 12.9686 36.5426 22.9215 37.8242 39.7346C39.0633 55.9899 45.5142 76.2783 57.1892 96.5C68.8641 116.722 83.209 132.452 96.667 141.653C110.587 151.17 121.37 152.399 127.75 148.715C134.13 145.031 138.457 135.079 137.176 118.265C135.937 102.01 129.486 81.7217 117.811 61.5C106.136 41.2783 91.7911 25.5475 78.3331 16.3468ZM123.873 58C99.7106 16.1494 63.8383 -8.3752 43.75 3.22278C23.6618 14.8208 26.9645 58.1494 51.127 100C75.2894 141.851 111.162 166.375 131.25 154.777C151.338 143.179 148.036 99.8506 123.873 58Z" fill="#1F58B9"/>
<path fill-rule="evenodd" clip-rule="evenodd" d="M37.8241 118.265C36.5425 135.079 40.8696 145.031 47.2499 148.715C53.6302 152.399 64.4132 151.17 78.333 141.653C91.791 132.452 106.136 116.722 117.811 96.5C129.486 76.2783 135.937 55.99 137.176 39.7346C138.457 22.9215 134.13 12.9686 127.75 9.28496C121.37 5.60128 110.587 6.83034 96.6668 16.3468C83.2088 25.5475 68.864 41.2783 57.189 61.5C45.514 81.7217 39.0632 102.01 37.8241 118.265ZM51.1269 58C26.9644 99.8506 23.6616 143.179 43.7499 154.777C63.8382 166.375 99.7105 141.851 123.873 100C148.035 58.1494 151.338 14.8208 131.25 3.22278C111.162 -8.3752 75.2893 16.1494 51.1269 58Z" fill="#1F58B9"/>
<path d="M104.172 70.2464C103.572 64.8005 98.92 63.0464 93.0159 62.5532L92.9412 55L88.3786 55.0342L88.4661 62.4196C87.2591 62.4346 86.0391 62.4527 84.8416 62.5064L84.7541 55.121L80.1402 55.1681L80.2149 62.7213C79.2384 62.7333 78.2618 62.8001 77.2852 62.8121L71 62.8672L71.053 67.751C71.053 67.751 74.4438 67.6542 74.3445 67.7478C76.1952 67.7496 76.8128 68.8154 76.9663 69.7096L77.0695 78.3119C77.1976 78.3346 77.3513 78.2961 77.5465 78.3705C77.3672 78.3606 77.2648 78.3863 77.0855 78.3765L77.287 90.3971C77.2036 90.9942 76.8447 91.9073 75.5864 91.9351C75.6504 91.9739 72.2308 91.9544 72.2308 91.9544L71.432 97.4636L77.3682 97.3726C78.4729 97.3833 79.5647 97.3425 80.6085 97.3822L80.6992 105L85.2618 104.966L85.1871 97.4126C86.471 97.4332 87.6813 97.4311 88.8372 97.4291L88.8991 104.931L93.4617 104.896L93.371 97.2786C101.049 96.7503 106.394 94.764 106.95 87.4503C107.409 81.6148 104.688 79.0331 100.267 77.9894C102.973 76.6106 104.584 74.2171 104.172 70.2464ZM97.9527 86.6635C98.0311 92.364 88.3073 91.8282 85.2367 91.8446L85.0987 81.7284C88.2237 81.7121 97.8615 80.692 97.9527 86.6635ZM95.6803 72.3781C95.7492 77.546 87.6487 77.0829 85.052 77.09L84.981 67.9035C87.5232 67.8963 95.621 66.9747 95.6803 72.3781Z" fill="#1F58B9"/>
</svg>
