<svg width="500" height="500" viewBox="0 0 500 500" fill="none" xmlns="http://www.w3.org/2000/svg">
<rect width="500" height="500" rx="250" fill="#C12727"/>
<path d="M156.576 178.66C170.733 180.226 184.738 181.792 198.82 183.358C198.443 181.717 198.142 180.226 197.841 178.735C196.335 171.726 197.766 164.94 198.744 158.006C199.196 155.023 199.422 151.891 200.251 149.058C201.079 146.224 202.51 143.465 203.79 140.707C204.016 140.185 204.543 139.737 204.919 139.215C208.007 134.891 211.696 131.908 217.494 131.908C220.506 131.908 223.594 130.193 226.606 130.044C233.157 129.746 239.256 131.237 244.076 136.158C252.208 144.435 256.049 154.501 256.5 165.909C256.651 169.638 256.199 173.366 255.973 177.094C255.597 183.88 259.061 188.204 264.934 191.038C266.591 191.783 268.247 192.455 269.979 193.051C272.841 194.02 274.949 195.81 276.606 198.271C280.898 204.609 283.533 211.767 286.621 218.627C287.675 220.864 288.88 223.101 289.557 225.487C290.235 227.724 290.687 230.259 290.461 232.57C290.009 237.641 291.139 242.562 291.666 247.558C292.193 253.225 292.871 258.892 293.097 264.633C293.624 277.309 293.85 289.911 294.377 302.587C294.452 304.078 295.13 305.793 296.033 306.986C299.723 311.982 303.413 316.903 307.404 321.601C310.039 324.658 312.826 327.641 315.988 330.176C341.214 350.159 366.59 370.068 391.892 390.051C392.494 390.573 393.172 391.095 394 391.766C392.042 394.451 390.084 397.061 388.127 399.819C387.524 399.372 387.072 398.999 386.545 398.626C368.624 384.534 350.702 370.441 332.856 356.348C326.756 351.501 320.28 347.177 313.353 343.374C312.826 343.076 312.298 342.777 311.395 342.33C311.847 343.15 311.997 343.598 312.298 344.045C314.633 347.624 316.816 351.352 319.452 354.708C328.413 365.892 334.813 378.494 339.859 391.766C342.569 398.925 345.506 406.083 348.443 413.39C347.539 413.614 346.786 413.838 345.883 414.061C345.958 414.658 346.033 415.254 346.109 416C285.115 416 224.272 416 163.278 416C163.353 415.627 163.353 415.329 163.428 415.105C167.495 404.815 171.26 394.451 175.778 384.384C178.413 378.494 182.028 372.976 185.492 367.458C186.772 365.445 188.579 363.73 190.461 362.164C193.473 359.704 195.657 356.795 197.163 353.216C201.907 342.032 206.726 330.847 211.847 319.811C213.805 315.487 213.353 311.236 212.976 306.837C212.976 306.464 212.6 306.091 212.299 305.793C211.696 305.197 211.094 304.675 210.416 304.227C206.726 301.617 204.618 298.113 203.413 293.788C201.154 285.735 198.443 277.831 195.958 269.853C195.582 268.585 194.904 268.138 193.624 267.914C184.889 266.423 175.853 266.05 167.495 262.993C158.308 259.638 149.347 255.909 140.311 252.256C139.558 251.957 138.88 251.435 138.353 250.913C132.555 245.172 126.757 239.43 120.883 233.689C119.904 232.72 119.829 231.899 120.206 230.706C123.368 219.596 126.38 208.486 129.618 197.45C129.995 196.108 129.693 195.288 128.79 194.319C121.486 186.415 114.332 178.511 107.028 170.607C106.049 169.563 105.823 168.668 106.124 167.326C107.028 163.673 107.178 159.795 109.814 156.738C110.567 155.918 111.395 155.098 112.299 154.576C116.139 152.562 120.13 150.698 124.046 148.685C125.251 148.088 126.23 147.939 127.359 148.76C130.296 150.922 133.082 150.698 136.32 149.132C140.386 147.194 144.076 144.957 146.711 141.154C148.519 138.47 151.004 136.68 154.242 135.636C156.651 134.891 158.986 133.474 161.094 131.982C163.202 130.491 165.537 130.267 167.871 130.267C168.549 130.267 169.302 131.162 169.829 131.833C170.582 132.728 171.26 133.101 172.54 132.728C184.513 129.373 196.561 126.316 208.534 122.886C252.359 110.284 296.184 97.6081 340.009 84.9321C344.904 83.5153 349.798 84.0373 354.768 84.4101C355.747 84.4847 356.726 84.6338 357.856 85.0812C355.747 85.6031 353.714 86.1997 351.606 86.7216C351.606 86.7962 351.606 86.9453 351.606 87.0199C353.112 87.2436 354.542 87.4673 356.048 87.6164C356.048 87.7655 356.048 87.8401 356.124 87.9892C354.316 88.4366 352.509 88.884 350.702 89.406C330.371 95.5203 310.039 101.635 289.708 107.823C252.434 119.083 215.16 130.417 177.886 141.676C176.305 142.123 174.648 142.496 173.368 143.391C171.636 144.584 169.528 145.926 168.699 147.716C164.934 156.067 161.546 164.642 158.157 173.142C157.254 174.559 157.028 176.498 156.576 178.66Z" fill="white"/>
</svg>
