<svg width="1300" height="240" viewBox="0 0 1300 240" fill="none" xmlns="http://www.w3.org/2000/svg">
<rect width="1300" height="240" fill="white"/>
<path d="M88.8686 86.3828C88.5852 84.0312 86.8054 82.679 84.4489 82.679C81.7592 82.679 79.706 84.5781 79.706 87.9091C79.706 91.2301 81.7244 93.1392 84.4489 93.1392C87.0589 93.1392 88.6349 91.4041 88.8686 89.5298L86.6911 89.5199C86.4872 90.6087 85.6321 91.2351 84.4837 91.2351C82.9375 91.2351 81.8885 90.0866 81.8885 87.9091C81.8885 85.7912 82.9226 84.5831 84.4986 84.5831C85.6768 84.5831 86.527 85.2642 86.6911 86.3828H88.8686ZM90.3725 93H92.4904V88.6797C92.4904 87.7401 93.1765 87.0938 94.1112 87.0938C94.4045 87.0938 94.8072 87.1435 95.006 87.2081V85.3288C94.8171 85.2841 94.5536 85.2543 94.3398 85.2543C93.4847 85.2543 92.7837 85.7514 92.5053 86.696H92.4258V85.3636H90.3725V93ZM99.2257 93.1491C101.115 93.1491 102.388 92.2294 102.686 90.8125L100.727 90.6832C100.513 91.2649 99.9664 91.5682 99.2605 91.5682C98.2015 91.5682 97.5304 90.8672 97.5304 89.7287V89.7237H102.731V89.142C102.731 86.5469 101.16 85.2642 99.1412 85.2642C96.894 85.2642 95.4373 86.8601 95.4373 89.2166C95.4373 91.6378 96.8741 93.1491 99.2257 93.1491ZM97.5304 88.4112C97.5751 87.5412 98.2363 86.8452 99.176 86.8452C100.096 86.8452 100.732 87.5014 100.737 88.4112H97.5304ZM106.29 93.1442C107.419 93.1442 108.15 92.652 108.523 91.9411H108.582V93H110.591V87.8494C110.591 86.0298 109.05 85.2642 107.349 85.2642C105.52 85.2642 104.317 86.1392 104.023 87.5312L105.982 87.6903C106.126 87.1832 106.579 86.8104 107.339 86.8104C108.06 86.8104 108.473 87.1733 108.473 87.7997V87.8295C108.473 88.3217 107.951 88.3864 106.623 88.5156C105.112 88.6548 103.755 89.1619 103.755 90.8672C103.755 92.3786 104.834 93.1442 106.29 93.1442ZM106.897 91.6825C106.246 91.6825 105.778 91.3793 105.778 90.7976C105.778 90.201 106.27 89.9077 107.016 89.8033C107.479 89.7386 108.234 89.6293 108.488 89.4602V90.2706C108.488 91.071 107.827 91.6825 106.897 91.6825ZM116.296 85.3636H114.859V83.5341H112.741V85.3636H111.697V86.9545H112.741V90.9318C112.731 92.4283 113.75 93.169 115.286 93.1044C115.833 93.0845 116.221 92.9751 116.435 92.9055L116.102 91.3295C115.997 91.3494 115.774 91.3991 115.575 91.3991C115.152 91.3991 114.859 91.2401 114.859 90.6534V86.9545H116.296V85.3636ZM121.073 93.1491C122.963 93.1491 124.235 92.2294 124.534 90.8125L122.575 90.6832C122.361 91.2649 121.814 91.5682 121.108 91.5682C120.049 91.5682 119.378 90.8672 119.378 89.7287V89.7237H124.578V89.142C124.578 86.5469 123.007 85.2642 120.989 85.2642C118.742 85.2642 117.285 86.8601 117.285 89.2166C117.285 91.6378 118.722 93.1491 121.073 93.1491ZM119.378 88.4112C119.423 87.5412 120.084 86.8452 121.024 86.8452C121.943 86.8452 122.58 87.5014 122.585 88.4112H119.378ZM129.201 93H131.319V85.3636H129.201V93ZM130.265 84.3793C130.896 84.3793 131.413 83.897 131.413 83.3054C131.413 82.7188 130.896 82.2365 130.265 82.2365C129.638 82.2365 129.121 82.7188 129.121 83.3054C129.121 83.897 129.638 84.3793 130.265 84.3793ZM135.133 88.5852C135.138 87.6009 135.725 87.0241 136.58 87.0241C137.43 87.0241 137.942 87.581 137.937 88.5156V93H140.055V88.1378C140.055 86.358 139.011 85.2642 137.42 85.2642C136.286 85.2642 135.466 85.821 135.123 86.7109H135.034V85.3636H133.015V93H135.133V88.5852ZM148.57 85.3636H146.328L144.747 90.8274H144.667L143.081 85.3636H140.844L143.514 93H145.9L148.57 85.3636ZM152.844 93.1491C155.161 93.1491 156.603 91.5632 156.603 89.2116C156.603 86.8452 155.161 85.2642 152.844 85.2642C150.528 85.2642 149.086 86.8452 149.086 89.2116C149.086 91.5632 150.528 93.1491 152.844 93.1491ZM152.854 91.5085C151.785 91.5085 151.238 90.5291 151.238 89.1967C151.238 87.8643 151.785 86.88 152.854 86.88C153.903 86.88 154.45 87.8643 154.45 89.1967C154.45 90.5291 153.903 91.5085 152.854 91.5085ZM157.98 93H160.098V85.3636H157.98V93ZM159.044 84.3793C159.675 84.3793 160.192 83.897 160.192 83.3054C160.192 82.7188 159.675 82.2365 159.044 82.2365C158.417 82.2365 157.9 82.7188 157.9 83.3054C157.9 83.897 158.417 84.3793 159.044 84.3793ZM165.245 93.1491C167.278 93.1491 168.556 91.956 168.655 90.201H166.657C166.532 91.0163 165.995 91.4737 165.27 91.4737C164.28 91.4737 163.639 90.6435 163.639 89.1818C163.639 87.7401 164.285 86.9148 165.27 86.9148C166.045 86.9148 166.542 87.4268 166.657 88.1875H168.655C168.566 86.4226 167.228 85.2642 165.235 85.2642C162.918 85.2642 161.486 86.87 161.486 89.2116C161.486 91.5334 162.893 93.1491 165.245 93.1491ZM173.491 93.1491C175.381 93.1491 176.653 92.2294 176.952 90.8125L174.993 90.6832C174.779 91.2649 174.232 91.5682 173.526 91.5682C172.467 91.5682 171.796 90.8672 171.796 89.7287V89.7237H176.996V89.142C176.996 86.5469 175.425 85.2642 173.407 85.2642C171.16 85.2642 169.703 86.8601 169.703 89.2166C169.703 91.6378 171.14 93.1491 173.491 93.1491ZM171.796 88.4112C171.841 87.5412 172.502 86.8452 173.442 86.8452C174.361 86.8452 174.998 87.5014 175.003 88.4112H171.796Z" fill="black"/>
<rect x="59" y="59" width="139" height="57" rx="4" stroke="black" stroke-width="2"/>
<path d="M214 86.5C213.448 86.5 213 86.9477 213 87.5C213 88.0523 213.448 88.5 214 88.5V86.5ZM238.207 88.2071C238.598 87.8166 238.598 87.1834 238.207 86.7929L231.843 80.4289C231.453 80.0384 230.819 80.0384 230.429 80.4289C230.038 80.8195 230.038 81.4526 230.429 81.8431L236.086 87.5L230.429 93.1569C230.038 93.5474 230.038 94.1805 230.429 94.5711C230.819 94.9616 231.453 94.9616 231.843 94.5711L238.207 88.2071ZM214 88.5H237.5V86.5H214V88.5Z" fill="black"/>
<path d="M283.369 86.3828C283.085 84.0312 281.305 82.679 278.949 82.679C276.259 82.679 274.206 84.5781 274.206 87.9091C274.206 91.2301 276.224 93.1392 278.949 93.1392C281.559 93.1392 283.135 91.4041 283.369 89.5298L281.191 89.5199C280.987 90.6087 280.132 91.2351 278.984 91.2351C277.438 91.2351 276.388 90.0866 276.388 87.9091C276.388 85.7912 277.423 84.5831 278.999 84.5831C280.177 84.5831 281.027 85.2642 281.191 86.3828H283.369ZM288.323 93.1491C290.64 93.1491 292.081 91.5632 292.081 89.2116C292.081 86.8452 290.64 85.2642 288.323 85.2642C286.006 85.2642 284.564 86.8452 284.564 89.2116C284.564 91.5632 286.006 93.1491 288.323 93.1491ZM288.333 91.5085C287.264 91.5085 286.717 90.5291 286.717 89.1967C286.717 87.8643 287.264 86.88 288.333 86.88C289.382 86.88 289.929 87.8643 289.929 89.1967C289.929 90.5291 289.382 91.5085 288.333 91.5085ZM295.576 88.5852C295.581 87.6009 296.168 87.0241 297.023 87.0241C297.873 87.0241 298.385 87.581 298.38 88.5156V93H300.498V88.1378C300.498 86.358 299.454 85.2642 297.863 85.2642C296.73 85.2642 295.909 85.821 295.566 86.7109H295.477V85.3636H293.458V93H295.576V88.5852ZM306.274 85.3636H304.758V84.8516C304.758 84.3345 304.966 84.0312 305.588 84.0312C305.841 84.0312 306.1 84.0859 306.269 84.1406L306.642 82.5497C306.378 82.4702 305.797 82.3409 305.145 82.3409C303.709 82.3409 302.64 83.1513 302.64 84.8118V85.3636H301.561V86.9545H302.64V93H304.758V86.9545H306.274V85.3636ZM307.568 93H309.686V85.3636H307.568V93ZM308.632 84.3793C309.263 84.3793 309.78 83.897 309.78 83.3054C309.78 82.7188 309.263 82.2365 308.632 82.2365C308.005 82.2365 307.488 82.7188 307.488 83.3054C307.488 83.897 308.005 84.3793 308.632 84.3793ZM311.382 93H313.5V88.6797C313.5 87.7401 314.186 87.0938 315.121 87.0938C315.414 87.0938 315.817 87.1435 316.016 87.2081V85.3288C315.827 85.2841 315.563 85.2543 315.35 85.2543C314.494 85.2543 313.794 85.7514 313.515 86.696H313.436V85.3636H311.382V93ZM317.111 93H319.229V88.4162C319.229 87.571 319.766 87.0092 320.472 87.0092C321.168 87.0092 321.635 87.4865 321.635 88.2372V93H323.688V88.3366C323.688 87.5462 324.141 87.0092 324.911 87.0092C325.587 87.0092 326.094 87.4318 326.094 88.282V93H328.207V87.8643C328.207 86.2088 327.223 85.2642 325.801 85.2642C324.683 85.2642 323.812 85.8359 323.499 86.7109H323.42C323.176 85.826 322.396 85.2642 321.347 85.2642C320.317 85.2642 319.537 85.8111 319.219 86.7109H319.129V85.3636H317.111V93ZM333.121 95.8636H335.238V91.777H335.303C335.596 92.4134 336.238 93.1243 337.471 93.1243C339.211 93.1243 340.568 91.7472 340.568 89.1918C340.568 86.5668 339.151 85.2642 337.476 85.2642C336.198 85.2642 335.586 86.0249 335.303 86.6463H335.209V85.3636H333.121V95.8636ZM335.194 89.1818C335.194 87.8196 335.77 86.9496 336.8 86.9496C337.849 86.9496 338.405 87.8594 338.405 89.1818C338.405 90.5142 337.839 91.4389 336.8 91.4389C335.78 91.4389 335.194 90.544 335.194 89.1818ZM344.157 93.1442C345.286 93.1442 346.017 92.652 346.39 91.9411H346.449V93H348.458V87.8494C348.458 86.0298 346.917 85.2642 345.216 85.2642C343.387 85.2642 342.184 86.1392 341.89 87.5312L343.849 87.6903C343.993 87.1832 344.446 86.8104 345.206 86.8104C345.927 86.8104 346.34 87.1733 346.34 87.7997V87.8295C346.34 88.3217 345.818 88.3864 344.491 88.5156C342.979 88.6548 341.622 89.1619 341.622 90.8672C341.622 92.3786 342.701 93.1442 344.157 93.1442ZM344.764 91.6825C344.113 91.6825 343.645 91.3793 343.645 90.7976C343.645 90.201 344.138 89.9077 344.883 89.8033C345.346 89.7386 346.101 89.6293 346.355 89.4602V90.2706C346.355 91.071 345.694 91.6825 344.764 91.6825ZM351.135 95.8636C352.711 95.8636 353.546 95.0582 353.979 93.8253L356.947 85.3736L354.705 85.3636L353.109 90.9716H353.029L351.448 85.3636H349.221L351.96 93.2188L351.836 93.5419C351.558 94.2578 351.026 94.2926 350.28 94.0639L349.803 95.6449C350.106 95.7741 350.598 95.8636 351.135 95.8636ZM358.031 93H360.149V88.4162C360.149 87.571 360.686 87.0092 361.392 87.0092C362.088 87.0092 362.555 87.4865 362.555 88.2372V93H364.608V88.3366C364.608 87.5462 365.061 87.0092 365.831 87.0092C366.507 87.0092 367.014 87.4318 367.014 88.282V93H369.127V87.8643C369.127 86.2088 368.143 85.2642 366.721 85.2642C365.602 85.2642 364.732 85.8359 364.419 86.7109H364.34C364.096 85.826 363.316 85.2642 362.267 85.2642C361.237 85.2642 360.457 85.8111 360.139 86.7109H360.049V85.3636H358.031V93ZM374.28 93.1491C376.17 93.1491 377.442 92.2294 377.741 90.8125L375.782 90.6832C375.568 91.2649 375.021 91.5682 374.315 91.5682C373.256 91.5682 372.585 90.8672 372.585 89.7287V89.7237H377.785V89.142C377.785 86.5469 376.214 85.2642 374.196 85.2642C371.949 85.2642 370.492 86.8601 370.492 89.2166C370.492 91.6378 371.929 93.1491 374.28 93.1491ZM372.585 88.4112C372.63 87.5412 373.291 86.8452 374.231 86.8452C375.15 86.8452 375.787 87.5014 375.792 88.4112H372.585ZM381.285 88.5852C381.29 87.6009 381.877 87.0241 382.732 87.0241C383.582 87.0241 384.094 87.581 384.089 88.5156V93H386.207V88.1378C386.207 86.358 385.163 85.2642 383.572 85.2642C382.439 85.2642 381.618 85.821 381.275 86.7109H381.186V85.3636H379.167V93H381.285V88.5852ZM391.938 85.3636H390.501V83.5341H388.384V85.3636H387.339V86.9545H388.384V90.9318C388.374 92.4283 389.393 93.169 390.929 93.1044C391.476 93.0845 391.864 92.9751 392.077 92.9055L391.744 91.3295C391.64 91.3494 391.416 91.3991 391.217 91.3991C390.795 91.3991 390.501 91.2401 390.501 90.6534V86.9545H391.938V85.3636Z" fill="black"/>
<rect x="253.5" y="59" width="159" height="57" rx="4" stroke="black" stroke-width="2"/>
<path d="M428.5 86.5C427.948 86.5 427.5 86.9477 427.5 87.5C427.5 88.0523 427.948 88.5 428.5 88.5V86.5ZM452.707 88.2071C453.098 87.8166 453.098 87.1834 452.707 86.7929L446.343 80.4289C445.953 80.0384 445.319 80.0384 444.929 80.4289C444.538 80.8195 444.538 81.4526 444.929 81.8431L450.586 87.5L444.929 93.1569C444.538 93.5474 444.538 94.1805 444.929 94.5711C445.319 94.9616 445.953 94.9616 446.343 94.5711L452.707 88.2071ZM428.5 88.5H452V86.5H428.5V88.5Z" fill="black"/>
<path d="M488.885 93H491.038V89.6989H492.847C495.189 89.6989 496.551 88.3018 496.551 86.2685C496.551 84.245 495.214 82.8182 492.902 82.8182H488.885V93ZM491.038 87.9737V84.5781H492.489C493.732 84.5781 494.334 85.2543 494.334 86.2685C494.334 87.2777 493.732 87.9737 492.499 87.9737H491.038ZM499.882 93.1442C501.011 93.1442 501.741 92.652 502.114 91.9411H502.174V93H504.183V87.8494C504.183 86.0298 502.641 85.2642 500.941 85.2642C499.112 85.2642 497.908 86.1392 497.615 87.5312L499.574 87.6903C499.718 87.1832 500.17 86.8104 500.931 86.8104C501.652 86.8104 502.065 87.1733 502.065 87.7997V87.8295C502.065 88.3217 501.543 88.3864 500.215 88.5156C498.704 88.6548 497.347 89.1619 497.347 90.8672C497.347 92.3786 498.425 93.1442 499.882 93.1442ZM500.489 91.6825C499.837 91.6825 499.37 91.3793 499.37 90.7976C499.37 90.201 499.862 89.9077 500.608 89.8033C501.07 89.7386 501.826 89.6293 502.08 89.4602V90.2706C502.08 91.071 501.418 91.6825 500.489 91.6825ZM509.887 85.3636H508.451V83.5341H506.333V85.3636H505.289V86.9545H506.333V90.9318C506.323 92.4283 507.342 93.169 508.878 93.1044C509.425 93.0845 509.813 92.9751 510.027 92.9055L509.694 91.3295C509.589 91.3494 509.365 91.3991 509.167 91.3991C508.744 91.3991 508.451 91.2401 508.451 90.6534V86.9545H509.887V85.3636ZM513.549 88.5852C513.554 87.6009 514.156 87.0241 515.021 87.0241C515.881 87.0241 516.388 87.576 516.383 88.5156V93H518.501V88.1378C518.506 86.348 517.452 85.2642 515.861 85.2642C514.702 85.2642 513.927 85.8111 513.579 86.7109H513.489V82.8182H511.431V93H513.549V88.5852ZM524.274 85.3636H522.758V84.8516C522.758 84.3345 522.966 84.0312 523.588 84.0312C523.841 84.0312 524.1 84.0859 524.269 84.1406L524.642 82.5497C524.378 82.4702 523.797 82.3409 523.145 82.3409C521.709 82.3409 520.64 83.1513 520.64 84.8118V85.3636H519.561V86.9545H520.64V93H522.758V86.9545H524.274V85.3636ZM525.568 93H527.686V85.3636H525.568V93ZM526.632 84.3793C527.263 84.3793 527.78 83.897 527.78 83.3054C527.78 82.7188 527.263 82.2365 526.632 82.2365C526.005 82.2365 525.488 82.7188 525.488 83.3054C525.488 83.897 526.005 84.3793 526.632 84.3793ZM531.5 88.5852C531.505 87.6009 532.092 87.0241 532.947 87.0241C533.797 87.0241 534.309 87.581 534.304 88.5156V93H536.422V88.1378C536.422 86.358 535.378 85.2642 533.787 85.2642C532.654 85.2642 531.833 85.821 531.49 86.7109H531.401V85.3636H529.382V93H531.5V88.5852ZM540.905 93.1243C542.138 93.1243 542.779 92.4134 543.073 91.777H543.162V93H545.25V82.8182H543.137V86.6463H543.073C542.789 86.0249 542.178 85.2642 540.9 85.2642C539.225 85.2642 537.808 86.5668 537.808 89.1918C537.808 91.7472 539.165 93.1243 540.905 93.1243ZM541.576 91.4389C540.537 91.4389 539.971 90.5142 539.971 89.1818C539.971 87.8594 540.527 86.9496 541.576 86.9496C542.605 86.9496 543.182 87.8196 543.182 89.1818C543.182 90.544 542.596 91.4389 541.576 91.4389ZM546.992 93H549.11V85.3636H546.992V93ZM548.056 84.3793C548.687 84.3793 549.204 83.897 549.204 83.3054C549.204 82.7188 548.687 82.2365 548.056 82.2365C547.429 82.2365 546.912 82.7188 546.912 83.3054C546.912 83.897 547.429 84.3793 548.056 84.3793ZM552.924 88.5852C552.929 87.6009 553.516 87.0241 554.371 87.0241C555.221 87.0241 555.733 87.581 555.728 88.5156V93H557.846V88.1378C557.846 86.358 556.802 85.2642 555.211 85.2642C554.077 85.2642 553.257 85.821 552.914 86.7109H552.825V85.3636H550.806V93H552.924V88.5852ZM562.955 96.0227C565.138 96.0227 566.689 95.0284 566.689 93.0746V85.3636H564.586V86.6463H564.507C564.223 86.0249 563.602 85.2642 562.324 85.2642C560.649 85.2642 559.232 86.5668 559.232 89.1669C559.232 91.7074 560.609 92.8906 562.329 92.8906C563.547 92.8906 564.228 92.2791 564.507 91.6477H564.596V93.0447C564.596 94.0938 563.925 94.5014 563.005 94.5014C562.07 94.5014 561.598 94.0938 561.424 93.6314L559.465 93.8949C559.719 95.098 560.897 96.0227 562.955 96.0227ZM563 91.2997C561.961 91.2997 561.394 90.4744 561.394 89.157C561.394 87.8594 561.951 86.9496 563 86.9496C564.029 86.9496 564.606 87.8196 564.606 89.157C564.606 90.5043 564.019 91.2997 563 91.2997ZM574.737 93.1491C575.627 93.1491 576.591 92.9006 577.342 92.3139L577.958 93H580.166L578.635 91.245C579.201 90.4943 579.559 89.4155 579.559 88.0334H577.804C577.804 88.6996 577.64 89.2912 577.372 89.7933L575.691 87.8643L576.288 87.4368C577.143 86.8203 577.64 86.0447 577.64 85.0852C577.64 83.7827 576.631 82.6839 574.995 82.6839C573.325 82.6839 572.216 83.8224 572.216 85.299C572.216 86.2038 572.654 86.9595 573.186 87.6357C572.077 88.3963 571.331 89.1172 571.331 90.2955C571.331 91.9013 572.619 93.1491 574.737 93.1491ZM576.199 91.0412C575.771 91.3047 575.304 91.4489 574.841 91.4489C573.956 91.4489 573.385 90.902 573.385 90.1761C573.385 89.7884 573.648 89.3409 574.21 88.9332L574.27 88.8935L576.199 91.0412ZM574.672 86.6562C574.294 86.179 574.031 85.7564 574.031 85.3338C574.031 84.8217 574.419 84.3942 575.01 84.3892C575.607 84.3842 575.945 84.8018 575.945 85.2045C575.945 85.6321 575.711 85.9851 575.204 86.3082L574.672 86.6562ZM584.328 93H586.481V89.3906H588.052L589.981 93H592.357L590.195 89.0426C591.353 88.5455 591.994 87.5362 591.994 86.1442C591.994 84.1207 590.657 82.8182 588.345 82.8182H584.328V93ZM586.481 87.6605V84.5781H587.933C589.176 84.5781 589.777 85.13 589.777 86.1442C589.777 87.1534 589.176 87.6605 587.943 87.6605H586.481ZM596.803 93.1491C599.12 93.1491 600.562 91.5632 600.562 89.2116C600.562 86.8452 599.12 85.2642 596.803 85.2642C594.487 85.2642 593.045 86.8452 593.045 89.2116C593.045 91.5632 594.487 93.1491 596.803 93.1491ZM596.813 91.5085C595.744 91.5085 595.197 90.5291 595.197 89.1967C595.197 87.8643 595.744 86.88 596.813 86.88C597.862 86.88 598.409 87.8643 598.409 89.1967C598.409 90.5291 597.862 91.5085 596.813 91.5085ZM606.836 89.7486C606.841 90.7727 606.14 91.3097 605.379 91.3097C604.579 91.3097 604.062 90.7479 604.057 89.848V85.3636H601.939V90.2259C601.944 92.0107 602.988 93.0994 604.524 93.0994C605.673 93.0994 606.498 92.5078 606.841 91.6129H606.92V93H608.954V85.3636H606.836V89.7486ZM614.71 85.3636H613.273V83.5341H611.155V85.3636H610.111V86.9545H611.155V90.9318C611.145 92.4283 612.164 93.169 613.7 93.1044C614.247 93.0845 614.635 92.9751 614.849 92.9055L614.516 91.3295C614.411 91.3494 614.188 91.3991 613.989 91.3991C613.566 91.3991 613.273 91.2401 613.273 90.6534V86.9545H614.71V85.3636ZM616.089 93H618.207V85.3636H616.089V93ZM617.153 84.3793C617.785 84.3793 618.302 83.897 618.302 83.3054C618.302 82.7188 617.785 82.2365 617.153 82.2365C616.527 82.2365 616.01 82.7188 616.01 83.3054C616.01 83.897 616.527 84.3793 617.153 84.3793ZM622.022 88.5852C622.027 87.6009 622.613 87.0241 623.468 87.0241C624.319 87.0241 624.831 87.581 624.826 88.5156V93H626.944V88.1378C626.944 86.358 625.9 85.2642 624.309 85.2642C623.175 85.2642 622.355 85.821 622.012 86.7109H621.922V85.3636H619.904V93H622.022V88.5852ZM632.053 96.0227C634.236 96.0227 635.787 95.0284 635.787 93.0746V85.3636H633.684V86.6463H633.604C633.321 86.0249 632.699 85.2642 631.422 85.2642C629.746 85.2642 628.329 86.5668 628.329 89.1669C628.329 91.7074 629.706 92.8906 631.427 92.8906C632.645 92.8906 633.326 92.2791 633.604 91.6477H633.694V93.0447C633.694 94.0938 633.023 94.5014 632.103 94.5014C631.168 94.5014 630.696 94.0938 630.522 93.6314L628.563 93.8949C628.817 95.098 629.995 96.0227 632.053 96.0227ZM632.098 91.2997C631.059 91.2997 630.492 90.4744 630.492 89.157C630.492 87.8594 631.049 86.9496 632.098 86.9496C633.127 86.9496 633.704 87.8196 633.704 89.157C633.704 90.5043 633.117 91.2997 632.098 91.2997Z" fill="black"/>
<rect x="468" y="59" width="189" height="57" rx="4" stroke="black" stroke-width="2"/>
<path d="M673 86.5C672.448 86.5 672 86.9477 672 87.5C672 88.0523 672.448 88.5 673 88.5V86.5ZM697.207 88.2071C697.598 87.8166 697.598 87.1834 697.207 86.7929L690.843 80.4289C690.453 80.0384 689.819 80.0384 689.429 80.4289C689.038 80.8195 689.038 81.4526 689.429 81.8431L695.086 87.5L689.429 93.1569C689.038 93.5474 689.038 94.1805 689.429 94.5711C689.819 94.9616 690.453 94.9616 690.843 94.5711L697.207 88.2071ZM673 88.5H696.5V86.5H673V88.5Z" fill="black"/>
<path d="M733.385 93H735.538V89.3906H737.109L739.038 93H741.414L739.251 89.0426C740.41 88.5455 741.051 87.5362 741.051 86.1442C741.051 84.1207 739.714 82.8182 737.402 82.8182H733.385V93ZM735.538 87.6605V84.5781H736.989C738.232 84.5781 738.834 85.13 738.834 86.1442C738.834 87.1534 738.232 87.6605 736.999 87.6605H735.538ZM745.89 93.1491C747.779 93.1491 749.052 92.2294 749.35 90.8125L747.391 90.6832C747.177 91.2649 746.631 91.5682 745.925 91.5682C744.866 91.5682 744.194 90.8672 744.194 89.7287V89.7237H749.395V89.142C749.395 86.5469 747.824 85.2642 745.805 85.2642C743.558 85.2642 742.101 86.8601 742.101 89.2166C742.101 91.6378 743.538 93.1491 745.89 93.1491ZM744.194 88.4112C744.239 87.5412 744.9 86.8452 745.84 86.8452C746.76 86.8452 747.396 87.5014 747.401 88.4112H744.194ZM754.227 93.1491C756.26 93.1491 757.538 91.956 757.638 90.201H755.639C755.515 91.0163 754.978 91.4737 754.252 91.4737C753.263 91.4737 752.621 90.6435 752.621 89.1818C752.621 87.7401 753.268 86.9148 754.252 86.9148C755.028 86.9148 755.525 87.4268 755.639 88.1875H757.638C757.548 86.4226 756.211 85.2642 754.217 85.2642C751.9 85.2642 750.469 86.87 750.469 89.2116C750.469 91.5334 751.876 93.1491 754.227 93.1491ZM762.474 93.1491C764.363 93.1491 765.636 92.2294 765.934 90.8125L763.975 90.6832C763.761 91.2649 763.214 91.5682 762.509 91.5682C761.45 91.5682 760.778 90.8672 760.778 89.7287V89.7237H765.979V89.142C765.979 86.5469 764.408 85.2642 762.389 85.2642C760.142 85.2642 758.685 86.8601 758.685 89.2166C758.685 91.6378 760.122 93.1491 762.474 93.1491ZM760.778 88.4112C760.823 87.5412 761.484 86.8452 762.424 86.8452C763.344 86.8452 763.98 87.5014 763.985 88.4112H760.778ZM767.361 93H769.479V85.3636H767.361V93ZM768.425 84.3793C769.056 84.3793 769.573 83.897 769.573 83.3054C769.573 82.7188 769.056 82.2365 768.425 82.2365C767.798 82.2365 767.281 82.7188 767.281 83.3054C767.281 83.897 767.798 84.3793 768.425 84.3793ZM778.295 85.3636H776.052L774.471 90.8274H774.392L772.806 85.3636H770.569L773.238 93H775.625L778.295 85.3636ZM782.599 93.1491C784.488 93.1491 785.761 92.2294 786.059 90.8125L784.1 90.6832C783.886 91.2649 783.339 91.5682 782.634 91.5682C781.575 91.5682 780.903 90.8672 780.903 89.7287V89.7237H786.104V89.142C786.104 86.5469 784.533 85.2642 782.514 85.2642C780.267 85.2642 778.81 86.8601 778.81 89.2166C778.81 91.6378 780.247 93.1491 782.599 93.1491ZM780.903 88.4112C780.948 87.5412 781.609 86.8452 782.549 86.8452C783.469 86.8452 784.105 87.5014 784.11 88.4112H780.903ZM790.726 95.8636H792.844V91.777H792.909C793.202 92.4134 793.843 93.1243 795.076 93.1243C796.816 93.1243 798.173 91.7472 798.173 89.1918C798.173 86.5668 796.757 85.2642 795.081 85.2642C793.803 85.2642 793.192 86.0249 792.909 86.6463H792.814V85.3636H790.726V95.8636ZM792.799 89.1818C792.799 87.8196 793.376 86.9496 794.405 86.9496C795.454 86.9496 796.011 87.8594 796.011 89.1818C796.011 90.5142 795.444 91.4389 794.405 91.4389C793.386 91.4389 792.799 90.544 792.799 89.1818ZM801.763 93.1442C802.892 93.1442 803.622 92.652 803.995 91.9411H804.055V93H806.063V87.8494C806.063 86.0298 804.522 85.2642 802.822 85.2642C800.992 85.2642 799.789 86.1392 799.496 87.5312L801.455 87.6903C801.599 87.1832 802.051 86.8104 802.812 86.8104C803.533 86.8104 803.945 87.1733 803.945 87.7997V87.8295C803.945 88.3217 803.423 88.3864 802.096 88.5156C800.585 88.6548 799.227 89.1619 799.227 90.8672C799.227 92.3786 800.306 93.1442 801.763 93.1442ZM802.369 91.6825C801.718 91.6825 801.251 91.3793 801.251 90.7976C801.251 90.201 801.743 89.9077 802.489 89.8033C802.951 89.7386 803.707 89.6293 803.96 89.4602V90.2706C803.96 91.071 803.299 91.6825 802.369 91.6825ZM808.741 95.8636C810.317 95.8636 811.152 95.0582 811.584 93.8253L814.552 85.3736L812.31 85.3636L810.714 90.9716H810.635L809.054 85.3636H806.827L809.566 93.2188L809.442 93.5419C809.163 94.2578 808.631 94.2926 807.885 94.0639L807.408 95.6449C807.711 95.7741 808.204 95.8636 808.741 95.8636ZM815.636 93H817.754V88.4162C817.754 87.571 818.291 87.0092 818.997 87.0092C819.693 87.0092 820.16 87.4865 820.16 88.2372V93H822.214V88.3366C822.214 87.5462 822.666 87.0092 823.437 87.0092C824.113 87.0092 824.62 87.4318 824.62 88.282V93H826.733V87.8643C826.733 86.2088 825.748 85.2642 824.327 85.2642C823.208 85.2642 822.338 85.8359 822.025 86.7109H821.945C821.702 85.826 820.921 85.2642 819.872 85.2642C818.843 85.2642 818.062 85.8111 817.744 86.7109H817.655V85.3636H815.636V93ZM831.886 93.1491C833.775 93.1491 835.048 92.2294 835.346 90.8125L833.387 90.6832C833.173 91.2649 832.627 91.5682 831.921 91.5682C830.862 91.5682 830.191 90.8672 830.191 89.7287V89.7237H835.391V89.142C835.391 86.5469 833.82 85.2642 831.801 85.2642C829.554 85.2642 828.097 86.8601 828.097 89.2166C828.097 91.6378 829.534 93.1491 831.886 93.1491ZM830.191 88.4112C830.235 87.5412 830.896 86.8452 831.836 86.8452C832.756 86.8452 833.392 87.5014 833.397 88.4112H830.191ZM838.891 88.5852C838.896 87.6009 839.482 87.0241 840.338 87.0241C841.188 87.0241 841.7 87.581 841.695 88.5156V93H843.813V88.1378C843.813 86.358 842.769 85.2642 841.178 85.2642C840.044 85.2642 839.224 85.821 838.881 86.7109H838.791V85.3636H836.773V93H838.891V88.5852ZM849.544 85.3636H848.107V83.5341H845.989V85.3636H844.945V86.9545H845.989V90.9318C845.979 92.4283 846.998 93.169 848.534 93.1044C849.081 93.0845 849.469 92.9751 849.683 92.9055L849.35 91.3295C849.245 91.3494 849.022 91.3991 848.823 91.3991C848.4 91.3991 848.107 91.2401 848.107 90.6534V86.9545H849.544V85.3636ZM856.341 93.1442C857.47 93.1442 858.2 92.652 858.573 91.9411H858.633V93H860.642V87.8494C860.642 86.0298 859.1 85.2642 857.4 85.2642C855.57 85.2642 854.367 86.1392 854.074 87.5312L856.033 87.6903C856.177 87.1832 856.629 86.8104 857.39 86.8104C858.111 86.8104 858.524 87.1733 858.524 87.7997V87.8295C858.524 88.3217 858.002 88.3864 856.674 88.5156C855.163 88.6548 853.806 89.1619 853.806 90.8672C853.806 92.3786 854.884 93.1442 856.341 93.1442ZM856.948 91.6825C856.296 91.6825 855.829 91.3793 855.829 90.7976C855.829 90.201 856.321 89.9077 857.067 89.8033C857.529 89.7386 858.285 89.6293 858.539 89.4602V90.2706C858.539 91.071 857.877 91.6825 856.948 91.6825ZM864.403 88.5852C864.407 87.6009 864.994 87.0241 865.849 87.0241C866.699 87.0241 867.211 87.581 867.206 88.5156V93H869.324V88.1378C869.324 86.358 868.28 85.2642 866.689 85.2642C865.556 85.2642 864.736 85.821 864.393 86.7109H864.303V85.3636H862.285V93H864.403V88.5852ZM873.808 93.1243C875.04 93.1243 875.682 92.4134 875.975 91.777H876.065V93H878.153V82.8182H876.04V86.6463H875.975C875.692 86.0249 875.08 85.2642 873.803 85.2642C872.127 85.2642 870.71 86.5668 870.71 89.1918C870.71 91.7472 872.067 93.1243 873.808 93.1243ZM874.479 91.4389C873.44 91.4389 872.873 90.5142 872.873 89.1818C872.873 87.8594 873.43 86.9496 874.479 86.9496C875.508 86.9496 876.085 87.8196 876.085 89.1818C876.085 90.544 875.498 91.4389 874.479 91.4389ZM883.134 93H885.252V88.6797C885.252 87.7401 885.938 87.0938 886.873 87.0938C887.166 87.0938 887.569 87.1435 887.768 87.2081V85.3288C887.579 85.2841 887.315 85.2543 887.102 85.2543C886.246 85.2543 885.545 85.7514 885.267 86.696H885.188V85.3636H883.134V93ZM891.987 93.1491C893.877 93.1491 895.149 92.2294 895.448 90.8125L893.489 90.6832C893.275 91.2649 892.728 91.5682 892.022 91.5682C890.963 91.5682 890.292 90.8672 890.292 89.7287V89.7237H895.492V89.142C895.492 86.5469 893.921 85.2642 891.903 85.2642C889.656 85.2642 888.199 86.8601 888.199 89.2166C888.199 91.6378 889.636 93.1491 891.987 93.1491ZM890.292 88.4112C890.337 87.5412 890.998 86.8452 891.938 86.8452C892.857 86.8452 893.494 87.5014 893.499 88.4112H890.292ZM903.775 85.3636H901.533L899.952 90.8274H899.872L898.286 85.3636H896.049L898.719 93H901.105L903.775 85.3636ZM908.079 93.1491C909.968 93.1491 911.241 92.2294 911.539 90.8125L909.581 90.6832C909.367 91.2649 908.82 91.5682 908.114 91.5682C907.055 91.5682 906.384 90.8672 906.384 89.7287V89.7237H911.584V89.142C911.584 86.5469 910.013 85.2642 907.995 85.2642C905.748 85.2642 904.291 86.8601 904.291 89.2166C904.291 91.6378 905.728 93.1491 908.079 93.1491ZM906.384 88.4112C906.429 87.5412 907.09 86.8452 908.029 86.8452C908.949 86.8452 909.586 87.5014 909.591 88.4112H906.384ZM915.144 93.1442C916.272 93.1442 917.003 92.652 917.376 91.9411H917.436V93H919.444V87.8494C919.444 86.0298 917.903 85.2642 916.203 85.2642C914.373 85.2642 913.17 86.1392 912.877 87.5312L914.836 87.6903C914.98 87.1832 915.432 86.8104 916.193 86.8104C916.914 86.8104 917.326 87.1733 917.326 87.7997V87.8295C917.326 88.3217 916.804 88.3864 915.477 88.5156C913.966 88.6548 912.608 89.1619 912.608 90.8672C912.608 92.3786 913.687 93.1442 915.144 93.1442ZM915.75 91.6825C915.099 91.6825 914.632 91.3793 914.632 90.7976C914.632 90.201 915.124 89.9077 915.87 89.8033C916.332 89.7386 917.088 89.6293 917.341 89.4602V90.2706C917.341 91.071 916.68 91.6825 915.75 91.6825ZM923.205 82.8182H921.087V93H923.205V82.8182ZM928.142 95.8636H930.26V91.777H930.325C930.618 92.4134 931.259 93.1243 932.492 93.1243C934.232 93.1243 935.589 91.7472 935.589 89.1918C935.589 86.5668 934.173 85.2642 932.497 85.2642C931.219 85.2642 930.608 86.0249 930.325 86.6463H930.23V85.3636H928.142V95.8636ZM930.215 89.1818C930.215 87.8196 930.792 86.9496 931.821 86.9496C932.87 86.9496 933.427 87.8594 933.427 89.1818C933.427 90.5142 932.86 91.4389 931.821 91.4389C930.802 91.4389 930.215 90.544 930.215 89.1818ZM937.001 93H939.119V88.6797C939.119 87.7401 939.805 87.0938 940.74 87.0938C941.033 87.0938 941.436 87.1435 941.635 87.2081V85.3288C941.446 85.2841 941.183 85.2543 940.969 85.2543C940.114 85.2543 939.413 85.7514 939.134 86.696H939.055V85.3636H937.001V93ZM945.855 93.1491C947.744 93.1491 949.017 92.2294 949.315 90.8125L947.356 90.6832C947.142 91.2649 946.595 91.5682 945.889 91.5682C944.83 91.5682 944.159 90.8672 944.159 89.7287V89.7237H949.36V89.142C949.36 86.5469 947.789 85.2642 945.77 85.2642C943.523 85.2642 942.066 86.8601 942.066 89.2166C942.066 91.6378 943.503 93.1491 945.855 93.1491ZM944.159 88.4112C944.204 87.5412 944.865 86.8452 945.805 86.8452C946.725 86.8452 947.361 87.5014 947.366 88.4112H944.159ZM950.742 93H952.86V85.3636H950.742V93ZM951.806 84.3793C952.437 84.3793 952.954 83.897 952.954 83.3054C952.954 82.7188 952.437 82.2365 951.806 82.2365C951.179 82.2365 950.662 82.7188 950.662 83.3054C950.662 83.897 951.179 84.3793 951.806 84.3793ZM954.556 93H956.674V88.4162C956.674 87.571 957.211 87.0092 957.917 87.0092C958.613 87.0092 959.08 87.4865 959.08 88.2372V93H961.134V88.3366C961.134 87.5462 961.586 87.0092 962.357 87.0092C963.033 87.0092 963.54 87.4318 963.54 88.282V93H965.653V87.8643C965.653 86.2088 964.668 85.2642 963.246 85.2642C962.128 85.2642 961.258 85.8359 960.945 86.7109H960.865C960.621 85.826 959.841 85.2642 958.792 85.2642C957.763 85.2642 956.982 85.8111 956.664 86.7109H956.575V85.3636H954.556V93ZM969.503 93.1442C970.632 93.1442 971.363 92.652 971.735 91.9411H971.795V93H973.804V87.8494C973.804 86.0298 972.262 85.2642 970.562 85.2642C968.733 85.2642 967.529 86.1392 967.236 87.5312L969.195 87.6903C969.339 87.1832 969.792 86.8104 970.552 86.8104C971.273 86.8104 971.686 87.1733 971.686 87.7997V87.8295C971.686 88.3217 971.164 88.3864 969.836 88.5156C968.325 88.6548 966.968 89.1619 966.968 90.8672C966.968 92.3786 968.047 93.1442 969.503 93.1442ZM970.11 91.6825C969.458 91.6825 968.991 91.3793 968.991 90.7976C968.991 90.201 969.483 89.9077 970.229 89.8033C970.691 89.7386 971.447 89.6293 971.701 89.4602V90.2706C971.701 91.071 971.039 91.6825 970.11 91.6825ZM978.887 96.0227C981.07 96.0227 982.621 95.0284 982.621 93.0746V85.3636H980.518V86.6463H980.438C980.155 86.0249 979.533 85.2642 978.256 85.2642C976.58 85.2642 975.163 86.5668 975.163 89.1669C975.163 91.7074 976.54 92.8906 978.261 92.8906C979.479 92.8906 980.16 92.2791 980.438 91.6477H980.528V93.0447C980.528 94.0938 979.857 94.5014 978.937 94.5014C978.002 94.5014 977.53 94.0938 977.356 93.6314L975.397 93.8949C975.651 95.098 976.829 96.0227 978.887 96.0227ZM978.932 91.2997C977.893 91.2997 977.326 90.4744 977.326 89.157C977.326 87.8594 977.883 86.9496 978.932 86.9496C979.961 86.9496 980.538 87.8196 980.538 89.157C980.538 90.5043 979.951 91.2997 978.932 91.2997ZM987.786 93.1491C989.675 93.1491 990.948 92.2294 991.246 90.8125L989.288 90.6832C989.074 91.2649 988.527 91.5682 987.821 91.5682C986.762 91.5682 986.091 90.8672 986.091 89.7287V89.7237H991.291V89.142C991.291 86.5469 989.72 85.2642 987.702 85.2642C985.455 85.2642 983.998 86.8601 983.998 89.2166C983.998 91.6378 985.435 93.1491 987.786 93.1491ZM986.091 88.4112C986.136 87.5412 986.797 86.8452 987.737 86.8452C988.656 86.8452 989.293 87.5014 989.298 88.4112H986.091Z" fill="black"/>
<rect x="712.5" y="59" width="300" height="57" rx="4" stroke="black" stroke-width="2"/>
<path d="M1028.5 86.5C1027.95 86.5 1027.5 86.9477 1027.5 87.5C1027.5 88.0523 1027.95 88.5 1028.5 88.5V86.5ZM1052.71 88.2071C1053.1 87.8166 1053.1 87.1834 1052.71 86.7929L1046.34 80.4289C1045.95 80.0384 1045.32 80.0384 1044.93 80.4289C1044.54 80.8195 1044.54 81.4526 1044.93 81.8431L1050.59 87.5L1044.93 93.1569C1044.54 93.5474 1044.54 94.1805 1044.93 94.5711C1045.32 94.9616 1045.95 94.9616 1046.34 94.5711L1052.71 88.2071ZM1028.5 88.5H1052V86.5H1028.5V88.5Z" fill="black"/>
<path d="M1088.88 93H1091.04V89.6989H1092.85C1095.19 89.6989 1096.55 88.3018 1096.55 86.2685C1096.55 84.245 1095.21 82.8182 1092.9 82.8182H1088.88V93ZM1091.04 87.9737V84.5781H1092.49C1093.73 84.5781 1094.33 85.2543 1094.33 86.2685C1094.33 87.2777 1093.73 87.9737 1092.5 87.9737H1091.04ZM1099.88 93.1442C1101.01 93.1442 1101.74 92.652 1102.11 91.9411H1102.17V93H1104.18V87.8494C1104.18 86.0298 1102.64 85.2642 1100.94 85.2642C1099.11 85.2642 1097.91 86.1392 1097.62 87.5312L1099.57 87.6903C1099.72 87.1832 1100.17 86.8104 1100.93 86.8104C1101.65 86.8104 1102.06 87.1733 1102.06 87.7997V87.8295C1102.06 88.3217 1101.54 88.3864 1100.22 88.5156C1098.7 88.6548 1097.35 89.1619 1097.35 90.8672C1097.35 92.3786 1098.43 93.1442 1099.88 93.1442ZM1100.49 91.6825C1099.84 91.6825 1099.37 91.3793 1099.37 90.7976C1099.37 90.201 1099.86 89.9077 1100.61 89.8033C1101.07 89.7386 1101.83 89.6293 1102.08 89.4602V90.2706C1102.08 91.071 1101.42 91.6825 1100.49 91.6825ZM1106.86 95.8636C1108.44 95.8636 1109.27 95.0582 1109.7 93.8253L1112.67 85.3736L1110.43 85.3636L1108.83 90.9716H1108.75L1107.17 85.3636H1104.95L1107.69 93.2188L1107.56 93.5419C1107.28 94.2578 1106.75 94.2926 1106 94.0639L1105.53 95.6449C1105.83 95.7741 1106.32 95.8636 1106.86 95.8636ZM1113.76 93H1115.87V88.4162C1115.87 87.571 1116.41 87.0092 1117.12 87.0092C1117.81 87.0092 1118.28 87.4865 1118.28 88.2372V93H1120.33V88.3366C1120.33 87.5462 1120.79 87.0092 1121.56 87.0092C1122.23 87.0092 1122.74 87.4318 1122.74 88.282V93H1124.85V87.8643C1124.85 86.2088 1123.87 85.2642 1122.45 85.2642C1121.33 85.2642 1120.46 85.8359 1120.14 86.7109H1120.06C1119.82 85.826 1119.04 85.2642 1117.99 85.2642C1116.96 85.2642 1116.18 85.8111 1115.86 86.7109H1115.77V85.3636H1113.76V93ZM1130 93.1491C1131.89 93.1491 1133.17 92.2294 1133.47 90.8125L1131.51 90.6832C1131.29 91.2649 1130.75 91.5682 1130.04 91.5682C1128.98 91.5682 1128.31 90.8672 1128.31 89.7287V89.7237H1133.51V89.142C1133.51 86.5469 1131.94 85.2642 1129.92 85.2642C1127.67 85.2642 1126.22 86.8601 1126.22 89.2166C1126.22 91.6378 1127.65 93.1491 1130 93.1491ZM1128.31 88.4112C1128.35 87.5412 1129.02 86.8452 1129.96 86.8452C1130.88 86.8452 1131.51 87.5014 1131.52 88.4112H1128.31ZM1137.01 88.5852C1137.01 87.6009 1137.6 87.0241 1138.46 87.0241C1139.31 87.0241 1139.82 87.581 1139.81 88.5156V93H1141.93V88.1378C1141.93 86.358 1140.89 85.2642 1139.3 85.2642C1138.16 85.2642 1137.34 85.821 1137 86.7109H1136.91V85.3636H1134.89V93H1137.01V88.5852ZM1147.66 85.3636H1146.23V83.5341H1144.11V85.3636H1143.06V86.9545H1144.11V90.9318C1144.1 92.4283 1145.12 93.169 1146.65 93.1044C1147.2 93.0845 1147.59 92.9751 1147.8 92.9055L1147.47 91.3295C1147.36 91.3494 1147.14 91.3991 1146.94 91.3991C1146.52 91.3991 1146.23 91.2401 1146.23 90.6534V86.9545H1147.66V85.3636ZM1155.73 93.1491C1157.77 93.1491 1159.04 91.956 1159.14 90.201H1157.14C1157.02 91.0163 1156.48 91.4737 1155.76 91.4737C1154.77 91.4737 1154.13 90.6435 1154.13 89.1818C1154.13 87.7401 1154.77 86.9148 1155.76 86.9148C1156.53 86.9148 1157.03 87.4268 1157.14 88.1875H1159.14C1159.05 86.4226 1157.72 85.2642 1155.72 85.2642C1153.41 85.2642 1151.97 86.87 1151.97 89.2116C1151.97 91.5334 1153.38 93.1491 1155.73 93.1491ZM1163.95 93.1491C1166.27 93.1491 1167.71 91.5632 1167.71 89.2116C1167.71 86.8452 1166.27 85.2642 1163.95 85.2642C1161.63 85.2642 1160.19 86.8452 1160.19 89.2116C1160.19 91.5632 1161.63 93.1491 1163.95 93.1491ZM1163.96 91.5085C1162.89 91.5085 1162.34 90.5291 1162.34 89.1967C1162.34 87.8643 1162.89 86.88 1163.96 86.88C1165.01 86.88 1165.56 87.8643 1165.56 89.1967C1165.56 90.5291 1165.01 91.5085 1163.96 91.5085ZM1169.09 93H1171.2V88.4162C1171.2 87.571 1171.74 87.0092 1172.45 87.0092C1173.14 87.0092 1173.61 87.4865 1173.61 88.2372V93H1175.66V88.3366C1175.66 87.5462 1176.12 87.0092 1176.89 87.0092C1177.56 87.0092 1178.07 87.4318 1178.07 88.282V93H1180.18V87.8643C1180.18 86.2088 1179.2 85.2642 1177.78 85.2642C1176.66 85.2642 1175.79 85.8359 1175.47 86.7109H1175.39C1175.15 85.826 1174.37 85.2642 1173.32 85.2642C1172.29 85.2642 1171.51 85.8111 1171.19 86.7109H1171.1V85.3636H1169.09V93ZM1181.85 95.8636H1183.97V91.777H1184.04C1184.33 92.4134 1184.97 93.1243 1186.21 93.1243C1187.95 93.1243 1189.3 91.7472 1189.3 89.1918C1189.3 86.5668 1187.89 85.2642 1186.21 85.2642C1184.93 85.2642 1184.32 86.0249 1184.04 86.6463H1183.94V85.3636H1181.85V95.8636ZM1183.93 89.1818C1183.93 87.8196 1184.5 86.9496 1185.53 86.9496C1186.58 86.9496 1187.14 87.8594 1187.14 89.1818C1187.14 90.5142 1186.57 91.4389 1185.53 91.4389C1184.51 91.4389 1183.93 90.544 1183.93 89.1818ZM1192.83 82.8182H1190.71V93H1192.83V82.8182ZM1198.01 93.1491C1199.9 93.1491 1201.17 92.2294 1201.47 90.8125L1199.51 90.6832C1199.3 91.2649 1198.75 91.5682 1198.04 91.5682C1196.98 91.5682 1196.31 90.8672 1196.31 89.7287V89.7237H1201.51V89.142C1201.51 86.5469 1199.94 85.2642 1197.92 85.2642C1195.68 85.2642 1194.22 86.8601 1194.22 89.2166C1194.22 91.6378 1195.66 93.1491 1198.01 93.1491ZM1196.31 88.4112C1196.36 87.5412 1197.02 86.8452 1197.96 86.8452C1198.88 86.8452 1199.52 87.5014 1199.52 88.4112H1196.31ZM1206.96 85.3636H1205.52V83.5341H1203.4V85.3636H1202.36V86.9545H1203.4V90.9318C1203.39 92.4283 1204.41 93.169 1205.95 93.1044C1206.5 93.0845 1206.88 92.9751 1207.1 92.9055L1206.76 91.3295C1206.66 91.3494 1206.44 91.3991 1206.24 91.3991C1205.81 91.3991 1205.52 91.2401 1205.52 90.6534V86.9545H1206.96V85.3636ZM1211.74 93.1491C1213.62 93.1491 1214.9 92.2294 1215.2 90.8125L1213.24 90.6832C1213.02 91.2649 1212.48 91.5682 1211.77 91.5682C1210.71 91.5682 1210.04 90.8672 1210.04 89.7287V89.7237H1215.24V89.142C1215.24 86.5469 1213.67 85.2642 1211.65 85.2642C1209.4 85.2642 1207.95 86.8601 1207.95 89.2166C1207.95 91.6378 1209.38 93.1491 1211.74 93.1491ZM1210.04 88.4112C1210.08 87.5412 1210.75 86.8452 1211.69 86.8452C1212.61 86.8452 1213.24 87.5014 1213.25 88.4112H1210.04Z" fill="black"/>
<rect x="1068" y="59" width="168" height="57" rx="4" stroke="black" stroke-width="2"/>
<path d="M59 149H195.5" stroke="#FDF1E2" stroke-width="6" stroke-linecap="round" stroke-linejoin="round"/>
<path d="M59.8849 178H62.0376V174.391H63.6087L65.5376 178H67.9141L65.7514 174.043C66.9098 173.545 67.5511 172.536 67.5511 171.144C67.5511 169.121 66.2138 167.818 63.902 167.818H59.8849V178ZM62.0376 172.661V169.578H63.4893C64.7322 169.578 65.3338 170.13 65.3338 171.144C65.3338 172.153 64.7322 172.661 63.4993 172.661H62.0376ZM69.0724 178H75.9531V176.225H71.2251V173.794H75.5803V172.019H71.2251V169.593H75.9332V167.818H69.0724V178ZM86.6284 171.383C86.345 169.031 84.5652 167.679 82.2086 167.679C79.519 167.679 77.4657 169.578 77.4657 172.909C77.4657 176.23 79.4842 178.139 82.2086 178.139C84.8187 178.139 86.3947 176.404 86.6284 174.53L84.4508 174.52C84.247 175.609 83.3919 176.235 82.2434 176.235C80.6973 176.235 79.6483 175.087 79.6483 172.909C79.6483 170.791 80.6824 169.583 82.2583 169.583C83.4366 169.583 84.2868 170.264 84.4508 171.383H86.6284ZM90.3248 167.818H88.1721V178H90.3248V167.818ZM92.0959 178H94.2486V174.699H96.0582C98.3999 174.699 99.7621 173.302 99.7621 171.268C99.7621 169.245 98.4247 167.818 96.1129 167.818H92.0959V178ZM94.2486 172.974V169.578H95.7003C96.9432 169.578 97.5447 170.254 97.5447 171.268C97.5447 172.278 96.9432 172.974 95.7102 172.974H94.2486ZM103.313 167.818H101.16V178H103.313V167.818ZM105.084 178H111.965V176.225H107.237V173.794H111.592V172.019H107.237V169.593H111.945V167.818H105.084V178ZM122.173 167.818H120.03V174.222H119.941L115.546 167.818H113.656V178H115.809V171.592H115.884L120.313 178H122.173V167.818ZM123.564 169.593H126.681V178H128.809V169.593H131.926V167.818H123.564V169.593ZM138.835 178H140.933L142.867 171.343H142.947L144.885 178H146.983L149.897 167.818H147.545L145.86 174.908H145.77L143.916 167.818H141.903L140.043 174.893H139.959L138.273 167.818H135.922L138.835 178ZM151.765 178L152.521 175.678H156.195L156.95 178H159.257L155.747 167.818H152.973L149.458 178H151.765ZM153.067 173.998L154.32 170.145H154.4L155.653 173.998H153.067ZM160.483 178H167V176.225H162.635V167.818H160.483V178ZM168.426 178H174.944V176.225H170.579V167.818H168.426V178ZM176.369 178H183.25V176.225H178.522V173.794H182.877V172.019H178.522V169.593H183.23V167.818H176.369V178ZM184.554 169.593H187.671V178H189.799V169.593H192.916V167.818H184.554V169.593Z" fill="black"/>
<path d="M256.5 149H655.078" stroke="#FDF1E2" stroke-width="6" stroke-linecap="round" stroke-linejoin="round"/>
<path d="M262.908 170.746H264.972C264.942 168.932 263.45 167.679 261.183 167.679C258.951 167.679 257.315 168.912 257.325 170.761C257.32 172.263 258.379 173.123 260.099 173.536L261.208 173.814C262.317 174.082 262.933 174.401 262.938 175.087C262.933 175.832 262.227 176.339 261.134 176.339C260.015 176.339 259.21 175.822 259.14 174.803H257.057C257.112 177.006 258.688 178.144 261.158 178.144C263.644 178.144 265.106 176.956 265.111 175.092C265.106 173.396 263.828 172.496 262.058 172.099L261.143 171.88C260.259 171.676 259.518 171.348 259.533 170.617C259.533 169.961 260.114 169.479 261.168 169.479C262.197 169.479 262.829 169.946 262.908 170.746ZM266.559 178H273.439V176.225H268.711V173.794H273.067V172.019H268.711V169.593H273.42V167.818H266.559V178ZM283.647 167.818H281.505V174.222H281.415L277.02 167.818H275.131V178H277.284V171.592H277.358L281.788 178H283.647V167.818ZM289.035 178C292.138 178 294.017 176.081 294.017 172.899C294.017 169.727 292.138 167.818 289.065 167.818H285.426V178H289.035ZM287.579 176.156V169.663H288.951C290.86 169.663 291.869 170.637 291.869 172.899C291.869 175.171 290.86 176.156 288.946 176.156H287.579ZM295.612 178H302.492V176.225H297.764V173.794H302.119V172.019H297.764V169.593H302.472V167.818H295.612V178ZM304.184 178H306.336V174.391H307.907L309.836 178H312.213L310.05 174.043C311.209 173.545 311.85 172.536 311.85 171.144C311.85 169.121 310.513 167.818 308.201 167.818H304.184V178ZM306.336 172.661V169.578H307.788C309.031 169.578 309.633 170.13 309.633 171.144C309.633 172.153 309.031 172.661 307.798 172.661H306.336ZM318.903 178H321.001L322.935 171.343H323.015L324.954 178H327.052L329.965 167.818H327.614L325.928 174.908H325.839L323.984 167.818H321.971L320.112 174.893H320.027L318.342 167.818H315.99L318.903 178ZM331.833 178L332.589 175.678H336.263L337.019 178H339.325L335.816 167.818H333.041L329.526 178H331.833ZM333.136 173.998L334.389 170.145H334.468L335.721 173.998H333.136ZM340.551 178H347.069V176.225H342.704V167.818H340.551V178ZM348.494 178H355.012V176.225H350.647V167.818H348.494V178ZM356.438 178H363.318V176.225H358.59V173.794H362.945V172.019H358.59V169.593H363.298V167.818H356.438V178ZM364.622 169.593H367.739V178H369.867V169.593H372.984V167.818H364.622V169.593Z" fill="black"/>
<path d="M716.078 149H1010.08" stroke="#FDF1E2" stroke-width="6" stroke-linecap="round" stroke-linejoin="round"/>
<path d="M716.963 178H719.116V174.391H720.687L722.616 178H724.992L722.83 174.043C723.988 173.545 724.629 172.536 724.629 171.144C724.629 169.121 723.292 167.818 720.98 167.818H716.963V178ZM719.116 172.661V169.578H720.567C721.81 169.578 722.412 170.13 722.412 171.144C722.412 172.153 721.81 172.661 720.577 172.661H719.116ZM726.151 178H733.031V176.225H728.303V173.794H732.658V172.019H728.303V169.593H733.011V167.818H726.151V178ZM743.706 171.383C743.423 169.031 741.643 167.679 739.287 167.679C736.597 167.679 734.544 169.578 734.544 172.909C734.544 176.23 736.562 178.139 739.287 178.139C741.897 178.139 743.473 176.404 743.706 174.53L741.529 174.52C741.325 175.609 740.47 176.235 739.322 176.235C737.775 176.235 736.726 175.087 736.726 172.909C736.726 170.791 737.76 169.583 739.336 169.583C740.515 169.583 741.365 170.264 741.529 171.383H743.706ZM747.403 167.818H745.25V178H747.403V167.818ZM749.174 178H751.327V174.699H753.136C755.478 174.699 756.84 173.302 756.84 171.268C756.84 169.245 755.503 167.818 753.191 167.818H749.174V178ZM751.327 172.974V169.578H752.778C754.021 169.578 754.623 170.254 754.623 171.268C754.623 172.278 754.021 172.974 752.788 172.974H751.327ZM760.391 167.818H758.238V178H760.391V167.818ZM762.162 178H769.043V176.225H764.315V173.794H768.67V172.019H764.315V169.593H769.023V167.818H762.162V178ZM779.251 167.818H777.108V174.222H777.019L772.624 167.818H770.735V178H772.887V171.592H772.962L777.392 178H779.251V167.818ZM780.642 169.593H783.759V178H785.887V169.593H789.004V167.818H780.642V169.593ZM795.913 178H798.011L799.945 171.343H800.025L801.964 178H804.062L806.975 167.818H804.623L802.938 174.908H802.849L800.994 167.818H798.981L797.121 174.893H797.037L795.351 167.818H793L795.913 178ZM808.843 178L809.599 175.678H813.273L814.028 178H816.335L812.825 167.818H810.051L806.536 178H808.843ZM810.146 173.998L811.398 170.145H811.478L812.731 173.998H810.146ZM817.561 178H824.078V176.225H819.713V167.818H817.561V178ZM825.504 178H832.022V176.225H827.657V167.818H825.504V178ZM833.447 178H840.328V176.225H835.6V173.794H839.955V172.019H835.6V169.593H840.308V167.818H833.447V178ZM841.632 169.593H844.749V178H846.877V169.593H849.994V167.818H841.632V169.593Z" fill="black"/>
<path d="M1071.08 149H1235" stroke="#FDF1E2" stroke-width="6" stroke-linecap="round" stroke-linejoin="round"/>
<path d="M1077.49 170.746H1079.55C1079.52 168.932 1078.03 167.679 1075.76 167.679C1073.53 167.679 1071.89 168.912 1071.9 170.761C1071.9 172.263 1072.96 173.123 1074.68 173.536L1075.79 173.814C1076.89 174.082 1077.51 174.401 1077.52 175.087C1077.51 175.832 1076.81 176.339 1075.71 176.339C1074.59 176.339 1073.79 175.822 1073.72 174.803H1071.63C1071.69 177.006 1073.27 178.144 1075.74 178.144C1078.22 178.144 1079.68 176.956 1079.69 175.092C1079.68 173.396 1078.41 172.496 1076.64 172.099L1075.72 171.88C1074.84 171.676 1074.1 171.348 1074.11 170.617C1074.11 169.961 1074.69 169.479 1075.75 169.479C1076.78 169.479 1077.41 169.946 1077.49 170.746ZM1081.14 178H1088.02V176.225H1083.29V173.794H1087.64V172.019H1083.29V169.593H1088V167.818H1081.14V178ZM1098.23 167.818H1096.08V174.222H1095.99L1091.6 167.818H1089.71V178H1091.86V171.592H1091.94L1096.37 178H1098.23V167.818ZM1103.61 178C1106.72 178 1108.59 176.081 1108.59 172.899C1108.59 169.727 1106.72 167.818 1103.64 167.818H1100V178H1103.61ZM1102.16 176.156V169.663H1103.53C1105.44 169.663 1106.45 170.637 1106.45 172.899C1106.45 175.171 1105.44 176.156 1103.52 176.156H1102.16ZM1110.19 178H1117.07V176.225H1112.34V173.794H1116.7V172.019H1112.34V169.593H1117.05V167.818H1110.19V178ZM1118.76 178H1120.91V174.391H1122.49L1124.41 178H1126.79L1124.63 174.043C1125.79 173.545 1126.43 172.536 1126.43 171.144C1126.43 169.121 1125.09 167.818 1122.78 167.818H1118.76V178ZM1120.91 172.661V169.578H1122.37C1123.61 169.578 1124.21 170.13 1124.21 171.144C1124.21 172.153 1123.61 172.661 1122.38 172.661H1120.91ZM1133.48 178H1135.58L1137.51 171.343H1137.59L1139.53 178H1141.63L1144.54 167.818H1142.19L1140.51 174.908H1140.42L1138.56 167.818H1136.55L1134.69 174.893H1134.61L1132.92 167.818H1130.57L1133.48 178ZM1146.41 178L1147.17 175.678H1150.84L1151.6 178H1153.9L1150.39 167.818H1147.62L1144.1 178H1146.41ZM1147.71 173.998L1148.97 170.145H1149.05L1150.3 173.998H1147.71ZM1155.13 178H1161.65V176.225H1157.28V167.818H1155.13V178ZM1163.07 178H1169.59V176.225H1165.23V167.818H1163.07V178ZM1171.02 178H1177.9V176.225H1173.17V173.794H1177.52V172.019H1173.17V169.593H1177.88V167.818H1171.02V178ZM1179.2 169.593H1182.32V178H1184.45V169.593H1187.56V167.818H1179.2V169.593Z" fill="black"/>
</svg>
