<?xml version="1.0" encoding="UTF-8"?>
<svg width="871px" height="391px" viewBox="0 0 871 391" version="1.1" xmlns="http://www.w3.org/2000/svg" xmlns:xlink="http://www.w3.org/1999/xlink">
    <!-- Generator: Sketch 54.1 (76490) - https://sketchapp.com -->
    <title>ContextualSetting</title>
    <desc>Created with Sketch.</desc>
    <defs>
        <rect id="path-1" x="0.7" y="0" width="414" height="179"></rect>
        <filter x="-1.7%" y="-2.8%" width="103.4%" height="107.8%" filterUnits="objectBoundingBox" id="filter-2">
            <feOffset dx="0" dy="2" in="SourceAlpha" result="shadowOffsetOuter1"></feOffset>
            <feGaussianBlur stdDeviation="2" in="shadowOffsetOuter1" result="shadowBlurOuter1"></feGaussianBlur>
            <feComposite in="shadowBlurOuter1" in2="SourceAlpha" operator="out" result="shadowBlurOuter1"></feComposite>
            <feColorMatrix values="0 0 0 0 0   0 0 0 0 0   0 0 0 0 0  0 0 0 0.277425699 0" type="matrix" in="shadowBlurOuter1"></feColorMatrix>
        </filter>
        <rect id="path-3" x="0.7" y="0" width="414" height="179"></rect>
        <filter x="-1.7%" y="-2.8%" width="103.4%" height="107.8%" filterUnits="objectBoundingBox" id="filter-4">
            <feOffset dx="0" dy="2" in="SourceAlpha" result="shadowOffsetOuter1"></feOffset>
            <feGaussianBlur stdDeviation="2" in="shadowOffsetOuter1" result="shadowBlurOuter1"></feGaussianBlur>
            <feComposite in="shadowBlurOuter1" in2="SourceAlpha" operator="out" result="shadowBlurOuter1"></feComposite>
            <feColorMatrix values="0 0 0 0 0   0 0 0 0 0   0 0 0 0 0  0 0 0 0.277425699 0" type="matrix" in="shadowBlurOuter1"></feColorMatrix>
        </filter>
        <rect id="path-5" x="5.68434189e-14" y="0" width="254" height="341"></rect>
        <filter x="-10.2%" y="-5.6%" width="120.5%" height="115.2%" filterUnits="objectBoundingBox" id="filter-6">
            <feMorphology radius="0.5" operator="erode" in="SourceAlpha" result="shadowSpreadOuter1"></feMorphology>
            <feOffset dx="0" dy="7" in="shadowSpreadOuter1" result="shadowOffsetOuter1"></feOffset>
            <feGaussianBlur stdDeviation="8" in="shadowOffsetOuter1" result="shadowBlurOuter1"></feGaussianBlur>
            <feComposite in="shadowBlurOuter1" in2="SourceAlpha" operator="out" result="shadowBlurOuter1"></feComposite>
            <feColorMatrix values="0 0 0 0 0   0 0 0 0 0   0 0 0 0 0  0 0 0 0.5 0" type="matrix" in="shadowBlurOuter1"></feColorMatrix>
        </filter>
    </defs>
    <g id="ContextualSetting" stroke="none" stroke-width="1" fill="none" fill-rule="evenodd">
        <g id="Group" transform="translate(-0.000000, 2.000000)">
            <g id="Contextual-1" transform="translate(-0.000000, 0.000000)">
                <rect fill="#FFFFFF" x="0" y="0" width="414" height="179"></rect>
                <g id="Rectangle">
                    <use fill="black" fill-opacity="1" filter="url(#filter-2)" xlink:href="#path-1"></use>
                    <rect stroke="#DCDCDC" stroke-width="1" stroke-linejoin="square" fill="#FBFBFC" fill-rule="evenodd" x="1.2" y="0.5" width="413" height="178"></rect>
                </g>
                <g id="Group" stroke-width="1" fill-rule="evenodd" transform="translate(259.500000, 107.000000)">
                    <rect id="Rectangle" stroke="#BFBEBE" fill="#EBEBEB" x="0.5" y="0.5" width="75" height="35"></rect>
                    <path d="M14.4334184,28 L14.4334184,7.3828125 L21.1736528,7.3828125 C23.4109686,7.3828125 25.0936504,7.84537298 26.2217485,8.77050781 C27.3498466,9.69564265 27.9138871,11.0644441 27.9138871,12.8769531 C27.9138871,13.8398486 27.6401269,14.6918094 27.0925981,15.4328613 C26.5450693,16.1739132 25.7993085,16.7473938 24.8552934,17.1533203 C25.9692312,17.4648453 26.8495122,18.0572059 27.4961625,18.9304199 C28.1428129,19.8036339 28.4661332,20.844395 28.4661332,22.0527344 C28.4661332,23.903004 27.8666926,25.3567655 26.6677934,26.4140625 C25.4688942,27.4713595 23.7744124,28 21.5842973,28 L14.4334184,28 Z M17.1521684,18.3569336 L17.1521684,25.7768555 L21.6409379,25.7768555 C22.9059182,25.7768555 23.9041992,25.4488151 24.635811,24.7927246 C25.3674227,24.1366341 25.7332231,23.2327532 25.7332231,22.0810547 C25.7332231,19.5982949 24.3833017,18.3569336 21.6834184,18.3569336 L17.1521684,18.3569336 Z M17.1521684,16.1762695 L21.2586137,16.1762695 C22.4480728,16.1762695 23.3991538,15.8789092 24.1118852,15.2841797 C24.8246166,14.6894502 25.180977,13.8823293 25.180977,12.862793 C25.180977,11.7299748 24.8505766,10.906334 24.189766,10.3918457 C23.5289554,9.87735745 22.5235944,9.62011719 21.1736528,9.62011719 L17.1521684,9.62011719 L17.1521684,16.1762695 Z M45.838646,9.62011719 L39.2116928,9.62011719 L39.2116928,28 L36.507103,28 L36.507103,9.62011719 L29.89431,9.62011719 L29.89431,7.3828125 L45.838646,7.3828125 L45.838646,9.62011719 Z M63.1545181,21.4580078 C62.899634,23.6386828 62.0948732,25.3213645 60.7402115,26.5061035 C59.3855497,27.6908425 57.5848679,28.2832031 55.3381118,28.2832031 C52.9025528,28.2832031 50.9508308,27.4100022 49.4828872,25.6635742 C48.0149437,23.9171462 47.2809829,21.5807438 47.2809829,18.6542969 L47.2809829,16.671875 C47.2809829,14.7555243 47.6231833,13.0704825 48.3075943,11.6166992 C48.9920052,10.1629159 49.9619662,9.04663475 51.2175064,8.26782227 C52.4730465,7.48900978 53.926808,7.09960938 55.5788345,7.09960938 C57.7689496,7.09960938 59.5247914,7.71085001 60.8464126,8.93334961 C62.1680338,10.1558492 62.9373946,11.847971 63.1545181,14.0097656 L60.4216079,14.0097656 C60.1856042,12.3671793 59.6734836,11.1777381 58.885231,10.4414062 C58.0969783,9.70507444 56.9948572,9.33691406 55.5788345,9.33691406 C53.8418466,9.33691406 52.4801252,9.97883473 51.4936294,11.2626953 C50.5071336,12.5465559 50.0138931,14.3731978 50.0138931,16.7426758 L50.0138931,18.7392578 C50.0138931,20.9765737 50.4811736,22.7560155 51.4157486,24.0776367 C52.3503235,25.3992579 53.6577649,26.0600586 55.3381118,26.0600586 C56.8485361,26.0600586 58.0072973,25.7178582 58.8144302,25.0334473 C59.6215631,24.3490363 60.1572837,23.1572351 60.4216079,21.4580078 L63.1545181,21.4580078 Z" id="BTC" fill="#262C37" fill-rule="nonzero"></path>
                </g>
                <path d="M110.105454,126.206543 C110.105454,129.274592 109.581534,131.554355 108.533677,133.045898 C107.48582,134.537442 105.847978,135.283203 103.620103,135.283203 C101.420547,135.283203 99.7921456,134.553962 98.7348486,133.095459 C97.6775517,131.636956 97.1300311,129.458673 97.0922705,126.560547 L97.0922705,123.062988 C97.0922705,120.0327 97.616191,117.781257 98.6640478,116.308594 C99.7119046,114.83593 101.354466,114.099609 103.591782,114.099609 C105.810218,114.099609 107.443339,114.80997 108.491196,116.230713 C109.539053,117.651456 110.077134,119.843898 110.105454,122.808105 L110.105454,126.206543 Z M107.485825,122.624023 C107.485825,120.405588 107.174305,118.788986 106.551255,117.77417 C105.928205,116.759354 104.941724,116.251953 103.591782,116.251953 C102.251281,116.251953 101.27424,116.756994 100.66063,117.76709 C100.04702,118.777186 99.7307797,120.330068 99.7118994,122.425781 L99.7118994,126.617188 C99.7118994,128.845063 100.03522,130.489985 100.68187,131.552002 C101.32852,132.614019 102.307921,133.14502 103.620103,133.14502 C104.913403,133.14502 105.873924,132.644699 106.501694,131.644043 C107.129464,130.643387 107.457505,129.066905 107.485825,126.914551 L107.485825,122.624023 Z M113.27533,133.626465 C113.27533,133.173338 113.40985,132.795737 113.678895,132.493652 C113.947939,132.191567 114.351499,132.040527 114.889588,132.040527 C115.427677,132.040527 115.835957,132.191567 116.114441,132.493652 C116.392926,132.795737 116.532166,133.173338 116.532166,133.626465 C116.532166,134.060712 116.392926,134.424152 116.114441,134.716797 C115.835957,135.009442 115.427677,135.155762 114.889588,135.155762 C114.351499,135.155762 113.947939,135.009442 113.678895,134.716797 C113.40985,134.424152 113.27533,134.060712 113.27533,133.626465 Z M128.679581,135 L126.045792,135 L126.045792,117.540527 L120.764054,119.480469 L120.764054,117.101562 L128.268937,114.283691 L128.679581,114.283691 L128.679581,135 Z M149.35141,135 L135.842621,135 L135.842621,133.116699 L142.97934,125.187012 C144.036637,123.988112 144.765878,123.013431 145.167084,122.262939 C145.56829,121.512447 145.768891,120.736007 145.768891,119.933594 C145.768891,118.857416 145.44321,117.974776 144.79184,117.285645 C144.140469,116.596513 143.271988,116.251953 142.186371,116.251953 C140.88363,116.251953 139.871189,116.622474 139.149018,117.363525 C138.426846,118.104577 138.065766,119.135898 138.065766,120.45752 L135.446137,120.45752 C135.446137,118.560049 136.057377,117.026048 137.279877,115.855469 C138.502377,114.68489 140.137858,114.099609 142.186371,114.099609 C144.102722,114.099609 145.617843,114.60229 146.731781,115.607666 C147.845719,116.613042 148.40268,117.951164 148.40268,119.62207 C148.40268,121.651703 147.109398,124.068345 144.522797,126.87207 L139.000336,132.861816 L149.35141,132.861816 L149.35141,135 Z M155.424118,123.416992 L157.39238,123.416992 C158.62904,123.398112 159.601361,123.072432 160.309372,122.439941 C161.017383,121.807451 161.371384,120.95313 161.371384,119.876953 C161.371384,117.460274 160.167783,116.251953 157.760544,116.251953 C156.627726,116.251953 155.723845,116.575273 155.048874,117.221924 C154.373903,117.868574 154.036423,118.725255 154.036423,119.791992 L151.416794,119.791992 C151.416794,118.158846 152.013875,116.801845 153.208054,115.720947 C154.402233,114.64005 155.919714,114.099609 157.760544,114.099609 C159.705215,114.099609 161.229777,114.61409 162.334274,115.643066 C163.438772,116.672043 163.991013,118.102204 163.991013,119.933594 C163.991013,120.830408 163.700732,121.698889 163.120163,122.539062 C162.539594,123.379236 161.748993,124.006997 160.748337,124.422363 C161.881155,124.781089 162.756716,125.37581 163.375046,126.206543 C163.993376,127.037276 164.302536,128.052077 164.302536,129.250977 C164.302536,131.101246 163.698376,132.569168 162.490036,133.654785 C161.281697,134.740403 159.709935,135.283203 157.774704,135.283203 C155.839473,135.283203 154.265351,134.759283 153.052292,133.711426 C151.839233,132.663569 151.232712,131.280608 151.232712,129.5625 L153.866501,129.5625 C153.866501,130.648117 154.220501,131.516598 154.928513,132.167969 C155.636524,132.819339 156.585245,133.14502 157.774704,133.14502 C159.039684,133.14502 160.007285,132.814619 160.677536,132.153809 C161.347787,131.492998 161.682907,130.544277 161.682907,129.307617 C161.682907,128.108718 161.314747,127.188317 160.578415,126.546387 C159.842083,125.904456 158.780082,125.574056 157.39238,125.555176 L155.424118,125.555176 L155.424118,123.416992 Z M178.446533,128.075684 L181.306885,128.075684 L181.306885,130.213867 L178.446533,130.213867 L178.446533,135 L175.812744,135 L175.812744,130.213867 L166.424561,130.213867 L166.424561,128.67041 L175.656982,114.382812 L178.446533,114.382812 L178.446533,128.075684 Z M169.398193,128.075684 L175.812744,128.075684 L175.812744,117.965332 L175.501221,118.531738 L169.398193,128.075684 Z M184.363479,124.663086 L185.411331,114.382812 L195.974808,114.382812 L195.974808,116.804199 L187.634476,116.804199 L187.011429,122.425781 C188.021525,121.831052 189.168486,121.533691 190.452347,121.533691 C192.330937,121.533691 193.822458,122.154372 194.926956,123.395752 C196.031454,124.637132 196.583694,126.315094 196.583694,128.429688 C196.583694,130.553722 196.010214,132.226963 194.863235,133.449463 C193.716257,134.671962 192.113815,135.283203 190.055862,135.283203 C188.233913,135.283203 186.747112,134.778163 185.595413,133.768066 C184.443715,132.75797 183.787634,131.360849 183.627151,129.57666 L186.105179,129.57666 C186.265661,130.756679 186.685742,131.6464 187.365433,132.24585 C188.045124,132.845299 188.941924,133.14502 190.055862,133.14502 C191.273642,133.14502 192.229443,132.729659 192.923294,131.898926 C193.617145,131.068192 193.964065,129.921231 193.964065,128.458008 C193.964065,127.079746 193.588825,125.972905 192.838333,125.137451 C192.087841,124.301998 191.08956,123.884277 189.84346,123.884277 C188.701202,123.884277 187.804401,124.134438 187.15303,124.634766 L186.459183,125.201172 L184.363479,124.663086 Z M209.212555,114.368652 L209.212555,116.591797 L208.731109,116.591797 C206.692037,116.629557 205.068355,117.233718 203.860016,118.404297 C202.651676,119.574876 201.953116,121.222157 201.764313,123.346191 C202.84993,122.100091 204.332011,121.477051 206.210602,121.477051 C208.00423,121.477051 209.436752,122.109531 210.508209,123.374512 C211.579666,124.639492 212.115387,126.272614 212.115387,128.273926 C212.115387,130.39796 211.537186,132.097162 210.380768,133.371582 C209.224349,134.646002 207.673827,135.283203 205.729156,135.283203 C203.756165,135.283203 202.156083,134.525642 200.928863,133.010498 C199.701644,131.495354 199.088043,129.543632 199.088043,127.155273 L199.088043,126.149902 C199.088043,122.354961 199.897524,119.454518 201.51651,117.448486 C203.135496,115.442454 205.545058,114.415853 208.74527,114.368652 L209.212555,114.368652 Z M205.771637,123.657715 C204.874822,123.657715 204.048821,123.926755 203.293609,124.464844 C202.538397,125.002932 202.014477,125.677893 201.721832,126.489746 L201.721832,127.452637 C201.721832,129.151864 202.104152,130.520665 202.868805,131.559082 C203.633457,132.597499 204.586898,133.116699 205.729156,133.116699 C206.909175,133.116699 207.836656,132.682459 208.511627,131.813965 C209.186598,130.945471 209.524078,129.80795 209.524078,128.401367 C209.524078,126.985344 209.181878,125.840743 208.497467,124.967529 C207.813056,124.094315 206.904455,123.657715 205.771637,123.657715 Z M228.015243,115.855469 L219.476669,135 L216.729599,135 L225.239853,116.535156 L214.081649,116.535156 L214.081649,114.382812 L228.015243,114.382812 L228.015243,115.855469 Z M242.980529,119.763672 C242.980529,120.792648 242.709129,121.708329 242.16632,122.510742 C241.623512,123.313155 240.889551,123.940916 239.964416,124.394043 C241.040593,124.85661 241.892554,125.531571 242.520324,126.418945 C243.148094,127.30632 243.461975,128.311681 243.461975,129.435059 C243.461975,131.219247 242.860174,132.639969 241.656555,133.697266 C240.452935,134.754563 238.869374,135.283203 236.905822,135.283203 C234.92339,135.283203 233.335109,134.752203 232.14093,133.690186 C230.946751,132.628169 230.34967,131.209807 230.34967,129.435059 C230.34967,128.321121 230.65411,127.31576 231.263,126.418945 C231.87189,125.522131 232.714411,124.84245 233.790588,124.379883 C232.874893,123.926756 232.152732,123.298995 231.624084,122.496582 C231.095436,121.694169 230.831115,120.783208 230.831115,119.763672 C230.831115,118.026684 231.388076,116.648443 232.502014,115.628906 C233.615952,114.60937 235.083873,114.099609 236.905822,114.099609 C238.718331,114.099609 240.183893,114.60937 241.302551,115.628906 C242.421209,116.648443 242.980529,118.026684 242.980529,119.763672 Z M240.842346,129.378418 C240.842346,128.22672 240.476545,127.287439 239.744934,126.560547 C239.013322,125.833655 238.057521,125.470215 236.877502,125.470215 C235.697483,125.470215 234.751122,125.828935 234.038391,126.546387 C233.325659,127.263838 232.969299,128.207839 232.969299,129.378418 C232.969299,130.548997 233.316219,131.469398 234.01007,132.139648 C234.703921,132.809899 235.669162,133.14502 236.905822,133.14502 C238.133042,133.14502 239.095923,132.807539 239.794494,132.132568 C240.493065,131.457598 240.842346,130.539557 240.842346,129.378418 Z M236.905822,116.251953 C235.876846,116.251953 235.043765,116.570553 234.406555,117.207764 C233.769344,117.844974 233.450744,118.711095 233.450744,119.806152 C233.450744,120.854009 233.764624,121.70125 234.392395,122.3479 C235.020165,122.994551 235.857965,123.317871 236.905822,123.317871 C237.953679,123.317871 238.79148,122.994551 239.41925,122.3479 C240.04702,121.70125 240.3609,120.854009 240.3609,119.806152 C240.3609,118.758296 240.03522,117.903975 239.38385,117.243164 C238.732479,116.582353 237.906478,116.251953 236.905822,116.251953 Z" id="0.12345678" fill="#262C37" fill-rule="nonzero"></path>
                <g id="Material/Icons-black/arrow-forward" opacity="0.54" transform="translate(39.000000, 63.500000) scale(-1, 1) translate(-39.000000, -63.500000) translate(27.000000, 51.500000)" fill="#000000" fill-rule="evenodd">
                    <polygon id="Shape" points="12 4 10.6 5.4 16.2 11 4 11 4 13 16.2 13 10.6 18.6 12 20 20 12"></polygon>
                </g>
                <path d="M181.675712,71 L181.675712,58.203125 L186.061454,58.203125 C187.508727,58.203125 188.610279,58.4931612 189.366142,59.0732422 C190.122005,59.6533232 190.499931,60.5175724 190.499931,61.6660156 C190.499931,62.2519561 190.341729,62.7792945 190.025322,63.2480469 C189.708914,63.7167992 189.246028,64.0800768 188.63665,64.3378906 C189.328059,64.5253916 189.862722,64.8784154 190.240654,65.3969727 C190.618585,65.9155299 190.807548,66.5380823 190.807548,67.2646484 C190.807548,68.4658263 190.422298,69.3886687 189.651786,70.0332031 C188.881275,70.6777376 187.778258,71 186.342704,71 L181.675712,71 Z M183.899345,65.2255859 L183.899345,69.2246094 L186.369072,69.2246094 C187.066341,69.2246094 187.611257,69.0517595 188.003837,68.7060547 C188.396417,68.3603498 188.592704,67.8798859 188.592704,67.2646484 C188.592704,65.9345637 187.913024,65.254883 186.553642,65.2255859 L183.899345,65.2255859 Z M183.899345,63.5908203 L186.079033,63.5908203 C186.770442,63.5908203 187.310964,63.4340836 187.700615,63.1206055 C188.090265,62.8071273 188.285087,62.3632841 188.285087,61.7890625 C188.285087,61.1562468 188.104913,60.6992202 187.74456,60.4179688 C187.384207,60.1367173 186.823177,59.9960938 186.061454,59.9960938 L183.899345,59.9960938 L183.899345,63.5908203 Z M194.673081,71 L192.537339,71 L192.537339,61.4902344 L194.673081,61.4902344 L194.673081,71 Z M192.405503,59.0205078 C192.405503,58.6923812 192.509506,58.419923 192.717515,58.203125 C192.925524,57.986327 193.222884,57.8779297 193.609605,57.8779297 C193.996325,57.8779297 194.295151,57.986327 194.506089,58.203125 C194.717028,58.419923 194.822495,58.6923812 194.822495,59.0205078 C194.822495,59.342775 194.717028,59.6108388 194.506089,59.824707 C194.295151,60.0385753 193.996325,60.1455078 193.609605,60.1455078 C193.222884,60.1455078 192.925524,60.0385753 192.717515,59.824707 C192.509506,59.6108388 192.405503,59.342775 192.405503,59.0205078 Z M199.250528,59.1787109 L199.250528,61.4902344 L200.929239,61.4902344 L200.929239,63.0722656 L199.250528,63.0722656 L199.250528,68.3808594 C199.250528,68.7441424 199.322305,69.0063469 199.46586,69.1674805 C199.609416,69.3286141 199.865761,69.4091797 200.234903,69.4091797 C200.480998,69.4091797 200.730019,69.3798831 200.981974,69.3212891 L200.981974,70.9736328 C200.495643,71.1083991 200.026898,71.1757812 199.575724,71.1757812 C197.935091,71.1757812 197.114786,70.2705169 197.114786,68.4599609 L197.114786,63.0722656 L195.550333,63.0722656 L195.550333,61.4902344 L197.114786,61.4902344 L197.114786,59.1787109 L199.250528,59.1787109 Z M206.042819,69.4707031 C206.576025,69.4707031 207.018404,69.3154312 207.369968,69.0048828 C207.721532,68.6943344 207.90903,68.3105492 207.932468,67.8535156 L209.945163,67.8535156 C209.921726,68.4453155 209.737157,68.997556 209.391452,69.5102539 C209.045747,70.0229518 208.577002,70.4287094 207.985202,70.7275391 C207.393402,71.0263687 206.754737,71.1757812 206.069187,71.1757812 C204.739102,71.1757812 203.684425,70.7451215 202.905124,69.8837891 C202.125823,69.0224566 201.736179,67.8330154 201.736179,66.3154297 L201.736179,66.0957031 C201.736179,64.6484303 202.122894,63.4897504 202.896335,62.6196289 C203.669776,61.7495074 204.724453,61.3144531 206.060398,61.3144531 C207.191263,61.3144531 208.11264,61.6440397 208.824558,62.3032227 C209.536475,62.9624056 209.910007,63.8281196 209.945163,64.9003906 L207.932468,64.9003906 C207.90903,64.355466 207.722997,63.9072283 207.374362,63.5556641 C207.025728,63.2040998 206.581885,63.0283203 206.042819,63.0283203 C205.35141,63.0283203 204.818212,63.2788061 204.44321,63.7797852 C204.068208,64.2807642 203.87778,65.0410105 203.871921,66.0605469 L203.871921,66.4033203 C203.871921,67.4345755 204.057954,68.2036107 204.430026,68.7104492 C204.802099,69.2172877 205.339691,69.4707031 206.042819,69.4707031 Z M210.734524,66.1572266 C210.734524,65.2255813 210.919093,64.3862342 211.288235,63.6391602 C211.657378,62.8920861 212.175927,62.3178731 212.843899,61.9165039 C213.511871,61.5151347 214.279442,61.3144531 215.146634,61.3144531 C216.429843,61.3144531 217.471337,61.7275349 218.271145,62.5537109 C219.070954,63.3798869 219.503079,64.4755791 219.567532,65.8408203 L219.576321,66.3417969 C219.576321,67.2793016 219.396147,68.1171838 219.035794,68.8554688 C218.675441,69.5937537 218.159821,70.165037 217.488919,70.5693359 C216.818017,70.9736348 216.043123,71.1757812 215.164212,71.1757812 C213.822408,71.1757812 212.748689,70.7290084 211.94302,69.8354492 C211.137352,68.9418901 210.734524,67.750984 210.734524,66.2626953 L210.734524,66.1572266 Z M212.870267,66.3417969 C212.870267,67.3203174 213.072413,68.086423 213.476712,68.6401367 C213.881011,69.1938504 214.443505,69.4707031 215.164212,69.4707031 C215.884919,69.4707031 216.445948,69.1894559 216.847317,68.6269531 C217.248687,68.0644503 217.449368,67.2412164 217.449368,66.1572266 C217.449368,65.1962843 217.242827,64.4345731 216.829739,63.8720703 C216.416651,63.3095675 215.855622,63.0283203 215.146634,63.0283203 C214.449365,63.0283203 213.895659,63.305173 213.485501,63.8588867 C213.075343,64.4126004 212.870267,65.2402289 212.870267,66.3417969 Z M223.230917,71 L221.095175,71 L221.095175,61.4902344 L223.230917,61.4902344 L223.230917,71 Z M220.963339,59.0205078 C220.963339,58.6923812 221.067342,58.419923 221.27535,58.203125 C221.483359,57.986327 221.78072,57.8779297 222.16744,57.8779297 C222.554161,57.8779297 222.852986,57.986327 223.063925,58.203125 C223.274863,58.419923 223.380331,58.6923812 223.380331,59.0205078 C223.380331,59.342775 223.274863,59.6108388 223.063925,59.824707 C222.852986,60.0385753 222.554161,60.1455078 222.16744,60.1455078 C221.78072,60.1455078 221.483359,60.0385753 221.27535,59.824707 C221.067342,59.6108388 220.963339,59.342775 220.963339,59.0205078 Z M227.114028,61.4902344 L227.175552,62.5888672 C227.87868,61.7392536 228.801522,61.3144531 229.944106,61.3144531 C231.924585,61.3144531 232.932387,62.4482308 232.967544,64.7158203 L232.967544,71 L230.831802,71 L230.831802,64.8388672 C230.831802,64.2353485 230.701432,63.7885757 230.440688,63.4985352 C230.179945,63.2084946 229.753679,63.0634766 229.16188,63.0634766 C228.300547,63.0634766 227.658952,63.4531211 227.237075,64.2324219 L227.237075,71 L225.101333,71 L225.101333,61.4902344 L227.114028,61.4902344 Z" id="Bitcoin" fill="#262C37" fill-rule="nonzero"></path>
            </g>
            <g id="Contextual-2" transform="translate(-0.000000, 208.000000)">
                <rect fill="#FFFFFF" x="0" y="0" width="414" height="179"></rect>
                <g id="Rectangle">
                    <use fill="black" fill-opacity="1" filter="url(#filter-4)" xlink:href="#path-3"></use>
                    <rect stroke="#DCDCDC" stroke-width="1" stroke-linejoin="square" fill="#FBFBFC" fill-rule="evenodd" x="1.2" y="0.5" width="413" height="178"></rect>
                </g>
                <g id="Material/Icons-black/arrow-forward" opacity="0.54" transform="translate(39.000000, 63.500000) scale(-1, 1) translate(-39.000000, -63.500000) translate(27.000000, 51.500000)" fill="#000000" fill-rule="evenodd">
                    <polygon id="Shape" points="12 4 10.6 5.4 16.2 11 4 11 4 13 16.2 13 10.6 18.6 12 20 20 12"></polygon>
                </g>
                <path d="M181.675712,71 L181.675712,58.203125 L186.061454,58.203125 C187.508727,58.203125 188.610279,58.4931612 189.366142,59.0732422 C190.122005,59.6533232 190.499931,60.5175724 190.499931,61.6660156 C190.499931,62.2519561 190.341729,62.7792945 190.025322,63.2480469 C189.708914,63.7167992 189.246028,64.0800768 188.63665,64.3378906 C189.328059,64.5253916 189.862722,64.8784154 190.240654,65.3969727 C190.618585,65.9155299 190.807548,66.5380823 190.807548,67.2646484 C190.807548,68.4658263 190.422298,69.3886687 189.651786,70.0332031 C188.881275,70.6777376 187.778258,71 186.342704,71 L181.675712,71 Z M183.899345,65.2255859 L183.899345,69.2246094 L186.369072,69.2246094 C187.066341,69.2246094 187.611257,69.0517595 188.003837,68.7060547 C188.396417,68.3603498 188.592704,67.8798859 188.592704,67.2646484 C188.592704,65.9345637 187.913024,65.254883 186.553642,65.2255859 L183.899345,65.2255859 Z M183.899345,63.5908203 L186.079033,63.5908203 C186.770442,63.5908203 187.310964,63.4340836 187.700615,63.1206055 C188.090265,62.8071273 188.285087,62.3632841 188.285087,61.7890625 C188.285087,61.1562468 188.104913,60.6992202 187.74456,60.4179688 C187.384207,60.1367173 186.823177,59.9960938 186.061454,59.9960938 L183.899345,59.9960938 L183.899345,63.5908203 Z M194.673081,71 L192.537339,71 L192.537339,61.4902344 L194.673081,61.4902344 L194.673081,71 Z M192.405503,59.0205078 C192.405503,58.6923812 192.509506,58.419923 192.717515,58.203125 C192.925524,57.986327 193.222884,57.8779297 193.609605,57.8779297 C193.996325,57.8779297 194.295151,57.986327 194.506089,58.203125 C194.717028,58.419923 194.822495,58.6923812 194.822495,59.0205078 C194.822495,59.342775 194.717028,59.6108388 194.506089,59.824707 C194.295151,60.0385753 193.996325,60.1455078 193.609605,60.1455078 C193.222884,60.1455078 192.925524,60.0385753 192.717515,59.824707 C192.509506,59.6108388 192.405503,59.342775 192.405503,59.0205078 Z M199.250528,59.1787109 L199.250528,61.4902344 L200.929239,61.4902344 L200.929239,63.0722656 L199.250528,63.0722656 L199.250528,68.3808594 C199.250528,68.7441424 199.322305,69.0063469 199.46586,69.1674805 C199.609416,69.3286141 199.865761,69.4091797 200.234903,69.4091797 C200.480998,69.4091797 200.730019,69.3798831 200.981974,69.3212891 L200.981974,70.9736328 C200.495643,71.1083991 200.026898,71.1757812 199.575724,71.1757812 C197.935091,71.1757812 197.114786,70.2705169 197.114786,68.4599609 L197.114786,63.0722656 L195.550333,63.0722656 L195.550333,61.4902344 L197.114786,61.4902344 L197.114786,59.1787109 L199.250528,59.1787109 Z M206.042819,69.4707031 C206.576025,69.4707031 207.018404,69.3154312 207.369968,69.0048828 C207.721532,68.6943344 207.90903,68.3105492 207.932468,67.8535156 L209.945163,67.8535156 C209.921726,68.4453155 209.737157,68.997556 209.391452,69.5102539 C209.045747,70.0229518 208.577002,70.4287094 207.985202,70.7275391 C207.393402,71.0263687 206.754737,71.1757812 206.069187,71.1757812 C204.739102,71.1757812 203.684425,70.7451215 202.905124,69.8837891 C202.125823,69.0224566 201.736179,67.8330154 201.736179,66.3154297 L201.736179,66.0957031 C201.736179,64.6484303 202.122894,63.4897504 202.896335,62.6196289 C203.669776,61.7495074 204.724453,61.3144531 206.060398,61.3144531 C207.191263,61.3144531 208.11264,61.6440397 208.824558,62.3032227 C209.536475,62.9624056 209.910007,63.8281196 209.945163,64.9003906 L207.932468,64.9003906 C207.90903,64.355466 207.722997,63.9072283 207.374362,63.5556641 C207.025728,63.2040998 206.581885,63.0283203 206.042819,63.0283203 C205.35141,63.0283203 204.818212,63.2788061 204.44321,63.7797852 C204.068208,64.2807642 203.87778,65.0410105 203.871921,66.0605469 L203.871921,66.4033203 C203.871921,67.4345755 204.057954,68.2036107 204.430026,68.7104492 C204.802099,69.2172877 205.339691,69.4707031 206.042819,69.4707031 Z M210.734524,66.1572266 C210.734524,65.2255813 210.919093,64.3862342 211.288235,63.6391602 C211.657378,62.8920861 212.175927,62.3178731 212.843899,61.9165039 C213.511871,61.5151347 214.279442,61.3144531 215.146634,61.3144531 C216.429843,61.3144531 217.471337,61.7275349 218.271145,62.5537109 C219.070954,63.3798869 219.503079,64.4755791 219.567532,65.8408203 L219.576321,66.3417969 C219.576321,67.2793016 219.396147,68.1171838 219.035794,68.8554688 C218.675441,69.5937537 218.159821,70.165037 217.488919,70.5693359 C216.818017,70.9736348 216.043123,71.1757812 215.164212,71.1757812 C213.822408,71.1757812 212.748689,70.7290084 211.94302,69.8354492 C211.137352,68.9418901 210.734524,67.750984 210.734524,66.2626953 L210.734524,66.1572266 Z M212.870267,66.3417969 C212.870267,67.3203174 213.072413,68.086423 213.476712,68.6401367 C213.881011,69.1938504 214.443505,69.4707031 215.164212,69.4707031 C215.884919,69.4707031 216.445948,69.1894559 216.847317,68.6269531 C217.248687,68.0644503 217.449368,67.2412164 217.449368,66.1572266 C217.449368,65.1962843 217.242827,64.4345731 216.829739,63.8720703 C216.416651,63.3095675 215.855622,63.0283203 215.146634,63.0283203 C214.449365,63.0283203 213.895659,63.305173 213.485501,63.8588867 C213.075343,64.4126004 212.870267,65.2402289 212.870267,66.3417969 Z M223.230917,71 L221.095175,71 L221.095175,61.4902344 L223.230917,61.4902344 L223.230917,71 Z M220.963339,59.0205078 C220.963339,58.6923812 221.067342,58.419923 221.27535,58.203125 C221.483359,57.986327 221.78072,57.8779297 222.16744,57.8779297 C222.554161,57.8779297 222.852986,57.986327 223.063925,58.203125 C223.274863,58.419923 223.380331,58.6923812 223.380331,59.0205078 C223.380331,59.342775 223.274863,59.6108388 223.063925,59.824707 C222.852986,60.0385753 222.554161,60.1455078 222.16744,60.1455078 C221.78072,60.1455078 221.483359,60.0385753 221.27535,59.824707 C221.067342,59.6108388 220.963339,59.342775 220.963339,59.0205078 Z M227.114028,61.4902344 L227.175552,62.5888672 C227.87868,61.7392536 228.801522,61.3144531 229.944106,61.3144531 C231.924585,61.3144531 232.932387,62.4482308 232.967544,64.7158203 L232.967544,71 L230.831802,71 L230.831802,64.8388672 C230.831802,64.2353485 230.701432,63.7885757 230.440688,63.4985352 C230.179945,63.2084946 229.753679,63.0634766 229.16188,63.0634766 C228.300547,63.0634766 227.658952,63.4531211 227.237075,64.2324219 L227.237075,71 L225.101333,71 L225.101333,61.4902344 L227.114028,61.4902344 Z" id="Bitcoin" fill="#262C37" fill-rule="nonzero"></path>
                <path d="M117.812089,127.206543 C117.812089,130.274592 117.288168,132.554355 116.240312,134.045898 C115.192455,135.537442 113.554613,136.283203 111.326737,136.283203 C109.127182,136.283203 107.49878,135.553962 106.441483,134.095459 C105.384186,132.636956 104.836666,130.458673 104.798905,127.560547 L104.798905,124.062988 C104.798905,121.0327 105.322826,118.781257 106.370683,117.308594 C107.418539,115.83593 109.061101,115.099609 111.298417,115.099609 C113.516853,115.099609 115.149974,115.80997 116.197831,117.230713 C117.245688,118.651456 117.783768,120.843898 117.812089,123.808105 L117.812089,127.206543 Z M115.19246,123.624023 C115.19246,121.405588 114.88094,119.788986 114.25789,118.77417 C113.63484,117.759354 112.648359,117.251953 111.298417,117.251953 C109.957915,117.251953 108.980874,117.756994 108.367265,118.76709 C107.753655,119.777186 107.437414,121.330068 107.418534,123.425781 L107.418534,127.617188 C107.418534,129.845063 107.741854,131.489985 108.388505,132.552002 C109.035155,133.614019 110.014556,134.14502 111.326737,134.14502 C112.620038,134.14502 113.580559,133.644699 114.208329,132.644043 C114.836099,131.643387 115.164139,130.066905 115.19246,127.914551 L115.19246,123.624023 Z M120.981965,134.626465 C120.981965,134.173338 121.116485,133.795737 121.385529,133.493652 C121.654574,133.191567 122.058134,133.040527 122.596223,133.040527 C123.134311,133.040527 123.542592,133.191567 123.821076,133.493652 C124.099561,133.795737 124.238801,134.173338 124.238801,134.626465 C124.238801,135.060712 124.099561,135.424152 123.821076,135.716797 C123.542592,136.009442 123.134311,136.155762 122.596223,136.155762 C122.058134,136.155762 121.654574,136.009442 121.385529,135.716797 C121.116485,135.424152 120.981965,135.060712 120.981965,134.626465 Z M136.386216,136 L133.752427,136 L133.752427,118.540527 L128.470688,120.480469 L128.470688,118.101562 L135.975571,115.283691 L136.386216,115.283691 L136.386216,136 Z M157.058045,136 L143.549256,136 L143.549256,134.116699 L150.685975,126.187012 C151.743272,124.988112 152.472512,124.013431 152.873719,123.262939 C153.274925,122.512447 153.475525,121.736007 153.475525,120.933594 C153.475525,119.857416 153.149845,118.974776 152.498475,118.285645 C151.847104,117.596513 150.978623,117.251953 149.893006,117.251953 C148.590265,117.251953 147.577824,117.622474 146.855652,118.363525 C146.133481,119.104577 145.7724,120.135898 145.7724,121.45752 L143.152771,121.45752 C143.152771,119.560049 143.764012,118.026048 144.986512,116.855469 C146.209011,115.68489 147.844493,115.099609 149.893006,115.099609 C151.809357,115.099609 153.324478,115.60229 154.438416,116.607666 C155.552354,117.613042 156.109314,118.951164 156.109314,120.62207 C156.109314,122.651703 154.816033,125.068345 152.229432,127.87207 L146.706971,133.861816 L157.058045,133.861816 L157.058045,136 Z M163.130753,124.416992 L165.099015,124.416992 C166.335674,124.398112 167.307995,124.072432 168.016007,123.439941 C168.724018,122.807451 169.078019,121.95313 169.078019,120.876953 C169.078019,118.460274 167.874417,117.251953 165.467179,117.251953 C164.334361,117.251953 163.43048,117.575273 162.755509,118.221924 C162.080538,118.868574 161.743058,119.725255 161.743058,120.791992 L159.123429,120.791992 C159.123429,119.158846 159.720509,117.801845 160.914688,116.720947 C162.108868,115.64005 163.626349,115.099609 165.467179,115.099609 C167.41185,115.099609 168.936411,115.61409 170.040909,116.643066 C171.145407,117.672043 171.697647,119.102204 171.697647,120.933594 C171.697647,121.830408 171.407367,122.698889 170.826798,123.539062 C170.246229,124.379236 169.455628,125.006997 168.454972,125.422363 C169.58779,125.781089 170.463351,126.37581 171.081681,127.206543 C171.700011,128.037276 172.009171,129.052077 172.009171,130.250977 C172.009171,132.101246 171.40501,133.569168 170.196671,134.654785 C168.988332,135.740403 167.41657,136.283203 165.481339,136.283203 C163.546108,136.283203 161.971986,135.759283 160.758927,134.711426 C159.545867,133.663569 158.939347,132.280608 158.939347,130.5625 L161.573136,130.5625 C161.573136,131.648117 161.927136,132.516598 162.635147,133.167969 C163.343159,133.819339 164.29188,134.14502 165.481339,134.14502 C166.746319,134.14502 167.71392,133.814619 168.384171,133.153809 C169.054422,132.492998 169.389542,131.544277 169.389542,130.307617 C169.389542,129.108718 169.021382,128.188317 168.28505,127.546387 C167.548718,126.904456 166.486717,126.574056 165.099015,126.555176 L163.130753,126.555176 L163.130753,124.416992 Z M186.153168,129.075684 L189.01352,129.075684 L189.01352,131.213867 L186.153168,131.213867 L186.153168,136 L183.519379,136 L183.519379,131.213867 L174.131195,131.213867 L174.131195,129.67041 L183.363617,115.382812 L186.153168,115.382812 L186.153168,129.075684 Z M177.104828,129.075684 L183.519379,129.075684 L183.519379,118.965332 L183.207855,119.531738 L177.104828,129.075684 Z M192.070114,125.663086 L193.117966,115.382812 L203.681442,115.382812 L203.681442,117.804199 L195.34111,117.804199 L194.718063,123.425781 C195.72816,122.831052 196.875121,122.533691 198.158981,122.533691 C200.037572,122.533691 201.529093,123.154372 202.633591,124.395752 C203.738089,125.637132 204.290329,127.315094 204.290329,129.429688 C204.290329,131.553722 203.716849,133.226963 202.56987,134.449463 C201.422892,135.671962 199.82045,136.283203 197.762497,136.283203 C195.940548,136.283203 194.453746,135.778163 193.302048,134.768066 C192.150349,133.75797 191.494269,132.360849 191.333786,130.57666 L193.811813,130.57666 C193.972296,131.756679 194.392376,132.6464 195.072067,133.24585 C195.751758,133.845299 196.648559,134.14502 197.762497,134.14502 C198.980277,134.14502 199.936078,133.729659 200.629929,132.898926 C201.32378,132.068192 201.6707,130.921231 201.6707,129.458008 C201.6707,128.079746 201.29546,126.972905 200.544968,126.137451 C199.794476,125.301998 198.796195,124.884277 197.550095,124.884277 C196.407836,124.884277 195.511035,125.134438 194.859665,125.634766 L194.165817,126.201172 L192.070114,125.663086 Z M216.919189,115.368652 L216.919189,117.591797 L216.437744,117.591797 C214.398671,117.629557 212.77499,118.233718 211.56665,119.404297 C210.358311,120.574876 209.65975,122.222157 209.470947,124.346191 C210.556565,123.100091 212.038646,122.477051 213.917236,122.477051 C215.710865,122.477051 217.143387,123.109531 218.214844,124.374512 C219.286301,125.639492 219.822021,127.272614 219.822021,129.273926 C219.822021,131.39796 219.243821,133.097162 218.087402,134.371582 C216.930984,135.646002 215.380462,136.283203 213.435791,136.283203 C211.462799,136.283203 209.862718,135.525642 208.635498,134.010498 C207.408278,132.495354 206.794678,130.543632 206.794678,128.155273 L206.794678,127.149902 C206.794678,123.354961 207.604159,120.454518 209.223145,118.448486 C210.84213,116.442454 213.251693,115.415853 216.451904,115.368652 L216.919189,115.368652 Z M213.478271,124.657715 C212.581457,124.657715 211.755456,124.926755 211.000244,125.464844 C210.245032,126.002932 209.721111,126.677893 209.428467,127.489746 L209.428467,128.452637 C209.428467,130.151864 209.810787,131.520665 210.575439,132.559082 C211.340092,133.597499 212.293533,134.116699 213.435791,134.116699 C214.61581,134.116699 215.543291,133.682459 216.218262,132.813965 C216.893233,131.945471 217.230713,130.80795 217.230713,129.401367 C217.230713,127.985344 216.888513,126.840743 216.204102,125.967529 C215.519691,125.094315 214.61109,124.657715 213.478271,124.657715 Z M235.721878,116.855469 L227.183304,136 L224.436233,136 L232.946487,117.535156 L221.788284,117.535156 L221.788284,115.382812 L235.721878,115.382812 L235.721878,116.855469 Z M250.687164,120.763672 C250.687164,121.792648 250.415764,122.708329 249.872955,123.510742 C249.330146,124.313155 248.596186,124.940916 247.671051,125.394043 C248.747228,125.85661 249.599189,126.531571 250.226959,127.418945 C250.854729,128.30632 251.168609,129.311681 251.168609,130.435059 C251.168609,132.219247 250.566809,133.639969 249.363189,134.697266 C248.15957,135.754563 246.576009,136.283203 244.612457,136.283203 C242.630025,136.283203 241.041744,135.752203 239.847564,134.690186 C238.653385,133.628169 238.056305,132.209807 238.056305,130.435059 C238.056305,129.321121 238.360745,128.31576 238.969635,127.418945 C239.578525,126.522131 240.421045,125.84245 241.497223,125.379883 C240.581528,124.926756 239.859367,124.298995 239.330719,123.496582 C238.80207,122.694169 238.53775,121.783208 238.53775,120.763672 C238.53775,119.026684 239.094711,117.648443 240.208648,116.628906 C241.322586,115.60937 242.790508,115.099609 244.612457,115.099609 C246.424966,115.099609 247.890528,115.60937 249.009186,116.628906 C250.127843,117.648443 250.687164,119.026684 250.687164,120.763672 Z M248.54898,130.378418 C248.54898,129.22672 248.18318,128.287439 247.451568,127.560547 C246.719957,126.833655 245.764156,126.470215 244.584137,126.470215 C243.404118,126.470215 242.457757,126.828935 241.745025,127.546387 C241.032294,128.263838 240.675934,129.207839 240.675934,130.378418 C240.675934,131.548997 241.022854,132.469398 241.716705,133.139648 C242.410556,133.809899 243.375797,134.14502 244.612457,134.14502 C245.839677,134.14502 246.802558,133.807539 247.501129,133.132568 C248.1997,132.457598 248.54898,131.539557 248.54898,130.378418 Z M244.612457,117.251953 C243.583481,117.251953 242.7504,117.570553 242.113189,118.207764 C241.475979,118.844974 241.157379,119.711095 241.157379,120.806152 C241.157379,121.854009 241.471259,122.70125 242.099029,123.3479 C242.726799,123.994551 243.5646,124.317871 244.612457,124.317871 C245.660314,124.317871 246.498115,123.994551 247.125885,123.3479 C247.753655,122.70125 248.067535,121.854009 248.067535,120.806152 C248.067535,119.758296 247.741855,118.903975 247.090484,118.243164 C246.439114,117.582353 245.613113,117.251953 244.612457,117.251953 Z M261.303283,136 L261.303283,115.382812 L268.043518,115.382812 C270.280833,115.382812 271.963515,115.845373 273.091613,116.770508 C274.219711,117.695643 274.783752,119.064444 274.783752,120.876953 C274.783752,121.839849 274.509992,122.691809 273.962463,123.432861 C273.414934,124.173913 272.669173,124.747394 271.725158,125.15332 C272.839096,125.464845 273.719377,126.057206 274.366027,126.93042 C275.012678,127.803634 275.335998,128.844395 275.335998,130.052734 C275.335998,131.903004 274.736557,133.356766 273.537658,134.414062 C272.338759,135.471359 270.644277,136 268.454162,136 L261.303283,136 Z M264.022033,126.356934 L264.022033,133.776855 L268.510803,133.776855 C269.775783,133.776855 270.774064,133.448815 271.505676,132.792725 C272.237288,132.136634 272.603088,131.232753 272.603088,130.081055 C272.603088,127.598295 271.253167,126.356934 268.553283,126.356934 L264.022033,126.356934 Z M264.022033,124.17627 L268.128479,124.17627 C269.317938,124.17627 270.269019,123.878909 270.98175,123.28418 C271.694481,122.68945 272.050842,121.882329 272.050842,120.862793 C272.050842,119.729975 271.720441,118.906334 271.059631,118.391846 C270.39882,117.877357 269.393459,117.620117 268.043518,117.620117 L264.022033,117.620117 L264.022033,124.17627 Z M292.708511,117.620117 L286.081558,117.620117 L286.081558,136 L283.376968,136 L283.376968,117.620117 L276.764175,117.620117 L276.764175,115.382812 L292.708511,115.382812 L292.708511,117.620117 Z M310.024383,129.458008 C309.769499,131.638683 308.964738,133.321365 307.610076,134.506104 C306.255414,135.690843 304.454733,136.283203 302.207977,136.283203 C299.772418,136.283203 297.820696,135.410002 296.352752,133.663574 C294.884808,131.917146 294.150848,129.580744 294.150848,126.654297 L294.150848,124.671875 C294.150848,122.755524 294.493048,121.070483 295.177459,119.616699 C295.86187,118.162916 296.831831,117.046635 298.087371,116.267822 C299.342911,115.48901 300.796673,115.099609 302.448699,115.099609 C304.638814,115.099609 306.394656,115.71085 307.716277,116.93335 C309.037899,118.155849 309.807259,119.847971 310.024383,122.009766 L307.291473,122.009766 C307.055469,120.367179 306.543348,119.177738 305.755096,118.441406 C304.966843,117.705074 303.864722,117.336914 302.448699,117.336914 C300.711711,117.336914 299.34999,117.978835 298.363494,119.262695 C297.376998,120.546556 296.883758,122.373198 296.883758,124.742676 L296.883758,126.739258 C296.883758,128.976574 297.351038,130.756016 298.285613,132.077637 C299.220188,133.399258 300.52763,134.060059 302.207977,134.060059 C303.718401,134.060059 304.877162,133.717858 305.684295,133.033447 C306.491428,132.349036 307.027148,131.157235 307.291473,129.458008 L310.024383,129.458008 Z" id="0.12345678BTC" fill="#262C37" fill-rule="nonzero"></path>
                <g id="Group-2" stroke-width="1" fill-rule="evenodd" transform="translate(345.000000, 107.000000)">
                    <g id="Group" fill="#EBEBEB" stroke="#BFBEBE">
                        <rect id="Rectangle" x="0.5" y="0.5" width="35" height="35"></rect>
                    </g>
                    <g id="Group" transform="translate(7.000000, 5.500000)" fill="#8C8C8C">
                        <polygon id="Shape" transform="translate(16.027878, 13.971566) rotate(90.000000) translate(-16.027878, -13.971566) " points="20.7351676 8.54007755 19.7846571 9.49058805 23.5866991 13.2926301 5.88909881 13.2473677 5.88909881 14.6052398 23.5866991 14.6505022 19.7846571 18.4525442 20.7351676 19.4030547 26.1666562 13.9715661"></polygon>
                        <polygon id="Shape-Copy" transform="translate(6.241833, 10.249124) scale(1, -1) rotate(90.000000) translate(-6.241833, -10.249124) " points="10.9491235 4.81763494 9.99861302 5.76814544 13.800655 9.57018745 -3.89694528 9.52492504 -3.89694528 10.8827972 13.800655 10.9280596 9.99861302 14.7301016 10.9491235 15.6806121 16.3806121 10.2491235"></polygon>
                    </g>
                </g>
            </g>
        </g>
        <g id="Contextual-modal" transform="translate(457.000000, 2.000000)">
            <rect fill="#FFFFFF" x="0" y="0" width="414" height="387"></rect>
            <g id="Group" stroke-width="1" fill-rule="evenodd" transform="translate(259.500000, 107.000000)">
                <rect id="Rectangle" stroke="#BFBEBE" fill="#EBEBEB" x="0.5" y="0.5" width="75" height="35"></rect>
                <text id="BTC" font-family="Roboto-Regular, Roboto" font-size="29" font-weight="normal" letter-spacing="-0.5117646" fill="#262C37">
                    <tspan x="12.040352" y="28">BTC</tspan>
                </text>
            </g>
            <text id="0.12345678" font-family="Roboto-Regular, Roboto" font-size="29" font-weight="normal" letter-spacing="-0.5117646" fill="#262C37">
                <tspan x="95.4638523" y="135">0.12345678</tspan>
            </text>
            <g id="Material/Icons-black/arrow-forward" opacity="0.54" transform="translate(39.000000, 63.500000) scale(-1, 1) translate(-39.000000, -63.500000) translate(27.000000, 51.500000)" fill="#000000" fill-rule="evenodd">
                <polygon id="Shape" points="12 4 10.6 5.4 16.2 11 4 11 4 13 16.2 13 10.6 18.6 12 20 20 12"></polygon>
            </g>
            <text id="Bitcoin" font-family="Roboto-Medium, Roboto" font-size="18" font-weight="400" letter-spacing="-0.4235294" fill="#262C37">
                <tspan x="180.374931" y="71">Bitcoin</tspan>
            </text>
            <rect id="Rectangle" stroke="#979797" stroke-width="1" fill-opacity="0.812336101" fill="#373737" fill-rule="evenodd" x="1.2" y="0.5" width="413" height="386"></rect>
            <g id="Group-2" stroke-width="1" fill-rule="evenodd" transform="translate(80.000000, 23.000000)">
                <g id="Rectangle">
                    <use fill="black" fill-opacity="1" filter="url(#filter-6)" xlink:href="#path-5"></use>
                    <rect stroke="#979797" stroke-width="1" stroke-linejoin="square" fill="#F8F8F8" fill-rule="evenodd" x="0.5" y="0.5" width="253" height="340"></rect>
                </g>
                <g id="list" transform="translate(27.918103, 102.000000)">
                    <g id="row" transform="translate(0.000000, 60.000000)">
                        <path d="M1.40283203,16 L1.40283203,3.9140625 L5.35400391,3.9140625 C6.6655339,3.9140625 7.65193354,4.18521864 8.31323242,4.72753906 C8.9745313,5.26985948 9.30517578,6.07226031 9.30517578,7.13476562 C9.30517578,7.69922157 9.14469562,8.19864692 8.82373047,8.63305664 C8.50276532,9.06746636 8.06559521,9.40364464 7.51220703,9.64160156 C8.16520509,9.82421966 8.68123183,10.1714655 9.06030273,10.6833496 C9.43937364,11.1952337 9.62890625,11.805335 9.62890625,12.5136719 C9.62890625,13.5983127 9.27751002,14.4505177 8.57470703,15.0703125 C7.87190404,15.6901073 6.87858715,16 5.59472656,16 L1.40283203,16 Z M2.99658203,10.347168 L2.99658203,14.6967773 L5.62792969,14.6967773 C6.36946985,14.6967773 6.95466908,14.5044778 7.38354492,14.119873 C7.81242076,13.7352683 8.02685547,13.205407 8.02685547,12.5302734 C8.02685547,11.0748625 7.23552224,10.347168 5.65283203,10.347168 L2.99658203,10.347168 Z M2.99658203,9.06884766 L5.40380859,9.06884766 C6.10107771,9.06884766 6.65860794,8.89453299 7.07641602,8.54589844 C7.49422409,8.19726388 7.703125,7.72412408 7.703125,7.12646484 C7.703125,6.46239902 7.50944204,5.97957508 7.12207031,5.67797852 C6.73469858,5.37638196 6.14534901,5.22558594 5.35400391,5.22558594 L2.99658203,5.22558594 L2.99658203,9.06884766 Z M13.4140625,16 L11.878418,16 L11.878418,7.01855469 L13.4140625,7.01855469 L13.4140625,16 Z M11.7539062,4.63623047 C11.7539062,4.38720579 11.829996,4.17692143 11.9821777,4.00537109 C12.1343595,3.83382076 12.3598618,3.74804688 12.6586914,3.74804688 C12.957521,3.74804688 13.1844068,3.83382076 13.3393555,4.00537109 C13.4943042,4.17692143 13.5717773,4.38720579 13.5717773,4.63623047 C13.5717773,4.88525515 13.4943042,5.09277261 13.3393555,5.25878906 C13.1844068,5.42480552 12.957521,5.5078125 12.6586914,5.5078125 C12.3598618,5.5078125 12.1343595,5.42480552 11.9821777,5.25878906 C11.829996,5.09277261 11.7539062,4.88525515 11.7539062,4.63623047 Z M17.9545898,4.84375 L17.9545898,7.01855469 L19.6313477,7.01855469 L19.6313477,8.20556641 L17.9545898,8.20556641 L17.9545898,13.7753906 C17.9545898,14.1350929 18.0292961,14.4048656 18.1787109,14.5847168 C18.3281257,14.764568 18.5826805,14.8544922 18.9423828,14.8544922 C19.119467,14.8544922 19.3629542,14.8212894 19.6728516,14.7548828 L19.6728516,16 C19.2688782,16.1106776 18.8759785,16.1660156 18.4941406,16.1660156 C17.8079393,16.1660156 17.2905291,15.9584982 16.9418945,15.543457 C16.59326,15.1284159 16.4189453,14.5390663 16.4189453,13.7753906 L16.4189453,8.20556641 L14.7836914,8.20556641 L14.7836914,7.01855469 L16.4189453,7.01855469 L16.4189453,4.84375 L17.9545898,4.84375 Z M25.574707,11.0942383 C25.574707,9.84358099 25.7421044,8.64274664 26.0769043,7.49169922 C26.4117041,6.3406518 26.9111295,5.29476382 27.5751953,4.35400391 C28.2392611,3.41324399 28.9282191,2.74918813 29.6420898,2.36181641 L29.9575195,3.37451172 C29.1495728,3.99430648 28.4869004,4.94058608 27.9694824,6.21337891 C27.4520645,7.48617173 27.1684573,8.91112493 27.1186523,10.4882812 L27.1103516,11.1938477 C27.1103516,13.329926 27.5004844,15.1837487 28.2807617,16.7553711 C28.7511417,17.696131 29.3100554,18.4321262 29.9575195,18.9633789 L29.6420898,19.9013672 C28.9060836,19.4918599 28.2032911,18.8056689 27.5336914,17.8427734 C26.2276953,15.9612536 25.574707,13.7117644 25.574707,11.0942383 Z M33.0952148,7.01855469 L33.0952148,12.2729492 C33.1007487,13.174972 33.2460109,13.8417947 33.5310059,14.2734375 C33.8160008,14.7050803 34.2794564,14.9208984 34.9213867,14.9208984 C36.0226292,14.9208984 36.74479,14.5003297 37.0878906,13.6591797 L37.0878906,7.01855469 L38.6318359,7.01855469 L38.6318359,16 L37.2456055,16 L37.1708984,15.0454102 C36.6562474,15.7924842 35.9285529,16.1660156 34.987793,16.1660156 C34.1743123,16.1660156 33.5434593,15.964032 33.0952148,15.5600586 L33.0952148,19.453125 L31.5595703,19.453125 L31.5595703,7.01855469 L33.0952148,7.01855469 Z M41.3129883,16 L41.3129883,3.9140625 L45.2641602,3.9140625 C46.5756902,3.9140625 47.5620898,4.18521864 48.2233887,4.72753906 C48.8846876,5.26985948 49.215332,6.07226031 49.215332,7.13476562 C49.215332,7.69922157 49.0548519,8.19864692 48.7338867,8.63305664 C48.4129216,9.06746636 47.9757515,9.40364464 47.4223633,9.64160156 C48.0753613,9.82421966 48.5913881,10.1714655 48.970459,10.6833496 C49.3495299,11.1952337 49.5390625,11.805335 49.5390625,12.5136719 C49.5390625,13.5983127 49.1876663,14.4505177 48.4848633,15.0703125 C47.7820603,15.6901073 46.7887434,16 45.5048828,16 L41.3129883,16 Z M42.9067383,10.347168 L42.9067383,14.6967773 L45.5380859,14.6967773 C46.2796261,14.6967773 46.8648253,14.5044778 47.2937012,14.119873 C47.722577,13.7352683 47.9370117,13.205407 47.9370117,12.5302734 C47.9370117,11.0748625 47.1456785,10.347168 45.5629883,10.347168 L42.9067383,10.347168 Z M42.9067383,9.06884766 L45.3139648,9.06884766 C46.011234,9.06884766 46.5687642,8.89453299 46.9865723,8.54589844 C47.4043803,8.19726388 47.6132812,7.72412408 47.6132812,7.12646484 C47.6132812,6.46239902 47.4195983,5.97957508 47.0322266,5.67797852 C46.6448548,5.37638196 46.0555053,5.22558594 45.2641602,5.22558594 L42.9067383,5.22558594 L42.9067383,9.06884766 Z M60.0229492,5.22558594 L56.1381836,5.22558594 L56.1381836,16 L54.5527344,16 L54.5527344,5.22558594 L50.6762695,5.22558594 L50.6762695,3.9140625 L60.0229492,3.9140625 L60.0229492,5.22558594 Z M70.4736328,12.1650391 C70.324218,13.4433658 69.8524617,14.4297654 69.0583496,15.1242676 C68.2642376,15.8187697 67.2086654,16.1660156 65.8916016,16.1660156 C64.46386,16.1660156 63.3197471,15.6541392 62.4592285,14.6303711 C61.5987099,13.606603 61.168457,12.2369877 61.168457,10.5214844 L61.168457,9.359375 C61.168457,8.23599699 61.3690572,7.2482139 61.7702637,6.39599609 C62.1714701,5.54377829 62.7400679,4.88940658 63.4760742,4.43286133 C64.2120805,3.97631608 65.0642855,3.74804688 66.0327148,3.74804688 C67.3165754,3.74804688 68.345862,4.10636035 69.1206055,4.82299805 C69.8953489,5.53963574 70.3463535,6.53156918 70.4736328,7.79882812 L68.871582,7.79882812 C68.733235,6.83593269 68.4330264,6.13867403 67.9709473,5.70703125 C67.5088681,5.27538847 66.8627971,5.05957031 66.0327148,5.05957031 C65.0144806,5.05957031 64.2162301,5.43586863 63.6379395,6.18847656 C63.0596488,6.94108449 62.7705078,8.01187457 62.7705078,9.40087891 L62.7705078,10.5712891 C62.7705078,11.8828191 63.0444309,12.9259401 63.5922852,13.7006836 C64.1401395,14.4754271 64.9065706,14.862793 65.8916016,14.862793 C66.7770227,14.862793 67.4562965,14.6621928 67.9294434,14.2609863 C68.4025903,13.8597799 68.7166333,13.1611378 68.871582,12.1650391 L70.4736328,12.1650391 Z M75.7363281,11.1772461 C75.7363281,12.4113017 75.5744645,13.5941512 75.2507324,14.7258301 C74.9270003,15.8575089 74.4317253,16.9020134 73.7648926,17.859375 C73.0980598,18.8167366 72.3994177,19.4973938 71.6689453,19.9013672 L71.3452148,18.9633789 C72.1974326,18.3103808 72.8822403,17.2963122 73.3996582,15.9211426 C73.9170762,14.5459729 74.181315,13.0200279 74.1923828,11.3432617 L74.1923828,11.0776367 C74.1923828,9.91552153 74.0706392,8.83504731 73.8271484,7.83618164 C73.5836576,6.83731597 73.2447125,5.94222401 72.8103027,5.15087891 C72.375893,4.3595338 71.8875353,3.74251523 71.3452148,3.29980469 L71.6689453,2.36181641 C72.3994177,2.76578978 73.0952929,3.44091324 73.7565918,4.38720703 C74.4178907,5.33350083 74.9131657,6.3766219 75.2424316,7.51660156 C75.5716976,8.65658122 75.7363281,9.87678386 75.7363281,11.1772461 Z" id="Bit(BTC)" fill-opacity="0.87" fill="#000000" fill-rule="nonzero"></path>
                        <g id="Material/Light/Radio-button-off" transform="translate(171.887931, 0.000000)" fill="#010101" opacity="0.54">
                            <path d="M13,2 C7.5,2 3,6.5 3,12 C3,17.5 7.5,22 13,22 C18.5,22 23,17.5 23,12 C23,6.5 18.5,2 13,2 L13,2 Z M13,20 C8.6,20 5,16.4 5,12 C5,7.6 8.6,4 13,4 C17.4,4 21,7.6 21,12 C21,16.4 17.4,20 13,20 L13,20 Z" id="Shape"></path>
                        </g>
                    </g>
                    <g id="row" transform="translate(0.000000, 116.000000)">
                        <path d="M3.46142578,3.9140625 L7.41259766,13.7753906 L11.3637695,3.9140625 L13.4306641,3.9140625 L13.4306641,16 L11.8369141,16 L11.8369141,11.293457 L11.9863281,6.21337891 L8.01855469,16 L6.79833984,16 L2.83886719,6.23828125 L2.99658203,11.293457 L2.99658203,16 L1.40283203,16 L1.40283203,3.9140625 L3.46142578,3.9140625 Z M17.6723633,16 L16.1367188,16 L16.1367188,7.01855469 L17.6723633,7.01855469 L17.6723633,16 Z M16.012207,4.63623047 C16.012207,4.38720579 16.0882968,4.17692143 16.2404785,4.00537109 C16.3926603,3.83382076 16.6181626,3.74804688 16.9169922,3.74804688 C17.2158218,3.74804688 17.4427076,3.83382076 17.5976562,4.00537109 C17.7526049,4.17692143 17.8300781,4.38720579 17.8300781,4.63623047 C17.8300781,4.88525515 17.7526049,5.09277261 17.5976562,5.25878906 C17.4427076,5.42480552 17.2158218,5.5078125 16.9169922,5.5078125 C16.6181626,5.5078125 16.3926603,5.42480552 16.2404785,5.25878906 C16.0882968,5.09277261 16.012207,4.88525515 16.012207,4.63623047 Z M21.7978516,16 L20.262207,16 L20.262207,3.25 L21.7978516,3.25 L21.7978516,16 Z M25.9233398,16 L24.3876953,16 L24.3876953,3.25 L25.9233398,3.25 L25.9233398,16 Z M30.0488281,16 L28.5131836,16 L28.5131836,7.01855469 L30.0488281,7.01855469 L30.0488281,16 Z M28.3886719,4.63623047 C28.3886719,4.38720579 28.4647616,4.17692143 28.6169434,4.00537109 C28.7691251,3.83382076 28.9946274,3.74804688 29.293457,3.74804688 C29.5922867,3.74804688 29.8191724,3.83382076 29.9741211,4.00537109 C30.1290698,4.17692143 30.206543,4.38720579 30.206543,4.63623047 C30.206543,4.88525515 30.1290698,5.09277261 29.9741211,5.25878906 C29.8191724,5.42480552 29.5922867,5.5078125 29.293457,5.5078125 C28.9946274,5.5078125 28.7691251,5.42480552 28.6169434,5.25878906 C28.4647616,5.09277261 28.3886719,4.88525515 28.3886719,4.63623047 Z M40.109375,11.6088867 C40.109375,12.9812894 39.7939485,14.0838988 39.1630859,14.916748 C38.5322234,15.7495973 37.6855522,16.1660156 36.6230469,16.1660156 C35.4886011,16.1660156 34.611494,15.7648152 33.9916992,14.9624023 L33.9169922,16 L32.5058594,16 L32.5058594,3.25 L34.0415039,3.25 L34.0415039,8.00634766 C34.6612987,7.23713808 35.5162706,6.85253906 36.6064453,6.85253906 C37.69662,6.85253906 38.5529754,7.26480708 39.1755371,8.08935547 C39.7980988,8.91390386 40.109375,10.0427988 40.109375,11.4760742 L40.109375,11.6088867 Z M38.5737305,11.4345703 C38.5737305,10.3886666 38.3717468,9.58073202 37.9677734,9.01074219 C37.5638001,8.44075236 36.9827512,8.15576172 36.2246094,8.15576172 C35.211909,8.15576172 34.4842145,8.62613462 34.0415039,9.56689453 L34.0415039,13.4516602 C34.5118839,14.3924201 35.2451122,14.862793 36.2412109,14.862793 C36.9772172,14.862793 37.5499654,14.5778023 37.9594727,14.0078125 C38.3689799,13.4378227 38.5737305,12.5800839 38.5737305,11.4345703 Z M43.7119141,16 L42.1762695,16 L42.1762695,7.01855469 L43.7119141,7.01855469 L43.7119141,16 Z M42.0517578,4.63623047 C42.0517578,4.38720579 42.1278475,4.17692143 42.2800293,4.00537109 C42.432211,3.83382076 42.6577133,3.74804688 42.956543,3.74804688 C43.2553726,3.74804688 43.4822583,3.83382076 43.637207,4.00537109 C43.7921557,4.17692143 43.8696289,4.38720579 43.8696289,4.63623047 C43.8696289,4.88525515 43.7921557,5.09277261 43.637207,5.25878906 C43.4822583,5.42480552 43.2553726,5.5078125 42.956543,5.5078125 C42.6577133,5.5078125 42.432211,5.42480552 42.2800293,5.25878906 C42.1278475,5.09277261 42.0517578,4.88525515 42.0517578,4.63623047 Z M48.2524414,4.84375 L48.2524414,7.01855469 L49.9291992,7.01855469 L49.9291992,8.20556641 L48.2524414,8.20556641 L48.2524414,13.7753906 C48.2524414,14.1350929 48.3271477,14.4048656 48.4765625,14.5847168 C48.6259773,14.764568 48.8805321,14.8544922 49.2402344,14.8544922 C49.4173186,14.8544922 49.6608057,14.8212894 49.9707031,14.7548828 L49.9707031,16 C49.5667298,16.1106776 49.17383,16.1660156 48.7919922,16.1660156 C48.1057908,16.1660156 47.5883806,15.9584982 47.2397461,15.543457 C46.8911115,15.1284159 46.7167969,14.5390663 46.7167969,13.7753906 L46.7167969,8.20556641 L45.081543,8.20556641 L45.081543,7.01855469 L46.7167969,7.01855469 L46.7167969,4.84375 L48.2524414,4.84375 Z M55.8725586,11.0942383 C55.8725586,9.84358099 56.039956,8.64274664 56.3747559,7.49169922 C56.7095557,6.3406518 57.2089811,5.29476382 57.8730469,4.35400391 C58.5371127,3.41324399 59.2260706,2.74918813 59.9399414,2.36181641 L60.2553711,3.37451172 C59.4474243,3.99430648 58.7847519,4.94058608 58.267334,6.21337891 C57.749916,7.48617173 57.4663088,8.91112493 57.4165039,10.4882812 L57.4082031,11.1938477 C57.4082031,13.329926 57.7983359,15.1837487 58.5786133,16.7553711 C59.0489932,17.696131 59.6079069,18.4321262 60.2553711,18.9633789 L59.9399414,19.9013672 C59.2039351,19.4918599 58.5011427,18.8056689 57.831543,17.8427734 C56.5255469,15.9612536 55.8725586,13.7117644 55.8725586,11.0942383 Z M63.1855469,7.01855469 L63.2270508,8.01464844 C63.8855827,7.23990498 64.7737574,6.85253906 65.8916016,6.85253906 C67.1477927,6.85253906 68.0027647,7.33397956 68.456543,8.296875 C68.7553726,7.86523222 69.144122,7.51660289 69.6228027,7.25097656 C70.1014835,6.98535023 70.6673144,6.85253906 71.3203125,6.85253906 C73.2903744,6.85253906 74.291992,7.89566014 74.3251953,9.98193359 L74.3251953,16 L72.7895508,16 L72.7895508,10.0732422 C72.7895508,9.43131189 72.6429051,8.95125485 72.3496094,8.63305664 C72.0563136,8.31485844 71.5638055,8.15576172 70.8720703,8.15576172 C70.3020805,8.15576172 69.8289407,8.32592603 69.4526367,8.66625977 C69.0763328,9.0065935 68.8577477,9.46451535 68.796875,10.0400391 L68.796875,16 L67.2529297,16 L67.2529297,10.1147461 C67.2529297,8.80874998 66.6137759,8.15576172 65.3354492,8.15576172 C64.3282827,8.15576172 63.6393248,8.58463113 63.2685547,9.44238281 L63.2685547,16 L61.7329102,16 L61.7329102,7.01855469 L63.1855469,7.01855469 Z M76.8818359,16 L76.8818359,3.9140625 L80.8330078,3.9140625 C82.1445378,3.9140625 83.1309374,4.18521864 83.7922363,4.72753906 C84.4535352,5.26985948 84.7841797,6.07226031 84.7841797,7.13476562 C84.7841797,7.69922157 84.6236995,8.19864692 84.3027344,8.63305664 C83.9817692,9.06746636 83.5445991,9.40364464 82.9912109,9.64160156 C83.644209,9.82421966 84.1602357,10.1714655 84.5393066,10.6833496 C84.9183775,11.1952337 85.1079102,11.805335 85.1079102,12.5136719 C85.1079102,13.5983127 84.7565139,14.4505177 84.0537109,15.0703125 C83.3509079,15.6901073 82.3575911,16 81.0737305,16 L76.8818359,16 Z M78.4755859,10.347168 L78.4755859,14.6967773 L81.1069336,14.6967773 C81.8484738,14.6967773 82.433673,14.5044778 82.8625488,14.119873 C83.2914247,13.7352683 83.5058594,13.205407 83.5058594,12.5302734 C83.5058594,11.0748625 82.7145261,10.347168 81.1318359,10.347168 L78.4755859,10.347168 Z M78.4755859,9.06884766 L80.8828125,9.06884766 C81.5800816,9.06884766 82.1376118,8.89453299 82.5554199,8.54589844 C82.973228,8.19726388 83.1821289,7.72412408 83.1821289,7.12646484 C83.1821289,6.46239902 82.9884459,5.97957508 82.6010742,5.67797852 C82.2137025,5.37638196 81.6243529,5.22558594 80.8330078,5.22558594 L78.4755859,5.22558594 L78.4755859,9.06884766 Z M95.5917969,5.22558594 L91.7070312,5.22558594 L91.7070312,16 L90.121582,16 L90.121582,5.22558594 L86.2451172,5.22558594 L86.2451172,3.9140625 L95.5917969,3.9140625 L95.5917969,5.22558594 Z M106.04248,12.1650391 C105.893066,13.4433658 105.421309,14.4297654 104.627197,15.1242676 C103.833085,15.8187697 102.777513,16.1660156 101.460449,16.1660156 C100.032708,16.1660156 98.8885948,15.6541392 98.0280762,14.6303711 C97.1675575,13.606603 96.7373047,12.2369877 96.7373047,10.5214844 L96.7373047,9.359375 C96.7373047,8.23599699 96.9379049,7.2482139 97.3391113,6.39599609 C97.7403178,5.54377829 98.3089156,4.88940658 99.0449219,4.43286133 C99.7809282,3.97631608 100.633133,3.74804688 101.601562,3.74804688 C102.885423,3.74804688 103.91471,4.10636035 104.689453,4.82299805 C105.464197,5.53963574 105.915201,6.53156918 106.04248,7.79882812 L104.44043,7.79882812 C104.302083,6.83593269 104.001874,6.13867403 103.539795,5.70703125 C103.077716,5.27538847 102.431645,5.05957031 101.601562,5.05957031 C100.583328,5.05957031 99.7850778,5.43586863 99.2067871,6.18847656 C98.6284965,6.94108449 98.3393555,8.01187457 98.3393555,9.40087891 L98.3393555,10.5712891 C98.3393555,11.8828191 98.6132785,12.9259401 99.1611328,13.7006836 C99.7089871,14.4754271 100.475418,14.862793 101.460449,14.862793 C102.34587,14.862793 103.025144,14.6621928 103.498291,14.2609863 C103.971438,13.8597799 104.285481,13.1611378 104.44043,12.1650391 L106.04248,12.1650391 Z M111.305176,11.1772461 C111.305176,12.4113017 111.143312,13.5941512 110.81958,14.7258301 C110.495848,15.8575089 110.000573,16.9020134 109.33374,17.859375 C108.666907,18.8167366 107.968265,19.4973938 107.237793,19.9013672 L106.914062,18.9633789 C107.76628,18.3103808 108.451088,17.2963122 108.968506,15.9211426 C109.485924,14.5459729 109.750163,13.0200279 109.76123,11.3432617 L109.76123,11.0776367 C109.76123,9.91552153 109.639487,8.83504731 109.395996,7.83618164 C109.152505,6.83731597 108.81356,5.94222401 108.37915,5.15087891 C107.944741,4.3595338 107.456383,3.74251523 106.914062,3.29980469 L107.237793,2.36181641 C107.968265,2.76578978 108.664141,3.44091324 109.325439,4.38720703 C109.986738,5.33350083 110.482013,6.3766219 110.811279,7.51660156 C111.140545,8.65658122 111.305176,9.87678386 111.305176,11.1772461 Z" id="Millibit(mBTC)" fill-opacity="0.87" fill="#000000" fill-rule="nonzero"></path>
                        <g id="Material/Light/Radio-button-off" transform="translate(171.887931, 0.000000)" fill="#010101" opacity="0.54">
                            <path d="M13,2 C7.5,2 3,6.5 3,12 C3,17.5 7.5,22 13,22 C18.5,22 23,17.5 23,12 C23,6.5 18.5,2 13,2 L13,2 Z M13,20 C8.6,20 5,16.4 5,12 C5,7.6 8.6,4 13,4 C17.4,4 21,7.6 21,12 C21,16.4 17.4,20 13,20 L13,20 Z" id="Shape"></path>
                        </g>
                    </g>
                    <g id="row-copy" transform="translate(0.000000, 172.000000)">
                        <path d="M4.96386719,10.612793 C3.59699837,10.2198874 2.60229803,9.73706341 1.97973633,9.16430664 C1.35717462,8.59154987 1.04589844,7.88460707 1.04589844,7.04345703 C1.04589844,6.09162936 1.42634711,5.30444647 2.18725586,4.68188477 C2.94816461,4.05932306 3.93733115,3.74804688 5.15478516,3.74804688 C5.98486743,3.74804688 6.72501302,3.90852704 7.37524414,4.22949219 C8.02547526,4.55045733 8.52905095,4.99316124 8.88598633,5.55761719 C9.24292171,6.12207313 9.42138672,6.7390917 9.42138672,7.40869141 L7.81933594,7.40869141 C7.81933594,6.678219 7.58691639,6.10408738 7.12207031,5.6862793 C6.65722424,5.26847122 6.00146908,5.05957031 5.15478516,5.05957031 C4.36897394,5.05957031 3.75610572,5.23250153 3.31616211,5.57836914 C2.8762185,5.92423676 2.65625,6.4042938 2.65625,7.01855469 C2.65625,7.51107017 2.86515091,7.92748853 3.28295898,8.26782227 C3.70076706,8.608156 4.41186021,8.91943218 5.41625977,9.20166016 C6.42065932,9.48388813 7.20645875,9.79516431 7.77368164,10.135498 C8.34090453,10.4758318 8.76147324,10.8728818 9.03540039,11.3266602 C9.30932754,11.7804385 9.44628906,12.3144501 9.44628906,12.9287109 C9.44628906,13.908208 9.06445694,14.692624 8.30078125,15.2819824 C7.53710556,15.8713408 6.51611967,16.1660156 5.23779297,16.1660156 C4.40771069,16.1660156 3.63297886,16.0069189 2.91357422,15.6887207 C2.19416958,15.3705225 1.63940625,14.9347358 1.24926758,14.3813477 C0.859128909,13.8279595 0.6640625,13.1998733 0.6640625,12.4970703 L2.26611328,12.4970703 C2.26611328,13.2275427 2.53588597,13.8044412 3.07543945,14.2277832 C3.61499293,14.6511252 4.33577023,14.862793 5.23779297,14.862793 C6.07894301,14.862793 6.72363057,14.6912452 7.171875,14.3481445 C7.62011943,14.0050439 7.84423828,13.5374379 7.84423828,12.9453125 C7.84423828,12.3531871 7.63672083,11.8952653 7.22167969,11.5715332 C6.80663855,11.2478011 6.05404191,10.9282242 4.96386719,10.612793 Z M16.7924805,16 C16.7039384,15.8229158 16.631999,15.5074892 16.5766602,15.0537109 C15.8627894,15.7952511 15.0105844,16.1660156 14.0200195,16.1660156 C13.1345984,16.1660156 12.4082873,15.9156112 11.8410645,15.4147949 C11.2738416,14.9139786 10.9902344,14.2789752 10.9902344,13.5097656 C10.9902344,12.5745396 11.3457809,11.8482285 12.0568848,11.3308105 C12.7679886,10.8133926 13.7682227,10.5546875 15.0576172,10.5546875 L16.5517578,10.5546875 L16.5517578,9.84912109 C16.5517578,9.31233456 16.3912776,8.8848486 16.0703125,8.56665039 C15.7493474,8.24845219 15.2762076,8.08935547 14.6508789,8.08935547 C14.1030246,8.08935547 13.6437193,8.22770044 13.2729492,8.50439453 C12.9021791,8.78108862 12.7167969,9.11588345 12.7167969,9.50878906 L11.1728516,9.50878906 C11.1728516,9.06054463 11.3319483,8.62752488 11.6501465,8.2097168 C11.9683447,7.79190872 12.399981,7.46126424 12.9450684,7.21777344 C13.4901557,6.97428264 14.0891894,6.85253906 14.7421875,6.85253906 C15.7770234,6.85253906 16.5877249,7.11124416 17.1743164,7.62866211 C17.7609079,8.14608006 18.0652668,8.85855666 18.0874023,9.76611328 L18.0874023,13.8999023 C18.0874023,14.7244507 18.1925445,15.3802059 18.402832,15.8671875 L18.402832,16 L16.7924805,16 Z M14.2441406,14.8295898 C14.7255883,14.8295898 15.1821267,14.7050794 15.6137695,14.4560547 C16.0454123,14.20703 16.3580719,13.8833028 16.5517578,13.4848633 L16.5517578,11.6420898 L15.3481445,11.6420898 C13.4666247,11.6420898 12.5258789,12.1927028 12.5258789,13.2939453 C12.5258789,13.775393 12.6863591,14.1516914 13.0073242,14.4228516 C13.3282894,14.6940118 13.7405574,14.8295898 14.2441406,14.8295898 Z M22.578125,4.84375 L22.578125,7.01855469 L24.2548828,7.01855469 L24.2548828,8.20556641 L22.578125,8.20556641 L22.578125,13.7753906 C22.578125,14.1350929 22.6528313,14.4048656 22.8022461,14.5847168 C22.9516609,14.764568 23.2062156,14.8544922 23.565918,14.8544922 C23.7430022,14.8544922 23.9864893,14.8212894 24.2963867,14.7548828 L24.2963867,16 C23.8924133,16.1106776 23.4995136,16.1660156 23.1176758,16.1660156 C22.4314744,16.1660156 21.9140642,15.9584982 21.5654297,15.543457 C21.2167951,15.1284159 21.0424805,14.5390663 21.0424805,13.7753906 L21.0424805,8.20556641 L19.4072266,8.20556641 L19.4072266,7.01855469 L21.0424805,7.01855469 L21.0424805,4.84375 L22.578125,4.84375 Z M25.4750977,11.4262695 C25.4750977,10.5463823 25.6480289,9.75504909 25.9938965,9.05224609 C26.3397641,8.3494431 26.8212046,7.80713082 27.4382324,7.42529297 C28.0552602,7.04345512 28.7594361,6.85253906 29.5507812,6.85253906 C30.7737691,6.85253906 31.7629357,7.27587467 32.5183105,8.12255859 C33.2736854,8.96924251 33.6513672,10.0953706 33.6513672,11.5009766 L33.6513672,11.6088867 C33.6513672,12.48324 33.4839698,13.267656 33.1491699,13.9621582 C32.8143701,14.6566604 32.3356965,15.1975892 31.7131348,15.5849609 C31.0905731,15.9723327 30.3753296,16.1660156 29.5673828,16.1660156 C28.3499288,16.1660156 27.3635292,15.74268 26.6081543,14.8959961 C25.8527794,14.0493122 25.4750977,12.9287179 25.4750977,11.5341797 L25.4750977,11.4262695 Z M27.019043,11.6088867 C27.019043,12.6049854 27.2500791,13.4046194 27.7121582,14.0078125 C28.1742373,14.6110056 28.7926394,14.9125977 29.5673828,14.9125977 C30.3476602,14.9125977 30.9674456,14.6068553 31.4267578,13.9953613 C31.88607,13.3838674 32.1157227,12.527512 32.1157227,11.4262695 C32.1157227,10.4412386 31.8819197,9.64298808 31.4143066,9.03149414 C30.9466936,8.4200002 30.3255247,8.11425781 29.5507812,8.11425781 C28.7926394,8.11425781 28.1811547,8.41584985 27.7163086,9.01904297 C27.2514625,9.62223609 27.019043,10.4855087 27.019043,11.6088867 Z M40.8066406,13.6176758 C40.8066406,13.2026346 40.6503108,12.8802909 40.3376465,12.6506348 C40.0249822,12.4209787 39.479903,12.2231454 38.7023926,12.0571289 C37.9248822,11.8911125 37.3078636,11.6918957 36.8513184,11.4594727 C36.3947731,11.2270496 36.0572114,10.9503597 35.838623,10.6293945 C35.6200347,10.3084294 35.5107422,9.92659727 35.5107422,9.48388672 C35.5107422,8.74788043 35.8220184,8.12532807 36.4445801,7.61621094 C37.0671418,7.10709381 37.8626254,6.85253906 38.8310547,6.85253906 C39.8492889,6.85253906 40.6752084,7.11539451 41.3088379,7.64111328 C41.9424674,8.16683206 42.2592773,8.83918861 42.2592773,9.65820312 L40.715332,9.65820312 C40.715332,9.23762811 40.536867,8.87516428 40.1799316,8.57080078 C39.8229963,8.26643728 39.3733751,8.11425781 38.8310547,8.11425781 C38.2721326,8.11425781 37.8349625,8.23600139 37.5195312,8.47949219 C37.2041,8.72298299 37.0463867,9.04117642 37.0463867,9.43408203 C37.0463867,9.80485211 37.1930324,10.084309 37.4863281,10.2724609 C37.7796239,10.4606129 38.3094851,10.6404614 39.0759277,10.8120117 C39.8423704,10.9835621 40.4635393,11.1883126 40.9394531,11.4262695 C41.415367,11.6642265 41.7681466,11.9506005 41.9978027,12.2854004 C42.2274588,12.6202002 42.3422852,13.0283179 42.3422852,13.5097656 C42.3422852,14.3121785 42.0213248,14.9554826 41.3793945,15.4396973 C40.7374642,15.9239119 39.9046275,16.1660156 38.8808594,16.1660156 C38.1614547,16.1660156 37.5250679,16.0387383 36.9716797,15.7841797 C36.4182915,15.5296211 35.9852717,15.1740745 35.6726074,14.7175293 C35.3599431,14.260984 35.2036133,13.7670925 35.2036133,13.2358398 L36.7392578,13.2358398 C36.7669272,13.7504909 36.9730612,14.1586085 37.357666,14.4602051 C37.7422708,14.7618016 38.2499968,14.9125977 38.8808594,14.9125977 C39.461917,14.9125977 39.9281395,14.7950044 40.279541,14.5598145 C40.6309425,14.3246245 40.8066406,14.0105814 40.8066406,13.6176758 Z M45.878418,8.10595703 C46.5590854,7.27034087 47.4444932,6.85253906 48.534668,6.85253906 C50.4327894,6.85253906 51.3901366,7.92332914 51.4067383,10.0649414 L51.4067383,16 L49.8710938,16 L49.8710938,10.0566406 C49.8655599,9.40917645 49.7175307,8.93050285 49.427002,8.62060547 C49.1364732,8.31070809 48.6840851,8.15576172 48.0698242,8.15576172 C47.5717749,8.15576172 47.1346047,8.28857289 46.7583008,8.55419922 C46.3819968,8.81982555 46.0887055,9.16845487 45.878418,9.60009766 L45.878418,16 L44.3427734,16 L44.3427734,3.25 L45.878418,3.25 L45.878418,8.10595703 Z M55.3745117,16 L53.8388672,16 L53.8388672,7.01855469 L55.3745117,7.01855469 L55.3745117,16 Z M53.7143555,4.63623047 C53.7143555,4.38720579 53.7904452,4.17692143 53.942627,4.00537109 C54.0948087,3.83382076 54.320311,3.74804688 54.6191406,3.74804688 C54.9179702,3.74804688 55.144856,3.83382076 55.2998047,4.00537109 C55.4547534,4.17692143 55.5322266,4.38720579 55.5322266,4.63623047 C55.5322266,4.88525515 55.4547534,5.09277261 55.2998047,5.25878906 C55.144856,5.42480552 54.9179702,5.5078125 54.6191406,5.5078125 C54.320311,5.5078125 54.0948087,5.42480552 53.942627,5.25878906 C53.7904452,5.09277261 53.7143555,4.88525515 53.7143555,4.63623047 Z M61.9819336,11.0942383 C61.9819336,9.84358099 62.149331,8.64274664 62.4841309,7.49169922 C62.8189307,6.3406518 63.3183561,5.29476382 63.9824219,4.35400391 C64.6464877,3.41324399 65.3354456,2.74918813 66.0493164,2.36181641 L66.3647461,3.37451172 C65.5567993,3.99430648 64.8941269,4.94058608 64.376709,6.21337891 C63.859291,7.48617173 63.5756838,8.91112493 63.5258789,10.4882812 L63.5175781,11.1938477 C63.5175781,13.329926 63.9077109,15.1837487 64.6879883,16.7553711 C65.1583682,17.696131 65.7172819,18.4321262 66.3647461,18.9633789 L66.0493164,19.9013672 C65.3133101,19.4918599 64.6105177,18.8056689 63.940918,17.8427734 C62.6349219,15.9612536 61.9819336,13.7117644 61.9819336,11.0942383 Z M71.6523438,10.612793 C70.2854749,10.2198874 69.2907746,9.73706341 68.6682129,9.16430664 C68.0456512,8.59154987 67.734375,7.88460707 67.734375,7.04345703 C67.734375,6.09162936 68.1148237,5.30444647 68.8757324,4.68188477 C69.6366412,4.05932306 70.6258077,3.74804688 71.8432617,3.74804688 C72.673344,3.74804688 73.4134896,3.90852704 74.0637207,4.22949219 C74.7139518,4.55045733 75.2175275,4.99316124 75.5744629,5.55761719 C75.9313983,6.12207313 76.1098633,6.7390917 76.1098633,7.40869141 L74.5078125,7.40869141 C74.5078125,6.678219 74.2753929,6.10408738 73.8105469,5.6862793 C73.3457008,5.26847122 72.6899456,5.05957031 71.8432617,5.05957031 C71.0574505,5.05957031 70.4445823,5.23250153 70.0046387,5.57836914 C69.5646951,5.92423676 69.3447266,6.4042938 69.3447266,7.01855469 C69.3447266,7.51107017 69.5536275,7.92748853 69.9714355,8.26782227 C70.3892436,8.608156 71.1003368,8.91943218 72.1047363,9.20166016 C73.1091359,9.48388813 73.8949353,9.79516431 74.4621582,10.135498 C75.0293811,10.4758318 75.4499498,10.8728818 75.723877,11.3266602 C75.9978041,11.7804385 76.1347656,12.3144501 76.1347656,12.9287109 C76.1347656,13.908208 75.7529335,14.692624 74.9892578,15.2819824 C74.2255821,15.8713408 73.2045962,16.1660156 71.9262695,16.1660156 C71.0961873,16.1660156 70.3214554,16.0069189 69.6020508,15.6887207 C68.8826461,15.3705225 68.3278828,14.9347358 67.9377441,14.3813477 C67.5476055,13.8279595 67.3525391,13.1998733 67.3525391,12.4970703 L68.9545898,12.4970703 C68.9545898,13.2275427 69.2243625,13.8044412 69.763916,14.2277832 C70.3034695,14.6511252 71.0242468,14.862793 71.9262695,14.862793 C72.7674196,14.862793 73.4121071,14.6912452 73.8603516,14.3481445 C74.308596,14.0050439 74.5327148,13.5374379 74.5327148,12.9453125 C74.5327148,12.3531871 74.3251974,11.8952653 73.9101562,11.5715332 C73.4951151,11.2478011 72.7425185,10.9282242 71.6523438,10.612793 Z M84.8505859,12.8457031 L79.7871094,12.8457031 L78.6499023,16 L77.0063477,16 L81.621582,3.9140625 L83.0161133,3.9140625 L87.6396484,16 L86.0043945,16 L84.8505859,12.8457031 Z M80.2685547,11.5341797 L84.3774414,11.5341797 L82.3188477,5.88134766 L80.2685547,11.5341797 Z M96.5463867,5.22558594 L92.6616211,5.22558594 L92.6616211,16 L91.0761719,16 L91.0761719,5.22558594 L87.199707,5.22558594 L87.199707,3.9140625 L96.5463867,3.9140625 L96.5463867,5.22558594 Z M101.643066,11.1772461 C101.643066,12.4113017 101.481203,13.5941512 101.157471,14.7258301 C100.833739,15.8575089 100.338464,16.9020134 99.6716309,17.859375 C99.0047981,18.8167366 98.306156,19.4973938 97.5756836,19.9013672 L97.2519531,18.9633789 C98.1041709,18.3103808 98.7889785,17.2963122 99.3063965,15.9211426 C99.8238144,14.5459729 100.088053,13.0200279 100.099121,11.3432617 L100.099121,11.0776367 C100.099121,9.91552153 99.9773775,8.83504731 99.7338867,7.83618164 C99.4903959,6.83731597 99.1514507,5.94222401 98.717041,5.15087891 C98.2826313,4.3595338 97.7942735,3.74251523 97.2519531,3.29980469 L97.5756836,2.36181641 C98.306156,2.76578978 99.0020312,3.44091324 99.6633301,4.38720703 C100.324629,5.33350083 100.819904,6.3766219 101.14917,7.51660156 C101.478436,8.65658122 101.643066,9.87678386 101.643066,11.1772461 Z" id="Satoshi(SAT)" fill-opacity="0.87" fill="#000000" fill-rule="nonzero"></path>
                        <g id="Material/Light/Radio-button-off" transform="translate(171.887931, 0.000000)" fill="#010101" opacity="0.54">
                            <path d="M13,2 C7.5,2 3,6.5 3,12 C3,17.5 7.5,22 13,22 C18.5,22 23,17.5 23,12 C23,6.5 18.5,2 13,2 L13,2 Z M13,20 C8.6,20 5,16.4 5,12 C5,7.6 8.6,4 13,4 C17.4,4 21,7.6 21,12 C21,16.4 17.4,20 13,20 L13,20 Z" id="Shape"></path>
                        </g>
                    </g>
                    <g id="row">
                        <path d="M1.40283203,20 L1.40283203,7.9140625 L5.35400391,7.9140625 C6.6655339,7.9140625 7.65193354,8.18521864 8.31323242,8.72753906 C8.9745313,9.26985948 9.30517578,10.0722603 9.30517578,11.1347656 C9.30517578,11.6992216 9.14469562,12.1986469 8.82373047,12.6330566 C8.50276532,13.0674664 8.06559521,13.4036446 7.51220703,13.6416016 C8.16520509,13.8242197 8.68123183,14.1714655 9.06030273,14.6833496 C9.43937364,15.1952337 9.62890625,15.805335 9.62890625,16.5136719 C9.62890625,17.5983127 9.27751002,18.4505177 8.57470703,19.0703125 C7.87190404,19.6901073 6.87858715,20 5.59472656,20 L1.40283203,20 Z M2.99658203,14.347168 L2.99658203,18.6967773 L5.62792969,18.6967773 C6.36946985,18.6967773 6.95466908,18.5044778 7.38354492,18.119873 C7.81242076,17.7352683 8.02685547,17.205407 8.02685547,16.5302734 C8.02685547,15.0748625 7.23552224,14.347168 5.65283203,14.347168 L2.99658203,14.347168 Z M2.99658203,13.0688477 L5.40380859,13.0688477 C6.10107771,13.0688477 6.65860794,12.894533 7.07641602,12.5458984 C7.49422409,12.1972639 7.703125,11.7241241 7.703125,11.1264648 C7.703125,10.462399 7.50944204,9.97957508 7.12207031,9.67797852 C6.73469858,9.37638196 6.14534901,9.22558594 5.35400391,9.22558594 L2.99658203,9.22558594 L2.99658203,13.0688477 Z M13.4140625,20 L11.878418,20 L11.878418,11.0185547 L13.4140625,11.0185547 L13.4140625,20 Z M11.7539062,8.63623047 C11.7539062,8.38720579 11.829996,8.17692143 11.9821777,8.00537109 C12.1343595,7.83382076 12.3598618,7.74804688 12.6586914,7.74804688 C12.957521,7.74804688 13.1844068,7.83382076 13.3393555,8.00537109 C13.4943042,8.17692143 13.5717773,8.38720579 13.5717773,8.63623047 C13.5717773,8.88525515 13.4943042,9.09277261 13.3393555,9.25878906 C13.1844068,9.42480552 12.957521,9.5078125 12.6586914,9.5078125 C12.3598618,9.5078125 12.1343595,9.42480552 11.9821777,9.25878906 C11.829996,9.09277261 11.7539062,8.88525515 11.7539062,8.63623047 Z M17.9545898,8.84375 L17.9545898,11.0185547 L19.6313477,11.0185547 L19.6313477,12.2055664 L17.9545898,12.2055664 L17.9545898,17.7753906 C17.9545898,18.1350929 18.0292961,18.4048656 18.1787109,18.5847168 C18.3281257,18.764568 18.5826805,18.8544922 18.9423828,18.8544922 C19.119467,18.8544922 19.3629542,18.8212894 19.6728516,18.7548828 L19.6728516,20 C19.2688782,20.1106776 18.8759785,20.1660156 18.4941406,20.1660156 C17.8079393,20.1660156 17.2905291,19.9584982 16.9418945,19.543457 C16.59326,19.1284159 16.4189453,18.5390663 16.4189453,17.7753906 L16.4189453,12.2055664 L14.7836914,12.2055664 L14.7836914,11.0185547 L16.4189453,11.0185547 L16.4189453,8.84375 L17.9545898,8.84375 Z M25.0268555,18.9125977 C25.5747098,18.9125977 26.0533834,18.7465837 26.4628906,18.4145508 C26.8723979,18.0825179 27.0992836,17.667483 27.1435547,17.1694336 L28.5961914,17.1694336 C28.568522,17.6840846 28.3914404,18.1738258 28.0649414,18.6386719 C27.7384424,19.1035179 27.3026557,19.4742825 26.7575684,19.7509766 C26.212481,20.0276707 25.6355825,20.1660156 25.0268555,20.1660156 C23.8038676,20.1660156 22.8313024,19.757898 22.1091309,18.9416504 C21.3869593,18.1254028 21.0258789,17.0089589 21.0258789,15.5922852 L21.0258789,15.3349609 C21.0258789,14.4606076 21.1863591,13.6831089 21.5073242,13.0024414 C21.8282894,12.3217739 22.2889781,11.7932962 22.8894043,11.4169922 C23.4898305,11.0406882 24.1995402,10.8525391 25.0185547,10.8525391 C26.0257212,10.8525391 26.8627083,11.1541311 27.529541,11.7573242 C28.1963738,12.3605173 28.5519204,13.1435499 28.5961914,14.1064453 L27.1435547,14.1064453 C27.0992836,13.5253877 26.8793151,13.0480976 26.4836426,12.6745605 C26.08797,12.3010235 25.5996123,12.1142578 25.0185547,12.1142578 C24.2382773,12.1142578 23.6337098,12.3950981 23.204834,12.9567871 C22.7759581,13.5184761 22.5615234,14.3305611 22.5615234,15.3930664 L22.5615234,15.6835938 C22.5615234,16.7184297 22.7745747,17.5152967 23.2006836,18.0742188 C23.6267925,18.6331408 24.2355104,18.9125977 25.0268555,18.9125977 Z M29.9160156,15.4262695 C29.9160156,14.5463823 30.0889468,13.7550491 30.4348145,13.0522461 C30.7806821,12.3494431 31.2621226,11.8071308 31.8791504,11.425293 C32.4961782,11.0434551 33.2003541,10.8525391 33.9916992,10.8525391 C35.2146871,10.8525391 36.2038536,11.2758747 36.9592285,12.1225586 C37.7146034,12.9692425 38.0922852,14.0953706 38.0922852,15.5009766 L38.0922852,15.6088867 C38.0922852,16.48324 37.9248877,17.267656 37.5900879,17.9621582 C37.255288,18.6566604 36.7766144,19.1975892 36.1540527,19.5849609 C35.531491,19.9723327 34.8162475,20.1660156 34.0083008,20.1660156 C32.7908468,20.1660156 31.8044471,19.74268 31.0490723,18.8959961 C30.2936974,18.0493122 29.9160156,16.9287179 29.9160156,15.5341797 L29.9160156,15.4262695 Z M31.4599609,15.6088867 C31.4599609,16.6049854 31.690997,17.4046194 32.1530762,18.0078125 C32.6151553,18.6110056 33.2335573,18.9125977 34.0083008,18.9125977 C34.7885781,18.9125977 35.4083636,18.6068553 35.8676758,17.9953613 C36.326988,17.3838674 36.5566406,16.527512 36.5566406,15.4262695 C36.5566406,14.4412386 36.3228376,13.6429881 35.8552246,13.0314941 C35.3876116,12.4200002 34.7664427,12.1142578 33.9916992,12.1142578 C33.2335574,12.1142578 32.6220726,12.4158498 32.1572266,13.019043 C31.6923805,13.6222361 31.4599609,14.4855087 31.4599609,15.6088867 Z M41.6865234,20 L40.1508789,20 L40.1508789,11.0185547 L41.6865234,11.0185547 L41.6865234,20 Z M40.0263672,8.63623047 C40.0263672,8.38720579 40.1024569,8.17692143 40.2546387,8.00537109 C40.4068204,7.83382076 40.6323227,7.74804688 40.9311523,7.74804688 C41.229982,7.74804688 41.4568677,7.83382076 41.6118164,8.00537109 C41.7667651,8.17692143 41.8442383,8.38720579 41.8442383,8.63623047 C41.8442383,8.88525515 41.7667651,9.09277261 41.6118164,9.25878906 C41.4568677,9.42480552 41.229982,9.5078125 40.9311523,9.5078125 C40.6323227,9.5078125 40.4068204,9.42480552 40.2546387,9.25878906 C40.1024569,9.09277261 40.0263672,8.88525515 40.0263672,8.63623047 Z M45.5961914,11.0185547 L45.6459961,12.1474609 C46.3321974,11.2841754 47.2286729,10.8525391 48.3354492,10.8525391 C50.2335707,10.8525391 51.1909179,11.9233291 51.2075195,14.0649414 L51.2075195,20 L49.671875,20 L49.671875,14.0566406 C49.6663411,13.4091765 49.518312,12.9305029 49.2277832,12.6206055 C48.9372544,12.3107081 48.4848664,12.1557617 47.8706055,12.1557617 C47.3725561,12.1557617 46.935386,12.2885729 46.559082,12.5541992 C46.1827781,12.8198255 45.8894867,13.1684549 45.6791992,13.6000977 L45.6791992,20 L44.1435547,20 L44.1435547,11.0185547 L45.5961914,11.0185547 Z M57.6738281,15.0942383 C57.6738281,13.843581 57.8412255,12.6427466 58.1760254,11.4916992 C58.5108252,10.3406518 59.0102506,9.29476382 59.6743164,8.35400391 C60.3383822,7.41324399 61.0273402,6.74918813 61.7412109,6.36181641 L62.0566406,7.37451172 C61.2486939,7.99430648 60.5860215,8.94058608 60.0686035,10.2133789 C59.5511856,11.4861717 59.2675784,12.9111249 59.2177734,14.4882812 L59.2094727,15.1938477 C59.2094727,17.329926 59.5996055,19.1837487 60.3798828,20.7553711 C60.8502628,21.696131 61.4091765,22.4321262 62.0566406,22.9633789 L61.7412109,23.9013672 C61.0052047,23.4918599 60.3024122,22.8056689 59.6328125,21.8427734 C58.3268164,19.9612536 57.6738281,17.7117644 57.6738281,15.0942383 Z M63.7832031,20 L63.7832031,7.9140625 L67.734375,7.9140625 C69.045905,7.9140625 70.0323046,8.18521864 70.6936035,8.72753906 C71.3549024,9.26985948 71.6855469,10.0722603 71.6855469,11.1347656 C71.6855469,11.6992216 71.5250667,12.1986469 71.2041016,12.6330566 C70.8831364,13.0674664 70.4459663,13.4036446 69.8925781,13.6416016 C70.5455762,13.8242197 71.0616029,14.1714655 71.4406738,14.6833496 C71.8197447,15.1952337 72.0092773,15.805335 72.0092773,16.5136719 C72.0092773,17.5983127 71.6578811,18.4505177 70.9550781,19.0703125 C70.2522751,19.6901073 69.2589582,20 67.9750977,20 L63.7832031,20 Z M65.3769531,14.347168 L65.3769531,18.6967773 L68.0083008,18.6967773 C68.7498409,18.6967773 69.3350402,18.5044778 69.763916,18.119873 C70.1927919,17.7352683 70.4072266,17.205407 70.4072266,16.5302734 C70.4072266,15.0748625 69.6158933,14.347168 68.0332031,14.347168 L65.3769531,14.347168 Z M65.3769531,13.0688477 L67.7841797,13.0688477 C68.4814488,13.0688477 69.038979,12.894533 69.4567871,12.5458984 C69.8745952,12.1972639 70.0834961,11.7241241 70.0834961,11.1264648 C70.0834961,10.462399 69.8898131,9.97957508 69.5024414,9.67797852 C69.1150697,9.37638196 68.5257201,9.22558594 67.734375,9.22558594 L65.3769531,9.22558594 L65.3769531,13.0688477 Z M82.4931641,9.22558594 L78.6083984,9.22558594 L78.6083984,20 L77.0229492,20 L77.0229492,9.22558594 L73.1464844,9.22558594 L73.1464844,7.9140625 L82.4931641,7.9140625 L82.4931641,9.22558594 Z M92.9438477,16.1650391 C92.7944328,17.4433658 92.3226765,18.4297654 91.5285645,19.1242676 C90.7344524,19.8187697 89.6788803,20.1660156 88.3618164,20.1660156 C86.9340749,20.1660156 85.789962,19.6541392 84.9294434,18.6303711 C84.0689247,17.606603 83.6386719,16.2369877 83.6386719,14.5214844 L83.6386719,13.359375 C83.6386719,12.235997 83.8392721,11.2482139 84.2404785,10.3959961 C84.6416849,9.54377829 85.2102828,8.88940658 85.9462891,8.43286133 C86.6822953,7.97631608 87.5345004,7.74804688 88.5029297,7.74804688 C89.7867903,7.74804688 90.8160769,8.10636035 91.5908203,8.82299805 C92.3655638,9.53963574 92.8165684,10.5315692 92.9438477,11.7988281 L91.3417969,11.7988281 C91.2034498,10.8359327 90.9032412,10.138674 90.4411621,9.70703125 C89.979083,9.27538847 89.333012,9.05957031 88.5029297,9.05957031 C87.4846954,9.05957031 86.6864449,9.43586863 86.1081543,10.1884766 C85.5298636,10.9410845 85.2407227,12.0118746 85.2407227,13.4008789 L85.2407227,14.5712891 C85.2407227,15.8828191 85.5146457,16.9259401 86.0625,17.7006836 C86.6103543,18.4754271 87.3767854,18.862793 88.3618164,18.862793 C89.2472375,18.862793 89.9265113,18.6621928 90.3996582,18.2609863 C90.8728051,17.8597799 91.1868482,17.1611378 91.3417969,16.1650391 L92.9438477,16.1650391 Z M98.206543,15.1772461 C98.206543,16.4113017 98.0446794,17.5941512 97.7209473,18.7258301 C97.3972152,19.8575089 96.9019402,20.9020134 96.2351074,21.859375 C95.5682747,22.8167366 94.8696326,23.4973938 94.1391602,23.9013672 L93.8154297,22.9633789 C94.6676475,22.3103808 95.3524551,21.2963122 95.869873,19.9211426 C96.387291,18.5459729 96.6515299,17.0200279 96.6625977,15.3432617 L96.6625977,15.0776367 C96.6625977,13.9155215 96.5408541,12.8350473 96.2973633,11.8361816 C96.0538725,10.837316 95.7149273,9.94222401 95.2805176,9.15087891 C94.8461079,8.3595338 94.3577501,7.74251523 93.8154297,7.29980469 L94.1391602,6.36181641 C94.8696326,6.76578978 95.5655078,7.44091324 96.2268066,8.38720703 C96.8881055,9.33350083 97.3833805,10.3766219 97.7126465,11.5166016 C98.0419125,12.6565812 98.206543,13.8767839 98.206543,15.1772461 Z" id="Bitcoin(BTC)" fill-opacity="0.87" fill="#000000" fill-rule="nonzero"></path>
                        <g id="Material/Light/Radio-button-on" transform="translate(171.887931, 0.000000)" fill="#009688">
                            <path d="M13,7 C10.2,7 8,9.2 8,12 C8,14.8 10.2,17 13,17 C15.8,17 18,14.8 18,12 C18,9.2 15.8,7 13,7 L13,7 Z M13,2 C7.5,2 3,6.5 3,12 C3,17.5 7.5,22 13,22 C18.5,22 23,17.5 23,12 C23,6.5 18.5,2 13,2 L13,2 Z M13,20 C8.6,20 5,16.4 5,12 C5,7.6 8.6,4 13,4 C17.4,4 21,7.6 21,12 C21,16.4 17.4,20 13,20 L13,20 Z" id="Shape"></path>
                        </g>
                    </g>
                </g>
                <g id="row-copy-2" transform="translate(27.918103, 36.000000)">
                    <path d="M9.91113281,7.5456543 L9.91113281,15.7634277 C9.90559893,16.9034074 9.54728546,17.8358525 8.83618164,18.560791 C8.12507782,19.2857295 7.16081338,19.6924638 5.94335938,19.7810059 L5.52001953,19.7976074 C4.19742177,19.7976074 3.1432331,19.4406774 2.35742188,18.7268066 C1.57161065,18.0129359 1.17317714,17.0306866 1.16210938,15.7800293 L1.16210938,7.5456543 L2.73925781,7.5456543 L2.73925781,15.7302246 C2.73925781,16.6045779 2.97997806,17.2838517 3.46142578,17.7680664 C3.9428735,18.2522811 4.62906456,18.4943848 5.52001953,18.4943848 C6.42204227,18.4943848 7.11238367,18.2536645 7.59106445,17.7722168 C8.06974523,17.2907691 8.30908203,16.6128787 8.30908203,15.7385254 L8.30908203,7.5456543 L9.91113281,7.5456543 Z M15.9873047,14.2443848 C14.6204359,13.8514792 13.6257355,13.3686552 13.0031738,12.7958984 C12.3806121,12.2231417 12.0693359,11.5161989 12.0693359,10.6750488 C12.0693359,9.72322115 12.4497846,8.93603827 13.2106934,8.31347656 C13.9716021,7.69091486 14.9607687,7.37963867 16.1782227,7.37963867 C17.0083049,7.37963867 17.7484505,7.54011884 18.3986816,7.86108398 C19.0489128,8.18204913 19.5524884,8.62475304 19.9094238,9.18920898 C20.2663592,9.75366493 20.4448242,10.3706835 20.4448242,11.0402832 L18.8427734,11.0402832 C18.8427734,10.3098108 18.6103539,9.73567917 18.1455078,9.31787109 C17.6806617,8.90006302 17.0249066,8.69116211 16.1782227,8.69116211 C15.3924114,8.69116211 14.7795432,8.86409332 14.3395996,9.20996094 C13.899656,9.55582855 13.6796875,10.0358856 13.6796875,10.6501465 C13.6796875,11.142662 13.8885884,11.5590803 14.3063965,11.8994141 C14.7242046,12.2397478 15.4352977,12.551024 16.4396973,12.833252 C17.4440968,13.1154799 18.2298963,13.4267561 18.7971191,13.7670898 C19.364342,14.1074236 19.7849107,14.5044736 20.0588379,14.958252 C20.332765,15.4120303 20.4697266,15.9460419 20.4697266,16.5603027 C20.4697266,17.5397998 20.0878944,18.3242158 19.3242188,18.9135742 C18.5605431,19.5029326 17.5395572,19.7976074 16.2612305,19.7976074 C15.4311482,19.7976074 14.6564164,19.6385107 13.9370117,19.3203125 C13.2176071,19.0021143 12.6628437,18.5663276 12.2727051,18.0129395 C11.8825664,17.4595513 11.6875,16.8314651 11.6875,16.1286621 L13.2895508,16.1286621 C13.2895508,16.8591345 13.5593235,17.436033 14.098877,17.859375 C14.6384304,18.282717 15.3592077,18.4943848 16.2612305,18.4943848 C17.1023805,18.4943848 17.7470681,18.322837 18.1953125,17.9797363 C18.6435569,17.6366357 18.8676758,17.1690297 18.8676758,16.5769043 C18.8676758,15.9847789 18.6601583,15.5268571 18.2451172,15.203125 C17.830076,14.8793929 17.0774794,14.559816 15.9873047,14.2443848 Z M22.5117188,19.6315918 L22.5117188,7.5456543 L25.9233398,7.5456543 C26.9747774,7.5456543 27.9044556,7.77807385 28.7124023,8.24291992 C29.5203491,8.707766 30.1442849,9.36905496 30.5842285,10.2268066 C31.0241721,11.0845583 31.2469075,12.0695745 31.2524414,13.1818848 L31.2524414,13.9538574 C31.2524414,15.0938371 31.0324729,16.0926878 30.5925293,16.9504395 C30.1525857,17.8081911 29.5244995,18.4667132 28.708252,18.9260254 C27.8920044,19.3853376 26.9415744,19.620524 25.8569336,19.6315918 L22.5117188,19.6315918 Z M24.1054688,8.85717773 L24.1054688,18.3283691 L25.7822266,18.3283691 C27.0107483,18.3283691 27.9667121,17.946537 28.6501465,17.1828613 C29.3335809,16.4191856 29.675293,15.3317942 29.675293,13.9206543 L29.675293,13.2150879 C29.675293,11.8426852 29.3529492,10.7760455 28.708252,10.0151367 C28.0635547,9.25422797 27.1490945,8.8682455 25.9648438,8.85717773 L24.1054688,8.85717773 Z M43.5708008,16.5187988 C43.5708008,16.0096817 43.3923358,15.5808123 43.0354004,15.2321777 C42.678465,14.8835432 42.0766644,14.5681166 41.2299805,14.2858887 C40.0512636,13.9261864 39.1921414,13.4571969 38.6525879,12.8789062 C38.1130344,12.3006156 37.8432617,11.5660038 37.8432617,10.6750488 C37.8432617,9.76749221 38.1075006,9.02319626 38.6359863,8.44213867 C39.164472,7.86108108 39.8907831,7.51521865 40.8149414,7.40454102 L40.8149414,5.58666992 L42.0517578,5.58666992 L42.0517578,7.4128418 C42.98145,7.54012108 43.7049942,7.9302539 44.2224121,8.58325195 C44.7398301,9.23625001 44.9985352,10.1299585 44.9985352,11.2644043 L43.4711914,11.2644043 C43.4711914,10.484127 43.2858091,9.86434149 42.9150391,9.4050293 C42.544269,8.9457171 42.0434602,8.71606445 41.4125977,8.71606445 C40.7540657,8.71606445 40.25049,8.88622877 39.9018555,9.2265625 C39.5532209,9.56689623 39.3789063,10.0414195 39.3789063,10.6501465 C39.3789063,11.2146024 39.5629051,11.6642236 39.9309082,11.9990234 C40.2989113,12.3338233 40.9048623,12.6381822 41.7487793,12.9121094 C42.5926963,13.1860365 43.2512183,13.4876286 43.7243652,13.8168945 C44.1975121,14.1461605 44.5461415,14.5293761 44.7702637,14.9665527 C44.9943859,15.4037294 45.1064453,15.9156058 45.1064453,16.5021973 C45.1064453,17.4374233 44.825605,18.1900199 44.263916,18.7600098 C43.702227,19.3299996 42.9150441,19.6675613 41.9023438,19.7727051 L41.9023438,21.3581543 L40.6738281,21.3581543 L40.6738281,19.7727051 C39.6445261,19.6786291 38.8379749,19.3120149 38.2541504,18.6728516 C37.6703259,18.0336882 37.378418,17.1662652 37.378418,16.0705566 L38.9140625,16.0705566 C38.9140625,16.8397662 39.1160462,17.4318827 39.5200195,17.8469238 C39.9239929,18.261965 40.4967411,18.4694824 41.2382813,18.4694824 C41.9632198,18.4694824 42.533201,18.2951678 42.9482422,17.9465332 C43.3632833,17.5978986 43.5708008,17.1219919 43.5708008,16.5187988 Z" id="USD$" fill-opacity="0.87" fill="#000000" fill-rule="nonzero"></path>
                    <g id="Material/Light/Radio-button-off" transform="translate(171.887931, 0.000000)" fill="#010101" opacity="0.54">
                        <path d="M13,2 C7.5,2 3,6.5 3,12 C3,17.5 7.5,22 13,22 C18.5,22 23,17.5 23,12 C23,6.5 18.5,2 13,2 L13,2 Z M13,20 C8.6,20 5,16.4 5,12 C5,7.6 8.6,4 13,4 C17.4,4 21,7.6 21,12 C21,16.4 17.4,20 13,20 L13,20 Z" id="Shape"></path>
                    </g>
                </g>
                <path d="M27.9181034,79 L226.918103,79" id="Line" stroke="#979797" stroke-linecap="square"></path>
            </g>
        </g>
        <path id="Line-2-Copy" d="M437.109375,125 L346.699219,125 L346.699219,124 L437.109375,124 L437.109375,120 L446.109375,124.5 L437.109375,129 L437.109375,125 Z" fill="#979797" fill-rule="nonzero"></path>
        <path id="Line-2" d="M437.109375,338 L395.904297,338 L395.904297,337 L437.109375,337 L437.109375,333 L446.109375,337.5 L437.109375,342 L437.109375,338 Z" fill="#979797" fill-rule="nonzero"></path>
    </g>
</svg>