<?xml version="1.0" encoding="UTF-8"?>
<svg width="871px" height="387px" viewBox="0 0 871 387" version="1.1" xmlns="http://www.w3.org/2000/svg" xmlns:xlink="http://www.w3.org/1999/xlink">
    <!-- Generator: Sketch 54.1 (76490) - https://sketchapp.com -->
    <title>AppSetting</title>
    <desc>Created with Sketch.</desc>
    <g id="AppSetting" stroke="none" stroke-width="1" fill="none" fill-rule="evenodd">
        <g id="App-Settings-iOS">
            <rect id="Rectangle" stroke="#DCDCDC" stroke-width="1" fill="#FBFBFC" fill-rule="evenodd" x="0" y="0" width="414" height="93"></rect>
            <rect id="Rectangle-Copy" stroke="#D0D0D0" stroke-width="1" fill="#F7F7F7" fill-rule="evenodd" x="0" y="93" width="414" height="294"></rect>
            <path d="M23.5,160.5 L414,160.5" id="Line" stroke="#D8D8D8" stroke-width="1" stroke-linecap="square"></path>
            <path d="M23.5,206.5 L414,206.5" id="Line-Copy" stroke="#D8D8D8" stroke-width="1" stroke-linecap="square"></path>
            <path d="M23.5,252.5 L414,252.5" id="Line-Copy-2" stroke="#D8D8D8" stroke-width="1" stroke-linecap="square"></path>
            <path d="M23.5,298.5 L414,298.5" id="Line-Copy-3" stroke="#D8D8D8" stroke-width="1" stroke-linecap="square"></path>
            <g id="check-green" stroke-width="1" fill-rule="evenodd" transform="translate(367.000000, 131.000000)" fill="#037AFF">
                <polygon id="Shape" fill-rule="nonzero" points="7.53157895 14.2578947 1.89473684 8.57368421 0 10.4684211 7.53157895 18 23.6842105 1.84736842 21.7894737 0"></polygon>
            </g>
            <path d="M25.4814815,74.6666667 C25.9259259,75.1111111 26.5925926,75.1111111 27.037037,74.6666667 C27.4814815,74.2222222 27.4814815,73.5555556 27.037037,73.1111111 L19.3333333,65.3333333 C18.8888889,64.8888889 18.2222222,64.8888889 17.7777778,65.3333333 L9.92592593,73.1111111 C9.77777778,73.3333333 9.62962963,73.6296296 9.62962963,73.8518519 C9.62962963,74.0740741 9.77777778,74.4444444 9.92592593,74.6666667 C10.3703704,75.1111111 11.037037,75.1111111 11.4814815,74.6666667 L18.4444444,67.7037037 L25.4814815,74.6666667 Z" id="Shape-Copy-2" fill="#007AFF" fill-rule="nonzero" transform="translate(18.500000, 70.000000) rotate(-90.000000) translate(-18.500000, -70.000000) "></path>
            <path d="M37.8527344,76 L33.1793945,76 L33.1793945,64.0219727 L37.7614258,64.0219727 C39.9611328,64.0219727 41.3058594,65.1757812 41.3058594,67.0102539 C41.3058594,68.2553711 40.3927734,69.3842773 39.2389649,69.5917969 L39.2389649,69.7246094 C40.8742188,69.9321289 41.9118164,71.0527344 41.9118164,72.6381836 C41.9118164,74.746582 40.4010742,76 37.8527344,76 Z M34.6735352,65.3417969 L34.6735352,69.1850586 L37.0641602,69.1850586 C38.8737305,69.1850586 39.7951172,68.5375977 39.7951172,67.2675781 C39.7951172,66.0473633 38.9318359,65.3417969 37.4459961,65.3417969 L34.6735352,65.3417969 Z M34.6735352,74.6801758 L37.6286133,74.6801758 C39.4298828,74.6801758 40.3761719,73.949707 40.3761719,72.5634766 C40.3761719,71.1772461 39.3966797,70.4716797 37.4875,70.4716797 L34.6735352,70.4716797 L34.6735352,74.6801758 Z M46.5254883,74.9042969 C47.9947266,74.9042969 49.0821289,73.9414062 49.0821289,72.6630859 L49.0821289,71.8413086 L46.6749023,71.9990234 C45.3135742,72.090332 44.715918,72.5634766 44.715918,73.4599609 C44.715918,74.3730469 45.4878906,74.9042969 46.5254883,74.9042969 Z M46.2598633,76.1577148 C44.525,76.1577148 43.2383789,75.128418 43.2383789,73.4931641 C43.2383789,71.8911133 44.4170898,70.9697266 46.5005859,70.8452148 L49.0821289,70.6875 L49.0821289,69.8740234 C49.0821289,68.7700195 48.3931641,68.1640625 47.0567383,68.1640625 C45.9859375,68.1640625 45.2388672,68.5708008 45.0396484,69.2763672 L43.5953125,69.2763672 C43.7862305,67.840332 45.1973633,66.894043 47.106543,66.894043 C49.2896484,66.894043 50.5098633,68.0146484 50.5098633,69.8740234 L50.5098633,76 L49.1485352,76 L49.1485352,74.6801758 L49.0157227,74.6801758 C48.434668,75.6347656 47.4551758,76.1577148 46.2598633,76.1577148 Z M60.1538086,69.7910156 L58.7094727,69.7910156 C58.4770508,68.902832 57.6884766,68.1806641 56.4018555,68.1806641 C54.7915039,68.1806641 53.7788086,69.4672852 53.7788086,71.4926758 C53.7788086,73.5595703 54.8081055,74.8710938 56.4018555,74.8710938 C57.6054688,74.8710938 58.4438477,74.3149414 58.7094727,73.3022461 L60.1538086,73.3022461 C59.8964844,74.9458008 58.5600586,76.1577148 56.4101562,76.1577148 C53.9033203,76.1577148 52.3012695,74.3398438 52.3012695,71.4926758 C52.3012695,68.7036133 53.8950195,66.894043 56.4018555,66.894043 C58.5766602,66.894043 59.9047852,68.1972656 60.1538086,69.7910156 Z M63.5057617,70.9614258 L67.3905273,67.0517578 L69.1419922,67.0517578 L65.2904297,70.8867188 L69.3993164,76 L67.5814453,76 L64.2279297,71.8081055 L63.3729492,72.6049805 L63.3729492,76 L61.9452148,76 L61.9452148,63.4990234 L63.3729492,63.4990234 L63.3729492,70.9614258 L63.5057617,70.9614258 Z" id="Back" fill="#007AFF" fill-rule="nonzero"></path>
            <path d="M163.05752,76 L157.935938,76 L157.935938,64.0219727 L162.941309,64.0219727 C165.215723,64.0219727 166.585352,65.1674805 166.585352,67.0102539 C166.585352,68.2719727 165.655664,69.3842773 164.452051,69.5751953 L164.452051,69.7246094 C166.062402,69.8740234 167.174707,71.0361328 167.174707,72.5966797 C167.174707,74.6967773 165.61416,76 163.05752,76 Z M160.077539,65.7236328 L160.077539,69.0605469 L162.144434,69.0605469 C163.663477,69.0605469 164.468652,68.4711914 164.468652,67.3920898 C164.468652,66.3378906 163.713281,65.7236328 162.418359,65.7236328 L160.077539,65.7236328 Z M160.077539,74.2983398 L162.567773,74.2983398 C164.144922,74.2983398 164.983301,73.6508789 164.983301,72.4306641 C164.983301,71.2353516 164.12002,70.6044922 162.484766,70.6044922 L160.077539,70.6044922 L160.077539,74.2983398 Z M168.908008,76 L168.908008,66.9189453 L170.958301,66.9189453 L170.958301,76 L168.908008,76 Z M169.929004,65.4165039 C169.256641,65.4165039 168.700488,64.8686523 168.700488,64.1796875 C168.700488,63.4907227 169.256641,62.9345703 169.929004,62.9345703 C170.609668,62.9345703 171.15752,63.4907227 171.15752,64.1796875 C171.15752,64.8686523 170.609668,65.4165039 169.929004,65.4165039 Z M173.762402,64.6943359 L175.812695,64.6943359 L175.812695,66.9770508 L177.755078,66.9770508 L177.755078,68.6206055 L175.812695,68.6206055 L175.812695,73.078125 C175.812695,73.9746094 176.194531,74.3730469 177.057813,74.3730469 C177.34834,74.3730469 177.506055,74.3564453 177.755078,74.331543 L177.755078,75.9418945 C177.45625,76 177.074414,76.0415039 176.675977,76.0415039 C174.59248,76.0415039 173.762402,75.3359375 173.762402,73.5761719 L173.762402,68.6206055 L172.326367,68.6206055 L172.326367,66.9770508 L173.762402,66.9770508 L173.762402,64.6943359 Z M187.174902,69.9736328 L185.215918,69.9736328 C185.025,69.09375 184.344336,68.4628906 183.21543,68.4628906 C181.804297,68.4628906 180.965918,69.550293 180.965918,71.4345703 C180.965918,73.34375 181.812598,74.4560547 183.21543,74.4560547 C184.28623,74.4560547 185.000098,73.949707 185.215918,73.003418 L187.174902,73.003418 C186.950781,74.9042969 185.523047,76.1826172 183.22373,76.1826172 C180.492773,76.1826172 178.882422,74.4228516 178.882422,71.4345703 C178.882422,68.487793 180.484473,66.7363281 183.21543,66.7363281 C185.547949,66.7363281 186.959082,68.0644531 187.174902,69.9736328 Z M192.660156,76.1826172 C189.9375,76.1826172 188.293945,74.40625 188.293945,71.4594727 C188.293945,68.5292969 189.962402,66.7363281 192.660156,66.7363281 C195.366211,66.7363281 197.026367,68.5209961 197.026367,71.4594727 C197.026367,74.40625 195.374512,76.1826172 192.660156,76.1826172 Z M192.660156,74.4560547 C194.096191,74.4560547 194.909668,73.3603516 194.909668,71.4594727 C194.909668,69.5668945 194.087891,68.4628906 192.660156,68.4628906 C191.224121,68.4628906 190.402344,69.5668945 190.402344,71.4594727 C190.402344,73.3603516 191.224121,74.4560547 192.660156,74.4560547 Z M198.726465,76 L198.726465,66.9189453 L200.776758,66.9189453 L200.776758,76 L198.726465,76 Z M199.747461,65.4165039 C199.075098,65.4165039 198.518945,64.8686523 198.518945,64.1796875 C198.518945,63.4907227 199.075098,62.9345703 199.747461,62.9345703 C200.428125,62.9345703 200.975977,63.4907227 200.975977,64.1796875 C200.975977,64.8686523 200.428125,65.4165039 199.747461,65.4165039 Z M202.925098,76 L202.925098,66.9189453 L204.908984,66.9189453 L204.908984,68.371582 L205.050098,68.371582 C205.481738,67.3588867 206.394824,66.7363281 207.747852,66.7363281 C209.773242,66.7363281 210.877246,67.956543 210.877246,70.1230469 L210.877246,76 L208.818652,76 L208.818652,70.612793 C208.818652,69.2265625 208.237598,68.5292969 206.98418,68.5292969 C205.755664,68.5292969 204.983691,69.3759766 204.983691,70.7124023 L204.983691,76 L202.925098,76 Z M219.399023,64.0219727 L219.399023,71.675293 C219.399023,73.2939453 220.403418,74.3813477 222.179785,74.3813477 C223.956152,74.3813477 224.960547,73.2939453 224.960547,71.675293 L224.960547,64.0219727 L227.102148,64.0219727 L227.102148,71.8745117 C227.102148,74.4892578 225.20957,76.2988281 222.179785,76.2988281 C219.15,76.2988281 217.257422,74.4892578 217.257422,71.8745117 L217.257422,64.0219727 L219.399023,64.0219727 Z M229.433105,76 L229.433105,66.9189453 L231.416992,66.9189453 L231.416992,68.371582 L231.558105,68.371582 C231.989746,67.3588867 232.902832,66.7363281 234.255859,66.7363281 C236.28125,66.7363281 237.385254,67.956543 237.385254,70.1230469 L237.385254,76 L235.32666,76 L235.32666,70.612793 C235.32666,69.2265625 234.745605,68.5292969 233.492187,68.5292969 C232.263672,68.5292969 231.491699,69.3759766 231.491699,70.7124023 L231.491699,76 L229.433105,76 Z M239.450586,76 L239.450586,66.9189453 L241.500879,66.9189453 L241.500879,76 L239.450586,76 Z M240.471582,65.4165039 C239.799219,65.4165039 239.243066,64.8686523 239.243066,64.1796875 C239.243066,63.4907227 239.799219,62.9345703 240.471582,62.9345703 C241.152246,62.9345703 241.700098,63.4907227 241.700098,64.1796875 C241.700098,64.8686523 241.152246,65.4165039 240.471582,65.4165039 Z M244.30498,64.6943359 L246.355273,64.6943359 L246.355273,66.9770508 L248.297656,66.9770508 L248.297656,68.6206055 L246.355273,68.6206055 L246.355273,73.078125 C246.355273,73.9746094 246.737109,74.3730469 247.600391,74.3730469 C247.890918,74.3730469 248.048633,74.3564453 248.297656,74.331543 L248.297656,75.9418945 C247.998828,76 247.616992,76.0415039 247.218555,76.0415039 C245.135059,76.0415039 244.30498,75.3359375 244.30498,73.5761719 L244.30498,68.6206055 L242.868945,68.6206055 L242.868945,66.9770508 L244.30498,66.9770508 L244.30498,64.6943359 Z M249.632519,69.5170898 C249.632519,67.8735352 251.12666,66.7363281 253.268262,66.7363281 C255.426465,66.7363281 256.779492,67.690918 256.928906,69.3427734 L254.994824,69.3427734 C254.84541,68.7036133 254.239453,68.296875 253.276562,68.296875 C252.338574,68.296875 251.633008,68.7451172 251.633008,69.4008789 C251.633008,69.9155273 252.064648,70.230957 252.977734,70.4384766 L254.579785,70.8037109 C256.314648,71.1938477 257.119824,71.940918 257.119824,73.2773438 C257.119824,75.0205078 255.517773,76.1826172 253.25166,76.1826172 C250.985547,76.1826172 249.557812,75.203125 249.400098,73.5512695 L251.433789,73.5512695 C251.633008,74.2236328 252.272168,74.6220703 253.301465,74.6220703 C254.339062,74.6220703 255.06123,74.1655273 255.06123,73.4931641 C255.06123,72.9785156 254.671094,72.6547852 253.807812,72.4638672 L252.197461,72.090332 C250.454297,71.6918945 249.632519,70.8867188 249.632519,69.5170898 Z" id="BitcoinUnits" fill="#262C37" fill-rule="nonzero"></path>
            <path d="M27.5654297,145 L22.6171875,145 L22.6171875,132.317383 L27.46875,132.317383 C29.7978516,132.317383 31.2216797,133.539062 31.2216797,135.481445 C31.2216797,136.799805 30.2548828,137.995117 29.0332031,138.214844 L29.0332031,138.355469 C30.7646484,138.575195 31.8632812,139.761719 31.8632812,141.44043 C31.8632812,143.672852 30.2636719,145 27.5654297,145 Z M24.1992188,133.714844 L24.1992188,137.78418 L26.7304688,137.78418 C28.6464844,137.78418 29.6220703,137.098633 29.6220703,135.753906 C29.6220703,134.461914 28.7080078,133.714844 27.1347656,133.714844 L24.1992188,133.714844 Z M24.1992188,143.602539 L27.328125,143.602539 C29.2353516,143.602539 30.2373047,142.829102 30.2373047,141.361328 C30.2373047,139.893555 29.2001953,139.146484 27.1787109,139.146484 L24.1992188,139.146484 L24.1992188,143.602539 Z M33.8655331,145 L33.8655331,135.525391 L35.3772518,135.525391 L35.3772518,145 L33.8655331,145 Z M34.6213925,133.697266 C34.0413143,133.697266 33.566705,133.222656 33.566705,132.642578 C33.566705,132.0625 34.0413143,131.587891 34.6213925,131.587891 C35.2014706,131.587891 35.67608,132.0625 35.67608,132.642578 C35.67608,133.222656 35.2014706,133.697266 34.6213925,133.697266 Z M38.4693474,133.073242 L39.9810662,133.073242 L39.9810662,135.525391 L42.0904412,135.525391 L42.0904412,136.791016 L39.9810662,136.791016 L39.9810662,142.152344 C39.9810662,143.268555 40.4029412,143.743164 41.3873162,143.743164 C41.6597771,143.743164 41.8091912,143.734375 42.0904412,143.708008 L42.0904412,144.982422 C41.791613,145.035156 41.501574,145.070312 41.2027459,145.070312 C39.251574,145.070312 38.4693474,144.349609 38.4693474,142.539062 L38.4693474,136.791016 L36.9400505,136.791016 L36.9400505,135.525391 L38.4693474,135.525391 L38.4693474,133.073242 Z M51.6600758,138.425781 L50.1307789,138.425781 C49.8846852,137.485352 49.0497243,136.720703 47.6874196,136.720703 C45.9823414,136.720703 44.9100758,138.083008 44.9100758,140.227539 C44.9100758,142.416016 45.9999196,143.804688 47.6874196,143.804688 C48.9618336,143.804688 49.8495289,143.21582 50.1307789,142.143555 L51.6600758,142.143555 C51.3876149,143.883789 49.9725758,145.166992 47.6962086,145.166992 C45.0419118,145.166992 43.3456227,143.242188 43.3456227,140.227539 C43.3456227,137.274414 45.0331227,135.358398 47.6874196,135.358398 C49.9901539,135.358398 51.3964039,136.738281 51.6600758,138.425781 Z M57.362523,145.166992 C54.6642808,145.166992 52.9943589,143.303711 52.9943589,140.262695 C52.9943589,137.212891 54.6642808,135.358398 57.362523,135.358398 C60.0607651,135.358398 61.730687,137.212891 61.730687,140.262695 C61.730687,143.303711 60.0607651,145.166992 57.362523,145.166992 Z M57.362523,143.804688 C59.1554917,143.804688 60.1662339,142.503906 60.1662339,140.262695 C60.1662339,138.012695 59.1554917,136.720703 57.362523,136.720703 C55.5695542,136.720703 54.558812,138.012695 54.558812,140.262695 C54.558812,142.503906 55.5695542,143.804688 57.362523,143.804688 Z M63.7153607,145 L63.7153607,135.525391 L65.2270795,135.525391 L65.2270795,145 L63.7153607,145 Z M64.4712201,133.697266 C63.891142,133.697266 63.4165326,133.222656 63.4165326,132.642578 C63.4165326,132.0625 63.891142,131.587891 64.4712201,131.587891 C65.0512982,131.587891 65.5259076,132.0625 65.5259076,132.642578 C65.5259076,133.222656 65.0512982,133.697266 64.4712201,133.697266 Z M67.6863626,145 L67.6863626,135.525391 L69.1277688,135.525391 L69.1277688,137.019531 L69.2683938,137.019531 C69.7430032,135.973633 70.6658548,135.358398 72.1160501,135.358398 C74.2430032,135.358398 75.4295266,136.615234 75.4295266,138.865234 L75.4295266,145 L73.9178079,145 L73.9178079,139.234375 C73.9178079,137.529297 73.1971048,136.720703 71.685386,136.720703 C70.1736673,136.720703 69.1980813,137.731445 69.1980813,139.392578 L69.1980813,145 L67.6863626,145 Z M83.1254365,139.726562 C83.1254365,136.5625 83.9340303,133.996094 85.6215303,131.763672 L86.9047334,131.763672 C85.6566865,133.363281 84.6811006,136.755859 84.6811006,139.726562 C84.6811006,142.714844 85.6478975,146.098633 86.9047334,147.698242 L85.6215303,147.698242 C83.9340303,145.46582 83.1254365,142.899414 83.1254365,139.726562 Z M94.0134306,145 L89.0651884,145 L89.0651884,132.317383 L93.9167509,132.317383 C96.2458524,132.317383 97.6696806,133.539062 97.6696806,135.481445 C97.6696806,136.799805 96.7028837,137.995117 95.481204,138.214844 L95.481204,138.355469 C97.2126493,138.575195 98.3112821,139.761719 98.3112821,141.44043 C98.3112821,143.672852 96.7116728,145 94.0134306,145 Z M90.6472196,133.714844 L90.6472196,137.78418 L93.1784696,137.78418 C95.0944853,137.78418 96.0700712,137.098633 96.0700712,135.753906 C96.0700712,134.461914 95.1560087,133.714844 93.5827665,133.714844 L90.6472196,133.714844 Z M90.6472196,143.602539 L93.7761259,143.602539 C95.6833524,143.602539 96.6853056,142.829102 96.6853056,141.361328 C96.6853056,139.893555 95.6481962,139.146484 93.6267118,139.146484 L90.6472196,139.146484 L90.6472196,143.602539 Z M105.349667,145 L103.767636,145 L103.767636,133.741211 L99.6807215,133.741211 L99.6807215,132.317383 L109.436581,132.317383 L109.436581,133.741211 L105.349667,133.741211 L105.349667,145 Z M116.035512,145.298828 C112.5902,145.298828 110.43688,142.75 110.43688,138.663086 C110.43688,134.567383 112.581411,132.018555 116.026723,132.018555 C118.698598,132.018555 120.781606,133.697266 121.159536,136.140625 L119.551137,136.140625 C119.129262,134.505859 117.775747,133.477539 116.026723,133.477539 C113.592153,133.477539 112.062856,135.481445 112.062856,138.663086 C112.062856,141.844727 113.592153,143.839844 116.035512,143.839844 C117.802114,143.839844 119.14684,142.93457 119.551137,141.466797 L121.159536,141.466797 C120.737661,143.795898 118.733755,145.298828 116.035512,145.298828 Z M126.51921,139.735352 C126.51921,142.899414 125.710616,145.46582 124.023116,147.698242 L122.739913,147.698242 C123.98796,146.098633 124.963545,142.706055 124.963545,139.735352 C124.963545,136.74707 123.996749,133.363281 122.739913,131.763672 L124.023116,131.763672 C125.710616,133.996094 126.51921,136.5625 126.51921,139.735352 Z" id="Bitcoin(BTC)" fill="#262C37" fill-rule="nonzero"></path>
            <path d="M27.5654297,190.5 L22.6171875,190.5 L22.6171875,177.817383 L27.46875,177.817383 C29.7978516,177.817383 31.2216797,179.039062 31.2216797,180.981445 C31.2216797,182.299805 30.2548828,183.495117 29.0332031,183.714844 L29.0332031,183.855469 C30.7646484,184.075195 31.8632812,185.261719 31.8632812,186.94043 C31.8632812,189.172852 30.2636719,190.5 27.5654297,190.5 Z M24.1992188,179.214844 L24.1992188,183.28418 L26.7304688,183.28418 C28.6464844,183.28418 29.6220703,182.598633 29.6220703,181.253906 C29.6220703,179.961914 28.7080078,179.214844 27.1347656,179.214844 L24.1992188,179.214844 Z M24.1992188,189.102539 L27.328125,189.102539 C29.2353516,189.102539 30.2373047,188.329102 30.2373047,186.861328 C30.2373047,185.393555 29.2001953,184.646484 27.1787109,184.646484 L24.1992188,184.646484 L24.1992188,189.102539 Z M33.8655331,190.5 L33.8655331,181.025391 L35.3772518,181.025391 L35.3772518,190.5 L33.8655331,190.5 Z M34.6213925,179.197266 C34.0413143,179.197266 33.566705,178.722656 33.566705,178.142578 C33.566705,177.5625 34.0413143,177.087891 34.6213925,177.087891 C35.2014706,177.087891 35.67608,177.5625 35.67608,178.142578 C35.67608,178.722656 35.2014706,179.197266 34.6213925,179.197266 Z M38.4693474,178.573242 L39.9810662,178.573242 L39.9810662,181.025391 L42.0904412,181.025391 L42.0904412,182.291016 L39.9810662,182.291016 L39.9810662,187.652344 C39.9810662,188.768555 40.4029412,189.243164 41.3873162,189.243164 C41.6597771,189.243164 41.8091912,189.234375 42.0904412,189.208008 L42.0904412,190.482422 C41.791613,190.535156 41.501574,190.570312 41.2027459,190.570312 C39.251574,190.570312 38.4693474,189.849609 38.4693474,188.039062 L38.4693474,182.291016 L36.9400505,182.291016 L36.9400505,181.025391 L38.4693474,181.025391 L38.4693474,178.573242 Z M49.3117417,185.226562 C49.3117417,182.0625 50.1203355,179.496094 51.8078355,177.263672 L53.0910386,177.263672 C51.8429917,178.863281 50.8674058,182.255859 50.8674058,185.226562 C50.8674058,188.214844 51.8342026,191.598633 53.0910386,193.198242 L51.8078355,193.198242 C50.1203355,190.96582 49.3117417,188.399414 49.3117417,185.226562 Z M55.0581342,193.664062 L55.0581342,181.025391 L56.5698529,181.025391 L56.5698529,186.773438 C56.5698529,188.469727 57.290556,189.287109 58.7143842,189.287109 C60.234892,189.287109 61.2104779,188.276367 61.2104779,186.632812 L61.2104779,181.025391 L62.7221967,181.025391 L62.7221967,188.135742 C62.7221967,189.005859 62.9595014,189.260742 63.6011029,189.260742 C63.7417279,189.260742 63.8735639,189.251953 64.031767,189.225586 L64.031767,190.5 C63.8032514,190.561523 63.6274701,190.587891 63.3110639,190.587891 C62.0102826,190.587891 61.4829389,190.201172 61.2983685,189.111328 L61.2807904,189.005859 L61.1401654,189.005859 C60.6479779,190.104492 59.9184857,190.666992 58.6440717,190.666992 C57.7387982,190.666992 57.0620404,190.289062 56.7104779,189.533203 L56.5698529,189.533203 L56.5698529,193.664062 L55.0581342,193.664062 Z M70.8328469,190.5 L65.8846048,190.5 L65.8846048,177.817383 L70.7361673,177.817383 C73.0652688,177.817383 74.4890969,179.039062 74.4890969,180.981445 C74.4890969,182.299805 73.5223001,183.495117 72.3006204,183.714844 L72.3006204,183.855469 C74.0320657,184.075195 75.1306985,185.261719 75.1306985,186.94043 C75.1306985,189.172852 73.5310891,190.5 70.8328469,190.5 Z M67.466636,179.214844 L67.466636,183.28418 L69.997886,183.28418 C71.9139016,183.28418 72.8894876,182.598633 72.8894876,181.253906 C72.8894876,179.961914 71.9754251,179.214844 70.4021829,179.214844 L67.466636,179.214844 Z M67.466636,189.102539 L70.5955423,189.102539 C72.5027688,189.102539 73.5047219,188.329102 73.5047219,186.861328 C73.5047219,185.393555 72.4676126,184.646484 70.4461282,184.646484 L67.466636,184.646484 L67.466636,189.102539 Z M82.1690831,190.5 L80.5870519,190.5 L80.5870519,179.241211 L76.5001378,179.241211 L76.5001378,177.817383 L86.2559972,177.817383 L86.2559972,179.241211 L82.1690831,179.241211 L82.1690831,190.5 Z M92.8549287,190.798828 C89.4096162,190.798828 87.2562959,188.25 87.2562959,184.163086 C87.2562959,180.067383 89.4008272,177.518555 92.8461397,177.518555 C95.5180147,177.518555 97.6010225,179.197266 97.9789522,181.640625 L96.3705537,181.640625 C95.9486787,180.005859 94.5951631,178.977539 92.8461397,178.977539 C90.4115694,178.977539 88.8822725,180.981445 88.8822725,184.163086 C88.8822725,187.344727 90.4115694,189.339844 92.8549287,189.339844 C94.6215303,189.339844 95.9662569,188.43457 96.3705537,186.966797 L97.9789522,186.966797 C97.5570772,189.295898 95.5531709,190.798828 92.8549287,190.798828 Z M103.338626,185.235352 C103.338626,188.399414 102.530032,190.96582 100.842532,193.198242 L99.559329,193.198242 C100.807376,191.598633 101.782962,188.206055 101.782962,185.235352 C101.782962,182.24707 100.816165,178.863281 99.559329,177.263672 L100.842532,177.263672 C102.530032,179.496094 103.338626,182.0625 103.338626,185.235352 Z" id="Bit(μBTC)" fill="#262C37" fill-rule="nonzero"></path>
            <path d="M35.1152344,236 L33.6386719,236 L33.6386719,226.314453 L33.5332031,226.314453 L29.5341797,236 L28.1982422,236 L24.1992188,226.314453 L24.09375,226.314453 L24.09375,236 L22.6171875,236 L22.6171875,223.317383 L24.4541016,223.317383 L28.7958984,233.899414 L28.9365234,233.899414 L33.2783203,223.317383 L35.1152344,223.317383 L35.1152344,236 Z M37.7678768,236 L37.7678768,226.525391 L39.2795956,226.525391 L39.2795956,236 L37.7678768,236 Z M38.5237362,224.697266 C37.9436581,224.697266 37.4690487,224.222656 37.4690487,223.642578 C37.4690487,223.0625 37.9436581,222.587891 38.5237362,222.587891 C39.1038143,222.587891 39.5784237,223.0625 39.5784237,223.642578 C39.5784237,224.222656 39.1038143,224.697266 38.5237362,224.697266 Z M41.8267693,236 L41.8267693,222.763672 L43.338488,222.763672 L43.338488,236 L41.8267693,236 Z M45.9383961,236 L45.9383961,222.763672 L47.4501149,222.763672 L47.4501149,236 L45.9383961,236 Z M49.9972886,236 L49.9972886,226.525391 L51.5090073,226.525391 L51.5090073,236 L49.9972886,236 Z M50.753148,224.697266 C50.1730698,224.697266 49.6984605,224.222656 49.6984605,223.642578 C49.6984605,223.0625 50.1730698,222.587891 50.753148,222.587891 C51.3332261,222.587891 51.8078355,223.0625 51.8078355,223.642578 C51.8078355,224.222656 51.3332261,224.697266 50.753148,224.697266 Z M58.6792279,236.166992 C57.3608685,236.166992 56.2358685,235.542969 55.6382123,234.488281 L55.4975873,234.488281 L55.4975873,236 L54.056181,236 L54.056181,222.763672 L55.5678998,222.763672 L55.5678998,228.019531 L55.7085248,228.019531 C56.2270795,227 57.3784467,226.358398 58.6792279,226.358398 C61.087431,226.358398 62.6518842,228.283203 62.6518842,231.262695 C62.6518842,234.224609 61.078642,236.166992 58.6792279,236.166992 Z M58.3276654,227.720703 C56.6050092,227.720703 55.5327435,229.074219 55.5327435,231.262695 C55.5327435,233.451172 56.6050092,234.804688 58.3276654,234.804688 C60.0591107,234.804688 61.087431,233.477539 61.087431,231.262695 C61.087431,229.047852 60.0591107,227.720703 58.3276654,227.720703 Z M64.6365579,236 L64.6365579,226.525391 L66.1482766,226.525391 L66.1482766,236 L64.6365579,236 Z M65.3924173,224.697266 C64.8123391,224.697266 64.3377298,224.222656 64.3377298,223.642578 C64.3377298,223.0625 64.8123391,222.587891 65.3924173,222.587891 C65.9724954,222.587891 66.4471048,223.0625 66.4471048,223.642578 C66.4471048,224.222656 65.9724954,224.697266 65.3924173,224.697266 Z M69.2403722,224.073242 L70.752091,224.073242 L70.752091,226.525391 L72.861466,226.525391 L72.861466,227.791016 L70.752091,227.791016 L70.752091,233.152344 C70.752091,234.268555 71.173966,234.743164 72.158341,234.743164 C72.4308019,234.743164 72.580216,234.734375 72.861466,234.708008 L72.861466,235.982422 C72.5626378,236.035156 72.2725988,236.070312 71.9737706,236.070312 C70.0225988,236.070312 69.2403722,235.349609 69.2403722,233.539062 L69.2403722,227.791016 L67.7110753,227.791016 L67.7110753,226.525391 L69.2403722,226.525391 L69.2403722,224.073242 Z M80.0827665,230.726562 C80.0827665,227.5625 80.8913603,224.996094 82.5788603,222.763672 L83.8620634,222.763672 C82.6140165,224.363281 81.6384306,227.755859 81.6384306,230.726562 C81.6384306,233.714844 82.6052274,237.098633 83.8620634,238.698242 L82.5788603,238.698242 C80.8913603,236.46582 80.0827665,233.899414 80.0827665,230.726562 Z M85.829159,236 L85.829159,226.525391 L87.2705652,226.525391 L87.2705652,228.019531 L87.4111902,228.019531 C87.8418543,226.964844 88.791073,226.358398 90.056698,226.358398 C91.3399011,226.358398 92.2363855,227.035156 92.6758386,228.019531 L92.8164636,228.019531 C93.3262293,227.017578 94.407284,226.358398 95.7168543,226.358398 C97.650448,226.358398 98.7315027,227.46582 98.7315027,229.452148 L98.7315027,236 L97.219784,236 L97.219784,229.803711 C97.219784,228.40625 96.5606043,227.720703 95.2246668,227.720703 C93.9063074,227.720703 93.0274011,228.705078 93.0274011,229.90918 L93.0274011,236 L91.5156824,236 L91.5156824,229.566406 C91.5156824,228.441406 90.7334558,227.720703 89.5381433,227.720703 C88.2988855,227.720703 87.3408777,228.792969 87.3408777,230.128906 L87.3408777,236 L85.829159,236 Z M106.20934,236 L101.261098,236 L101.261098,223.317383 L106.112661,223.317383 C108.441762,223.317383 109.86559,224.539062 109.86559,226.481445 C109.86559,227.799805 108.898794,228.995117 107.677114,229.214844 L107.677114,229.355469 C109.408559,229.575195 110.507192,230.761719 110.507192,232.44043 C110.507192,234.672852 108.907583,236 106.20934,236 Z M102.84313,224.714844 L102.84313,228.78418 L105.37438,228.78418 C107.290395,228.78418 108.265981,228.098633 108.265981,226.753906 C108.265981,225.461914 107.351919,224.714844 105.778676,224.714844 L102.84313,224.714844 Z M102.84313,234.602539 L105.972036,234.602539 C107.879262,234.602539 108.881215,233.829102 108.881215,232.361328 C108.881215,230.893555 107.844106,230.146484 105.822622,230.146484 L102.84313,230.146484 L102.84313,234.602539 Z M117.545577,236 L115.963545,236 L115.963545,224.741211 L111.876631,224.741211 L111.876631,223.317383 L121.632491,223.317383 L121.632491,224.741211 L117.545577,224.741211 L117.545577,236 Z M128.231422,236.298828 C124.78611,236.298828 122.632789,233.75 122.632789,229.663086 C122.632789,225.567383 124.777321,223.018555 128.222633,223.018555 C130.894508,223.018555 132.977516,224.697266 133.355446,227.140625 L131.747047,227.140625 C131.325172,225.505859 129.971657,224.477539 128.222633,224.477539 C125.788063,224.477539 124.258766,226.481445 124.258766,229.663086 C124.258766,232.844727 125.788063,234.839844 128.231422,234.839844 C129.998024,234.839844 131.34275,233.93457 131.747047,232.466797 L133.355446,232.466797 C132.933571,234.795898 130.929664,236.298828 128.231422,236.298828 Z M138.715119,230.735352 C138.715119,233.899414 137.906526,236.46582 136.219026,238.698242 L134.935823,238.698242 C136.183869,237.098633 137.159455,233.706055 137.159455,230.735352 C137.159455,227.74707 136.192658,224.363281 134.935823,222.763672 L136.219026,222.763672 C137.906526,224.996094 138.715119,227.5625 138.715119,230.735352 Z" id="Millibit(mBTC)" fill="#262C37" fill-rule="nonzero"></path>
            <path d="M22.0107422,278.186523 L23.6103516,278.186523 C23.8037109,279.513672 25.0693359,280.357422 26.8710938,280.357422 C28.5761719,280.357422 29.8330078,279.43457 29.8330078,278.177734 C29.8330078,277.09668 29.0419922,276.411133 27.2929688,275.97168 L25.6669922,275.549805 C23.3730469,274.969727 22.3798828,273.932617 22.3798828,272.130859 C22.3798828,269.977539 24.1816406,268.518555 26.8623047,268.518555 C29.3144531,268.518555 31.1425781,269.977539 31.2744141,272.025391 L29.6835938,272.025391 C29.4638672,270.724609 28.3916016,269.951172 26.8095703,269.951172 C25.1220703,269.951172 24.0058594,270.794922 24.0058594,272.078125 C24.0058594,273.071289 24.7001953,273.642578 26.4492188,274.09082 L27.7763672,274.442383 C30.4042969,275.101562 31.4589844,276.121094 31.4589844,277.984375 C31.4589844,280.313477 29.6220703,281.798828 26.7216797,281.798828 C24.0322266,281.798828 22.1777344,280.375 22.0107422,278.186523 Z M36.387994,280.339844 C37.9436581,280.339844 39.0950253,279.320312 39.0950253,277.966797 L39.0950253,277.09668 L36.5461971,277.263672 C35.1047909,277.360352 34.4719784,277.861328 34.4719784,278.810547 C34.4719784,279.777344 35.2893612,280.339844 36.387994,280.339844 Z M36.106744,281.666992 C34.26983,281.666992 32.9075253,280.577148 32.9075253,278.845703 C32.9075253,277.149414 34.1555721,276.173828 36.3616268,276.041992 L39.0950253,275.875 L39.0950253,275.013672 C39.0950253,273.844727 38.3655331,273.203125 36.950494,273.203125 C35.816705,273.203125 35.0256893,273.633789 34.8147518,274.380859 L33.285455,274.380859 C33.4876034,272.860352 34.981744,271.858398 37.0032284,271.858398 C39.3147518,271.858398 40.606744,273.044922 40.606744,275.013672 L40.606744,281.5 L39.1653378,281.5 L39.1653378,280.102539 L39.0247128,280.102539 C38.4094784,281.113281 37.372369,281.666992 36.106744,281.666992 Z M43.610949,269.573242 L45.1226677,269.573242 L45.1226677,272.025391 L47.2320427,272.025391 L47.2320427,273.291016 L45.1226677,273.291016 L45.1226677,278.652344 C45.1226677,279.768555 45.5445427,280.243164 46.5289177,280.243164 C46.8013787,280.243164 46.9507927,280.234375 47.2320427,280.208008 L47.2320427,281.482422 C46.9332146,281.535156 46.6431755,281.570312 46.3443474,281.570312 C44.3931755,281.570312 43.610949,280.849609 43.610949,279.039062 L43.610949,273.291016 L42.0816521,273.291016 L42.0816521,272.025391 L43.610949,272.025391 L43.610949,269.573242 Z M52.8553883,281.666992 C50.1571461,281.666992 48.4872243,279.803711 48.4872243,276.762695 C48.4872243,273.712891 50.1571461,271.858398 52.8553883,271.858398 C55.5536305,271.858398 57.2235524,273.712891 57.2235524,276.762695 C57.2235524,279.803711 55.5536305,281.666992 52.8553883,281.666992 Z M52.8553883,280.304688 C54.6483571,280.304688 55.6590993,279.003906 55.6590993,276.762695 C55.6590993,274.512695 54.6483571,273.220703 52.8553883,273.220703 C51.0624196,273.220703 50.0516774,274.512695 50.0516774,276.762695 C50.0516774,279.003906 51.0624196,280.304688 52.8553883,280.304688 Z M58.9533433,274.618164 C58.9533433,273.044922 60.4738511,271.858398 62.4865464,271.858398 C64.4728745,271.858398 65.8527573,272.842773 66.0549058,274.398438 L64.5607651,274.398438 C64.3586167,273.642578 63.6203355,273.141602 62.4777573,273.141602 C61.3527573,273.141602 60.4738511,273.712891 60.4738511,274.556641 C60.4738511,275.207031 61.0011948,275.611328 62.1174058,275.883789 L63.5763901,276.235352 C65.3605698,276.666016 66.221898,277.439453 66.221898,278.801758 C66.221898,280.498047 64.5783433,281.666992 62.425023,281.666992 C60.315648,281.666992 58.8654526,280.65625 58.6984605,279.083008 L60.2541245,279.083008 C60.5090073,279.882812 61.2648667,280.392578 62.4777573,280.392578 C63.7521714,280.392578 64.6662339,279.786133 64.6662339,278.916016 C64.6662339,278.265625 64.1740464,277.826172 63.1633042,277.580078 L61.5373276,277.18457 C59.761937,276.753906 58.9533433,275.989258 58.9533433,274.618164 Z M68.259306,281.5 L68.259306,268.263672 L69.7710248,268.263672 L69.7710248,273.519531 L69.9116498,273.519531 C70.3862592,272.473633 71.3794232,271.858398 72.8296185,271.858398 C74.8335248,271.858398 76.0991498,273.141602 76.0991498,275.365234 L76.0991498,281.5 L74.587431,281.5 L74.587431,275.734375 C74.587431,274.055664 73.8315717,273.220703 72.3989545,273.220703 C70.7026654,273.220703 69.7710248,274.292969 69.7710248,275.892578 L69.7710248,281.5 L68.259306,281.5 Z M78.4705423,281.5 L78.4705423,272.025391 L79.982261,272.025391 L79.982261,281.5 L78.4705423,281.5 Z M79.2264016,270.197266 C78.6463235,270.197266 78.1717141,269.722656 78.1717141,269.142578 C78.1717141,268.5625 78.6463235,268.087891 79.2264016,268.087891 C79.8064798,268.087891 80.2810891,268.5625 80.2810891,269.142578 C80.2810891,269.722656 79.8064798,270.197266 79.2264016,270.197266 Z M87.8012178,276.226562 C87.8012178,273.0625 88.6098115,270.496094 90.2973115,268.263672 L91.5805147,268.263672 C90.3324678,269.863281 89.3568819,273.255859 89.3568819,276.226562 C89.3568819,279.214844 90.3236787,282.598633 91.5805147,284.198242 L90.2973115,284.198242 C88.6098115,281.96582 87.8012178,279.399414 87.8012178,276.226562 Z M93.1345243,278.186523 L94.7341337,278.186523 C94.9274931,279.513672 96.1931181,280.357422 97.9948759,280.357422 C99.699954,280.357422 100.95679,279.43457 100.95679,278.177734 C100.95679,277.09668 100.165774,276.411133 98.4167509,275.97168 L96.7907743,275.549805 C94.496829,274.969727 93.5036649,273.932617 93.5036649,272.130859 C93.5036649,269.977539 95.3054228,268.518555 97.9860868,268.518555 C100.438235,268.518555 102.26636,269.977539 102.398196,272.025391 L100.807376,272.025391 C100.587649,270.724609 99.5153837,269.951172 97.9333524,269.951172 C96.2458524,269.951172 95.1296415,270.794922 95.1296415,272.078125 C95.1296415,273.071289 95.8239774,273.642578 97.5730009,274.09082 L98.9001493,274.442383 C101.528079,275.101562 102.582767,276.121094 102.582767,277.984375 C102.582767,280.313477 100.745852,281.798828 97.8454618,281.798828 C95.1560087,281.798828 93.3015165,280.375 93.1345243,278.186523 Z M113.031307,281.5 L111.756893,277.870117 L106.711971,277.870117 L105.437557,281.5 L103.776425,281.5 L108.452206,268.817383 L110.016659,268.817383 L114.69244,281.5 L113.031307,281.5 Z M109.16412,270.865234 L107.177792,276.525391 L111.291073,276.525391 L109.304745,270.865234 L109.16412,270.865234 Z M119.876333,281.5 L118.294301,281.5 L118.294301,270.241211 L114.207387,270.241211 L114.207387,268.817383 L123.963247,268.817383 L123.963247,270.241211 L119.876333,270.241211 L119.876333,281.5 Z M129.111983,276.235352 C129.111983,279.399414 128.303389,281.96582 126.615889,284.198242 L125.332686,284.198242 C126.580733,282.598633 127.556319,279.206055 127.556319,276.235352 C127.556319,273.24707 126.589522,269.863281 125.332686,268.263672 L126.615889,268.263672 C128.303389,270.496094 129.111983,273.0625 129.111983,276.235352 Z" id="Satoshi(SAT)" fill="#262C37" fill-rule="nonzero"></path>
        </g>
        <g id="App-Settings-Android" transform="translate(457.000000, 2.000000)">
            <rect fill="#FFFFFF" x="0" y="0" width="414" height="385"></rect>
            <rect id="Rectangle" stroke="#CECCCC" stroke-width="1" fill="#FFFFFF" fill-rule="evenodd" x="0" y="0" width="414" height="385"></rect>
            <g id="list" stroke-width="1" fill-rule="evenodd" transform="translate(0.000000, 119.000000)">
                <g id="row" transform="translate(0.000000, 56.000000)">
                    <rect id="row-bounds" x="0" y="0" width="360" height="56"></rect>
                    <path d="M73.402832,32 L73.402832,19.9140625 L77.3540039,19.9140625 C78.6655339,19.9140625 79.6519335,20.1852186 80.3132324,20.7275391 C80.9745313,21.2698595 81.3051758,22.0722603 81.3051758,23.1347656 C81.3051758,23.6992216 81.1446956,24.1986469 80.8237305,24.6330566 C80.5027653,25.0674664 80.0655952,25.4036446 79.512207,25.6416016 C80.1652051,25.8242197 80.6812318,26.1714655 81.0603027,26.6833496 C81.4393736,27.1952337 81.6289062,27.805335 81.6289062,28.5136719 C81.6289062,29.5983127 81.27751,30.4505177 80.574707,31.0703125 C79.871904,31.6901073 78.8785871,32 77.5947266,32 L73.402832,32 Z M74.996582,26.347168 L74.996582,30.6967773 L77.6279297,30.6967773 C78.3694699,30.6967773 78.9546691,30.5044778 79.3835449,30.119873 C79.8124208,29.7352683 80.0268555,29.205407 80.0268555,28.5302734 C80.0268555,27.0748625 79.2355222,26.347168 77.652832,26.347168 L74.996582,26.347168 Z M74.996582,25.0688477 L77.4038086,25.0688477 C78.1010777,25.0688477 78.6586079,24.894533 79.076416,24.5458984 C79.4942241,24.1972639 79.703125,23.7241241 79.703125,23.1264648 C79.703125,22.462399 79.509442,21.9795751 79.1220703,21.6779785 C78.7346986,21.376382 78.145349,21.2255859 77.3540039,21.2255859 L74.996582,21.2255859 L74.996582,25.0688477 Z M85.4140625,32 L83.878418,32 L83.878418,23.0185547 L85.4140625,23.0185547 L85.4140625,32 Z M83.7539062,20.6362305 C83.7539062,20.3872058 83.829996,20.1769214 83.9821777,20.0053711 C84.1343595,19.8338208 84.3598618,19.7480469 84.6586914,19.7480469 C84.957521,19.7480469 85.1844068,19.8338208 85.3393555,20.0053711 C85.4943042,20.1769214 85.5717773,20.3872058 85.5717773,20.6362305 C85.5717773,20.8852552 85.4943042,21.0927726 85.3393555,21.2587891 C85.1844068,21.4248055 84.957521,21.5078125 84.6586914,21.5078125 C84.3598618,21.5078125 84.1343595,21.4248055 83.9821777,21.2587891 C83.829996,21.0927726 83.7539062,20.8852552 83.7539062,20.6362305 Z M89.9545898,20.84375 L89.9545898,23.0185547 L91.6313477,23.0185547 L91.6313477,24.2055664 L89.9545898,24.2055664 L89.9545898,29.7753906 C89.9545898,30.1350929 90.0292961,30.4048656 90.1787109,30.5847168 C90.3281257,30.764568 90.5826805,30.8544922 90.9423828,30.8544922 C91.119467,30.8544922 91.3629542,30.8212894 91.6728516,30.7548828 L91.6728516,32 C91.2688782,32.1106776 90.8759785,32.1660156 90.4941406,32.1660156 C89.8079393,32.1660156 89.2905291,31.9584982 88.9418945,31.543457 C88.59326,31.1284159 88.4189453,30.5390663 88.4189453,29.7753906 L88.4189453,24.2055664 L86.7836914,24.2055664 L86.7836914,23.0185547 L88.4189453,23.0185547 L88.4189453,20.84375 L89.9545898,20.84375 Z M97.574707,27.0942383 C97.574707,25.843581 97.7421044,24.6427466 98.0769043,23.4916992 C98.4117041,22.3406518 98.9111295,21.2947638 99.5751953,20.3540039 C100.239261,19.413244 100.928219,18.7491881 101.64209,18.3618164 L101.95752,19.3745117 C101.149573,19.9943065 100.4869,20.9405861 99.9694824,22.2133789 C99.4520645,23.4861717 99.1684573,24.9111249 99.1186523,26.4882812 L99.1103516,27.1938477 C99.1103516,29.329926 99.5004844,31.1837487 100.280762,32.7553711 C100.751142,33.696131 101.310055,34.4321262 101.95752,34.9633789 L101.64209,35.9013672 C100.906084,35.4918599 100.203291,34.8056689 99.5336914,33.8427734 C98.2276953,31.9612536 97.574707,29.7117644 97.574707,27.0942383 Z M105.095215,23.0185547 L105.095215,28.2729492 C105.100749,29.174972 105.246011,29.8417947 105.531006,30.2734375 C105.816001,30.7050803 106.279456,30.9208984 106.921387,30.9208984 C108.022629,30.9208984 108.74479,30.5003297 109.087891,29.6591797 L109.087891,23.0185547 L110.631836,23.0185547 L110.631836,32 L109.245605,32 L109.170898,31.0454102 C108.656247,31.7924842 107.928553,32.1660156 106.987793,32.1660156 C106.174312,32.1660156 105.543459,31.964032 105.095215,31.5600586 L105.095215,35.453125 L103.55957,35.453125 L103.55957,23.0185547 L105.095215,23.0185547 Z M113.312988,32 L113.312988,19.9140625 L117.26416,19.9140625 C118.57569,19.9140625 119.56209,20.1852186 120.223389,20.7275391 C120.884688,21.2698595 121.215332,22.0722603 121.215332,23.1347656 C121.215332,23.6992216 121.054852,24.1986469 120.733887,24.6330566 C120.412922,25.0674664 119.975751,25.4036446 119.422363,25.6416016 C120.075361,25.8242197 120.591388,26.1714655 120.970459,26.6833496 C121.34953,27.1952337 121.539062,27.805335 121.539062,28.5136719 C121.539062,29.5983127 121.187666,30.4505177 120.484863,31.0703125 C119.78206,31.6901073 118.788743,32 117.504883,32 L113.312988,32 Z M114.906738,26.347168 L114.906738,30.6967773 L117.538086,30.6967773 C118.279626,30.6967773 118.864825,30.5044778 119.293701,30.119873 C119.722577,29.7352683 119.937012,29.205407 119.937012,28.5302734 C119.937012,27.0748625 119.145678,26.347168 117.562988,26.347168 L114.906738,26.347168 Z M114.906738,25.0688477 L117.313965,25.0688477 C118.011234,25.0688477 118.568764,24.894533 118.986572,24.5458984 C119.40438,24.1972639 119.613281,23.7241241 119.613281,23.1264648 C119.613281,22.462399 119.419598,21.9795751 119.032227,21.6779785 C118.644855,21.376382 118.055505,21.2255859 117.26416,21.2255859 L114.906738,21.2255859 L114.906738,25.0688477 Z M132.022949,21.2255859 L128.138184,21.2255859 L128.138184,32 L126.552734,32 L126.552734,21.2255859 L122.67627,21.2255859 L122.67627,19.9140625 L132.022949,19.9140625 L132.022949,21.2255859 Z M142.473633,28.1650391 C142.324218,29.4433658 141.852462,30.4297654 141.05835,31.1242676 C140.264238,31.8187697 139.208665,32.1660156 137.891602,32.1660156 C136.46386,32.1660156 135.319747,31.6541392 134.459229,30.6303711 C133.59871,29.606603 133.168457,28.2369877 133.168457,26.5214844 L133.168457,25.359375 C133.168457,24.235997 133.369057,23.2482139 133.770264,22.3959961 C134.17147,21.5437783 134.740068,20.8894066 135.476074,20.4328613 C136.212081,19.9763161 137.064286,19.7480469 138.032715,19.7480469 C139.316575,19.7480469 140.345862,20.1063603 141.120605,20.822998 C141.895349,21.5396357 142.346354,22.5315692 142.473633,23.7988281 L140.871582,23.7988281 C140.733235,22.8359327 140.433026,22.138674 139.970947,21.7070312 C139.508868,21.2753885 138.862797,21.0595703 138.032715,21.0595703 C137.014481,21.0595703 136.21623,21.4358686 135.637939,22.1884766 C135.059649,22.9410845 134.770508,24.0118746 134.770508,25.4008789 L134.770508,26.5712891 C134.770508,27.8828191 135.044431,28.9259401 135.592285,29.7006836 C136.140139,30.4754271 136.906571,30.862793 137.891602,30.862793 C138.777023,30.862793 139.456296,30.6621928 139.929443,30.2609863 C140.40259,29.8597799 140.716633,29.1611378 140.871582,28.1650391 L142.473633,28.1650391 Z M147.736328,27.1772461 C147.736328,28.4113017 147.574465,29.5941512 147.250732,30.7258301 C146.927,31.8575089 146.431725,32.9020134 145.764893,33.859375 C145.09806,34.8167366 144.399418,35.4973938 143.668945,35.9013672 L143.345215,34.9633789 C144.197433,34.3103808 144.88224,33.2963122 145.399658,31.9211426 C145.917076,30.5459729 146.181315,29.0200279 146.192383,27.3432617 L146.192383,27.0776367 C146.192383,25.9155215 146.070639,24.8350473 145.827148,23.8361816 C145.583658,22.837316 145.244712,21.942224 144.810303,21.1508789 C144.375893,20.3595338 143.887535,19.7425152 143.345215,19.2998047 L143.668945,18.3618164 C144.399418,18.7657898 145.095293,19.4409132 145.756592,20.387207 C146.417891,21.3335008 146.913166,22.3766219 147.242432,23.5166016 C147.571698,24.6565812 147.736328,25.8767839 147.736328,27.1772461 Z" id="Bit(μBTC)" fill-opacity="0.87" fill="#000000" fill-rule="nonzero"></path>
                    <g id="Material/Light/Radio-button-off" transform="translate(320.000000, 16.000000)" fill="#010101" opacity="0.54">
                        <path d="M12,2 C6.5,2 2,6.5 2,12 C2,17.5 6.5,22 12,22 C17.5,22 22,17.5 22,12 C22,6.5 17.5,2 12,2 L12,2 Z M12,20 C7.6,20 4,16.4 4,12 C4,7.6 7.6,4 12,4 C16.4,4 20,7.6 20,12 C20,16.4 16.4,20 12,20 L12,20 Z" id="Shape"></path>
                    </g>
                </g>
                <g id="row" transform="translate(0.000000, 112.000000)">
                    <rect id="row-bounds" x="0" y="0" width="360" height="56"></rect>
                    <path d="M75.4614258,19.9140625 L79.4125977,29.7753906 L83.3637695,19.9140625 L85.4306641,19.9140625 L85.4306641,32 L83.8369141,32 L83.8369141,27.293457 L83.9863281,22.2133789 L80.0185547,32 L78.7983398,32 L74.8388672,22.2382812 L74.996582,27.293457 L74.996582,32 L73.402832,32 L73.402832,19.9140625 L75.4614258,19.9140625 Z M89.6723633,32 L88.1367188,32 L88.1367188,23.0185547 L89.6723633,23.0185547 L89.6723633,32 Z M88.012207,20.6362305 C88.012207,20.3872058 88.0882968,20.1769214 88.2404785,20.0053711 C88.3926603,19.8338208 88.6181626,19.7480469 88.9169922,19.7480469 C89.2158218,19.7480469 89.4427076,19.8338208 89.5976562,20.0053711 C89.7526049,20.1769214 89.8300781,20.3872058 89.8300781,20.6362305 C89.8300781,20.8852552 89.7526049,21.0927726 89.5976562,21.2587891 C89.4427076,21.4248055 89.2158218,21.5078125 88.9169922,21.5078125 C88.6181626,21.5078125 88.3926603,21.4248055 88.2404785,21.2587891 C88.0882968,21.0927726 88.012207,20.8852552 88.012207,20.6362305 Z M93.7978516,32 L92.262207,32 L92.262207,19.25 L93.7978516,19.25 L93.7978516,32 Z M97.9233398,32 L96.3876953,32 L96.3876953,19.25 L97.9233398,19.25 L97.9233398,32 Z M102.048828,32 L100.513184,32 L100.513184,23.0185547 L102.048828,23.0185547 L102.048828,32 Z M100.388672,20.6362305 C100.388672,20.3872058 100.464762,20.1769214 100.616943,20.0053711 C100.769125,19.8338208 100.994627,19.7480469 101.293457,19.7480469 C101.592287,19.7480469 101.819172,19.8338208 101.974121,20.0053711 C102.12907,20.1769214 102.206543,20.3872058 102.206543,20.6362305 C102.206543,20.8852552 102.12907,21.0927726 101.974121,21.2587891 C101.819172,21.4248055 101.592287,21.5078125 101.293457,21.5078125 C100.994627,21.5078125 100.769125,21.4248055 100.616943,21.2587891 C100.464762,21.0927726 100.388672,20.8852552 100.388672,20.6362305 Z M112.109375,27.6088867 C112.109375,28.9812894 111.793948,30.0838988 111.163086,30.916748 C110.532223,31.7495973 109.685552,32.1660156 108.623047,32.1660156 C107.488601,32.1660156 106.611494,31.7648152 105.991699,30.9624023 L105.916992,32 L104.505859,32 L104.505859,19.25 L106.041504,19.25 L106.041504,24.0063477 C106.661299,23.2371381 107.516271,22.8525391 108.606445,22.8525391 C109.69662,22.8525391 110.552975,23.2648071 111.175537,24.0893555 C111.798099,24.9139039 112.109375,26.0427988 112.109375,27.4760742 L112.109375,27.6088867 Z M110.57373,27.4345703 C110.57373,26.3886666 110.371747,25.580732 109.967773,25.0107422 C109.5638,24.4407524 108.982751,24.1557617 108.224609,24.1557617 C107.211909,24.1557617 106.484214,24.6261346 106.041504,25.5668945 L106.041504,29.4516602 C106.511884,30.3924201 107.245112,30.862793 108.241211,30.862793 C108.977217,30.862793 109.549965,30.5778023 109.959473,30.0078125 C110.36898,29.4378227 110.57373,28.5800839 110.57373,27.4345703 Z M115.711914,32 L114.17627,32 L114.17627,23.0185547 L115.711914,23.0185547 L115.711914,32 Z M114.051758,20.6362305 C114.051758,20.3872058 114.127848,20.1769214 114.280029,20.0053711 C114.432211,19.8338208 114.657713,19.7480469 114.956543,19.7480469 C115.255373,19.7480469 115.482258,19.8338208 115.637207,20.0053711 C115.792156,20.1769214 115.869629,20.3872058 115.869629,20.6362305 C115.869629,20.8852552 115.792156,21.0927726 115.637207,21.2587891 C115.482258,21.4248055 115.255373,21.5078125 114.956543,21.5078125 C114.657713,21.5078125 114.432211,21.4248055 114.280029,21.2587891 C114.127848,21.0927726 114.051758,20.8852552 114.051758,20.6362305 Z M120.252441,20.84375 L120.252441,23.0185547 L121.929199,23.0185547 L121.929199,24.2055664 L120.252441,24.2055664 L120.252441,29.7753906 C120.252441,30.1350929 120.327148,30.4048656 120.476562,30.5847168 C120.625977,30.764568 120.880532,30.8544922 121.240234,30.8544922 C121.417319,30.8544922 121.660806,30.8212894 121.970703,30.7548828 L121.970703,32 C121.56673,32.1106776 121.17383,32.1660156 120.791992,32.1660156 C120.105791,32.1660156 119.588381,31.9584982 119.239746,31.543457 C118.891112,31.1284159 118.716797,30.5390663 118.716797,29.7753906 L118.716797,24.2055664 L117.081543,24.2055664 L117.081543,23.0185547 L118.716797,23.0185547 L118.716797,20.84375 L120.252441,20.84375 Z M127.872559,27.0942383 C127.872559,25.843581 128.039956,24.6427466 128.374756,23.4916992 C128.709556,22.3406518 129.208981,21.2947638 129.873047,20.3540039 C130.537113,19.413244 131.226071,18.7491881 131.939941,18.3618164 L132.255371,19.3745117 C131.447424,19.9943065 130.784752,20.9405861 130.267334,22.2133789 C129.749916,23.4861717 129.466309,24.9111249 129.416504,26.4882812 L129.408203,27.1938477 C129.408203,29.329926 129.798336,31.1837487 130.578613,32.7553711 C131.048993,33.696131 131.607907,34.4321262 132.255371,34.9633789 L131.939941,35.9013672 C131.203935,35.4918599 130.501143,34.8056689 129.831543,33.8427734 C128.525547,31.9612536 127.872559,29.7117644 127.872559,27.0942383 Z M135.185547,23.0185547 L135.227051,24.0146484 C135.885583,23.239905 136.773757,22.8525391 137.891602,22.8525391 C139.147793,22.8525391 140.002765,23.3339796 140.456543,24.296875 C140.755373,23.8652322 141.144122,23.5166029 141.622803,23.2509766 C142.101484,22.9853502 142.667314,22.8525391 143.320312,22.8525391 C145.290374,22.8525391 146.291992,23.8956601 146.325195,25.9819336 L146.325195,32 L144.789551,32 L144.789551,26.0732422 C144.789551,25.4313119 144.642905,24.9512548 144.349609,24.6330566 C144.056314,24.3148584 143.563806,24.1557617 142.87207,24.1557617 C142.30208,24.1557617 141.828941,24.325926 141.452637,24.6662598 C141.076333,25.0065935 140.857748,25.4645154 140.796875,26.0400391 L140.796875,32 L139.25293,32 L139.25293,26.1147461 C139.25293,24.80875 138.613776,24.1557617 137.335449,24.1557617 C136.328283,24.1557617 135.639325,24.5846311 135.268555,25.4423828 L135.268555,32 L133.73291,32 L133.73291,23.0185547 L135.185547,23.0185547 Z M148.881836,32 L148.881836,19.9140625 L152.833008,19.9140625 C154.144538,19.9140625 155.130937,20.1852186 155.792236,20.7275391 C156.453535,21.2698595 156.78418,22.0722603 156.78418,23.1347656 C156.78418,23.6992216 156.6237,24.1986469 156.302734,24.6330566 C155.981769,25.0674664 155.544599,25.4036446 154.991211,25.6416016 C155.644209,25.8242197 156.160236,26.1714655 156.539307,26.6833496 C156.918378,27.1952337 157.10791,27.805335 157.10791,28.5136719 C157.10791,29.5983127 156.756514,30.4505177 156.053711,31.0703125 C155.350908,31.6901073 154.357591,32 153.07373,32 L148.881836,32 Z M150.475586,26.347168 L150.475586,30.6967773 L153.106934,30.6967773 C153.848474,30.6967773 154.433673,30.5044778 154.862549,30.119873 C155.291425,29.7352683 155.505859,29.205407 155.505859,28.5302734 C155.505859,27.0748625 154.714526,26.347168 153.131836,26.347168 L150.475586,26.347168 Z M150.475586,25.0688477 L152.882812,25.0688477 C153.580082,25.0688477 154.137612,24.894533 154.55542,24.5458984 C154.973228,24.1972639 155.182129,23.7241241 155.182129,23.1264648 C155.182129,22.462399 154.988446,21.9795751 154.601074,21.6779785 C154.213702,21.376382 153.624353,21.2255859 152.833008,21.2255859 L150.475586,21.2255859 L150.475586,25.0688477 Z M167.591797,21.2255859 L163.707031,21.2255859 L163.707031,32 L162.121582,32 L162.121582,21.2255859 L158.245117,21.2255859 L158.245117,19.9140625 L167.591797,19.9140625 L167.591797,21.2255859 Z M178.04248,28.1650391 C177.893066,29.4433658 177.421309,30.4297654 176.627197,31.1242676 C175.833085,31.8187697 174.777513,32.1660156 173.460449,32.1660156 C172.032708,32.1660156 170.888595,31.6541392 170.028076,30.6303711 C169.167558,29.606603 168.737305,28.2369877 168.737305,26.5214844 L168.737305,25.359375 C168.737305,24.235997 168.937905,23.2482139 169.339111,22.3959961 C169.740318,21.5437783 170.308916,20.8894066 171.044922,20.4328613 C171.780928,19.9763161 172.633133,19.7480469 173.601562,19.7480469 C174.885423,19.7480469 175.91471,20.1063603 176.689453,20.822998 C177.464197,21.5396357 177.915201,22.5315692 178.04248,23.7988281 L176.44043,23.7988281 C176.302083,22.8359327 176.001874,22.138674 175.539795,21.7070312 C175.077716,21.2753885 174.431645,21.0595703 173.601562,21.0595703 C172.583328,21.0595703 171.785078,21.4358686 171.206787,22.1884766 C170.628496,22.9410845 170.339355,24.0118746 170.339355,25.4008789 L170.339355,26.5712891 C170.339355,27.8828191 170.613279,28.9259401 171.161133,29.7006836 C171.708987,30.4754271 172.475418,30.862793 173.460449,30.862793 C174.34587,30.862793 175.025144,30.6621928 175.498291,30.2609863 C175.971438,29.8597799 176.285481,29.1611378 176.44043,28.1650391 L178.04248,28.1650391 Z M183.305176,27.1772461 C183.305176,28.4113017 183.143312,29.5941512 182.81958,30.7258301 C182.495848,31.8575089 182.000573,32.9020134 181.33374,33.859375 C180.666907,34.8167366 179.968265,35.4973938 179.237793,35.9013672 L178.914062,34.9633789 C179.76628,34.3103808 180.451088,33.2963122 180.968506,31.9211426 C181.485924,30.5459729 181.750163,29.0200279 181.76123,27.3432617 L181.76123,27.0776367 C181.76123,25.9155215 181.639487,24.8350473 181.395996,23.8361816 C181.152505,22.837316 180.81356,21.942224 180.37915,21.1508789 C179.944741,20.3595338 179.456383,19.7425152 178.914062,19.2998047 L179.237793,18.3618164 C179.968265,18.7657898 180.664141,19.4409132 181.325439,20.387207 C181.986738,21.3335008 182.482013,22.3766219 182.811279,23.5166016 C183.140545,24.6565812 183.305176,25.8767839 183.305176,27.1772461 Z" id="Millibit(mBTC)" fill-opacity="0.87" fill="#000000" fill-rule="nonzero"></path>
                    <g id="Material/Light/Radio-button-off" transform="translate(320.000000, 16.000000)" fill="#010101" opacity="0.54">
                        <path d="M12,2 C6.5,2 2,6.5 2,12 C2,17.5 6.5,22 12,22 C17.5,22 22,17.5 22,12 C22,6.5 17.5,2 12,2 L12,2 Z M12,20 C7.6,20 4,16.4 4,12 C4,7.6 7.6,4 12,4 C16.4,4 20,7.6 20,12 C20,16.4 16.4,20 12,20 L12,20 Z" id="Shape"></path>
                    </g>
                </g>
                <g id="row-copy" transform="translate(0.000000, 168.000000)">
                    <rect id="row-bounds" x="0" y="0" width="360" height="56"></rect>
                    <path d="M76.9638672,26.612793 C75.5969984,26.2198874 74.602298,25.7370634 73.9797363,25.1643066 C73.3571746,24.5915499 73.0458984,23.8846071 73.0458984,23.043457 C73.0458984,22.0916294 73.4263471,21.3044465 74.1872559,20.6818848 C74.9481646,20.0593231 75.9373312,19.7480469 77.1547852,19.7480469 C77.9848674,19.7480469 78.725013,19.908527 79.3752441,20.2294922 C80.0254753,20.5504573 80.5290509,20.9931612 80.8859863,21.5576172 C81.2429217,22.1220731 81.4213867,22.7390917 81.4213867,23.4086914 L79.8193359,23.4086914 C79.8193359,22.678219 79.5869164,22.1040874 79.1220703,21.6862793 C78.6572242,21.2684712 78.0014691,21.0595703 77.1547852,21.0595703 C76.3689739,21.0595703 75.7561057,21.2325015 75.3161621,21.5783691 C74.8762185,21.9242368 74.65625,22.4042938 74.65625,23.0185547 C74.65625,23.5110702 74.8651509,23.9274885 75.282959,24.2678223 C75.7007671,24.608156 76.4118602,24.9194322 77.4162598,25.2016602 C78.4206593,25.4838881 79.2064588,25.7951643 79.7736816,26.135498 C80.3409045,26.4758318 80.7614732,26.8728818 81.0354004,27.3266602 C81.3093275,27.7804385 81.4462891,28.3144501 81.4462891,28.9287109 C81.4462891,29.908208 81.0644569,30.692624 80.3007812,31.2819824 C79.5371056,31.8713408 78.5161197,32.1660156 77.237793,32.1660156 C76.4077107,32.1660156 75.6329789,32.0069189 74.9135742,31.6887207 C74.1941696,31.3705225 73.6394062,30.9347358 73.2492676,30.3813477 C72.8591289,29.8279595 72.6640625,29.1998733 72.6640625,28.4970703 L74.2661133,28.4970703 C74.2661133,29.2275427 74.535886,29.8044412 75.0754395,30.2277832 C75.6149929,30.6511252 76.3357702,30.862793 77.237793,30.862793 C78.078943,30.862793 78.7236306,30.6912452 79.171875,30.3481445 C79.6201194,30.0050439 79.8442383,29.5374379 79.8442383,28.9453125 C79.8442383,28.3531871 79.6367208,27.8952653 79.2216797,27.5715332 C78.8066385,27.2478011 78.0540419,26.9282242 76.9638672,26.612793 Z M88.7924805,32 C88.7039384,31.8229158 88.631999,31.5074892 88.5766602,31.0537109 C87.8627894,31.7952511 87.0105844,32.1660156 86.0200195,32.1660156 C85.1345984,32.1660156 84.4082873,31.9156112 83.8410645,31.4147949 C83.2738416,30.9139786 82.9902344,30.2789752 82.9902344,29.5097656 C82.9902344,28.5745396 83.3457809,27.8482285 84.0568848,27.3308105 C84.7679886,26.8133926 85.7682227,26.5546875 87.0576172,26.5546875 L88.5517578,26.5546875 L88.5517578,25.8491211 C88.5517578,25.3123346 88.3912776,24.8848486 88.0703125,24.5666504 C87.7493474,24.2484522 87.2762076,24.0893555 86.6508789,24.0893555 C86.1030246,24.0893555 85.6437193,24.2277004 85.2729492,24.5043945 C84.9021791,24.7810886 84.7167969,25.1158835 84.7167969,25.5087891 L83.1728516,25.5087891 C83.1728516,25.0605446 83.3319483,24.6275249 83.6501465,24.2097168 C83.9683447,23.7919087 84.399981,23.4612642 84.9450684,23.2177734 C85.4901557,22.9742826 86.0891894,22.8525391 86.7421875,22.8525391 C87.7770234,22.8525391 88.5877249,23.1112442 89.1743164,23.6286621 C89.7609079,24.1460801 90.0652668,24.8585567 90.0874023,25.7661133 L90.0874023,29.8999023 C90.0874023,30.7244507 90.1925445,31.3802059 90.402832,31.8671875 L90.402832,32 L88.7924805,32 Z M86.2441406,30.8295898 C86.7255883,30.8295898 87.1821267,30.7050794 87.6137695,30.4560547 C88.0454123,30.20703 88.3580719,29.8833028 88.5517578,29.4848633 L88.5517578,27.6420898 L87.3481445,27.6420898 C85.4666247,27.6420898 84.5258789,28.1927028 84.5258789,29.2939453 C84.5258789,29.775393 84.6863591,30.1516914 85.0073242,30.4228516 C85.3282894,30.6940118 85.7405574,30.8295898 86.2441406,30.8295898 Z M94.578125,20.84375 L94.578125,23.0185547 L96.2548828,23.0185547 L96.2548828,24.2055664 L94.578125,24.2055664 L94.578125,29.7753906 C94.578125,30.1350929 94.6528313,30.4048656 94.8022461,30.5847168 C94.9516609,30.764568 95.2062156,30.8544922 95.565918,30.8544922 C95.7430022,30.8544922 95.9864893,30.8212894 96.2963867,30.7548828 L96.2963867,32 C95.8924133,32.1106776 95.4995136,32.1660156 95.1176758,32.1660156 C94.4314744,32.1660156 93.9140642,31.9584982 93.5654297,31.543457 C93.2167951,31.1284159 93.0424805,30.5390663 93.0424805,29.7753906 L93.0424805,24.2055664 L91.4072266,24.2055664 L91.4072266,23.0185547 L93.0424805,23.0185547 L93.0424805,20.84375 L94.578125,20.84375 Z M97.4750977,27.4262695 C97.4750977,26.5463823 97.6480289,25.7550491 97.9938965,25.0522461 C98.3397641,24.3494431 98.8212046,23.8071308 99.4382324,23.425293 C100.05526,23.0434551 100.759436,22.8525391 101.550781,22.8525391 C102.773769,22.8525391 103.762936,23.2758747 104.518311,24.1225586 C105.273685,24.9692425 105.651367,26.0953706 105.651367,27.5009766 L105.651367,27.6088867 C105.651367,28.48324 105.48397,29.267656 105.14917,29.9621582 C104.81437,30.6566604 104.335696,31.1975892 103.713135,31.5849609 C103.090573,31.9723327 102.37533,32.1660156 101.567383,32.1660156 C100.349929,32.1660156 99.3635292,31.74268 98.6081543,30.8959961 C97.8527794,30.0493122 97.4750977,28.9287179 97.4750977,27.5341797 L97.4750977,27.4262695 Z M99.019043,27.6088867 C99.019043,28.6049854 99.2500791,29.4046194 99.7121582,30.0078125 C100.174237,30.6110056 100.792639,30.9125977 101.567383,30.9125977 C102.34766,30.9125977 102.967446,30.6068553 103.426758,29.9953613 C103.88607,29.3838674 104.115723,28.527512 104.115723,27.4262695 C104.115723,26.4412386 103.88192,25.6429881 103.414307,25.0314941 C102.946694,24.4200002 102.325525,24.1142578 101.550781,24.1142578 C100.792639,24.1142578 100.181155,24.4158498 99.7163086,25.019043 C99.2514625,25.6222361 99.019043,26.4855087 99.019043,27.6088867 Z M112.806641,29.6176758 C112.806641,29.2026346 112.650311,28.8802909 112.337646,28.6506348 C112.024982,28.4209787 111.479903,28.2231454 110.702393,28.0571289 C109.924882,27.8911125 109.307864,27.6918957 108.851318,27.4594727 C108.394773,27.2270496 108.057211,26.9503597 107.838623,26.6293945 C107.620035,26.3084294 107.510742,25.9265973 107.510742,25.4838867 C107.510742,24.7478804 107.822018,24.1253281 108.44458,23.6162109 C109.067142,23.1070938 109.862625,22.8525391 110.831055,22.8525391 C111.849289,22.8525391 112.675208,23.1153945 113.308838,23.6411133 C113.942467,24.1668321 114.259277,24.8391886 114.259277,25.6582031 L112.715332,25.6582031 C112.715332,25.2376281 112.536867,24.8751643 112.179932,24.5708008 C111.822996,24.2664373 111.373375,24.1142578 110.831055,24.1142578 C110.272133,24.1142578 109.834963,24.2360014 109.519531,24.4794922 C109.2041,24.722983 109.046387,25.0411764 109.046387,25.434082 C109.046387,25.8048521 109.193032,26.084309 109.486328,26.2724609 C109.779624,26.4606129 110.309485,26.6404614 111.075928,26.8120117 C111.84237,26.9835621 112.463539,27.1883126 112.939453,27.4262695 C113.415367,27.6642265 113.768147,27.9506005 113.997803,28.2854004 C114.227459,28.6202002 114.342285,29.0283179 114.342285,29.5097656 C114.342285,30.3121785 114.021325,30.9554826 113.379395,31.4396973 C112.737464,31.9239119 111.904628,32.1660156 110.880859,32.1660156 C110.161455,32.1660156 109.525068,32.0387383 108.97168,31.7841797 C108.418292,31.5296211 107.985272,31.1740745 107.672607,30.7175293 C107.359943,30.260984 107.203613,29.7670925 107.203613,29.2358398 L108.739258,29.2358398 C108.766927,29.7504909 108.973061,30.1586085 109.357666,30.4602051 C109.742271,30.7618016 110.249997,30.9125977 110.880859,30.9125977 C111.461917,30.9125977 111.92814,30.7950044 112.279541,30.5598145 C112.630943,30.3246245 112.806641,30.0105814 112.806641,29.6176758 Z M117.878418,24.105957 C118.559085,23.2703409 119.444493,22.8525391 120.534668,22.8525391 C122.432789,22.8525391 123.390137,23.9233291 123.406738,26.0649414 L123.406738,32 L121.871094,32 L121.871094,26.0566406 C121.86556,25.4091765 121.717531,24.9305029 121.427002,24.6206055 C121.136473,24.3107081 120.684085,24.1557617 120.069824,24.1557617 C119.571775,24.1557617 119.134605,24.2885729 118.758301,24.5541992 C118.381997,24.8198255 118.088705,25.1684549 117.878418,25.6000977 L117.878418,32 L116.342773,32 L116.342773,19.25 L117.878418,19.25 L117.878418,24.105957 Z M127.374512,32 L125.838867,32 L125.838867,23.0185547 L127.374512,23.0185547 L127.374512,32 Z M125.714355,20.6362305 C125.714355,20.3872058 125.790445,20.1769214 125.942627,20.0053711 C126.094809,19.8338208 126.320311,19.7480469 126.619141,19.7480469 C126.91797,19.7480469 127.144856,19.8338208 127.299805,20.0053711 C127.454753,20.1769214 127.532227,20.3872058 127.532227,20.6362305 C127.532227,20.8852552 127.454753,21.0927726 127.299805,21.2587891 C127.144856,21.4248055 126.91797,21.5078125 126.619141,21.5078125 C126.320311,21.5078125 126.094809,21.4248055 125.942627,21.2587891 C125.790445,21.0927726 125.714355,20.8852552 125.714355,20.6362305 Z M133.981934,27.0942383 C133.981934,25.843581 134.149331,24.6427466 134.484131,23.4916992 C134.818931,22.3406518 135.318356,21.2947638 135.982422,20.3540039 C136.646488,19.413244 137.335446,18.7491881 138.049316,18.3618164 L138.364746,19.3745117 C137.556799,19.9943065 136.894127,20.9405861 136.376709,22.2133789 C135.859291,23.4861717 135.575684,24.9111249 135.525879,26.4882812 L135.517578,27.1938477 C135.517578,29.329926 135.907711,31.1837487 136.687988,32.7553711 C137.158368,33.696131 137.717282,34.4321262 138.364746,34.9633789 L138.049316,35.9013672 C137.31331,35.4918599 136.610518,34.8056689 135.940918,33.8427734 C134.634922,31.9612536 133.981934,29.7117644 133.981934,27.0942383 Z M143.652344,26.612793 C142.285475,26.2198874 141.290775,25.7370634 140.668213,25.1643066 C140.045651,24.5915499 139.734375,23.8846071 139.734375,23.043457 C139.734375,22.0916294 140.114824,21.3044465 140.875732,20.6818848 C141.636641,20.0593231 142.625808,19.7480469 143.843262,19.7480469 C144.673344,19.7480469 145.41349,19.908527 146.063721,20.2294922 C146.713952,20.5504573 147.217528,20.9931612 147.574463,21.5576172 C147.931398,22.1220731 148.109863,22.7390917 148.109863,23.4086914 L146.507812,23.4086914 C146.507812,22.678219 146.275393,22.1040874 145.810547,21.6862793 C145.345701,21.2684712 144.689946,21.0595703 143.843262,21.0595703 C143.05745,21.0595703 142.444582,21.2325015 142.004639,21.5783691 C141.564695,21.9242368 141.344727,22.4042938 141.344727,23.0185547 C141.344727,23.5110702 141.553627,23.9274885 141.971436,24.2678223 C142.389244,24.608156 143.100337,24.9194322 144.104736,25.2016602 C145.109136,25.4838881 145.894935,25.7951643 146.462158,26.135498 C147.029381,26.4758318 147.44995,26.8728818 147.723877,27.3266602 C147.997804,27.7804385 148.134766,28.3144501 148.134766,28.9287109 C148.134766,29.908208 147.752934,30.692624 146.989258,31.2819824 C146.225582,31.8713408 145.204596,32.1660156 143.92627,32.1660156 C143.096187,32.1660156 142.321455,32.0069189 141.602051,31.6887207 C140.882646,31.3705225 140.327883,30.9347358 139.937744,30.3813477 C139.547605,29.8279595 139.352539,29.1998733 139.352539,28.4970703 L140.95459,28.4970703 C140.95459,29.2275427 141.224363,29.8044412 141.763916,30.2277832 C142.303469,30.6511252 143.024247,30.862793 143.92627,30.862793 C144.76742,30.862793 145.412107,30.6912452 145.860352,30.3481445 C146.308596,30.0050439 146.532715,29.5374379 146.532715,28.9453125 C146.532715,28.3531871 146.325197,27.8952653 145.910156,27.5715332 C145.495115,27.2478011 144.742518,26.9282242 143.652344,26.612793 Z M156.850586,28.8457031 L151.787109,28.8457031 L150.649902,32 L149.006348,32 L153.621582,19.9140625 L155.016113,19.9140625 L159.639648,32 L158.004395,32 L156.850586,28.8457031 Z M152.268555,27.5341797 L156.377441,27.5341797 L154.318848,21.8813477 L152.268555,27.5341797 Z M168.546387,21.2255859 L164.661621,21.2255859 L164.661621,32 L163.076172,32 L163.076172,21.2255859 L159.199707,21.2255859 L159.199707,19.9140625 L168.546387,19.9140625 L168.546387,21.2255859 Z M173.643066,27.1772461 C173.643066,28.4113017 173.481203,29.5941512 173.157471,30.7258301 C172.833739,31.8575089 172.338464,32.9020134 171.671631,33.859375 C171.004798,34.8167366 170.306156,35.4973938 169.575684,35.9013672 L169.251953,34.9633789 C170.104171,34.3103808 170.788979,33.2963122 171.306396,31.9211426 C171.823814,30.5459729 172.088053,29.0200279 172.099121,27.3432617 L172.099121,27.0776367 C172.099121,25.9155215 171.977378,24.8350473 171.733887,23.8361816 C171.490396,22.837316 171.151451,21.942224 170.717041,21.1508789 C170.282631,20.3595338 169.794274,19.7425152 169.251953,19.2998047 L169.575684,18.3618164 C170.306156,18.7657898 171.002031,19.4409132 171.66333,20.387207 C172.324629,21.3335008 172.819904,22.3766219 173.14917,23.5166016 C173.478436,24.6565812 173.643066,25.8767839 173.643066,27.1772461 Z" id="Satoshi(SAT)" fill-opacity="0.87" fill="#000000" fill-rule="nonzero"></path>
                    <g id="Material/Light/Radio-button-off" transform="translate(320.000000, 16.000000)" fill="#010101" opacity="0.54">
                        <path d="M12,2 C6.5,2 2,6.5 2,12 C2,17.5 6.5,22 12,22 C17.5,22 22,17.5 22,12 C22,6.5 17.5,2 12,2 L12,2 Z M12,20 C7.6,20 4,16.4 4,12 C4,7.6 7.6,4 12,4 C16.4,4 20,7.6 20,12 C20,16.4 16.4,20 12,20 L12,20 Z" id="Shape"></path>
                    </g>
                </g>
                <g id="row">
                    <rect id="row-bounds" x="0" y="0" width="360" height="56"></rect>
                    <path d="M73.402832,32 L73.402832,19.9140625 L77.3540039,19.9140625 C78.6655339,19.9140625 79.6519335,20.1852186 80.3132324,20.7275391 C80.9745313,21.2698595 81.3051758,22.0722603 81.3051758,23.1347656 C81.3051758,23.6992216 81.1446956,24.1986469 80.8237305,24.6330566 C80.5027653,25.0674664 80.0655952,25.4036446 79.512207,25.6416016 C80.1652051,25.8242197 80.6812318,26.1714655 81.0603027,26.6833496 C81.4393736,27.1952337 81.6289062,27.805335 81.6289062,28.5136719 C81.6289062,29.5983127 81.27751,30.4505177 80.574707,31.0703125 C79.871904,31.6901073 78.8785871,32 77.5947266,32 L73.402832,32 Z M74.996582,26.347168 L74.996582,30.6967773 L77.6279297,30.6967773 C78.3694699,30.6967773 78.9546691,30.5044778 79.3835449,30.119873 C79.8124208,29.7352683 80.0268555,29.205407 80.0268555,28.5302734 C80.0268555,27.0748625 79.2355222,26.347168 77.652832,26.347168 L74.996582,26.347168 Z M74.996582,25.0688477 L77.4038086,25.0688477 C78.1010777,25.0688477 78.6586079,24.894533 79.076416,24.5458984 C79.4942241,24.1972639 79.703125,23.7241241 79.703125,23.1264648 C79.703125,22.462399 79.509442,21.9795751 79.1220703,21.6779785 C78.7346986,21.376382 78.145349,21.2255859 77.3540039,21.2255859 L74.996582,21.2255859 L74.996582,25.0688477 Z M85.4140625,32 L83.878418,32 L83.878418,23.0185547 L85.4140625,23.0185547 L85.4140625,32 Z M83.7539062,20.6362305 C83.7539062,20.3872058 83.829996,20.1769214 83.9821777,20.0053711 C84.1343595,19.8338208 84.3598618,19.7480469 84.6586914,19.7480469 C84.957521,19.7480469 85.1844068,19.8338208 85.3393555,20.0053711 C85.4943042,20.1769214 85.5717773,20.3872058 85.5717773,20.6362305 C85.5717773,20.8852552 85.4943042,21.0927726 85.3393555,21.2587891 C85.1844068,21.4248055 84.957521,21.5078125 84.6586914,21.5078125 C84.3598618,21.5078125 84.1343595,21.4248055 83.9821777,21.2587891 C83.829996,21.0927726 83.7539062,20.8852552 83.7539062,20.6362305 Z M89.9545898,20.84375 L89.9545898,23.0185547 L91.6313477,23.0185547 L91.6313477,24.2055664 L89.9545898,24.2055664 L89.9545898,29.7753906 C89.9545898,30.1350929 90.0292961,30.4048656 90.1787109,30.5847168 C90.3281257,30.764568 90.5826805,30.8544922 90.9423828,30.8544922 C91.119467,30.8544922 91.3629542,30.8212894 91.6728516,30.7548828 L91.6728516,32 C91.2688782,32.1106776 90.8759785,32.1660156 90.4941406,32.1660156 C89.8079393,32.1660156 89.2905291,31.9584982 88.9418945,31.543457 C88.59326,31.1284159 88.4189453,30.5390663 88.4189453,29.7753906 L88.4189453,24.2055664 L86.7836914,24.2055664 L86.7836914,23.0185547 L88.4189453,23.0185547 L88.4189453,20.84375 L89.9545898,20.84375 Z M97.0268555,30.9125977 C97.5747098,30.9125977 98.0533834,30.7465837 98.4628906,30.4145508 C98.8723979,30.0825179 99.0992836,29.667483 99.1435547,29.1694336 L100.596191,29.1694336 C100.568522,29.6840846 100.39144,30.1738258 100.064941,30.6386719 C99.7384424,31.1035179 99.3026557,31.4742825 98.7575684,31.7509766 C98.212481,32.0276707 97.6355825,32.1660156 97.0268555,32.1660156 C95.8038676,32.1660156 94.8313024,31.757898 94.1091309,30.9416504 C93.3869593,30.1254028 93.0258789,29.0089589 93.0258789,27.5922852 L93.0258789,27.3349609 C93.0258789,26.4606076 93.1863591,25.6831089 93.5073242,25.0024414 C93.8282894,24.3217739 94.2889781,23.7932962 94.8894043,23.4169922 C95.4898305,23.0406882 96.1995402,22.8525391 97.0185547,22.8525391 C98.0257212,22.8525391 98.8627083,23.1541311 99.529541,23.7573242 C100.196374,24.3605173 100.55192,25.1435499 100.596191,26.1064453 L99.1435547,26.1064453 C99.0992836,25.5253877 98.8793151,25.0480976 98.4836426,24.6745605 C98.08797,24.3010235 97.5996123,24.1142578 97.0185547,24.1142578 C96.2382773,24.1142578 95.6337098,24.3950981 95.204834,24.9567871 C94.7759581,25.5184761 94.5615234,26.3305611 94.5615234,27.3930664 L94.5615234,27.6835938 C94.5615234,28.7184297 94.7745747,29.5152967 95.2006836,30.0742188 C95.6267925,30.6331408 96.2355104,30.9125977 97.0268555,30.9125977 Z M101.916016,27.4262695 C101.916016,26.5463823 102.088947,25.7550491 102.434814,25.0522461 C102.780682,24.3494431 103.262123,23.8071308 103.87915,23.425293 C104.496178,23.0434551 105.200354,22.8525391 105.991699,22.8525391 C107.214687,22.8525391 108.203854,23.2758747 108.959229,24.1225586 C109.714603,24.9692425 110.092285,26.0953706 110.092285,27.5009766 L110.092285,27.6088867 C110.092285,28.48324 109.924888,29.267656 109.590088,29.9621582 C109.255288,30.6566604 108.776614,31.1975892 108.154053,31.5849609 C107.531491,31.9723327 106.816248,32.1660156 106.008301,32.1660156 C104.790847,32.1660156 103.804447,31.74268 103.049072,30.8959961 C102.293697,30.0493122 101.916016,28.9287179 101.916016,27.5341797 L101.916016,27.4262695 Z M103.459961,27.6088867 C103.459961,28.6049854 103.690997,29.4046194 104.153076,30.0078125 C104.615155,30.6110056 105.233557,30.9125977 106.008301,30.9125977 C106.788578,30.9125977 107.408364,30.6068553 107.867676,29.9953613 C108.326988,29.3838674 108.556641,28.527512 108.556641,27.4262695 C108.556641,26.4412386 108.322838,25.6429881 107.855225,25.0314941 C107.387612,24.4200002 106.766443,24.1142578 105.991699,24.1142578 C105.233557,24.1142578 104.622073,24.4158498 104.157227,25.019043 C103.69238,25.6222361 103.459961,26.4855087 103.459961,27.6088867 Z M113.686523,32 L112.150879,32 L112.150879,23.0185547 L113.686523,23.0185547 L113.686523,32 Z M112.026367,20.6362305 C112.026367,20.3872058 112.102457,20.1769214 112.254639,20.0053711 C112.40682,19.8338208 112.632323,19.7480469 112.931152,19.7480469 C113.229982,19.7480469 113.456868,19.8338208 113.611816,20.0053711 C113.766765,20.1769214 113.844238,20.3872058 113.844238,20.6362305 C113.844238,20.8852552 113.766765,21.0927726 113.611816,21.2587891 C113.456868,21.4248055 113.229982,21.5078125 112.931152,21.5078125 C112.632323,21.5078125 112.40682,21.4248055 112.254639,21.2587891 C112.102457,21.0927726 112.026367,20.8852552 112.026367,20.6362305 Z M117.596191,23.0185547 L117.645996,24.1474609 C118.332197,23.2841754 119.228673,22.8525391 120.335449,22.8525391 C122.233571,22.8525391 123.190918,23.9233291 123.20752,26.0649414 L123.20752,32 L121.671875,32 L121.671875,26.0566406 C121.666341,25.4091765 121.518312,24.9305029 121.227783,24.6206055 C120.937254,24.3107081 120.484866,24.1557617 119.870605,24.1557617 C119.372556,24.1557617 118.935386,24.2885729 118.559082,24.5541992 C118.182778,24.8198255 117.889487,25.1684549 117.679199,25.6000977 L117.679199,32 L116.143555,32 L116.143555,23.0185547 L117.596191,23.0185547 Z M129.673828,27.0942383 C129.673828,25.843581 129.841226,24.6427466 130.176025,23.4916992 C130.510825,22.3406518 131.010251,21.2947638 131.674316,20.3540039 C132.338382,19.413244 133.02734,18.7491881 133.741211,18.3618164 L134.056641,19.3745117 C133.248694,19.9943065 132.586021,20.9405861 132.068604,22.2133789 C131.551186,23.4861717 131.267578,24.9111249 131.217773,26.4882812 L131.209473,27.1938477 C131.209473,29.329926 131.599605,31.1837487 132.379883,32.7553711 C132.850263,33.696131 133.409176,34.4321262 134.056641,34.9633789 L133.741211,35.9013672 C133.005205,35.4918599 132.302412,34.8056689 131.632812,33.8427734 C130.326816,31.9612536 129.673828,29.7117644 129.673828,27.0942383 Z M135.783203,32 L135.783203,19.9140625 L139.734375,19.9140625 C141.045905,19.9140625 142.032305,20.1852186 142.693604,20.7275391 C143.354902,21.2698595 143.685547,22.0722603 143.685547,23.1347656 C143.685547,23.6992216 143.525067,24.1986469 143.204102,24.6330566 C142.883136,25.0674664 142.445966,25.4036446 141.892578,25.6416016 C142.545576,25.8242197 143.061603,26.1714655 143.440674,26.6833496 C143.819745,27.1952337 144.009277,27.805335 144.009277,28.5136719 C144.009277,29.5983127 143.657881,30.4505177 142.955078,31.0703125 C142.252275,31.6901073 141.258958,32 139.975098,32 L135.783203,32 Z M137.376953,26.347168 L137.376953,30.6967773 L140.008301,30.6967773 C140.749841,30.6967773 141.33504,30.5044778 141.763916,30.119873 C142.192792,29.7352683 142.407227,29.205407 142.407227,28.5302734 C142.407227,27.0748625 141.615893,26.347168 140.033203,26.347168 L137.376953,26.347168 Z M137.376953,25.0688477 L139.78418,25.0688477 C140.481449,25.0688477 141.038979,24.894533 141.456787,24.5458984 C141.874595,24.1972639 142.083496,23.7241241 142.083496,23.1264648 C142.083496,22.462399 141.889813,21.9795751 141.502441,21.6779785 C141.11507,21.376382 140.52572,21.2255859 139.734375,21.2255859 L137.376953,21.2255859 L137.376953,25.0688477 Z M154.493164,21.2255859 L150.608398,21.2255859 L150.608398,32 L149.022949,32 L149.022949,21.2255859 L145.146484,21.2255859 L145.146484,19.9140625 L154.493164,19.9140625 L154.493164,21.2255859 Z M164.943848,28.1650391 C164.794433,29.4433658 164.322676,30.4297654 163.528564,31.1242676 C162.734452,31.8187697 161.67888,32.1660156 160.361816,32.1660156 C158.934075,32.1660156 157.789962,31.6541392 156.929443,30.6303711 C156.068925,29.606603 155.638672,28.2369877 155.638672,26.5214844 L155.638672,25.359375 C155.638672,24.235997 155.839272,23.2482139 156.240479,22.3959961 C156.641685,21.5437783 157.210283,20.8894066 157.946289,20.4328613 C158.682295,19.9763161 159.5345,19.7480469 160.50293,19.7480469 C161.78679,19.7480469 162.816077,20.1063603 163.59082,20.822998 C164.365564,21.5396357 164.816568,22.5315692 164.943848,23.7988281 L163.341797,23.7988281 C163.20345,22.8359327 162.903241,22.138674 162.441162,21.7070312 C161.979083,21.2753885 161.333012,21.0595703 160.50293,21.0595703 C159.484695,21.0595703 158.686445,21.4358686 158.108154,22.1884766 C157.529864,22.9410845 157.240723,24.0118746 157.240723,25.4008789 L157.240723,26.5712891 C157.240723,27.8828191 157.514646,28.9259401 158.0625,29.7006836 C158.610354,30.4754271 159.376785,30.862793 160.361816,30.862793 C161.247237,30.862793 161.926511,30.6621928 162.399658,30.2609863 C162.872805,29.8597799 163.186848,29.1611378 163.341797,28.1650391 L164.943848,28.1650391 Z M170.206543,27.1772461 C170.206543,28.4113017 170.044679,29.5941512 169.720947,30.7258301 C169.397215,31.8575089 168.90194,32.9020134 168.235107,33.859375 C167.568275,34.8167366 166.869633,35.4973938 166.13916,35.9013672 L165.81543,34.9633789 C166.667647,34.3103808 167.352455,33.2963122 167.869873,31.9211426 C168.387291,30.5459729 168.65153,29.0200279 168.662598,27.3432617 L168.662598,27.0776367 C168.662598,25.9155215 168.540854,24.8350473 168.297363,23.8361816 C168.053872,22.837316 167.714927,21.942224 167.280518,21.1508789 C166.846108,20.3595338 166.35775,19.7425152 165.81543,19.2998047 L166.13916,18.3618164 C166.869633,18.7657898 167.565508,19.4409132 168.226807,20.387207 C168.888106,21.3335008 169.383381,22.3766219 169.712646,23.5166016 C170.041912,24.6565812 170.206543,25.8767839 170.206543,27.1772461 Z" id="Bitcoin(BTC)" fill-opacity="0.87" fill="#000000" fill-rule="nonzero"></path>
                    <g id="Material/Light/Radio-button-on" transform="translate(320.000000, 12.000000)" fill="#009688">
                        <path d="M12,7 C9.2,7 7,9.2 7,12 C7,14.8 9.2,17 12,17 C14.8,17 17,14.8 17,12 C17,9.2 14.8,7 12,7 L12,7 Z M12,2 C6.5,2 2,6.5 2,12 C2,17.5 6.5,22 12,22 C17.5,22 22,17.5 22,12 C22,6.5 17.5,2 12,2 L12,2 Z M12,20 C7.6,20 4,16.4 4,12 C4,7.6 7.6,4 12,4 C16.4,4 20,7.6 20,12 C20,16.4 16.4,20 12,20 L12,20 Z" id="Shape"></path>
                    </g>
                </g>
            </g>
            <rect id="Rectangle" stroke="#DCDCDC" stroke-width="1" fill="#FBFBFC" fill-rule="evenodd" x="0" y="0" width="414" height="93"></rect>
            <g id="Material/Icons-black/arrow-forward" opacity="0.54" transform="translate(39.000000, 63.500000) scale(-1, 1) translate(-39.000000, -63.500000) translate(27.000000, 51.500000)" fill="#000000" fill-rule="evenodd">
                <polygon id="Shape" points="12 4 10.6 5.4 16.2 11 4 11 4 13 16.2 13 10.6 18.6 12 20 20 12"></polygon>
            </g>
            <path d="M73.3007812,71 L73.3007812,58.203125 L77.6865234,58.203125 C79.1337963,58.203125 80.2353478,58.4931612 80.9912109,59.0732422 C81.7470741,59.6533232 82.125,60.5175724 82.125,61.6660156 C82.125,62.2519561 81.9667985,62.7792945 81.6503906,63.2480469 C81.3339828,63.7167992 80.8710968,64.0800768 80.2617188,64.3378906 C80.9531285,64.5253916 81.4877911,64.8784154 81.8657227,65.3969727 C82.2436542,65.9155299 82.4326172,66.5380823 82.4326172,67.2646484 C82.4326172,68.4658263 82.0473671,69.3886687 81.2768555,70.0332031 C80.5063438,70.6777376 79.4033275,71 77.9677734,71 L73.3007812,71 Z M75.5244141,65.2255859 L75.5244141,69.2246094 L77.9941406,69.2246094 C78.6914097,69.2246094 79.2363262,69.0517595 79.6289062,68.7060547 C80.0214863,68.3603498 80.2177734,67.8798859 80.2177734,67.2646484 C80.2177734,65.9345637 79.5380927,65.254883 78.1787109,65.2255859 L75.5244141,65.2255859 Z M75.5244141,63.5908203 L77.7041016,63.5908203 C78.3955113,63.5908203 78.9360332,63.4340836 79.3256836,63.1206055 C79.715334,62.8071273 79.9101562,62.3632841 79.9101562,61.7890625 C79.9101562,61.1562468 79.7299823,60.6992202 79.3696289,60.4179688 C79.0092755,60.1367173 78.448246,59.9960938 77.6865234,59.9960938 L75.5244141,59.9960938 L75.5244141,63.5908203 Z M86.2981503,71 L84.1624081,71 L84.1624081,61.4902344 L86.2981503,61.4902344 L86.2981503,71 Z M84.0305722,59.0205078 C84.0305722,58.6923812 84.134575,58.419923 84.3425839,58.203125 C84.5505927,57.986327 84.8479531,57.8779297 85.2346737,57.8779297 C85.6213944,57.8779297 85.9202196,57.986327 86.1311581,58.203125 C86.3420967,58.419923 86.4475644,58.6923812 86.4475644,59.0205078 C86.4475644,59.342775 86.3420967,59.6108388 86.1311581,59.824707 C85.9202196,60.0385753 85.6213944,60.1455078 85.2346737,60.1455078 C84.8479531,60.1455078 84.5505927,60.0385753 84.3425839,59.824707 C84.134575,59.6108388 84.0305722,59.342775 84.0305722,59.0205078 Z M90.8755975,59.1787109 L90.8755975,61.4902344 L92.5543084,61.4902344 L92.5543084,63.0722656 L90.8755975,63.0722656 L90.8755975,68.3808594 C90.8755975,68.7441424 90.9473741,69.0063469 91.0909295,69.1674805 C91.2344849,69.3286141 91.49083,69.4091797 91.8599725,69.4091797 C92.1060675,69.4091797 92.3550884,69.3798831 92.6070428,69.3212891 L92.6070428,70.9736328 C92.1207122,71.1083991 91.6519669,71.1757812 91.2007928,71.1757812 C89.5601596,71.1757812 88.7398553,70.2705169 88.7398553,68.4599609 L88.7398553,63.0722656 L87.1754022,63.0722656 L87.1754022,61.4902344 L88.7398553,61.4902344 L88.7398553,59.1787109 L90.8755975,59.1787109 Z M97.6678884,69.4707031 C98.2010942,69.4707031 98.6434726,69.3154312 98.9950368,69.0048828 C99.3466011,68.6943344 99.5340992,68.3105492 99.5575368,67.8535156 L101.570232,67.8535156 C101.546795,68.4453155 101.362226,68.997556 101.016521,69.5102539 C100.670816,70.0229518 100.202071,70.4287094 99.6102712,70.7275391 C99.0184714,71.0263687 98.3798059,71.1757812 97.6942556,71.1757812 C96.3641708,71.1757812 95.3094939,70.7451215 94.5301931,69.8837891 C93.7508923,69.0224566 93.3612478,67.8330154 93.3612478,66.3154297 L93.3612478,66.0957031 C93.3612478,64.6484303 93.7479627,63.4897504 94.521404,62.6196289 C95.2948454,61.7495074 96.3495223,61.3144531 97.6854665,61.3144531 C98.8163316,61.3144531 99.7377091,61.6440397 100.449627,62.3032227 C101.161544,62.9624056 101.535076,63.8281196 101.570232,64.9003906 L99.5575368,64.9003906 C99.5340992,64.355466 99.3480659,63.9072283 98.9994314,63.5556641 C98.6507968,63.2040998 98.2069536,63.0283203 97.6678884,63.0283203 C96.9764787,63.0283203 96.4432809,63.2788061 96.068279,63.7797852 C95.6932772,64.2807642 95.5028494,65.0410105 95.49699,66.0605469 L95.49699,66.4033203 C95.49699,67.4345755 95.6830233,68.2036107 96.0550954,68.7104492 C96.4271676,69.2172877 96.9647599,69.4707031 97.6678884,69.4707031 Z M102.359593,66.1572266 C102.359593,65.2255813 102.544162,64.3862342 102.913304,63.6391602 C103.282447,62.8920861 103.800996,62.3178731 104.468968,61.9165039 C105.13694,61.5151347 105.904511,61.3144531 106.771703,61.3144531 C108.054912,61.3144531 109.096406,61.7275349 109.896214,62.5537109 C110.696023,63.3798869 111.128148,64.4755791 111.192601,65.8408203 L111.20139,66.3417969 C111.20139,67.2793016 111.021216,68.1171838 110.660863,68.8554688 C110.30051,69.5937537 109.78489,70.165037 109.113988,70.5693359 C108.443086,70.9736348 107.668192,71.1757812 106.789281,71.1757812 C105.447477,71.1757812 104.373758,70.7290084 103.568089,69.8354492 C102.762421,68.9418901 102.359593,67.750984 102.359593,66.2626953 L102.359593,66.1572266 Z M104.495336,66.3417969 C104.495336,67.3203174 104.697482,68.086423 105.101781,68.6401367 C105.50608,69.1938504 106.068574,69.4707031 106.789281,69.4707031 C107.509988,69.4707031 108.071017,69.1894559 108.472386,68.6269531 C108.873756,68.0644503 109.074437,67.2412164 109.074437,66.1572266 C109.074437,65.1962843 108.867896,64.4345731 108.454808,63.8720703 C108.04172,63.3095675 107.480691,63.0283203 106.771703,63.0283203 C106.074434,63.0283203 105.520728,63.305173 105.11057,63.8588867 C104.700412,64.4126004 104.495336,65.2402289 104.495336,66.3417969 Z M114.855986,71 L112.720244,71 L112.720244,61.4902344 L114.855986,61.4902344 L114.855986,71 Z M112.588408,59.0205078 C112.588408,58.6923812 112.692411,58.419923 112.900419,58.203125 C113.108428,57.986327 113.405789,57.8779297 113.792509,57.8779297 C114.17923,57.8779297 114.478055,57.986327 114.688994,58.203125 C114.899932,58.419923 115.0054,58.6923812 115.0054,59.0205078 C115.0054,59.342775 114.899932,59.6108388 114.688994,59.824707 C114.478055,60.0385753 114.17923,60.1455078 113.792509,60.1455078 C113.405789,60.1455078 113.108428,60.0385753 112.900419,59.824707 C112.692411,59.6108388 112.588408,59.342775 112.588408,59.0205078 Z M118.739097,61.4902344 L118.800621,62.5888672 C119.503749,61.7392536 120.426591,61.3144531 121.569175,61.3144531 C123.549654,61.3144531 124.557456,62.4482308 124.592613,64.7158203 L124.592613,71 L122.456871,71 L122.456871,64.8388672 C122.456871,64.2353485 122.326501,63.7885757 122.065757,63.4985352 C121.805014,63.2084946 121.378749,63.0634766 120.786949,63.0634766 C119.925616,63.0634766 119.284021,63.4531211 118.862144,64.2324219 L118.862144,71 L116.726402,71 L116.726402,61.4902344 L118.739097,61.4902344 Z M139.970163,58.203125 L139.970163,66.7548828 C139.970163,68.1142646 139.535109,69.190914 138.664988,69.9848633 C137.794866,70.7788126 136.636186,71.1757812 135.188913,71.1757812 C133.724062,71.1757812 132.560988,70.7846719 131.699656,70.0024414 C130.838323,69.2202109 130.407663,68.1347726 130.407663,66.7460938 L130.407663,58.203125 L132.622507,58.203125 L132.622507,66.7636719 C132.622507,67.6191449 132.839302,68.2724587 133.272898,68.7236328 C133.706494,69.1748069 134.345159,69.4003906 135.188913,69.4003906 C136.899859,69.4003906 137.75532,68.4980559 137.75532,66.6933594 L137.75532,58.203125 L139.970163,58.203125 Z M143.695071,61.4902344 L143.756595,62.5888672 C144.459723,61.7392536 145.382566,61.3144531 146.52515,61.3144531 C148.505628,61.3144531 149.513431,62.4482308 149.548587,64.7158203 L149.548587,71 L147.412845,71 L147.412845,64.8388672 C147.412845,64.2353485 147.282475,63.7885757 147.021732,63.4985352 C146.760988,63.2084946 146.334723,63.0634766 145.742923,63.0634766 C144.881591,63.0634766 144.239995,63.4531211 143.818118,64.2324219 L143.818118,71 L141.682376,71 L141.682376,61.4902344 L143.695071,61.4902344 Z M153.572323,71 L151.436581,71 L151.436581,61.4902344 L153.572323,61.4902344 L153.572323,71 Z M151.304745,59.0205078 C151.304745,58.6923812 151.408748,58.419923 151.616757,58.203125 C151.824766,57.986327 152.122126,57.8779297 152.508847,57.8779297 C152.895567,57.8779297 153.194393,57.986327 153.405331,58.203125 C153.61627,58.419923 153.721737,58.6923812 153.721737,59.0205078 C153.721737,59.342775 153.61627,59.6108388 153.405331,59.824707 C153.194393,60.0385753 152.895567,60.1455078 152.508847,60.1455078 C152.122126,60.1455078 151.824766,60.0385753 151.616757,59.824707 C151.408748,59.6108388 151.304745,59.342775 151.304745,59.0205078 Z M158.14977,59.1787109 L158.14977,61.4902344 L159.828481,61.4902344 L159.828481,63.0722656 L158.14977,63.0722656 L158.14977,68.3808594 C158.14977,68.7441424 158.221547,69.0063469 158.365103,69.1674805 C158.508658,69.3286141 158.765003,69.4091797 159.134145,69.4091797 C159.38024,69.4091797 159.629261,69.3798831 159.881216,69.3212891 L159.881216,70.9736328 C159.394885,71.1083991 158.92614,71.1757812 158.474966,71.1757812 C156.834333,71.1757812 156.014028,70.2705169 156.014028,68.4599609 L156.014028,63.0722656 L154.449575,63.0722656 L154.449575,61.4902344 L156.014028,61.4902344 L156.014028,59.1787109 L158.14977,59.1787109 Z M166.36589,68.4160156 C166.36589,68.0351543 166.209153,67.7451182 165.895675,67.5458984 C165.582197,67.3466787 165.062182,67.1708992 164.335616,67.0185547 C163.60905,66.8662102 163.002611,66.6728527 162.51628,66.4384766 C161.449869,65.922849 160.916671,65.1757861 160.916671,64.1972656 C160.916671,63.376949 161.26237,62.691409 161.95378,62.140625 C162.64519,61.589841 163.524087,61.3144531 164.590499,61.3144531 C165.727223,61.3144531 166.645671,61.5957003 167.34587,62.1582031 C168.046069,62.7207059 168.396163,63.4501908 168.396163,64.3466797 L166.260421,64.3466797 C166.260421,63.9365214 166.108079,63.5952162 165.80339,63.3227539 C165.498701,63.0502916 165.094408,62.9140625 164.590499,62.9140625 C164.121747,62.9140625 163.739426,63.0224599 163.443526,63.2392578 C163.147626,63.4560558 162.999679,63.7460919 162.999679,64.109375 C162.999679,64.4375016 163.137373,64.6923819 163.412765,64.8740234 C163.688157,65.055665 164.244792,65.2387686 165.082686,65.4233398 C165.920581,65.6079111 166.57829,65.8276354 167.055831,66.0825195 C167.533372,66.3374036 167.887861,66.6435529 168.119308,67.0009766 C168.350754,67.3584002 168.466475,67.7919896 168.466475,68.3017578 C168.466475,69.1572308 168.111987,69.850095 167.402999,70.3803711 C166.694011,70.9106472 165.765309,71.1757812 164.616866,71.1757812 C163.837565,71.1757812 163.143236,71.0351577 162.533858,70.7539062 C161.92448,70.4726548 161.449876,70.08594 161.11003,69.59375 C160.770185,69.10156 160.600265,68.5712919 160.600265,68.0029297 L162.674483,68.0029297 C162.70378,68.5068385 162.894208,68.8950182 163.245772,69.1674805 C163.597337,69.4399428 164.063152,69.5761719 164.643233,69.5761719 C165.205736,69.5761719 165.633466,69.4692394 165.926436,69.2553711 C166.219407,69.0415028 166.36589,68.7617205 166.36589,68.4160156 Z" id="BitcoinUnits" fill="#262C37" fill-rule="nonzero"></path>
        </g>
    </g>
</svg>