<svg width="1336" height="400" viewBox="0 0 1336 400" fill="none" xmlns="http://www.w3.org/2000/svg">
<rect width="1336" height="400" fill="white"/>
<rect x="511" y="111" width="16" height="178" rx="6" stroke="black" stroke-width="2"/>
<rect x="807" y="111" width="16" height="178" rx="6" stroke="black" stroke-width="2"/>
<line x1="528" y1="218" x2="806" y2="218" stroke="black" stroke-width="4"/>
<rect x="534" y="211" width="8" height="12" rx="4" fill="#F7931A" stroke="black" stroke-width="2"/>
<rect x="550" y="211" width="8" height="12" rx="4" fill="#F7931A" stroke="black" stroke-width="2"/>
<rect x="566" y="211" width="8" height="12" rx="4" fill="#F7931A" stroke="black" stroke-width="2"/>
<rect x="582" y="211" width="8" height="12" rx="4" fill="#F7931A" stroke="black" stroke-width="2"/>
<rect x="598" y="211" width="8" height="12" rx="4" fill="#F7931A" stroke="black" stroke-width="2"/>
<rect x="614" y="211" width="8" height="12" rx="4" fill="#F7931A" stroke="black" stroke-width="2"/>
<rect x="776" y="211" width="8" height="12" rx="4" fill="white" stroke="black" stroke-width="2"/>
<rect x="792" y="211" width="8" height="12" rx="4" fill="white" stroke="black" stroke-width="2"/>
<line x1="528" y1="258" x2="806" y2="258" stroke="black" stroke-width="4"/>
<rect x="534" y="251" width="8" height="12" rx="4" fill="#F7931A" stroke="black" stroke-width="2"/>
<rect x="550" y="251" width="8" height="12" rx="4" fill="#F7931A" stroke="black" stroke-width="2"/>
<rect x="566" y="251" width="8" height="12" rx="4" fill="#F7931A" stroke="black" stroke-width="2"/>
<rect x="582" y="251" width="8" height="12" rx="4" fill="#F7931A" stroke="black" stroke-width="2"/>
<rect x="598" y="251" width="8" height="12" rx="4" fill="#F7931A" stroke="black" stroke-width="2"/>
<rect x="614" y="251" width="8" height="12" rx="4" fill="#F7931A" stroke="black" stroke-width="2"/>
<rect x="630" y="251" width="8" height="12" rx="4" fill="#F7931A" stroke="black" stroke-width="2"/>
<rect x="646" y="251" width="8" height="12" rx="4" fill="#F7931A" stroke="black" stroke-width="2"/>
<line x1="528" y1="178" x2="806" y2="178" stroke="black" stroke-width="4"/>
<rect x="534" y="171" width="8" height="12" rx="4" fill="#F7931A" stroke="black" stroke-width="2"/>
<rect x="550" y="171" width="8" height="12" rx="4" fill="#F7931A" stroke="black" stroke-width="2"/>
<rect x="566" y="171" width="8" height="12" rx="4" fill="#F7931A" stroke="black" stroke-width="2"/>
<rect x="728" y="171" width="8" height="12" rx="4" fill="white" stroke="black" stroke-width="2"/>
<rect x="744" y="171" width="8" height="12" rx="4" fill="white" stroke="black" stroke-width="2"/>
<rect x="760" y="171" width="8" height="12" rx="4" fill="white" stroke="black" stroke-width="2"/>
<rect x="776" y="171" width="8" height="12" rx="4" fill="white" stroke="black" stroke-width="2"/>
<rect x="792" y="171" width="8" height="12" rx="4" fill="white" stroke="black" stroke-width="2"/>
<line x1="528" y1="138" x2="806" y2="138" stroke="black" stroke-width="4"/>
<rect x="534" y="131" width="8" height="12" rx="4" fill="#F7931A" stroke="black" stroke-width="2"/>
<rect x="550" y="131" width="8" height="12" rx="4" fill="#F7931A" stroke="black" stroke-width="2"/>
<rect x="566" y="131" width="8" height="12" rx="4" fill="#F7931A" stroke="black" stroke-width="2"/>
<rect x="582" y="131" width="8" height="12" rx="4" fill="#F7931A" stroke="black" stroke-width="2"/>
<rect x="744" y="131" width="8" height="12" rx="4" fill="white" stroke="black" stroke-width="2"/>
<rect x="760" y="131" width="8" height="12" rx="4" fill="white" stroke="black" stroke-width="2"/>
<rect x="776" y="131" width="8" height="12" rx="4" fill="white" stroke="black" stroke-width="2"/>
<rect x="792" y="131" width="8" height="12" rx="4" fill="white" stroke="black" stroke-width="2"/>
</svg>
