<svg id="Laag_1" data-name="Laag 1"
     xmlns="http://www.w3.org/2000/svg"
     viewBox="0 0 518.67 517.33"
     width="30" height="30">
     <title>Bitcoin TV</title>

  <defs>
    <style>
      .cls-1{fill:transparent;}
    </style>
  </defs>

  <rect class="cls-1" x="-8.81" y="-8.69" width="536.29" height="534.71"/>
  <path fill="currentColor" d="M301.49,25.41l-.78-.51a4.83,4.83,0,0,0-6.53,1.39l-42,49.21a4.56,4.56,0,0,0,1,6.61l10.71,7.27L242,134a4.81,4.81,0,0,0,2.8,4.78s4,.79,5.17-1.19l47.84-46.17a4.1,4.1,0,0,0-1.72-5.8l-12-7,19.54-47.88A4.86,4.86,0,0,0,301.49,25.41Z"/>
  <path fill="currentColor" class="cls-1" d="M179.32,480.41A129.53,129.53,0,0,1,49.94,351V267.39A129.53,129.53,0,0,1,179.32,138H434.46a28.29,28.29,0,0,1,28.26,28.26V452.15a28.28,28.28,0,0,1-28.26,28.26Z"/>
  <path fill="currentColor" d="M434.46,142.75A23.55,23.55,0,0,1,458,166.27V452.15a23.55,23.55,0,0,1-23.52,23.52H179.32A124.77,124.77,0,0,1,54.69,351V267.39A124.78,124.78,0,0,1,179.32,142.75H434.46m0-9.48H179.32A134.12,134.12,0,0,0,45.2,267.39V351A134.12,134.12,0,0,0,179.32,485.15H434.46a33,33,0,0,0,33-33V166.27a33,33,0,0,0-33-33Z"/>
  <circle class="cls-2" cx="408.21" cy="278.12" r="29.47"/>
  <circle class="cls-1" cx="408.21" cy="278.12" r="8.86"/>
  <polygon class="cls-1" points="412.57 274.18 412.54 282.17 371.11 281.86 371.14 273.87 412.57 274.18"/>
  <circle class="cls-2" cx="408.21" cy="351.64" r="29.47"/>
  <path fill="currentColor" class="cls-1" d="M410.5,362.47A11.07,11.07,0,1,1,419.28,352,11.09,11.09,0,0,1,410.5,362.47Z"/>
  <polygon class="cls-1" points="413.06 351.14 407.45 356.82 378.08 327.6 383.69 321.92 413.06 351.14"/>
  <circle class="cls-2" cx="408.21" cy="427.08" r="29.47"/>
  <circle class="cls-1" cx="408.21" cy="427.08" r="13.29"/>
  <polygon class="cls-1" points="436.32 448.87 430.71 454.55 401.34 425.32 406.95 419.64 436.32 448.87"/>
  <path fill="currentColor" class="cls-2" d="M419.85,186.11h11.51a6,6,0,0,1,6.13,5.78h0a6,6,0,0,1-6.13,5.79H419.85a6,6,0,0,1-6.14-5.79h0A6,6,0,0,1,419.85,186.11Z"/>
  <path fill="currentColor" class="cls-2" d="M407.8,209.67h.85a5.78,5.78,0,0,1,5.77,5.79h0a5.78,5.78,0,0,1-5.77,5.79h-.85a5.78,5.78,0,0,1-5.77-5.79h0A5.78,5.78,0,0,1,407.8,209.67Z"/>
  <path fill="currentColor" class="cls-2" d="M430.86,209.67h.86a5.78,5.78,0,0,1,5.77,5.79h0a5.78,5.78,0,0,1-5.77,5.79h-.86a5.77,5.77,0,0,1-5.76-5.79h0A5.78,5.78,0,0,1,430.86,209.67Z"/>
  <path fill="currentColor" class="cls-2" d="M384.73,209.67h.86a5.78,5.78,0,0,1,5.76,5.79h0a5.77,5.77,0,0,1-5.76,5.79h-.86a5.78,5.78,0,0,1-5.77-5.79h0A5.78,5.78,0,0,1,384.73,209.67Z"/>
  <path fill="currentColor" class="cls-2" d="M385.09,186.11H397a6,6,0,0,1,6.13,5.78h0a6,6,0,0,1-6.13,5.79H385.09a6,6,0,0,1-6.13-5.79h0A6,6,0,0,1,385.09,186.11Z"/>
  <path fill="currentColor" class="cls-2" d="M407.8,162.6h.85a5.77,5.77,0,0,1,5.77,5.78h0a5.78,5.78,0,0,1-5.77,5.79h-.85a5.78,5.78,0,0,1-5.77-5.79h0A5.77,5.77,0,0,1,407.8,162.6Z"/>
  <path fill="currentColor" class="cls-2" d="M430.86,162.6h.86a5.77,5.77,0,0,1,5.77,5.78h0a5.78,5.78,0,0,1-5.77,5.79h-.86a5.77,5.77,0,0,1-5.76-5.79h0A5.77,5.77,0,0,1,430.86,162.6Z"/>
  <path fill="currentColor" class="cls-2" d="M384.73,162.6h.86a5.77,5.77,0,0,1,5.76,5.78h0a5.77,5.77,0,0,1-5.76,5.79h-.86a5.78,5.78,0,0,1-5.77-5.79h0A5.77,5.77,0,0,1,384.73,162.6Z"/>
  <path fill="currentColor" class="cls-3" d="M225.39,262.29c-7.73-2.44-15.67-4.73-23.3-7.24a13.18,13.18,0,0,0-9.48.19c-7.16,2.66-14.41,5.26-21.39,8a72.91,72.91,0,0,1-17.59,4c6.86,10.21,13.83,20.44,18,28.86,1.92-.92,3.85-1.84,5.83-2.72,4.68-2.06,9.2-4.25,13.86-6.34,5.08-2.28,6.36-2.31,11.73-.36,9.22,3.35,16.11,13.2,25,16.8A24.49,24.49,0,0,0,239.48,305c9.07-.66,18.24-.4,27.37-.35a19.33,19.33,0,0,1,8.5,2.3c5.33,2.49,10.91,4.81,16.11,7.39,14.41,7.12,30.81,12.63,46.93,18.36a39.66,39.66,0,0,1,9.85,4.84,50.73,50.73,0,0,0,12.74,6.2V304.12a171.56,171.56,0,0,0-22.83,2.69C299.75,313.76,260.88,287.6,225.39,262.29Z"/>
  <path fill="currentColor" class="cls-3" d="M94.36,314.06c8.28-.08,16.56-.05,24.81-.71a36.22,36.22,0,0,0,8.15-1.45l3.73-1.18c-14.61-4.8-29.78-11.78-50-16.11v22.86C84.64,315.21,89,314.12,94.36,314.06Z"/>
  <path fill="currentColor" class="cls-3" d="M179.1,391.07l.33.15c.32-.19.64-.4,1-.59Z"/>
  <path fill="currentColor" class="cls-4" d="M192.61,255.24a13.18,13.18,0,0,1,9.48-.19c7.63,2.51,15.57,4.8,23.3,7.24-28.9-20.61-55.56-40.66-77.86-41.81-25.5-1.33-10.13,22.58,6.1,46.74a72.91,72.91,0,0,0,17.59-4C178.2,260.5,185.45,257.9,192.61,255.24Z"/>
  <path fill="currentColor" class="cls-5" d="M90.89,345.42c4.56.07,9.14-.17,13.7-.07,12.7.29,23.73-2,34.93-5.5,19.78-6.13,37-14.1,54.33-22.08a8,8,0,0,1,7.11-.25c9.18,3.52,18.75,6.73,27.72,10.42a33.12,33.12,0,0,0,16.18,2c8.25-.78,16.54-.3,24.8-.57a8.85,8.85,0,0,1,4.49,1.07c22.31,11,45.48,21.39,70.11,30.71a13.11,13.11,0,0,1,4.05,2.51,64,64,0,0,1,8.7,9.63,104.9,104.9,0,0,0,4-28.3v-1.3a50.73,50.73,0,0,1-12.74-6.2,39.66,39.66,0,0,0-9.85-4.84c-16.12-5.73-32.52-11.24-46.93-18.36-5.2-2.58-10.78-4.9-16.11-7.39a19.33,19.33,0,0,0-8.5-2.3c-9.13-.05-18.3-.31-27.37.35a24.49,24.49,0,0,1-11.42-1.49c-8.92-3.6-15.81-13.45-25-16.8-5.37-2-6.65-1.92-11.73.36-4.66,2.09-9.18,4.28-13.86,6.34-2,.88-3.91,1.8-5.83,2.72,5.18,10.5,6,18.18-3.59,19.33-13.61,1.65-25.12-.8-37-4.69l-3.73,1.18a36.22,36.22,0,0,1-8.15,1.45c-8.25.66-16.53.63-24.81.71-5.39.06-9.72,1.15-13.3,3.41V345c0,1.43.16,2.81.21,4.23.78-.65,1.56-1.32,2.34-1.85A11.56,11.56,0,0,1,90.89,345.42Z"/>
  <path fill="currentColor" class="cls-6" d="M348.31,363.66a13.11,13.11,0,0,0-4.05-2.51c-24.63-9.32-47.8-19.7-70.11-30.71a8.85,8.85,0,0,0-4.49-1.07c-8.26.27-16.55-.21-24.8.57a33.12,33.12,0,0,1-16.18-2c-9-3.69-18.54-6.9-27.72-10.42a8,8,0,0,0-7.11.25c-17.32,8-34.55,16-54.33,22.08-11.2,3.48-22.23,5.79-34.93,5.5-4.56-.1-9.14.14-13.7.07a11.56,11.56,0,0,0-7.28,1.95c-.78.53-1.56,1.2-2.34,1.85a104.56,104.56,0,0,0,3.32,22.33,24,24,0,0,1,8.65-1.05c.33,0,.68,0,1,0,29.13,2.1,51.76-6.11,73.72-15.23,7.11-2.95,13.74-6.27,20.59-9.42,8.37-3.84,8.37-3.86,17.52-.47,7.76,2.87,15.58,5.69,23.25,8.63.38.14.78.19,1.16.31,1.11-1.76,3.27-3.25,6.87-4.37,31.19-9.69,78.76,9.48,118.68,26.84.37-1.15.64-2.33,1-3.49A64,64,0,0,0,348.31,363.66Z"/>
  <path fill="currentColor" class="cls-7" d="M246.29,398.55a56.26,56.26,0,0,1-17-2.73c-9-3-17.14-6.51-26-9.6a13,13,0,0,0-9.9-.08c-4.21,1.59-8.63,3-13,4.49-.33.19-.65.4-1,.59,25.1,11.67,47.27,25.69,81.23,27.33,28.8,1.38,24.38-7.25,11.29-18.92-.69-.09-1.35-.15-1.93-.17C262.1,399.18,254.22,398.74,246.29,398.55Z"/>
  <path fill="currentColor" class="cls-8" d="M152.92,380.93c2-.47,4-.95,5.86-1.48,10.12-2.85,19.33-6.54,28.7-10,9.7-3.61,9.61-3.71,19.32-.34,7.72,2.68,15.47,5.35,23,8.18,4.42,1.67,9.29,2.16,14.63,2.22l3.09.06c-11.66-9.78-20.82-19.19-17-25.24-.38-.12-.78-.17-1.16-.31-7.67-2.94-15.49-5.76-23.25-8.63-9.15-3.39-9.15-3.37-17.52.47-6.85,3.15-13.48,6.47-20.59,9.42-22,9.12-44.59,17.33-73.72,15.23-.33,0-.68,0-1,0a24,24,0,0,0-8.65,1.05c.49,1.9,1,3.8,1.56,5.65C113.87,373.2,135,375.61,152.92,380.93Z"/>
  <path fill="currentColor" class="cls-9" d="M229.76,377.27c-7.49-2.83-15.24-5.5-23-8.18-9.71-3.37-9.62-3.27-19.32.34-9.37,3.48-18.58,7.17-28.7,10-1.91.53-3.88,1-5.86,1.48a190.66,190.66,0,0,1,26.18,10.14l1.3-.44c4.42-1.45,8.84-2.9,13-4.49a13,13,0,0,1,9.9.08c8.81,3.09,17,6.58,26,9.6a56.26,56.26,0,0,0,17,2.73c7.93.19,15.81.63,23.73.91.58,0,1.24.08,1.93.17-6.95-6.18-16.29-13.21-24.47-20.08l-3.09-.06C239.05,379.43,234.18,378.94,229.76,377.27Z"/>
  <path fill="currentColor" class="cls-2" d="M263.16,179a88.88,88.88,0,0,1,88.78,88.77v84.13a88.88,88.88,0,0,1-88.78,88.77H179.31a88.87,88.87,0,0,1-88.77-88.77V267.72A88.87,88.87,0,0,1,179.31,179h83.85m0-9.49H179.31a98.26,98.26,0,0,0-98.25,98.26v84.13a98.25,98.25,0,0,0,98.25,98.26h83.85a98.26,98.26,0,0,0,98.26-98.26V267.72a98.26,98.26,0,0,0-98.26-98.26Z"/>
</svg>