<svg width="25" height="25" viewBox="0 0 25 25" fill="none" xmlns="http://www.w3.org/2000/svg">
    <path d="M12.5 24.5C19.1274 24.5 24.5 19.1274 24.5 12.5C24.5 5.87258 19.1274 0.5 12.5 0.5C5.87258 0.5 0.5 5.87258 0.5 12.5C0.5 19.1274 5.87258 24.5 12.5 24.5Z" stroke="currentColor" stroke-width="0.5" />
    <path d="M12.5 19C16.0899 19 19 16.0899 19 12.5C19 8.91015 16.0899 6 12.5 6C8.91015 6 6 8.91015 6 12.5C6 16.0899 8.91015 19 12.5 19Z" stroke="currentColor" stroke-width="0.5" />
    <path d="M21.5955 14.6123C21.8717 14.6123 22.0955 14.3884 22.0955 14.1123C22.0955 13.8361 21.8717 13.6123 21.5955 13.6123C21.3194 13.6123 21.0955 13.8361 21.0955 14.1123C21.0955 14.3884 21.3194 14.6123 21.5955 14.6123Z" fill="currentColor" stroke="none" />
    <path d="M3.3794 14.6123C3.65555 14.6123 3.8794 14.3884 3.8794 14.1123C3.8794 13.8362 3.65555 13.6123 3.3794 13.6123C3.10326 13.6123 2.8794 13.8362 2.8794 14.1123C2.8794 14.3884 3.10326 14.6123 3.3794 14.6123Z" fill="currentColor" stroke="none" />
    <path d="M15.7369 11.4739C15.8645 10.5265 15.1456 10.0318 14.1602 9.69743L14.4662 8.41556L13.6871 8.22746L13.3903 9.48146C13.1839 9.43269 12.9752 9.38393 12.7689 9.34213L13.0657 8.08812L12.2773 7.90002L11.9712 9.18189C11.8042 9.14241 11.635 9.11223 11.468 9.07275L10.3944 8.81498L10.1973 9.64402C10.1973 9.64402 10.7793 9.77174 10.7585 9.78335C11.0738 9.8623 11.1341 10.069 11.1225 10.2269L10.777 11.6876C10.7979 11.6969 10.8257 11.6969 10.8559 11.7178C10.8257 11.7085 10.8072 11.7085 10.777 11.6992L10.304 13.7427C10.2646 13.8403 10.1648 13.9796 9.9492 13.9308C9.95847 13.9401 9.37645 13.7915 9.37645 13.7915L9.00776 14.6902L10.0234 14.9271C10.2112 14.9758 10.399 15.0153 10.5753 15.0664L10.2692 16.3599L11.0483 16.548L11.3544 15.2661C11.5724 15.3242 11.7787 15.3753 11.9758 15.424L11.6698 16.6966L12.4489 16.8847L12.755 15.5912C14.086 15.8281 15.0807 15.719 15.4842 14.5044C15.8088 13.5361 15.4541 12.9834 14.7445 12.6188C15.2639 12.5004 15.6396 12.1636 15.7369 11.4739ZM13.9839 13.9889C13.7567 14.9573 12.1219 14.4533 11.5979 14.3256L12.0013 12.6072C12.5347 12.7372 14.2204 12.9741 13.9839 13.9889ZM14.1996 11.4739C13.9932 12.3517 12.6321 11.9291 12.1892 11.8199L12.5648 10.2617C12.9984 10.3685 14.4175 10.5566 14.1996 11.4739Z" fill="currentColor" stroke="none" />
    <path d="M5.29152 17.8593C5.64103 17.5965 5.68643 17.1906 5.45938 16.8144C5.20892 16.3994 4.72894 16.2483 4.21435 16.5589C3.70204 16.868 3.60509 17.3569 3.86012 17.7795C4.11792 18.2067 4.55093 18.2678 4.84382 18.1294L4.61675 17.748C4.45095 17.8118 4.29413 17.7529 4.19459 17.588C4.06065 17.3661 4.13663 17.1294 4.44599 16.9427C4.74319 16.7634 4.9983 16.7961 5.13545 17.0233C5.23866 17.1944 5.20652 17.3662 5.06217 17.4792L5.29152 17.8593Z" fill="currentColor" stroke="none" />
    <path d="M6.82736 19.8033C7.24146 19.3677 7.19544 18.8646 6.84155 18.5282C6.48637 18.1905 5.98353 18.1718 5.56943 18.6075C5.15716 19.0411 5.19941 19.5443 5.55459 19.882C5.90849 20.2184 6.41326 20.2389 6.82736 19.8033ZM6.50178 19.4938C6.2565 19.7518 6.01052 19.7838 5.82006 19.6027C5.63024 19.4223 5.64909 19.1744 5.89437 18.9163C6.13965 18.6583 6.38627 18.627 6.57609 18.8074C6.76654 18.9885 6.74706 19.2357 6.50178 19.4938Z" fill="currentColor" stroke="none" />
    <path d="M7.90065 19.487L7.0803 21.1096L7.46218 21.3026L7.96889 20.3004L7.98236 20.3072L7.87066 21.4962L8.11469 21.6196L9.00319 20.8303L9.01665 20.8371L8.51275 21.8338L8.89463 22.0269L9.71498 20.4043L9.22931 20.1587L8.30941 20.955L8.2904 20.9454L8.38632 19.7325L7.90065 19.487Z" fill="currentColor" stroke="none" />
    <path d="M10.2576 20.5826L9.97595 22.3788L10.3987 22.4451L10.5726 21.3356L10.5875 21.3379L10.8469 22.5037L11.117 22.546L11.7198 21.5217L11.7347 21.5241L11.5617 22.6274L11.9844 22.6937L12.266 20.8974L11.7284 20.8132L11.098 21.8538L11.0769 21.8505L10.7952 20.6669L10.2576 20.5826Z" fill="currentColor" stroke="none" />
    <path d="M13.9549 20.7335L14.0971 21.8592C14.1208 22.0468 14.0049 22.1983 13.8102 22.2229C13.6147 22.2476 13.4655 22.1296 13.4418 21.942L13.2996 20.8163L12.8636 20.8714L13.0106 22.0349C13.0616 22.4383 13.3992 22.6596 13.8581 22.6017C14.3134 22.5441 14.588 22.2455 14.537 21.8421L14.39 20.6786L13.9549 20.7335Z" fill="currentColor" stroke="none" />
    <path d="M16.416 19.9485L16.0081 20.1108L16.3957 21.0851L16.3817 21.0906L15.3286 20.3811L14.9769 20.5211L15.6496 22.212L16.0583 22.0494L15.6701 21.0735L15.6808 21.0692L16.742 21.7774L17.0887 21.6394L16.416 19.9485Z" fill="currentColor" stroke="none" />
    <path d="M17.3288 19.3561L16.9615 19.5974L17.96 21.1169L18.3273 20.8756L17.3288 19.3561Z" fill="currentColor" stroke="none" />
    <path d="M18.0757 19.2771L18.4719 18.8924L19.4898 19.9409L19.8006 19.6392L18.7828 18.5907L19.1784 18.2067L18.9298 17.9506L17.8271 19.021L18.0757 19.2771Z" fill="currentColor" stroke="none" />
    <path d="M19.2441 17.6067L20.6192 17.6712L21.1353 17.9869L21.3625 17.6157L20.8463 17.2999L20.1628 16.105L19.9075 16.5223L20.3543 17.2447L20.346 17.2583L19.4994 17.1894L19.2441 17.6067Z" fill="currentColor" stroke="none" />
    <path d="M4.23356 11.7444L4.37327 10.9406C4.44214 10.5444 4.27 10.2802 3.98048 10.2298C3.72158 10.1848 3.52621 10.3446 3.47888 10.5599L3.46139 10.5568C3.45449 10.3529 3.33593 10.1899 3.13126 10.1543C2.86099 10.1074 2.642 10.2837 2.57207 10.6861L2.44224 11.4331L4.23356 11.7444ZM3.95982 11.2508L3.53298 11.1766L3.58087 10.9011C3.6096 10.7358 3.71471 10.6495 3.85203 10.6734C3.97886 10.6954 4.03888 10.796 4.00634 10.9831L3.95982 11.2508ZM3.25396 11.1281L2.86124 11.0599L2.90411 10.8132C2.92919 10.6689 3.0195 10.59 3.13846 10.6106C3.26441 10.6325 3.32025 10.7468 3.29562 10.8884L3.25396 11.1281Z" fill="currentColor" stroke="none" />
    <path d="M3.13693 8.71407L2.98203 9.12532L4.6835 9.76622L4.83841 9.35497L3.13693 8.71407Z" fill="currentColor" stroke="none" />
    <path d="M3.80794 8.03401L4.0968 7.56338L5.34222 8.32778L5.56885 7.95854L4.32342 7.19415L4.61181 6.72427L4.30764 6.53759L3.50378 7.84733L3.80794 8.03401Z" fill="currentColor" stroke="none" />
    <path d="M6.50653 5.13955C6.16982 4.86056 5.76449 4.9106 5.45121 5.21878C5.10566 5.55871 5.07015 6.06064 5.49164 6.48911C5.91127 6.91567 6.40925 6.89653 6.76114 6.55037C7.11682 6.20048 7.07582 5.76509 6.87324 5.51232L6.55493 5.82171C6.65543 5.96818 6.6346 6.13437 6.49726 6.26947C6.31246 6.45127 6.06465 6.43229 5.81125 6.1747C5.56782 5.92724 5.54041 5.67151 5.72965 5.48536C5.87204 5.34528 6.04664 5.33666 6.19009 5.45084L6.50653 5.13955Z" fill="currentColor" stroke="none" />
    <path d="M8.8166 3.99904C8.5221 3.47614 8.02839 3.37269 7.60359 3.61195C7.17724 3.85208 7.01211 4.3266 7.30661 4.84949C7.59981 5.37007 8.09251 5.47715 8.51886 5.23702C8.94366 4.99776 9.1111 4.52194 8.8166 3.99904ZM8.42578 4.21916C8.60022 4.52888 8.55868 4.77305 8.33006 4.90181C8.10221 5.03014 7.8711 4.93953 7.69666 4.62981C7.52222 4.32009 7.56453 4.07549 7.79238 3.94716C8.021 3.81839 8.25134 3.90944 8.42578 4.21916Z" fill="currentColor" stroke="none" />
    <path d="M9.72994 2.74244L9.31074 2.87429L9.85627 4.6087L10.2755 4.47685L9.72994 2.74244Z" fill="currentColor" stroke="none" />
    <path d="M12.2267 2.32935L11.7926 2.37759L11.9078 3.4147L11.8929 3.41636L11.0692 2.45796L10.6948 2.49956L10.8948 4.29956L11.3299 4.25122L11.2144 3.21235L11.2259 3.21108L12.0576 4.17036L12.4267 4.12935L12.2267 2.32935Z" fill="currentColor" stroke="none" />
    <path d="M14.6492 4.41841C15.1841 4.56272 15.6048 4.32223 15.7528 3.77367C15.9006 3.22596 15.6577 2.80732 15.122 2.66277L14.474 2.48793L14.0004 4.24334L14.6492 4.41841ZM14.5222 3.99611L14.8007 2.96412L15.003 3.0187C15.3047 3.10011 15.4297 3.28096 15.3277 3.65895C15.2252 4.03866 15.0262 4.13209 14.7305 4.05231L14.5222 3.99611Z" fill="currentColor" stroke="none" />
    <path d="M16.0445 4.90498L17.1475 5.51351L17.3188 5.20301L16.5982 4.80543L16.7776 4.48026L17.4418 4.84674L17.6135 4.53547L16.9493 4.16899L17.1283 3.8446L17.8489 4.24218L18.0202 3.93169L16.9173 3.32317L16.0445 4.90498Z" fill="currentColor" stroke="none" />
    <path d="M19.2477 5.57756L19.5593 5.86033C19.7852 5.60614 19.7392 5.2539 19.4262 4.96993C19.1185 4.69073 18.7448 4.65734 18.5195 4.90963C18.3333 5.1135 18.3723 5.35861 18.5567 5.62305L18.6676 5.78359C18.7845 5.95201 18.8145 6.05237 18.7472 6.12917C18.6713 6.21016 18.5425 6.19756 18.4116 6.07884C18.2676 5.94819 18.2338 5.79523 18.3441 5.65914L18.0325 5.37637C17.7507 5.69487 17.833 6.04409 18.1716 6.35133C18.5069 6.65558 18.8433 6.68387 19.0766 6.42931C19.2704 6.21312 19.2444 5.94979 19.0319 5.65026L18.94 5.51896C18.8416 5.3817 18.801 5.27054 18.8764 5.19272C18.9439 5.11968 19.0553 5.12369 19.1816 5.23824C19.3085 5.35337 19.3263 5.47381 19.2477 5.57756Z" fill="currentColor" stroke="none" />
    <path d="M20.8108 6.55573L20.5471 6.20417L19.0926 7.29507L19.3562 7.64664L20.8108 6.55573Z" fill="currentColor" stroke="none" />
    <path d="M21.3616 8.70865L21.5538 9.10977C21.8612 8.91323 21.953 8.51094 21.7712 8.13144C21.5613 7.6935 21.0874 7.49531 20.551 7.75232C20.0322 8.00089 19.8638 8.47337 20.0889 8.94334C20.2911 9.36527 20.6975 9.54167 21.1379 9.33069L21.3548 9.22674L21.0161 8.51978L20.7271 8.65826L20.8828 8.98331C20.708 9.06217 20.5408 8.99463 20.438 8.78006C20.3202 8.53426 20.434 8.30547 20.7495 8.15434C21.0625 8.00435 21.3136 8.06814 21.4275 8.30593C21.5035 8.46445 21.4776 8.60975 21.3616 8.70865Z" fill="currentColor" stroke="none" />
    <path d="M22.7005 11.3944L22.6204 10.9632L21.5904 11.1546L21.5877 11.1398L22.4868 10.2448L22.4177 9.873L20.6301 10.2053L20.7105 10.6373L21.7421 10.4456L21.7443 10.4569L20.8448 11.36L20.9129 11.7266L22.7005 11.3944Z" fill="currentColor" stroke="none" />
</svg>
