<svg width="100" height="100" viewBox="0 0 100 100" fill="none" xmlns="http://www.w3.org/2000/svg">
<path d="M50 99.5C77.3381 99.5 99.5 77.3381 99.5 50C99.5 22.6619 77.3381 0.5 50 0.5C22.6619 0.5 0.5 22.6619 0.5 50C0.5 77.3381 22.6619 99.5 50 99.5Z" stroke="black"/>
<path d="M50 96.5C75.6812 96.5 96.5 75.6812 96.5 50C96.5 24.3188 75.6812 3.5 50 3.5C24.3188 3.5 3.5 24.3188 3.5 50C3.5 75.6812 24.3188 96.5 50 96.5Z" stroke="black"/>
<path d="M50 77.5C65.1878 77.5 77.5 65.1878 77.5 50C77.5 34.8122 65.1878 22.5 50 22.5C34.8122 22.5 22.5 34.8122 22.5 50C22.5 65.1878 34.8122 77.5 50 77.5Z" stroke="black"/>
<path d="M50 74.5C63.531 74.5 74.5 63.531 74.5 50C74.5 36.469 63.531 25.5 50 25.5C36.469 25.5 25.5 36.469 25.5 50C25.5 63.531 36.469 74.5 50 74.5Z" stroke="black"/>
<path d="M85.7536 61.0811C86.5821 61.0811 87.2536 60.4095 87.2536 59.5811C87.2536 58.7526 86.5821 58.0811 85.7536 58.0811C84.9252 58.0811 84.2536 58.7526 84.2536 59.5811C84.2536 60.4095 84.9252 61.0811 85.7536 61.0811Z" stroke="black"/>
<path d="M14.2447 61.08C15.0731 61.08 15.7447 60.4084 15.7447 59.58C15.7447 58.7515 15.0731 58.08 14.2447 58.08C13.4163 58.08 12.7447 58.7515 12.7447 59.58C12.7447 60.4084 13.4163 61.08 14.2447 61.08Z" stroke="black"/>
<path d="M62.9478 45.8956C63.4579 42.1057 60.5826 40.1272 56.6406 38.7896L57.865 33.6621L54.7485 32.9097L53.5612 37.9257C52.7357 37.7307 51.901 37.5356 51.0755 37.3684L52.2627 32.3524L49.1091 31.6L47.8848 36.7274C47.217 36.5695 46.5399 36.4488 45.8721 36.2909L41.5776 35.2598L40.7892 38.5759C40.7892 38.5759 43.1173 39.0868 43.0338 39.1333C44.2953 39.4491 44.5364 40.2758 44.4901 40.9075L43.108 46.7502C43.1915 46.7873 43.3028 46.7873 43.4234 46.8709C43.3028 46.8338 43.2286 46.8338 43.108 46.7966L41.2159 54.9709C41.0582 55.361 40.6594 55.9183 39.7968 55.7233C39.8339 55.7604 37.5058 55.1659 37.5058 55.1659L36.031 58.7607L40.0936 59.7082C40.8449 59.9033 41.5962 60.0612 42.3011 60.2655L41.0768 65.4394L44.1932 66.1918L45.4176 61.0644C46.2895 61.2966 47.115 61.5009 47.9033 61.696L46.679 66.7863L49.7955 67.5387L51.0198 62.3648C56.3438 63.3123 60.3229 62.8757 61.9368 58.0176C63.2353 54.1441 61.8162 51.9334 58.978 50.475C61.0556 50.0013 62.5582 48.6544 62.9478 45.8956ZM55.9357 55.9555C55.0267 59.8289 48.4877 57.8133 46.3915 57.3024L48.0054 50.4286C50.1387 50.9488 56.8818 51.8962 55.9357 55.9555ZM56.7983 45.8956C55.9728 49.4068 50.5282 47.7162 48.7567 47.2796L50.2593 41.0468C51.9937 41.4741 57.6702 42.2265 56.7983 45.8956Z" fill="black"/>
<path d="M24.735 75.789C25.8027 74.5847 25.708 73.0516 24.6737 71.843C23.4548 70.4189 21.4985 70.2347 19.7363 71.743C17.9767 73.2489 17.8427 75.1992 19.073 76.6366C20.1825 77.933 21.7569 78.0751 22.9276 77.336L22.0808 76.3359C21.3349 76.7576 20.529 76.5434 19.9708 75.8913C19.2144 75.0075 19.335 73.8067 20.5861 72.7359C21.8159 71.6833 23.0377 71.726 23.8009 72.6177C24.3682 73.2805 24.4372 74.1208 23.883 74.7935L24.735 75.789Z" fill="black"/>
<path d="M30.6616 81.869C32.0367 80.001 31.7069 78.0614 30.1917 76.9459C28.6737 75.8284 26.7264 76.0917 25.3513 77.9596C23.9782 79.8247 24.3032 81.7651 25.8212 82.8826C27.3364 83.9981 29.2865 83.7369 30.6616 81.869ZM29.6091 81.0941C28.6411 82.409 27.4553 82.6368 26.5129 81.943C25.5733 81.2513 25.4358 80.0493 26.4038 78.7344C27.3718 77.4195 28.5604 77.1938 29.5 77.8855C30.4424 78.5793 30.5771 79.7793 29.6091 81.0941Z" fill="black"/>
<path d="M33.9602 79.718L31.2872 86.3774L32.4447 86.842L34.285 82.2572L34.3468 82.282L34.3548 87.586L35.2197 87.9332L38.8887 84.1164L38.9505 84.1412L37.1141 88.7162L38.2717 89.1809L40.9446 82.5215L39.4684 81.929L35.5545 85.9608L35.4765 85.9295L35.4364 80.3106L33.9602 79.718Z" fill="black"/>
<path d="M42.5242 82.9252L41.7492 90.059L42.9893 90.1937L43.5228 85.2822L43.589 85.2894L45.0293 90.3941L45.9558 90.4948L48.4575 85.8289L48.5237 85.8361L47.9913 90.7371L49.2313 90.8718L50.0063 83.738L48.4249 83.5662L45.7455 88.5053L45.6619 88.4963L44.1056 83.097L42.5242 82.9252Z" fill="black"/>
<path d="M56.1883 83.0135L56.8091 87.5507C56.9311 88.4428 56.3971 89.1666 55.4216 89.3001C54.4427 89.434 53.7374 88.8798 53.6153 87.9876L52.9946 83.4504L51.7067 83.6266L52.3421 88.2714C52.5511 89.7988 53.8396 90.687 55.5788 90.4491C57.3111 90.2121 58.3206 89.0095 58.1117 87.4821L57.4762 82.8373L56.1883 83.0135Z" fill="black"/>
<path d="M64.6417 80.3374L63.43 80.7886L65.1368 85.3724L65.0777 85.3944L60.2056 81.9892L59.1154 82.3951L61.6193 89.1198L62.8375 88.6662L61.132 84.0856L61.1878 84.0649L66.062 87.4656L67.1456 87.0622L64.6417 80.3374Z" fill="black"/>
<path d="M67.3046 78.7142L66.1776 79.362L69.7532 85.5834L70.8802 84.9357L67.3046 78.7142Z" fill="black"/>
<path d="M69.3703 78.8547L71.1029 77.4701L74.9024 82.2245L75.9097 81.4196L72.1102 76.6652L73.8428 75.2806L73.1625 74.4293L68.6901 78.0035L69.3703 78.8547Z" fill="black"/>
<path d="M73.8333 73.8237L78.9652 74.6703L81.0311 76.3726L81.8555 75.3722L79.7896 73.6698L77.9777 68.7943L77.0441 69.9273L78.3776 73.3007L78.333 73.3548L74.7669 72.6908L73.8333 73.8237Z" fill="black"/>
<path d="M16.7709 46.8349L17.2613 43.9719C17.5388 42.3522 16.8494 41.4166 15.7478 41.2279C14.6772 41.0445 13.9185 41.6966 13.7516 42.4429L13.6825 42.4311C13.6385 41.7126 13.2485 41.0841 12.3886 40.9368C11.3352 40.7564 10.4246 41.3825 10.162 42.9158L9.69817 45.6234L16.7709 46.8349ZM15.9198 45.3703L13.8477 45.0153L14.0897 43.6028C14.2251 42.812 14.7926 42.4044 15.4246 42.5127C15.9875 42.6091 16.315 43.0633 16.1558 43.9923L15.9198 45.3703ZM12.9256 44.8574L10.9744 44.5231L11.1962 43.2281C11.3252 42.4752 11.7892 42.153 12.3349 42.2465C12.9565 42.353 13.2569 42.9234 13.1427 43.5899L12.9256 44.8574Z" fill="black"/>
<path d="M12.3274 35.2121L11.872 36.4296L18.5929 38.9438L19.0483 37.7263L12.3274 35.2121Z" fill="black"/>
<path d="M14.8463 32.0338L15.9979 30.1383L21.1993 33.2983L21.8688 32.1963L16.6674 29.0363L17.8189 27.1408L16.8877 26.575L13.915 31.468L14.8463 32.0338Z" fill="black"/>
<path d="M25.3573 20.7801C24.0739 19.8089 22.5527 20.0219 21.4279 21.1467C20.1024 22.4722 20.0702 24.4369 21.7104 26.0771C23.348 27.7147 25.3028 27.6974 26.6407 26.3595C27.8473 25.1529 27.8671 23.5723 27.0396 22.4623L26.108 23.384C26.5862 24.095 26.435 24.9151 25.828 25.5221C25.0055 26.3446 23.7989 26.3174 22.6345 25.1529C21.4899 24.0083 21.4378 22.7869 22.2678 21.9569C22.8847 21.34 23.7172 21.2062 24.4307 21.7067L25.3573 20.7801Z" fill="black"/>
<path d="M34.5603 16.3432C33.4072 14.3306 31.4997 13.8486 29.8671 14.784C28.2315 15.7211 27.6856 17.6087 28.8387 19.6213C29.99 21.6308 31.8963 22.1176 33.5319 21.1805C35.1644 20.2451 35.7134 18.3557 34.5603 16.3432ZM33.4263 16.9929C34.238 18.4096 33.9673 19.5863 32.9519 20.1681C31.9395 20.7481 30.7844 20.3883 29.9727 18.9716C29.161 17.5548 29.4347 16.3764 30.4471 15.7963C31.4625 15.2146 32.6146 15.5761 33.4263 16.9929Z" fill="black"/>
<path d="M38.0279 11.3424L36.7924 11.7467L39.0241 18.5666L40.2596 18.1623L38.0279 11.3424Z" fill="black"/>
<path d="M48.1679 9.47507L46.8838 9.62592L47.4545 14.4838L47.3919 14.4912L43.4666 10.0273L42.3113 10.1631L43.1485 17.2898L44.4395 17.1382L43.8693 12.2838L43.9284 12.2768L47.8567 16.7367L49.0051 16.6018L48.1679 9.47507Z" fill="black"/>
<path d="M58.3914 17.8209C60.5017 18.3925 62.1066 17.4259 62.6928 15.2615C63.2772 13.1038 62.3776 11.4662 60.3146 10.9075L57.9202 10.259L56.0443 17.1853L58.3914 17.8209ZM57.5931 16.4395L58.8809 11.6844L59.9496 11.9739C61.3565 12.3549 61.8778 13.3383 61.4483 14.9244C61.0169 16.5173 60.0686 17.1099 58.6246 16.7188L57.5931 16.4395Z" fill="black"/>
<path d="M64.2127 19.8117L68.3107 22.103L68.8425 21.1519L65.8791 19.495L66.8349 17.7855L69.5629 19.3107L70.0946 18.3596L67.3667 16.8343L68.3174 15.134L71.2563 16.7772L71.7881 15.8261L67.7146 13.5485L64.2127 19.8117Z" fill="black"/>
<path d="M76.9604 22.497L77.8849 23.3397C78.6834 22.4272 78.4978 21.0965 77.3688 20.0674C76.2554 19.0524 74.8478 18.9167 73.9959 19.8564C73.302 20.6177 73.4443 21.5487 74.1116 22.5694L74.5733 23.2747C75.0134 23.9414 75.2286 24.4646 74.8559 24.8787C74.4402 25.3295 73.7342 25.2407 73.1075 24.6695C72.5068 24.1219 72.2862 23.4277 72.7548 22.8355L71.8097 21.974C70.8878 23.0633 71.1319 24.3715 72.3671 25.4974C73.6385 26.6563 74.9548 26.6946 75.8095 25.7622C76.6448 24.8406 76.2685 23.7295 75.6432 22.8135L75.2593 22.236C74.9187 21.7359 74.615 21.1224 75.0238 20.6844C75.3899 20.2879 76.014 20.3211 76.6147 20.8687C77.187 21.3903 77.3219 22.0016 76.9604 22.497Z" fill="black"/>
<path d="M82.7085 26.1807L81.9286 25.1407L76.188 29.4462L76.9679 30.4861L82.7085 26.1807Z" fill="black"/>
<path d="M85.2075 35.1407L85.7798 36.3351C86.9546 35.5275 87.3125 34.0039 86.6267 32.5725C85.8153 30.8789 83.9617 30.2051 81.8762 31.2043C79.8286 32.1853 79.1397 34.0073 79.9951 35.7926C80.7627 37.3947 82.3423 38.0481 84.0107 37.2488L84.788 36.8763L83.53 34.2505L82.6136 34.6896L83.3282 36.181C82.3964 36.6041 81.5166 36.268 81.0504 35.2948C80.5311 34.211 80.9874 33.0793 82.4535 32.3769C83.9102 31.6789 85.081 32.0466 85.5821 33.0925C85.956 33.873 85.7933 34.6037 85.2075 35.1407Z" fill="black"/>
<path d="M90.3172 45.4921L90.0818 44.2208L85.2723 45.1113L85.2608 45.0493L89.4554 40.8376L89.2436 39.6937L82.1878 41.0002L82.4244 42.2784L87.2305 41.3885L87.2414 41.447L83.0509 45.6616L83.2614 46.7985L90.3172 45.4921Z" fill="black"/>
</svg>
