<svg width="30" height="30" viewBox="0 0 30 30" stroke="none" xmlns="http://www.w3.org/2000/svg">
<path fill-rule="evenodd" clip-rule="evenodd" d="M3 16.1016C3 12.2356 6.13401 9.10156 10 9.10156H25C26.1046 9.10156 27 9.99699 27 11.1016V25.1016C27 26.2061 26.1046 27.1016 25 27.1016H10C6.13401 27.1016 3 23.9676 3 20.1016V16.1016ZM6 16.1016C6 13.8924 7.79086 12.1016 10 12.1016H16C18.2091 12.1016 20 13.8924 20 16.1016V20.1016C20 22.3107 18.2091 24.1016 16 24.1016H10C7.79086 24.1016 6 22.3107 6 20.1016V16.1016ZM23.5 24.1016C24.3284 24.1016 25 23.43 25 22.6016C25 21.7731 24.3284 21.1016 23.5 21.1016C22.6716 21.1016 22 21.7731 22 22.6016C22 23.43 22.6716 24.1016 23.5 24.1016ZM25 18.1016C25 18.93 24.3284 19.6016 23.5 19.6016C22.6716 19.6016 22 18.93 22 18.1016C22 17.2731 22.6716 16.6016 23.5 16.6016C24.3284 16.6016 25 17.2731 25 18.1016ZM23.5 15.1016C24.3284 15.1016 25 14.43 25 13.6016C25 12.7731 24.3284 12.1016 23.5 12.1016C22.6716 12.1016 22 12.7731 22 13.6016C22 14.43 22.6716 15.1016 23.5 15.1016Z"/>
<path fill-rule="evenodd" clip-rule="evenodd" d="M18.2559 2.24408C18.5813 2.56951 18.5813 3.09714 18.2559 3.42258L16.3452 5.3333H17.6667C18.0037 5.3333 18.3076 5.53633 18.4365 5.84773C18.5655 6.15912 18.4942 6.51755 18.2559 6.75588L14.9226 10.0892C14.5972 10.4146 14.0695 10.4146 13.7441 10.0892C13.4187 9.76374 13.4187 9.23611 13.7441 8.91068L15.6548 6.99995H14.3333C13.9963 6.99995 13.6924 6.79692 13.5635 6.48553C13.4345 6.17413 13.5058 5.81571 13.7441 5.57738L17.0774 2.24408C17.4028 1.91864 17.9305 1.91864 18.2559 2.24408Z"/>
</svg>
