<svg width="30" height="30" viewBox="0 0 30 30" fill="none" xmlns="http://www.w3.org/2000/svg">
<g clip-path="url(#clip0_3_2)">
<rect width="30" height="30" fill="white"/>
<path d="M24.7923 6.30082C24.7845 6.28585 24.7717 6.27412 24.7561 6.26774C22.9542 5.441 21.0527 4.85146 19.0991 4.5139C19.0814 4.5106 19.063 4.51298 19.0467 4.5207C19.0304 4.52842 19.0169 4.54109 19.0082 4.55691C18.7493 5.02687 18.5142 5.50959 18.304 6.00324C16.1981 5.68357 14.0561 5.68357 11.9502 6.00324C11.7386 5.50834 11.4997 5.02549 11.2349 4.55691C11.2258 4.54144 11.2122 4.52906 11.196 4.52139C11.1798 4.51371 11.1617 4.5111 11.1439 4.5139C9.19015 4.85076 7.28848 5.44033 5.4868 6.26778C5.47138 6.27432 5.45836 6.28549 5.44955 6.29973C1.84654 11.6804 0.859542 16.9287 1.34373 22.112C1.34509 22.1247 1.349 22.137 1.35521 22.1482C1.36142 22.1594 1.36981 22.1692 1.37989 22.177C3.47789 23.7304 5.82453 24.9162 8.31966 25.6836C8.33724 25.6889 8.356 25.6886 8.37343 25.6829C8.39086 25.6772 8.40613 25.6663 8.41717 25.6517C8.95307 24.9225 9.42792 24.1503 9.83689 23.3431C9.84251 23.332 9.84572 23.3199 9.84631 23.3075C9.84689 23.2951 9.84484 23.2827 9.84029 23.2711C9.83574 23.2596 9.82879 23.2491 9.8199 23.2404C9.81102 23.2317 9.80039 23.2251 9.78873 23.2208C9.03993 22.9343 8.315 22.5889 7.62075 22.1879C7.60814 22.1805 7.59754 22.1701 7.58991 22.1576C7.58227 22.1451 7.57782 22.1309 7.57696 22.1163C7.5761 22.1017 7.57884 22.0871 7.58495 22.0739C7.59106 22.0606 7.60035 22.049 7.612 22.0401C7.75768 21.931 7.90344 21.8175 8.04255 21.7028C8.0549 21.6926 8.06986 21.6861 8.08573 21.684C8.10159 21.6818 8.11774 21.6842 8.13235 21.6907C12.6807 23.7665 17.6049 23.7665 22.0993 21.6907C22.114 21.6837 22.1303 21.6811 22.1464 21.683C22.1625 21.685 22.1777 21.6915 22.1903 21.7017C22.3294 21.8164 22.4752 21.931 22.6219 22.0401C22.6336 22.0489 22.643 22.0604 22.6492 22.0736C22.6554 22.0869 22.6583 22.1014 22.6575 22.1161C22.6568 22.1307 22.6524 22.1448 22.6449 22.1574C22.6373 22.1699 22.6268 22.1804 22.6143 22.1879C21.9216 22.5923 21.196 22.9374 20.4452 23.2197C20.4336 23.2241 20.423 23.231 20.4142 23.2398C20.4053 23.2486 20.3985 23.2592 20.394 23.2708C20.3895 23.2825 20.3876 23.2949 20.3883 23.3074C20.3889 23.3198 20.3923 23.332 20.398 23.3431C20.8138 24.1459 21.2879 24.917 21.8166 25.6504C21.8273 25.6654 21.8425 25.6767 21.86 25.6826C21.8775 25.6886 21.8964 25.6889 21.9141 25.6835C24.4137 24.9186 26.7645 23.7328 28.8651 22.177C28.8753 22.1695 28.8838 22.16 28.8901 22.149C28.8963 22.1379 28.9001 22.1257 28.9012 22.1131C29.4809 16.1206 27.9308 10.9153 24.7923 6.30082ZM10.5161 18.9559C9.14677 18.9559 8.01844 17.6993 8.01844 16.1559C8.01844 14.6126 9.12488 13.3559 10.5161 13.3559C11.9183 13.3559 13.0357 14.6235 13.0138 16.1558C13.0138 17.6993 11.9073 18.9559 10.5161 18.9559ZM19.7509 18.9559C18.3816 18.9559 17.2532 17.6993 17.2532 16.1559C17.2532 14.6126 18.3597 13.3559 19.7509 13.3559C21.1531 13.3559 22.2705 14.6235 22.2486 16.1558C22.2486 17.6993 21.1531 18.9559 19.7509 18.9559Z" fill="black"/>
</g>
<defs>
<clipPath id="clip0_3_2">
<rect width="30" height="30" fill="white"/>
</clipPath>
</defs>
</svg>
