<svg width="30" height="30" viewBox="0 0 30 30" xmlns="http://www.w3.org/2000/svg">
<path fill-rule="evenodd" clip-rule="evenodd" d="M14.999 3C8.373 3 3 8.373 3 15.001C3 20.302 6.438 24.8 11.207 26.387C11.807 26.497 12.026 26.127 12.026 25.809C12.026 25.524 12.016 24.769 12.01 23.768C8.672 24.493 7.968 22.159 7.968 22.159C7.422 20.773 6.636 20.404 6.636 20.404C5.546 19.659 6.718 19.675 6.718 19.675C7.922 19.76 8.556 20.912 8.556 20.912C9.626 22.746 11.365 22.216 12.048 21.909C12.157 21.134 12.467 20.605 12.81 20.305C10.145 20.002 7.344 18.973 7.344 14.374C7.344 13.064 7.812 11.993 8.579 11.154C8.456 10.85 8.044 9.63 8.697 7.978C8.697 7.978 9.705 7.655 11.997 9.208C12.954 8.942 13.981 8.809 15.001 8.804C16.02 8.809 17.047 8.942 18.005 9.208C20.296 7.655 21.302 7.978 21.302 7.978C21.957 9.63 21.545 10.85 21.421 11.154C22.19 11.993 22.654 13.064 22.654 14.374C22.654 18.984 19.848 19.998 17.175 20.295C17.606 20.665 17.99 21.398 17.99 22.517C17.99 24.121 17.975 25.415 17.975 25.809C17.975 26.13 18.191 26.503 18.8 26.386C23.565 24.795 27 20.301 27 15.001C27 8.373 21.627 3 14.999 3Z"/>
</svg>
