<svg width="30" height="30" viewBox="0 0 30 30" stroke="none" xmlns="http://www.w3.org/2000/svg">
<path d="M26.425 13.9091V25.4419C26.425 25.8756 26.0731 26.2275 25.6394 26.2275H16.2114C15.7777 26.2275 15.4257 25.8756 15.4257 25.4419V23.2941C15.4687 20.6614 15.7472 18.1395 16.332 16.9922C16.6825 16.3021 17.2603 15.9266 17.9241 15.7257C19.1781 15.3488 21.3785 15.6065 22.3124 15.5622C22.3124 15.5622 25.1336 15.6744 25.1336 14.0768C25.1336 12.7909 23.8727 12.892 23.8727 12.892C22.4829 12.9281 21.4242 12.8338 20.7383 12.5636C19.5896 12.1119 19.5508 11.2833 19.5467 11.0062C19.4899 7.8053 14.7703 7.42147 10.612 8.21545C6.06566 9.0801 10.6619 15.5968 10.6619 24.2959V25.4571C10.6536 25.8839 10.3085 26.2289 9.87898 26.2289H5.21071C4.777 26.2289 4.42505 25.877 4.42505 25.4433V5.4968C4.42505 5.06309 4.777 4.71114 5.21071 4.71114H9.59907C10.0328 4.71114 10.3847 5.06309 10.3847 5.4968C10.3847 6.14113 11.1094 6.50002 11.6332 6.1245C13.2115 4.99381 15.2373 4.39105 17.5042 4.39105C22.5826 4.39105 26.4223 7.35081 26.4223 13.9091H26.425ZM17.9947 11.5687C17.9947 10.6403 17.2423 9.88794 16.3139 9.88794C15.3856 9.88794 14.6331 10.6403 14.6331 11.5687C14.6331 12.4971 15.3856 13.2495 16.3139 13.2495C17.2423 13.2495 17.9947 12.4971 17.9947 11.5687Z"/>
</svg>
