<svg width="30" height="30" viewBox="0 0 30 30" xmlns="http://www.w3.org/2000/svg">
<path d="M9.21639 17.6332C9.21639 18.7947 8.27765 19.7334 7.11615 19.7334C5.95466 19.7334 5.01591 18.7947 5.01591 17.6332C5.01591 16.4717 5.95466 15.533 7.11615 15.533H9.21639V17.6332ZM10.2665 17.6332C10.2665 16.4717 11.2053 15.533 12.3667 15.533C13.5282 15.533 14.467 16.4717 14.467 17.6332V22.8838C14.467 24.0453 13.5282 24.984 12.3667 24.984C11.2053 24.984 10.2665 24.0453 10.2665 22.8838V17.6332Z"/>
<path d="M12.3667 9.20048C11.2052 9.20048 10.2665 8.26173 10.2665 7.10024C10.2665 5.93874 11.2052 5 12.3667 5C13.5282 5 14.467 5.93874 14.467 7.10024V9.20048H12.3667ZM12.3667 10.2665C13.5282 10.2665 14.467 11.2053 14.467 12.3667C14.467 13.5282 13.5282 14.467 12.3667 14.467H7.10024C5.93874 14.467 5 13.5282 5 12.3667C5 11.2053 5.93874 10.2665 7.10024 10.2665H12.3667Z"/>
<path d="M20.7836 12.3667C20.7836 11.2053 21.7223 10.2665 22.8838 10.2665C24.0453 10.2665 24.9841 11.2053 24.9841 12.3667C24.9841 13.5282 24.0453 14.467 22.8838 14.467H20.7836V12.3667ZM19.7335 12.3667C19.7335 13.5282 18.7947 14.467 17.6332 14.467C16.4717 14.467 15.533 13.5282 15.533 12.3667V7.10024C15.533 5.93874 16.4717 5 17.6332 5C18.7947 5 19.7335 5.93874 19.7335 7.10024V12.3667V12.3667Z"/>
<path d="M17.6332 20.7836C18.7947 20.7836 19.7335 21.7223 19.7335 22.8838C19.7335 24.0453 18.7947 24.984 17.6332 24.984C16.4717 24.984 15.533 24.0453 15.533 22.8838V20.7836H17.6332ZM17.6332 19.7334C16.4717 19.7334 15.533 18.7947 15.533 17.6332C15.533 16.4717 16.4717 15.533 17.6332 15.533H22.8997C24.0612 15.533 25 16.4717 25 17.6332C25 18.7947 24.0612 19.7334 22.8997 19.7334H17.6332Z"/>
</svg>
