<svg width="30" height="30" viewBox="0 0 30 30" stroke="none" xmlns="http://www.w3.org/2000/svg"><path d="M10.5478 24.505C19.605 24.505 24.5577 17.0016 24.5577 10.4951C24.5577 10.282 24.5534 10.0698 24.5438 9.85861C25.5053 9.16356 26.341 8.29619 27 7.30882C26.1178 7.70098 25.1683 7.96499 24.1723 8.08403C25.1889 7.47442 25.9694 6.51009 26.3376 5.36048C25.3862 5.92448 24.3326 6.33441 23.2108 6.55569C22.3123 5.59856 21.0331 5 19.6166 5C16.8973 5 14.6922 7.20514 14.6922 9.92341C14.6922 10.3098 14.7354 10.6857 14.8199 11.0461C10.7274 10.8402 7.09852 8.88084 4.67018 5.90145C4.2473 6.62914 4.00346 7.47442 4.00346 8.37635C4.00346 10.0847 4.87274 11.5929 6.19468 12.4751C5.38683 12.4502 4.62794 12.2284 3.96457 11.8593C3.96385 11.8799 3.96385 11.9001 3.96385 11.9221C3.96385 14.3068 5.66115 16.2979 7.91429 16.7491C7.50053 16.8619 7.06516 16.9224 6.61588 16.9224C6.29907 16.9224 5.99043 16.8912 5.69043 16.8336C6.31731 18.7901 8.13509 20.2137 10.2903 20.2536C8.60502 21.5746 6.48196 22.3613 4.17457 22.3613C3.77761 22.3613 3.38544 22.3387 3 22.2931C5.17922 23.6899 7.76693 24.505 10.5481 24.505"/></svg>
