<svg width="30" height="30" viewBox="0 0 30 30" stroke="none" xmlns="http://www.w3.org/2000/svg"><path d="M27.7404 9.94556C27.7404 9.94556 27.4858 8.15351 26.7069 7.3644C25.7192 6.32837 24.6094 6.32328 24.1028 6.26219C20.4627 6 15.0051 6 15.0051 6H14.9949C14.9949 6 9.5373 6 5.8972 6.26219C5.39064 6.32328 4.28079 6.32837 3.29313 7.3644C2.5142 8.15351 2.25964 9.94556 2.25964 9.94556C2.25964 9.94556 2 12.0482 2 14.1533V16.1261C2 18.2313 2.25964 20.3339 2.25964 20.3339C2.25964 20.3339 2.5142 22.1259 3.29313 22.915C4.28334 23.951 5.58155 23.918 6.15939 24.0274C8.23908 24.226 15 24.2896 15 24.2896C15 24.2896 20.4627 24.282 24.1028 24.0172C24.6119 23.9561 25.7192 23.951 26.7069 22.915C27.4858 22.1259 27.7404 20.3339 27.7404 20.3339C27.7404 20.3339 28 18.2287 28 16.1261V14.1533C28 12.0482 27.7404 9.94556 27.7404 9.94556ZM12.3145 18.5164V11.2107L19.3401 14.8762L12.3145 18.5164Z"/></svg>