<svg fill="none" height="289" viewBox="0 0 800 289" width="800" xmlns="http://www.w3.org/2000/svg"><path d="m.5.5h799v288h-799z" fill="#262337"/><rect fill="#ece9fd" height="100" rx="13" width="359" x="40" y="39"/><path d="m59.0898 108.644v1.311h-2.622v9.045h-1.4429v-9.045h-2.6294v-1.311zm1.8694 4.365c.1758-.391.4761-.711.9009-.96s.8936-.376 1.4062-.381v1.304c-.747 0-1.311.174-1.6918.52-.3809.347-.5713.911-.5713 1.692v3.816h-1.4063v-7.251h1.3623zm5.1213 6.13c-.415 0-.7861-.066-1.1132-.198-.3223-.131-.5884-.349-.7984-.651-.2051-.308-.3076-.686-.3076-1.136 0-.366.0659-.683.1978-.952.1367-.268.3369-.488.6005-.659.2686-.171.5542-.308.857-.41.3076-.103.6738-.191 1.0986-.264l1.1426-.198c.4394-.083.6592-.305.6592-.666 0-.464-.1465-.803-.4395-1.018-.2929-.22-.6592-.33-1.0986-.33-.4492 0-.8203.108-1.1133.322-.293.215-.4663.55-.52 1.004l-1.2671-.256c.1172-.704.4272-1.231.9302-1.582.5078-.352 1.1865-.528 2.0361-.528.3076 0 .5933.025.8569.073.2637.049.5176.135.7618.257.249.122.4589.278.6298.469.1758.185.315.427.4175.725.1074.293.1612.627.1612 1.003v2.937c0 .361.0537.608.1611.74.1123.127.3003.19.564.19h.1098v.989h-.6811c-.7959 0-1.2647-.325-1.4063-.974h-.0659c-.2734.381-.6201.662-1.04.842-.4151.181-.8594.271-1.3331.271zm.3223-1.12c.625 0 1.1328-.223 1.5235-.667.3955-.449.5932-1.052.5932-1.809l-1.897.388c-.4687.078-.8178.205-1.0473.381-.2295.171-.3443.415-.3443.732 0 .328.1075.572.3223.733.2197.161.5029.242.8496.242zm9.2815-6.416c.7812 0 1.3989.219 1.853.659.459.434.6885 1.052.6885 1.853v4.885h-1.4136v-4.57c0-.562-.144-.977-.4321-1.245-.2832-.274-.6494-.411-1.0986-.411-.5176 0-.94.164-1.2671.491-.3272.322-.4932.806-.4981 1.45v4.285h-1.4062v-7.251h1.4062v.894c.2344-.332.5371-.589.9082-.769.376-.181.7959-.271 1.2598-.271zm7.0183 7.536c-.7959 0-1.4575-.173-1.9849-.52-.5273-.347-.8471-.845-.9594-1.494l1.2085-.344c.0878.425.2832.752.5859.981.3076.225.6885.337 1.1426.337.3906 0 .7202-.083.9887-.249.2686-.171.398-.439.3882-.806-.0049-.117-.0244-.224-.0586-.322-.0341-.097-.0952-.183-.1831-.256-.0879-.078-.1709-.144-.249-.198s-.1953-.107-.3516-.161c-.1562-.059-.2856-.105-.3881-.139-.0977-.034-.2515-.081-.4615-.139-.205-.059-.3637-.105-.476-.14-.293-.087-.5372-.175-.7325-.263s-.3955-.208-.6005-.359c-.2051-.151-.3589-.342-.4615-.571-.1025-.23-.1538-.498-.1538-.806 0-.684.2442-1.199.7324-1.545.4883-.352 1.1133-.528 1.875-.528.708 0 1.3037.159 1.7871.476.4883.313.7886.786.9009 1.421l-1.1352.278c-.083-.395-.2661-.688-.5493-.878-.2784-.196-.6104-.293-.9961-.293-.3614 0-.6714.08-.9302.241-.2539.157-.3809.398-.3809.725 0 .171.0415.32.1245.447s.2076.232.3736.315.3344.151.5053.205.3809.113.6299.176c.0684.015.1197.027.1538.037.2784.068.5103.134.6958.197.1856.059.3931.149.6226.271.2344.118.4224.249.564.396.1416.141.2612.329.3588.564.0977.234.1465.498.1465.791 0 .303-.0488.576-.1465.82-.0976.244-.2319.449-.4028.615-.166.162-.3662.298-.6006.411-.2343.107-.4834.185-.747.234-.2588.049-.5371.073-.835.073zm6.0954 0c-.415 0-.7861-.066-1.1132-.198-.3223-.131-.5884-.349-.7984-.651-.2051-.308-.3076-.686-.3076-1.136 0-.366.0659-.683.1978-.952.1367-.268.3369-.488.6005-.659.2686-.171.5542-.308.857-.41.3076-.103.6738-.191 1.0986-.264l1.1426-.198c.4394-.083.6592-.305.6592-.666 0-.464-.1465-.803-.4395-1.018-.2929-.22-.6592-.33-1.0986-.33-.4492 0-.8203.108-1.1133.322-.293.215-.4663.55-.52 1.004l-1.2671-.256c.1172-.704.4272-1.231.9302-1.582.5078-.352 1.1865-.528 2.0361-.528.3076 0 .5933.025.8569.073.2637.049.5176.135.7618.257.249.122.4589.278.6298.469.1758.185.315.427.4175.725.1074.293.1612.627.1612 1.003v2.937c0 .361.0537.608.1611.74.1123.127.3003.19.564.19h.1098v.989h-.6811c-.7959 0-1.2647-.325-1.4063-.974h-.0659c-.2734.381-.6201.662-1.04.842-.4151.181-.8594.271-1.3331.271zm.3223-1.12c.625 0 1.1328-.223 1.5234-.667.3956-.449.5933-1.052.5933-1.809l-1.897.388c-.4687.078-.8178.205-1.0473.381-.2295.171-.3443.415-.3443.732 0 .328.1075.572.3223.733.2197.161.5029.242.8496.242zm8.615 1.113c-1.0645 0-1.9434-.347-2.6367-1.04-.6885-.698-1.0327-1.607-1.0327-2.725s.3442-2.024 1.0327-2.717c.6933-.698 1.5722-1.047 2.6367-1.047.8301 0 1.543.214 2.1387.644.601.43 1.008 1.03 1.223 1.802l-1.3109.198c-.1612-.479-.4248-.845-.791-1.099-.3614-.259-.7862-.388-1.2745-.388-.6543 0-1.1938.239-1.6186.718-.4199.478-.6299 1.108-.6299 1.889 0 .777.21 1.406.6299 1.89.4248.478.9643.718 1.6186.718.4883 0 .9131-.127 1.2745-.381.3662-.259.6298-.628.791-1.106l1.3109.198c-.215.766-.625 1.367-1.2304 1.801-.6005.43-1.311.645-2.1313.645zm7.3187-.132c-.615 0-1.099-.176-1.45-.527-.352-.357-.528-.855-.528-1.494v-4.124h-1.479v-1.106h.535c.38 0 .651-.088.813-.264.166-.175.249-.473.249-.893v-1.253h1.296v2.41h1.641v1.106h-1.641v3.977c0 .337.088.598.264.784.18.185.417.278.71.278h.667v1.106zm3.356-8.855c-.249 0-.466-.09-.652-.271-.18-.181-.271-.395-.271-.645 0-.249.091-.461.271-.637.186-.18.403-.271.652-.271s.462.091.637.271c.181.176.271.388.271.637 0 .254-.09.472-.271.652-.18.176-.393.264-.637.264zm-.718 8.855v-7.251h1.414v7.251zm6.814.139c-1.08 0-1.968-.342-2.666-1.025-.699-.689-1.048-1.604-1.048-2.747 0-1.142.347-2.055 1.04-2.739.698-.684 1.59-1.025 2.674-1.025s1.972.341 2.666 1.025c.693.684 1.04 1.597 1.04 2.739 0 1.143-.347 2.058-1.04 2.747-.694.683-1.582 1.025-2.666 1.025zm-.015-1.157c.674 0 1.23-.239 1.67-.718.439-.483.659-1.116.659-1.897s-.22-1.411-.659-1.889c-.44-.479-.996-.718-1.67-.718-.664 0-1.213.239-1.648.718-.435.478-.652 1.108-.652 1.889s.217 1.414.652 1.897c.435.479.984.718 1.648.718zm8.981-6.379c.781 0 1.399.219 1.853.659.459.434.689 1.052.689 1.853v4.885h-1.414v-4.57c0-.562-.144-.977-.432-1.245-.283-.274-.65-.411-1.099-.411-.517 0-.94.164-1.267.491-.327.322-.493.806-.498 1.45v4.285h-1.406v-7.251h1.406v.894c.234-.332.537-.589.908-.769.376-.181.796-.271 1.26-.271zm10.719 7.397c-.615 0-1.099-.176-1.45-.527-.352-.357-.528-.855-.528-1.494v-4.124h-1.479v-1.106h.534c.381 0 .652-.088.813-.264.166-.175.249-.473.249-.893v-1.253h1.297v2.41h1.64v1.106h-1.64v3.977c0 .337.088.598.264.784.18.185.417.278.71.278h.666v1.106zm5.678.139c-1.079 0-1.968-.342-2.666-1.025-.698-.689-1.048-1.604-1.048-2.747 0-1.142.347-2.055 1.04-2.739.699-.684 1.59-1.025 2.674-1.025s1.972.341 2.666 1.025c.693.684 1.04 1.597 1.04 2.739 0 1.143-.347 2.058-1.04 2.747-.694.683-1.582 1.025-2.666 1.025zm-.015-1.157c.674 0 1.231-.239 1.67-.718.439-.483.659-1.116.659-1.897s-.22-1.411-.659-1.889c-.439-.479-.996-.718-1.67-.718-.664 0-1.213.239-1.648.718-.434.478-.652 1.108-.652 1.889s.218 1.414.652 1.897c.435.479.984.718 1.648.718zm13.37-9.338c.928 0 1.68.307 2.256.922.576.616.864 1.377.864 2.286 0 .913-.288 1.672-.864 2.277-.571.601-1.323.901-2.256.901h-2.534v3.97h-1.457v-10.356zm-.22 5.127c.596 0 1.06-.176 1.392-.528.337-.351.505-.823.505-1.413 0-.572-.168-1.036-.505-1.392-.332-.361-.796-.542-1.392-.542h-2.314v3.875zm6.103 5.368c-.415 0-.786-.066-1.113-.198-.322-.131-.588-.349-.798-.651-.205-.308-.308-.686-.308-1.136 0-.366.066-.683.198-.952.137-.268.337-.488.6-.659.269-.171.555-.308.857-.41.308-.103.674-.191 1.099-.264l1.143-.198c.439-.083.659-.305.659-.666 0-.464-.147-.803-.44-1.018-.293-.22-.659-.33-1.098-.33-.45 0-.821.108-1.114.322-.293.215-.466.55-.52 1.004l-1.267-.256c.117-.704.427-1.231.93-1.582.508-.352 1.187-.528 2.037-.528.307 0 .593.025.856.073.264.049.518.135.762.257.249.122.459.278.63.469.176.185.315.427.418.725.107.293.161.627.161 1.003v2.937c0 .361.053.608.161.74.112.127.3.19.564.19h.11v.989h-.682c-.795 0-1.264-.325-1.406-.974h-.066c-.273.381-.62.662-1.04.842-.415.181-.859.271-1.333.271zm.323-1.12c.625 0 1.132-.223 1.523-.667.395-.449.593-1.052.593-1.809l-1.897.388c-.468.078-.818.205-1.047.381-.23.171-.344.415-.344.732 0 .328.107.572.322.733.22.161.503.242.85.242zm9.281-6.416c.781 0 1.399.219 1.853.659.459.434.689 1.052.689 1.853v4.885h-1.414v-4.57c0-.562-.144-.977-.432-1.245-.283-.274-.65-.411-1.099-.411-.517 0-.94.164-1.267.491-.327.322-.493.806-.498 1.45v4.285h-1.406v-7.251h1.406v.894c.234-.332.537-.589.908-.769.376-.181.796-.271 1.26-.271zm6.044-1.722c-.176.176-.388.264-.637.264s-.466-.09-.652-.271c-.181-.181-.271-.395-.271-.645 0-.249.09-.461.271-.637.186-.18.403-.271.652-.271s.461.091.637.271c.181.176.271.388.271.637 0 .254-.09.472-.271.652zm-3.003 12.51v-1.172c.664 0 1.104-.158 1.319-.476.214-.312.322-.937.322-1.875v-7.119h1.421v7.119c0 1.279-.232 2.185-.696 2.717-.464.538-1.252.806-2.366.806zm6.059-12.246c-.249 0-.466-.09-.652-.271-.18-.181-.271-.395-.271-.645 0-.249.091-.461.271-.637.186-.18.403-.271.652-.271s.462.091.637.271c.181.176.271.388.271.637 0 .254-.09.472-.271.652-.18.176-.393.264-.637.264zm-.718 8.855v-7.251h1.414v7.251zm12.565-7.251h1.355v6.848c0 1.25-.318 2.202-.952 2.857-.63.659-1.507.988-2.63.988-1.777 0-2.966-.742-3.567-2.226l1.172-.557c.42 1.089 1.201 1.633 2.344 1.633.727 0 1.279-.229 1.655-.688.381-.454.571-1.094.571-1.919v-1.267c-.224.41-.561.742-1.01.996-.449.249-.943.374-1.48.374-.449 0-.876-.088-1.281-.264-.406-.181-.757-.427-1.055-.74-.298-.312-.535-.693-.711-1.142-.175-.454-.263-.94-.263-1.458 0-1.04.322-1.897.967-2.571.649-.674 1.435-1.01 2.358-1.01.547 0 1.045.129 1.494.388s.784.603 1.003 1.032zm-2.219 5.852c.634 0 1.171-.237 1.611-.71.444-.479.666-1.048.666-1.707 0-.664-.219-1.233-.659-1.706-.439-.474-.979-.711-1.618-.711-.635 0-1.172.232-1.612.696-.434.459-.652 1.033-.652 1.721 0 .684.22 1.257.66 1.721.439.464.974.696 1.604.696zm8.966 1.538c-1.079 0-1.968-.342-2.666-1.025-.698-.689-1.047-1.604-1.047-2.747 0-1.142.346-2.055 1.04-2.739.698-.684 1.589-1.025 2.673-1.025s1.973.341 2.666 1.025 1.04 1.597 1.04 2.739c0 1.143-.347 2.058-1.04 2.747-.693.683-1.582 1.025-2.666 1.025zm-.015-1.157c.674 0 1.231-.239 1.67-.718.44-.483.66-1.116.66-1.897s-.22-1.411-.66-1.889c-.439-.479-.996-.718-1.67-.718-.664 0-1.213.239-1.648.718-.434.478-.651 1.108-.651 1.889s.217 1.414.651 1.897c.435.479.984.718 1.648.718zm7.788 1.018c-.615 0-1.099-.176-1.45-.527-.352-.357-.528-.855-.528-1.494v-4.124h-1.479v-1.106h.534c.381 0 .652-.088.813-.264.166-.175.249-.473.249-.893v-1.253h1.297v2.41h1.64v1.106h-1.64v3.977c0 .337.088.598.263.784.181.185.418.278.711.278h.666v1.106zm7.012-8.855c-.249 0-.466-.09-.651-.271-.181-.181-.271-.395-.271-.645 0-.249.09-.461.271-.637.185-.18.402-.271.651-.271s.462.091.638.271c.18.176.271.388.271.637 0 .254-.091.472-.271.652-.181.176-.393.264-.638.264zm-.717 8.855v-7.251h1.413v7.251zm6.08 0c-.615 0-1.098-.176-1.45-.527-.351-.357-.527-.855-.527-1.494v-4.124h-1.48v-1.106h.535c.381 0 .652-.088.813-.264.166-.175.249-.473.249-.893v-1.253h1.296v2.41h1.641v1.106h-1.641v3.977c0 .337.088.598.264.784.181.185.418.278.711.278h.666v1.106zm3.452-5.771h-1.026l.901-4.585h1.465zm4.55 5.91c-.796 0-1.458-.173-1.985-.52s-.847-.845-.959-1.494l1.208-.344c.088.425.283.752.586.981.308.225.688.337 1.143.337.39 0 .72-.083.988-.249.269-.171.398-.439.389-.806-.005-.117-.025-.224-.059-.322-.034-.097-.095-.183-.183-.256-.088-.078-.171-.144-.249-.198s-.196-.107-.352-.161c-.156-.059-.285-.105-.388-.139-.098-.034-.251-.081-.461-.139-.205-.059-.364-.105-.476-.14-.293-.087-.538-.175-.733-.263s-.395-.208-.6-.359c-.206-.151-.359-.342-.462-.571-.102-.23-.154-.498-.154-.806 0-.684.244-1.199.733-1.545.488-.352 1.113-.528 1.875-.528.708 0 1.303.159 1.787.476.488.313.788.786.901 1.421l-1.136.278c-.083-.395-.266-.688-.549-.878-.278-.196-.61-.293-.996-.293-.361 0-.671.08-.93.241-.254.157-.381.398-.381.725 0 .171.042.32.125.447s.207.232.373.315.335.151.505.205c.171.054.381.113.63.176.069.015.12.027.154.037.278.068.51.134.696.197.185.059.393.149.622.271.235.118.423.249.564.396.142.141.262.329.359.564.098.234.147.498.147.791 0 .303-.049.576-.147.82-.097.244-.232.449-.402.615-.166.162-.367.298-.601.411-.234.107-.483.185-.747.234-.259.049-.537.073-.835.073zm8.463-8.789c0-.444.051-.825.154-1.142.102-.318.236-.569.402-.755.171-.185.393-.332.667-.439.273-.108.549-.179.828-.213.283-.034.62-.051 1.01-.051v1.165c-.161 0-.278.002-.351.007-.074 0-.181.01-.323.029-.141.015-.249.039-.322.073-.073.035-.161.088-.263.162-.098.068-.171.153-.22.256-.049.098-.093.227-.132.388-.034.156-.051.337-.051.542v1.377h1.662v1.106h-1.662v6.145h-1.399v-6.145h-1.399v-1.106h1.399zm5.845-.469c-.176.176-.389.264-.638.264s-.466-.09-.652-.271c-.18-.181-.271-.395-.271-.645 0-.249.091-.461.271-.637.186-.18.403-.271.652-.271s.462.091.638.271c.18.176.27.388.27.637 0 .254-.09.472-.27.652zm-1.355 9.119v-7.251h1.413v7.251zm5.055-5.991c.176-.391.476-.711.901-.96s.893-.376 1.406-.381v1.304c-.747 0-1.311.174-1.692.52-.381.347-.571.911-.571 1.692v3.816h-1.406v-7.251h1.362zm5.861 6.13c-.796 0-1.458-.173-1.985-.52s-.847-.845-.959-1.494l1.208-.344c.088.425.283.752.586.981.308.225.689.337 1.143.337.39 0 .72-.083.988-.249.269-.171.398-.439.389-.806-.005-.117-.025-.224-.059-.322-.034-.097-.095-.183-.183-.256-.088-.078-.171-.144-.249-.198s-.195-.107-.352-.161c-.156-.059-.285-.105-.388-.139-.097-.034-.251-.081-.461-.139-.205-.059-.364-.105-.476-.14-.293-.087-.537-.175-.733-.263-.195-.088-.395-.208-.6-.359s-.359-.342-.462-.571c-.102-.23-.154-.498-.154-.806 0-.684.245-1.199.733-1.545.488-.352 1.113-.528 1.875-.528.708 0 1.304.159 1.787.476.488.313.789.786.901 1.421l-1.135.278c-.083-.395-.267-.688-.55-.878-.278-.196-.61-.293-.996-.293-.361 0-.671.08-.93.241-.254.157-.381.398-.381.725 0 .171.042.32.125.447s.207.232.373.315.335.151.506.205c.17.054.38.113.629.176.069.015.12.027.154.037.279.068.511.134.696.197.186.059.393.149.623.271.234.118.422.249.564.396.141.141.261.329.358.564.098.234.147.498.147.791 0 .303-.049.576-.147.82-.097.244-.231.449-.402.615-.166.162-.367.298-.601.411-.234.107-.483.185-.747.234-.259.049-.537.073-.835.073zm6.791-.139c-.615 0-1.098-.176-1.45-.527-.352-.357-.527-.855-.527-1.494v-4.124h-1.48v-1.106h.535c.381 0 .652-.088.813-.264.166-.175.249-.473.249-.893v-1.253h1.296v2.41h1.641v1.106h-1.641v3.977c0 .337.088.598.264.784.181.185.417.278.71.278h.667v1.106zm9.349.132c-1.064 0-1.943-.347-2.636-1.04-.689-.698-1.033-1.607-1.033-2.725s.344-2.024 1.033-2.717c.693-.698 1.572-1.047 2.636-1.047.83 0 1.543.214 2.139.644.601.43 1.008 1.03 1.223 1.802l-1.311.198c-.161-.479-.425-.845-.791-1.099-.361-.259-.786-.388-1.274-.388-.655 0-1.194.239-1.619.718-.42.478-.63 1.108-.63 1.889 0 .777.21 1.406.63 1.89.425.478.964.718 1.619.718.488 0 .913-.127 1.274-.381.366-.259.63-.628.791-1.106l1.311.198c-.215.766-.625 1.367-1.23 1.801-.601.43-1.311.645-2.132.645zm8.051.007c-1.079 0-1.967-.342-2.666-1.025-.698-.689-1.047-1.604-1.047-2.747 0-1.142.347-2.055 1.04-2.739.698-.684 1.589-1.025 2.673-1.025s1.973.341 2.666 1.025c.694.684 1.04 1.597 1.04 2.739 0 1.143-.346 2.058-1.04 2.747-.693.683-1.582 1.025-2.666 1.025zm-.014-1.157c.674 0 1.23-.239 1.67-.718.439-.483.659-1.116.659-1.897s-.22-1.411-.659-1.889c-.44-.479-.996-.718-1.67-.718-.664 0-1.214.239-1.648.718-.435.478-.652 1.108-.652 1.889s.217 1.414.652 1.897c.434.479.984.718 1.648.718zm8.981-6.379c.781 0 1.399.219 1.853.659.459.434.688 1.052.688 1.853v4.885h-1.413v-4.57c0-.562-.144-.977-.432-1.245-.283-.274-.65-.411-1.099-.411-.518 0-.94.164-1.267.491-.327.322-.493.806-.498 1.45v4.285h-1.406v-7.251h1.406v.894c.234-.332.537-.589.908-.769.376-.181.796-.271 1.26-.271zm5.077-1.253c0-.444.052-.825.154-1.142.103-.318.237-.569.403-.755.171-.185.393-.332.666-.439.274-.108.55-.179.828-.213.283-.034.62-.051 1.011-.051v1.165c-.161 0-.278.002-.352.007-.073 0-.18.01-.322.029-.142.015-.249.039-.322.073-.074.035-.161.088-.264.162-.098.068-.171.153-.22.256-.048.098-.092.227-.132.388-.034.156-.051.337-.051.542v1.377h1.663v1.106h-1.663v6.145h-1.399v-6.145h-1.399v-1.106h1.399zm5.845-.469c-.176.176-.388.264-.637.264s-.466-.09-.652-.271c-.181-.181-.271-.395-.271-.645 0-.249.09-.461.271-.637.186-.18.403-.271.652-.271s.461.091.637.271c.181.176.271.388.271.637 0 .254-.09.472-.271.652zm-1.355 9.119v-7.251h1.414v7.251zm5.055-5.991c.176-.391.477-.711.901-.96.425-.249.894-.376 1.407-.381v1.304c-.747 0-1.311.174-1.692.52-.381.347-.572.911-.572 1.692v3.816h-1.406v-7.251h1.362zm11.142-1.406c.713 0 1.284.205 1.714.615.435.405.652.979.652 1.721v5.061h-1.406v-4.688c0-.507-.13-.891-.388-1.149-.254-.259-.577-.389-.967-.389-.449 0-.813.152-1.092.455-.278.297-.417.749-.417 1.354v4.417h-1.428v-4.636c0-.523-.13-.918-.388-1.187-.259-.268-.589-.403-.989-.403-.445 0-.808.154-1.091.462-.279.307-.418.774-.418 1.399v4.365h-1.399v-7.251h1.399v.923c.454-.713 1.123-1.069 2.007-1.069.478 0 .898.1 1.26.3.361.2.632.491.813.871.224-.38.52-.671.886-.871s.784-.3 1.252-.3zm6.206 7.536c-.415 0-.787-.066-1.114-.198-.322-.131-.588-.349-.798-.651-.205-.308-.308-.686-.308-1.136 0-.366.066-.683.198-.952.137-.268.337-.488.601-.659.268-.171.554-.308.857-.41.307-.103.673-.191 1.098-.264l1.143-.198c.439-.083.659-.305.659-.666 0-.464-.146-.803-.439-1.018-.293-.22-.66-.33-1.099-.33-.449 0-.82.108-1.113.322-.293.215-.467.55-.52 1.004l-1.267-.256c.117-.704.427-1.231.93-1.582.508-.352 1.186-.528 2.036-.528.307 0 .593.025.857.073.263.049.517.135.762.257.249.122.458.278.629.469.176.185.315.427.418.725.107.293.161.627.161 1.003v2.937c0 .361.054.608.161.74.112.127.3.19.564.19h.11v.989h-.681c-.796 0-1.265-.325-1.406-.974h-.066c-.274.381-.62.662-1.04.842-.415.181-.86.271-1.333.271zm.322-1.12c.625 0 1.133-.223 1.523-.667.396-.449.594-1.052.594-1.809l-1.897.388c-.469.078-.818.205-1.048.381-.229.171-.344.415-.344.732 0 .328.107.572.322.733.22.161.503.242.85.242zm8.029.981c-.615 0-1.099-.176-1.45-.527-.352-.357-.528-.855-.528-1.494v-4.124h-1.479v-1.106h.535c.38 0 .651-.088.813-.264.166-.175.249-.473.249-.893v-1.253h1.296v2.41h1.641v1.106h-1.641v3.977c0 .337.088.598.264.784.18.185.417.278.71.278h.667v1.106zm3.356-8.855c-.249 0-.466-.09-.652-.271-.18-.181-.271-.395-.271-.645 0-.249.091-.461.271-.637.186-.18.403-.271.652-.271s.462.091.637.271c.181.176.271.388.271.637 0 .254-.09.472-.271.652-.18.176-.393.264-.637.264zm-.718 8.855v-7.251h1.414v7.251zm6.814.139c-1.08 0-1.968-.342-2.666-1.025-.699-.689-1.048-1.604-1.048-2.747 0-1.142.347-2.055 1.04-2.739.698-.684 1.59-1.025 2.674-1.025s1.972.341 2.666 1.025c.693.684 1.04 1.597 1.04 2.739 0 1.143-.347 2.058-1.04 2.747-.694.683-1.582 1.025-2.666 1.025zm-.015-1.157c.674 0 1.23-.239 1.67-.718.439-.483.659-1.116.659-1.897s-.22-1.411-.659-1.889c-.44-.479-.996-.718-1.67-.718-.664 0-1.213.239-1.648.718-.435.478-.652 1.108-.652 1.889s.217 1.414.652 1.897c.435.479.984.718 1.648.718zm8.981-6.379c.781 0 1.399.219 1.853.659.459.434.689 1.052.689 1.853v4.885h-1.414v-4.57c0-.562-.144-.977-.432-1.245-.283-.274-.65-.411-1.099-.411-.517 0-.94.164-1.267.491-.327.322-.493.806-.498 1.45v4.285h-1.406v-7.251h1.406v.894c.235-.332.537-.589.908-.769.376-.181.796-.271 1.26-.271zm6.469 7.28c-.181.176-.395.263-.644.263s-.464-.087-.645-.263c-.176-.181-.264-.396-.264-.645 0-.244.091-.456.271-.637.181-.185.393-.278.638-.278.249 0 .463.093.644.278.181.181.271.393.271.637 0 .249-.09.464-.271.645z" fill="#000"/><path d="m56.856 98.1465c-1.1329 0-2.085-.2612-2.8565-.7837-.7666-.5225-1.2305-1.2476-1.3916-2.1753l1.9556-.4541c.0879.5859.3442 1.04.769 1.3623.4297.3174.9619.4761 1.5967.4761.5322 0 .9692-.1197 1.311-.3589.3467-.2393.5176-.603.5127-1.0913 0-.1465-.0268-.2832-.0805-.4102-.0489-.1318-.1099-.2441-.1831-.3369-.0733-.0976-.1807-.1904-.3223-.2783-.1367-.0928-.2637-.1685-.3809-.2271-.1123-.0634-.2685-.1294-.4687-.1977-.2002-.0684-.3687-.1221-.5054-.1611-.1367-.044-.3198-.1001-.5493-.1685-.0439-.0147-.0781-.0244-.1025-.0293-.2784-.083-.5054-.1514-.6812-.2051-.1758-.0586-.3882-.1391-.6372-.2417-.249-.1025-.4541-.2026-.6152-.3003-.1563-.0976-.3247-.2221-.5054-.3735-.1758-.1514-.315-.3101-.4175-.4761-.0976-.1709-.1807-.3711-.249-.6006-.0684-.2295-.1026-.4785-.1026-.747 0-.6299.1612-1.1744.4834-1.6333.3272-.4639.7618-.8081 1.3038-1.0328.5419-.2246 1.1572-.3369 1.8457-.3369.4736 0 .9228.0513 1.3476.1538.4297.1026.8277.2588 1.1939.4688.3711.2051.686.4858.9448.8423.2637.3515.4443.7593.542 1.2231l-1.8311.4541c-.1074-.5273-.3467-.9204-.7177-1.1792-.3663-.2636-.8252-.3955-1.377-.3955-.5176 0-.9497.1172-1.2964.3516-.3467.2295-.52.5786-.52 1.0473 0 .1758.0415.3345.1245.4761s.188.2612.3149.3589c.1319.0928.3028.1856.5127.2783.2149.0879.4175.1636.608.2271.1953.0586.4345.1269.7177.2051.0244.0048.044.0097.0586.0146.4248.1221.7593.2246 1.0034.3076.2442.083.5469.2149.9082.3955.3663.1807.647.3711.8423.5713.2002.1953.376.4566.5274.7837.1513.3223.227.6836.227 1.084 0 .5273-.105.9961-.3149 1.4062-.21.4053-.4981.73-.8643.9742-.3613.2441-.769.4272-1.2231.5493-.4492.122-.9351.1831-1.4575.1831zm12.321-3.9771-.0293.4541h-5.5957c.0342.6641.2441 1.1744.6299 1.5308.3857.3516.8642.5273 1.4355.5273.4004 0 .752-.0952 1.0547-.2856.3076-.1904.542-.4639.7031-.8203l1.67.271c-.2491.7226-.6788 1.2866-1.2891 1.6919-.6104.4052-1.3184.6079-2.124.6079-1.1768 0-2.1167-.3418-2.8199-1.0254-.7031-.6836-1.0546-1.626-1.0546-2.8272 0-1.1962.3515-2.1386 1.0546-2.8271.7081-.6934 1.6285-1.04 2.7613-1.04.5224 0 .9985.0781 1.4282.2343.4346.1514.813.3785 1.1353.6812.3271.2978.581.6885.7617 1.1719.1806.4785.2734 1.0302.2783 1.6552zm-3.5962-2.4243c-.5273 0-.9619.1392-1.3037.4175-.3418.2734-.564.686-.6665 1.2378h3.75c-.0488-.5371-.2344-.9473-.5567-1.2305-.3173-.2832-.7251-.4248-1.2231-.4248zm9.1863-1.311c.8496 0 1.5112.2246 1.9848.6738.4737.4443.7105 1.0767.7105 1.897v4.9951h-1.8311v-4.5996c0-.5078-.1342-.8814-.4028-1.1206-.2637-.2393-.603-.3589-1.0181-.3589-.498 0-.9082.1514-1.2304.4541-.3174.3027-.4786.7764-.4834 1.4209v4.2041h-1.8311v-7.4194h1.8311v.8569c.5322-.6689 1.289-1.0034 2.2705-1.0034zm9.9699-3.6841h1.8238v11.25h-1.7359l-.0512-1.1133c-.2149.4004-.5396.7154-.9742.9448-.4297.2247-.9131.337-1.4502.337-.4834 0-.9399-.0904-1.3696-.271-.4297-.1807-.8057-.4346-1.1279-.7618-.3174-.3271-.5713-.7348-.7617-1.2231-.1856-.4883-.2784-1.0254-.2784-1.6113 0-.586.0928-1.1231.2784-1.6114.1904-.4882.4467-.896.769-1.2231.3223-.3272.6958-.5811 1.1206-.7617.4297-.1807.8862-.271 1.3696-.271.5176 0 .9888.1074 1.4136.3222.4297.21.7544.5054.9741.8863zm-3.4936 9.2505c.4053.4248.9106.6372 1.5161.6372s1.1084-.2173 1.5088-.6519c.4053-.4394.6079-1.0009.6079-1.6845s-.2026-1.2427-.6079-1.6773c-.4053-.4394-.9082-.6592-1.5088-.6592-.6055 0-1.1108.2149-1.5161.6446-.4004.4248-.6006.9887-.6006 1.6919 0 .7031.2002 1.2695.6006 1.6992zm8.3366-6.7383c-.3027 0-.5615-.1074-.7763-.3223-.2149-.2148-.3223-.4711-.3223-.769 0-.3027.1074-.5591.3223-.769.2148-.2149.4736-.3223.7763-.3223.2979 0 .5542.1074.7691.3223.2148.2099.3222.4663.3222.769 0 .2979-.1098.5542-.3295.769-.2149.2149-.4688.3223-.7618.3223zm-.9375 8.7378v-7.4194h1.8384v7.4194zm8.0218-7.5659c.8496 0 1.5112.2246 1.9848.6738.4737.4443.7105 1.0767.7105 1.897v4.9951h-1.8311v-4.5996c0-.5078-.1343-.8814-.4028-1.1206-.2637-.2393-.603-.3589-1.0181-.3589-.498 0-.9082.1514-1.2305.4541-.3173.3027-.4785.7764-.4834 1.4209v4.2041h-1.831v-7.4194h1.831v.8569c.5323-.6689 1.2891-1.0034 2.2706-1.0034zm9.8307.1465h1.751v6.9214c0 1.3427-.337 2.3461-1.011 3.01-.674.664-1.614.996-2.82.996-1.904 0-3.154-.764-3.75-2.2922l1.516-.6665c.215.5127.496.8911.842 1.1353.352.249.794.3734 1.326.3734.684 0 1.196-.2099 1.538-.6298.347-.4199.52-1.0205.52-1.8017v-1.0181c-.224.3467-.549.625-.974.835-.425.2099-.889.3149-1.392.3149-.942 0-1.743-.3442-2.402-1.0327-.654-.6885-.981-1.5698-.981-2.6441 0-.5371.09-1.0351.271-1.4941.18-.4639.424-.8496.732-1.1572.313-.3125.676-.5567 1.091-.7324.415-.1758.852-.2637 1.311-.2637.528 0 1.004.1147 1.429.3442.429.2246.749.5249.959.9009zm-3.464 5.0537c.4.415.891.6225 1.472.6225s1.072-.2099 1.472-.6298c.4-.4249.601-.94.601-1.5455 0-.6054-.201-1.1181-.601-1.538-.395-.4248-.886-.6373-1.472-.6373-.591 0-1.084.2076-1.48.6226-.395.4102-.593.9277-.593 1.5527 0 .6202.2 1.1377.601 1.5528zm14.19 2.5122c-1.191 0-2.107-.4541-2.746-1.3623-.64-.9082-.96-2.2534-.96-4.0357 0-1.7822.317-3.125.952-4.0283.64-.9033 1.558-1.355 2.754-1.355 1.192 0 2.105.4517 2.739 1.355.64.9033.96 2.2461.96 4.0283 0 1.7823-.32 3.1275-.96 4.0357-.639.9082-1.552 1.3623-2.739 1.3623zm0-1.6626c.596 0 1.055-.3076 1.377-.9229.327-.6152.491-1.5527.491-2.8125 0-1.2646-.164-2.2021-.491-2.8125-.327-.6103-.786-.9155-1.377-.9155-.596 0-1.057.3052-1.384.9155-.322.6055-.484 1.543-.484 2.8125 0 2.4903.623 3.7354 1.868 3.7354zm5.502 1.6626c-.293 0-.547-.105-.761-.315-.215-.2148-.323-.4711-.323-.769s.108-.5542.323-.769c.214-.2149.468-.3223.761-.3223.298 0 .554.1074.769.3223.215.2148.323.4711.323.769s-.108.5542-.323.769c-.215.21-.471.315-.769.315zm6.586 0c-1.191 0-2.106-.4541-2.746-1.3623s-.96-2.2534-.96-4.0357c0-1.7822.318-3.125.953-4.0283.639-.9033 1.557-1.355 2.753-1.355 1.192 0 2.105.4517 2.74 1.355.639.9033.959 2.2461.959 4.0283 0 1.7823-.32 3.1275-.959 4.0357-.64.9082-1.553 1.3623-2.74 1.3623zm0-1.6626c.596 0 1.055-.3076 1.377-.9229.328-.6152.491-1.5527.491-2.8125 0-1.2646-.163-2.2021-.491-2.8125-.327-.6103-.786-.9155-1.377-.9155-.595 0-1.057.3052-1.384.9155-.322.6055-.483 1.543-.483 2.8125 0 2.4903.622 3.7354 1.867 3.7354zm12.322-1.9995c.004.6982-.167 1.3281-.513 1.8896-.347.5615-.811.9961-1.392 1.3037-.576.3028-1.206.4541-1.889.4541-1.075 0-1.976-.3418-2.703-1.0254-.728-.6884-1.091-1.5502-1.091-2.5854 0-.8594.307-1.709.922-2.5488l3.355-4.4678h2.087l-2.783 3.5815c.239-.0341.447-.0512.623-.0512.439 0 .862.083 1.267.249.405.1611.764.3882 1.076.6811.313.2881.562.6519.748 1.0914.19.4345.288.9106.293 1.4282zm-3.846 1.9922c.601 0 1.094-.188 1.48-.564s.578-.8667.578-1.4722c0-.6152-.19-1.1108-.571-1.4868-.381-.3808-.874-.5713-1.479-.5713-.591 0-1.077.1978-1.458.5933-.376.3955-.566.8862-.571 1.4722-.005.6152.178 1.1084.549 1.4794.371.3663.862.5494 1.472.5494zm8.623-9.104c1.069 0 1.967.3442 2.695 1.0327.727.6836 1.091 1.5454 1.091 2.5854 0 .8545-.31 1.7017-.93 2.5415l-3.347 4.4678h-2.102l2.768-3.5815c-.185.0341-.385.0512-.6.0512-.591 0-1.14-.1367-1.648-.4101-.503-.2784-.916-.6836-1.238-1.2158-.322-.5323-.486-1.1402-.491-1.8238-.005-.5273.093-1.0205.293-1.4795.205-.459.481-.8447.828-1.1572s.752-.5591 1.216-.7397c.464-.1807.952-.271 1.465-.271zm2.065 3.6914c.005-.6153-.178-1.106-.549-1.4722-.371-.3711-.862-.5566-1.472-.5566-.596 0-1.089.1879-1.48.5639-.391.3711-.586.8594-.586 1.4649.005.6103.198 1.1059.579 1.4868.381.3808.876.5713 1.487.5713.59 0 1.074-.1953 1.45-.586.376-.3955.566-.8862.571-1.4721zm10.512 3.2666v1.6406h-1.377v2.0288h-1.831v-2.0288h-4.893v-1.648l3.926-6.8188h2.798v6.8262zm-6.35 0h3.142v-5.6763zm9.772 2.0288h4.724v1.6406h-7.295v-1.377l4.182-4.2919c.674-.6885 1.011-1.3477 1.011-1.9776 0-.4736-.144-.8423-.432-1.1059-.283-.2686-.669-.4029-1.157-.4029-.508 0-.911.149-1.209.4468-.293.2979-.439.7715-.439 1.4209v.7764l-1.817-.1831v-.564c0-1.0889.311-1.9263.931-2.5122.625-.5859 1.467-.8789 2.526-.8789 1.001 0 1.817.2685 2.447.8056.635.5323.952 1.2647.952 2.1973 0 .5322-.115 1.0205-.344 1.4649-.225.4443-.584.9228-1.077 1.4355zm9.648 1.7871c-1.192 0-2.107-.4541-2.747-1.3623-.639-.9082-.959-2.2534-.959-4.0357 0-1.7822.317-3.125.952-4.0283.64-.9033 1.557-1.355 2.754-1.355 1.191 0 2.104.4517 2.739 1.355.64.9033.96 2.2461.96 4.0283 0 1.7823-.32 3.1275-.96 4.0357s-1.553 1.3623-2.739 1.3623zm0-1.6626c.595 0 1.054-.3076 1.377-.9229.327-.6152.49-1.5527.49-2.8125 0-1.2646-.163-2.2021-.49-2.8125-.327-.6103-.786-.9155-1.377-.9155-.596 0-1.057.3052-1.384.9155-.323.6055-.484 1.543-.484 2.8125 0 2.4903.623 3.7354 1.868 3.7354zm14.666-4.0064c1.343.3565 2.014 1.2281 2.014 2.6148 0 .8887-.275 1.5967-.827 2.124-.552.5225-1.338.7837-2.359.7837h-4.24v-10.4956h3.325c1.055 0 1.875.2563 2.461.769.591.5078.886 1.1988.886 2.0728 0 .4834-.107.9106-.322 1.2817-.215.3662-.528.6494-.938.8496zm-2.072-3.3691h-1.502v2.7832h1.648c.454 0 .806-.1318 1.055-.3955.249-.2686.373-.6104.373-1.0254 0-.4053-.136-.7324-.41-.9814-.273-.2539-.662-.3809-1.164-.3809zm.556 7.251c.562 0 .984-.1392 1.267-.4175.283-.2832.425-.6348.425-1.0547 0-.4346-.146-.7934-.439-1.0767-.288-.288-.726-.4321-1.311-.4321h-2v2.981zm11.31-8.855v1.6846h-2.563v8.811h-1.882v-8.811h-2.571v-1.6846zm5.7 10.6421c-.756 0-1.462-.127-2.116-.3809-.65-.2539-1.211-.6103-1.685-1.0693s-.845-1.0278-1.113-1.7066c-.269-.6787-.403-1.4257-.403-2.2412 0-1.0791.232-2.0288.696-2.8491.464-.8252 1.096-1.4526 1.897-1.8823.801-.4346 1.709-.6519 2.724-.6519 1.128 0 2.122.271 2.981.813.86.542 1.482 1.2891 1.868 2.2412l-1.765.6665c-.259-.6201-.662-1.101-1.209-1.4428-.546-.3467-1.171-.5201-1.875-.5201-.483 0-.935.0831-1.355.2491-.415.166-.776.4028-1.084.7104-.307.3028-.549.6836-.725 1.1426-.175.459-.263.9668-.263 1.5234 0 1.1182.322 2.0044.966 2.6587.65.6494 1.47.9741 2.461.9741.704 0 1.329-.1709 1.875-.5126.547-.3467.95-.8301 1.209-1.4502l1.765.6665c-.386.957-1.011 1.7065-1.875 2.2485-.859.542-1.851.813-2.974.813z" fill="#000"/><path d="m362.825 62.5889c.677 0 1.212.1904 1.606.5713.398.3766.597.9119.597 1.6059v4.2339h-1.225v-3.9609c0-.4867-.125-.8464-.375-1.0791-.245-.237-.563-.3555-.952-.3555-.449 0-.815.1418-1.098.4253-.284.2793-.428.6982-.432 1.2568v3.7134h-1.219v-6.2842h1.219v.7744c.203-.2877.466-.5099.787-.6665.326-.1565.69-.2348 1.092-.2348zm6.653 6.5317c-.935 0-1.705-.2962-2.31-.8887-.605-.5966-.908-1.3901-.908-2.3803 0-.9903.301-1.7816.902-2.3741.605-.5924 1.377-.8886 2.316-.8886.94 0 1.71.2962 2.311.8886.601.5925.901 1.3838.901 2.3741 0 .9902-.3 1.7837-.901 2.3803-.601.5925-1.371.8887-2.311.8887zm-.012-1.0029c.584 0 1.066-.2074 1.447-.6221.381-.4189.571-.967.571-1.644 0-.6771-.19-1.223-.571-1.6377s-.863-.6221-1.447-.6221c-.576 0-1.052.2074-1.428.6221-.377.4147-.565.9606-.565 1.6377 0 .677.188 1.2251.565 1.644.376.4147.852.6221 1.428.6221zm12.049-5.4019h1.276l-2.171 6.2905h-1.111l-1.663-4.7226-1.67 4.7226h-1.117l-2.133-6.2905h1.263l1.511 4.6973 1.67-4.6973h.939l1.67 4.6909z" fill="#262337"/><path d="m81.9478 62.7139c1.1637.3089 1.7456 1.0643 1.7456 2.2661 0 .7702-.2391 1.3838-.7173 1.8408-.4782.4528-1.1595.6792-2.044.6792h-3.6753v-9.0962h2.8819c.914 0 1.625.2222 2.1328.6665.512.4401.7681 1.0389.7681 1.7964 0 .4189-.0931.7892-.2793 1.1108-.1862.3174-.4571.5629-.8125.7364zm-1.7964-2.92h-1.3013v2.4122h1.4282c.3936 0 .6983-.1143.9141-.3428.2158-.2328.3237-.529.3237-.8887 0-.3512-.1185-.6348-.3555-.8506-.2369-.22-.5734-.3301-1.0092-.3301zm.4824 6.2842c.4866 0 .8527-.1206 1.0981-.3618.2455-.2454.3682-.5501.3682-.9141 0-.3766-.127-.6876-.3809-.9331-.2496-.2496-.6284-.3745-1.1362-.3745h-1.7329v2.5835zm4.5904 1.4219v-9.0962h1.6504v9.0962zm8.9639-9.0962v1.46h-2.2217v7.6362h-1.6313v-7.6362h-2.228v-1.46zm4.838 9.2232c-.656 0-1.2675-.1101-1.8345-.3301-.5628-.2201-1.0495-.529-1.46-.9268s-.7321-.8908-.9648-1.479c-.2328-.5882-.3491-1.2357-.3491-1.9424 0-.9352.201-1.7583.603-2.4692.402-.7152.95-1.259 1.644-1.6314.694-.3766 1.4811-.5649 2.3614-.5649.9779 0 1.8389.2349 2.5839.7046.744.4697 1.284 1.1172 1.618 1.9424l-1.53.5776c-.224-.5374-.573-.9543-1.047-1.2505-.474-.3004-1.0156-.4507-1.6249-.4507-.419 0-.8104.072-1.1744.2159-.3597.1438-.6728.3491-.9394.6157-.2666.2624-.4761.5924-.6284.9902-.1524.3978-.2285.8379-.2285 1.3203 0 .9691.2792 1.7372.8378 2.3042.5629.5629 1.2738.8443 2.1329.8443.6093 0 1.1509-.1481 1.6249-.4444.474-.3004.823-.7194 1.047-1.2568l1.53.5776c-.334.8295-.876 1.479-1.625 1.9488-.745.4697-1.6036.7046-2.5769.7046zm9.5669 0c-.88 0-1.667-.1884-2.361-.565s-1.242-.9225-1.644-1.6377-.603-1.5403-.603-2.4756c0-.9352.201-1.7583.603-2.4692.402-.7152.95-1.259 1.644-1.6314.694-.3766 1.481-.5649 2.361-.5649.876 0 1.661.1883 2.355.5649.694.3724 1.242.9162 1.644 1.6314.402.7109.603 1.534.603 2.4692 0 .9353-.201 1.7604-.603 2.4756s-.95 1.2611-1.644 1.6377-1.479.565-2.355.565zm-2.133-2.3741c.563.5671 1.274.8506 2.133.8506s1.568-.2835 2.126-.8506c.559-.567.838-1.3351.838-2.3042 0-.9606-.281-1.7244-.844-2.2915-.558-.567-1.265-.8506-2.12-.8506-.419 0-.81.072-1.174.2159-.36.1438-.673.3491-.94.6157-.266.2624-.476.5924-.628.9902-.153.3978-.229.8379-.229 1.3203 0 .9691.28 1.7372.838 2.3042zm8.323 2.2471v-9.0962h1.65v9.0962zm10.03-9.0962h1.644v9.0962h-1.866l-4.316-6.7983v6.7983h-1.638v-9.0962h1.847l4.329 6.7476zm8.445 9.0962-2.45-9.0962h1.713l1.898 7.0903 2.108-7.0903h1.409l2.101 7.0903 1.917-7.0903h1.708l-2.451 9.0962h-2.082l-1.898-6.0684-1.898 6.0684zm17.159 0-.699-1.9741h-3.923l-.698 1.9741h-1.695l3.352-9.0962h2.006l3.345 9.0962zm-4.126-3.3706h2.932l-1.466-4.145zm8.672 1.9043h2.951v1.4663h-4.602v-9.0962h1.651zm5.847 0h2.951v1.4663h-4.602v-9.0962h1.651zm9.338-6.1699h-3.472v2.3676h3.072v1.4473h-3.072v2.355h3.472v1.4663h-5.141v-9.0962h5.141zm6.831-1.46v1.46h-2.221v7.6362h-1.632v-7.6362h-2.228v-1.46z" fill="#262337"/><path d="m450 59c0-11.0457 8.954-20 20-20h270c11.046 0 20 8.9543 20 20v230h-310z" fill="#fff"/><rect fill="#000" height="100" rx="8" width="276" x="466" y="60"/><g fill="#fff"><path d="m482.611 80.1099 3.212 5.2264v3.6637h1.077v-3.6637l3.212-5.2264h-1.233l-2.465 4.1499h-.104l-2.466-4.1499zm10.52 9.029c1.806 0 3.021-1.3717 3.021-3.438 0-2.0836-1.215-3.4553-3.021-3.4553s-3.021 1.3717-3.021 3.4553c0 2.0663 1.215 3.438 3.021 3.438zm0-.9203c-1.371 0-1.997-1.1807-1.997-2.5177 0-1.3369.626-2.535 1.997-2.535 1.372 0 1.997 1.1981 1.997 2.535 0 1.337-.625 2.5177-1.997 2.5177zm8.787-1.9447c0 1.2502-.955 1.8232-1.719 1.8232-.851 0-1.458-.6251-1.458-1.5974v-4.1673h-1.025v4.2367c0 1.7016.903 2.5177 2.153 2.5177 1.007 0 1.667-.5383 1.98-1.2154h.069v1.1286h1.025v-6.6676h-1.025zm2.901 2.7261h1.024v-4.2193c0-.9029.712-1.5627 1.685-1.5627.273 0 .555.0521.625.0694v-1.0418c-.117-.0087-.387-.0174-.538-.0174-.799 0-1.494.4515-1.737 1.1113h-.069v-1.0071h-.99zm8.125 0h.99v-1.0244h.121c.226.3646.66 1.1633 1.945 1.1633 1.667 0 2.83-1.337 2.83-3.4553 0-2.101-1.163-3.438-2.847-3.438-1.303 0-1.702.7987-1.928 1.146h-.087v-3.2817h-1.024zm1.007-3.3338c0-1.4932.66-2.5003 1.91-2.5003 1.302 0 1.945 1.0939 1.945 2.5003 0 1.4238-.66 2.5524-1.945 2.5524-1.233 0-1.91-1.0418-1.91-2.5524zm8.408 3.4901c1.164 0 1.771-.6251 1.98-1.0592h.052v.9029h1.024v-4.393c0-2.1183-1.614-2.3614-2.465-2.3614-1.007 0-2.153.3473-2.674 1.5627l.972.3473c.226-.4862.76-1.0071 1.736-1.0071.942 0 1.407.4992 1.407 1.3544v.0347c0 .4948-.504.4514-1.719.6077-1.237.1606-2.587.4341-2.587 1.9621 0 1.3022 1.007 2.0489 2.274 2.0489zm.157-.9203c-.816 0-1.407-.3646-1.407-1.0765 0-.7814.712-1.0245 1.511-1.1287.434-.052 1.597-.1736 1.771-.3819v.9376c0 .8334-.66 1.6495-1.875 1.6495zm5.794-8.1261h-1.025v8.8901h1.025zm3.838 9.0464c1.163 0 1.771-.6251 1.979-1.0592h.053v.9029h1.024v-4.393c0-2.1183-1.615-2.3614-2.466-2.3614-1.007 0-2.153.3473-2.674 1.5627l.973.3473c.225-.4862.759-1.0071 1.736-1.0071.942 0 1.407.4992 1.407 1.3544v.0347c0 .4948-.504.4514-1.719.6077-1.238.1606-2.588.4341-2.588 1.9621 0 1.3022 1.007 2.0489 2.275 2.0489zm.156-.9203c-.816 0-1.406-.3646-1.406-1.0765 0-.7814.712-1.0245 1.51-1.1287.435-.052 1.598-.1736 1.772-.3819v.9376c0 .8334-.66 1.6495-1.876 1.6495zm5.794-3.247c0-1.1633.721-1.8231 1.702-1.8231.951 0 1.528.6207 1.528 1.6669v4.1672h1.024v-4.2367c0-1.7016-.907-2.5177-2.257-2.5177-1.007 0-1.632.4515-1.945 1.1286h-.086v-1.0418h-.99v6.6676h1.024zm8.835 4.1499c1.476 0 2.448-.9029 2.622-2.0836h-1.025c-.191.7293-.798 1.1633-1.597 1.1633-1.215 0-1.997-1.007-1.997-2.5524 0-1.5106.799-2.5003 1.997-2.5003.903 0 1.441.5556 1.597 1.1633h1.025c-.174-1.2501-1.233-2.0836-2.639-2.0836-1.806 0-3.004 1.4238-3.004 3.4553 0 1.9968 1.146 3.438 3.021 3.438zm6.915 0c1.354 0 2.344-.6772 2.657-1.6842l-.99-.2779c-.261.6946-.864 1.0418-1.667 1.0418-1.202 0-2.032-.777-2.079-2.2051h4.84v-.4341c0-2.483-1.476-3.3338-2.865-3.3338-1.806 0-3.004 1.4238-3.004 3.4727s1.181 3.4206 3.108 3.4206zm-2.079-4.011c.069-1.0374.803-1.962 1.975-1.962 1.111 0 1.823.8334 1.823 1.962z"/><path d="m486.845 115.247v-5.051h2.707c2.227 0 3.422.856 3.422 2.508 0 1.688-1.172 2.543-3.293 2.543zm0-7.184v-4.546h2.696c1.722 0 2.73.773 2.73 2.191 0 1.535-1.148 2.355-3.187 2.355zm5.368.786c1.675-.27 2.976-1.805 2.976-3.563 0-2.332-1.687-3.879-4.359-4.066v-2.2034h-1.266v2.1914h-1.711v-2.1914h-1.254v2.1914h-2.718v16.348h2.718v2.168h1.254v-2.168h1.711v2.168h1.266v-2.18c3.222-.152 5.156-1.875 5.156-4.629 0-2.168-1.559-3.773-3.773-3.973z"/><path d="m506.524 117.037c3.431.007 5.48-2.702 5.48-7.369 0-4.639-2.063-7.32-5.48-7.32s-5.473 2.674-5.48 7.32c0 4.661 2.049 7.369 5.48 7.369zm0-2.174c-.632 0-1.181-.222-1.619-.666l3.966-7.883c.341.84.535 1.958.535 3.354 0 3.417-1.104 5.195-2.882 5.195zm-2.369-1.875c-.333-.833-.507-1.945-.507-3.32.007-3.389 1.112-5.174 2.876-5.174.611 0 1.139.208 1.576.625zm11.816 3.945c.82 0 1.521-.681 1.528-1.528-.007-.833-.708-1.514-1.528-1.514-.847 0-1.535.681-1.528 1.514-.007.847.681 1.528 1.528 1.528zm4.534-.153h9.751v-2.153h-6.195v-.097l2.452-2.493c2.764-2.654 3.528-3.945 3.528-5.55 0-2.382-1.938-4.125-4.799-4.125-2.82 0-4.821 1.75-4.821 4.452h2.452c0-1.452.917-2.362 2.334-2.362 1.354 0 2.361.827 2.361 2.167 0 1.188-.722 2.035-2.125 3.459l-4.938 4.841zm17.935.257c3.431.007 5.479-2.702 5.479-7.369 0-4.639-2.062-7.32-5.479-7.32-3.418 0-5.473 2.674-5.48 7.32 0 4.661 2.048 7.369 5.48 7.369zm0-2.174c-.633 0-1.181-.222-1.619-.666l3.966-7.883c.34.84.535 1.958.535 3.354 0 3.417-1.104 5.195-2.882 5.195zm-2.369-1.875c-.333-.833-.507-1.945-.507-3.32.007-3.389 1.111-5.174 2.876-5.174.611 0 1.139.208 1.576.625zm15.337-10.626c-3.083-.021-5.132 2.097-5.132 4.875.007 2.681 1.917 4.619 4.41 4.619 1.535 0 2.868-.743 3.556-1.966h.097c-.007 3.043-1.111 4.855-3.077 4.855-1.229 0-2.055-.708-2.312-1.84h-2.535c.291 2.354 2.153 4.07 4.847 4.07 3.411 0 5.585-2.848 5.578-7.744-.007-5.182-2.702-6.855-5.432-6.869zm.007 2.083c1.521 0 2.639 1.264 2.639 2.716.007 1.472-1.166 2.736-2.667 2.736-1.514 0-2.604-1.194-2.611-2.715 0-1.528 1.132-2.737 2.639-2.737z"/><path d="m489.452 133.413h1.112c-.33-1.719-1.771-2.899-3.647-2.899-2.279 0-3.889 1.753-3.889 4.566s1.597 4.567 3.959 4.567c2.118 0 3.629-1.411 3.629-3.612v-.955h-3.386v.955h2.344c-.031 1.598-1.081 2.605-2.587 2.605-1.65 0-2.917-1.25-2.917-3.56 0-2.309 1.267-3.559 2.847-3.559 1.285 0 2.158.725 2.535 1.892zm9.258-2.899c-1.805-.022-2.969 1.337-2.969 2.969 0 1.719 1.268 2.952 2.796 2.952.92 0 1.701-.452 2.187-1.181h.07c0 2.188-.851 3.438-2.223 3.438-.937 0-1.51-.59-1.701-1.406h-1.059c.208 1.406 1.267 2.361 2.76 2.361 1.997 0 3.23-1.771 3.23-4.931 0-3.265-1.632-4.185-3.091-4.202zm0 .955c1.112 0 1.928.955 1.928 1.997 0 1.059-.869 2.014-1.962 2.014-1.094 0-1.893-.886-1.893-1.997s.833-2.014 1.927-2.014zm5.692 8.056h1.129l3.959-7.883v-1.007h-5.695v.955h4.584v.07zm6.994-1.823h4.185v1.823h1.025v-1.823h1.215v-.955h-1.215v-6.112h-1.303l-3.907 6.182zm4.185-.955h-3.021v-.069l2.952-4.671h.069zm5.397 1.563h-1.111l-.052.486c-.126 1.176-.374 2.349-.487 2.9h.782c.208-.591.651-1.928.798-2.917zm4.842-7.796c-1.806-.022-2.969 1.337-2.969 2.969 0 1.719 1.267 2.952 2.795 2.952.921 0 1.702-.452 2.188-1.181h.07c0 2.188-.851 3.438-2.223 3.438-.937 0-1.51-.59-1.701-1.406h-1.06c.209 1.406 1.268 2.361 2.761 2.361 1.997 0 3.23-1.771 3.23-4.931 0-3.265-1.632-4.185-3.091-4.202zm0 .955c1.111 0 1.927.955 1.927 1.997 0 1.059-.868 2.014-1.962 2.014s-1.892-.886-1.892-1.997.833-2.014 1.927-2.014zm5.692 8.056h1.129l3.959-7.883v-1.007h-5.696v.955h4.584v.07zm11.405-8.89h-1.077l-2.222 1.476v1.094l2.17-1.441h.052v7.761h1.077z"/><rect height="20" rx="3" width="20" x="50" y="53"/></g><path d="m64.7351 61.6989c.1798-1.3353-.8333-2.0324-2.2222-2.5037l.4314-1.8065-1.0981-.2651-.4183 1.7673c-.2908-.0688-.5849-.1375-.8758-.1964l.4183-1.7673-1.1111-.2651-.4314 1.8066c-.2353-.0557-.4738-.0982-.7091-.1538l-1.5131-.3633-.2778 1.1684s.8203.18.7909.1963c.4444.1113.5294.4026.5131.6251l-.487 2.0586c.0294.0131.0687.0131.1111.0426-.0424-.0131-.0686-.0131-.1111-.0262l-.6666 2.88c-.0556.1375-.1961.3339-.5.2651.013.0131-.8072-.1963-.8072-.1963l-.5196 1.2665 1.4313.3339c.2647.0687.5294.1243.7778.1963l-.4314 1.823 1.0981.2651.4314-1.8066c.3071.0818.598.1538.8758.2225l-.4314 1.7935 1.098.2651.4314-1.8229c1.8758.3338 3.2778.18 3.8464-1.5317.4575-1.3647-.0425-2.1437-1.0425-2.6575.7321-.1669 1.2615-.6415 1.3987-1.6135zm-2.4706 3.5445c-.3202 1.3647-2.6241.6545-3.3627.4745l.5686-2.4219c.7517.1833 3.1275.5171 2.7941 1.9474zm.304-3.5445c-.2909 1.2371-2.2092.6415-2.8334.4877l.5294-2.1961c.6111.1506 2.6111.4157 2.304 1.7084z" fill="#f7931a"/><path d="m668.752 253.505v-4.254h2.259c1.951 0 2.971.695 2.971 2.119 0 1.423-.993 2.135-2.821 2.135zm0-5.642v-3.876h2.303c1.477 0 2.329.633 2.329 1.854 0 1.336-1.002 2.022-2.803 2.022zm4.096.483c1.187-.211 2.127-1.406 2.127-2.68 0-1.653-1.143-2.804-2.9-3.033v-1.608h-1.055v1.573h-1.231v-1.573h-1.054v1.573h-1.565v12.296h1.565v1.573h1.054v-1.573h1.231v1.573h1.055v-1.599c2.223-.202 3.515-1.442 3.515-3.428 0-1.635-1.072-2.813-2.742-3.023z" fill="#000"/><path d="m684.014 254.19c2.119 0 3.338-1.796 3.338-4.932 0-3.113-1.238-4.932-3.338-4.932s-3.338 1.819-3.338 4.932c0 3.136 1.219 4.932 3.338 4.932zm0-1.032c-.497 0-.924-.178-1.261-.52l2.996-6.071c.309.661.478 1.566.478 2.691 0 2.499-.816 3.9-2.213 3.9zm-1.744-1.233c-.305-.651-.469-1.547-.469-2.667 0-2.494.825-3.919 2.213-3.919.487 0 .909.178 1.247.515zm7.835 2.209c.464 0 .844-.38.844-.844s-.38-.844-.844-.844-.844.38-.844.844.38.844.844.844zm6.092.056c2.119 0 3.338-1.796 3.338-4.932 0-3.113-1.237-4.932-3.338-4.932-2.1 0-3.338 1.819-3.338 4.932 0 3.136 1.219 4.932 3.338 4.932zm0-1.032c-.497 0-.923-.178-1.261-.52l2.996-6.071c.309.661.478 1.566.478 2.691 0 2.499-.816 3.9-2.213 3.9zm-1.744-1.233c-.304-.651-.469-1.547-.469-2.667 0-2.494.826-3.919 2.213-3.919.488 0 .91.178 1.247.515zm10.348 2.265c1.941.023 3.207-1.439 3.207-3.226 0-1.856-1.374-3.188-3.019-3.188-.989 0-1.838.483-2.363 1.276h-.075c.005-2.34.914-3.695 2.4-3.695 1.013 0 1.622.638 1.838 1.501h1.144c-.234-1.491-1.369-2.532-2.982-2.532-2.161 0-3.488 1.913-3.488 5.307 0 3.549 1.763 4.538 3.338 4.557zm0-1.032c-1.205 0-2.086-1.026-2.081-2.175.004-1.148.928-2.175 2.119-2.175 1.177 0 2.044.966 2.044 2.156 0 1.219-.905 2.194-2.082 2.194zm8.417-8.832c-1.95-.024-3.207 1.444-3.207 3.207 0 1.856 1.369 3.188 3.019 3.188.994 0 1.838-.488 2.363-1.276h.075c0 2.363-.919 3.713-2.4 3.713-1.013 0-1.632-.637-1.838-1.519h-1.144c.225 1.519 1.369 2.551 2.982 2.551 2.156 0 3.488-1.913 3.488-5.326 0-3.525-1.763-4.519-3.338-4.538zm0 1.031c1.2 0 2.081 1.032 2.081 2.157 0 1.144-.937 2.175-2.119 2.175-1.181 0-2.044-.956-2.044-2.156 0-1.201.9-2.176 2.082-2.176zm5.153 6.733h4.52v1.969h1.106v-1.969h1.313v-1.032h-1.313v-6.601h-1.406l-4.22 6.676zm4.52-1.032h-3.263v-.075l3.188-5.044h.075zm4.497 3.001h6.057v-1.032h-4.463v-.075l2.156-2.306c1.651-1.768 2.138-2.593 2.138-3.657 0-1.482-1.2-2.663-2.888-2.663-1.683 0-2.963 1.144-2.963 2.832h1.107c0-1.093.708-1.819 1.819-1.819 1.041 0 1.838.637 1.838 1.65 0 .886-.521 1.542-1.632 2.756l-3.169 3.47zm11.548.131c2.119 0 3.338-1.796 3.338-4.932 0-3.113-1.238-4.932-3.338-4.932s-3.338 1.819-3.338 4.932c0 3.136 1.219 4.932 3.338 4.932zm0-1.032c-.497 0-.923-.178-1.261-.52l2.996-6.071c.309.661.478 1.566.478 2.691 0 2.499-.816 3.9-2.213 3.9zm-1.744-1.233c-.305-.651-.469-1.547-.469-2.667 0-2.494.825-3.919 2.213-3.919.488 0 .91.178 1.247.515z" fill="#000"/><path d="m692.912 271.718c-.553 0-1.07-.093-1.551-.277-.478-.188-.893-.451-1.247-.79-.349-.342-.626-.769-.829-1.28-.199-.515-.299-1.085-.299-1.709 0-.835.175-1.566.525-2.194.349-.628.821-1.102 1.416-1.422.594-.323 1.265-.485 2.013-.485.73 0 1.39.158 1.98.474s1.055.775 1.393 1.376l-.891.48c-.252-.463-.594-.81-1.027-1.044-.432-.236-.917-.355-1.455-.355-.413 0-.799.07-1.156.209s-.669.34-.936.603c-.264.26-.47.591-.621.993-.15.402-.225.852-.225 1.348 0 .493.073.938.219 1.337.151.398.358.731.621.998.267.263.581.467.942.609.365.14.759.209 1.184.209.73 0 1.335-.205 1.817-.615.485-.413.771-1.002.857-1.765h-2.679v-.858h3.666v4.05h-.829v-1.489c-.263.512-.643.907-1.139 1.185-.493.274-1.076.412-1.749.412zm10.773 0c-1.763 0-2.645-.942-2.645-2.826l.993-.051c0 .665.124 1.164.372 1.495s.675.496 1.28.496c.508 0 .918-.143 1.23-.429.316-.285.474-.66.474-1.122 0-.47-.153-.842-.457-1.117-.301-.274-.679-.412-1.134-.412h-.395v-.829h.384c.338 0 .628-.122.869-.367.24-.244.36-.545.36-.902s-.127-.649-.383-.874c-.256-.226-.577-.339-.965-.339-.248 0-.46.04-.637.119-.173.079-.306.195-.4.349-.094.151-.162.318-.203.502-.042.185-.063.399-.063.643l-.992-.033c0-.79.197-1.397.592-1.822.399-.425.965-.638 1.698-.638.65 0 1.192.194 1.624.581.436.388.655.869.655 1.444 0 .391-.106.735-.316 1.033-.211.297-.476.511-.796.643.455.131.828.374 1.117.727.29.354.434.799.434 1.337 0 .714-.253 1.292-.761 1.732-.504.44-1.149.66-1.935.66zm6.509 0c-1.763 0-2.645-.942-2.645-2.826l.993-.051c0 .665.124 1.164.372 1.495s.675.496 1.28.496c.508 0 .918-.143 1.23-.429.316-.285.474-.66.474-1.122 0-.47-.152-.842-.457-1.117-.301-.274-.679-.412-1.134-.412h-.395v-.829h.384c.338 0 .628-.122.869-.367.24-.244.361-.545.361-.902s-.128-.649-.384-.874c-.256-.226-.577-.339-.964-.339-.249 0-.461.04-.638.119-.173.079-.306.195-.4.349-.094.151-.162.318-.203.502-.042.185-.062.399-.062.643l-.993-.033c0-.79.197-1.397.592-1.822.399-.425.965-.638 1.698-.638.65 0 1.192.194 1.624.581.437.388.655.869.655 1.444 0 .391-.106.735-.316 1.033-.211.297-.476.511-.796.643.455.131.828.374 1.117.727.29.354.435.799.435 1.337 0 .714-.254 1.292-.762 1.732-.504.44-1.149.66-1.935.66zm9.572-2.601v.897h-1.224v1.596h-.975v-1.596h-3.802v-.902l3.305-5.443h1.472v5.448zm-4.991 0h2.792v-4.732zm6.994 4.53h-.711l.688-3.498h1.021zm3.88-2.933h3.954v.896h-5.358v-.739l3.181-3.288c.346-.353.585-.667.717-.942.131-.274.197-.547.197-.818 0-.451-.134-.801-.401-1.049-.267-.252-.612-.378-1.037-.378-.455 0-.818.137-1.089.412-.267.271-.4.696-.4 1.275v.586l-.976-.09v-.491c0-.823.223-1.451.671-1.884.447-.436 1.045-.654 1.794-.654.699 0 1.272.201 1.72.604.451.402.677.951.677 1.647 0 .413-.09.797-.271 1.15-.177.35-.462.73-.857 1.14zm7.609-4.214c.967 0 1.689.224 2.166.671.478.444.717 1.064.717 1.862 0 .789-.247 1.434-.739 1.934-.489.497-1.13.745-1.924.745-.349 0-.682-.053-.998-.158-.312-.109-.592-.263-.84-.463-.245-.203-.44-.464-.587-.784-.143-.319-.214-.676-.214-1.071 0-.109.009-.245.028-.406l.998-.085c-.03.218-.045.367-.045.446 0 .278.047.524.141.738.098.215.228.384.389.508.162.12.335.211.519.271.188.06.386.09.592.09.512 0 .922-.162 1.23-.485.312-.323.468-.739.468-1.247 0-.53-.161-.947-.485-1.252-.319-.304-.827-.457-1.523-.457h-2.008l.491-3.677h4.163v.908h-3.34l-.259 1.912zm6.639 5.218c-1.763 0-2.645-.942-2.645-2.826l.993-.051c0 .665.124 1.164.372 1.495s.675.496 1.28.496c.508 0 .918-.143 1.23-.429.316-.285.474-.66.474-1.122 0-.47-.153-.842-.457-1.117-.301-.274-.679-.412-1.134-.412h-.395v-.829h.384c.338 0 .628-.122.868-.367.241-.244.361-.545.361-.902s-.127-.649-.383-.874c-.256-.226-.577-.339-.965-.339-.248 0-.46.04-.637.119-.173.079-.306.195-.4.349-.094.151-.162.318-.204.502-.041.185-.062.399-.062.643l-.992-.033c0-.79.197-1.397.592-1.822.399-.425.964-.638 1.698-.638.65 0 1.192.194 1.624.581.436.388.654.869.654 1.444 0 .391-.105.735-.315 1.033-.211.297-.476.511-.796.643.455.131.828.374 1.117.727.29.354.434.799.434 1.337 0 .714-.253 1.292-.761 1.732-.504.44-1.149.66-1.935.66z" fill="#777"/><circle cx="476" cy="257" r="8" stroke="#e4e9f1" stroke-width="2"/><path d="m472.931 257.161h6.151" stroke="#ec3e3e" stroke-linecap="round" stroke-linejoin="round"/><path d="m502.182 244.143c.533 0 1.006.127 1.418.381.417.249.735.584.954 1.005.224.421.335.888.335 1.399 0 .791-.251 1.451-.754 1.979-.498.524-1.149.787-1.953.787h-2.282v3.526h-1.154v-9.077zm-.168 4.545c.538 0 .959-.161 1.264-.483.305-.327.458-.757.458-1.29 0-.524-.153-.949-.458-1.276-.305-.331-.726-.496-1.264-.496h-2.114v3.545zm5.512 4.654c-.563 0-1.027-.144-1.392-.432-.361-.292-.542-.726-.542-1.302 0-.318.058-.593.174-.825.116-.236.288-.43.516-.58.228-.151.475-.269.741-.355.271-.09.593-.167.967-.232l1.025-.167c.374-.069.561-.265.561-.587 0-.43-.133-.743-.4-.941-.262-.202-.595-.303-.999-.303-.395 0-.726.097-.993.29-.266.193-.423.49-.47.89l-1.006-.213c.095-.602.359-1.053.793-1.354.434-.305 1.01-.458 1.728-.458.335 0 .64.039.915.116.279.074.535.192.767.355.236.159.419.387.548.683.133.293.2.639.2 1.038v2.617c0 .327.047.548.142.664.099.112.266.168.503.168h.103v.806h-.555c-.683 0-1.083-.286-1.199-.858h-.051c-.482.654-1.174.98-2.076.98zm.258-.902c.563 0 1.016-.204 1.36-.613.344-.408.516-.967.516-1.676l-1.676.323c-.443.073-.772.191-.987.354-.21.159-.315.389-.315.69 0 .314.101.546.302.696.207.151.473.226.8.226zm8.193-5.679c.666 0 1.197.191 1.592.573.4.383.6.922.6 1.618v4.268h-1.115v-4.016c0-.512-.129-.89-.387-1.135s-.589-.367-.993-.367c-.46 0-.836.146-1.128.438-.292.288-.441.718-.445 1.289v3.791h-1.115v-6.337h1.115v.812c.421-.623 1.047-.934 1.876-.934zm4.919-1.367c-.207 0-.385-.073-.535-.219-.147-.151-.22-.329-.22-.535 0-.207.073-.383.22-.529.15-.146.328-.219.535-.219.202 0 .376.073.522.219.15.146.225.322.225.529 0 .206-.075.384-.225.535-.146.146-.32.219-.522.219zm-2.031 10.791v-.948c.404 0 .707-.06.909-.18s.344-.327.425-.619c.082-.292.123-.728.123-1.309v-6.246h1.128v6.246c0 1.118-.196 1.906-.587 2.366s-1.057.69-1.998.69zm5.428-10.791c-.207 0-.385-.073-.535-.219-.146-.151-.219-.329-.219-.535 0-.207.073-.383.219-.529.15-.146.328-.219.535-.219.202 0 .376.073.522.219.15.146.226.322.226.529 0 .206-.076.384-.226.535-.146.146-.32.219-.522.219zm-.568 7.826v-6.337h1.122v6.337z" fill="#000"/><path d="m500.633 262.754h.913v7.941h-.964v-6.875l-1.907 1.652v-1.043zm5.166 7.044h3.954v.897h-5.358v-.739l3.181-3.288c.346-.353.585-.667.716-.942.132-.274.198-.547.198-.818 0-.451-.134-.801-.401-1.049-.267-.252-.613-.378-1.038-.378-.455 0-.817.137-1.088.412-.267.271-.401.696-.401 1.275v.586l-.976-.09v-.491c0-.823.224-1.451.672-1.884.447-.436 1.045-.654 1.793-.654.7 0 1.273.201 1.721.604.451.402.677.951.677 1.647 0 .413-.091.797-.271 1.15-.177.35-.463.73-.858 1.14zm14.203-4.754c.534 0 .964.157 1.292.473.327.312.49.752.49 1.32v3.858h-.975v-3.604c0-.402-.102-.707-.305-.914s-.461-.31-.773-.31c-.35 0-.632.117-.846.35s-.321.583-.321 1.049v3.429h-.993v-3.564c0-.418-.104-.732-.31-.942-.203-.215-.465-.322-.784-.322-.346 0-.628.12-.846.361-.215.237-.322.594-.322 1.072v3.395h-.976v-5.544h.976v.716c.162-.263.372-.466.632-.609.263-.143.558-.214.885-.214.358 0 .673.079.948.236.274.155.479.378.615.672.165-.294.387-.517.665-.672.279-.157.594-.236.948-.236zm4.168-1.196c-.18 0-.336-.064-.468-.192-.128-.132-.192-.288-.192-.468 0-.181.064-.335.192-.463.132-.128.288-.191.468-.191.177 0 .329.063.457.191.132.128.198.282.198.463 0 .18-.066.336-.198.468-.128.128-.28.192-.457.192zm-.496 6.847v-5.544h.981v5.544zm5.584-5.651c.583 0 1.047.167 1.393.502.35.334.525.806.525 1.415v3.734h-.976v-3.514c0-.447-.113-.778-.338-.992-.226-.215-.516-.322-.869-.322-.402 0-.731.128-.987.384-.256.252-.386.628-.389 1.128v3.316h-.976v-5.544h.976v.71c.368-.545.915-.817 1.641-.817zm5.556 5.758c-.598 0-1.096-.133-1.495-.4-.398-.267-.641-.647-.727-1.139l.851-.243c.06.331.211.589.451.773.245.18.549.271.914.271.196 0 .373-.025.53-.074.162-.049.299-.139.412-.27.113-.136.168-.305.164-.508-.004-.083-.019-.158-.045-.226-.027-.071-.057-.133-.091-.186-.033-.053-.086-.103-.158-.152-.071-.049-.135-.089-.191-.119-.057-.03-.141-.064-.254-.101-.109-.042-.198-.072-.265-.09-.068-.023-.171-.053-.31-.091-.14-.041-.247-.073-.322-.096-.233-.071-.425-.139-.575-.203-.151-.064-.307-.152-.468-.265-.162-.116-.284-.263-.367-.44-.079-.176-.119-.383-.119-.62 0-.35.091-.645.271-.886.181-.24.414-.413.7-.519.289-.109.618-.163.987-.163.534 0 .983.12 1.348.361.368.24.594.601.677 1.083l-.801.203c-.06-.312-.201-.545-.423-.7-.222-.158-.487-.236-.796-.236-.289 0-.537.065-.744.197-.207.128-.31.325-.31.592 0 .113.026.216.079.31.056.091.112.162.169.215.056.052.158.109.304.169.147.056.256.096.327.118.072.019.207.053.407.102.037.011.065.019.084.023.218.056.395.107.53.152.14.041.299.109.48.203.184.09.329.19.434.299s.196.252.271.428c.075.177.113.377.113.598 0 .282-.057.532-.169.751-.11.214-.26.383-.452.507s-.408.216-.648.277c-.237.064-.495.095-.773.095zm7.863 0c-.493 0-.899-.125-1.219-.377-.316-.256-.473-.636-.473-1.14 0-.278.05-.519.152-.722.101-.207.252-.376.451-.507.199-.132.416-.235.649-.311.237-.079.519-.146.846-.203l.897-.146c.327-.061.49-.232.49-.514 0-.376-.116-.65-.349-.823-.23-.177-.521-.265-.875-.265-.346 0-.635.084-.868.254-.233.169-.371.428-.412.778l-.88-.186c.083-.527.314-.921.694-1.185.38-.267.884-.4 1.512-.4.293 0 .56.034.8.101.245.064.469.168.672.311.207.139.366.338.479.597.117.256.175.559.175.909v2.29c0 .285.041.479.124.581.087.097.233.146.44.146h.09v.705h-.485c-.598 0-.947-.25-1.049-.75h-.045c-.421.572-1.027.857-1.816.857zm.225-.789c.493 0 .89-.179 1.19-.536.301-.357.452-.846.452-1.467l-1.467.282c-.387.064-.675.168-.863.311-.184.139-.276.34-.276.603 0 .275.088.478.265.609.18.132.414.198.699.198zm8.455-4.862h.948v5.262c0 .937-.239 1.657-.716 2.161-.478.503-1.14.755-1.986.755-1.342 0-2.239-.566-2.69-1.697l.806-.395c.327.853.946 1.28 1.856 1.28.568 0 1-.18 1.297-.541.301-.361.452-.865.452-1.512v-1.027c-.173.331-.437.598-.79.801-.354.2-.739.299-1.156.299-.704 0-1.301-.259-1.794-.778-.493-.523-.739-1.181-.739-1.974 0-.794.246-1.448.739-1.963.496-.519 1.098-.778 1.805-.778.425 0 .812.103 1.162.31s.611.479.784.818zm-1.759 4.557c.5 0 .925-.19 1.274-.569.354-.38.531-.831.531-1.354 0-.527-.175-.98-.525-1.36-.35-.379-.777-.569-1.28-.569-.504 0-.931.184-1.281.553-.346.368-.519.827-.519 1.376 0 .541.175.998.525 1.37.353.369.778.553 1.275.553zm7.028 1.094c-.527 0-1.001-.114-1.422-.344-.421-.229-.756-.564-1.004-1.004-.244-.443-.366-.955-.366-1.534 0-.868.261-1.564.784-2.087.526-.526 1.195-.789 2.008-.789.816 0 1.485.263 2.008.789.522.523.784 1.219.784 2.087 0 .873-.264 1.572-.79 2.098-.523.523-1.19.784-2.002.784zm-.006-.812c.526 0 .963-.19 1.309-.569.349-.38.524-.88.524-1.501 0-.617-.175-1.115-.524-1.495-.346-.379-.783-.569-1.309-.569-.523 0-.957.19-1.303.569-.342.38-.513.878-.513 1.495 0 .621.171 1.121.513 1.501.346.379.78.569 1.303.569z" fill="#777"/><path d="m466 215.266h276" stroke="#e4e9f1" stroke-width="2"/><path d="m472.673 188.566h1.073v8.434h-1.073v-3.744h-4.271v3.744h-1.078v-8.434h1.078v3.726h4.271zm3.855 1.162c-.191 0-.357-.068-.497-.204-.136-.14-.204-.306-.204-.497 0-.192.068-.356.204-.491.14-.136.306-.204.497-.204.188 0 .35.068.485.204.14.135.21.299.21.491 0 .191-.07.357-.21.497-.135.136-.297.204-.485.204zm-.527 7.272v-5.889h1.042v5.889zm4.891.114c-.635 0-1.164-.142-1.587-.426-.423-.283-.681-.686-.773-1.21l.905-.257c.064.351.223.625.479.821.26.191.583.287.97.287.208 0 .396-.026.563-.078.172-.052.318-.148.438-.287.12-.144.177-.324.173-.539-.004-.088-.019-.168-.047-.24-.028-.076-.06-.142-.096-.198s-.092-.11-.168-.162c-.076-.051-.144-.093-.204-.125s-.149-.068-.269-.108c-.116-.044-.21-.076-.282-.096-.072-.024-.182-.056-.329-.096-.148-.044-.262-.078-.342-.102-.247-.076-.451-.147-.611-.215-.159-.068-.325-.162-.497-.282-.172-.124-.301-.279-.389-.467-.084-.188-.126-.407-.126-.659 0-.371.096-.685.287-.941.192-.255.44-.439.743-.551.308-.115.657-.173 1.049-.173.567 0 1.044.127 1.431.383.392.256.631.639.719 1.15l-.851.216c-.063-.332-.213-.579-.449-.743-.235-.168-.517-.252-.844-.252-.308 0-.572.07-.791.21-.22.136-.33.346-.33.629 0 .12.028.23.084.33.06.095.12.171.18.227s.168.116.323.18c.156.06.272.102.348.126.076.02.219.056.431.107.04.012.07.02.09.024.232.06.419.114.563.162.148.044.318.116.509.216.196.096.35.202.462.317.111.116.207.268.287.456.08.187.12.399.12.635 0 .299-.06.565-.18.796-.116.228-.275.408-.479.539-.204.132-.433.23-.689.294-.252.068-.525.102-.821.102zm5.563-.114c-.488 0-.871-.14-1.151-.419-.279-.284-.419-.677-.419-1.18v-3.463h-1.204v-.827h.443c.308 0 .523-.067.647-.203.128-.14.192-.372.192-.695v-1.066h.964v1.964h1.354v.827h-1.354v3.355c0 .279.074.497.222.653.152.151.349.227.593.227h.539v.827zm4.609.114c-.559 0-1.062-.122-1.509-.366-.448-.243-.803-.599-1.067-1.066-.259-.471-.389-1.014-.389-1.629 0-.923.278-1.662.833-2.217.559-.559 1.27-.838 2.132-.838.867 0 1.578.279 2.133.838.555.555.833 1.294.833 2.217 0 .926-.28 1.669-.839 2.228-.555.555-1.264.833-2.127.833zm-.006-.863c.559 0 1.023-.201 1.39-.605.371-.403.557-.934.557-1.593 0-.655-.186-1.184-.557-1.588-.367-.403-.831-.605-1.39-.605-.555 0-1.016.202-1.383.605-.364.404-.546.933-.546 1.588 0 .659.182 1.19.546 1.593.367.404.828.605 1.383.605zm5.485-4.103c.147-.324.391-.587.73-.791.34-.204.717-.307 1.133-.311v.976c-.599 0-1.057.146-1.372.437-.312.292-.467.757-.467 1.396v3.145h-1.037v-5.889h1.013zm6.712-1.037h1.096l-3.408 8.663h-1.073l1.181-2.918-2.289-5.745h1.15l1.66 4.583z" fill="#f7931a"/><path d="m467 215.533h36.441" stroke="#f7931a" stroke-linecap="round" stroke-linejoin="round" stroke-width="2"/><g fill="#adb3bc"><path d="m525.315 188.566c.496 0 .935.117 1.318.353.388.232.683.543.887.934.207.392.311.825.311 1.3 0 .735-.233 1.348-.701 1.839-.463.488-1.068.731-1.815.731h-2.12v3.277h-1.073v-8.434zm-.155 4.223c.499 0 .89-.15 1.174-.45.283-.303.425-.702.425-1.198 0-.487-.142-.882-.425-1.186-.284-.307-.675-.461-1.174-.461h-1.965v3.295zm8.791 1.15-.012.281h-4.601c.016.655.204 1.159.563 1.51.36.347.807.521 1.342.521.359 0 .685-.094.976-.281.292-.188.516-.448.671-.779l.935.198c-.212.535-.547.956-1.007 1.264-.459.307-.98.461-1.563.461-.875 0-1.582-.274-2.121-.821s-.808-1.294-.808-2.24c0-.943.269-1.688.808-2.235.543-.547 1.24-.82 2.091-.82.823 0 1.482.251 1.977.754.499.504.749 1.232.749 2.187zm-2.726-2.145c-.487 0-.897.14-1.228.42-.328.275-.533.679-.617 1.21h3.528c-.04-.531-.211-.935-.515-1.21-.303-.28-.693-.42-1.168-.42zm7.012-.796c.619 0 1.112.177 1.479.533.372.355.558.856.558 1.503v3.966h-1.037v-3.732c0-.475-.12-.827-.359-1.054-.24-.228-.547-.342-.923-.342-.427 0-.776.136-1.048.408-.272.267-.409.666-.413 1.198v3.522h-1.037v-5.889h1.037v.755c.391-.579.972-.868 1.743-.868zm8.264-3.199h1.036v9.201h-1l-.024-1.144c-.188.391-.468.701-.839.928-.371.228-.787.342-1.246.342-.375 0-.731-.072-1.066-.216-.336-.148-.629-.351-.881-.611-.247-.263-.445-.589-.593-.976-.144-.388-.216-.809-.216-1.264 0-.907.266-1.644.797-2.211.535-.567 1.188-.85 1.959-.85.451 0 .861.111 1.228.335.371.22.653.519.845.899zm-1.857 8.428c.543 0 .998-.205 1.366-.617.371-.415.557-.932.557-1.551 0-.615-.186-1.13-.557-1.546-.372-.415-.827-.623-1.366-.623-.547 0-1.007.202-1.378.605-.371.4-.557.921-.557 1.564s.186 1.166.557 1.569c.371.4.831.599 1.378.599zm5.412-6.499c-.192 0-.357-.068-.497-.204-.136-.14-.204-.306-.204-.497 0-.192.068-.356.204-.491.14-.136.305-.204.497-.204.188 0 .35.068.485.204.14.135.21.299.21.491 0 .191-.07.357-.21.497-.135.136-.297.204-.485.204zm-.527 7.272v-5.889h1.042v5.889zm5.808-6.002c.619 0 1.112.177 1.479.533.372.355.558.856.558 1.503v3.966h-1.037v-3.732c0-.475-.12-.827-.359-1.054-.24-.228-.547-.342-.923-.342-.427 0-.776.136-1.048.408-.272.267-.409.666-.413 1.198v3.522h-1.037v-5.889h1.037v.755c.391-.579.972-.868 1.743-.868zm8.18.113h1.006v5.589c0 .995-.253 1.76-.761 2.295-.507.535-1.21.803-2.108.803-1.426 0-2.378-.602-2.858-1.804l.857-.419c.347.907 1.004 1.36 1.971 1.36.603 0 1.062-.192 1.378-.575.319-.384.479-.919.479-1.606v-1.09c-.184.352-.463.635-.839.851-.375.211-.785.317-1.228.317-.747 0-1.382-.275-1.905-.826-.523-.556-.784-1.254-.784-2.097s.261-1.538.784-2.085c.527-.551 1.166-.826 1.917-.826.451 0 .863.109 1.234.329.372.22.649.509.833.869zm-1.869 4.841c.531 0 .982-.202 1.354-.605.375-.404.563-.883.563-1.438 0-.559-.186-1.04-.557-1.444-.372-.403-.825-.605-1.36-.605s-.989.196-1.36.587c-.367.392-.551.879-.551 1.462 0 .575.186 1.06.557 1.456.375.391.827.587 1.354.587z"/><path d="m588.029 197-2.169-3.804h-1.323v3.804h-1.073v-8.434h2.798c.826 0 1.455.223 1.887.67.435.444.653 1.015.653 1.714 0 .587-.166 1.076-.498 1.467-.327.392-.784.637-1.371.737l2.348 3.846zm-3.492-7.494v2.845h1.581c.547 0 .958-.125 1.234-.377.276-.256.413-.601.413-1.036 0-.436-.139-.783-.419-1.043-.276-.259-.685-.389-1.228-.389zm10.959 4.433-.012.281h-4.601c.016.655.204 1.159.564 1.51.359.347.806.521 1.341.521.36 0 .685-.094.977-.281.291-.188.515-.448.671-.779l.934.198c-.211.535-.547.956-1.006 1.264-.459.307-.981.461-1.564.461-.874 0-1.581-.274-2.12-.821s-.809-1.294-.809-2.24c0-.943.27-1.688.809-2.235.543-.547 1.24-.82 2.09-.82.823 0 1.482.251 1.977.754.499.504.749 1.232.749 2.187zm-2.726-2.145c-.487 0-.896.14-1.228.42-.327.275-.533.679-.617 1.21h3.529c-.04-.531-.212-.935-.515-1.21-.304-.28-.693-.42-1.169-.42zm8.606-.683h1v8.854h-1.036v-4.061c-.188.371-.467.669-.839.892-.371.22-.779.33-1.222.33-.779 0-1.434-.282-1.965-.845-.527-.563-.79-1.304-.79-2.222 0-.46.071-.883.215-1.27.148-.388.346-.711.593-.971.252-.259.545-.461.881-.605.335-.143.691-.215 1.066-.215.451 0 .863.111 1.234.335.372.224.651.525.839.905zm-1.899 5.116c.551 0 1.012-.205 1.384-.617.371-.415.557-.932.557-1.551 0-.615-.188-1.128-.563-1.54-.372-.415-.831-.623-1.378-.623-.539 0-.995.198-1.366.593-.367.396-.551.919-.551 1.57 0 .655.184 1.18.551 1.575.371.396.827.593 1.366.593zm8.557-5.116h1.037v5.889h-.995l-.024-.779c-.184.288-.427.509-.731.665-.303.152-.647.228-1.03.228-.619 0-1.114-.178-1.486-.533-.367-.356-.551-.857-.551-1.504v-3.966h1.037v3.732c0 .472.119.823.359 1.055.244.231.553.347.929.347.427 0 .774-.136 1.042-.407.271-.272.409-.673.413-1.204zm8.18 2.828-.012.281h-4.6c.016.655.203 1.159.563 1.51.359.347.806.521 1.342.521.359 0 .684-.094.976-.281.292-.188.515-.448.671-.779l.934.198c-.211.535-.547.956-1.006 1.264-.459.307-.98.461-1.563.461-.875 0-1.582-.274-2.121-.821s-.809-1.294-.809-2.24c0-.943.27-1.688.809-2.235.543-.547 1.24-.82 2.091-.82.822 0 1.481.251 1.976.754.5.504.749 1.232.749 2.187zm-2.725-2.145c-.488 0-.897.14-1.228.42-.328.275-.534.679-.617 1.21h3.528c-.04-.531-.212-.935-.515-1.21-.304-.28-.693-.42-1.168-.42zm6.095 5.32c-.635 0-1.164-.142-1.588-.426-.423-.283-.68-.686-.772-1.21l.904-.257c.064.351.224.625.48.821.259.191.583.287.97.287.208 0 .395-.026.563-.078.172-.052.318-.148.437-.287.12-.144.178-.324.174-.539-.004-.088-.02-.168-.048-.24-.028-.076-.06-.142-.096-.198s-.092-.11-.167-.162c-.076-.051-.144-.093-.204-.125s-.15-.068-.27-.108c-.115-.044-.209-.076-.281-.096-.072-.024-.182-.056-.33-.096-.147-.044-.261-.078-.341-.102-.248-.076-.451-.147-.611-.215s-.326-.162-.497-.282c-.172-.124-.302-.279-.39-.467-.084-.188-.126-.407-.126-.659 0-.371.096-.685.288-.941.192-.255.439-.439.743-.551.307-.115.657-.173 1.048-.173.567 0 1.044.127 1.432.383.391.256.631.639.719 1.15l-.851.216c-.064-.332-.214-.579-.449-.743-.236-.168-.517-.252-.845-.252-.307 0-.571.07-.791.21-.219.136-.329.346-.329.629 0 .12.028.23.084.33.06.095.12.171.179.227.06.056.168.116.324.18.156.06.272.102.347.126.076.02.22.056.432.107.04.012.07.02.09.024.231.06.419.114.563.162.147.044.317.116.509.216.196.096.349.202.461.317.112.116.208.268.288.456.08.187.119.399.119.635 0 .299-.059.565-.179.796-.116.228-.276.408-.479.539-.204.132-.434.23-.689.294-.252.068-.526.102-.821.102zm5.562-.114c-.487 0-.87-.14-1.15-.419-.28-.284-.419-.677-.419-1.18v-3.463h-1.204v-.827h.443c.307 0 .523-.067.647-.203.128-.14.192-.372.192-.695v-1.066h.964v1.964h1.354v.827h-1.354v3.355c0 .279.074.497.222.653.151.151.349.227.593.227h.539v.827zm4.065.114c-.635 0-1.164-.142-1.588-.426-.423-.283-.681-.686-.772-1.21l.904-.257c.064.351.224.625.479.821.26.191.583.287.971.287.207 0 .395-.026.563-.078.172-.052.317-.148.437-.287.12-.144.178-.324.174-.539-.004-.088-.02-.168-.048-.24-.028-.076-.06-.142-.096-.198s-.092-.11-.168-.162c-.075-.051-.143-.093-.203-.125s-.15-.068-.27-.108c-.116-.044-.21-.076-.281-.096-.072-.024-.182-.056-.33-.096-.148-.044-.261-.078-.341-.102-.248-.076-.452-.147-.611-.215-.16-.068-.326-.162-.498-.282-.171-.124-.301-.279-.389-.467-.084-.188-.126-.407-.126-.659 0-.371.096-.685.288-.941.192-.255.439-.439.743-.551.307-.115.657-.173 1.048-.173.567 0 1.044.127 1.432.383.391.256.631.639.718 1.15l-.85.216c-.064-.332-.214-.579-.449-.743-.236-.168-.518-.252-.845-.252-.308 0-.571.07-.791.21-.219.136-.329.346-.329.629 0 .12.028.23.084.33.059.095.119.171.179.227s.168.116.324.18c.156.06.271.102.347.126.076.02.22.056.432.107.039.012.069.02.089.024.232.06.42.114.563.162.148.044.318.116.51.216.195.096.349.202.461.317.112.116.208.268.287.456.08.187.12.399.12.635 0 .299-.06.565-.179.796-.116.228-.276.408-.48.539-.203.132-.433.23-.689.294-.251.068-.525.102-.82.102z"/><path d="m652.319 197.114c-.878 0-1.613-.198-2.204-.593-.587-.4-.953-.947-1.097-1.642l1.085-.257c.099.487.353.87.76 1.15.408.28.905.419 1.492.419.196 0 .381-.016.557-.048s.344-.083.503-.155c.164-.076.304-.168.42-.276.115-.108.207-.246.275-.413.068-.168.1-.356.096-.563-.004-.144-.03-.276-.078-.396-.044-.124-.1-.229-.168-.317-.063-.088-.157-.172-.281-.252-.124-.084-.238-.152-.342-.203-.103-.056-.245-.114-.425-.174-.176-.06-.323-.106-.443-.138-.12-.036-.282-.082-.485-.138-.04-.012-.07-.02-.09-.024-.232-.06-.422-.112-.569-.155-.144-.044-.318-.104-.521-.18-.204-.08-.372-.158-.504-.234-.127-.076-.263-.172-.407-.287-.144-.116-.258-.24-.341-.372-.08-.136-.148-.295-.204-.479-.052-.184-.078-.383-.078-.599 0-.503.13-.935.389-1.294.264-.359.601-.623 1.013-.791.415-.167.88-.251 1.396-.251.786 0 1.461.173 2.024.521.567.343.927.853 1.079 1.527l-1.043.264c-.104-.459-.337-.805-.701-1.036-.363-.232-.802-.348-1.318-.348-.227 0-.443.026-.647.078-.203.052-.391.132-.563.24-.167.108-.301.255-.401.443-.1.184-.15.397-.15.641 0 .128.02.248.06.359.04.108.09.202.15.282s.146.158.258.234c.111.075.215.137.311.185.1.048.232.1.395.156.164.052.304.096.42.132.116.032.269.072.461.12.755.199 1.296.379 1.623.539.731.359 1.149.876 1.252 1.551.016.116.024.238.024.366 0 .411-.082.774-.245 1.09-.16.315-.382.567-.665.755-.28.187-.595.329-.947.425-.347.092-.723.138-1.126.138zm7.731-6.116c.375 0 .731.072 1.066.215.336.144.627.346.875.605.247.26.443.583.587.971.148.387.221.81.221 1.27 0 .918-.265 1.659-.796 2.222-.527.563-1.178.845-1.953.845-.451 0-.863-.112-1.234-.336-.368-.223-.647-.525-.839-.904v4.079h-1.036v-8.854h1l.024 1.145c.188-.388.467-.693.839-.917.371-.228.787-.341 1.246-.341zm-.204 5.229c.539 0 .993-.197 1.36-.593.371-.399.557-.924.557-1.575s-.186-1.174-.557-1.57c-.367-.395-.821-.593-1.36-.593-.547 0-1.008.208-1.384.623-.375.412-.563.925-.563 1.54 0 .619.188 1.136.563 1.551.376.412.837.617 1.384.617zm9.624-2.288-.012.281h-4.601c.016.655.204 1.159.563 1.51.36.347.807.521 1.342.521.36 0 .685-.094.977-.281.291-.188.515-.448.671-.779l.934.198c-.212.535-.547.956-1.006 1.264-.46.307-.981.461-1.564.461-.874 0-1.581-.274-2.12-.821-.54-.547-.809-1.294-.809-2.24 0-.943.269-1.688.809-2.235.543-.547 1.24-.82 2.09-.82.823 0 1.482.251 1.977.754.499.504.749 1.232.749 2.187zm-2.726-2.145c-.487 0-.896.14-1.228.42-.327.275-.533.679-.617 1.21h3.529c-.04-.531-.212-.935-.516-1.21-.303-.28-.693-.42-1.168-.42zm7.012-.796c.619 0 1.112.177 1.48.533.371.355.557.856.557 1.503v3.966h-1.037v-3.732c0-.475-.119-.827-.359-1.054-.24-.228-.547-.342-.922-.342-.428 0-.777.136-1.049.408-.271.267-.409.666-.413 1.198v3.522h-1.036v-5.889h1.036v.755c.391-.579.972-.868 1.743-.868zm8.264-3.199h1.036v9.201h-1l-.024-1.144c-.188.391-.467.701-.839.928-.371.228-.786.342-1.246.342-.375 0-.731-.072-1.066-.216-.335-.148-.629-.351-.881-.611-.247-.263-.445-.589-.593-.976-.143-.388-.215-.809-.215-1.264 0-.907.265-1.644.796-2.211.536-.567 1.189-.85 1.959-.85.452 0 .861.111 1.228.335.372.22.653.519.845.899zm-1.857 8.428c.543 0 .998-.205 1.366-.617.371-.415.557-.932.557-1.551 0-.615-.186-1.13-.557-1.546-.372-.415-.827-.623-1.366-.623-.547 0-1.006.202-1.378.605-.371.4-.557.921-.557 1.564s.186 1.166.557 1.569c.372.4.831.599 1.378.599zm5.412-6.499c-.191 0-.357-.068-.497-.204-.136-.14-.203-.306-.203-.497 0-.192.067-.356.203-.491.14-.136.306-.204.497-.204.188 0 .35.068.486.204.139.135.209.299.209.491 0 .191-.07.357-.209.497-.136.136-.298.204-.486.204zm-.527 7.272v-5.889h1.043v5.889zm5.808-6.002c.619 0 1.112.177 1.48.533.371.355.557.856.557 1.503v3.966h-1.037v-3.732c0-.475-.119-.827-.359-1.054-.24-.228-.547-.342-.923-.342-.427 0-.776.136-1.048.408-.271.267-.409.666-.413 1.198v3.522h-1.037v-5.889h1.037v.755c.391-.579.972-.868 1.743-.868zm8.18.113h1.006v5.589c0 .995-.253 1.76-.76 2.295-.508.535-1.21.803-2.109.803-1.426 0-2.378-.602-2.857-1.804l.856-.419c.348.907 1.005 1.36 1.971 1.36.603 0 1.062-.192 1.378-.575.319-.384.479-.919.479-1.606v-1.09c-.184.352-.463.635-.839.851-.375.211-.784.317-1.228.317-.746 0-1.381-.275-1.905-.826-.523-.556-.784-1.254-.784-2.097s.261-1.538.784-2.085c.528-.551 1.167-.826 1.917-.826.452 0 .863.109 1.234.329.372.22.649.509.833.869zm-1.869 4.841c.531 0 .982-.202 1.354-.605.375-.404.563-.883.563-1.438 0-.559-.186-1.04-.557-1.444-.372-.403-.825-.605-1.36-.605s-.988.196-1.36.587c-.367.392-.551.879-.551 1.462 0 .575.186 1.06.557 1.456.376.391.827.587 1.354.587z"/></g><path d="m.5.5h799v288h-799z" stroke="#000"/></svg>