<svg fill="none" height="800" viewBox="0 0 800 800" width="800" xmlns="http://www.w3.org/2000/svg"><path d="m1 1h798v798h-798z" fill="#f3fbff"/><rect fill="#000" height="147" rx="50" width="650" x="61" y="227"/><path d="m112.207 267.344h3.043c-.06-2.949-2.574-5.037-6.29-5.037-3.665 0-6.417 2.062-6.409 5.148 0 2.505 1.781 3.946 4.654 4.687l1.985.511c1.884.478 3.128 1.066 3.137 2.421-.009 1.491-1.424 2.488-3.486 2.488-1.977 0-3.511-.886-3.639-2.718h-3.111c.128 3.468 2.71 5.42 6.775 5.42 4.185 0 6.614-2.088 6.623-5.165-.009-3.025-2.506-4.406-5.131-5.028l-1.636-.409c-1.432-.341-2.983-.946-2.966-2.403.008-1.313 1.184-2.276 3.162-2.276 1.883 0 3.127.878 3.289 2.361zm11.76 12.912c3.051 0 5.147-1.492 5.693-3.767l-2.881-.324c-.417 1.108-1.44 1.687-2.77 1.687-1.994 0-3.315-1.312-3.341-3.554h9.12v-.946c0-4.593-2.762-6.613-5.983-6.613-3.75 0-6.196 2.752-6.196 6.792 0 4.108 2.412 6.725 6.358 6.725zm-3.29-8.037c.094-1.671 1.329-3.077 3.17-3.077 1.773 0 2.966 1.296 2.983 3.077zm14.806-9.674h-3.085v17.455h3.085zm6.94 17.719c2.054 0 3.281-.963 3.843-2.062h.103v1.798h2.966v-8.761c0-3.461-2.822-4.5-5.319-4.5-2.753 0-4.866 1.227-5.548 3.613l2.881.409c.307-.895 1.176-1.662 2.684-1.662 1.432 0 2.216.733 2.216 2.02v.051c0 .887-.929.929-3.238 1.177-2.54.272-4.969 1.031-4.969 3.98 0 2.574 1.883 3.937 4.381 3.937zm.801-2.267c-1.287 0-2.208-.588-2.208-1.721 0-1.185 1.032-1.679 2.412-1.875.81-.111 2.429-.316 2.83-.64v1.543c0 1.457-1.176 2.693-3.034 2.693zm9.213 2.003h3.085v-7.96c0-1.611 1.074-2.702 2.403-2.702 1.304 0 2.199.878 2.199 2.224v8.438h3.026v-8.165c0-1.474.878-2.497 2.369-2.497 1.244 0 2.233.733 2.233 2.352v8.31h3.094v-8.787c0-2.923-1.688-4.474-4.091-4.474-1.901 0-3.349.937-3.929 2.395h-.136c-.503-1.483-1.773-2.395-3.537-2.395-1.756 0-3.068.903-3.614 2.395h-.153v-2.225h-2.949zm25.306.264c2.054 0 3.281-.963 3.844-2.062h.102v1.798h2.966v-8.761c0-3.461-2.821-4.5-5.318-4.5-2.753 0-4.867 1.227-5.549 3.613l2.881.409c.307-.895 1.176-1.662 2.685-1.662 1.432 0 2.216.733 2.216 2.02v.051c0 .887-.929.929-3.239 1.177-2.54.272-4.969 1.031-4.969 3.98 0 2.574 1.884 3.937 4.381 3.937zm.801-2.267c-1.287 0-2.207-.588-2.207-1.721 0-1.185 1.031-1.679 2.412-1.875.809-.111 2.429-.316 2.829-.64v1.543c0 1.457-1.176 2.693-3.034 2.693zm15.75-11.088h-2.582v-3.136h-3.086v3.136h-1.858v2.386h1.858v7.279c-.017 2.463 1.773 3.673 4.091 3.605.878-.026 1.483-.196 1.816-.307l-.52-2.412c-.171.043-.52.12-.904.12-.775 0-1.397-.273-1.397-1.518v-6.767h2.582zm8.533 18h3.086v-6.971h.127c.486.954 1.5 2.292 3.75 2.292 3.086 0 5.395-2.446 5.395-6.758 0-4.364-2.377-6.733-5.403-6.733-2.31 0-3.273 1.389-3.742 2.335h-.178v-2.165h-3.035zm3.026-11.454c0-2.54 1.091-4.185 3.077-4.185 2.054 0 3.11 1.747 3.11 4.185 0 2.454-1.073 4.244-3.11 4.244-1.969 0-3.077-1.705-3.077-4.244zm15.741 6.809c2.054 0 3.282-.963 3.844-2.062h.102v1.798h2.966v-8.761c0-3.461-2.821-4.5-5.318-4.5-2.753 0-4.866 1.227-5.548 3.613l2.881.409c.306-.895 1.176-1.662 2.684-1.662 1.432 0 2.216.733 2.216 2.02v.051c0 .887-.929.929-3.238 1.177-2.54.272-4.969 1.031-4.969 3.98 0 2.574 1.883 3.937 4.38 3.937zm.802-2.267c-1.287 0-2.208-.588-2.208-1.721 0-1.185 1.031-1.679 2.412-1.875.81-.111 2.429-.316 2.83-.64v1.543c0 1.457-1.176 2.693-3.034 2.693zm14.906 7.185c3.537 0 6.145-1.62 6.145-4.969v-13.304h-3.043v2.165h-.17c-.469-.946-1.449-2.335-3.759-2.335-3.025 0-5.403 2.369-5.403 6.673 0 4.27 2.378 6.4 5.395 6.4 2.241 0 3.289-1.201 3.767-2.164h.153v2.48c0 1.926-1.278 2.719-3.034 2.719-1.858 0-2.676-.878-3.051-1.645l-2.779.673c.563 1.832 2.446 3.307 5.779 3.307zm.025-7.79c-2.037 0-3.11-1.585-3.11-3.997 0-2.378 1.056-4.125 3.11-4.125 1.986 0 3.077 1.645 3.077 4.125 0 2.497-1.108 3.997-3.077 3.997zm9.282 2.608h3.085v-13.091h-3.085zm1.551-14.949c.98 0 1.781-.75 1.781-1.67 0-.929-.801-1.679-1.781-1.679-.989 0-1.79.75-1.79 1.679 0 .92.801 1.67 1.79 1.67zm8.329 12.563h-2.728l-.059.954c-.145 2.31-.75 4.662-.997 5.693h2.079c.409-1.073 1.355-3.562 1.594-5.71zm12.168-15.069h-3.162v17.455h3.162zm5.904 0h-2.454v1.756c0 1.389-.546 2.455-1.168 3.392l1.432.929c1.253-1.04 2.19-2.829 2.19-4.338zm14.678 4.364h-3.281l-3.017 9.725h-.136l-3.009-9.725h-3.29l4.662 13.091h3.409zm7.485 13.347c3.052 0 5.148-1.492 5.694-3.767l-2.881-.324c-.418 1.108-1.44 1.687-2.77 1.687-1.994 0-3.315-1.312-3.341-3.554h9.119v-.946c0-4.593-2.761-6.613-5.983-6.613-3.75 0-6.196 2.752-6.196 6.792 0 4.108 2.412 6.725 6.358 6.725zm-3.289-8.037c.093-1.671 1.329-3.077 3.17-3.077 1.773 0 2.966 1.296 2.983 3.077zm17.674-5.31v13.798c0 1.1-.469 1.688-1.654 1.688-.153 0-.272-.009-.443-.017v2.514c.222.017.409.017.631.017 2.889 0 4.551-1.329 4.551-4.159v-13.841zm1.534-1.858c.98 0 1.781-.75 1.781-1.67 0-.929-.801-1.679-1.781-1.679-.989 0-1.79.75-1.79 1.679 0 .92.801 1.67 1.79 1.67zm13.067 9.443c0 1.995-1.423 2.983-2.787 2.983-1.483 0-2.471-1.048-2.471-2.71v-7.858h-3.086v8.335c0 3.145 1.79 4.926 4.364 4.926 1.96 0 3.341-1.031 3.938-2.497h.136v2.327h2.991v-13.091h-3.085zm16.605-4.125c-.427-2.216-2.199-3.63-5.267-3.63-3.154 0-5.302 1.551-5.293 3.971-.009 1.909 1.168 3.171 3.682 3.691l2.233.468c1.201.265 1.764.75 1.764 1.492 0 .895-.972 1.568-2.438 1.568-1.414 0-2.335-.614-2.599-1.79l-3.009.29c.384 2.403 2.404 3.827 5.617 3.827 3.273 0 5.582-1.696 5.591-4.176-.009-1.867-1.21-3.009-3.682-3.546l-2.233-.477c-1.329-.298-1.858-.759-1.849-1.517-.009-.887.971-1.5 2.258-1.5 1.423 0 2.173.775 2.412 1.636zm9.362-3.46h-2.583v-3.136h-3.085v3.136h-1.858v2.386h1.858v7.279c-.017 2.463 1.773 3.673 4.091 3.605.878-.026 1.483-.196 1.815-.307l-.519-2.412c-.171.043-.52.12-.904.12-.775 0-1.398-.273-1.398-1.518v-6.767h2.583zm15.164 0h-2.719v-1.031c0-1.023.426-1.594 1.577-1.594.486 0 .895.111 1.15.188l.623-2.387c-.401-.136-1.279-.358-2.344-.358-2.276 0-4.091 1.304-4.091 3.946v1.236h-1.935v2.386h1.935v10.705h3.085v-10.705h2.719zm2.416 13.091h3.085v-13.091h-3.085zm1.551-14.949c.98 0 1.781-.75 1.781-1.67 0-.929-.801-1.679-1.781-1.679-.988 0-1.79.75-1.79 1.679 0 .92.802 1.67 1.79 1.67zm7.792 7.279c0-1.892 1.142-2.983 2.77-2.983 1.594 0 2.548 1.048 2.548 2.795v7.858h3.086v-8.335c.008-3.137-1.782-4.926-4.483-4.926-1.961 0-3.307.937-3.904 2.395h-.153v-2.225h-2.949v13.091h3.085zm11.54 7.67h3.085v-13.091h-3.085zm1.551-14.949c.98 0 1.781-.75 1.781-1.67 0-.929-.801-1.679-1.781-1.679-.989 0-1.79.75-1.79 1.679 0 .92.801 1.67 1.79 1.67zm15.053 5.318c-.426-2.216-2.199-3.63-5.267-3.63-3.153 0-5.301 1.551-5.292 3.971-.009 1.909 1.167 3.171 3.681 3.691l2.233.468c1.202.265 1.765.75 1.765 1.492 0 .895-.972 1.568-2.438 1.568-1.415 0-2.335-.614-2.599-1.79l-3.009.29c.384 2.403 2.404 3.827 5.617 3.827 3.272 0 5.582-1.696 5.591-4.176-.009-1.867-1.211-3.009-3.682-3.546l-2.233-.477c-1.33-.298-1.858-.759-1.85-1.517-.008-.887.972-1.5 2.259-1.5 1.423 0 2.173.775 2.412 1.636zm5.911 1.961c0-1.892 1.176-2.983 2.829-2.983 1.62 0 2.574 1.031 2.574 2.795v7.858h3.085v-8.335c0-3.162-1.789-4.926-4.508-4.926-2.011 0-3.29.912-3.895 2.395h-.153v-6.589h-3.017v17.455h3.085zm17.429 7.926c3.051 0 5.148-1.492 5.693-3.767l-2.881-.324c-.417 1.108-1.44 1.687-2.77 1.687-1.994 0-3.315-1.312-3.34-3.554h9.119v-.946c0-4.593-2.762-6.613-5.983-6.613-3.75 0-6.196 2.752-6.196 6.792 0 4.108 2.412 6.725 6.358 6.725zm-3.29-8.037c.094-1.671 1.33-3.077 3.17-3.077 1.773 0 2.966 1.296 2.983 3.077zm16.579 8.011c2.25 0 3.264-1.338 3.75-2.292h.187v2.062h3.034v-17.455h-3.093v6.529h-.128c-.469-.946-1.432-2.335-3.742-2.335-3.025 0-5.403 2.369-5.403 6.733 0 4.312 2.31 6.758 5.395 6.758zm.861-2.531c-2.037 0-3.111-1.79-3.111-4.244 0-2.438 1.057-4.185 3.111-4.185 1.985 0 3.076 1.645 3.076 4.185 0 2.539-1.108 4.244-3.076 4.244zm21.888-10.79h-2.582v-3.136h-3.085v3.136h-1.858v2.386h1.858v7.279c-.017 2.463 1.772 3.673 4.09 3.605.878-.026 1.483-.196 1.816-.307l-.52-2.412c-.171.043-.52.12-.903.12-.776 0-1.398-.273-1.398-1.518v-6.767h2.582zm5.947 5.421c0-1.892 1.176-2.983 2.829-2.983 1.62 0 2.574 1.031 2.574 2.795v7.858h3.086v-8.335c0-3.162-1.79-4.926-4.509-4.926-2.011 0-3.29.912-3.895 2.395h-.153v-6.589h-3.017v17.455h3.085zm17.429 7.926c3.051 0 5.148-1.492 5.693-3.767l-2.881-.324c-.417 1.108-1.44 1.687-2.77 1.687-1.994 0-3.315-1.312-3.34-3.554h9.119v-.946c0-4.593-2.761-6.613-5.983-6.613-3.75 0-6.196 2.752-6.196 6.792 0 4.108 2.412 6.725 6.358 6.725zm-3.29-8.037c.094-1.671 1.33-3.077 3.171-3.077 1.772 0 2.965 1.296 2.983 3.077zm22.532 8.011c2.25 0 3.264-1.338 3.75-2.292h.188v2.062h3.034v-17.455h-3.094v6.529h-.128c-.469-.946-1.432-2.335-3.741-2.335-3.026 0-5.404 2.369-5.404 6.733 0 4.312 2.31 6.758 5.395 6.758zm.861-2.531c-2.037 0-3.111-1.79-3.111-4.244 0-2.438 1.057-4.185 3.111-4.185 1.986 0 3.077 1.645 3.077 4.185 0 2.539-1.108 4.244-3.077 4.244zm15.194 2.557c3.051 0 5.147-1.492 5.693-3.767l-2.881-.324c-.417 1.108-1.44 1.687-2.77 1.687-1.994 0-3.315-1.312-3.341-3.554h9.12v-.946c0-4.593-2.762-6.613-5.983-6.613-3.75 0-6.196 2.752-6.196 6.792 0 4.108 2.412 6.725 6.358 6.725zm-3.29-8.037c.094-1.671 1.33-3.077 3.17-3.077 1.773 0 2.966 1.296 2.983 3.077zm22.067-1.85c-.426-2.216-2.198-3.63-5.267-3.63-3.153 0-5.301 1.551-5.292 3.971-.009 1.909 1.167 3.171 3.682 3.691l2.233.468c1.201.265 1.764.75 1.764 1.492 0 .895-.972 1.568-2.438 1.568-1.415 0-2.335-.614-2.599-1.79l-3.009.29c.384 2.403 2.404 3.827 5.617 3.827 3.273 0 5.582-1.696 5.591-4.176-.009-1.867-1.211-3.009-3.682-3.546l-2.233-.477c-1.33-.298-1.858-.759-1.85-1.517-.008-.887.972-1.5 2.259-1.5 1.423 0 2.173.775 2.412 1.636zm2.826 9.631h3.085v-13.091h-3.085zm1.551-14.949c.98 0 1.781-.75 1.781-1.67 0-.929-.801-1.679-1.781-1.679-.989 0-1.79.75-1.79 1.679 0 .92.801 1.67 1.79 1.67zm10.4 20.131c3.537 0 6.145-1.62 6.145-4.969v-13.304h-3.043v2.165h-.17c-.469-.946-1.449-2.335-3.759-2.335-3.026 0-5.403 2.369-5.403 6.673 0 4.27 2.377 6.4 5.394 6.4 2.242 0 3.29-1.201 3.768-2.164h.153v2.48c0 1.926-1.278 2.719-3.034 2.719-1.858 0-2.676-.878-3.051-1.645l-2.779.673c.563 1.832 2.446 3.307 5.779 3.307zm.025-7.79c-2.037 0-3.111-1.585-3.111-3.997 0-2.378 1.057-4.125 3.111-4.125 1.986 0 3.077 1.645 3.077 4.125 0 2.497-1.108 3.997-3.077 3.997zm12.367-5.062c0-1.892 1.142-2.983 2.77-2.983 1.593 0 2.548 1.048 2.548 2.795v7.858h3.085v-8.335c.009-3.137-1.781-4.926-4.483-4.926-1.96 0-3.307.937-3.903 2.395h-.154v-2.225h-2.948v13.091h3.085zm21.886-1.961c-.426-2.216-2.199-3.63-5.267-3.63-3.153 0-5.301 1.551-5.293 3.971-.008 1.909 1.168 3.171 3.682 3.691l2.233.468c1.202.265 1.764.75 1.764 1.492 0 .895-.971 1.568-2.437 1.568-1.415 0-2.335-.614-2.599-1.79l-3.009.29c.384 2.403 2.403 3.827 5.616 3.827 3.273 0 5.583-1.696 5.591-4.176-.008-1.867-1.21-3.009-3.681-3.546l-2.233-.477c-1.33-.298-1.858-.759-1.85-1.517-.008-.887.972-1.5 2.259-1.5 1.423 0 2.173.775 2.412 1.636zm4.726 9.819c1.006 0 1.866-.836 1.875-1.876-.009-1.022-.869-1.857-1.875-1.857-1.04 0-1.884.835-1.875 1.857-.009 1.04.835 1.876 1.875 1.876zm-479.691 46.247c-.537-3.878-3.52-6.128-7.389-6.128-4.56 0-7.995 3.324-7.995 8.966 0 5.633 3.392 8.966 7.995 8.966 4.15 0 6.903-2.685 7.389-6.017l-3.188-.017c-.4 2.045-2.071 3.196-4.159 3.196-2.829 0-4.858-2.123-4.858-6.128 0-3.938 2.012-6.128 4.867-6.128 2.122 0 3.784 1.202 4.15 3.29zm8.469 11.821c3.836 0 6.273-2.702 6.273-6.75 0-4.057-2.437-6.767-6.273-6.767-3.835 0-6.272 2.71-6.272 6.767 0 4.048 2.437 6.75 6.272 6.75zm.017-2.472c-2.122 0-3.161-1.892-3.161-4.287s1.039-4.312 3.161-4.312c2.089 0 3.128 1.917 3.128 4.312s-1.039 4.287-3.128 4.287zm17.218-3.29c0 1.995-1.423 2.983-2.786 2.983-1.483 0-2.472-1.048-2.472-2.71v-7.858h-3.085v8.335c0 3.145 1.789 4.926 4.363 4.926 1.961 0 3.341-1.031 3.938-2.497h.136v2.327h2.992v-13.091h-3.086zm9.344-11.949h-3.086v17.455h3.086zm8.03 17.685c2.25 0 3.264-1.338 3.75-2.292h.188v2.062h3.034v-17.455h-3.094v6.529h-.128c-.469-.946-1.432-2.335-3.741-2.335-3.026 0-5.404 2.369-5.404 6.733 0 4.312 2.31 6.758 5.395 6.758zm.861-2.531c-2.037 0-3.111-1.79-3.111-4.244 0-2.438 1.057-4.185 3.111-4.185 1.986 0 3.077 1.645 3.077 4.185 0 2.539-1.108 4.244-3.077 4.244zm17.269 7.21c2.403 0 3.793-1.236 4.534-3.324l5.259-14.659-3.299-.017-3.025 9.886h-.137l-3.017-9.886h-3.272l4.747 13.364-.264.707c-.571 1.492-1.475 1.594-2.821 1.202l-.716 2.403c.417.171 1.167.324 2.011.324zm17.199-4.653c3.835 0 6.273-2.702 6.273-6.75 0-4.057-2.438-6.767-6.273-6.767s-6.273 2.71-6.273 6.767c0 4.048 2.438 6.75 6.273 6.75zm.017-2.472c-2.122 0-3.162-1.892-3.162-4.287s1.04-4.312 3.162-4.312c2.088 0 3.128 1.917 3.128 4.312s-1.04 4.287-3.128 4.287zm17.218-3.29c0 1.995-1.423 2.983-2.787 2.983-1.483 0-2.472-1.048-2.472-2.71v-7.858h-3.085v8.335c0 3.145 1.79 4.926 4.364 4.926 1.96 0 3.341-1.031 3.937-2.497h.137v2.327h2.991v-13.091h-3.085zm22.558-4.125c-.427-2.216-2.199-3.63-5.268-3.63-3.153 0-5.301 1.551-5.292 3.971-.009 1.909 1.167 3.171 3.682 3.691l2.233.468c1.201.265 1.764.75 1.764 1.492 0 .895-.972 1.568-2.438 1.568-1.414 0-2.335-.614-2.599-1.79l-3.009.29c.384 2.403 2.404 3.827 5.617 3.827 3.273 0 5.582-1.696 5.591-4.176-.009-1.867-1.21-3.009-3.682-3.546l-2.233-.477c-1.33-.298-1.858-.759-1.849-1.517-.009-.887.971-1.5 2.258-1.5 1.423 0 2.173.775 2.412 1.636zm8.62 9.887c3.051 0 5.148-1.492 5.693-3.767l-2.88-.324c-.418 1.108-1.441 1.687-2.77 1.687-1.994 0-3.315-1.312-3.341-3.554h9.119v-.946c0-4.593-2.761-6.613-5.983-6.613-3.75 0-6.196 2.752-6.196 6.792 0 4.108 2.412 6.725 6.358 6.725zm-3.29-8.037c.094-1.671 1.33-3.077 3.171-3.077 1.773 0 2.966 1.296 2.983 3.077zm14.807.111c0-1.892 1.142-2.983 2.769-2.983 1.594 0 2.549 1.048 2.549 2.795v7.858h3.085v-8.335c.009-3.137-1.781-4.926-4.483-4.926-1.96 0-3.307.937-3.903 2.395h-.154v-2.225h-2.949v13.091h3.086zm16.397 7.9c2.25 0 3.265-1.338 3.75-2.292h.188v2.062h3.034v-17.455h-3.094v6.529h-.128c-.468-.946-1.432-2.335-3.741-2.335-3.026 0-5.404 2.369-5.404 6.733 0 4.312 2.31 6.758 5.395 6.758zm.861-2.531c-2.037 0-3.111-1.79-3.111-4.244 0-2.438 1.057-4.185 3.111-4.185 1.986 0 3.077 1.645 3.077 4.185 0 2.539-1.108 4.244-3.077 4.244zm21.386 2.54c3.69 0 6.264-2.506 6.264-5.975 0-3.358-2.335-5.778-5.506-5.778-1.414 0-2.667.562-3.315 1.329h-.102l.503-4.627h7.508v-2.643h-10.125l-.912 9 2.855.469c.588-.648 1.696-1.082 2.745-1.074 1.917.009 3.298 1.424 3.289 3.401.009 1.952-1.338 3.341-3.204 3.341-1.577 0-2.847-.997-2.958-2.429h-3.068c.085 2.898 2.617 4.986 6.026 4.986zm15.571.093c4.21.009 6.724-3.315 6.724-9.042 0-5.693-2.531-8.983-6.724-8.983s-6.716 3.281-6.725 8.983c0 5.719 2.515 9.042 6.725 9.042zm0-2.667c-2.174 0-3.537-2.182-3.529-6.375.009-4.159 1.364-6.35 3.529-6.35 2.173 0 3.528 2.191 3.537 6.35 0 4.193-1.355 6.375-3.537 6.375zm15.679 2.335h7.066c3.997 0 5.957-2.037 5.957-4.756 0-2.642-1.875-4.193-3.733-4.287v-.17c1.705-.401 3.051-1.594 3.051-3.716 0-2.599-1.875-4.526-5.659-4.526h-6.682zm3.162-2.642v-5.114h3.486c1.952 0 3.162 1.194 3.162 2.753 0 1.389-.954 2.361-3.247 2.361zm0-7.389v-4.816h3.196c1.858 0 2.821.981 2.821 2.327 0 1.534-1.244 2.489-2.889 2.489zm11.845-4.773h5.395v14.804h3.136v-14.804h5.395v-2.651h-13.926zm30.801 3.239c-.537-3.878-3.52-6.128-7.389-6.128-4.56 0-7.995 3.324-7.995 8.966 0 5.633 3.393 8.966 7.995 8.966 4.15 0 6.903-2.685 7.389-6.017l-3.188-.017c-.4 2.045-2.071 3.196-4.159 3.196-2.829 0-4.858-2.123-4.858-6.128 0-3.938 2.012-6.128 4.867-6.128 2.122 0 3.784 1.202 4.15 3.29zm15.249-1.526h-2.582v-3.136h-3.085v3.136h-1.858v2.386h1.858v7.279c-.017 2.463 1.772 3.673 4.091 3.605.877-.026 1.483-.196 1.815-.307l-.52-2.412c-.17.043-.52.12-.903.12-.776 0-1.398-.273-1.398-1.518v-6.767h2.582zm8.15 13.347c3.835 0 6.273-2.702 6.273-6.75 0-4.057-2.438-6.767-6.273-6.767s-6.273 2.71-6.273 6.767c0 4.048 2.438 6.75 6.273 6.75zm.017-2.472c-2.122 0-3.162-1.892-3.162-4.287s1.04-4.312 3.162-4.312c2.088 0 3.128 1.917 3.128 4.312s-1.04 4.287-3.128 4.287zm21.365-10.875h-2.583v-3.136h-3.085v3.136h-1.858v2.386h1.858v7.279c-.017 2.463 1.773 3.673 4.091 3.605.878-.026 1.483-.196 1.815-.307l-.52-2.412c-.17.043-.52.12-.903.12-.776 0-1.398-.273-1.398-1.518v-6.767h2.583zm5.946 5.421c0-1.892 1.176-2.983 2.83-2.983 1.619 0 2.574 1.031 2.574 2.795v7.858h3.085v-8.335c0-3.162-1.79-4.926-4.509-4.926-2.011 0-3.289.912-3.895 2.395h-.153v-6.589h-3.017v17.455h3.085zm11.634 7.67h3.085v-13.091h-3.085zm1.551-14.949c.98 0 1.781-.75 1.781-1.67 0-.929-.801-1.679-1.781-1.679-.989 0-1.79.75-1.79 1.679 0 .92.801 1.67 1.79 1.67zm15.053 5.318c-.426-2.216-2.199-3.63-5.267-3.63-3.153 0-5.301 1.551-5.292 3.971-.009 1.909 1.167 3.171 3.681 3.691l2.233.468c1.202.265 1.765.75 1.765 1.492 0 .895-.972 1.568-2.438 1.568-1.415 0-2.335-.614-2.599-1.79l-3.009.29c.384 2.403 2.403 3.827 5.617 3.827 3.272 0 5.582-1.696 5.59-4.176-.008-1.867-1.21-3.009-3.681-3.546l-2.233-.477c-1.33-.298-1.858-.759-1.85-1.517-.008-.887.972-1.5 2.259-1.5 1.423 0 2.173.775 2.412 1.636zm12.546 9.895c2.054 0 3.281-.963 3.843-2.062h.103v1.798h2.966v-8.761c0-3.461-2.821-4.5-5.319-4.5-2.752 0-4.866 1.227-5.548 3.613l2.881.409c.307-.895 1.176-1.662 2.684-1.662 1.432 0 2.216.733 2.216 2.02v.051c0 .887-.929.929-3.238 1.177-2.54.272-4.969 1.031-4.969 3.98 0 2.574 1.883 3.937 4.381 3.937zm.801-2.267c-1.287 0-2.208-.588-2.208-1.721 0-1.185 1.032-1.679 2.412-1.875.81-.111 2.429-.316 2.83-.64v1.543c0 1.457-1.176 2.693-3.034 2.693zm14.071 2.233c2.25 0 3.264-1.338 3.75-2.292h.187v2.062h3.034v-17.455h-3.093v6.529h-.128c-.469-.946-1.432-2.335-3.742-2.335-3.025 0-5.403 2.369-5.403 6.733 0 4.312 2.31 6.758 5.395 6.758zm.861-2.531c-2.037 0-3.111-1.79-3.111-4.244 0-2.438 1.057-4.185 3.111-4.185 1.985 0 3.076 1.645 3.076 4.185 0 2.539-1.108 4.244-3.076 4.244zm14.256 2.531c2.25 0 3.264-1.338 3.75-2.292h.187v2.062h3.035v-17.455h-3.094v6.529h-.128c-.469-.946-1.432-2.335-3.741-2.335-3.026 0-5.404 2.369-5.404 6.733 0 4.312 2.31 6.758 5.395 6.758zm.861-2.531c-2.037 0-3.111-1.79-3.111-4.244 0-2.438 1.057-4.185 3.111-4.185 1.986 0 3.076 1.645 3.076 4.185 0 2.539-1.107 4.244-3.076 4.244zm9.398 2.301h3.085v-7.696c0-1.662 1.253-2.838 2.949-2.838.52 0 1.168.094 1.432.179v-2.838c-.281-.051-.767-.085-1.108-.085-1.5 0-2.753.852-3.23 2.369h-.136v-2.182h-2.992zm14.772.256c3.051 0 5.148-1.492 5.693-3.767l-2.88-.324c-.418 1.108-1.441 1.687-2.77 1.687-1.994 0-3.315-1.312-3.341-3.554h9.119v-.946c0-4.593-2.761-6.613-5.983-6.613-3.75 0-6.196 2.752-6.196 6.792 0 4.108 2.412 6.725 6.358 6.725zm-3.29-8.037c.094-1.671 1.33-3.077 3.171-3.077 1.773 0 2.966 1.296 2.983 3.077zm22.068-1.85c-.426-2.216-2.199-3.63-5.267-3.63-3.154 0-5.301 1.551-5.293 3.971-.008 1.909 1.168 3.171 3.682 3.691l2.233.468c1.202.265 1.764.75 1.764 1.492 0 .895-.971 1.568-2.437 1.568-1.415 0-2.335-.614-2.6-1.79l-3.008.29c.383 2.403 2.403 3.827 5.616 3.827 3.273 0 5.583-1.696 5.591-4.176-.008-1.867-1.21-3.009-3.682-3.546l-2.233-.477c-1.329-.298-1.858-.759-1.849-1.517-.009-.887.972-1.5 2.259-1.5 1.423 0 2.173.775 2.411 1.636zm13.172 0c-.426-2.216-2.199-3.63-5.267-3.63-3.154 0-5.301 1.551-5.293 3.971-.008 1.909 1.168 3.171 3.682 3.691l2.233.468c1.202.265 1.764.75 1.764 1.492 0 .895-.971 1.568-2.437 1.568-1.415 0-2.336-.614-2.6-1.79l-3.008.29c.383 2.403 2.403 3.827 5.616 3.827 3.273 0 5.583-1.696 5.591-4.176-.008-1.867-1.21-3.009-3.682-3.546l-2.233-.477c-1.329-.298-1.858-.759-1.849-1.517-.009-.887.971-1.5 2.258-1.5 1.424 0 2.174.775 2.412 1.636zm5.774 4.5h2.838v-.221c.017-1.807.605-2.634 1.994-3.486 1.569-.938 2.549-2.216 2.549-4.168 0-2.88-2.242-4.687-5.498-4.687-2.982 0-5.403 1.653-5.488 4.892h3.034c.077-1.602 1.236-2.369 2.437-2.369 1.304 0 2.353.869 2.353 2.207 0 1.193-.793 2.011-1.824 2.659-1.509.938-2.378 1.884-2.395 4.952zm1.491 5.319c1.006 0 1.867-.836 1.875-1.876-.008-1.022-.869-1.857-1.875-1.857-1.039 0-1.883.835-1.875 1.857-.008 1.04.836 1.876 1.875 1.876z" fill="#fff"/><rect fill="#000" height="89" rx="44.5" width="650" x="61" y="384"/><path d="m102.722 437h3.034v-2.062h.179c.485.954 1.5 2.292 3.75 2.292 3.085 0 5.395-2.446 5.395-6.758 0-4.364-2.378-6.733-5.404-6.733-2.31 0-3.273 1.389-3.741 2.335h-.128v-6.529h-3.085zm3.025-6.545c0-2.54 1.091-4.185 3.077-4.185 2.054 0 3.111 1.747 3.111 4.185 0 2.454-1.074 4.244-3.111 4.244-1.969 0-3.077-1.705-3.077-4.244zm17.666 6.801c3.289 0 5.386-1.952 5.608-4.73h-2.949c-.264 1.406-1.279 2.215-2.634 2.215-1.926 0-3.17-1.61-3.17-4.286 0-2.643 1.27-4.228 3.17-4.228 1.483 0 2.395.955 2.634 2.216h2.949c-.213-2.838-2.429-4.704-5.625-4.704-3.836 0-6.256 2.77-6.256 6.767 0 3.963 2.361 6.75 6.273 6.75zm15.206-17.711h-3.008l-4.338 2.787v2.898l4.082-2.608h.102v14.378h3.162zm16.287 22.364v-18h-3.034v2.165h-.179c-.469-.946-1.432-2.335-3.741-2.335-3.026 0-5.404 2.369-5.404 6.733 0 4.312 2.31 6.758 5.395 6.758 2.25 0 3.264-1.338 3.75-2.292h.128v6.971zm-3.025-11.454c0 2.539-1.108 4.244-3.077 4.244-2.037 0-3.111-1.79-3.111-4.244 0-2.438 1.057-4.185 3.111-4.185 1.986 0 3.077 1.645 3.077 4.185zm9.971 6.809c2.054 0 3.282-.963 3.844-2.062h.102v1.798h2.966v-8.761c0-3.461-2.821-4.5-5.318-4.5-2.753 0-4.866 1.227-5.548 3.613l2.88.409c.307-.895 1.177-1.662 2.685-1.662 1.432 0 2.216.733 2.216 2.02v.051c0 .887-.929.929-3.239 1.177-2.539.272-4.968 1.031-4.968 3.98 0 2.574 1.883 3.937 4.38 3.937zm.801-2.267c-1.287 0-2.207-.588-2.207-1.721 0-1.185 1.031-1.679 2.412-1.875.81-.111 2.429-.316 2.83-.64v1.543c0 1.457-1.177 2.693-3.035 2.693zm9.213 2.003h3.086v-7.696c0-1.662 1.253-2.838 2.949-2.838.519 0 1.167.094 1.431.179v-2.838c-.281-.051-.767-.085-1.108-.085-1.5 0-2.752.852-3.23 2.369h-.136v-2.182h-2.992zm15.934.332c4.21.009 6.724-3.315 6.724-9.042 0-5.693-2.531-8.983-6.724-8.983s-6.716 3.281-6.725 8.983c0 5.719 2.514 9.042 6.725 9.042zm0-2.667c-2.174 0-3.537-2.182-3.529-6.375.009-4.159 1.364-6.35 3.529-6.35 2.173 0 3.528 2.191 3.537 6.35 0 4.193-1.355 6.375-3.537 6.375zm19.937-7.296c-.427-2.216-2.199-3.63-5.268-3.63-3.153 0-5.301 1.551-5.292 3.971-.009 1.909 1.167 3.171 3.682 3.691l2.233.468c1.201.265 1.764.75 1.764 1.492 0 .895-.972 1.568-2.438 1.568-1.414 0-2.335-.614-2.599-1.79l-3.009.29c.384 2.403 2.404 3.827 5.617 3.827 3.273 0 5.582-1.696 5.591-4.176-.009-1.867-1.21-3.009-3.682-3.546l-2.233-.477c-1.33-.298-1.858-.759-1.849-1.517-.009-.887.971-1.5 2.258-1.5 1.423 0 2.173.775 2.412 1.636zm2.825 9.631h3.085v-7.696c0-1.662 1.253-2.838 2.949-2.838.52 0 1.167.094 1.432.179v-2.838c-.282-.051-.767-.085-1.108-.085-1.5 0-2.753.852-3.23 2.369h-.137v-2.182h-2.991zm9.515 0h3.086v-7.696c0-1.662 1.252-2.838 2.949-2.838.519 0 1.167.094 1.431.179v-2.838c-.281-.051-.767-.085-1.108-.085-1.5 0-2.752.852-3.23 2.369h-.136v-2.182h-2.992zm9.516 0h3.085v-7.696c0-1.662 1.253-2.838 2.949-2.838.52 0 1.168.094 1.432.179v-2.838c-.281-.051-.767-.085-1.108-.085-1.5 0-2.753.852-3.23 2.369h-.136v-2.182h-2.992zm10.121 0h3.281l7.415-14.753v-2.702h-11.889v2.643h8.616v.119zm16.003-13.091h-3.272l3.886 6.546-3.989 6.545h3.273l2.744-4.713 2.77 4.713h3.247l-4.014-6.545 3.946-6.546h-3.264l-2.685 4.832zm17.608 0h-2.718v-1.031c0-1.023.426-1.594 1.576-1.594.486 0 .895.111 1.151.188l.622-2.387c-.401-.136-1.278-.358-2.344-.358-2.275 0-4.091 1.304-4.091 3.946v1.236h-1.934v2.386h1.934v10.705h3.086v-10.705h2.718zm2.416 13.091h3.086v-4.398l1.125-1.201 4.005 5.599h3.691l-5.37-7.44 5.071-5.651h-3.605l-4.704 5.259h-.213v-9.623h-3.086zm25.498-13.091h-3.281l-3.017 9.725h-.136l-3.009-9.725h-3.29l4.662 13.091h3.409zm4.053 18c2.403 0 3.793-1.236 4.534-3.324l5.259-14.659-3.299-.017-3.025 9.886h-.137l-3.017-9.886h-3.272l4.747 13.364-.265.707c-.571 1.492-1.474 1.594-2.821 1.202l-.715 2.403c.417.171 1.167.324 2.011.324zm17.968-4.67c3.69 0 6.264-2.506 6.264-5.975 0-3.358-2.335-5.778-5.506-5.778-1.414 0-2.667.562-3.315 1.329h-.102l.503-4.627h7.508v-2.643h-10.125l-.912 9 2.855.469c.588-.648 1.696-1.082 2.745-1.074 1.917.009 3.298 1.424 3.289 3.401.009 1.952-1.338 3.341-3.204 3.341-1.577 0-2.847-.997-2.957-2.429h-3.069c.086 2.898 2.617 4.986 6.026 4.986zm12.239-17.694h-3.086v17.455h3.086zm9.53 17.694c3.767.025 6.298-2.566 6.29-6.017.008-3.299-2.344-5.685-5.404-5.685-1.875 0-3.528.912-4.363 2.412h-.119c.008-3.673 1.355-5.906 3.775-5.906 1.5 0 2.514.869 2.838 2.207h3.111c-.375-2.821-2.651-4.943-5.949-4.943-4.193 0-6.844 3.494-6.844 9.46-.008 6.401 3.316 8.455 6.665 8.472zm-.017-2.557c-1.866 0-3.23-1.543-3.239-3.367.017-1.832 1.432-3.366 3.282-3.366 1.849 0 3.204 1.466 3.196 3.341.008 1.909-1.389 3.392-3.239 3.392zm8.872-.921h8.327v3.239h3.017v-3.239h2.233v-2.599h-2.233v-11.617h-3.938l-7.406 11.702zm8.361-2.599h-5.122v-.136l4.986-7.901h.136zm14.203 6.077c3.733 0 6.452-2.14 6.443-5.088.009-2.182-1.355-3.75-3.801-4.1v-.136c1.892-.409 3.162-1.816 3.154-3.776.008-2.659-2.259-4.832-5.745-4.832-3.392 0-6.017 2.02-6.085 4.943h3.043c.051-1.466 1.414-2.378 3.025-2.378 1.628 0 2.71.989 2.702 2.455.008 1.525-1.253 2.539-3.06 2.539h-1.542v2.438h1.542c2.208 0 3.52 1.108 3.512 2.685.008 1.542-1.33 2.599-3.196 2.599-1.756 0-3.111-.912-3.188-2.335h-3.204c.085 2.949 2.718 4.986 6.4 4.986zm12.488-17.694h-3.085v17.455h3.085zm5.09 22.364c2.404 0 3.793-1.236 4.534-3.324l5.259-14.659-3.298-.017-3.026 9.886h-.136l-3.017-9.886h-3.273l4.747 13.364-.264.707c-.571 1.492-1.475 1.594-2.821 1.202l-.716 2.403c.418.171 1.168.324 2.011.324zm16.347-4.679c2.25 0 3.264-1.338 3.75-2.292h.187v2.062h3.034v-17.455h-3.093v6.529h-.128c-.469-.946-1.432-2.335-3.742-2.335-3.025 0-5.403 2.369-5.403 6.733 0 4.312 2.31 6.758 5.395 6.758zm.861-2.531c-2.037 0-3.111-1.79-3.111-4.244 0-2.438 1.057-4.185 3.111-4.185 1.985 0 3.076 1.645 3.076 4.185 0 2.539-1.108 4.244-3.076 4.244zm12.483-5.369c0-1.892 1.142-2.983 2.77-2.983 1.594 0 2.549 1.048 2.549 2.795v7.858h3.085v-8.335c.008-3.137-1.782-4.926-4.483-4.926-1.96 0-3.307.937-3.904 2.395h-.153v-2.225h-2.949v13.091h3.085zm14.242 7.67h3.221l2.455-8.847h.179l2.454 8.847h3.214l3.707-13.091h-3.153l-2.268 9.153h-.127l-2.353-9.153h-3.11l-2.353 9.205h-.119l-2.301-9.205h-3.145zm23.41-17.693c-3.784-.026-6.299 2.574-6.299 5.983.009 3.29 2.353 5.667 5.412 5.667 1.884 0 3.52-.912 4.364-2.412h.119c-.008 3.733-1.363 5.958-3.775 5.958-1.509 0-2.523-.869-2.838-2.259h-3.111c.358 2.89 2.642 4.995 5.949 4.995 4.184 0 6.852-3.495 6.843-9.503-.008-6.358-3.315-8.412-6.664-8.429zm.008 2.557c1.867 0 3.239 1.551 3.239 3.332.008 1.807-1.432 3.358-3.273 3.358-1.858 0-3.196-1.466-3.205-3.332 0-1.875 1.39-3.358 3.239-3.358zm9.529 15.136h3.085v-7.696c0-1.662 1.253-2.838 2.949-2.838.52 0 1.167.094 1.431.179v-2.838c-.281-.051-.767-.085-1.108-.085-1.5 0-2.752.852-3.23 2.369h-.136v-2.182h-2.991zm14.772.256c3.051 0 5.147-1.492 5.693-3.767l-2.881-.324c-.418 1.108-1.44 1.687-2.77 1.687-1.994 0-3.315-1.312-3.341-3.554h9.12v-.946c0-4.593-2.762-6.613-5.983-6.613-3.75 0-6.196 2.752-6.196 6.792 0 4.108 2.412 6.725 6.358 6.725zm-3.29-8.037c.094-1.671 1.329-3.077 3.17-3.077 1.773 0 2.966 1.296 2.983 3.077zm17.755 8.02c3.69 0 6.264-2.506 6.264-5.975 0-3.358-2.335-5.778-5.506-5.778-1.414 0-2.667.562-3.315 1.329h-.102l.503-4.627h7.508v-2.643h-10.125l-.912 9 2.855.469c.588-.648 1.696-1.082 2.745-1.074 1.917.009 3.298 1.424 3.289 3.401.009 1.952-1.338 3.341-3.204 3.341-1.577 0-2.847-.997-2.958-2.429h-3.068c.085 2.898 2.617 4.986 6.026 4.986zm15.179-17.932c-3.784-.026-6.299 2.574-6.299 5.983.009 3.29 2.353 5.667 5.412 5.667 1.884 0 3.52-.912 4.364-2.412h.119c-.008 3.733-1.363 5.958-3.775 5.958-1.509 0-2.523-.869-2.838-2.259h-3.111c.358 2.89 2.642 4.995 5.949 4.995 4.184 0 6.852-3.495 6.844-9.503-.009-6.358-3.316-8.412-6.665-8.429zm.008 2.557c1.867 0 3.239 1.551 3.239 3.332.008 1.807-1.432 3.358-3.273 3.358-1.858 0-3.196-1.466-3.204-3.332 0-1.875 1.389-3.358 3.238-3.358zm15.222 20.318c3.537 0 6.145-1.62 6.145-4.969v-13.304h-3.043v2.165h-.17c-.469-.946-1.449-2.335-3.759-2.335-3.025 0-5.403 2.369-5.403 6.673 0 4.27 2.378 6.4 5.395 6.4 2.241 0 3.289-1.201 3.767-2.164h.153v2.48c0 1.926-1.278 2.719-3.034 2.719-1.858 0-2.676-.878-3.051-1.645l-2.779.673c.563 1.832 2.446 3.307 5.779 3.307zm.025-7.79c-2.037 0-3.11-1.585-3.11-3.997 0-2.378 1.056-4.125 3.11-4.125 1.986 0 3.077 1.645 3.077 4.125 0 2.497-1.108 3.997-3.077 3.997zm15.819-10.483h-2.583v-3.136h-3.085v3.136h-1.858v2.386h1.858v7.279c-.017 2.463 1.773 3.673 4.091 3.605.878-.026 1.483-.196 1.815-.307l-.52-2.412c-.17.043-.52.12-.903.12-.776 0-1.398-.273-1.398-1.518v-6.767h2.583zm2.409 13.091h10.748v-2.557h-6.648v-.111l6.426-8.318v-2.105h-10.304v2.557h6.528v.111l-6.75 8.463zm13.477 0h10.747v-2.557h-6.648v-.111l6.427-8.318v-2.105h-10.304v2.557h6.528v.111l-6.75 8.463zm16.349 0h3.221l2.455-8.847h.179l2.454 8.847h3.213l3.708-13.091h-3.154l-2.267 9.153h-.128l-2.352-9.153h-3.111l-2.352 9.205h-.119l-2.301-9.205h-3.145zm24.015-13.091h-2.719v-1.031c0-1.023.426-1.594 1.577-1.594.485 0 .894.111 1.15.188l.622-2.387c-.4-.136-1.278-.358-2.343-.358-2.276 0-4.091 1.304-4.091 3.946v1.236h-1.935v2.386h1.935v10.705h3.085v-10.705h2.719zm8.45 13.33c3.69 0 6.264-2.506 6.264-5.975 0-3.358-2.335-5.778-5.506-5.778-1.414 0-2.667.562-3.315 1.329h-.102l.503-4.627h7.508v-2.643h-10.125l-.912 9 2.855.469c.588-.648 1.696-1.082 2.745-1.074 1.917.009 3.298 1.424 3.289 3.401.009 1.952-1.338 3.341-3.204 3.341-1.577 0-2.847-.997-2.958-2.429h-3.068c.086 2.898 2.617 4.986 6.026 4.986zm9.153-.239h3.086v-7.96c0-1.611 1.073-2.702 2.403-2.702 1.304 0 2.199.878 2.199 2.224v8.438h3.025v-8.165c0-1.474.878-2.497 2.37-2.497 1.244 0 2.233.733 2.233 2.352v8.31h3.093v-8.787c0-2.923-1.687-4.474-4.091-4.474-1.9 0-3.349.937-3.929 2.395h-.136c-.503-1.483-1.773-2.395-3.537-2.395-1.755 0-3.068.903-3.613 2.395h-.154v-2.225h-2.949zm26.397.23c2.25 0 3.265-1.338 3.75-2.292h.188v2.062h3.034v-17.455h-3.094v6.529h-.128c-.468-.946-1.432-2.335-3.741-2.335-3.026 0-5.404 2.369-5.404 6.733 0 4.312 2.31 6.758 5.395 6.758zm.861-2.531c-2.037 0-3.111-1.79-3.111-4.244 0-2.438 1.057-4.185 3.111-4.185 1.986 0 3.077 1.645 3.077 4.185 0 2.539-1.108 4.244-3.077 4.244zm21.22 7.21v-18h-3.035v2.165h-.179c-.468-.946-1.431-2.335-3.741-2.335-3.026 0-5.403 2.369-5.403 6.733 0 4.312 2.309 6.758 5.394 6.758 2.25 0 3.265-1.338 3.75-2.292h.128v6.971zm-3.026-11.454c0 2.539-1.108 4.244-3.077 4.244-2.037 0-3.111-1.79-3.111-4.244 0-2.438 1.057-4.185 3.111-4.185 1.986 0 3.077 1.645 3.077 4.185z" fill="#fff"/><path d="m36 473c14.3594 0 26-11.641 26-26v-27l20.5 43c-2.6667 3.833-17.7 10-46.5 10z" fill="#000"/><rect fill="#2c7be5" height="89" rx="44.5" transform="matrix(-1 0 0 1 740 484)" width="499"/><path d="m281.955 522.196h5.394v14.804h3.137v-14.804h5.395v-2.651h-13.926zm19.559 7.134c0-1.892 1.176-2.983 2.83-2.983 1.619 0 2.574 1.031 2.574 2.795v7.858h3.085v-8.335c0-3.162-1.79-4.926-4.509-4.926-2.011 0-3.289.912-3.895 2.395h-.153v-6.589h-3.017v17.455h3.085zm15.401 7.934c2.054 0 3.281-.963 3.844-2.062h.102v1.798h2.966v-8.761c0-3.461-2.821-4.5-5.318-4.5-2.753 0-4.867 1.227-5.549 3.613l2.881.409c.307-.895 1.176-1.662 2.685-1.662 1.431 0 2.215.733 2.215 2.02v.051c0 .887-.929.929-3.238 1.177-2.54.272-4.969 1.031-4.969 3.98 0 2.574 1.884 3.937 4.381 3.937zm.801-2.267c-1.287 0-2.207-.588-2.207-1.721 0-1.185 1.031-1.679 2.411-1.875.81-.111 2.429-.316 2.83-.64v1.543c0 1.457-1.176 2.693-3.034 2.693zm12.298-5.667c0-1.892 1.142-2.983 2.77-2.983 1.594 0 2.548 1.048 2.548 2.795v7.858h3.086v-8.335c.008-3.137-1.782-4.926-4.483-4.926-1.961 0-3.307.937-3.904 2.395h-.153v-2.225h-2.949v13.091h3.085zm11.54 7.67h3.085v-4.398l1.125-1.201 4.006 5.599h3.69l-5.369-7.44 5.071-5.651h-3.605l-4.705 5.259h-.213v-9.623h-3.085zm24.011-9.631c-.427-2.216-2.199-3.63-5.267-3.63-3.154 0-5.302 1.551-5.293 3.971-.009 1.909 1.168 3.171 3.682 3.691l2.233.468c1.201.265 1.764.75 1.764 1.492 0 .895-.972 1.568-2.438 1.568-1.414 0-2.335-.614-2.599-1.79l-3.009.29c.384 2.403 2.404 3.827 5.617 3.827 3.273 0 5.582-1.696 5.591-4.176-.009-1.867-1.21-3.009-3.682-3.546l-2.233-.477c-1.329-.298-1.858-.759-1.849-1.517-.009-.887.971-1.5 2.258-1.5 1.423 0 2.173.775 2.412 1.636zm15.409-3.46h-2.719v-1.031c0-1.023.426-1.594 1.577-1.594.485 0 .895.111 1.15.188l.622-2.387c-.4-.136-1.278-.358-2.343-.358-2.276 0-4.091 1.304-4.091 3.946v1.236h-1.935v2.386h1.935v10.705h3.085v-10.705h2.719zm7.634 13.347c3.835 0 6.273-2.702 6.273-6.75 0-4.057-2.438-6.767-6.273-6.767s-6.273 2.71-6.273 6.767c0 4.048 2.438 6.75 6.273 6.75zm.017-2.472c-2.122 0-3.162-1.892-3.162-4.287s1.04-4.312 3.162-4.312c2.088 0 3.128 1.917 3.128 4.312s-1.04 4.287-3.128 4.287zm8.874 2.216h3.086v-7.696c0-1.662 1.252-2.838 2.948-2.838.52 0 1.168.094 1.432.179v-2.838c-.281-.051-.767-.085-1.108-.085-1.5 0-2.753.852-3.23 2.369h-.136v-2.182h-2.992zm17.387 4.909c2.403 0 3.792-1.236 4.534-3.324l5.258-14.659-3.298-.017-3.026 9.886h-.136l-3.017-9.886h-3.273l4.747 13.364-.264.707c-.571 1.492-1.474 1.594-2.821 1.202l-.716 2.403c.418.171 1.168.324 2.012.324zm17.199-4.653c3.835 0 6.272-2.702 6.272-6.75 0-4.057-2.437-6.767-6.272-6.767-3.836 0-6.273 2.71-6.273 6.767 0 4.048 2.437 6.75 6.273 6.75zm.017-2.472c-2.123 0-3.162-1.892-3.162-4.287s1.039-4.312 3.162-4.312c2.088 0 3.127 1.917 3.127 4.312s-1.039 4.287-3.127 4.287zm17.218-3.29c0 1.995-1.424 2.983-2.787 2.983-1.483 0-2.472-1.048-2.472-2.71v-7.858h-3.085v8.335c0 3.145 1.79 4.926 4.363 4.926 1.961 0 3.341-1.031 3.938-2.497h.136v2.327h2.992v-13.091h-3.085zm6.257 5.506h3.086v-7.696c0-1.662 1.252-2.838 2.949-2.838.519 0 1.167.094 1.431.179v-2.838c-.281-.051-.767-.085-1.108-.085-1.5 0-2.752.852-3.23 2.369h-.136v-2.182h-2.992zm18.171 0h3.221l2.455-8.847h.179l2.455 8.847h3.213l3.707-13.091h-3.153l-2.267 9.153h-.128l-2.353-9.153h-3.11l-2.353 9.205h-.119l-2.301-9.205h-3.145zm22.743.256c3.835 0 6.272-2.702 6.272-6.75 0-4.057-2.437-6.767-6.272-6.767s-6.273 2.71-6.273 6.767c0 4.048 2.438 6.75 6.273 6.75zm.017-2.472c-2.122 0-3.162-1.892-3.162-4.287s1.04-4.312 3.162-4.312c2.088 0 3.128 1.917 3.128 4.312s-1.04 4.287-3.128 4.287zm8.874 2.216h3.085v-7.696c0-1.662 1.253-2.838 2.949-2.838.52 0 1.168.094 1.432.179v-2.838c-.281-.051-.767-.085-1.108-.085-1.5 0-2.753.852-3.23 2.369h-.136v-2.182h-2.992zm9.516 0h3.085v-4.398l1.125-1.201 4.006 5.599h3.69l-5.369-7.44 5.071-5.651h-3.605l-4.705 5.259h-.213v-9.623h-3.085zm17.286-2.386h-2.727l-.06.954c-.145 2.31-.75 4.662-.997 5.693h2.079c.409-1.073 1.356-3.562 1.594-5.71zm12.168-15.069h-3.162v17.455h3.162zm11.943 17.455h3.221l2.455-8.847h.179l2.454 8.847h3.213l3.708-13.091h-3.154l-2.267 9.153h-.127l-2.353-9.153h-3.111l-2.352 9.205h-.119l-2.301-9.205h-3.145zm17.384 0h3.085v-13.091h-3.085zm1.551-14.949c.98 0 1.781-.75 1.781-1.67 0-.929-.801-1.679-1.781-1.679-.989 0-1.79.75-1.79 1.679 0 .92.801 1.67 1.79 1.67zm7.792-2.506h-3.085v17.455h3.085zm6.258 0h-3.085v17.455h3.085zm9.126 22.364h3.085v-6.971h.128c.485.954 1.5 2.292 3.75 2.292 3.085 0 5.394-2.446 5.394-6.758 0-4.364-2.377-6.733-5.403-6.733-2.31 0-3.273 1.389-3.741 2.335h-.179v-2.165h-3.034zm3.025-11.454c0-2.54 1.091-4.185 3.077-4.185 2.054 0 3.111 1.747 3.111 4.185 0 2.454-1.074 4.244-3.111 4.244-1.969 0-3.077-1.705-3.077-4.244zm15.742 6.809c2.054 0 3.281-.963 3.843-2.062h.103v1.798h2.966v-8.761c0-3.461-2.822-4.5-5.319-4.5-2.753 0-4.866 1.227-5.548 3.613l2.881.409c.307-.895 1.176-1.662 2.684-1.662 1.432 0 2.216.733 2.216 2.02v.051c0 .887-.929.929-3.238 1.177-2.54.272-4.969 1.031-4.969 3.98 0 2.574 1.883 3.937 4.381 3.937zm.801-2.267c-1.287 0-2.208-.588-2.208-1.721 0-1.185 1.032-1.679 2.412-1.875.81-.111 2.429-.316 2.83-.64v1.543c0 1.457-1.176 2.693-3.034 2.693zm10.662 6.912c2.403 0 3.792-1.236 4.534-3.324l5.258-14.659-3.298-.017-3.026 9.886h-.136l-3.017-9.886h-3.273l4.747 13.364-.264.707c-.571 1.492-1.474 1.594-2.821 1.202l-.716 2.403c.418.171 1.168.324 2.012.324zm20.972-12.579c0-1.892 1.142-2.983 2.77-2.983 1.594 0 2.548 1.048 2.548 2.795v7.858h3.085v-8.335c.009-3.137-1.781-4.926-4.483-4.926-1.96 0-3.306.937-3.903 2.395h-.153v-2.225h-2.949v13.091h3.085zm17.25 7.926c3.835 0 6.273-2.702 6.273-6.75 0-4.057-2.438-6.767-6.273-6.767s-6.273 2.71-6.273 6.767c0 4.048 2.438 6.75 6.273 6.75zm.017-2.472c-2.122 0-3.162-1.892-3.162-4.287s1.04-4.312 3.162-4.312c2.088 0 3.128 1.917 3.128 4.312s-1.04 4.287-3.128 4.287zm11.224 2.216h3.222l2.455-8.847h.179l2.454 8.847h3.213l3.708-13.091h-3.154l-2.267 9.153h-.128l-2.352-9.153h-3.111l-2.352 9.205h-.119l-2.302-9.205h-3.144zm17.504.188c1.006 0 1.866-.836 1.875-1.876-.009-1.022-.869-1.857-1.875-1.857-1.04 0-1.884.835-1.875 1.857-.009 1.04.835 1.876 1.875 1.876z" fill="#fff"/><path d="m765 573c-14.359 0-26-11.641-26-26v-27l-20.5 43c2.667 3.833 17.7 10 46.5 10z" fill="#2c7be5"/><path d="m1 1h798v798h-798z" stroke="#000" stroke-width="2"/></svg>