<svg fill="none" height="800" viewBox="0 0 800 800" width="800" xmlns="http://www.w3.org/2000/svg"><path d="m1 1h798v798h-798z" fill="#faa"/><rect fill="#fff" height="147" rx="50" width="650" x="61" y="217"/><path d="m112.438 257.131h2.539c-.076-2.796-2.548-4.824-6.093-4.824-3.503 0-6.188 2.003-6.188 5.011 0 2.429 1.739 3.852 4.543 4.611l2.062.562c1.867.495 3.307 1.108 3.307 2.66 0 1.704-1.628 2.829-3.869 2.829-2.029 0-3.716-.903-3.87-2.804h-2.642c.171 3.162 2.617 5.114 6.529 5.114 4.099 0 6.46-2.156 6.46-5.114 0-3.145-2.804-4.364-5.02-4.909l-1.705-.443c-1.363-.35-3.179-.989-3.17-2.659 0-1.483 1.355-2.583 3.503-2.583 2.003 0 3.426.938 3.614 2.549zm11.362 13.133c2.856 0 4.875-1.406 5.455-3.537l-2.412-.434c-.46 1.235-1.568 1.866-3.017 1.866-2.182 0-3.648-1.415-3.716-3.937h9.307v-.904c0-4.73-2.83-6.579-5.796-6.579-3.647 0-6.051 2.778-6.051 6.801 0 4.065 2.37 6.724 6.23 6.724zm-3.681-7.952c.102-1.857 1.448-3.468 3.519-3.468 1.978 0 3.273 1.466 3.282 3.468zm14.674-9.767h-2.549v17.455h2.549zm7.238 17.745c2.164 0 3.383-1.1 3.869-2.08h.102v1.79h2.489v-8.693c0-3.81-3-4.568-5.08-4.568-2.369 0-4.551.954-5.403 3.341l2.395.545c.375-.929 1.329-1.824 3.042-1.824 1.645 0 2.489.861 2.489 2.344v.06c0 .929-.955.911-3.307 1.184-2.48.29-5.02.938-5.02 3.912 0 2.574 1.935 3.989 4.424 3.989zm.554-2.046c-1.441 0-2.481-.647-2.481-1.909 0-1.363 1.211-1.849 2.685-2.045.827-.111 2.787-.333 3.153-.699v1.687c0 1.552-1.235 2.966-3.357 2.966zm9.3 1.756h2.548v-8.071c0-1.764 1.236-2.991 2.685-2.991 1.415 0 2.395.937 2.395 2.36v8.702h2.54v-8.344c0-1.576.963-2.718 2.625-2.718 1.346 0 2.454.75 2.454 2.522v8.54h2.548v-8.778c0-2.992-1.67-4.483-4.039-4.483-1.884 0-3.299.903-3.929 2.301h-.137c-.571-1.432-1.772-2.301-3.52-2.301-1.73 0-3.017.86-3.562 2.301h-.162v-2.131h-2.446zm25.021.29c2.164 0 3.383-1.1 3.869-2.08h.102v1.79h2.489v-8.693c0-3.81-3-4.568-5.08-4.568-2.369 0-4.551.954-5.403 3.341l2.395.545c.375-.929 1.329-1.824 3.042-1.824 1.645 0 2.489.861 2.489 2.344v.06c0 .929-.955.911-3.307 1.184-2.48.29-5.02.938-5.02 3.912 0 2.574 1.935 3.989 4.424 3.989zm.554-2.046c-1.441 0-2.481-.647-2.481-1.909 0-1.363 1.211-1.849 2.685-2.045.827-.111 2.787-.333 3.153-.699v1.687c0 1.552-1.235 2.966-3.357 2.966zm15.411-11.335h-2.685v-3.136h-2.548v3.136h-1.918v2.046h1.918v7.73c-.009 2.377 1.807 3.528 3.818 3.485.81-.008 1.355-.161 1.653-.272l-.46-2.105c-.17.034-.486.11-.895.11-.826 0-1.568-.272-1.568-1.747v-7.201h2.685zm9.17 18h2.548v-6.946h.154c.46.835 1.398 2.293 3.784 2.293 3.17 0 5.472-2.54 5.472-6.776 0-4.244-2.336-6.741-5.498-6.741-2.429 0-3.306 1.483-3.758 2.292h-.213v-2.122h-2.489zm2.497-11.454c0-2.736 1.194-4.552 3.418-4.552 2.31 0 3.469 1.952 3.469 4.552 0 2.625-1.193 4.627-3.469 4.627-2.19 0-3.418-1.875-3.418-4.627zm16.125 6.835c2.165 0 3.384-1.1 3.87-2.08h.102v1.79h2.489v-8.693c0-3.81-3-4.568-5.08-4.568-2.369 0-4.551.954-5.403 3.341l2.395.545c.375-.929 1.329-1.824 3.042-1.824 1.645 0 2.489.861 2.489 2.344v.06c0 .929-.955.911-3.307 1.184-2.48.29-5.02.938-5.02 3.912 0 2.574 1.935 3.989 4.423 3.989zm.554-2.046c-1.44 0-2.48-.647-2.48-1.909 0-1.363 1.21-1.849 2.685-2.045.827-.111 2.787-.333 3.153-.699v1.687c0 1.552-1.236 2.966-3.358 2.966zm14.789 6.938c3.333 0 5.907-1.526 5.907-4.892v-13.381h-2.498v2.122h-.187c-.452-.809-1.355-2.292-3.793-2.292-3.162 0-5.488 2.497-5.488 6.664 0 4.177 2.378 6.401 5.471 6.401 2.404 0 3.333-1.355 3.793-2.19h.162v2.574c0 2.053-1.406 2.94-3.341 2.94-2.122 0-2.949-1.066-3.401-1.816l-2.19.904c.69 1.602 2.438 2.966 5.565 2.966zm-.025-7.492c-2.276 0-3.46-1.747-3.46-4.321 0-2.514 1.159-4.466 3.46-4.466 2.224 0 3.417 1.816 3.417 4.466 0 2.702-1.218 4.321-3.417 4.321zm9.349 2.31h2.549v-13.091h-2.549zm1.287-15.111c.878 0 1.611-.682 1.611-1.517s-.733-1.525-1.611-1.525c-.886 0-1.611.69-1.611 1.525s.725 1.517 1.611 1.517zm8.005 12.725h-2.454l-.086.954c-.196 2.31-.741 4.637-.971 5.693h1.807c.409-1.116 1.312-3.673 1.576-5.718zm12.507-15.069h-2.633v17.455h2.633zm5.821 0h-2.182v1.662c0 1.321-.579 2.404-1.244 3.384l1.262.903c1.312-1.056 2.164-2.863 2.164-4.312zm14.188 4.364h-2.735l-3.307 10.074h-.136l-3.316-10.074h-2.736l4.756 13.091h2.727zm7.569 13.355c2.855 0 4.875-1.406 5.454-3.537l-2.412-.434c-.46 1.235-1.568 1.866-3.017 1.866-2.182 0-3.647-1.415-3.716-3.937h9.307v-.904c0-4.73-2.829-6.579-5.795-6.579-3.648 0-6.051 2.778-6.051 6.801 0 4.065 2.369 6.724 6.23 6.724zm-3.682-7.952c.102-1.857 1.449-3.468 3.52-3.468 1.977 0 3.272 1.466 3.281 3.468zm18.477-5.403v13.926c0 1.21-.503 1.875-1.713 1.875h-.409v2.191c.179.008.341.008.52.008 2.71 0 4.15-1.432 4.15-4.057v-13.943zm1.261-2.02c.878 0 1.611-.682 1.611-1.517s-.733-1.525-1.611-1.525c-.886 0-1.61.69-1.61 1.525s.724 1.517 1.61 1.517zm13.008 9.682c.009 2.224-1.645 3.281-3.076 3.281-1.577 0-2.668-1.142-2.668-2.923v-8.02h-2.548v8.327c0 3.247 1.781 4.934 4.295 4.934 1.969 0 3.307-1.039 3.912-2.437h.136v2.267h2.506v-13.091h-2.557zm15.791-4.466c-.529-2.037-2.122-3.366-4.952-3.366-2.957 0-5.054 1.559-5.054 3.877 0 1.858 1.125 3.094 3.58 3.64l2.216.485c1.261.282 1.849.844 1.849 1.662 0 1.015-1.082 1.807-2.753 1.807-1.525 0-2.506-.656-2.812-1.943l-2.463.375c.426 2.318 2.352 3.622 5.292 3.622 3.162 0 5.352-1.679 5.352-4.048 0-1.85-1.176-2.992-3.579-3.546l-2.08-.477c-1.44-.341-2.062-.827-2.054-1.713-.008-1.006 1.083-1.721 2.532-1.721 1.585 0 2.318.877 2.616 1.755zm9.168-3.196h-2.685v-3.136h-2.548v3.136h-1.917v2.046h1.917v7.73c-.008 2.377 1.807 3.528 3.818 3.485.81-.008 1.355-.161 1.654-.272l-.46-2.105c-.171.034-.486.11-.895.11-.827 0-1.569-.272-1.569-1.747v-7.201h2.685zm15.401 0h-2.821v-1.176c0-1.159.477-1.79 1.721-1.79.529 0 .904.119 1.142.196l.597-2.062c-.358-.137-1.1-.35-2.131-.35-2.071 0-3.886 1.211-3.886 3.665v1.517h-2.02v2.046h2.02v11.045h2.557v-11.045h2.821zm2.629 13.091h2.548v-13.091h-2.548zm1.287-15.111c.878 0 1.611-.682 1.611-1.517s-.733-1.525-1.611-1.525c-.886 0-1.611.69-1.611 1.525s.725 1.517 1.611 1.517zm7.238 7.338c0-2.088 1.278-3.281 3.051-3.281 1.73 0 2.778 1.134 2.778 3.034v8.02h2.549v-8.327c0-3.238-1.782-4.934-4.458-4.934-1.968 0-3.255.912-3.861 2.301h-.161v-2.131h-2.446v13.091h2.548zm11.795 7.773h2.549v-13.091h-2.549zm1.287-15.111c.878 0 1.611-.682 1.611-1.517s-.733-1.525-1.611-1.525c-.886 0-1.611.69-1.611 1.525s.725 1.517 1.611 1.517zm14.499 5.216c-.528-2.037-2.122-3.366-4.951-3.366-2.958 0-5.054 1.559-5.054 3.877 0 1.858 1.125 3.094 3.579 3.64l2.216.485c1.262.282 1.85.844 1.85 1.662 0 1.015-1.083 1.807-2.753 1.807-1.526 0-2.506-.656-2.813-1.943l-2.463.375c.426 2.318 2.353 3.622 5.293 3.622 3.162 0 5.352-1.679 5.352-4.048 0-1.85-1.176-2.992-3.579-3.546l-2.08-.477c-1.44-.341-2.062-.827-2.054-1.713-.008-1.006 1.082-1.721 2.531-1.721 1.586 0 2.319.877 2.617 1.755zm5.606 2.122c0-2.088 1.321-3.281 3.137-3.281 1.755 0 2.804 1.116 2.804 3.034v8.02h2.548v-8.327c0-3.264-1.79-4.934-4.483-4.934-2.037 0-3.264.886-3.878 2.301h-.162v-6.495h-2.514v17.455h2.548zm17.532 8.037c2.855 0 4.875-1.406 5.454-3.537l-2.412-.434c-.46 1.235-1.568 1.866-3.017 1.866-2.182 0-3.648-1.415-3.716-3.937h9.307v-.904c0-4.73-2.83-6.579-5.795-6.579-3.648 0-6.052 2.778-6.052 6.801 0 4.065 2.37 6.724 6.231 6.724zm-3.682-7.952c.102-1.857 1.449-3.468 3.52-3.468 1.977 0 3.272 1.466 3.281 3.468zm17.026 7.944c2.386 0 3.324-1.458 3.784-2.293h.213v2.037h2.489v-17.455h-2.548v6.486h-.154c-.46-.809-1.329-2.292-3.767-2.292-3.162 0-5.489 2.497-5.489 6.741 0 4.236 2.293 6.776 5.472 6.776zm.563-2.174c-2.276 0-3.461-2.002-3.461-4.627 0-2.6 1.159-4.552 3.461-4.552 2.224 0 3.417 1.816 3.417 4.552 0 2.752-1.219 4.627-3.417 4.627zm22.022-11.173h-2.684v-3.136h-2.549v3.136h-1.917v2.046h1.917v7.73c-.008 2.377 1.807 3.528 3.818 3.485.81-.008 1.356-.161 1.654-.272l-.46-2.105c-.171.034-.486.11-.895.11-.827 0-1.568-.272-1.568-1.747v-7.201h2.684zm5.649 5.318c0-2.088 1.321-3.281 3.136-3.281 1.756 0 2.804 1.116 2.804 3.034v8.02h2.548v-8.327c0-3.264-1.789-4.934-4.483-4.934-2.037 0-3.264.886-3.877 2.301h-.162v-6.495h-2.515v17.455h2.549zm17.531 8.037c2.855 0 4.875-1.406 5.454-3.537l-2.411-.434c-.461 1.235-1.569 1.866-3.018 1.866-2.181 0-3.647-1.415-3.715-3.937h9.306v-.904c0-4.73-2.829-6.579-5.795-6.579-3.648 0-6.051 2.778-6.051 6.801 0 4.065 2.369 6.724 6.23 6.724zm-3.682-7.952c.102-1.857 1.449-3.468 3.52-3.468 1.977 0 3.273 1.466 3.281 3.468zm23.378 7.944c2.386 0 3.324-1.458 3.784-2.293h.213v2.037h2.489v-17.455h-2.549v6.486h-.153c-.46-.809-1.33-2.292-3.767-2.292-3.162 0-5.489 2.497-5.489 6.741 0 4.236 2.293 6.776 5.472 6.776zm.562-2.174c-2.275 0-3.46-2.002-3.46-4.627 0-2.6 1.159-4.552 3.46-4.552 2.225 0 3.418 1.816 3.418 4.552 0 2.752-1.219 4.627-3.418 4.627zm15.203 2.182c2.855 0 4.875-1.406 5.454-3.537l-2.412-.434c-.46 1.235-1.568 1.866-3.017 1.866-2.181 0-3.647-1.415-3.715-3.937h9.306v-.904c0-4.73-2.829-6.579-5.795-6.579-3.648 0-6.051 2.778-6.051 6.801 0 4.065 2.369 6.724 6.23 6.724zm-3.682-7.952c.102-1.857 1.449-3.468 3.52-3.468 1.977 0 3.273 1.466 3.281 3.468zm21.935-2.207c-.528-2.037-2.122-3.366-4.951-3.366-2.958 0-5.054 1.559-5.054 3.877 0 1.858 1.125 3.094 3.579 3.64l2.216.485c1.262.282 1.85.844 1.85 1.662 0 1.015-1.083 1.807-2.753 1.807-1.526 0-2.506-.656-2.813-1.943l-2.463.375c.426 2.318 2.352 3.622 5.293 3.622 3.162 0 5.352-1.679 5.352-4.048 0-1.85-1.176-2.992-3.579-3.546l-2.08-.477c-1.44-.341-2.062-.827-2.054-1.713-.008-1.006 1.082-1.721 2.531-1.721 1.586 0 2.318.877 2.617 1.755zm3.058 9.895h2.548v-13.091h-2.548zm1.287-15.111c.878 0 1.611-.682 1.611-1.517s-.733-1.525-1.611-1.525c-.886 0-1.611.69-1.611 1.525s.725 1.517 1.611 1.517zm10.178 20.293c3.333 0 5.906-1.526 5.906-4.892v-13.381h-2.497v2.122h-.187c-.452-.809-1.355-2.292-3.793-2.292-3.162 0-5.489 2.497-5.489 6.664 0 4.177 2.378 6.401 5.472 6.401 2.403 0 3.332-1.355 3.793-2.19h.162v2.574c0 2.053-1.407 2.94-3.341 2.94-2.122 0-2.949-1.066-3.401-1.816l-2.19.904c.69 1.602 2.437 2.966 5.565 2.966zm-.025-7.492c-2.276 0-3.461-1.747-3.461-4.321 0-2.514 1.159-4.466 3.461-4.466 2.224 0 3.417 1.816 3.417 4.466 0 2.702-1.219 4.321-3.417 4.321zm11.897-5.463c0-2.088 1.279-3.281 3.051-3.281 1.731 0 2.779 1.134 2.779 3.034v8.02h2.548v-8.327c0-3.238-1.781-4.934-4.457-4.934-1.969 0-3.256.912-3.861 2.301h-.162v-2.131h-2.446v13.091h2.548zm21.605-2.122c-.528-2.037-2.122-3.366-4.951-3.366-2.958 0-5.054 1.559-5.054 3.877 0 1.858 1.125 3.094 3.579 3.64l2.216.485c1.262.282 1.85.844 1.85 1.662 0 1.015-1.083 1.807-2.753 1.807-1.526 0-2.506-.656-2.813-1.943l-2.463.375c.426 2.318 2.352 3.622 5.293 3.622 3.162 0 5.352-1.679 5.352-4.048 0-1.85-1.176-2.992-3.579-3.546l-2.08-.477c-1.44-.341-2.062-.827-2.054-1.713-.008-1.006 1.082-1.721 2.531-1.721 1.586 0 2.318.877 2.617 1.755zm4.737 10.057c.929 0 1.704-.759 1.704-1.705 0-.929-.775-1.696-1.704-1.696-.938 0-1.705.767-1.705 1.696 0 .946.767 1.705 1.705 1.705zm-474.149 46.06c-.597-3.733-3.52-5.915-7.21-5.915-4.517 0-7.85 3.383-7.85 8.966 0 5.582 3.315 8.966 7.85 8.966 3.835 0 6.639-2.404 7.21-5.855l-2.659-.009c-.452 2.233-2.327 3.46-4.534 3.46-2.992 0-5.25-2.292-5.25-6.562 0-4.236 2.25-6.563 5.258-6.563 2.225 0 4.091 1.253 4.526 3.512zm8.461 12.042c3.69 0 6.102-2.702 6.102-6.75 0-4.074-2.412-6.775-6.102-6.775-3.691 0-6.103 2.701-6.103 6.775 0 4.048 2.412 6.75 6.103 6.75zm.008-2.139c-2.412 0-3.537-2.105-3.537-4.619 0-2.506 1.125-4.637 3.537-4.637 2.395 0 3.52 2.131 3.52 4.637 0 2.514-1.125 4.619-3.52 4.619zm17.231-3.554c.009 2.224-1.645 3.281-3.077 3.281-1.576 0-2.667-1.142-2.667-2.923v-8.02h-2.549v8.327c0 3.247 1.782 4.934 4.296 4.934 1.969 0 3.307-1.039 3.912-2.437h.136v2.267h2.506v-13.091h-2.557zm8.529-12.026h-2.548v17.455h2.548zm8.329 17.711c2.386 0 3.324-1.458 3.784-2.293h.213v2.037h2.489v-17.455h-2.548v6.486h-.154c-.46-.809-1.329-2.292-3.767-2.292-3.162 0-5.489 2.497-5.489 6.741 0 4.236 2.293 6.776 5.472 6.776zm.563-2.174c-2.276 0-3.461-2.002-3.461-4.627 0-2.6 1.159-4.552 3.461-4.552 2.224 0 3.417 1.816 3.417 4.552 0 2.752-1.219 4.627-3.417 4.627zm17.522 6.827c2.105 0 3.435-1.099 4.193-3.162l5.412-14.812-2.752-.026-3.316 10.159h-.136l-3.316-10.159h-2.727l4.79 13.261-.315.87c-.648 1.738-1.56 1.883-2.958 1.5l-.613 2.088c.306.136.971.281 1.738.281zm17.052-4.645c3.69 0 6.102-2.702 6.102-6.75 0-4.074-2.412-6.775-6.102-6.775s-6.102 2.701-6.102 6.775c0 4.048 2.412 6.75 6.102 6.75zm.009-2.139c-2.412 0-3.537-2.105-3.537-4.619 0-2.506 1.125-4.637 3.537-4.637 2.394 0 3.519 2.131 3.519 4.637 0 2.514-1.125 4.619-3.519 4.619zm17.23-3.554c.009 2.224-1.644 3.281-3.076 3.281-1.577 0-2.668-1.142-2.668-2.923v-8.02h-2.548v8.327c0 3.247 1.781 4.934 4.295 4.934 1.969 0 3.307-1.039 3.912-2.437h.137v2.267h2.505v-13.091h-2.557zm22.142-4.466c-.528-2.037-2.122-3.366-4.951-3.366-2.958 0-5.054 1.559-5.054 3.877 0 1.858 1.125 3.094 3.579 3.64l2.216.485c1.262.282 1.85.844 1.85 1.662 0 1.015-1.083 1.807-2.753 1.807-1.526 0-2.506-.656-2.813-1.943l-2.463.375c.426 2.318 2.353 3.622 5.293 3.622 3.162 0 5.352-1.679 5.352-4.048 0-1.85-1.176-2.992-3.579-3.546l-2.08-.477c-1.44-.341-2.062-.827-2.054-1.713-.008-1.006 1.082-1.721 2.531-1.721 1.586 0 2.319.877 2.617 1.755zm8.7 10.159c2.855 0 4.875-1.406 5.455-3.537l-2.412-.434c-.461 1.235-1.569 1.866-3.017 1.866-2.182 0-3.648-1.415-3.716-3.937h9.307v-.904c0-4.73-2.83-6.579-5.796-6.579-3.648 0-6.051 2.778-6.051 6.801 0 4.065 2.369 6.724 6.23 6.724zm-3.682-7.952c.103-1.857 1.449-3.468 3.52-3.468 1.977 0 3.273 1.466 3.281 3.468zm14.674-.085c0-2.088 1.279-3.281 3.051-3.281 1.73 0 2.779 1.134 2.779 3.034v8.02h2.548v-8.327c0-3.238-1.781-4.934-4.457-4.934-1.969 0-3.256.912-3.861 2.301h-.162v-2.131h-2.446v13.091h2.548zm16.696 8.029c2.387 0 3.324-1.458 3.784-2.293h.213v2.037h2.489v-17.455h-2.548v6.486h-.154c-.46-.809-1.329-2.292-3.767-2.292-3.162 0-5.488 2.497-5.488 6.741 0 4.236 2.292 6.776 5.471 6.776zm.563-2.174c-2.276 0-3.46-2.002-3.46-4.627 0-2.6 1.159-4.552 3.46-4.552 2.224 0 3.417 1.816 3.417 4.552 0 2.752-1.218 4.627-3.417 4.627zm21.954 2.199c4.032 0 6.392-3.29 6.392-9.008 0-5.676-2.395-8.975-6.392-8.975-4.005 0-6.392 3.29-6.4 8.975 0 5.71 2.361 9 6.4 9.008zm0-2.275c-.843 0-1.568-.299-2.147-.887l5.164-10.355c.495 1.117.759 2.634.759 4.509 0 4.363-1.423 6.733-3.776 6.733zm2.097-12.622-5.139 10.355c-.486-1.108-.742-2.608-.742-4.466.009-4.347 1.432-6.742 3.784-6.742.818 0 1.526.29 2.097.853zm8.376 14.778c.929 0 1.704-.759 1.704-1.705 0-.929-.775-1.696-1.704-1.696-.938 0-1.705.767-1.705 1.696 0 .946.767 1.705 1.705 1.705zm10.504.119c4.031 0 6.392-3.29 6.392-9.008 0-5.676-2.395-8.975-6.392-8.975-4.006 0-6.392 3.29-6.401 8.975 0 5.71 2.361 9 6.401 9.008zm0-2.275c-.844 0-1.568-.299-2.148-.887l5.165-10.355c.494 1.117.758 2.634.758 4.509 0 4.363-1.423 6.733-3.775 6.733zm2.096-12.622-5.139 10.355c-.486-1.108-.741-2.608-.741-4.466.008-4.347 1.432-6.742 3.784-6.742.818 0 1.525.29 2.096.853zm13.413 14.855c3.648.034 6.068-2.591 6.06-5.941.008-3.341-2.421-5.736-5.446-5.736-1.841 0-3.435.887-4.33 2.361h-.128c.009-3.963 1.509-6.315 4.066-6.315 1.679 0 2.735 1.023 3.093 2.472h2.6c-.401-2.762-2.574-4.773-5.693-4.773-4.057 0-6.588 3.486-6.588 9.554-.009 6.426 3.264 8.352 6.366 8.378zm-.008-2.216c-2.029 0-3.512-1.705-3.512-3.665.009-1.952 1.56-3.656 3.571-3.656 1.995 0 3.46 1.61 3.452 3.63.008 2.063-1.517 3.691-3.511 3.691zm14.976-15.716c-3.665-.034-6.06 2.599-6.06 5.906.009 3.332 2.421 5.736 5.447 5.736 1.849 0 3.434-.904 4.329-2.369h.136c-.008 4.014-1.517 6.358-4.073 6.358-1.671 0-2.745-1.023-3.086-2.515h-2.599c.383 2.821 2.565 4.816 5.685 4.816 4.056 0 6.596-3.486 6.596-9.597-.008-6.375-3.264-8.31-6.375-8.335zm.009 2.216c2.02 0 3.511 1.713 3.511 3.63.009 1.944-1.568 3.648-3.562 3.648-2.003 0-3.452-1.602-3.461-3.622 0-2.028 1.509-3.656 3.512-3.656zm9.079 12.068h8.275v3.409h2.514v-3.409h2.31v-2.233h-2.31v-11.813h-3.247l-7.542 11.915zm8.292-2.233h-5.531v-.136l5.395-8.54h.136zm7.777 5.642h11.489v-2.259h-7.858v-.127l3.469-3.631c3.196-3.23 4.107-4.773 4.107-6.724 0-2.804-2.284-4.952-5.573-4.952-3.265 0-5.651 2.113-5.651 5.301h2.514c-.008-1.875 1.202-3.102 3.085-3.102 1.773 0 3.12 1.091 3.12 2.829 0 1.543-.921 2.651-2.796 4.637l-5.906 6.119zm20.796.281c4.031 0 6.392-3.29 6.392-9.008 0-5.676-2.395-8.975-6.392-8.975-4.006 0-6.392 3.29-6.401 8.975 0 5.71 2.361 9 6.401 9.008zm0-2.275c-.844 0-1.569-.299-2.148-.887l5.165-10.355c.494 1.117.758 2.634.758 4.509 0 4.363-1.423 6.733-3.775 6.733zm2.096-12.622-5.139 10.355c-.486-1.108-.742-2.608-.742-4.466.009-4.347 1.432-6.742 3.785-6.742.818 0 1.525.29 2.096.853zm13.909 14.616h6.691c4.056 0 5.889-2.02 5.889-4.696 0-2.702-1.892-4.227-3.622-4.321v-.171c1.602-.409 2.94-1.5 2.94-3.681 0-2.583-1.79-4.586-5.506-4.586h-6.392zm2.634-2.259v-5.59h3.895c2.113 0 3.434 1.363 3.434 3.025 0 1.466-.997 2.565-3.528 2.565zm0-7.644v-5.31h3.596c2.088 0 3.086 1.099 3.086 2.548 0 1.688-1.381 2.762-3.154 2.762zm12.209-5.285h5.437v15.188h2.625v-15.188h5.446v-2.267h-13.508zm30.264 3.41c-.597-3.733-3.52-5.915-7.21-5.915-4.517 0-7.85 3.383-7.85 8.966 0 5.582 3.315 8.966 7.85 8.966 3.835 0 6.639-2.404 7.21-5.855l-2.659-.009c-.452 2.233-2.327 3.46-4.534 3.46-2.992 0-5.25-2.292-5.25-6.562 0-4.236 2.25-6.563 5.258-6.563 2.225 0 4.091 1.253 4.526 3.512zm15.409-1.313h-2.685v-3.136h-2.548v3.136h-1.918v2.046h1.918v7.73c-.009 2.377 1.807 3.528 3.818 3.485.81-.008 1.355-.161 1.653-.272l-.46-2.105c-.17.034-.486.11-.895.11-.826 0-1.568-.272-1.568-1.747v-7.201h2.685zm8.192 13.355c3.691 0 6.103-2.702 6.103-6.75 0-4.074-2.412-6.775-6.103-6.775-3.69 0-6.102 2.701-6.102 6.775 0 4.048 2.412 6.75 6.102 6.75zm.009-2.139c-2.412 0-3.537-2.105-3.537-4.619 0-2.506 1.125-4.637 3.537-4.637 2.395 0 3.52 2.131 3.52 4.637 0 2.514-1.125 4.619-3.52 4.619zm21.4-11.216h-2.684v-3.136h-2.549v3.136h-1.917v2.046h1.917v7.73c-.008 2.377 1.807 3.528 3.819 3.485.809-.008 1.355-.161 1.653-.272l-.46-2.105c-.171.034-.486.11-.895.11-.827 0-1.568-.272-1.568-1.747v-7.201h2.684zm5.649 5.318c0-2.088 1.321-3.281 3.136-3.281 1.756 0 2.804 1.116 2.804 3.034v8.02h2.548v-8.327c0-3.264-1.789-4.934-4.482-4.934-2.037 0-3.265.886-3.878 2.301h-.162v-6.495h-2.514v17.455h2.548zm11.889 7.773h2.548v-13.091h-2.548zm1.287-15.111c.878 0 1.611-.682 1.611-1.517s-.733-1.525-1.611-1.525c-.886 0-1.611.69-1.611 1.525s.725 1.517 1.611 1.517zm14.499 5.216c-.528-2.037-2.122-3.366-4.951-3.366-2.958 0-5.054 1.559-5.054 3.877 0 1.858 1.125 3.094 3.579 3.64l2.216.485c1.261.282 1.849.844 1.849 1.662 0 1.015-1.082 1.807-2.752 1.807-1.526 0-2.506-.656-2.813-1.943l-2.463.375c.426 2.318 2.352 3.622 5.293 3.622 3.162 0 5.352-1.679 5.352-4.048 0-1.85-1.176-2.992-3.58-3.546l-2.079-.477c-1.44-.341-2.063-.827-2.054-1.713-.009-1.006 1.082-1.721 2.531-1.721 1.585 0 2.318.877 2.617 1.755zm13.219 10.185c2.165 0 3.384-1.1 3.869-2.08h.103v1.79h2.488v-8.693c0-3.81-3-4.568-5.079-4.568-2.37 0-4.551.954-5.404 3.341l2.395.545c.375-.929 1.33-1.824 3.043-1.824 1.645 0 2.488.861 2.488 2.344v.06c0 .929-.954.911-3.306 1.184-2.48.29-5.02.938-5.02 3.912 0 2.574 1.934 3.989 4.423 3.989zm.554-2.046c-1.44 0-2.48-.647-2.48-1.909 0-1.363 1.21-1.849 2.685-2.045.826-.111 2.786-.333 3.153-.699v1.687c0 1.552-1.236 2.966-3.358 2.966zm14.201 2.012c2.386 0 3.324-1.458 3.784-2.293h.213v2.037h2.489v-17.455h-2.548v6.486h-.154c-.46-.809-1.329-2.292-3.767-2.292-3.162 0-5.489 2.497-5.489 6.741 0 4.236 2.293 6.776 5.472 6.776zm.563-2.174c-2.276 0-3.461-2.002-3.461-4.627 0-2.6 1.159-4.552 3.461-4.552 2.224 0 3.417 1.816 3.417 4.552 0 2.752-1.219 4.627-3.417 4.627zm14.46 2.174c2.387 0 3.324-1.458 3.785-2.293h.213v2.037h2.488v-17.455h-2.548v6.486h-.153c-.461-.809-1.33-2.292-3.768-2.292-3.161 0-5.488 2.497-5.488 6.741 0 4.236 2.292 6.776 5.471 6.776zm.563-2.174c-2.276 0-3.46-2.002-3.46-4.627 0-2.6 1.159-4.552 3.46-4.552 2.224 0 3.418 1.816 3.418 4.552 0 2.752-1.219 4.627-3.418 4.627zm9.56 1.918h2.549v-7.994c0-1.713 1.321-2.949 3.127-2.949.529 0 1.125.094 1.33.153v-2.437c-.256-.034-.759-.06-1.082-.06-1.534 0-2.847.869-3.324 2.276h-.137v-2.08h-2.463zm14.385.264c2.855 0 4.875-1.406 5.454-3.537l-2.412-.434c-.46 1.235-1.568 1.866-3.017 1.866-2.182 0-3.648-1.415-3.716-3.937h9.307v-.904c0-4.73-2.83-6.579-5.795-6.579-3.648 0-6.052 2.778-6.052 6.801 0 4.065 2.37 6.724 6.231 6.724zm-3.682-7.952c.102-1.857 1.449-3.468 3.52-3.468 1.977 0 3.272 1.466 3.281 3.468zm21.935-2.207c-.528-2.037-2.122-3.366-4.952-3.366-2.957 0-5.054 1.559-5.054 3.877 0 1.858 1.125 3.094 3.58 3.64l2.216.485c1.261.282 1.849.844 1.849 1.662 0 1.015-1.082 1.807-2.753 1.807-1.525 0-2.505-.656-2.812-1.943l-2.463.375c.426 2.318 2.352 3.622 5.293 3.622 3.161 0 5.352-1.679 5.352-4.048 0-1.85-1.176-2.992-3.58-3.546l-2.079-.477c-1.441-.341-2.063-.827-2.054-1.713-.009-1.006 1.082-1.721 2.531-1.721 1.585 0 2.318.877 2.616 1.755zm12.867 0c-.528-2.037-2.122-3.366-4.951-3.366-2.958 0-5.054 1.559-5.054 3.877 0 1.858 1.125 3.094 3.579 3.64l2.216.485c1.261.282 1.849.844 1.849 1.662 0 1.015-1.082 1.807-2.752 1.807-1.526 0-2.506-.656-2.813-1.943l-2.463.375c.426 2.318 2.352 3.622 5.293 3.622 3.162 0 5.352-1.679 5.352-4.048 0-1.85-1.176-2.992-3.58-3.546l-2.079-.477c-1.44-.341-2.063-.827-2.054-1.713-.009-1.006 1.082-1.721 2.531-1.721 1.585 0 2.318.877 2.617 1.755zm5.845 4.875h2.437v-.162c.034-1.96.597-2.838 2.046-3.733 1.525-.92 2.463-2.216 2.463-4.133 0-2.77-2.097-4.645-5.225-4.645-2.872 0-5.173 1.679-5.284 4.747h2.591c.102-1.807 1.389-2.599 2.693-2.599 1.449 0 2.625.963 2.625 2.471 0 1.27-.792 2.165-1.806 2.796-1.586.971-2.523 1.934-2.54 5.096zm1.287 5.182c.929 0 1.704-.759 1.704-1.705 0-.929-.775-1.696-1.704-1.696-.938 0-1.705.767-1.705 1.696 0 .946.767 1.705 1.705 1.705z" fill="#000"/><rect fill="#fff" height="89" rx="44.5" width="639" x="61" y="384"/><path d="m102.918 437h2.488v-2.037h.213c.461.835 1.398 2.293 3.784 2.293 3.171 0 5.472-2.54 5.472-6.776 0-4.244-2.335-6.741-5.497-6.741-2.429 0-3.307 1.483-3.759 2.292h-.153v-6.486h-2.548zm2.497-6.545c0-2.736 1.193-4.552 3.417-4.552 2.31 0 3.469 1.952 3.469 4.552 0 2.625-1.193 4.627-3.469 4.627-2.19 0-3.417-1.875-3.417-4.627zm17.836 6.809c3.093 0 5.096-1.858 5.378-4.406h-2.481c-.323 1.415-1.423 2.25-2.88 2.25-2.156 0-3.546-1.798-3.546-4.653 0-2.804 1.415-4.569 3.546-4.569 1.619 0 2.608 1.023 2.88 2.25h2.481c-.273-2.642-2.429-4.397-5.404-4.397-3.69 0-6.077 2.778-6.077 6.775 0 3.946 2.302 6.75 6.103 6.75zm14.691-17.719h-2.566l-4.355 2.847v2.523l4.176-2.727h.103v14.812h2.642zm16.142 22.364v-18h-2.489v2.122h-.213c-.452-.809-1.329-2.292-3.758-2.292-3.162 0-5.498 2.497-5.498 6.741 0 4.236 2.302 6.776 5.472 6.776 2.386 0 3.324-1.458 3.784-2.293h.154v6.946zm-2.497-11.454c0 2.752-1.228 4.627-3.418 4.627-2.276 0-3.469-2.002-3.469-4.627 0-2.6 1.159-4.552 3.469-4.552 2.224 0 3.418 1.816 3.418 4.552zm9.733 6.835c2.164 0 3.383-1.1 3.869-2.08h.102v1.79h2.489v-8.693c0-3.81-3-4.568-5.08-4.568-2.369 0-4.551.954-5.403 3.341l2.395.545c.375-.929 1.329-1.824 3.042-1.824 1.645 0 2.489.861 2.489 2.344v.06c0 .929-.955.911-3.307 1.184-2.48.29-5.02.938-5.02 3.912 0 2.574 1.935 3.989 4.424 3.989zm.554-2.046c-1.441 0-2.481-.647-2.481-1.909 0-1.363 1.211-1.849 2.685-2.045.827-.111 2.787-.333 3.154-.699v1.687c0 1.552-1.236 2.966-3.358 2.966zm9.3 1.756h2.548v-7.994c0-1.713 1.321-2.949 3.128-2.949.529 0 1.125.094 1.33.153v-2.437c-.256-.034-.759-.06-1.083-.06-1.534 0-2.846.869-3.324 2.276h-.136v-2.08h-2.463zm15.254.281c4.031 0 6.392-3.29 6.392-9.008 0-5.676-2.395-8.975-6.392-8.975-4.006 0-6.392 3.29-6.401 8.975 0 5.71 2.361 9 6.401 9.008zm0-2.275c-.844 0-1.569-.299-2.148-.887l5.165-10.355c.494 1.117.758 2.634.758 4.509 0 4.363-1.423 6.733-3.775 6.733zm2.096-12.622-5.139 10.355c-.486-1.108-.742-2.608-.742-4.466.009-4.347 1.432-6.742 3.785-6.742.818 0 1.525.29 2.096.853zm17.163 4.721c-.529-2.037-2.122-3.366-4.952-3.366-2.957 0-5.054 1.559-5.054 3.877 0 1.858 1.125 3.094 3.58 3.64l2.216.485c1.261.282 1.849.844 1.849 1.662 0 1.015-1.082 1.807-2.753 1.807-1.525 0-2.506-.656-2.812-1.943l-2.463.375c.426 2.318 2.352 3.622 5.292 3.622 3.162 0 5.352-1.679 5.352-4.048 0-1.85-1.176-2.992-3.579-3.546l-2.08-.477c-1.44-.341-2.062-.827-2.054-1.713-.008-1.006 1.083-1.721 2.532-1.721 1.585 0 2.318.877 2.616 1.755zm3.057 9.895h2.549v-7.994c0-1.713 1.321-2.949 3.127-2.949.529 0 1.125.094 1.33.153v-2.437c-.256-.034-.759-.06-1.082-.06-1.534 0-2.847.869-3.324 2.276h-.137v-2.08h-2.463zm9.211 0h2.549v-7.994c0-1.713 1.321-2.949 3.127-2.949.529 0 1.125.094 1.33.153v-2.437c-.256-.034-.759-.06-1.082-.06-1.535 0-2.847.869-3.324 2.276h-.137v-2.08h-2.463zm9.211 0h2.548v-7.994c0-1.713 1.322-2.949 3.128-2.949.529 0 1.125.094 1.33.153v-2.437c-.256-.034-.759-.06-1.083-.06-1.534 0-2.846.869-3.323 2.276h-.137v-2.08h-2.463zm9.765 0h2.753l7.594-15.119v-2.336h-11.54v2.259h8.812v.128zm15.356-13.091h-2.796l4.023 6.546-4.074 6.545h2.796l2.94-4.892 2.949 4.892h2.787l-4.117-6.545 4.083-6.546h-2.787l-2.915 5.097zm17.437 0h-2.821v-1.176c0-1.159.478-1.79 1.722-1.79.528 0 .903.119 1.142.196l.597-2.062c-.358-.137-1.1-.35-2.131-.35-2.071 0-3.886 1.211-3.886 3.665v1.517h-2.02v2.046h2.02v11.045h2.556v-11.045h2.821zm2.63 13.091h2.548v-4.645l1.27-1.27 4.449 5.915h3.128l-5.66-7.474 5.302-5.617h-3.052l-5.215 5.54h-.222v-9.904h-2.548zm24.628-13.091h-2.736l-3.306 10.074h-.137l-3.315-10.074h-2.736l4.756 13.091h2.727zm4.006 18c2.105 0 3.435-1.099 4.193-3.162l5.412-14.812-2.753-.026-3.315 10.159h-.137l-3.315-10.159h-2.727l4.79 13.261-.316.87c-.647 1.738-1.559 1.883-2.957 1.5l-.614 2.088c.307.136.972.281 1.739.281zm17.734-4.67c3.511 0 6.017-2.48 6.008-5.881.009-3.375-2.344-5.83-5.523-5.83-1.295 0-2.497.495-3.179 1.16h-.102l.554-4.884h7.406v-2.259h-9.596l-.98 8.796 2.412.358c.656-.588 1.832-.989 2.889-.989 2.071.017 3.571 1.568 3.571 3.699 0 2.097-1.458 3.614-3.46 3.614-1.688 0-3.026-1.074-3.162-2.574h-2.557c.102 2.778 2.514 4.79 5.719 4.79zm11.703-17.694h-2.548v17.455h2.548zm9.488 17.694c3.648.034 6.069-2.591 6.06-5.941.009-3.341-2.42-5.736-5.446-5.736-1.841 0-3.435.887-4.33 2.361h-.127c.008-3.963 1.508-6.315 4.065-6.315 1.679 0 2.736 1.023 3.094 2.472h2.599c-.4-2.762-2.574-4.773-5.693-4.773-4.057 0-6.588 3.486-6.588 9.554-.009 6.426 3.264 8.352 6.366 8.378zm-.008-2.216c-2.029 0-3.512-1.705-3.512-3.665.009-1.952 1.56-3.656 3.571-3.656 1.995 0 3.461 1.61 3.452 3.63.009 2.063-1.517 3.691-3.511 3.691zm8.806-1.432h8.276v3.409h2.514v-3.409h2.309v-2.233h-2.309v-11.813h-3.247l-7.543 11.915zm8.293-2.233h-5.532v-.136l5.395-8.54h.137zm13.853 5.881c3.563 0 6.179-2.131 6.171-5.029.008-2.207-1.33-3.792-3.648-4.15v-.137c1.824-.468 3.008-1.9 3-3.861.008-2.565-2.097-4.755-5.455-4.755-3.204 0-5.778 1.934-5.863 4.773h2.548c.06-1.603 1.568-2.574 3.281-2.574 1.782 0 2.949 1.082 2.941 2.693.008 1.687-1.347 2.795-3.282 2.795h-1.474v2.148h1.474c2.421 0 3.819 1.227 3.819 2.983 0 1.696-1.475 2.847-3.529 2.847-1.892 0-3.366-.972-3.469-2.523h-2.676c.111 2.846 2.634 4.79 6.162 4.79zm11.975-17.694h-2.549v17.455h2.549zm5.039 22.364c2.105 0 3.434-1.099 4.193-3.162l5.412-14.812-2.753-.026-3.315 10.159h-.137l-3.315-10.159h-2.727l4.789 13.261-.315.87c-.648 1.738-1.56 1.883-2.957 1.5l-.614 2.088c.307.136.972.281 1.739.281zm16.438-4.653c2.386 0 3.324-1.458 3.784-2.293h.213v2.037h2.489v-17.455h-2.549v6.486h-.153c-.46-.809-1.33-2.292-3.767-2.292-3.162 0-5.489 2.497-5.489 6.741 0 4.236 2.293 6.776 5.472 6.776zm.562-2.174c-2.275 0-3.46-2.002-3.46-4.627 0-2.6 1.159-4.552 3.46-4.552 2.225 0 3.418 1.816 3.418 4.552 0 2.752-1.219 4.627-3.418 4.627zm12.109-5.855c0-2.088 1.279-3.281 3.051-3.281 1.73 0 2.779 1.134 2.779 3.034v8.02h2.548v-8.327c0-3.238-1.781-4.934-4.457-4.934-1.969 0-3.256.912-3.861 2.301h-.162v-2.131h-2.446v13.091h2.548zm14.634 7.773h2.591l2.659-9.452h.196l2.659 9.452h2.599l3.844-13.091h-2.634l-2.548 9.571h-.128l-2.557-9.571h-2.633l-2.574 9.614h-.128l-2.565-9.614h-2.634zm22.736-17.693c-3.665-.034-6.06 2.599-6.06 5.906.009 3.332 2.421 5.736 5.447 5.736 1.849 0 3.434-.904 4.329-2.369h.136c-.008 4.014-1.517 6.358-4.073 6.358-1.671 0-2.745-1.023-3.086-2.515h-2.599c.383 2.821 2.565 4.816 5.685 4.816 4.056 0 6.596-3.486 6.596-9.597-.008-6.375-3.264-8.31-6.375-8.335zm.009 2.216c2.02 0 3.511 1.713 3.511 3.63.009 1.944-1.568 3.648-3.562 3.648-2.003 0-3.452-1.602-3.461-3.622 0-2.028 1.509-3.656 3.512-3.656zm9.479 15.477h2.548v-7.994c0-1.713 1.321-2.949 3.128-2.949.529 0 1.125.094 1.33.153v-2.437c-.256-.034-.759-.06-1.083-.06-1.534 0-2.846.869-3.323 2.276h-.137v-2.08h-2.463zm14.384.264c2.855 0 4.875-1.406 5.455-3.537l-2.412-.434c-.46 1.235-1.568 1.866-3.017 1.866-2.182 0-3.648-1.415-3.716-3.937h9.307v-.904c0-4.73-2.83-6.579-5.796-6.579-3.647 0-6.051 2.778-6.051 6.801 0 4.065 2.37 6.724 6.23 6.724zm-3.682-7.952c.103-1.857 1.449-3.468 3.52-3.468 1.978 0 3.273 1.466 3.282 3.468zm17.853 7.927c3.512 0 6.018-2.48 6.009-5.881.009-3.375-2.344-5.83-5.523-5.83-1.295 0-2.497.495-3.179 1.16h-.102l.554-4.884h7.406v-2.259h-9.596l-.98 8.796 2.411.358c.657-.588 1.833-.989 2.89-.989 2.071.017 3.571 1.568 3.571 3.699 0 2.097-1.458 3.614-3.461 3.614-1.687 0-3.025-1.074-3.161-2.574h-2.557c.102 2.778 2.514 4.79 5.718 4.79zm14.926-17.932c-3.665-.034-6.06 2.599-6.06 5.906.009 3.332 2.421 5.736 5.446 5.736 1.85 0 3.435-.904 4.33-2.369h.136c-.008 4.014-1.517 6.358-4.074 6.358-1.67 0-2.744-1.023-3.085-2.515h-2.599c.383 2.821 2.565 4.816 5.684 4.816 4.057 0 6.597-3.486 6.597-9.597-.009-6.375-3.264-8.31-6.375-8.335zm.008 2.216c2.02 0 3.512 1.713 3.512 3.63.008 1.944-1.568 3.648-3.563 3.648-2.003 0-3.451-1.602-3.46-3.622 0-2.028 1.509-3.656 3.511-3.656zm14.968 20.659c3.333 0 5.907-1.526 5.907-4.892v-13.381h-2.497v2.122h-.188c-.452-.809-1.355-2.292-3.793-2.292-3.162 0-5.488 2.497-5.488 6.664 0 4.177 2.378 6.401 5.471 6.401 2.404 0 3.333-1.355 3.793-2.19h.162v2.574c0 2.053-1.406 2.94-3.341 2.94-2.122 0-2.949-1.066-3.401-1.816l-2.19.904c.69 1.602 2.438 2.966 5.565 2.966zm-.025-7.492c-2.276 0-3.46-1.747-3.46-4.321 0-2.514 1.159-4.466 3.46-4.466 2.224 0 3.418 1.816 3.418 4.466 0 2.702-1.219 4.321-3.418 4.321zm15.46-10.781h-2.685v-3.136h-2.548v3.136h-1.917v2.046h1.917v7.73c-.008 2.377 1.807 3.528 3.818 3.485.81-.008 1.355-.161 1.654-.272l-.46-2.105c-.171.034-.486.11-.895.11-.827 0-1.569-.272-1.569-1.747v-7.201h2.685zm2.546 13.091h10.509v-2.216h-7.057v-.119l6.818-8.898v-1.858h-10.04v2.216h6.861v.119l-7.091 9.009zm13.242 0h10.509v-2.216h-7.057v-.119l6.818-8.898v-1.858h-10.039v2.216h6.86v.119l-7.091 9.009zm16.353 0h2.591l2.659-9.452h.196l2.66 9.452h2.599l3.844-13.091h-2.634l-2.548 9.571h-.128l-2.557-9.571h-2.633l-2.574 9.614h-.128l-2.565-9.614h-2.634zm23.197-13.091h-2.821v-1.176c0-1.159.477-1.79 1.722-1.79.528 0 .903.119 1.142.196l.596-2.062c-.358-.137-1.099-.35-2.13-.35-2.071 0-3.887 1.211-3.887 3.665v1.517h-2.02v2.046h2.02v11.045h2.557v-11.045h2.821zm8.357 13.33c3.511 0 6.017-2.48 6.008-5.881.009-3.375-2.344-5.83-5.522-5.83-1.296 0-2.498.495-3.179 1.16h-.103l.554-4.884h7.406v-2.259h-9.596l-.98 8.796 2.412.358c.656-.588 1.832-.989 2.889-.989 2.071.017 3.571 1.568 3.571 3.699 0 2.097-1.457 3.614-3.46 3.614-1.688 0-3.026-1.074-3.162-2.574h-2.557c.102 2.778 2.514 4.79 5.719 4.79zm9.155-.239h2.549v-8.071c0-1.764 1.235-2.991 2.684-2.991 1.415 0 2.395.937 2.395 2.36v8.702h2.54v-8.344c0-1.576.963-2.718 2.625-2.718 1.346 0 2.454.75 2.454 2.522v8.54h2.549v-8.778c0-2.992-1.671-4.483-4.04-4.483-1.884 0-3.298.903-3.929 2.301h-.136c-.571-1.432-1.773-2.301-3.52-2.301-1.73 0-3.017.86-3.563 2.301h-.162v-2.131h-2.446zm26.112.256c2.386 0 3.324-1.458 3.784-2.293h.213v2.037h2.489v-17.455h-2.549v6.486h-.153c-.46-.809-1.33-2.292-3.767-2.292-3.162 0-5.489 2.497-5.489 6.741 0 4.236 2.293 6.776 5.472 6.776zm.562-2.174c-2.275 0-3.46-2.002-3.46-4.627 0-2.6 1.159-4.552 3.46-4.552 2.225 0 3.418 1.816 3.418 4.552 0 2.752-1.219 4.627-3.418 4.627zm20.947 6.827v-18h-2.489v2.122h-.213c-.451-.809-1.329-2.292-3.758-2.292-3.162 0-5.497 2.497-5.497 6.741 0 4.236 2.301 6.776 5.471 6.776 2.387 0 3.324-1.458 3.784-2.293h.154v6.946zm-2.497-11.454c0 2.752-1.227 4.627-3.418 4.627-2.275 0-3.469-2.002-3.469-4.627 0-2.6 1.16-4.552 3.469-4.552 2.225 0 3.418 1.816 3.418 4.552z" fill="#000"/><path d="m36 473c14.3594 0 26-11.641 26-26v-27l20.5 43c-2.6667 3.833-17.7 10-46.5 10z" fill="#fff"/><rect fill="#2c7be5" height="89" rx="44.5" transform="matrix(-1 0 0 1 740 494)" width="494"/><path d="m287.057 531.812h5.437v15.188h2.625v-15.188h5.446v-2.267h-13.508zm18.837 7.415c0-2.088 1.321-3.281 3.137-3.281 1.755 0 2.804 1.116 2.804 3.034v8.02h2.548v-8.327c0-3.264-1.79-4.934-4.483-4.934-2.037 0-3.264.886-3.878 2.301h-.162v-6.495h-2.514v17.455h2.548zm15.699 8.063c2.165 0 3.384-1.1 3.869-2.08h.103v1.79h2.488v-8.693c0-3.81-3-4.568-5.079-4.568-2.37 0-4.551.954-5.404 3.341l2.395.545c.375-.929 1.33-1.824 3.043-1.824 1.645 0 2.488.861 2.488 2.344v.06c0 .929-.954.911-3.306 1.184-2.48.29-5.02.938-5.02 3.912 0 2.574 1.934 3.989 4.423 3.989zm.554-2.046c-1.44 0-2.48-.647-2.48-1.909 0-1.363 1.21-1.849 2.685-2.045.826-.111 2.786-.333 3.153-.699v1.687c0 1.552-1.236 2.966-3.358 2.966zm11.849-6.017c0-2.088 1.278-3.281 3.051-3.281 1.73 0 2.778 1.134 2.778 3.034v8.02h2.549v-8.327c0-3.238-1.782-4.934-4.458-4.934-1.969 0-3.255.912-3.861 2.301h-.162v-2.131h-2.446v13.091h2.549zm11.795 7.773h2.548v-4.645l1.27-1.27 4.449 5.915h3.128l-5.659-7.474 5.301-5.617h-3.051l-5.216 5.54h-.222v-9.904h-2.548zm23.169-9.895c-.528-2.037-2.122-3.366-4.951-3.366-2.958 0-5.054 1.559-5.054 3.877 0 1.858 1.125 3.094 3.579 3.64l2.216.485c1.261.282 1.849.844 1.849 1.662 0 1.015-1.082 1.807-2.752 1.807-1.526 0-2.506-.656-2.813-1.943l-2.463.375c.426 2.318 2.352 3.622 5.293 3.622 3.162 0 5.352-1.679 5.352-4.048 0-1.85-1.176-2.992-3.58-3.546l-2.079-.477c-1.441-.341-2.063-.827-2.054-1.713-.009-1.006 1.082-1.721 2.531-1.721 1.585 0 2.318.877 2.617 1.755zm15.639-3.196h-2.821v-1.176c0-1.159.478-1.79 1.722-1.79.528 0 .903.119 1.142.196l.597-2.062c-.358-.137-1.1-.35-2.131-.35-2.071 0-3.886 1.211-3.886 3.665v1.517h-2.02v2.046h2.02v11.045h2.556v-11.045h2.821zm7.628 13.355c3.691 0 6.103-2.702 6.103-6.75 0-4.074-2.412-6.775-6.103-6.775-3.69 0-6.102 2.701-6.102 6.775 0 4.048 2.412 6.75 6.102 6.75zm.009-2.139c-2.412 0-3.537-2.105-3.537-4.619 0-2.506 1.125-4.637 3.537-4.637 2.395 0 3.52 2.131 3.52 4.637 0 2.514-1.125 4.619-3.52 4.619zm8.938 1.875h2.548v-7.994c0-1.713 1.321-2.949 3.128-2.949.529 0 1.125.094 1.33.153v-2.437c-.256-.034-.759-.06-1.083-.06-1.534 0-2.846.869-3.324 2.276h-.136v-2.08h-2.463zm17.173 4.909c2.105 0 3.435-1.099 4.193-3.162l5.412-14.812-2.752-.026-3.316 10.159h-.136l-3.315-10.159h-2.728l4.79 13.261-.315.87c-.648 1.738-1.56 1.883-2.958 1.5l-.613 2.088c.306.136.971.281 1.738.281zm17.052-4.645c3.69 0 6.102-2.702 6.102-6.75 0-4.074-2.412-6.775-6.102-6.775s-6.102 2.701-6.102 6.775c0 4.048 2.412 6.75 6.102 6.75zm.009-2.139c-2.412 0-3.537-2.105-3.537-4.619 0-2.506 1.125-4.637 3.537-4.637 2.395 0 3.52 2.131 3.52 4.637 0 2.514-1.125 4.619-3.52 4.619zm17.23-3.554c.009 2.224-1.644 3.281-3.076 3.281-1.577 0-2.668-1.142-2.668-2.923v-8.02h-2.548v8.327c0 3.247 1.781 4.934 4.295 4.934 1.969 0 3.307-1.039 3.912-2.437h.137v2.267h2.505v-13.091h-2.557zm5.981 5.429h2.549v-7.994c0-1.713 1.321-2.949 3.127-2.949.529 0 1.125.094 1.33.153v-2.437c-.256-.034-.759-.06-1.082-.06-1.534 0-2.847.869-3.324 2.276h-.137v-2.08h-2.463zm18.401 0h2.591l2.659-9.452h.196l2.659 9.452h2.599l3.844-13.091h-2.633l-2.549 9.571h-.127l-2.557-9.571h-2.634l-2.574 9.614h-.128l-2.565-9.614h-2.633zm22.082.264c3.691 0 6.103-2.702 6.103-6.75 0-4.074-2.412-6.775-6.103-6.775-3.69 0-6.102 2.701-6.102 6.775 0 4.048 2.412 6.75 6.102 6.75zm.009-2.139c-2.412 0-3.537-2.105-3.537-4.619 0-2.506 1.125-4.637 3.537-4.637 2.395 0 3.52 2.131 3.52 4.637 0 2.514-1.125 4.619-3.52 4.619zm8.938 1.875h2.548v-7.994c0-1.713 1.321-2.949 3.128-2.949.529 0 1.125.094 1.33.153v-2.437c-.256-.034-.759-.06-1.083-.06-1.534 0-2.846.869-3.324 2.276h-.136v-2.08h-2.463zm9.211 0h2.548v-4.645l1.27-1.27 4.449 5.915h3.128l-5.659-7.474 5.301-5.617h-3.051l-5.216 5.54h-.222v-9.904h-2.548zm16.675-2.386h-2.455l-.085.954c-.196 2.31-.742 4.637-.972 5.693h1.807c.409-1.116 1.313-3.673 1.577-5.718zm12.507-15.069h-2.634v17.455h2.634zm12.82 17.455h2.591l2.659-9.452h.196l2.659 9.452h2.6l3.843-13.091h-2.633l-2.548 9.571h-.128l-2.557-9.571h-2.634l-2.573 9.614h-.128l-2.566-9.614h-2.633zm16.967 0h2.548v-13.091h-2.548zm1.287-15.111c.877 0 1.61-.682 1.61-1.517s-.733-1.525-1.61-1.525c-.887 0-1.611.69-1.611 1.525s.724 1.517 1.611 1.517zm7.238-2.344h-2.549v17.455h2.549zm5.976 0h-2.548v17.455h2.548zm9.78 22.364h2.548v-6.946h.154c.46.835 1.397 2.293 3.784 2.293 3.17 0 5.471-2.54 5.471-6.776 0-4.244-2.335-6.741-5.497-6.741-2.429 0-3.307 1.483-3.758 2.292h-.213v-2.122h-2.489zm2.497-11.454c0-2.736 1.193-4.552 3.418-4.552 2.309 0 3.468 1.952 3.468 4.552 0 2.625-1.193 4.627-3.468 4.627-2.191 0-3.418-1.875-3.418-4.627zm16.125 6.835c2.165 0 3.384-1.1 3.869-2.08h.103v1.79h2.488v-8.693c0-3.81-3-4.568-5.079-4.568-2.37 0-4.551.954-5.404 3.341l2.395.545c.375-.929 1.33-1.824 3.043-1.824 1.645 0 2.489.861 2.489 2.344v.06c0 .929-.955.911-3.307 1.184-2.48.29-5.02.938-5.02 3.912 0 2.574 1.934 3.989 4.423 3.989zm.554-2.046c-1.44 0-2.48-.647-2.48-1.909 0-1.363 1.21-1.849 2.685-2.045.826-.111 2.787-.333 3.153-.699v1.687c0 1.552-1.236 2.966-3.358 2.966zm10.443 6.665c2.105 0 3.434-1.099 4.193-3.162l5.412-14.812-2.753-.026-3.316 10.159h-.136l-3.315-10.159h-2.727l4.789 13.261-.315.87c-.648 1.738-1.56 1.883-2.957 1.5l-.614 2.088c.307.136.972.281 1.739.281zm20.906-12.682c0-2.088 1.278-3.281 3.051-3.281 1.73 0 2.778 1.134 2.778 3.034v8.02h2.549v-8.327c0-3.238-1.782-4.934-4.458-4.934-1.968 0-3.255.912-3.861 2.301h-.161v-2.131h-2.446v13.091h2.548zm17.309 8.037c3.691 0 6.103-2.702 6.103-6.75 0-4.074-2.412-6.775-6.103-6.775-3.69 0-6.102 2.701-6.102 6.775 0 4.048 2.412 6.75 6.102 6.75zm.009-2.139c-2.412 0-3.537-2.105-3.537-4.619 0-2.506 1.125-4.637 3.537-4.637 2.395 0 3.52 2.131 3.52 4.637 0 2.514-1.125 4.619-3.52 4.619zm11.378 1.875h2.591l2.659-9.452h.196l2.659 9.452h2.599l3.844-13.091h-2.633l-2.549 9.571h-.128l-2.556-9.571h-2.634l-2.574 9.614h-.128l-2.565-9.614h-2.633zm16.864.162c.929 0 1.705-.759 1.705-1.705 0-.929-.776-1.696-1.705-1.696-.937 0-1.704.767-1.704 1.696 0 .946.767 1.705 1.704 1.705z" fill="#fff"/><path d="m765 583c-14.359 0-26-11.641-26-26v-27l-20.5 43c2.667 3.833 17.7 10 46.5 10z" fill="#2c7be5"/><path d="m1 1h798v798h-798z" stroke="#000" stroke-width="2"/></svg>