<svg width="800" height="800" viewBox="0 0 800 800" fill="none" xmlns="http://www.w3.org/2000/svg">
<rect x="1" y="1" width="798" height="798" fill="#92FADA"/>
<rect x="101.893" y="274.893" width="596.215" height="123.17" rx="8.03284" fill="white"/>
<path d="M441.728 321.487H444.086V312.777H454.47V321.487H456.828V302.013H454.47V310.685H444.086V302.013H441.728V321.487ZM465.542 321.829C468.091 321.829 469.422 320.46 469.878 319.509H469.992V321.487H472.236V311.864C472.236 307.224 468.699 306.691 466.836 306.691C464.63 306.691 462.119 307.452 460.978 310.114L463.108 310.875C463.603 309.81 464.772 308.669 466.912 308.669C468.975 308.669 469.992 309.763 469.992 311.636V311.712C469.992 312.796 468.889 312.701 466.227 313.043C463.517 313.395 460.56 313.994 460.56 317.341C460.56 320.193 462.766 321.829 465.542 321.829ZM465.885 319.813C464.097 319.813 462.804 319.014 462.804 317.455C462.804 315.743 464.363 315.211 466.113 314.983C467.064 314.869 469.612 314.602 469.992 314.146V316.2C469.992 318.025 468.547 319.813 465.885 319.813ZM476.332 321.487H478.576V306.881H476.332V321.487ZM477.473 304.447C478.348 304.447 479.071 303.763 479.071 302.926C479.071 302.089 478.348 301.404 477.473 301.404C476.599 301.404 475.876 302.089 475.876 302.926C475.876 303.763 476.599 304.447 477.473 304.447ZM489.038 306.881H485.919V303.382H483.675V306.881H481.469V308.783H483.675V317.911C483.675 320.46 485.729 321.677 487.631 321.677C488.468 321.677 489 321.525 489.304 321.411L488.848 319.395C488.658 319.433 488.353 319.509 487.859 319.509C486.87 319.509 485.919 319.205 485.919 317.303V308.783H489.038V306.881ZM492.414 321.487H494.658V306.881H492.414V321.487ZM493.555 304.447C494.429 304.447 495.152 303.763 495.152 302.926C495.152 302.089 494.429 301.404 493.555 301.404C492.68 301.404 491.957 302.089 491.957 302.926C491.957 303.763 492.68 304.447 493.555 304.447ZM503.066 321.829C505.614 321.829 506.945 320.46 507.402 319.509H507.516V321.487H509.76V311.864C509.76 307.224 506.222 306.691 504.359 306.691C502.153 306.691 499.643 307.452 498.502 310.114L500.631 310.875C501.126 309.81 502.295 308.669 504.435 308.669C506.498 308.669 507.516 309.763 507.516 311.636V311.712C507.516 312.796 506.413 312.701 503.75 313.043C501.04 313.395 498.083 313.994 498.083 317.341C498.083 320.193 500.289 321.829 503.066 321.829ZM503.408 319.813C501.62 319.813 500.327 319.014 500.327 317.455C500.327 315.743 501.887 315.211 503.636 314.983C504.587 314.869 507.135 314.602 507.516 314.146V316.2C507.516 318.025 506.07 319.813 503.408 319.813ZM516.099 312.701C516.099 310.152 517.678 308.707 519.827 308.707C521.909 308.707 523.174 310.067 523.174 312.358V321.487H525.418V312.206C525.418 308.479 523.431 306.691 520.473 306.691C518.267 306.691 516.898 307.68 516.214 309.163H516.023V306.881H513.855V321.487H516.099V312.701ZM550.665 308.099H553.1C552.377 304.333 549.22 301.747 545.112 301.747C540.12 301.747 536.593 305.588 536.593 311.75C536.593 317.911 540.092 321.753 545.265 321.753C549.905 321.753 553.214 318.663 553.214 313.842V311.75H545.797V313.842H550.932C550.865 317.341 548.564 319.547 545.265 319.547C541.651 319.547 538.875 316.808 538.875 311.75C538.875 306.691 541.651 303.953 545.112 303.953C547.927 303.953 549.838 305.541 550.665 308.099ZM562.882 321.791C566.837 321.791 569.5 318.786 569.5 314.26C569.5 309.696 566.837 306.691 562.882 306.691C558.926 306.691 556.264 309.696 556.264 314.26C556.264 318.786 558.926 321.791 562.882 321.791ZM562.882 319.775C559.877 319.775 558.508 317.189 558.508 314.26C558.508 311.331 559.877 308.707 562.882 308.707C565.886 308.707 567.256 311.331 567.256 314.26C567.256 317.189 565.886 319.775 562.882 319.775ZM582.129 315.515C582.129 318.254 580.037 319.509 578.364 319.509C576.5 319.509 575.169 318.14 575.169 316.01V306.881H572.925V316.162C572.925 319.889 574.903 321.677 577.641 321.677C579.847 321.677 581.293 320.498 581.977 319.014H582.129V321.487H584.373V306.881H582.129V315.515ZM588.483 321.487H590.727V312.244C590.727 310.266 592.287 308.821 594.417 308.821C595.016 308.821 595.634 308.935 595.786 308.973V306.691C595.529 306.672 594.94 306.653 594.607 306.653C592.857 306.653 591.336 307.642 590.804 309.087H590.651V306.881H588.483V321.487ZM603.516 321.791C606.331 321.791 607.282 320.041 607.776 319.243H608.043V321.487H610.211V302.013H607.966V309.202H607.776C607.282 308.441 606.407 306.691 603.555 306.691C599.865 306.691 597.317 309.62 597.317 314.222C597.317 318.862 599.865 321.791 603.516 321.791ZM603.821 319.775C601.006 319.775 599.561 317.303 599.561 314.184C599.561 311.103 600.968 308.707 603.821 308.707C606.559 308.707 608.005 310.913 608.005 314.184C608.005 317.493 606.521 319.775 603.821 319.775ZM620.756 321.791C623.722 321.791 625.89 320.308 626.575 318.102L624.407 317.493C623.836 319.014 622.515 319.775 620.756 319.775C618.122 319.775 616.305 318.073 616.201 314.945H626.803V313.994C626.803 308.555 623.57 306.691 620.527 306.691C616.572 306.691 613.947 309.81 613.947 314.298C613.947 318.786 616.534 321.791 620.756 321.791ZM616.201 313.005C616.353 310.732 617.96 308.707 620.527 308.707C622.961 308.707 624.521 310.533 624.521 313.005H616.201Z" fill="black"/>
<path d="M661.361 307.024L652.436 315.949L643.51 307.024" stroke="black" stroke-width="1.78507" stroke-linecap="round" stroke-linejoin="round"/>
<path d="M449.776 368.731C454.934 368.731 457.9 364.361 457.9 356.728C457.9 349.151 454.888 344.724 449.776 344.724C444.664 344.724 441.652 349.151 441.652 356.728C441.652 364.361 444.619 368.731 449.776 368.731ZM449.776 366.221C448.567 366.221 447.528 365.788 446.707 364.955L453.998 350.178C454.751 351.787 455.162 353.989 455.162 356.728C455.162 362.809 453.177 366.221 449.776 366.221ZM445.532 363.22C444.79 361.634 444.391 359.455 444.391 356.728C444.391 350.658 446.399 347.189 449.776 347.189C450.963 347.189 451.99 347.622 452.811 348.444L445.532 363.22ZM464.601 368.594C465.731 368.594 466.655 367.67 466.655 366.541C466.655 365.411 465.731 364.487 464.601 364.487C463.471 364.487 462.547 365.411 462.547 366.541C462.547 367.67 463.471 368.594 464.601 368.594ZM479.429 368.731C484.586 368.731 487.553 364.361 487.553 356.728C487.553 349.151 484.541 344.724 479.429 344.724C474.317 344.724 471.305 349.151 471.305 356.728C471.305 364.361 474.271 368.731 479.429 368.731ZM479.429 366.221C478.219 366.221 477.181 365.788 476.359 364.955L483.651 350.178C484.404 351.787 484.814 353.989 484.814 356.728C484.814 362.809 482.829 366.221 479.429 366.221ZM475.184 363.22C474.442 361.634 474.043 359.455 474.043 356.728C474.043 350.658 476.051 347.189 479.429 347.189C480.615 347.189 481.642 347.622 482.464 348.444L475.184 363.22ZM500.233 368.731C505.39 368.731 508.357 364.361 508.357 356.728C508.357 349.151 505.344 344.724 500.233 344.724C495.121 344.724 492.108 349.151 492.108 356.728C492.108 364.361 495.075 368.731 500.233 368.731ZM500.233 366.221C499.023 366.221 497.985 365.788 497.163 364.955L504.454 350.178C505.207 351.787 505.618 353.989 505.618 356.728C505.618 362.809 503.633 366.221 500.233 366.221ZM495.988 363.22C495.246 361.634 494.847 359.455 494.847 356.728C494.847 350.658 496.855 347.189 500.233 347.189C501.419 347.189 502.446 347.622 503.268 348.444L495.988 363.22Z" fill="#BBBBBB"/>
<path d="M372.928 336.646L365.704 329.42L372.929 322.195M386.896 329.42L366.034 329.42" stroke="black" stroke-width="1.78507" stroke-miterlimit="10" stroke-linecap="round" stroke-linejoin="round"/>
<path d="M379.672 338.092L386.896 345.318L379.671 352.543M365.704 345.318L386.566 345.318" stroke="black" stroke-width="1.78507" stroke-miterlimit="10" stroke-linecap="round" stroke-linejoin="round"/>
<path d="M139.06 322.557H146.096C150.698 322.557 152.6 320.313 152.6 317.384C152.6 314.303 150.47 312.63 148.682 312.516V312.325C150.356 311.869 151.839 310.766 151.839 308.256C151.839 305.403 149.937 303.083 145.868 303.083H139.06V322.557ZM141.418 320.465V313.695H146.21C148.758 313.695 150.356 315.406 150.356 317.384C150.356 319.096 149.177 320.465 146.096 320.465H141.418ZM141.418 311.641V305.175H145.868C148.454 305.175 149.595 306.544 149.595 308.256C149.595 310.31 147.922 311.641 145.792 311.641H141.418ZM156.17 322.557H158.414V307.952H156.17V322.557ZM157.311 305.517C158.186 305.517 158.909 304.833 158.909 303.996C158.909 303.159 158.186 302.475 157.311 302.475C156.436 302.475 155.714 303.159 155.714 303.996C155.714 304.833 156.436 305.517 157.311 305.517ZM168.876 307.952H165.757V304.452H163.513V307.952H161.307V309.853H163.513V318.981C163.513 321.53 165.567 322.747 167.469 322.747C168.306 322.747 168.838 322.595 169.142 322.481L168.686 320.465C168.496 320.503 168.191 320.579 167.697 320.579C166.708 320.579 165.757 320.275 165.757 318.373V309.853H168.876V307.952ZM178.028 322.861C181.261 322.861 183.391 320.883 183.771 318.297H181.527C181.109 319.894 179.778 320.845 178.028 320.845C175.366 320.845 173.654 318.639 173.654 315.254C173.654 311.945 175.404 309.777 178.028 309.777C180.006 309.777 181.185 310.994 181.527 312.325H183.771C183.391 309.587 181.071 307.761 177.99 307.761C174.034 307.761 171.41 310.88 171.41 315.33C171.41 319.704 173.92 322.861 178.028 322.861ZM192.985 322.861C196.941 322.861 199.603 319.856 199.603 315.33C199.603 310.766 196.941 307.761 192.985 307.761C189.029 307.761 186.367 310.766 186.367 315.33C186.367 319.856 189.029 322.861 192.985 322.861ZM192.985 320.845C189.98 320.845 188.611 318.259 188.611 315.33C188.611 312.402 189.98 309.777 192.985 309.777C195.99 309.777 197.359 312.402 197.359 315.33C197.359 318.259 195.99 320.845 192.985 320.845ZM203.028 322.557H205.272V307.952H203.028V322.557ZM204.169 305.517C205.044 305.517 205.767 304.833 205.767 303.996C205.767 303.159 205.044 302.475 204.169 302.475C203.295 302.475 202.572 303.159 202.572 303.996C202.572 304.833 203.295 305.517 204.169 305.517ZM211.627 313.771C211.627 311.222 213.205 309.777 215.354 309.777C217.436 309.777 218.701 311.137 218.701 313.428V322.557H220.945V313.276C220.945 309.549 218.958 307.761 216 307.761C213.794 307.761 212.425 308.75 211.741 310.234H211.55V307.952H209.383V322.557H211.627V313.771Z" fill="black"/>
<path d="M249.372 308.052L240.447 316.978L231.522 308.052" stroke="black" stroke-width="1.78507" stroke-linecap="round" stroke-linejoin="round"/>
<path d="M147.108 369.718C152.265 369.718 155.232 365.348 155.232 357.714C155.232 350.138 152.219 345.711 147.108 345.711C141.996 345.711 138.983 350.138 138.983 357.714C138.983 365.348 141.95 369.718 147.108 369.718ZM147.108 367.208C145.898 367.208 144.86 366.774 144.038 365.941L151.329 351.165C152.082 352.774 152.493 354.976 152.493 357.714C152.493 363.796 150.508 367.208 147.108 367.208ZM142.863 364.207C142.121 362.621 141.722 360.441 141.722 357.714C141.722 351.644 143.73 348.175 147.108 348.175C148.294 348.175 149.321 348.609 150.143 349.431L142.863 364.207ZM161.932 369.581C163.062 369.581 163.986 368.657 163.986 367.527C163.986 366.398 163.062 365.473 161.932 365.473C160.803 365.473 159.879 366.398 159.879 367.527C159.879 368.657 160.803 369.581 161.932 369.581ZM176.76 369.718C181.917 369.718 184.884 365.348 184.884 357.714C184.884 350.138 181.872 345.711 176.76 345.711C171.648 345.711 168.636 350.138 168.636 357.714C168.636 365.348 171.603 369.718 176.76 369.718ZM176.76 367.208C175.551 367.208 174.512 366.774 173.691 365.941L180.982 351.165C181.735 352.774 182.146 354.976 182.146 357.714C182.146 363.796 180.16 367.208 176.76 367.208ZM172.515 364.207C171.774 362.621 171.374 360.441 171.374 357.714C171.374 351.644 173.383 348.175 176.76 348.175C177.947 348.175 178.974 348.609 179.795 349.431L172.515 364.207ZM197.564 369.718C202.721 369.718 205.688 365.348 205.688 357.714C205.688 350.138 202.676 345.711 197.564 345.711C192.452 345.711 189.44 350.138 189.44 357.714C189.44 365.348 192.406 369.718 197.564 369.718ZM197.564 367.208C196.354 367.208 195.316 366.774 194.494 365.941L201.786 351.165C202.539 352.774 202.949 354.976 202.949 357.714C202.949 363.796 200.964 367.208 197.564 367.208ZM193.319 364.207C192.578 362.621 192.178 360.441 192.178 357.714C192.178 351.644 194.186 348.175 197.564 348.175C198.751 348.175 199.777 348.609 200.599 349.431L193.319 364.207Z" fill="#BBBBBB"/>
<rect x="101.893" y="274.893" width="596.215" height="123.17" rx="8.03284" stroke="#2DC295" stroke-width="1.78507"/>
<path d="M101.595 446.183L108.188 457.223V464.358H110.922V457.223L117.516 446.183H114.401L109.653 454.445H109.458L104.71 446.183H101.595ZM123.413 464.633C127.256 464.633 129.767 461.82 129.767 457.605C129.767 453.363 127.256 450.549 123.413 450.549C119.57 450.549 117.059 453.363 117.059 457.605C117.059 461.82 119.57 464.633 123.413 464.633ZM123.422 462.406C120.91 462.406 119.739 460.214 119.739 457.596C119.739 454.987 120.91 452.768 123.422 452.768C125.916 452.768 127.087 454.987 127.087 457.596C127.087 460.214 125.916 462.406 123.422 462.406ZM141.364 458.705C141.373 461.021 139.651 462.122 138.16 462.122C136.519 462.122 135.383 460.933 135.383 459.078V450.727H132.729V459.397C132.729 462.779 134.584 464.536 137.202 464.536C139.252 464.536 140.645 463.453 141.275 461.998H141.417V464.358H144.027V450.727H141.364V458.705ZM147.592 464.358H150.245V456.034C150.245 454.25 151.621 452.963 153.502 452.963C154.053 452.963 154.674 453.061 154.887 453.123V450.585C154.621 450.549 154.097 450.523 153.76 450.523C152.162 450.523 150.796 451.428 150.299 452.892H150.157V450.727H147.592V464.358ZM164.01 464.358H166.601V462.237H166.823C167.303 463.107 168.279 464.624 170.764 464.624C174.065 464.624 176.461 461.98 176.461 457.569C176.461 453.15 174.03 450.549 170.737 450.549C168.208 450.549 167.294 452.093 166.823 452.937H166.664V446.183H164.01V464.358ZM166.61 457.542C166.61 454.694 167.853 452.803 170.169 452.803C172.574 452.803 173.781 454.836 173.781 457.542C173.781 460.276 172.539 462.361 170.169 462.361C167.888 462.361 166.61 460.409 166.61 457.542ZM183.408 464.66C185.662 464.66 186.931 463.515 187.437 462.495H187.543V464.358H190.135V455.306C190.135 451.339 187.011 450.549 184.846 450.549C182.378 450.549 180.107 451.543 179.219 454.028L181.713 454.596C182.103 453.629 183.097 452.697 184.881 452.697C186.594 452.697 187.472 453.593 187.472 455.137V455.2C187.472 456.167 186.479 456.149 184.029 456.433C181.447 456.735 178.802 457.409 178.802 460.507C178.802 463.187 180.816 464.66 183.408 464.66ZM183.985 462.53C182.485 462.53 181.402 461.856 181.402 460.542C181.402 459.122 182.662 458.616 184.198 458.412C185.059 458.297 187.1 458.066 187.481 457.684V459.442C187.481 461.057 186.195 462.53 183.985 462.53ZM196.323 446.183H193.669V464.358H196.323V446.183ZM203.86 464.66C206.114 464.66 207.383 463.515 207.889 462.495H207.995V464.358H210.587V455.306C210.587 451.339 207.463 450.549 205.297 450.549C202.83 450.549 200.558 451.543 199.671 454.028L202.164 454.596C202.555 453.629 203.549 452.697 205.333 452.697C207.046 452.697 207.924 453.593 207.924 455.137V455.2C207.924 456.167 206.93 456.149 204.481 456.433C201.898 456.735 199.254 457.409 199.254 460.507C199.254 463.187 201.268 464.66 203.86 464.66ZM204.436 462.53C202.937 462.53 201.854 461.856 201.854 460.542C201.854 459.122 203.114 458.616 204.649 458.412C205.51 458.297 207.551 458.066 207.933 457.684V459.442C207.933 461.057 206.646 462.53 204.436 462.53ZM216.774 456.265C216.774 454.09 218.106 452.848 219.952 452.848C221.753 452.848 222.845 454.028 222.845 456.007V464.358H225.498V455.688C225.498 452.315 223.643 450.549 220.857 450.549C218.807 450.549 217.467 451.499 216.837 452.945H216.668V450.727H214.121V464.358H216.774V456.265ZM234.799 464.633C238.02 464.633 240.106 462.699 240.399 460.045H237.816C237.479 461.518 236.334 462.388 234.817 462.388C232.571 462.388 231.125 460.515 231.125 457.542C231.125 454.623 232.598 452.786 234.817 452.786C236.503 452.786 237.532 453.851 237.816 455.129H240.399C240.115 452.377 237.869 450.549 234.772 450.549C230.929 450.549 228.445 453.442 228.445 457.605C228.445 461.714 230.841 464.633 234.799 464.633ZM249.111 464.633C252.084 464.633 254.188 463.169 254.791 460.95L252.28 460.498C251.8 461.785 250.647 462.441 249.138 462.441C246.866 462.441 245.34 460.968 245.269 458.341H254.96V457.4C254.96 452.475 252.013 450.549 248.925 450.549C245.127 450.549 242.624 453.442 242.624 457.631C242.624 461.864 245.091 464.633 249.111 464.633ZM245.278 456.353C245.384 454.419 246.786 452.741 248.943 452.741C251.002 452.741 252.351 454.268 252.36 456.353H245.278Z" fill="#707070"/>
<path d="M109.076 503.585C113.274 503.585 115.732 500.16 115.732 494.205C115.732 488.294 113.238 484.86 109.076 484.86C104.905 484.86 102.42 488.285 102.411 494.205C102.411 500.151 104.869 503.576 109.076 503.585ZM109.076 501.216C106.618 501.216 105.136 498.749 105.136 494.205C105.144 489.679 106.627 487.185 109.076 487.185C111.516 487.185 113.007 489.679 113.007 494.205C113.007 498.749 111.525 501.216 109.076 501.216ZM119.981 503.452C120.948 503.452 121.756 502.662 121.756 501.677C121.756 500.71 120.948 499.911 119.981 499.911C119.004 499.911 118.206 500.71 118.206 501.677C118.206 502.662 119.004 503.452 119.981 503.452ZM125.274 503.284H137.237V500.932H129.055V500.799L132.667 497.018C135.995 493.655 136.945 492.048 136.945 490.016C136.945 487.096 134.566 484.86 131.141 484.86C127.742 484.86 125.257 487.061 125.257 490.38H127.875C127.866 488.427 129.126 487.149 131.087 487.149C132.933 487.149 134.335 488.285 134.335 490.096C134.335 491.702 133.377 492.856 131.425 494.924L125.274 501.296V503.284ZM146.6 503.532C150.257 503.532 152.866 500.95 152.857 497.409C152.866 493.894 150.416 491.338 147.106 491.338C145.757 491.338 144.506 491.853 143.796 492.545H143.689L144.266 487.46H151.978V485.108H141.985L140.965 494.267L143.476 494.64C144.16 494.027 145.384 493.61 146.485 493.61C148.641 493.628 150.203 495.243 150.203 497.462C150.203 499.645 148.686 501.225 146.6 501.225C144.843 501.225 143.45 500.106 143.308 498.545H140.645C140.752 501.438 143.263 503.532 146.6 503.532ZM162.426 503.585C166.624 503.585 169.082 500.16 169.082 494.205C169.082 488.294 166.588 484.86 162.426 484.86C158.255 484.86 155.77 488.285 155.761 494.205C155.761 500.151 158.219 503.576 162.426 503.585ZM162.426 501.216C159.968 501.216 158.486 498.749 158.486 494.205C158.494 489.679 159.977 487.185 162.426 487.185C164.866 487.185 166.357 489.679 166.357 494.205C166.357 498.749 164.875 501.216 162.426 501.216ZM178.558 503.585C182.756 503.585 185.214 500.16 185.214 494.205C185.214 488.294 182.72 484.86 178.558 484.86C174.387 484.86 171.902 488.285 171.893 494.205C171.893 500.151 174.351 503.576 178.558 503.585ZM178.558 501.216C176.1 501.216 174.618 498.749 174.618 494.205C174.626 489.679 176.108 487.185 178.558 487.185C180.998 487.185 182.489 489.679 182.489 494.205C182.489 498.749 181.007 501.216 178.558 501.216ZM194.69 503.585C198.888 503.585 201.346 500.16 201.346 494.205C201.346 488.294 198.852 484.86 194.69 484.86C190.519 484.86 188.034 488.285 188.025 494.205C188.025 500.151 190.483 503.576 194.69 503.585ZM194.69 501.216C192.232 501.216 190.749 498.749 190.749 494.205C190.758 489.679 192.24 487.185 194.69 487.185C197.13 487.185 198.621 489.679 198.621 494.205C198.621 498.749 197.139 501.216 194.69 501.216ZM210.822 503.585C215.019 503.585 217.478 500.16 217.478 494.205C217.478 488.294 214.984 484.86 210.822 484.86C206.651 484.86 204.166 488.285 204.157 494.205C204.157 500.151 206.615 503.576 210.822 503.585ZM210.822 501.216C208.363 501.216 206.881 498.749 206.881 494.205C206.89 489.679 208.372 487.185 210.822 487.185C213.262 487.185 214.753 489.679 214.753 494.205C214.753 498.749 213.271 501.216 210.822 501.216ZM226.954 503.585C231.151 503.585 233.61 500.16 233.61 494.205C233.61 488.294 231.116 484.86 226.954 484.86C222.783 484.86 220.298 488.285 220.289 494.205C220.289 500.151 222.747 503.576 226.954 503.585ZM226.954 501.216C224.495 501.216 223.013 498.749 223.013 494.205C223.022 489.679 224.504 487.185 226.954 487.185C229.394 487.185 230.885 489.679 230.885 494.205C230.885 498.749 229.403 501.216 226.954 501.216ZM243.086 503.585C247.283 503.585 249.742 500.16 249.742 494.205C249.742 488.294 247.248 484.86 243.086 484.86C238.914 484.86 236.43 488.285 236.421 494.205C236.421 500.151 238.879 503.576 243.086 503.585ZM243.086 501.216C240.627 501.216 239.145 498.749 239.145 494.205C239.154 489.679 240.636 487.185 243.086 487.185C245.526 487.185 247.017 489.679 247.017 494.205C247.017 498.749 245.535 501.216 243.086 501.216ZM259.752 503.284H266.719C270.943 503.284 272.851 501.18 272.851 498.394C272.851 495.58 270.881 493.992 269.079 493.894V493.717C270.748 493.291 272.141 492.155 272.141 489.883C272.141 487.194 270.278 485.108 266.408 485.108H259.752V503.284ZM262.494 500.932V495.11H266.55C268.751 495.11 270.127 496.53 270.127 498.261C270.127 499.787 269.088 500.932 266.453 500.932H262.494ZM262.494 492.971V487.442H266.24C268.414 487.442 269.452 488.587 269.452 490.096C269.452 491.853 268.014 492.971 266.169 492.971H262.494ZM275.207 487.469H280.869V503.284H283.603V487.469H289.274V485.108H275.207V487.469ZM306.721 491.019C306.1 487.132 303.056 484.86 299.213 484.86C294.51 484.86 291.04 488.383 291.04 494.196C291.04 500.009 294.492 503.532 299.213 503.532C303.207 503.532 306.127 501.029 306.721 497.435L303.952 497.426C303.482 499.751 301.53 501.029 299.231 501.029C296.116 501.029 293.764 498.642 293.764 494.196C293.764 489.785 296.107 487.362 299.24 487.362C301.556 487.362 303.5 488.667 303.952 491.019H306.721Z" fill="black"/>
<rect x="373.937" y="426.975" width="324.17" height="97.4776" rx="8.03284" fill="white"/>
<path d="M417.017 467.038H414.816L410.273 470.056V472.292L414.71 469.346H414.816V485.213H417.017V467.038ZM428.173 485.462C432.184 485.462 434.491 482.063 434.491 476.126C434.491 470.233 432.149 466.79 428.173 466.79C424.197 466.79 421.854 470.233 421.854 476.126C421.854 482.063 424.161 485.462 428.173 485.462ZM428.173 483.51C425.528 483.51 423.984 480.856 423.984 476.126C423.984 471.404 425.546 468.707 428.173 468.707C430.8 468.707 432.362 471.404 432.362 476.126C432.362 480.856 430.817 483.51 428.173 483.51ZM447.129 481.806C447.129 483.793 448.371 485.462 450.679 485.462C452.951 485.462 454.193 483.793 454.193 481.806V480.847C454.193 478.859 452.986 477.191 450.679 477.191C448.407 477.191 447.129 478.859 447.129 480.847V481.806ZM438.077 471.404C438.077 473.392 439.319 475.061 441.627 475.061C443.899 475.061 445.141 473.392 445.141 471.404V470.446C445.141 468.458 443.934 466.79 441.627 466.79C439.355 466.79 438.077 468.458 438.077 470.446V471.404ZM438.751 485.213H440.775L453.27 467.038H451.247L438.751 485.213ZM448.939 480.847C448.939 479.747 449.436 478.717 450.679 478.717C451.957 478.717 452.383 479.747 452.383 480.847V481.806C452.383 482.906 451.921 483.935 450.679 483.935C449.401 483.935 448.939 482.906 448.939 481.806V480.847ZM439.887 470.446C439.887 469.346 440.384 468.316 441.627 468.316C442.905 468.316 443.331 469.346 443.331 470.446V471.404C443.331 472.505 442.869 473.534 441.627 473.534C440.349 473.534 439.887 472.505 439.887 471.404V470.446Z" fill="black"/>
<path d="M476.478 485.213H487.944V483.261H479.496V483.119L483.578 478.753C486.702 475.407 487.625 473.845 487.625 471.83C487.625 469.026 485.353 466.79 482.158 466.79C478.972 466.79 476.549 468.955 476.549 472.15H478.644C478.644 470.082 479.984 468.707 482.087 468.707C484.057 468.707 485.566 469.914 485.566 471.83C485.566 473.508 484.581 474.75 482.478 477.049L476.478 483.616V485.213ZM497.289 485.462C500.751 485.462 503.289 482.906 503.289 479.427C503.289 475.904 500.839 473.321 497.502 473.321C496.278 473.321 495.089 473.756 494.343 474.351H494.237L494.876 468.991H502.472V467.038H493.03L491.929 475.984L493.988 476.232C494.742 475.691 496.029 475.3 497.147 475.309C499.464 475.327 501.159 477.084 501.159 479.463C501.159 481.797 499.526 483.51 497.289 483.51C495.426 483.51 493.944 482.311 493.775 480.67H491.645C491.778 483.439 494.166 485.462 497.289 485.462ZM516.079 481.806C516.079 483.793 517.322 485.462 519.629 485.462C521.901 485.462 523.144 483.793 523.144 481.806V480.847C523.144 478.859 521.937 477.191 519.629 477.191C517.357 477.191 516.079 478.859 516.079 480.847V481.806ZM507.027 471.404C507.027 473.392 508.27 475.061 510.577 475.061C512.849 475.061 514.091 473.392 514.091 471.404V470.446C514.091 468.458 512.884 466.79 510.577 466.79C508.305 466.79 507.027 468.458 507.027 470.446V471.404ZM507.702 485.213H509.725L522.221 467.038H520.197L507.702 485.213ZM517.89 480.847C517.89 479.747 518.387 478.717 519.629 478.717C520.907 478.717 521.333 479.747 521.333 480.847V481.806C521.333 482.906 520.872 483.935 519.629 483.935C518.351 483.935 517.89 482.906 517.89 481.806V480.847ZM508.838 470.446C508.838 469.346 509.335 468.316 510.577 468.316C511.855 468.316 512.281 469.346 512.281 470.446V471.404C512.281 472.505 511.819 473.534 510.577 473.534C509.299 473.534 508.838 472.505 508.838 471.404V470.446Z" fill="black"/>
<path d="M551.009 485.462C554.47 485.462 557.008 482.906 557.008 479.427C557.008 475.904 554.559 473.321 551.222 473.321C549.997 473.321 548.808 473.756 548.063 474.351H547.956L548.595 468.991H556.192V467.038H546.749L545.649 475.984L547.708 476.232C548.462 475.691 549.749 475.3 550.867 475.309C553.183 475.327 554.878 477.084 554.878 479.463C554.878 481.797 553.245 483.51 551.009 483.51C549.145 483.51 547.663 482.311 547.495 480.67H545.365C545.498 483.439 547.885 485.462 551.009 485.462ZM566.462 485.462C570.473 485.462 572.781 482.063 572.781 476.126C572.781 470.233 570.438 466.79 566.462 466.79C562.486 466.79 560.143 470.233 560.143 476.126C560.143 482.063 562.451 485.462 566.462 485.462ZM566.462 483.51C563.817 483.51 562.273 480.856 562.273 476.126C562.273 471.404 563.835 468.707 566.462 468.707C569.089 468.707 570.651 471.404 570.651 476.126C570.651 480.856 569.107 483.51 566.462 483.51ZM585.418 481.806C585.418 483.793 586.661 485.462 588.968 485.462C591.24 485.462 592.482 483.793 592.482 481.806V480.847C592.482 478.859 591.276 477.191 588.968 477.191C586.696 477.191 585.418 478.859 585.418 480.847V481.806ZM576.366 471.404C576.366 473.392 577.609 475.061 579.916 475.061C582.188 475.061 583.43 473.392 583.43 471.404V470.446C583.43 468.458 582.223 466.79 579.916 466.79C577.644 466.79 576.366 468.458 576.366 470.446V471.404ZM577.041 485.213H579.064L591.56 467.038H589.536L577.041 485.213ZM587.229 480.847C587.229 479.747 587.726 478.717 588.968 478.717C590.246 478.717 590.672 479.747 590.672 480.847V481.806C590.672 482.906 590.211 483.935 588.968 483.935C587.69 483.935 587.229 482.906 587.229 481.806V480.847ZM578.177 470.446C578.177 469.346 578.674 468.316 579.916 468.316C581.194 468.316 581.62 469.346 581.62 470.446V471.404C581.62 472.505 581.158 473.534 579.916 473.534C578.638 473.534 578.177 472.505 578.177 471.404V470.446Z" fill="black"/>
<path d="M615.499 467.038V485.213H617.558V471.404H617.736L623.415 485.213H625.403L631.083 471.404H631.261V485.213H633.32V467.038H630.693L624.516 482.125H624.303L618.126 467.038H615.499ZM641.46 485.533C643.838 485.533 645.081 484.255 645.507 483.368H645.613V485.213H647.708V476.232C647.708 471.901 644.406 471.404 642.667 471.404C640.608 471.404 638.265 472.114 637.2 474.599L639.188 475.309C639.649 474.315 640.741 473.25 642.738 473.25C644.664 473.25 645.613 474.271 645.613 476.019V476.09C645.613 477.102 644.584 477.013 642.099 477.333C639.57 477.661 636.81 478.22 636.81 481.344C636.81 484.006 638.868 485.533 641.46 485.533ZM641.779 483.651C640.111 483.651 638.904 482.906 638.904 481.451C638.904 479.853 640.359 479.356 641.992 479.143C642.88 479.037 645.258 478.788 645.613 478.362V480.279C645.613 481.983 644.264 483.651 641.779 483.651ZM653.092 471.582H650.678L655.009 478.398L650.678 485.213H653.092L656.358 479.924L659.624 485.213H662.038L657.636 478.398L662.038 471.582H659.624L656.358 477.155L653.092 471.582Z" fill="black"/>
<rect x="373.937" y="426.975" width="324.17" height="97.4776" rx="8.03284" stroke="#2DC295" stroke-width="1.78507"/>
<rect x="1" y="1" width="798" height="798" stroke="black" stroke-width="2"/>
</svg>
