<svg fill="none" height="800" viewBox="0 0 800 800" width="800" xmlns="http://www.w3.org/2000/svg"><path d="m1 1h798v798h-798z" fill="#92fada"/><rect fill="#fff" height="123.17" rx="8.03284" width="596.215" x="101.893" y="274.893"/><path d="m441.728 321.487h2.358v-8.71h10.384v8.71h2.358v-19.474h-2.358v8.672h-10.384v-8.672h-2.358zm23.814.342c2.549 0 3.88-1.369 4.336-2.32h.114v1.978h2.244v-9.623c0-4.64-3.537-5.173-5.4-5.173-2.206 0-4.717.761-5.858 3.423l2.13.761c.495-1.065 1.664-2.206 3.804-2.206 2.063 0 3.08 1.094 3.08 2.967v.076c0 1.084-1.103.989-3.765 1.331-2.71.352-5.667.951-5.667 4.298 0 2.852 2.206 4.488 4.982 4.488zm.343-2.016c-1.788 0-3.081-.799-3.081-2.358 0-1.712 1.559-2.244 3.309-2.472.951-.114 3.499-.381 3.879-.837v2.054c0 1.825-1.445 3.613-4.107 3.613zm10.447 1.674h2.244v-14.606h-2.244zm1.141-17.04c.875 0 1.598-.684 1.598-1.521s-.723-1.522-1.598-1.522c-.874 0-1.597.685-1.597 1.522s.723 1.521 1.597 1.521zm11.565 2.434h-3.119v-3.499h-2.244v3.499h-2.206v1.902h2.206v9.128c0 2.549 2.054 3.766 3.956 3.766.837 0 1.369-.152 1.673-.266l-.456-2.016c-.19.038-.495.114-.989.114-.989 0-1.94-.304-1.94-2.206v-8.52h3.119zm3.376 14.606h2.244v-14.606h-2.244zm1.141-17.04c.874 0 1.597-.684 1.597-1.521s-.723-1.522-1.597-1.522c-.875 0-1.598.685-1.598 1.522s.723 1.521 1.598 1.521zm9.511 17.382c2.548 0 3.879-1.369 4.336-2.32h.114v1.978h2.244v-9.623c0-4.64-3.538-5.173-5.401-5.173-2.206 0-4.716.761-5.857 3.423l2.129.761c.495-1.065 1.664-2.206 3.804-2.206 2.063 0 3.081 1.094 3.081 2.967v.076c0 1.084-1.103.989-3.766 1.331-2.71.352-5.667.951-5.667 4.298 0 2.852 2.206 4.488 4.983 4.488zm.342-2.016c-1.788 0-3.081-.799-3.081-2.358 0-1.712 1.56-2.244 3.309-2.472.951-.114 3.499-.381 3.88-.837v2.054c0 1.825-1.446 3.613-4.108 3.613zm12.691-7.112c0-2.549 1.579-3.994 3.728-3.994 2.082 0 3.347 1.36 3.347 3.651v9.129h2.244v-9.281c0-3.727-1.987-5.515-4.945-5.515-2.206 0-3.575.989-4.259 2.472h-.191v-2.282h-2.168v14.606h2.244zm34.566-4.602h2.435c-.723-3.766-3.88-6.352-7.988-6.352-4.992 0-8.519 3.841-8.519 10.003 0 6.161 3.499 10.003 8.672 10.003 4.64 0 7.949-3.09 7.949-7.911v-2.092h-7.417v2.092h5.135c-.067 3.499-2.368 5.705-5.667 5.705-3.614 0-6.39-2.739-6.39-7.797 0-5.059 2.776-7.797 6.237-7.797 2.815 0 4.726 1.588 5.553 4.146zm12.217 13.692c3.955 0 6.618-3.005 6.618-7.531 0-4.564-2.663-7.569-6.618-7.569-3.956 0-6.618 3.005-6.618 7.569 0 4.526 2.662 7.531 6.618 7.531zm0-2.016c-3.005 0-4.374-2.586-4.374-5.515s1.369-5.553 4.374-5.553c3.004 0 4.374 2.624 4.374 5.553s-1.37 5.515-4.374 5.515zm19.247-4.26c0 2.739-2.092 3.994-3.765 3.994-1.864 0-3.195-1.369-3.195-3.499v-9.129h-2.244v9.281c0 3.727 1.978 5.515 4.716 5.515 2.206 0 3.652-1.179 4.336-2.663h.152v2.473h2.244v-14.606h-2.244zm6.354 5.972h2.244v-9.243c0-1.978 1.56-3.423 3.69-3.423.599 0 1.217.114 1.369.152v-2.282c-.257-.019-.846-.038-1.179-.038-1.75 0-3.271.989-3.803 2.434h-.153v-2.206h-2.168zm15.033.304c2.815 0 3.766-1.75 4.26-2.548h.267v2.244h2.168v-19.474h-2.245v7.189h-.19c-.494-.761-1.369-2.511-4.221-2.511-3.69 0-6.238 2.929-6.238 7.531 0 4.64 2.548 7.569 6.199 7.569zm.305-2.016c-2.815 0-4.26-2.472-4.26-5.591 0-3.081 1.407-5.477 4.26-5.477 2.738 0 4.184 2.206 4.184 5.477 0 3.309-1.484 5.591-4.184 5.591zm16.935 2.016c2.966 0 5.134-1.483 5.819-3.689l-2.168-.609c-.571 1.521-1.892 2.282-3.651 2.282-2.634 0-4.451-1.702-4.555-4.83h10.602v-.951c0-5.439-3.233-7.303-6.276-7.303-3.955 0-6.58 3.119-6.58 7.607s2.587 7.493 6.809 7.493zm-4.555-8.786c.152-2.273 1.759-4.298 4.326-4.298 2.434 0 3.994 1.826 3.994 4.298z" fill="#000"/><path d="m661.361 307.024-8.925 8.925-8.926-8.925" stroke="#000" stroke-linecap="round" stroke-linejoin="round" stroke-width="1.78507"/><path d="m449.776 368.731c5.158 0 8.124-4.37 8.124-12.003 0-7.577-3.012-12.004-8.124-12.004s-8.124 4.427-8.124 12.004c0 7.633 2.967 12.003 8.124 12.003zm0-2.51c-1.209 0-2.248-.433-3.069-1.266l7.291-14.777c.753 1.609 1.164 3.811 1.164 6.55 0 6.081-1.985 9.493-5.386 9.493zm-4.244-3.001c-.742-1.586-1.141-3.765-1.141-6.492 0-6.07 2.008-9.539 5.385-9.539 1.187 0 2.214.433 3.035 1.255zm19.069 5.374c1.13 0 2.054-.924 2.054-2.053 0-1.13-.924-2.054-2.054-2.054s-2.054.924-2.054 2.054c0 1.129.924 2.053 2.054 2.053zm14.828.137c5.157 0 8.124-4.37 8.124-12.003 0-7.577-3.012-12.004-8.124-12.004s-8.124 4.427-8.124 12.004c0 7.633 2.966 12.003 8.124 12.003zm0-2.51c-1.21 0-2.248-.433-3.07-1.266l7.292-14.777c.753 1.609 1.163 3.811 1.163 6.55 0 6.081-1.985 9.493-5.385 9.493zm-4.245-3.001c-.742-1.586-1.141-3.765-1.141-6.492 0-6.07 2.008-9.539 5.386-9.539 1.186 0 2.213.433 3.035 1.255zm25.049 5.511c5.157 0 8.124-4.37 8.124-12.003 0-7.577-3.013-12.004-8.124-12.004-5.112 0-8.125 4.427-8.125 12.004 0 7.633 2.967 12.003 8.125 12.003zm0-2.51c-1.21 0-2.248-.433-3.07-1.266l7.291-14.777c.753 1.609 1.164 3.811 1.164 6.55 0 6.081-1.985 9.493-5.385 9.493zm-4.245-3.001c-.742-1.586-1.141-3.765-1.141-6.492 0-6.07 2.008-9.539 5.386-9.539 1.186 0 2.213.433 3.035 1.255z" fill="#bbb"/><path d="m372.928 336.646-7.224-7.226 7.225-7.225m13.967 7.225h-20.862" stroke="#000" stroke-linecap="round" stroke-linejoin="round" stroke-miterlimit="10" stroke-width="1.78507"/><path d="m379.672 338.092 7.224 7.226-7.225 7.225m-13.967-7.225h20.862" stroke="#000" stroke-linecap="round" stroke-linejoin="round" stroke-miterlimit="10" stroke-width="1.78507"/><path d="m139.06 322.557h7.036c4.602 0 6.504-2.244 6.504-5.173 0-3.081-2.13-4.754-3.918-4.868v-.191c1.674-.456 3.157-1.559 3.157-4.069 0-2.853-1.902-5.173-5.971-5.173h-6.808zm2.358-2.092v-6.77h4.792c2.548 0 4.146 1.711 4.146 3.689 0 1.712-1.179 3.081-4.26 3.081zm0-8.824v-6.466h4.45c2.586 0 3.727 1.369 3.727 3.081 0 2.054-1.673 3.385-3.803 3.385zm14.752 10.916h2.244v-14.605h-2.244zm1.141-17.04c.875 0 1.598-.684 1.598-1.521s-.723-1.521-1.598-1.521-1.597.684-1.597 1.521.722 1.521 1.597 1.521zm11.565 2.435h-3.119v-3.5h-2.244v3.5h-2.206v1.901h2.206v9.128c0 2.549 2.054 3.766 3.956 3.766.837 0 1.369-.152 1.673-.266l-.456-2.016c-.19.038-.495.114-.989.114-.989 0-1.94-.304-1.94-2.206v-8.52h3.119zm9.152 14.909c3.233 0 5.363-1.978 5.743-4.564h-2.244c-.418 1.597-1.749 2.548-3.499 2.548-2.662 0-4.374-2.206-4.374-5.591 0-3.309 1.75-5.477 4.374-5.477 1.978 0 3.157 1.217 3.499 2.548h2.244c-.38-2.738-2.7-4.564-5.781-4.564-3.956 0-6.58 3.119-6.58 7.569 0 4.374 2.51 7.531 6.618 7.531zm14.957 0c3.956 0 6.618-3.005 6.618-7.531 0-4.564-2.662-7.569-6.618-7.569s-6.618 3.005-6.618 7.569c0 4.526 2.662 7.531 6.618 7.531zm0-2.016c-3.005 0-4.374-2.586-4.374-5.515 0-2.928 1.369-5.553 4.374-5.553s4.374 2.625 4.374 5.553c0 2.929-1.369 5.515-4.374 5.515zm10.043 1.712h2.244v-14.605h-2.244zm1.141-17.04c.875 0 1.598-.684 1.598-1.521s-.723-1.521-1.598-1.521c-.874 0-1.597.684-1.597 1.521s.723 1.521 1.597 1.521zm7.458 8.254c0-2.549 1.578-3.994 3.727-3.994 2.082 0 3.347 1.36 3.347 3.651v9.129h2.244v-9.281c0-3.727-1.987-5.515-4.945-5.515-2.206 0-3.575.989-4.259 2.473h-.191v-2.282h-2.167v14.605h2.244z" fill="#000"/><path d="m249.372 308.052-8.925 8.926-8.925-8.926" stroke="#000" stroke-linecap="round" stroke-linejoin="round" stroke-width="1.78507"/><path d="m147.108 369.718c5.157 0 8.124-4.37 8.124-12.004 0-7.576-3.013-12.003-8.124-12.003-5.112 0-8.125 4.427-8.125 12.003 0 7.634 2.967 12.004 8.125 12.004zm0-2.51c-1.21 0-2.248-.434-3.07-1.267l7.291-14.776c.753 1.609 1.164 3.811 1.164 6.549 0 6.082-1.985 9.494-5.385 9.494zm-4.245-3.001c-.742-1.586-1.141-3.766-1.141-6.493 0-6.07 2.008-9.539 5.386-9.539 1.186 0 2.213.434 3.035 1.256zm19.069 5.374c1.13 0 2.054-.924 2.054-2.054 0-1.129-.924-2.054-2.054-2.054-1.129 0-2.053.925-2.053 2.054 0 1.13.924 2.054 2.053 2.054zm14.828.137c5.157 0 8.124-4.37 8.124-12.004 0-7.576-3.012-12.003-8.124-12.003s-8.124 4.427-8.124 12.003c0 7.634 2.967 12.004 8.124 12.004zm0-2.51c-1.209 0-2.248-.434-3.069-1.267l7.291-14.776c.753 1.609 1.164 3.811 1.164 6.549 0 6.082-1.986 9.494-5.386 9.494zm-4.245-3.001c-.741-1.586-1.141-3.766-1.141-6.493 0-6.07 2.009-9.539 5.386-9.539 1.187 0 2.214.434 3.035 1.256zm25.049 5.511c5.157 0 8.124-4.37 8.124-12.004 0-7.576-3.012-12.003-8.124-12.003s-8.124 4.427-8.124 12.003c0 7.634 2.966 12.004 8.124 12.004zm0-2.51c-1.21 0-2.248-.434-3.07-1.267l7.292-14.776c.753 1.609 1.163 3.811 1.163 6.549 0 6.082-1.985 9.494-5.385 9.494zm-4.245-3.001c-.741-1.586-1.141-3.766-1.141-6.493 0-6.07 2.008-9.539 5.386-9.539 1.187 0 2.213.434 3.035 1.256z" fill="#bbb"/><rect height="123.17" rx="8.03284" stroke="#2dc295" stroke-width="1.78507" width="596.215" x="101.893" y="274.893"/><path d="m101.595 446.183 6.593 11.04v7.135h2.734v-7.135l6.594-11.04h-3.115l-4.748 8.262h-.195l-4.748-8.262zm21.818 18.45c3.843 0 6.354-2.813 6.354-7.028 0-4.242-2.511-7.056-6.354-7.056s-6.354 2.814-6.354 7.056c0 4.215 2.511 7.028 6.354 7.028zm.009-2.227c-2.512 0-3.683-2.192-3.683-4.81 0-2.609 1.171-4.828 3.683-4.828 2.494 0 3.665 2.219 3.665 4.828 0 2.618-1.171 4.81-3.665 4.81zm17.942-3.701c.009 2.316-1.713 3.417-3.204 3.417-1.641 0-2.777-1.189-2.777-3.044v-8.351h-2.654v8.67c0 3.382 1.855 5.139 4.473 5.139 2.05 0 3.443-1.083 4.073-2.538h.142v2.36h2.61v-13.631h-2.663zm6.228 5.653h2.653v-8.324c0-1.784 1.376-3.071 3.257-3.071.551 0 1.172.098 1.385.16v-2.538c-.266-.036-.79-.062-1.127-.062-1.598 0-2.964.905-3.461 2.369h-.142v-2.165h-2.565zm16.418 0h2.591v-2.121h.222c.48.87 1.456 2.387 3.941 2.387 3.301 0 5.697-2.644 5.697-7.055 0-4.419-2.431-7.02-5.724-7.02-2.529 0-3.443 1.544-3.914 2.388h-.159v-6.754h-2.654zm2.6-6.816c0-2.848 1.243-4.739 3.559-4.739 2.405 0 3.612 2.033 3.612 4.739 0 2.734-1.242 4.819-3.612 4.819-2.281 0-3.559-1.952-3.559-4.819zm16.798 7.118c2.254 0 3.523-1.145 4.029-2.165h.106v1.863h2.592v-9.052c0-3.967-3.124-4.757-5.289-4.757-2.468 0-4.739.994-5.627 3.479l2.494.568c.39-.967 1.384-1.899 3.168-1.899 1.713 0 2.591.896 2.591 2.44v.063c0 .967-.993.949-3.443 1.233-2.582.302-5.227.976-5.227 4.074 0 2.68 2.014 4.153 4.606 4.153zm.577-2.13c-1.5 0-2.583-.674-2.583-1.988 0-1.42 1.26-1.926 2.796-2.13.861-.115 2.902-.346 3.283-.728v1.758c0 1.615-1.286 3.088-3.496 3.088zm12.338-16.347h-2.654v18.175h2.654zm7.537 18.477c2.254 0 3.523-1.145 4.029-2.165h.106v1.863h2.592v-9.052c0-3.967-3.124-4.757-5.29-4.757-2.467 0-4.739.994-5.626 3.479l2.493.568c.391-.967 1.385-1.899 3.169-1.899 1.713 0 2.591.896 2.591 2.44v.063c0 .967-.994.949-3.443 1.233-2.583.302-5.227.976-5.227 4.074 0 2.68 2.014 4.153 4.606 4.153zm.576-2.13c-1.499 0-2.582-.674-2.582-1.988 0-1.42 1.26-1.926 2.795-2.13.861-.115 2.902-.346 3.284-.728v1.758c0 1.615-1.287 3.088-3.497 3.088zm12.338-6.265c0-2.175 1.332-3.417 3.178-3.417 1.801 0 2.893 1.18 2.893 3.159v8.351h2.653v-8.67c0-3.373-1.855-5.139-4.641-5.139-2.05 0-3.39.95-4.02 2.396h-.169v-2.218h-2.547v13.631h2.653zm18.025 8.368c3.221 0 5.307-1.934 5.6-4.588h-2.583c-.337 1.473-1.482 2.343-2.999 2.343-2.246 0-3.692-1.873-3.692-4.846 0-2.919 1.473-4.756 3.692-4.756 1.686 0 2.715 1.065 2.999 2.343h2.583c-.284-2.752-2.53-4.58-5.627-4.58-3.843 0-6.327 2.893-6.327 7.056 0 4.109 2.396 7.028 6.354 7.028zm14.312 0c2.973 0 5.077-1.464 5.68-3.683l-2.511-.452c-.48 1.287-1.633 1.943-3.142 1.943-2.272 0-3.798-1.473-3.869-4.1h9.691v-.941c0-4.925-2.947-6.851-6.035-6.851-3.798 0-6.301 2.893-6.301 7.082 0 4.233 2.467 7.002 6.487 7.002zm-3.833-8.28c.106-1.934 1.508-3.612 3.665-3.612 2.059 0 3.408 1.527 3.417 3.612z" fill="#707070"/><path d="m109.076 503.585c4.198 0 6.656-3.425 6.656-9.38 0-5.911-2.494-9.345-6.656-9.345-4.171 0-6.656 3.425-6.665 9.345 0 5.946 2.458 9.371 6.665 9.38zm0-2.369c-2.458 0-3.94-2.467-3.94-7.011.008-4.526 1.491-7.02 3.94-7.02 2.44 0 3.931 2.494 3.931 7.02 0 4.544-1.482 7.011-3.931 7.011zm10.905 2.236c.967 0 1.775-.79 1.775-1.775 0-.967-.808-1.766-1.775-1.766-.977 0-1.775.799-1.775 1.766 0 .985.798 1.775 1.775 1.775zm5.293-.168h11.963v-2.352h-8.182v-.133l3.612-3.781c3.328-3.363 4.278-4.97 4.278-7.002 0-2.92-2.379-5.156-5.804-5.156-3.399 0-5.884 2.201-5.884 5.52h2.618c-.009-1.953 1.251-3.231 3.212-3.231 1.846 0 3.248 1.136 3.248 2.947 0 1.606-.958 2.76-2.91 4.828l-6.151 6.372zm21.326.248c3.657 0 6.266-2.582 6.257-6.123.009-3.515-2.441-6.071-5.751-6.071-1.349 0-2.6.515-3.31 1.207h-.107l.577-5.085h7.712v-2.352h-9.993l-1.02 9.159 2.511.373c.684-.613 1.908-1.03 3.009-1.03 2.156.018 3.718 1.633 3.718 3.852 0 2.183-1.517 3.763-3.603 3.763-1.757 0-3.15-1.119-3.292-2.68h-2.663c.107 2.893 2.618 4.987 5.955 4.987zm15.826.053c4.198 0 6.656-3.425 6.656-9.38 0-5.911-2.494-9.345-6.656-9.345-4.171 0-6.656 3.425-6.665 9.345 0 5.946 2.458 9.371 6.665 9.38zm0-2.369c-2.458 0-3.94-2.467-3.94-7.011.008-4.526 1.491-7.02 3.94-7.02 2.44 0 3.931 2.494 3.931 7.02 0 4.544-1.482 7.011-3.931 7.011zm16.132 2.369c4.198 0 6.656-3.425 6.656-9.38 0-5.911-2.494-9.345-6.656-9.345-4.171 0-6.656 3.425-6.665 9.345 0 5.946 2.458 9.371 6.665 9.38zm0-2.369c-2.458 0-3.94-2.467-3.94-7.011.008-4.526 1.49-7.02 3.94-7.02 2.44 0 3.931 2.494 3.931 7.02 0 4.544-1.482 7.011-3.931 7.011zm16.132 2.369c4.198 0 6.656-3.425 6.656-9.38 0-5.911-2.494-9.345-6.656-9.345-4.171 0-6.656 3.425-6.665 9.345 0 5.946 2.458 9.371 6.665 9.38zm0-2.369c-2.458 0-3.941-2.467-3.941-7.011.009-4.526 1.491-7.02 3.941-7.02 2.44 0 3.931 2.494 3.931 7.02 0 4.544-1.482 7.011-3.931 7.011zm16.132 2.369c4.197 0 6.656-3.425 6.656-9.38 0-5.911-2.494-9.345-6.656-9.345-4.171 0-6.656 3.425-6.665 9.345 0 5.946 2.458 9.371 6.665 9.38zm0-2.369c-2.459 0-3.941-2.467-3.941-7.011.009-4.526 1.491-7.02 3.941-7.02 2.44 0 3.931 2.494 3.931 7.02 0 4.544-1.482 7.011-3.931 7.011zm16.132 2.369c4.197 0 6.656-3.425 6.656-9.38 0-5.911-2.494-9.345-6.656-9.345-4.171 0-6.656 3.425-6.665 9.345 0 5.946 2.458 9.371 6.665 9.38zm0-2.369c-2.459 0-3.941-2.467-3.941-7.011.009-4.526 1.491-7.02 3.941-7.02 2.44 0 3.931 2.494 3.931 7.02 0 4.544-1.482 7.011-3.931 7.011zm16.132 2.369c4.197 0 6.656-3.425 6.656-9.38 0-5.911-2.494-9.345-6.656-9.345-4.172 0-6.656 3.425-6.665 9.345 0 5.946 2.458 9.371 6.665 9.38zm0-2.369c-2.459 0-3.941-2.467-3.941-7.011.009-4.526 1.491-7.02 3.941-7.02 2.44 0 3.931 2.494 3.931 7.02 0 4.544-1.482 7.011-3.931 7.011zm16.666 2.068h6.967c4.224 0 6.132-2.104 6.132-4.89 0-2.814-1.97-4.402-3.772-4.5v-.177c1.669-.426 3.062-1.562 3.062-3.834 0-2.689-1.863-4.775-5.733-4.775h-6.656zm2.742-2.352v-5.822h4.056c2.201 0 3.577 1.42 3.577 3.151 0 1.526-1.039 2.671-3.674 2.671zm0-7.961v-5.529h3.746c2.174 0 3.212 1.145 3.212 2.654 0 1.757-1.438 2.875-3.283 2.875zm12.713-5.502h5.662v15.815h2.734v-15.815h5.671v-2.361h-14.067zm31.514 3.55c-.621-3.887-3.665-6.159-7.508-6.159-4.703 0-8.173 3.523-8.173 9.336s3.452 9.336 8.173 9.336c3.994 0 6.914-2.503 7.508-6.097l-2.769-.009c-.47 2.325-2.422 3.603-4.721 3.603-3.115 0-5.467-2.387-5.467-6.833 0-4.411 2.343-6.834 5.476-6.834 2.316 0 4.26 1.305 4.712 3.657z" fill="#000"/><rect fill="#fff" height="97.4776" rx="8.03284" width="324.17" x="373.937" y="426.975"/><g fill="#000"><path d="m417.017 467.038h-2.201l-4.543 3.018v2.236l4.437-2.946h.106v15.867h2.201zm11.156 18.424c4.011 0 6.318-3.399 6.318-9.336 0-5.893-2.342-9.336-6.318-9.336s-6.319 3.443-6.319 9.336c0 5.937 2.307 9.336 6.319 9.336zm0-1.952c-2.645 0-4.189-2.654-4.189-7.384 0-4.722 1.562-7.419 4.189-7.419s4.189 2.697 4.189 7.419c0 4.73-1.545 7.384-4.189 7.384zm18.956-1.704c0 1.987 1.242 3.656 3.55 3.656 2.272 0 3.514-1.669 3.514-3.656v-.959c0-1.988-1.207-3.656-3.514-3.656-2.272 0-3.55 1.668-3.55 3.656zm-9.052-10.402c0 1.988 1.242 3.657 3.55 3.657 2.272 0 3.514-1.669 3.514-3.657v-.958c0-1.988-1.207-3.656-3.514-3.656-2.272 0-3.55 1.668-3.55 3.656zm.674 13.809h2.024l12.495-18.175h-2.023zm10.188-4.366c0-1.1.497-2.13 1.74-2.13 1.278 0 1.704 1.03 1.704 2.13v.959c0 1.1-.462 2.129-1.704 2.129-1.278 0-1.74-1.029-1.74-2.129zm-9.052-10.401c0-1.1.497-2.13 1.74-2.13 1.278 0 1.704 1.03 1.704 2.13v.958c0 1.101-.462 2.13-1.704 2.13-1.278 0-1.74-1.029-1.74-2.13z"/><path d="m476.478 485.213h11.466v-1.952h-8.448v-.142l4.082-4.366c3.124-3.346 4.047-4.908 4.047-6.923 0-2.804-2.272-5.04-5.467-5.04-3.186 0-5.609 2.165-5.609 5.36h2.095c0-2.068 1.34-3.443 3.443-3.443 1.97 0 3.479 1.207 3.479 3.123 0 1.678-.985 2.92-3.088 5.219l-6 6.567zm20.811.249c3.462 0 6-2.556 6-6.035 0-3.523-2.45-6.106-5.787-6.106-1.224 0-2.413.435-3.159 1.03h-.106l.639-5.36h7.596v-1.953h-9.442l-1.101 8.946 2.059.248c.754-.541 2.041-.932 3.159-.923 2.317.018 4.012 1.775 4.012 4.154 0 2.334-1.633 4.047-3.87 4.047-1.863 0-3.345-1.199-3.514-2.84h-2.13c.133 2.769 2.521 4.792 5.644 4.792zm18.79-3.656c0 1.987 1.243 3.656 3.55 3.656 2.272 0 3.515-1.669 3.515-3.656v-.959c0-1.988-1.207-3.656-3.515-3.656-2.272 0-3.55 1.668-3.55 3.656zm-9.052-10.402c0 1.988 1.243 3.657 3.55 3.657 2.272 0 3.514-1.669 3.514-3.657v-.958c0-1.988-1.207-3.656-3.514-3.656-2.272 0-3.55 1.668-3.55 3.656zm.675 13.809h2.023l12.496-18.175h-2.024zm10.188-4.366c0-1.1.497-2.13 1.739-2.13 1.278 0 1.704 1.03 1.704 2.13v.959c0 1.1-.461 2.129-1.704 2.129-1.278 0-1.739-1.029-1.739-2.129zm-9.052-10.401c0-1.1.497-2.13 1.739-2.13 1.278 0 1.704 1.03 1.704 2.13v.958c0 1.101-.462 2.13-1.704 2.13-1.278 0-1.739-1.029-1.739-2.13z"/><path d="m551.009 485.462c3.461 0 5.999-2.556 5.999-6.035 0-3.523-2.449-6.106-5.786-6.106-1.225 0-2.414.435-3.159 1.03h-.107l.639-5.36h7.597v-1.953h-9.443l-1.1 8.946 2.059.248c.754-.541 2.041-.932 3.159-.923 2.316.018 4.011 1.775 4.011 4.154 0 2.334-1.633 4.047-3.869 4.047-1.864 0-3.346-1.199-3.514-2.84h-2.13c.133 2.769 2.52 4.792 5.644 4.792zm15.453 0c4.011 0 6.319-3.399 6.319-9.336 0-5.893-2.343-9.336-6.319-9.336s-6.319 3.443-6.319 9.336c0 5.937 2.308 9.336 6.319 9.336zm0-1.952c-2.645 0-4.189-2.654-4.189-7.384 0-4.722 1.562-7.419 4.189-7.419s4.189 2.697 4.189 7.419c0 4.73-1.544 7.384-4.189 7.384zm18.956-1.704c0 1.987 1.243 3.656 3.55 3.656 2.272 0 3.514-1.669 3.514-3.656v-.959c0-1.988-1.206-3.656-3.514-3.656-2.272 0-3.55 1.668-3.55 3.656zm-9.052-10.402c0 1.988 1.243 3.657 3.55 3.657 2.272 0 3.514-1.669 3.514-3.657v-.958c0-1.988-1.207-3.656-3.514-3.656-2.272 0-3.55 1.668-3.55 3.656zm.675 13.809h2.023l12.496-18.175h-2.024zm10.188-4.366c0-1.1.497-2.13 1.739-2.13 1.278 0 1.704 1.03 1.704 2.13v.959c0 1.1-.461 2.129-1.704 2.129-1.278 0-1.739-1.029-1.739-2.129zm-9.052-10.401c0-1.1.497-2.13 1.739-2.13 1.278 0 1.704 1.03 1.704 2.13v.958c0 1.101-.462 2.13-1.704 2.13-1.278 0-1.739-1.029-1.739-2.13z"/><path d="m615.499 467.038v18.175h2.059v-13.809h.178l5.679 13.809h1.988l5.68-13.809h.178v13.809h2.059v-18.175h-2.627l-6.177 15.087h-.213l-6.177-15.087zm25.961 18.495c2.378 0 3.621-1.278 4.047-2.165h.106v1.845h2.095v-8.981c0-4.331-3.302-4.828-5.041-4.828-2.059 0-4.402.71-5.467 3.195l1.988.71c.461-.994 1.553-2.059 3.55-2.059 1.926 0 2.875 1.021 2.875 2.769v.071c0 1.012-1.029.923-3.514 1.243-2.529.328-5.289.887-5.289 4.011 0 2.662 2.058 4.189 4.65 4.189zm.319-1.882c-1.668 0-2.875-.745-2.875-2.2 0-1.598 1.455-2.095 3.088-2.308.888-.106 3.266-.355 3.621-.781v1.917c0 1.704-1.349 3.372-3.834 3.372zm11.313-12.069h-2.414l4.331 6.816-4.331 6.815h2.414l3.266-5.289 3.266 5.289h2.414l-4.402-6.815 4.402-6.816h-2.414l-3.266 5.573z"/></g><rect height="97.4776" rx="8.03284" stroke="#2dc295" stroke-width="1.78507" width="324.17" x="373.937" y="426.975"/><path d="m1 1h798v798h-798z" stroke="#000" stroke-width="2"/></svg>