<svg fill="none" height="400" viewBox="0 0 400 400" width="400" xmlns="http://www.w3.org/2000/svg" xmlns:xlink="http://www.w3.org/1999/xlink"><mask id="a" fill="#fff"><rect fill="#fff" height="6" rx="1" width="6" x="298" y="191"/></mask><mask id="b" fill="#fff"><rect fill="#fff" height="6" rx="1" width="6" x="298" y="203"/></mask><mask id="c" fill="#fff"><rect fill="#fff" height="6" rx="1" width="6" x="310" y="191"/></mask><path d="m.5.5h399v399h-399z" fill="#bdb6d4"/><rect fill="#fff" height="55" rx="4.5" width="334" x="32.5" y="172.5"/><path d="m59.625 195.273h-4.4688v3.602h3.9376v1.258h-3.9376v3.594h4.4688v1.273h-5.8984v-11h5.8984zm5.9531 1.899c.8073 0 1.4505.232 1.9297.695.4844.464.7266 1.117.7266 1.961v5.172h-1.3516v-4.867c0-.62-.1562-1.078-.4687-1.375s-.7136-.446-1.2032-.446c-.5573 0-1.013.178-1.3671.532-.3542.349-.5339.87-.5391 1.562v4.594h-1.3516v-7.68h1.3516v.985c.5104-.756 1.2682-1.133 2.2734-1.133zm7.7188 7.828c-.6354 0-1.1354-.182-1.5-.547-.3646-.37-.5469-.883-.5469-1.539v-4.516h-1.5703v-1.078h.5781c.4011 0 .6823-.088.8438-.265.1666-.183.25-.485.25-.907v-1.39h1.2578v2.562h1.7656v1.078h-1.7656v4.375c0 .365.0963.649.289.852.198.198.4558.297.7735.297h.7031v1.078zm9.6562-3.992-.0156.367h-6c.0208.854.2656 1.51.7344 1.969.4687.453 1.0521.679 1.75.679.4687 0 .8932-.122 1.2734-.367s.6719-.583.875-1.015l1.2188.257c-.2761.698-.7136 1.248-1.3125 1.649-.599.401-1.2787.601-2.0391.601-1.1406 0-2.0625-.356-2.7656-1.07-.7031-.713-1.0547-1.687-1.0547-2.922 0-1.229.3516-2.2 1.0547-2.914.7083-.713 1.6172-1.07 2.7265-1.07 1.073 0 1.9323.328 2.5782.984.651.656.9765 1.607.9765 2.852zm-3.5547-2.797c-.6354 0-1.1692.182-1.6015.547-.4271.359-.6953.885-.8047 1.578h4.6016c-.0521-.693-.2761-1.219-.6719-1.578-.3959-.365-.9037-.547-1.5235-.547zm7 .461c.1927-.422.5105-.766.9532-1.031.4427-.266.9349-.401 1.4765-.407v1.274c-.7812 0-1.3776.19-1.789.57-.4063.38-.6094.987-.6094 1.82v4.102h-1.3516v-7.68h1.3203zm9.5 0c.1927-.422.5105-.766.9532-1.031.4427-.266.9349-.401 1.4765-.407v1.274c-.7812 0-1.3776.19-1.789.57-.4063.38-.6094.987-.6094 1.82v4.102h-1.3516v-7.68h1.3203zm10.6486 2.336-.016.367h-6c.021.854.266 1.51.735 1.969.468.453 1.052.679 1.75.679.468 0 .893-.122 1.273-.367s.672-.583.875-1.015l1.219.257c-.276.698-.714 1.248-1.313 1.649s-1.278.601-2.039.601c-1.14 0-2.062-.356-2.765-1.07-.7035-.713-1.0551-1.687-1.0551-2.922 0-1.229.3516-2.2 1.0551-2.914.708-.713 1.617-1.07 2.726-1.07 1.073 0 1.932.328 2.578.984.651.656.977 1.607.977 2.852zm-3.555-2.797c-.635 0-1.169.182-1.601.547-.427.359-.696.885-.805 1.578h4.602c-.053-.693-.277-1.219-.672-1.578-.396-.365-.904-.547-1.524-.547zm8.867 6.93c-1.109 0-2.026-.368-2.75-1.102s-1.086-1.695-1.086-2.883c0-1.187.36-2.148 1.079-2.883.724-.734 1.643-1.101 2.757-1.101.855 0 1.594.224 2.219.672.63.448 1.063 1.07 1.297 1.867l-1.266.203c-.177-.516-.466-.914-.867-1.195s-.864-.422-1.39-.422c-.719 0-1.313.263-1.782.789-.463.526-.695 1.216-.695 2.07s.232 1.545.695 2.071c.469.52 1.063.781 1.782.781.526 0 .989-.141 1.39-.422s.69-.68.867-1.195l1.266.211c-.234.791-.669 1.414-1.305 1.867-.63.448-1.367.672-2.211.672zm6.203-9.625c-.25 0-.466-.089-.648-.266-.177-.182-.266-.398-.266-.648s.089-.464.266-.641c.182-.177.398-.266.648-.266.245 0 .456.089.633.266.183.177.274.391.274.641s-.091.466-.274.648c-.177.177-.388.266-.633.266zm-.687 9.484v-7.68h1.359v7.68zm8.164-7.828c.49 0 .953.094 1.391.281.437.188.817.451 1.14.789.323.339.578.761.766 1.266.193.505.289 1.057.289 1.656 0 1.198-.346 2.164-1.039 2.898-.688.735-1.537 1.102-2.547 1.102-.588 0-1.125-.146-1.609-.437-.479-.292-.844-.685-1.094-1.18v5.32h-1.352v-11.547h1.305l.031 1.492c.245-.505.61-.903 1.094-1.195.484-.297 1.026-.445 1.625-.445zm-.266 6.82c.704 0 1.295-.258 1.774-.773.484-.521.726-1.206.726-2.055s-.242-1.531-.726-2.047c-.479-.515-1.07-.773-1.774-.773-.713 0-1.315.271-1.804.812-.49.537-.735 1.206-.735 2.008 0 .807.245 1.482.735 2.024.489.536 1.091.804 1.804.804zm6.68-8.476c-.25 0-.466-.089-.648-.266-.177-.182-.266-.398-.266-.648s.089-.464.266-.641c.182-.177.398-.266.648-.266.245 0 .456.089.633.266.182.177.273.391.273.641s-.091.466-.273.648c-.177.177-.388.266-.633.266zm-.687 9.484v-7.68h1.359v7.68zm10.828-3.992-.016.367h-6c.021.854.266 1.51.734 1.969.469.453 1.053.679 1.75.679.469 0 .894-.122 1.274-.367s.672-.583.875-1.015l1.219.257c-.276.698-.714 1.248-1.313 1.649s-1.278.601-2.039.601c-1.14 0-2.062-.356-2.766-1.07-.703-.713-1.054-1.687-1.054-2.922 0-1.229.351-2.2 1.054-2.914.709-.713 1.618-1.07 2.727-1.07 1.073 0 1.932.328 2.578.984.651.656.977 1.607.977 2.852zm-3.555-2.797c-.635 0-1.169.182-1.601.547-.428.359-.696.885-.805 1.578h4.601c-.052-.693-.276-1.219-.672-1.578-.395-.365-.903-.547-1.523-.547zm9.305-1.039c.807 0 1.45.232 1.929.695.485.464.727 1.117.727 1.961v5.172h-1.352v-4.867c0-.62-.156-1.078-.468-1.375-.313-.297-.714-.446-1.203-.446-.558 0-1.013.178-1.368.532-.354.349-.533.87-.539 1.562v4.594h-1.351v-7.68h1.351v.985c.511-.756 1.269-1.133 2.274-1.133zm7.718 7.828c-.635 0-1.135-.182-1.5-.547-.364-.37-.546-.883-.546-1.539v-4.516h-1.571v-1.078h.578c.401 0 .683-.088.844-.265.167-.183.25-.485.25-.907v-1.39h1.258v2.562h1.766v1.078h-1.766v4.375c0 .365.096.649.289.852.198.198.456.297.774.297h.703v1.078zm3.618-5.961-.078-5.039h1.265l-.109 5.039zm6.859 6.109c-.828 0-1.518-.184-2.07-.554s-.888-.896-1.008-1.578l1.18-.336c.083.458.291.815.625 1.07.338.25.76.375 1.265.375.271 0 .516-.034.735-.102.224-.067.414-.192.57-.375.156-.187.232-.421.226-.703-.005-.114-.026-.218-.062-.312-.036-.099-.078-.185-.125-.258s-.12-.143-.219-.211-.187-.122-.265-.164c-.079-.042-.196-.089-.352-.141-.151-.057-.273-.099-.367-.125-.094-.031-.237-.073-.43-.125-.193-.057-.341-.101-.445-.132-.323-.099-.589-.193-.797-.282-.208-.088-.424-.211-.648-.367-.224-.161-.394-.364-.508-.609-.11-.245-.164-.531-.164-.86 0-.484.125-.893.375-1.226.25-.334.573-.573.968-.719.401-.151.857-.226 1.368-.226.739 0 1.362.166 1.867.5.51.333.823.833.937 1.5l-1.109.281c-.083-.433-.279-.755-.586-.969-.307-.219-.674-.328-1.102-.328-.401 0-.744.091-1.031.273-.286.177-.429.451-.429.821 0 .156.036.299.109.429.078.125.156.224.234.297s.219.151.422.235c.203.078.354.132.453.164.099.026.287.073.563.14.052.016.091.026.117.031.302.079.547.149.734.211.193.058.414.151.664.282.256.125.456.263.602.414s.271.349.375.593c.104.245.156.521.156.829 0 .39-.078.737-.234 1.039-.151.297-.36.531-.625.703-.266.172-.565.299-.899.383-.328.088-.685.132-1.07.132zm10.891 0c-.683 0-1.245-.174-1.688-.523-.437-.354-.656-.88-.656-1.578 0-.386.07-.719.211-1 .141-.287.349-.521.625-.703.276-.183.575-.326.898-.43.328-.109.719-.203 1.172-.281l1.242-.203c.454-.084.68-.321.68-.711 0-.521-.161-.901-.484-1.141-.318-.245-.722-.367-1.211-.367-.479 0-.88.117-1.203.351-.323.235-.513.594-.571 1.079l-1.218-.258c.114-.729.434-1.276.961-1.641.526-.37 1.223-.554 2.093-.554.407 0 .776.046 1.11.14.338.089.648.232.929.43.287.193.508.469.664.828.162.354.243.773.243 1.258v3.172c0 .395.057.664.171.804.12.136.323.203.61.203h.125v.977h-.672c-.828 0-1.313-.346-1.453-1.039h-.063c-.583.792-1.422 1.187-2.515 1.187zm.312-1.093c.682 0 1.232-.248 1.649-.743.416-.494.625-1.171.625-2.031l-2.032.391c-.536.088-.935.232-1.195.43-.255.192-.383.471-.383.836 0 .38.123.661.367.843.25.183.573.274.969.274zm11.82-11.055h1.352v12h-1.305l-.031-1.492c-.245.51-.609.914-1.094 1.211-.484.297-1.026.445-1.625.445-.489 0-.953-.094-1.39-.281-.438-.193-.821-.459-1.149-.797-.323-.344-.58-.768-.773-1.274-.188-.505-.281-1.054-.281-1.648 0-1.182.346-2.143 1.039-2.883.698-.739 1.549-1.109 2.554-1.109.589 0 1.123.146 1.602.437.484.287.851.677 1.101 1.172zm-2.421 10.992c.708 0 1.302-.268 1.781-.804.484-.542.726-1.217.726-2.024 0-.802-.242-1.474-.726-2.016-.484-.541-1.078-.812-1.781-.812-.714 0-1.313.263-1.797.789-.485.521-.727 1.201-.727 2.039 0 .839.242 1.521.727 2.047.484.521 1.083.781 1.797.781zm12.203-10.992h1.351v12h-1.304l-.032-1.492c-.244.51-.609.914-1.093 1.211-.485.297-1.026.445-1.625.445-.49 0-.953-.094-1.391-.281-.438-.193-.82-.459-1.148-.797-.323-.344-.581-.768-.774-1.274-.187-.505-.281-1.054-.281-1.648 0-1.182.346-2.143 1.039-2.883.698-.739 1.549-1.109 2.555-1.109.588 0 1.122.146 1.601.437.485.287.852.677 1.102 1.172zm-2.422 10.992c.708 0 1.302-.268 1.781-.804.485-.542.727-1.217.727-2.024 0-.802-.242-1.474-.727-2.016-.484-.541-1.078-.812-1.781-.812-.714 0-1.313.263-1.797.789-.484.521-.727 1.201-.727 2.039 0 .839.243 1.521.727 2.047.484.521 1.083.781 1.797.781zm7.851-5.32c.193-.422.511-.766.954-1.031.442-.266.934-.401 1.476-.407v1.274c-.781 0-1.377.19-1.789.57-.406.38-.609.987-.609 1.82v4.102h-1.352v-7.68h1.32zm10.649 2.336-.016.367h-6c.021.854.266 1.51.735 1.969.468.453 1.052.679 1.75.679.468 0 .893-.122 1.273-.367s.672-.583.875-1.015l1.219.257c-.276.698-.714 1.248-1.313 1.649s-1.278.601-2.039.601c-1.14 0-2.062-.356-2.765-1.07-.703-.713-1.055-1.687-1.055-2.922 0-1.229.352-2.2 1.055-2.914.708-.713 1.617-1.07 2.726-1.07 1.073 0 1.932.328 2.578.984.651.656.977 1.607.977 2.852zm-3.555-2.797c-.635 0-1.169.182-1.601.547-.427.359-.696.885-.805 1.578h4.601c-.052-.693-.276-1.219-.671-1.578-.396-.365-.904-.547-1.524-.547zm8.11 6.937c-.829 0-1.519-.184-2.071-.554s-.888-.896-1.008-1.578l1.18-.336c.083.458.292.815.625 1.07.339.25.761.375 1.266.375.271 0 .515-.034.734-.102.224-.067.414-.192.57-.375.157-.187.232-.421.227-.703-.005-.114-.026-.218-.062-.312-.037-.099-.079-.185-.126-.258-.046-.073-.119-.143-.218-.211s-.188-.122-.266-.164-.195-.089-.351-.141c-.151-.057-.274-.099-.368-.125-.093-.031-.237-.073-.429-.125-.193-.057-.341-.101-.446-.132-.323-.099-.588-.193-.796-.282-.209-.088-.425-.211-.649-.367-.224-.161-.393-.364-.508-.609-.109-.245-.164-.531-.164-.86 0-.484.125-.893.375-1.226.25-.334.573-.573.969-.719.401-.151.857-.226 1.367-.226.74 0 1.362.166 1.867.5.511.333.823.833.938 1.5l-1.11.281c-.083-.433-.278-.755-.585-.969-.308-.219-.675-.328-1.102-.328-.401 0-.745.091-1.031.273-.287.177-.43.451-.43.821 0 .156.036.299.109.429.078.125.157.224.235.297s.219.151.422.235c.203.078.354.132.453.164.099.026.286.073.562.14.052.016.091.026.117.031.303.079.547.149.735.211.193.058.414.151.664.282.255.125.456.263.601.414.146.151.271.349.375.593.105.245.157.521.157.829 0 .39-.078.737-.235 1.039-.151.297-.359.531-.625.703-.265.172-.565.299-.898.383-.328.088-.685.132-1.07.132zm7.39 0c-.828 0-1.518-.184-2.07-.554s-.888-.896-1.008-1.578l1.18-.336c.083.458.291.815.625 1.07.338.25.76.375 1.265.375.271 0 .516-.034.735-.102.224-.067.414-.192.57-.375.156-.187.232-.421.227-.703-.006-.114-.026-.218-.063-.312-.036-.099-.078-.185-.125-.258s-.12-.143-.219-.211-.187-.122-.265-.164-.196-.089-.352-.141c-.151-.057-.273-.099-.367-.125-.094-.031-.237-.073-.43-.125-.192-.057-.341-.101-.445-.132-.323-.099-.589-.193-.797-.282-.208-.088-.424-.211-.648-.367-.224-.161-.394-.364-.508-.609-.11-.245-.164-.531-.164-.86 0-.484.125-.893.375-1.226.25-.334.573-.573.969-.719.401-.151.856-.226 1.367-.226.739 0 1.362.166 1.867.5.51.333.823.833.937 1.5l-1.109.281c-.083-.433-.279-.755-.586-.969-.307-.219-.674-.328-1.101-.328-.401 0-.745.091-1.032.273-.286.177-.429.451-.429.821 0 .156.036.299.109.429.078.125.156.224.234.297.079.073.219.151.422.235.203.078.354.132.453.164.099.026.287.073.563.14.052.016.091.026.117.031.302.079.547.149.734.211.193.058.414.151.664.282.256.125.456.263.602.414s.271.349.375.593c.104.245.156.521.156.829 0 .39-.078.737-.234 1.039-.151.297-.359.531-.625.703s-.565.299-.898.383c-.329.088-.685.132-1.071.132z" fill="#000"/><g stroke="#000"><g fill="#000"><path d="m306.5 199.5h1v1h-1z"/><path d="m306.5 195.5h1v1h-1z"/><path d="m302.5 199.5h1v1h-1z"/><path d="m298.5 199.5h1v1h-1z"/><path d="m306.5 191.5h1v1h-1z"/><path d="m306.5 203.5h1v1h-1z"/><path d="m306.5 207.5h1v1h-1z"/><path d="m310.5 199.5h1v1h-1z"/><path d="m310.5 203.5h1v1h-1z"/><path d="m310.5 207.5h1v1h-1z"/><path d="m314.5 199.5h1v1h-1z"/><path d="m314.5 203.5h1v1h-1z"/><path d="m314.5 207.5h1v1h-1z"/></g><g stroke-width="4"><rect height="6" mask="url(#a)" rx="1" width="6" x="298" y="191"/><rect height="6" mask="url(#b)" rx="1" width="6" x="298" y="203"/><rect height="6" mask="url(#c)" rx="1" width="6" x="310" y="191"/></g></g><path d="m340.436 202.778c-.595-.25-1.336-.563-1.336-.803v-1.569c.868-.653 1.4-1.711 1.4-2.806v-2.1c0-1.93-1.57-3.5-3.5-3.5s-3.5 1.57-3.5 3.5v2.1c0 1.095.532 2.153 1.4 2.806v1.569c0 .226-.734.54-1.323.792-1.425.609-3.577 1.529-3.577 3.933v.35h14v-.35c0-2.42-2.144-3.324-3.564-3.922z" fill="#000"/><rect height="55" rx="4.5" stroke="#5e5480" width="334" x="32.5" y="172.5"/><path d="m32 253.549c0-2.762 2.2386-5 5-5h12.25 5.5625 5.5625 5.5625 1.1811c1.0408 0 2.0556-.325 2.903-.929l6.4784-4.62 6.4784 4.62c.8474.604 1.8622.929 2.903.929h1.1811 5.5625 11.125 12.25c2.761 0 5 2.238 5 5v34.451c0 2.761-2.239 5-5 5h-79c-2.7614 0-5-2.239-5-5z" fill="#000"/><path d="m62.2734 265c.6459 0 1.2188.154 1.7188.461.5052.302.8906.708 1.1562 1.219.2709.51.4063 1.075.4063 1.695 0 .958-.3047 1.758-.9141 2.398-.6041.636-1.3932.954-2.3672.954h-2.7656v4.273h-1.3984v-11zm-.2031 5.508c.6511 0 1.1615-.196 1.5313-.586.3698-.396.5546-.917.5546-1.563 0-.635-.1848-1.151-.5546-1.547-.3698-.401-.8802-.601-1.5313-.601h-2.5625v4.297zm6.6797 5.64c-.6823 0-1.2448-.174-1.6875-.523-.4375-.354-.6563-.88-.6563-1.578 0-.386.0704-.719.211-1 .1406-.287.3489-.521.625-.703.276-.183.5755-.326.8984-.43.3282-.109.7188-.203 1.1719-.281l1.2422-.203c.4531-.084.6797-.321.6797-.711 0-.521-.1615-.901-.4844-1.141-.3177-.245-.7214-.367-1.2109-.367-.4792 0-.8802.117-1.2032.351-.3229.235-.513.594-.5703 1.079l-1.2187-.258c.1146-.729.4349-1.276.9609-1.641.5261-.37 1.224-.554 2.0938-.554.4062 0 .776.046 1.1093.14.3386.089.6485.232.9297.43.2865.193.5078.469.6641.828.1614.354.2422.773.2422 1.258v3.172c0 .395.0573.664.1719.804.1197.136.3229.203.6093.203h.125v.977h-.6719c-.8281 0-1.3124-.346-1.4531-1.039h-.0625c-.5833.792-1.4218 1.187-2.5156 1.187zm.3125-1.093c.6823 0 1.2318-.248 1.6484-.743.4167-.494.625-1.171.625-2.031l-2.0312.391c-.5365.088-.9349.232-1.1953.43-.2552.192-.3828.471-.3828.836 0 .38.1224.661.3672.843.25.183.5729.274.9687.274zm8.7344 1.093c-.8281 0-1.5183-.184-2.0703-.554-.5521-.37-.8881-.896-1.0078-1.578l1.1796-.336c.0834.458.2917.815.625 1.07.3386.25.7605.375 1.2657.375.2708 0 .5156-.034.7343-.102.224-.067.4141-.192.5704-.375.1562-.187.2317-.421.2265-.703-.0052-.114-.026-.218-.0625-.312-.0364-.099-.0781-.185-.125-.258s-.1198-.143-.2187-.211c-.099-.068-.1875-.122-.2657-.164-.0781-.042-.1953-.089-.3515-.141-.1511-.057-.2735-.099-.3672-.125-.0938-.031-.237-.073-.4297-.125-.1927-.057-.3411-.101-.4453-.132-.3229-.099-.5886-.193-.7969-.282-.2083-.088-.4245-.211-.6484-.367-.224-.161-.3933-.364-.5078-.609-.1094-.245-.1641-.531-.1641-.86 0-.484.125-.893.375-1.226.25-.334.5729-.573.9687-.719.4011-.151.8568-.226 1.3672-.226.7396 0 1.362.166 1.8672.5.5104.333.8229.833.9375 1.5l-1.1093.281c-.0834-.433-.2787-.755-.586-.969-.3073-.219-.6745-.328-1.1016-.328-.401 0-.7447.091-1.0312.273-.2865.177-.4297.451-.4297.821 0 .156.0365.299.1094.429.0781.125.1562.224.2344.297.0781.073.2187.151.4218.235.2032.078.3542.132.4532.164.0989.026.2864.073.5625.14.052.016.0911.026.1172.031.302.079.5468.149.7343.211.1927.058.4141.151.6641.282.2552.125.4557.263.6016.414.1458.151.2708.349.375.593.1041.245.1562.521.1562.829 0 .39-.0781.737-.2344 1.039-.151.297-.3594.531-.625.703s-.5651.299-.8984.383c-.3281.088-.6849.132-1.0703.132zm7.414-.148c-.6354 0-1.1354-.182-1.5-.547-.3645-.37-.5468-.883-.5468-1.539v-4.516h-1.5703v-1.078h.5781c.401 0 .6823-.088.8437-.265.1667-.183.25-.485.25-.907v-1.39h1.2578v2.562h1.7657v1.078h-1.7657v4.375c0 .365.0964.649.2891.852.1979.198.4557.297.7734.297h.7032v1.078zm9.6563-3.992-.0156.367h-6c.0208.854.2656 1.51.7343 1.969.4688.453 1.0521.679 1.75.679.4688 0 .8933-.122 1.2735-.367s.6718-.583.875-1.015l1.2187.257c-.276.698-.7135 1.248-1.3125 1.649-.5989.401-1.2786.601-2.039.601-1.1407 0-2.0625-.356-2.7657-1.07-.7031-.713-1.0547-1.687-1.0547-2.922 0-1.229.3516-2.2 1.0547-2.914.7084-.713 1.6172-1.07 2.7266-1.07 1.0729 0 1.9323.328 2.5781.984.6511.656.9766 1.607.9766 2.852zm-3.5547-2.797c-.6354 0-1.1693.182-1.6016.547-.427.359-.6953.885-.8047 1.578h4.6016c-.0521-.693-.276-1.219-.6719-1.578-.3958-.365-.9036-.547-1.5234-.547z" fill="#fff"/><path d="m.5.5h399v399h-399z" stroke="#000"/></svg>