<svg fill="none" height="400" viewBox="0 0 400 400" width="400" xmlns="http://www.w3.org/2000/svg"><path d="m.5.5h399v399h-399z" fill="#ffcf77"/><path d="m92 35.5h215c10.77 0 19.5 8.7304 19.5 19.5v344.5h-254v-344.5c0-10.7695 8.7304-19.5 19.5-19.5z" fill="#fff" stroke="#ffb37c"/><path d="m86 82h227v1h-227z" fill="#ededed"/><path d="m86 238.5h227" stroke="#ededed" stroke-dasharray="1 1" stroke-miterlimit="16"/><path d="m148.373 67.4029-.769-2.1736h-4.319l-.769 2.1736h-1.866l3.69-10.0151h2.209l3.683 10.0151zm-4.543-3.7111h3.229l-1.614-4.5638zm11.812-3.5085c.461 0 .896.0862 1.306.2586.41.1678.769.4077 1.077.7199.307.3075.55.6965.727 1.1671.177.466.265.9808.265 1.5446 0 .5637-.088 1.0809-.265 1.5515-.177.4659-.42.855-.727 1.1672-.308.3075-.667.5474-1.077.7198-.41.1677-.845.2516-1.306.2516-.494 0-.944-.1025-1.349-.3075-.406-.205-.713-.4869-.923-.8457v4.4799h-1.747v-10.5672h1.663l.049 1.0763c.205-.3821.513-.6802.923-.8946.41-.2143.871-.3215 1.384-.3215zm-.385 5.9196c.573 0 1.051-.2026 1.433-.608.387-.4054.58-.9458.58-1.6214s-.193-1.2138-.58-1.6145c-.382-.4053-.86-.608-1.433-.608-.578 0-1.06.2097-1.447.629-.386.4147-.58.9458-.58 1.5935 0 .6523.194 1.1881.58 1.6074.387.4147.869.622 1.447.622zm9.428-5.9196c.461 0 .897.0862 1.307.2586.41.1678.769.4077 1.076.7199.308.3075.55.6965.727 1.1671.177.466.266.9808.266 1.5446 0 .5637-.089 1.0809-.266 1.5515-.177.4659-.419.855-.727 1.1672-.307.3075-.666.5474-1.076.7198-.41.1677-.846.2516-1.307.2516-.494 0-.943-.1025-1.349-.3075-.405-.205-.713-.4869-.922-.8457v4.4799h-1.747v-10.5672h1.663l.049 1.0763c.205-.3821.512-.6802.922-.8946.41-.2143.872-.3215 1.384-.3215zm-.384 5.9196c.573 0 1.05-.2026 1.432-.608.387-.4054.581-.9458.581-1.6214s-.194-1.2138-.581-1.6145c-.382-.4053-.859-.608-1.432-.608-.578 0-1.06.2097-1.447.629-.387.4147-.58.9458-.58 1.5935 0 .6523.193 1.1881.58 1.6074.387.4147.869.622 1.447.622zm7.086-4.6196c.182-.3448.485-.636.909-.8736.429-.2423.89-.3658 1.384-.3704v1.5794c-.76 0-1.319.1538-1.677.4613-.359.3029-.539.8247-.539 1.5655v3.5574h-1.754v-7.0798h1.677zm9.422 5.0669c-.704.6616-1.613.9924-2.726.9924-1.114 0-2.022-.3308-2.726-.9924-.703-.6663-1.055-1.5655-1.055-2.6977 0-1.1229.349-2.0151 1.048-2.6767.704-.6617 1.615-.9925 2.733-.9925s2.027.3308 2.726.9925c.703.6616 1.055 1.5538 1.055 2.6767 0 1.1322-.352 2.0314-1.055 2.6977zm-2.747-.4123c.61 0 1.106-.2097 1.489-.629.386-.4194.58-.9715.58-1.6564 0-.6802-.194-1.23-.58-1.6494-.383-.4193-.879-.629-1.489-.629-.592 0-1.079.2097-1.461.629-.377.4194-.566.9692-.566 1.6494 0 .6849.189 1.237.566 1.6564.382.4193.869.629 1.461.629zm9.686-5.8148h1.846l-2.971 7.0798h-1.509l-2.943-7.0798h1.838l1.866 5.0949zm9.247 3.4246-.028.4333h-5.34c.033.6336.233 1.1205.601 1.4607.368.3354.825.5032 1.37.5032.382 0 .718-.0909 1.007-.2726.293-.1817.517-.4426.671-.7828l1.593.2586c-.238.6896-.648 1.2277-1.23 1.6145-.582.3867-1.258.58-2.027.58-1.123 0-2.02-.3261-2.691-.9784-.67-.6523-1.006-1.5515-1.006-2.6977 0-1.1415.336-2.0408 1.006-2.6977.676-.6616 1.554-.9924 2.635-.9924.499 0 .953.0745 1.363.2236.415.1444.776.3611 1.083.65.313.2842.555.6569.727 1.1182.173.4566.261.9831.266 1.5795zm-3.432-2.3133c-.503 0-.918.1327-1.244.3983-.326.2609-.538.6546-.636 1.1811h3.579c-.047-.5125-.224-.9039-.532-1.1741-.302-.2702-.692-.4053-1.167-.4053zm13.125-4.0466c.932 0 1.685.3075 2.258.9225.573.6104.859 1.3652.859 2.2644 0 .9086-.286 1.6587-.859 2.2504-.569.5918-1.321.8876-2.258.8876h-2.229v3.6902h-1.817v-10.0151zm-.293 4.7944c.536 0 .943-.1468 1.223-.4403.284-.2936.426-.6919.426-1.1951 0-.4893-.142-.883-.426-1.1812s-.692-.4472-1.223-.4472h-1.936v3.2638zm10.246 3.2358c0 .8061.06 1.4048.181 1.7962v.1887h-1.656l-.168-.7968c-.256.3122-.589.5475-.999.7059-.406.1538-.83.2306-1.272.2306-.294 0-.566-.0372-.818-.1118-.252-.0699-.482-.1794-.692-.3285-.209-.1491-.375-.3541-.496-.615-.117-.2609-.175-.5638-.175-.9085 0-.3541.061-.6617.182-.9226s.303-.4752.545-.6429c.247-.1724.515-.3122.804-.4194.289-.1071.638-.2027 1.048-.2865l1.181-.2446c.238-.0513.408-.1235.51-.2167.103-.0932.154-.219.154-.3774 0-.191-.037-.3564-.112-.4962-.074-.1444-.177-.2539-.307-.3285-.126-.0792-.263-.1351-.412-.1677-.15-.0373-.308-.0559-.476-.0559-.862 0-1.351.382-1.467 1.1462l-1.552-.2936c.275-1.3884 1.312-2.0827 3.11-2.0827.303 0 .585.021.846.0629.261.042.519.1212.776.2377.26.1164.479.2655.657.4472.181.1818.328.424.44.7269.112.3028.168.6523.168 1.0483zm-3.376.9156c.564 0 1.002-.1841 1.314-.5522.317-.368.475-.9341.475-1.6983l-1.719.4403c-.368.0792-.648.1911-.839.3355-.186.1398-.279.3401-.279.6011 0 .2842.097.5008.293.6499s.447.2237.755.2237zm9.868-6.0105h1.81l-4.284 10.4135h-1.775l1.552-3.5853-2.859-6.8282h1.908l1.782 4.9202zm11.022-.1398c.741 0 1.33.1957 1.768.5871s.657.9458.657 1.6634v4.9691h-1.747v-4.4869c0-.4333-.115-.7595-.343-.9784-.223-.2237-.508-.3355-.852-.3355-.41 0-.746.1374-1.007.4123-.256.2703-.384.6943-.384 1.272v4.1165h-1.768v-4.452c0-.4472-.115-.7827-.343-1.0064-.224-.2283-.515-.3424-.874-.3424-.405 0-.738.1421-.999.4263-.256.2796-.384.7245-.384 1.3349v4.0396h-1.741v-7.0798h1.741v.8527c.47-.6617 1.141-.9925 2.012-.9925.499 0 .93.0932 1.293.2796.364.1864.636.4566.818.8107.48-.7268 1.198-1.0903 2.153-1.0903zm11.021 3.5644-.028.4333h-5.339c.032.6336.233 1.1205.601 1.4607.368.3354.824.5032 1.37.5032.382 0 .717-.0909 1.006-.2726.294-.1817.517-.4426.671-.7828l1.593.2586c-.237.6896-.647 1.2277-1.23 1.6145-.582.3867-1.258.58-2.026.58-1.123 0-2.02-.3261-2.691-.9784s-1.007-1.5515-1.007-2.6977c0-1.1415.336-2.0408 1.007-2.6977.675-.6616 1.554-.9924 2.635-.9924.498 0 .952.0745 1.362.2236.415.1444.776.3611 1.084.65.312.2842.554.6569.727 1.1182.172.4566.261.9831.265 1.5795zm-3.431-2.3133c-.504 0-.918.1327-1.244.3983-.327.2609-.539.6546-.636 1.1811h3.578c-.047-.5125-.224-.9039-.531-1.1741-.303-.2702-.692-.4053-1.167-.4053zm8.994-1.2511c.811 0 1.442.2144 1.894.643.452.424.678 1.0274.678 1.8101v4.7665h-1.747v-4.3891c0-.4845-.128-.841-.384-1.0693-.252-.2283-.576-.3424-.972-.3424-.475 0-.866.1444-1.174.4333-.303.2889-.457.7408-.461 1.3558v4.0117h-1.747v-7.0798h1.747v.8177c.508-.6383 1.23-.9575 2.166-.9575zm7.171 7.2196c-.657 0-1.167-.1841-1.531-.5522-.363-.3727-.545-.8945-.545-1.5655v-3.6132h-1.405v-1.3489h.476c.386 0 .668-.0932.845-.2795.177-.1864.266-.5149.266-.9855v-1.0413h1.586v2.3063h1.51v1.3489h-1.51v3.4245c0 .3215.077.5638.231.7269.154.1584.368.2376.643.2376h.636v1.3419z" fill="#000"/><g fill="#ededed"><path d="m86 137h227v1h-227z"/><path d="m86 190h227v1h-227z"/><path d="m86 289h227v1h-227z"/></g><g fill="#000"><path d="m88.439 121.31c.402 0 .699-.084.891-.252.198-.174.297-.39.297-.648v-.063c0-.288-.096-.507-.288-.657-.186-.156-.438-.234-.756-.234-.306 0-.567.069-.783.207-.21.138-.387.327-.531.567l-.684-.585c.096-.138.207-.27.333-.396s.27-.234.432-.324c.162-.096.348-.171.558-.225.21-.06.447-.09.711-.09.294 0 .567.036.819.108s.471.18.657.324c.186.138.33.309.432.513.102.198.153.423.153.675 0 .198-.033.378-.099.54-.06.162-.147.306-.261.432-.108.12-.237.219-.387.297s-.309.135-.477.171v.045c.18.036.351.096.513.18.162.078.306.183.432.315.126.126.225.279.297.459.072.174.108.375.108.603 0 .276-.054.528-.162.756-.108.222-.264.414-.468.576-.198.162-.438.288-.72.378-.282.084-.597.126-.945.126-.294 0-.555-.033-.783-.099-.222-.06-.42-.141-.594-.243-.174-.108-.327-.228-.459-.36-.126-.138-.237-.279-.333-.423l.747-.576c.156.252.339.459.549.621.216.156.51.234.882.234.396 0 .699-.09.909-.27.21-.186.315-.441.315-.765v-.072c0-.324-.111-.57-.333-.738-.216-.174-.531-.261-.945-.261h-.675v-.846zm3.9295 3.69v-6.282h1.008v5.436h2.862v.846zm8.8525 0c-.282 0-.495-.072-.639-.216-.138-.144-.222-.333-.252-.567h-.045c-.09.282-.255.501-.495.657-.234.156-.534.234-.9.234-.474 0-.852-.123-1.134-.369-.282-.252-.423-.597-.423-1.035 0-.45.165-.792.495-1.026.336-.24.849-.36 1.539-.36h.891v-.36c0-.63-.333-.945-.999-.945-.3 0-.543.06-.729.18-.186.114-.342.267-.468.459l-.585-.477c.132-.252.354-.468.666-.648.312-.186.714-.279 1.206-.279.588 0 1.05.141 1.386.423s.504.69.504 1.224v2.331h.585v.774zm-2.052-.612c.318 0 .579-.072.783-.216s.306-.33.306-.558v-.675h-.873c-.708 0-1.062.213-1.062.639v.18c0 .21.075.369.225.477.15.102.357.153.621.153zm7.574 2.187h-1.152c-.408 0-.702-.108-.882-.324-.18-.21-.27-.489-.27-.837v-.342c-.318-.054-.594-.165-.828-.333s-.429-.387-.585-.657c-.15-.276-.261-.6-.333-.972s-.108-.789-.108-1.251c0-.51.045-.966.135-1.368.09-.408.228-.75.414-1.026.192-.276.432-.486.72-.63.294-.15.639-.225 1.035-.225s.738.075 1.026.225c.294.144.534.354.72.63.192.276.333.618.423 1.026.09.402.135.858.135 1.368 0 .924-.15 1.665-.45 2.223s-.768.888-1.404.99v.747h1.404zm-1.854-2.304c.45 0 .768-.168.954-.504.186-.342.279-.804.279-1.386v-1.053c0-.576-.093-1.032-.279-1.368-.186-.342-.504-.513-.954-.513s-.768.171-.954.513c-.186.336-.279.792-.279 1.368v1.062c0 .576.093 1.035.279 1.377.186.336.504.504.954.504zm12.152-3.915h.99l-2.25 5.544c-.12.3-.279.525-.477.675-.192.15-.471.225-.837.225h-.783v-.792h1.098l.423-1.071-1.872-4.581h1.026l.738 1.944.576 1.593h.054l.576-1.593zm2.112 4.644v-6.282h4.041v.846h-3.033v1.827h2.754v.846h-2.754v2.763zm8.492-.864h-.063c-.054.126-.12.249-.198.369-.072.114-.165.216-.279.306-.108.09-.24.162-.396.216s-.336.081-.54.081c-.654 0-1.146-.279-1.476-.837s-.495-1.347-.495-2.367c0-1.068.189-1.884.567-2.448s.957-.846 1.737-.846c.306 0 .573.042.801.126.234.084.432.198.594.342.162.138.297.303.405.495.108.186.195.384.261.594l-.909.306c-.048-.138-.102-.267-.162-.387-.06-.126-.135-.237-.225-.333-.084-.096-.189-.171-.315-.225-.12-.054-.267-.081-.441-.081-.438 0-.756.171-.954.513-.192.336-.288.792-.288 1.368v.999c0 .288.021.552.063.792s.111.447.207.621c.102.168.231.3.387.396.162.096.357.144.585.144.366 0 .645-.108.837-.324.198-.222.297-.504.297-.846v-.567h-1.215v-.756h2.133v3.213h-.918zm5.964-5.418v4.599c0 .27-.048.516-.144.738-.09.222-.222.411-.396.567-.168.156-.372.276-.612.36s-.507.126-.801.126c-.552 0-.993-.138-1.323-.414-.324-.276-.534-.657-.63-1.143l.954-.198c.054.258.156.474.306.648s.384.261.702.261c.294 0 .522-.087.684-.261.168-.18.252-.453.252-.819v-3.618h-2.187v-.846zm9.056 6.39c-.372 0-.699-.045-.981-.135-.282-.096-.519-.225-.711-.387s-.339-.354-.441-.576c-.096-.222-.144-.465-.144-.729 0-.42.117-.756.351-1.008s.54-.429.918-.531v-.072c-.324-.114-.585-.294-.783-.54s-.297-.549-.297-.909c0-.486.18-.876.54-1.17.366-.294.882-.441 1.548-.441s1.179.147 1.539.441c.366.294.549.684.549 1.17 0 .36-.099.663-.297.909s-.459.426-.783.54v.072c.378.102.684.279.918.531s.351.588.351 1.008c0 .264-.051.507-.153.729-.096.222-.24.414-.432.576s-.429.291-.711.387c-.282.09-.609.135-.981.135zm0-.801c.396 0 .699-.087.909-.261.216-.174.324-.42.324-.738v-.189c0-.318-.108-.564-.324-.738-.21-.174-.513-.261-.909-.261s-.702.087-.918.261c-.21.174-.315.42-.315.738v.189c0 .318.105.564.315.738.216.174.522.261.918.261zm0-2.961c.36 0 .633-.078.819-.234.192-.162.288-.387.288-.675v-.117c0-.288-.096-.51-.288-.666-.186-.162-.459-.243-.819-.243s-.636.081-.828.243c-.186.156-.279.378-.279.666v.117c0 .288.093.513.279.675.192.156.468.234.828.234zm7.601 3.654h-4.338v-.963l2.052-1.791c.324-.288.573-.561.747-.819.18-.258.27-.531.27-.819v-.099c0-.33-.09-.582-.27-.756-.18-.18-.441-.27-.783-.27-.348 0-.618.093-.81.279-.186.186-.321.423-.405.711l-.882-.333c.06-.198.147-.387.261-.567.114-.186.258-.351.432-.495.18-.144.39-.258.63-.342.246-.084.528-.126.846-.126.324 0 .612.048.864.144.258.09.474.216.648.378s.306.357.396.585c.09.222.135.468.135.738 0 .252-.039.486-.117.702-.072.21-.177.414-.315.612-.132.192-.291.378-.477.558s-.39.36-.612.54l-1.521 1.278h3.249zm3.471 0c-.408 0-.708-.108-.9-.324-.192-.222-.288-.507-.288-.855v-2.673h-1.431v-.792h1.017c.174 0 .297-.033.369-.099.072-.072.108-.198.108-.378v-1.161h.918v1.638h1.98v.792h-1.98v3.06h1.98v.792zm3.119-.792h1.485v-3.06h-1.575v-.792h1.575v-.837c0-.348.096-.63.288-.846.192-.222.492-.333.9-.333h1.566v.792h-1.773v1.224h1.773v.792h-1.773v3.06h1.566v.792h-4.032zm15.329.792h-1.143l-.711-1.242-.666-1.188h-.054l-.684 1.188-.738 1.242h-1.071l1.926-3.222-1.809-3.06h1.143l.639 1.125.648 1.161h.045l.648-1.161.666-1.125h1.071l-1.818 3.06zm1.77-4.833h-.081v4.833h-.882v-6.282h1.296l1.845 4.833h.081v-4.833h.882v6.282h-1.296zm7.493 4.041h-.054c-.138.282-.321.504-.549.666-.228.156-.513.234-.855.234-.546 0-.981-.204-1.305-.612s-.486-1.014-.486-1.818.162-1.41.486-1.818.759-.612 1.305-.612c.342 0 .627.081.855.243.228.156.411.375.549.657h.054v-2.808h.981v6.66h-.981zm-1.053.099c.144 0 .279-.018.405-.054s.237-.09.333-.162.171-.159.225-.261c.06-.108.09-.234.09-.378v-1.548c0-.144-.03-.267-.09-.369-.054-.108-.129-.198-.225-.27s-.207-.126-.333-.162-.261-.054-.405-.054c-.372 0-.66.114-.864.342-.198.228-.297.531-.297.909v.756c0 .378.099.681.297.909.204.228.492.342.864.342zm3.138.693v-4.644h.837v.603h.045c.072-.198.174-.366.306-.504.138-.138.333-.207.585-.207.246 0 .435.069.567.207.138.132.225.315.261.549h.036c.084-.21.201-.387.351-.531.15-.15.366-.225.648-.225.36 0 .609.126.747.378.144.252.216.621.216 1.107v3.267h-.837v-3.141c0-.324-.039-.546-.117-.666-.078-.126-.204-.189-.378-.189-.156 0-.288.054-.396.162-.102.102-.153.258-.153.468v3.366h-.837v-3.141c0-.324-.039-.546-.117-.666-.072-.126-.195-.189-.369-.189-.162 0-.297.054-.405.162-.102.102-.153.258-.153.468v3.366zm11.279 1.008h2.052v-4.86h-2.106v-.792h3.087v5.265c0 .348-.099.63-.297.846-.192.222-.492.333-.9.333h-1.836zm2.547-6.498c-.252 0-.429-.051-.531-.153-.096-.102-.144-.228-.144-.378v-.189c0-.15.048-.276.144-.378.102-.102.276-.153.522-.153.252 0 .426.051.522.153.102.102.153.228.153.378v.189c0 .15-.051.276-.153.378-.096.102-.267.153-.513.153zm2.939 5.49v-6.282h1.008v5.436h2.862v.846zm9.33 0h-4.338v-.963l2.052-1.791c.324-.288.573-.561.747-.819.18-.258.27-.531.27-.819v-.099c0-.33-.09-.582-.27-.756-.18-.18-.441-.27-.783-.27-.348 0-.618.093-.81.279-.186.186-.321.423-.405.711l-.882-.333c.06-.198.147-.387.261-.567.114-.186.258-.351.432-.495.18-.144.39-.258.63-.342.246-.084.528-.126.846-.126.324 0 .612.048.864.144.258.09.474.216.648.378s.306.357.396.585c.09.222.135.468.135.738 0 .252-.039.486-.117.702-.072.21-.177.414-.315.612-.132.192-.291.378-.477.558s-.39.36-.612.54l-1.521 1.278h3.249zm2.93-3.69c.402 0 .699-.084.891-.252.198-.174.297-.39.297-.648v-.063c0-.288-.096-.507-.288-.657-.186-.156-.438-.234-.756-.234-.306 0-.567.069-.783.207-.21.138-.387.327-.531.567l-.684-.585c.096-.138.207-.27.333-.396s.27-.234.432-.324c.162-.096.348-.171.558-.225.21-.06.447-.09.711-.09.294 0 .567.036.819.108s.471.18.657.324c.186.138.33.309.432.513.102.198.153.423.153.675 0 .198-.033.378-.099.54-.06.162-.147.306-.261.432-.108.12-.237.219-.387.297s-.309.135-.477.171v.045c.18.036.351.096.513.18.162.078.306.183.432.315.126.126.225.279.297.459.072.174.108.375.108.603 0 .276-.054.528-.162.756-.108.222-.264.414-.468.576-.198.162-.438.288-.72.378-.282.084-.597.126-.945.126-.294 0-.555-.033-.783-.099-.222-.06-.42-.141-.594-.243-.174-.108-.327-.228-.459-.36-.126-.138-.237-.279-.333-.423l.747-.576c.156.252.339.459.549.621.216.156.51.234.882.234.396 0 .699-.09.909-.27.21-.186.315-.441.315-.765v-.072c0-.324-.111-.57-.333-.738-.216-.174-.531-.261-.945-.261h-.675v-.846zm9.875 3.69 2.331-5.445h-2.448v1.161h-.873v-1.998h4.329v.882l-2.268 5.4zm8.313-6.282v4.599c0 .27-.048.516-.144.738-.09.222-.222.411-.396.567-.168.156-.372.276-.612.36s-.507.126-.801.126c-.552 0-.993-.138-1.323-.414-.324-.276-.534-.657-.63-1.143l.954-.198c.054.258.156.474.306.648s.384.261.702.261c.294 0 .522-.087.684-.261.168-.18.252-.453.252-.819v-3.618h-2.187v-.846zm3.677 6.39c-.354 0-.669-.057-.945-.171s-.51-.276-.702-.486c-.192-.216-.339-.474-.441-.774s-.153-.639-.153-1.017c0-.456.069-.885.207-1.287s.318-.771.54-1.107.468-.633.738-.891c.27-.264.537-.483.801-.657h1.35c-.36.258-.684.507-.972.747s-.54.486-.756.738c-.21.252-.387.519-.531.801-.144.276-.255.585-.333.927l.063.018c.066-.126.144-.243.234-.351.09-.114.195-.213.315-.297s.258-.15.414-.198.333-.072.531-.072c.27 0 .519.045.747.135s.426.222.594.396c.168.168.297.372.387.612.096.24.144.51.144.81 0 .312-.054.6-.162.864-.102.258-.252.48-.45.666-.192.186-.426.333-.702.441-.276.102-.582.153-.918.153zm-.009-.81c.384 0 .681-.102.891-.306.21-.21.315-.504.315-.882v-.09c0-.378-.105-.669-.315-.873-.21-.21-.507-.315-.891-.315-.378 0-.672.105-.882.315-.21.204-.315.495-.315.873v.09c0 .378.105.672.315.882.21.204.504.306.882.306zm7.926.702h-1.143l-.711-1.242-.666-1.188h-.054l-.684 1.188-.738 1.242h-1.071l1.926-3.222-1.809-3.06h1.143l.639 1.125.648 1.161h.045l.648-1.161.666-1.125h1.071l-1.818 3.06zm9.263-.792h-.054c-.138.282-.321.504-.549.666-.228.156-.513.234-.855.234-.546 0-.981-.204-1.305-.612s-.486-1.014-.486-1.818.162-1.41.486-1.818.759-.612 1.305-.612c.342 0 .627.081.855.243.228.156.411.375.549.657h.054v-2.808h.981v6.66h-.981zm-1.053.099c.144 0 .279-.018.405-.054s.237-.09.333-.162.171-.159.225-.261c.06-.108.09-.234.09-.378v-1.548c0-.144-.03-.267-.09-.369-.054-.108-.129-.198-.225-.27s-.207-.126-.333-.162-.261-.054-.405-.054c-.372 0-.66.114-.864.342-.198.228-.297.531-.297.909v.756c0 .378.099.681.297.909.204.228.492.342.864.342zm4.838.693-1.665-4.644h1.017l.639 1.962.603 1.863h.054l.603-1.863.639-1.962h.981l-1.665 4.644zm4.056-6.66h.981v2.808h.045c.048-.12.108-.234.18-.342.078-.114.171-.21.279-.288.108-.084.234-.15.378-.198s.312-.072.504-.072c.468 0 .846.153 1.134.459s.432.741.432 1.305v2.988h-.981v-2.844c0-.738-.321-1.107-.963-1.107-.126 0-.249.018-.37.054-.119.03-.227.078-.323.144s-.174.15-.234.252c-.054.102-.081.219-.081.351v3.15h-.981zm5.045 6.66 1.728-2.358-1.656-2.286h1.143l.612.882.486.702h.054l.477-.702.612-.882h1.062l-1.665 2.25 1.746 2.394h-1.152l-.693-.999-.477-.684h-.054l-.468.684-.684.999zm12.143 0h-.999v-6.282h2.349c.6 0 1.056.168 1.368.504.318.336.477.798.477 1.386 0 .48-.117.876-.351 1.188s-.57.504-1.008.576l1.449 2.628h-1.116l-1.332-2.538h-.837zm1.206-3.348c.624 0 .936-.285.936-.855v-.387c0-.57-.312-.855-.936-.855h-1.206v2.097zm3.119 2.556h1.233v-3.06h-1.233v-.792h2.214v1.233h.054c.042-.162.102-.318.18-.468s.177-.279.297-.387c.12-.114.267-.204.441-.27.174-.072.378-.108.612-.108h.558v.936h-.918c-.36 0-.654.108-.882.324-.228.21-.342.495-.342.855v1.737h1.683v.792h-3.897zm6.324-4.041h-.081v4.833h-.882v-6.282h1.296l1.845 4.833h.081v-4.833h.882v6.282h-1.296zm4.487 4.041h1.485v-3.06h-1.575v-.792h1.575v-.837c0-.348.096-.63.288-.846.192-.222.492-.333.9-.333h1.566v.792h-1.773v1.224h1.773v.792h-1.773v3.06h1.566v.792h-4.032zm10.883-5.868h.981v4.023h.045l.729-.747 1.305-1.26h1.161l-1.881 1.827 2.088 2.817h-1.179l-1.62-2.259-.648.603v1.656h-.981zm6.801 6.66v-2.367l-2.088-3.915h1.125l.801 1.566.648 1.341h.054l.657-1.341.801-1.566h1.098l-2.088 3.915v2.367z"/><path d="m91.0084 97.6187v1.3778h-2.0966v7.2065h-1.5396v-7.2065h-2.1026v-1.3778zm5.3136 7.8533c-.603.567-1.3818.851-2.3363.851s-1.7332-.284-2.3363-.851c-.603-.571-.9045-1.342-.9045-2.312 0-.963.2995-1.727.8985-2.294.6031-.568 1.3838-.851 2.3423-.851s1.7373.283 2.3363.851c.603.567.9046 1.331.9046 2.294 0 .97-.3016 1.741-.9046 2.312zm-2.3543-.353c.5232 0 .9485-.18 1.276-.539.3315-.36.4972-.833.4972-1.42 0-.583-.1657-1.054-.4972-1.414-.3275-.359-.7528-.539-1.276-.539-.5072 0-.9245.18-1.252.539-.3235.36-.4852.831-.4852 1.414 0 .587.1617 1.06.4852 1.42.3275.359.7448.539 1.252.539z"/><path d="m252.384 157.894c-.898 0-1.591-.368-2.078-1.103-.488-.734-.731-1.813-.731-3.234 0-1.422.239-2.498.719-3.229.483-.731 1.18-1.097 2.09-1.097.903 0 1.596.368 2.079 1.103.483.731.725 1.805.725 3.223 0 1.417-.246 2.496-.737 3.234-.487.735-1.176 1.103-2.067 1.103zm0-.959c.571 0 1.009-.281 1.312-.844.304-.564.455-1.408.455-2.534 0-1.135-.155-1.977-.467-2.528-.307-.555-.741-.833-1.3-.833-.563 0-.998.276-1.306.827-.307.551-.461 1.395-.461 2.534 0 1.13.15 1.976.449 2.54.304.559.743.838 1.318.838zm4.559.965c-.188 0-.351-.068-.491-.204-.136-.136-.204-.299-.204-.491 0-.188.068-.35.204-.485.14-.14.303-.21.491-.21s.351.07.491.21c.14.135.21.297.21.485 0 .192-.07.355-.21.491-.136.136-.299.204-.491.204zm5.385-.006c-1.873 0-2.809-1.001-2.809-3.002l1.054-.053c0 .706.132 1.236.396 1.587.263.352.717.527 1.359.527.54 0 .975-.152 1.306-.455.336-.304.504-.701.504-1.192 0-.499-.162-.895-.486-1.186-.319-.292-.72-.438-1.204-.438h-.419v-.88h.407c.36 0 .667-.13.923-.39.255-.259.383-.579.383-.958s-.136-.689-.407-.929c-.272-.239-.613-.359-1.024-.359-.264 0-.49.042-.677.126-.184.084-.326.207-.426.371-.1.16-.171.338-.215.533-.044.196-.066.424-.066.683l-1.055-.036c0-.838.21-1.483.629-1.935.424-.451 1.025-.677 1.804-.677.69 0 1.266.206 1.725.618.463.411.695.922.695 1.533 0 .415-.112.781-.336 1.096-.223.316-.505.543-.844.683.483.14.878.398 1.186.773.307.375.461.849.461 1.42 0 .759-.27 1.372-.809 1.839-.535.467-1.22.701-2.055.701zm6.776-5.541c1.026 0 1.793.237 2.3.712.507.472.761 1.131.761 1.977 0 .839-.262 1.524-.785 2.055-.519.527-1.2.791-2.043.791-.371 0-.725-.056-1.06-.168-.331-.116-.629-.28-.893-.491-.259-.216-.467-.493-.623-.833-.151-.339-.227-.719-.227-1.138 0-.116.01-.26.03-.431l1.06-.09c-.032.231-.048.389-.048.473 0 .296.05.557.15.785.104.227.242.407.413.539.172.128.356.224.551.287.2.064.41.096.629.096.544 0 .979-.171 1.306-.515.332-.343.498-.785.498-1.324 0-.563-.172-1.006-.516-1.33-.339-.323-.878-.485-1.617-.485h-2.133l.521-3.906h4.421v.965h-3.546l-.275 2.031zm10.022 2.617c.008.563-.12 1.069-.384 1.516-.263.447-.617.791-1.06 1.03-.443.24-.93.36-1.462.36-.834 0-1.533-.264-2.096-.791-.563-.531-.845-1.214-.845-2.049 0-.703.244-1.378.731-2.025l2.821-3.666h1.222l-2.342 2.954c.236-.068.479-.102.731-.102.463 0 .895.108 1.294.323.399.216.729.539.988.971.26.427.394.92.402 1.479zm-2.93 1.941c.564 0 1.025-.177 1.384-.533.364-.359.541-.835.533-1.426-.008-.599-.193-1.072-.557-1.419-.363-.352-.822-.528-1.378-.528-.555 0-1.014.194-1.377.582-.364.383-.541.852-.533 1.407.004.599.183 1.069.539 1.408.359.34.822.509 1.389.509zm6.734-4.558c1.026 0 1.793.237 2.3.712.507.472.761 1.131.761 1.977 0 .839-.262 1.524-.785 2.055-.519.527-1.2.791-2.043.791-.371 0-.724-.056-1.06-.168-.331-.116-.629-.28-.893-.491-.259-.216-.467-.493-.623-.833-.151-.339-.227-.719-.227-1.138 0-.116.01-.26.03-.431l1.06-.09c-.032.231-.048.389-.048.473 0 .296.05.557.15.785.104.227.242.407.413.539.172.128.356.224.551.287.2.064.41.096.629.096.544 0 .979-.171 1.306-.515.332-.343.498-.785.498-1.324 0-.563-.172-1.006-.516-1.33-.339-.323-.878-.485-1.617-.485h-2.133l.521-3.906h4.421v.965h-3.546l-.275 2.031zm7.17-3.008h.971v8.435h-1.025v-7.302l-2.024 1.755v-1.109zm8.902 7.854c-.543.463-1.224.695-2.043.695-.818 0-1.501-.232-2.048-.695-.543-.467-.815-1.08-.815-1.839 0-.531.142-.991.425-1.378.284-.387.669-.671 1.156-.851-.347-.171-.625-.411-.832-.719-.204-.311-.306-.659-.306-1.042 0-.623.23-1.134.689-1.533.459-.404 1.037-.606 1.731-.606.683 0 1.252.202 1.708.606.459.403.689.914.689 1.533 0 .383-.1.731-.3 1.042-.2.308-.471.548-.815.719.484.184.867.47 1.151.857.283.383.425.841.425 1.372 0 .763-.272 1.376-.815 1.839zm-2.043-4.409c.404 0 .743-.132 1.019-.396.279-.263.419-.587.419-.97 0-.375-.14-.691-.419-.946-.276-.26-.615-.39-1.019-.39-.411 0-.754.128-1.03.384-.275.255-.413.573-.413.952 0 .383.138.707.413.97.28.264.623.396 1.03.396zm0 4.145c.52 0 .951-.154 1.294-.461.348-.308.522-.715.522-1.222 0-.499-.174-.901-.522-1.204-.343-.304-.774-.455-1.294-.455-.523 0-.958.151-1.305.455-.348.303-.522.705-.522 1.204 0 .507.174.914.522 1.222.347.307.782.461 1.305.461zm6.967-7.59h.971v8.435h-1.025v-7.302l-2.024 1.755v-1.109zm9.765 5.625c.008.563-.12 1.069-.384 1.516-.263.447-.617.791-1.06 1.03-.443.24-.93.36-1.462.36-.834 0-1.533-.264-2.096-.791-.563-.531-.845-1.214-.845-2.049 0-.703.244-1.378.731-2.025l2.821-3.666h1.223l-2.343 2.954c.236-.068.479-.102.731-.102.463 0 .895.108 1.294.323.399.216.729.539.988.971.26.427.394.92.402 1.479zm-2.93 1.941c.564 0 1.025-.177 1.384-.533.364-.359.541-.835.533-1.426-.008-.599-.193-1.072-.557-1.419-.363-.352-.822-.528-1.377-.528-.556 0-1.015.194-1.378.582-.364.383-.541.852-.533 1.407.004.599.183 1.069.539 1.408.359.34.822.509 1.389.509z"/><path d="m91.8591 157.439-.659-1.863h-3.7021l-.6589 1.863h-1.5995l3.163-8.584h1.893l3.157 8.584zm-3.8938-3.181h2.7676l-1.3838-3.912zm13.5507-3.007c.635 0 1.14.167 1.515.503.376.335.563.811.563 1.426v4.259h-1.497v-3.846c0-.371-.098-.651-.294-.839-.191-.191-.435-.287-.731-.287-.351 0-.639.118-.862.353-.2198.232-.3297.595-.3297 1.091v3.528h-1.5155v-3.816c0-.383-.0979-.671-.2936-.863-.1917-.195-.4413-.293-.7488-.293-.3474 0-.633.122-.8566.365-.2197.24-.3295.621-.3295 1.144v3.463h-1.4916v-6.068h1.4916v.73c.4034-.567.9784-.85 1.7253-.85.4273 0 .7967.08 1.1082.239.3115.16.5451.392.7009.695.4113-.623 1.0263-.934 1.8453-.934zm8.944 5.457c-.604.567-1.382.851-2.337.851-.954 0-1.733-.284-2.336-.851-.603-.571-.905-1.342-.905-2.312 0-.963.3-1.728.899-2.295.603-.567 1.384-.85 2.342-.85.959 0 1.737.283 2.337.85.603.567.904 1.332.904 2.295 0 .97-.301 1.741-.904 2.312zm-2.355-.353c.523 0 .949-.18 1.276-.54.332-.359.497-.832.497-1.419 0-.583-.165-1.055-.497-1.414-.327-.359-.753-.539-1.276-.539-.507 0-.924.18-1.252.539-.323.359-.485.831-.485 1.414 0 .587.162 1.06.485 1.419.328.36.745.54 1.252.54zm8.597-4.984h1.497v6.068h-1.42l-.041-.749c-.204.28-.47.495-.797.647-.324.148-.689.222-1.096.222-.699 0-1.242-.182-1.63-.545-.383-.368-.575-.887-.575-1.558v-4.085h1.498v3.762c0 .411.108.716.323.916.22.196.501.294.845.294.407 0 .741-.124 1-.372.26-.247.392-.635.396-1.162zm6.745-.12c.695 0 1.236.183 1.623.551.388.363.581.88.581 1.551v4.086h-1.497v-3.762c0-.415-.11-.721-.33-.917-.215-.195-.493-.293-.832-.293-.408 0-.743.124-1.007.371-.259.248-.391.635-.395 1.162v3.439h-1.498v-6.068h1.498v.7c.435-.547 1.054-.82 1.857-.82zm6.146 6.188c-.563 0-1-.158-1.312-.473-.311-.32-.467-.767-.467-1.342v-3.097h-1.204v-1.156h.407c.332 0 .573-.08.725-.24s.228-.441.228-.845v-.892h1.36v1.977h1.293v1.156h-1.293v2.935c0 .276.065.483.197.623.132.136.316.204.551.204h.545v1.15z"/><path d="m90.6714 222.939c.0058.413-.0879.784-.2813 1.112-.1933.328-.4526.58-.7778.756-.3252.175-.6826.263-1.0723.263-.6123 0-1.125-.193-1.538-.58-.4131-.389-.6197-.89-.6197-1.503 0-.515.1787-1.01.5362-1.485l2.0698-2.69h.8965l-1.7183 2.167c.1729-.05.3516-.075.5361-.075.3399 0 .6563.079.9493.238.2929.158.5346.395.7251.712.1904.313.2885.675.2944 1.085zm-2.1489 1.424c.413 0 .7514-.131 1.0151-.391.2666-.264.397-.613.3911-1.046-.0058-.44-.1421-.787-.4087-1.042-.2666-.258-.6035-.386-1.0107-.386s-.7442.142-1.0108.426c-.2666.281-.3969.625-.3911 1.033.003.439.1348.783.3955 1.032.2637.249.6035.374 1.0196.374zm7.7255-3.766c.4454 0 .8013.133 1.0679.4.2666.266.3999.649.3999 1.147v2.856h-.7602v-2.711c0-.361-.0879-.626-.2637-.796s-.4028-.255-.6812-.255c-.3076 0-.5625.098-.7646.295-.1992.196-.3003.49-.3032.883v2.584h-.7603v-6.75h.7603v3.001c.1377-.208.3178-.369.5405-.483.2256-.114.4805-.171.7646-.171zm4.755 4.486c-.41 0-.779-.089-1.1075-.268-.3281-.178-.5889-.439-.7822-.782-.1904-.345-.2857-.744-.2857-1.195 0-.677.2036-1.219.6109-1.626.4101-.41.9315-.615 1.5645-.615.636 0 1.157.205 1.564.615.408.407.611.949.611 1.626 0 .68-.205 1.224-.615 1.635-.407.407-.927.61-1.56.61zm-.004-.632c.41 0 .75-.148 1.019-.444.273-.296.409-.686.409-1.169 0-.481-.136-.869-.409-1.165-.269-.296-.609-.444-1.019-.444-.408 0-.746.148-1.0156.444-.2666.296-.3999.684-.3999 1.165 0 .483.1333.873.3999 1.169.2696.296.6076.444 1.0156.444zm6.06-3.771h.76v4.32h-.73l-.017-.571c-.135.211-.314.373-.536.488-.223.111-.475.166-.756.166-.454 0-.818-.13-1.09-.391-.27-.26-.404-.628-.404-1.103v-2.909h.76v2.738c0 .346.088.603.264.773.178.17.405.255.681.255.313 0 .568-.099.764-.299.2-.199.301-.493.304-.883zm3.054.76c.108-.237.287-.43.536-.58.249-.149.526-.225.83-.228v.716c-.439 0-.774.107-1.006.321-.228.214-.343.555-.343 1.024v2.307h-.76v-4.32h.743zm3.63 3.643c-.466 0-.854-.104-1.165-.312-.31-.208-.499-.503-.567-.887l.664-.189c.047.258.164.458.351.602.191.141.428.211.712.211.153 0 .29-.019.413-.057.126-.038.233-.109.321-.211.088-.106.131-.238.128-.396-.003-.064-.015-.123-.036-.176-.02-.055-.043-.104-.07-.145-.026-.041-.067-.08-.123-.118s-.105-.069-.149-.093c-.044-.023-.11-.049-.198-.079-.085-.032-.154-.055-.207-.07-.052-.017-.133-.041-.241-.07-.109-.032-.192-.057-.251-.075-.181-.056-.331-.108-.448-.158s-.239-.119-.365-.207c-.126-.091-.221-.205-.285-.342-.062-.138-.093-.299-.093-.484 0-.272.071-.502.211-.69.141-.187.322-.322.545-.404.226-.085.482-.128.769-.128.416 0 .766.094 1.05.282.288.187.463.468.528.843l-.624.159c-.047-.243-.157-.425-.33-.545-.173-.123-.379-.185-.619-.185-.226 0-.419.051-.581.154-.161.1-.241.253-.241.461 0 .088.02.169.061.242.044.07.088.126.132.167s.123.085.237.132c.115.044.2.075.255.092.056.015.161.041.317.079.029.009.051.015.066.018.17.044.307.083.413.119.108.032.233.085.373.158.144.07.257.148.339.233s.152.196.211.334c.058.137.087.293.087.465 0 .22-.043.415-.131.585-.085.167-.202.299-.352.395-.149.097-.318.169-.505.216-.185.05-.386.074-.602.074zm6.947 0c-.41 0-.779-.089-1.107-.268-.328-.178-.589-.439-.782-.782-.191-.345-.286-.744-.286-1.195 0-.677.204-1.219.611-1.626.41-.41.932-.615 1.564-.615.636 0 1.158.205 1.565.615.407.407.611.949.611 1.626 0 .68-.205 1.224-.616 1.635-.407.407-.927.61-1.56.61zm-.004-.632c.41 0 .75-.148 1.02-.444.272-.296.408-.686.408-1.169 0-.481-.136-.869-.408-1.165-.27-.296-.61-.444-1.02-.444-.407 0-.746.148-1.015.444-.267.296-.4.684-.4 1.165 0 .483.133.873.4 1.169.269.296.608.444 1.015.444zm4.113-3.011c.109-.237.287-.43.536-.58.249-.149.526-.225.831-.228v.716c-.439 0-.775.107-1.006.321-.229.214-.343.555-.343 1.024v2.307h-.76v-4.32h.742zm9.018-.843c.416 0 .751.123 1.006.369.255.243.383.586.383 1.028v3.006h-.761v-2.808c0-.314-.079-.551-.237-.712s-.359-.242-.602-.242c-.273 0-.492.091-.659.273-.167.181-.251.454-.251.817v2.672h-.773v-2.777c0-.326-.081-.57-.242-.734-.158-.167-.362-.251-.611-.251-.269 0-.489.094-.659.282-.167.184-.25.462-.25.834v2.646h-.761v-4.32h.761v.558c.126-.205.29-.363.492-.474.205-.112.435-.167.69-.167.278 0 .524.061.738.184.214.12.374.295.479.523.129-.228.302-.403.519-.523.216-.123.463-.184.738-.184zm4.68 4.486c-.41 0-.779-.089-1.107-.268-.328-.178-.589-.439-.783-.782-.19-.345-.285-.744-.285-1.195 0-.677.203-1.219.611-1.626.41-.41.931-.615 1.564-.615.636 0 1.157.205 1.565.615.407.407.61.949.61 1.626 0 .68-.205 1.224-.615 1.635-.407.407-.927.61-1.56.61zm-.004-.632c.41 0 .75-.148 1.019-.444.273-.296.409-.686.409-1.169 0-.481-.136-.869-.409-1.165-.269-.296-.609-.444-1.019-.444-.408 0-.746.148-1.015.444-.267.296-.4.684-.4 1.165 0 .483.133.873.4 1.169.269.296.607.444 1.015.444zm4.113-3.011c.108-.237.287-.43.536-.58.249-.149.526-.225.831-.228v.716c-.44 0-.775.107-1.007.321-.228.214-.342.555-.342 1.024v2.307h-.761v-4.32h.743zm5.99 1.314-.009.207h-3.375c.012.48.149.85.413 1.107.264.255.592.383.984.383.264 0 .503-.069.717-.207s.378-.328.492-.571l.685.145c-.155.392-.401.702-.738.927-.337.226-.719.338-1.147.338-.641 0-1.16-.2-1.556-.602-.395-.401-.593-.949-.593-1.643 0-.692.198-1.238.593-1.639.399-.402.91-.602 1.534-.602.604 0 1.087.184 1.45.553.367.37.55.904.55 1.604zm-2-1.573c-.357 0-.658.103-.901.308-.24.202-.391.498-.452.887h2.588c-.029-.389-.155-.685-.378-.887-.223-.205-.508-.308-.857-.308zm8.222-.501h.761v4.32h-.73l-.017-.571c-.135.211-.314.373-.537.488-.222.111-.474.166-.755.166-.455 0-.818-.13-1.09-.391-.27-.26-.405-.628-.405-1.103v-2.909h.761v2.738c0 .346.088.603.263.773.179.17.406.255.681.255.314 0 .569-.099.765-.299.199-.199.3-.493.303-.883zm4.351-.083c.454 0 .816.13 1.085.391.273.261.409.628.409 1.103v2.909h-.76v-2.738c0-.348-.088-.606-.264-.773s-.401-.251-.677-.251c-.313 0-.569.1-.769.299-.199.196-.3.489-.303.879v2.584h-.76v-4.32h.76v.554c.287-.425.714-.637 1.279-.637zm4.342 4.403c-.358 0-.639-.103-.844-.308-.205-.208-.308-.496-.308-.865v-2.54h-.883v-.607h.325c.226 0 .384-.05.475-.149.094-.103.141-.273.141-.51v-.782h.707v1.441h.993v.607h-.993v2.461c0 .205.054.364.163.479.111.111.256.167.435.167h.395v.606zm2.092-5.335c-.141 0-.263-.05-.365-.149-.1-.103-.15-.224-.15-.365s.05-.261.15-.36c.102-.1.224-.15.365-.15.137 0 .256.05.355.15.103.099.154.219.154.36s-.051.262-.154.365c-.099.099-.218.149-.355.149zm-.387 5.335v-4.32h.764v4.32zm2.311 0v-6.75h.769v6.75zm6.465-6.188h.712v6.188h-.752v-5.357l-1.485 1.288v-.813zm4.632 6.271c-.466 0-.854-.104-1.165-.312s-.5-.503-.567-.887l.664-.189c.047.258.164.458.351.602.191.141.428.211.712.211.152 0 .29-.019.413-.057.126-.038.233-.109.321-.211.088-.106.13-.238.127-.396-.002-.064-.014-.123-.035-.176-.02-.055-.044-.104-.07-.145s-.067-.08-.123-.118-.106-.069-.149-.093c-.044-.023-.11-.049-.198-.079-.085-.032-.154-.055-.207-.07-.052-.017-.133-.041-.241-.07-.109-.032-.192-.057-.251-.075-.182-.056-.331-.108-.448-.158s-.239-.119-.365-.207c-.126-.091-.221-.205-.286-.342-.061-.138-.092-.299-.092-.484 0-.272.07-.502.211-.69.141-.187.322-.322.545-.404.226-.085.482-.128.769-.128.416 0 .766.094 1.05.282.287.187.463.468.528.843l-.624.159c-.047-.243-.157-.425-.33-.545-.173-.123-.379-.185-.62-.185-.225 0-.419.051-.58.154-.161.1-.241.253-.241.461 0 .088.02.169.061.242.044.07.088.126.132.167s.123.085.237.132c.115.044.2.075.255.092.056.015.161.041.317.079.029.009.051.015.066.018.169.044.307.083.413.119.108.032.233.085.373.158.144.07.256.148.339.233.082.085.152.196.21.334.059.137.088.293.088.465 0 .22-.044.415-.131.585-.085.167-.203.299-.352.395-.149.097-.318.169-.505.216-.185.05-.386.074-.602.074zm4.17-.083c-.357 0-.639-.103-.844-.308-.205-.208-.307-.496-.307-.865v-2.54h-.884v-.607h.325c.226 0 .384-.05.475-.149.094-.103.141-.273.141-.51v-.782h.707v1.441h.993v.607h-.993v2.461c0 .205.054.364.163.479.111.111.256.167.435.167h.395v.606zm5.836.079c-.624 0-1.14-.206-1.547-.62-.407-.413-.611-.953-.611-1.621s.202-1.209.607-1.622c.407-.413.924-.619 1.551-.619.48 0 .896.126 1.248.378.354.252.598.602.729 1.05l-.711.114c-.1-.29-.263-.514-.488-.672-.226-.158-.487-.238-.783-.238-.404 0-.738.148-1.001.444-.261.296-.392.684-.392 1.165 0 .48.131.869.392 1.164.263.293.597.44 1.001.44.296 0 .557-.079.783-.237.225-.159.388-.383.488-.673l.711.119c-.131.445-.376.795-.733 1.05-.355.252-.77.378-1.244.378zm4.922.004c-.41 0-.78-.089-1.108-.268-.328-.178-.589-.439-.782-.782-.19-.345-.286-.744-.286-1.195 0-.677.204-1.219.611-1.626.41-.41.932-.615 1.565-.615.636 0 1.157.205 1.564.615.407.407.611.949.611 1.626 0 .68-.205 1.224-.615 1.635-.407.407-.927.61-1.56.61zm-.005-.632c.411 0 .75-.148 1.02-.444.272-.296.409-.686.409-1.169 0-.481-.137-.869-.409-1.165-.27-.296-.609-.444-1.02-.444-.407 0-.745.148-1.015.444-.266.296-.4.684-.4 1.165 0 .483.134.873.4 1.169.27.296.608.444 1.015.444zm5.41-3.854c.454 0 .816.13 1.085.391.273.261.409.628.409 1.103v2.909h-.76v-2.738c0-.348-.088-.606-.264-.773s-.401-.251-.677-.251c-.313 0-.569.1-.769.299-.199.196-.3.489-.303.879v2.584h-.76v-4.32h.76v.554c.287-.425.714-.637 1.279-.637zm3.186-.822c0-.188.015-.355.044-.501.032-.149.073-.277.123-.382.053-.106.122-.197.207-.273.085-.079.172-.142.263-.189.094-.047.204-.083.33-.11.126-.026.249-.044.369-.052.123-.012.264-.018.422-.018v.637c-.076 0-.132 0-.167 0-.032 0-.085.003-.158.009-.071.006-.123.013-.159.022-.032.009-.077.023-.136.044-.055.02-.098.045-.127.075-.029.029-.063.067-.101.114-.038.044-.068.097-.088.158-.018.059-.034.129-.048.211-.012.079-.018.168-.018.268v.892h1.002v.607h-1.002v3.713h-.756v-3.713h-.835v-.607h.835zm3.024-.11c-.141 0-.263-.05-.365-.149-.1-.103-.15-.224-.15-.365s.05-.261.15-.36c.102-.1.224-.15.365-.15.137 0 .256.05.355.15.103.099.154.219.154.36s-.051.262-.154.365c-.099.099-.218.149-.355.149zm-.387 5.335v-4.32h.764v4.32zm3.058-3.56c.109-.237.287-.43.537-.58.249-.149.525-.225.83-.228v.716c-.439 0-.775.107-1.006.321-.229.214-.343.555-.343 1.024v2.307h-.76v-4.32h.742zm6.68-.843c.416 0 .752.123 1.006.369.255.243.383.586.383 1.028v3.006h-.761v-2.808c0-.314-.079-.551-.237-.712s-.359-.242-.602-.242c-.272 0-.492.091-.659.273-.167.181-.251.454-.251.817v2.672h-.773v-2.777c0-.326-.081-.57-.242-.734-.158-.167-.361-.251-.611-.251-.269 0-.489.094-.659.282-.167.184-.25.462-.25.834v2.646h-.76v-4.32h.76v.558c.126-.205.29-.363.492-.474.205-.112.435-.167.69-.167.278 0 .524.061.738.184.214.12.374.295.479.523.129-.228.302-.403.519-.523.217-.123.463-.184.738-.184zm3.858 4.486c-.383 0-.7-.098-.949-.294-.246-.199-.369-.495-.369-.888 0-.216.04-.404.119-.562.079-.161.196-.293.351-.396.156-.102.324-.183.506-.241.184-.062.404-.115.659-.159l.699-.114c.254-.047.382-.18.382-.4 0-.293-.091-.507-.273-.641-.178-.138-.405-.207-.681-.207-.269 0-.495.066-.676.198-.182.132-.289.334-.321.606l-.686-.145c.065-.41.245-.717.541-.923.296-.208.688-.312 1.177-.312.229 0 .437.027.624.08.191.049.365.13.523.241.162.109.286.264.374.466.091.199.136.435.136.708v1.784c0 .222.032.373.097.452.067.077.182.115.343.115h.07v.549h-.378c-.466 0-.738-.195-.817-.584h-.035c-.329.445-.8.667-1.416.667zm.176-.615c.384 0 .693-.139.927-.417.235-.279.352-.659.352-1.143l-1.143.22c-.301.05-.525.13-.672.242-.143.108-.215.265-.215.47 0 .214.069.372.206.474.141.103.323.154.545.154zm4.9.532c-.357 0-.639-.103-.844-.308-.205-.208-.307-.496-.307-.865v-2.54h-.884v-.607h.326c.225 0 .383-.05.474-.149.094-.103.141-.273.141-.51v-.782h.707v1.441h.994v.607h-.994v2.461c0 .205.055.364.163.479.111.111.256.167.435.167h.396v.606zm2.092-5.335c-.141 0-.262-.05-.365-.149-.099-.103-.149-.224-.149-.365s.05-.261.149-.36c.103-.1.224-.15.365-.15.138 0 .256.05.356.15.102.099.154.219.154.36s-.052.262-.154.365c-.1.099-.218.149-.356.149zm-.387 5.335v-4.32h.765v4.32zm4.131.083c-.41 0-.779-.089-1.107-.268-.328-.178-.589-.439-.783-.782-.19-.345-.285-.744-.285-1.195 0-.677.203-1.219.611-1.626.41-.41.931-.615 1.564-.615.636 0 1.157.205 1.565.615.407.407.61.949.61 1.626 0 .68-.205 1.224-.615 1.635-.407.407-.927.61-1.56.61zm-.004-.632c.41 0 .75-.148 1.019-.444.273-.296.409-.686.409-1.169 0-.481-.136-.869-.409-1.165-.269-.296-.609-.444-1.019-.444-.408 0-.746.148-1.015.444-.267.296-.4.684-.4 1.165 0 .483.133.873.4 1.169.269.296.607.444 1.015.444zm5.409-3.854c.454 0 .816.13 1.086.391.272.261.409.628.409 1.103v2.909h-.761v-2.738c0-.348-.088-.606-.263-.773-.176-.167-.402-.251-.677-.251-.314 0-.57.1-.769.299-.199.196-.301.489-.303.879v2.584h-.761v-4.32h.761v.554c.287-.425.713-.637 1.278-.637z"/><path d="m87.7436 209.616h2.7856v1.384h-4.3431v-8.584h1.5575zm9.0936.653c-.6031.567-1.3818.851-2.3363.851s-1.7332-.284-2.3363-.851c-.603-.571-.9046-1.342-.9046-2.312 0-.963.2996-1.727.8986-2.295.6031-.567 1.3838-.85 2.3423-.85s1.7372.283 2.3363.85c.603.568.9045 1.332.9045 2.295 0 .97-.3015 1.741-.9045 2.312zm-2.3543-.353c.5232 0 .9485-.18 1.276-.539.3315-.36.4972-.833.4972-1.42 0-.583-.1657-1.054-.4972-1.414-.3275-.359-.7528-.539-1.276-.539-.5072 0-.9245.18-1.252.539-.3235.36-.4852.831-.4852 1.414 0 .587.1617 1.06.4852 1.42.3275.359.7448.539 1.252.539zm11.9691-4.984h1.551l-2.114 6.074h-1.378l-1.486-4.229-1.491 4.229h-1.396l-2.0728-6.074h1.5456l1.3362 4.169 1.497-4.169h1.15l1.504 4.163zm9.147 6.188c-.467 0-.898-.064-1.294-.192-.395-.128-.742-.315-1.042-.563-.295-.248-.527-.569-.695-.964-.168-.4-.251-.851-.251-1.354v-5.631h1.557v5.421c0 .639.158 1.114.473 1.426.316.311.733.467 1.252.467.516 0 .933-.156 1.252-.467.324-.316.486-.791.486-1.426v-5.421h1.551v5.631c0 .507-.084.958-.251 1.354-.168.395-.402.716-.701.964-.3.248-.647.435-1.043.563-.391.128-.822.192-1.294.192zm6.686-5.194c.155-.295.415-.545.778-.749.368-.207.763-.313 1.187-.317v1.354c-.651 0-1.131.131-1.438.395-.308.26-.461.707-.461 1.342v3.049h-1.504v-6.068h1.438zm7.242-.994h1.432v5.661c0 1.098-.276 1.919-.827 2.462s-1.32.814-2.306.814c-1.558 0-2.58-.625-3.067-1.875l1.24-.545c.176.42.405.729.689.929.287.203.649.305 1.084.305.559 0 .978-.171 1.258-.515.284-.343.425-.835.425-1.474v-.832c-.183.283-.449.511-.796.683-.348.171-.727.257-1.139.257-.77 0-1.425-.281-1.964-.844-.536-.563-.803-1.284-.803-2.163 0-.439.074-.847.221-1.222.148-.379.348-.695.599-.946.256-.256.554-.456.893-.6.34-.143.697-.215 1.072-.215.432 0 .821.094 1.169.281.351.184.613.43.784.737zm-2.833 4.133c.327.34.729.509 1.204.509s.876-.171 1.204-.515c.327-.347.491-.769.491-1.264s-.164-.914-.491-1.258c-.324-.347-.725-.521-1.204-.521-.483 0-.887.17-1.21.509-.324.336-.486.759-.486 1.27 0 .507.164.931.492 1.27zm11.741-1.198-.024.371h-4.577c.028.544.2.961.516 1.252.315.288.706.432 1.174.432.327 0 .615-.078.862-.234.252-.156.444-.379.575-.671l1.366.222c-.203.591-.555 1.052-1.054 1.384-.499.331-1.078.497-1.737.497-.963 0-1.732-.28-2.307-.839s-.862-1.33-.862-2.312c0-.979.287-1.749.862-2.313.579-.567 1.332-.85 2.259-.85.427 0 .816.064 1.168.192.355.123.665.309.928.557.268.243.476.563.623.958.148.392.224.843.228 1.354zm-2.941-1.983c-.432 0-.787.114-1.067.342-.279.223-.461.561-.545 1.012h3.067c-.04-.439-.191-.775-.455-1.006-.259-.232-.593-.348-1-.348zm7.709-1.072c.695 0 1.236.184 1.624.551.387.363.581.881.581 1.551v4.086h-1.498v-3.762c0-.415-.109-.721-.329-.917-.216-.195-.493-.293-.833-.293-.407 0-.743.124-1.006.371-.26.248-.392.635-.396 1.162v3.439h-1.497v-6.068h1.497v.701c.436-.548 1.055-.821 1.857-.821zm6.662 6.302c-.931 0-1.693-.292-2.288-.875-.596-.583-.893-1.344-.893-2.282 0-.939.297-1.697.893-2.277.595-.579 1.357-.868 2.288-.868.747 0 1.38.19 1.899.569.519.375.856.904 1.012 1.587l-1.384.168c-.107-.371-.297-.653-.569-.845-.267-.191-.591-.287-.97-.287-.495 0-.899.18-1.21.539-.312.36-.467.831-.467 1.414 0 .587.155 1.06.467 1.42.311.355.715.533 1.21.533.379 0 .703-.096.97-.288.272-.192.462-.473.569-.844l1.384.167c-.156.683-.497 1.216-1.024 1.6-.523.379-1.152.569-1.887.569zm7.883-6.182h1.552l-3.672 8.925h-1.522l1.33-3.073-2.45-5.852h1.635l1.528 4.217z"/></g><path d="m276.185 174.916c0 .388-.072.733-.216 1.037-.144.299-.345.545-.605.737-.255.191-.549.339-.88.443-.328.104-.687.166-1.079.186v.766h-.563v-.766c-.771-.044-1.421-.264-1.953-.659-.527-.396-.856-.919-.988-1.57l1.09-.264c.088.44.3.795.635 1.067.336.271.741.433 1.216.485v-3.055l-.06-.018c-.231-.064-.421-.118-.569-.162-.144-.044-.319-.104-.527-.18-.204-.079-.369-.157-.497-.233s-.266-.172-.413-.288c-.144-.116-.258-.239-.342-.371-.08-.136-.148-.294-.204-.473-.052-.184-.077-.384-.077-.599 0-.372.071-.705.215-1.001.144-.299.34-.543.587-.731.248-.187.531-.333.851-.437.323-.104.669-.16 1.036-.168v-.796h.563v.814c.679.064 1.256.266 1.732.605.475.34.78.813.916 1.42l-1.036.27c-.092-.396-.28-.707-.563-.935-.284-.228-.633-.369-1.049-.425v2.875c.184.048.334.09.45.126.115.032.259.076.431.132.176.056.319.11.431.162.116.051.246.117.39.197.147.076.267.154.359.234s.188.176.288.287c.099.112.177.232.233.36.06.124.108.265.144.425.036.156.054.324.054.503zm-4.954-3.929c0 .191.04.361.12.509.079.148.199.273.359.377s.326.19.497.258c.172.068.384.138.635.209v-2.749c-.455.024-.838.152-1.15.383-.307.232-.461.569-.461 1.013zm2.174 5.403c.508-.032.917-.166 1.228-.401.312-.236.464-.583.456-1.043-.004-.207-.048-.391-.132-.551s-.21-.295-.378-.407c-.167-.116-.341-.212-.521-.288-.179-.076-.397-.151-.653-.227zm7.273-7.62h.97v8.435h-1.024v-7.303l-2.025 1.756v-1.109zm8.902 7.854c-.544.463-1.224.695-2.043.695s-1.502-.232-2.049-.695c-.543-.468-.815-1.081-.815-1.839 0-.532.142-.991.426-1.378.283-.388.669-.671 1.156-.851-.348-.172-.625-.411-.833-.719-.203-.311-.305-.659-.305-1.042 0-.623.229-1.134.689-1.534.459-.403 1.036-.605 1.731-.605.683 0 1.252.202 1.707.605.459.404.689.915.689 1.534 0 .383-.1.731-.299 1.042-.2.308-.472.547-.815.719.483.184.866.469 1.15.857.284.383.425.84.425 1.372 0 .762-.271 1.375-.814 1.839zm-2.043-4.409c.403 0 .743-.132 1.018-.396.28-.263.42-.587.42-.97 0-.376-.14-.691-.42-.947-.275-.259-.615-.389-1.018-.389-.411 0-.755.128-1.03.383-.276.256-.414.573-.414.953 0 .383.138.707.414.97.279.264.623.396 1.03.396zm0 4.145c.519 0 .95-.154 1.294-.461.347-.308.521-.715.521-1.222 0-.499-.174-.901-.521-1.204-.344-.304-.775-.456-1.294-.456-.523 0-.959.152-1.306.456-.347.303-.521.705-.521 1.204 0 .507.174.914.521 1.222.347.307.783.461 1.306.461zm6.907.959c-.899 0-1.592-.368-2.079-1.103s-.731-1.813-.731-3.235c0-1.421.24-2.498.719-3.228.483-.731 1.18-1.097 2.091-1.097.902 0 1.595.368 2.079 1.103.483.73.724 1.805.724 3.222 0 1.418-.245 2.496-.736 3.235-.488.735-1.177 1.103-2.067 1.103zm0-.959c.571 0 1.008-.281 1.312-.845.303-.563.455-1.407.455-2.534 0-1.134-.156-1.976-.467-2.528-.308-.555-.741-.832-1.3-.832-.563 0-.999.275-1.306.826-.308.552-.461 1.396-.461 2.534 0 1.131.149 1.977.449 2.54.304.559.743.839 1.318.839zm4.559.965c-.188 0-.352-.068-.492-.204-.135-.136-.203-.3-.203-.491 0-.188.068-.35.203-.486.14-.139.304-.209.492-.209.187 0 .351.07.491.209.14.136.21.298.21.486 0 .191-.07.355-.21.491-.136.136-.3.204-.491.204zm4.079-1.073h4.199v.953h-5.69v-.785l3.378-3.492c.368-.376.621-.709.761-1.001.14-.291.21-.581.21-.869 0-.479-.142-.85-.426-1.114-.283-.267-.651-.401-1.102-.401-.483 0-.869.146-1.156.437-.284.288-.425.739-.425 1.354v.623l-1.037-.096v-.521c0-.875.238-1.542.713-2.001.475-.463 1.11-.695 1.905-.695.743 0 1.352.214 1.827.641.479.428.719 1.011.719 1.75 0 .439-.096.846-.288 1.222-.187.371-.491.774-.91 1.21zm6.913 0h4.199v.953h-5.69v-.785l3.378-3.492c.368-.376.621-.709.761-1.001.14-.291.21-.581.21-.869 0-.479-.142-.85-.426-1.114-.283-.267-.651-.401-1.102-.401-.483 0-.869.146-1.156.437-.284.288-.425.739-.425 1.354v.623l-1.037-.096v-.521c0-.875.238-1.542.713-2.001.475-.463 1.11-.695 1.905-.695.743 0 1.352.214 1.827.641.479.428.719 1.011.719 1.75 0 .439-.096.846-.288 1.222-.187.371-.491.774-.91 1.21z" fill="#898a8d"/><path d="m90.8467 169.406h-3.4265v2.761h3.0192v.965h-3.0192v2.756h3.4265v.976h-4.5228v-8.435h4.5228zm6.1343-1.743h1.0363v9.201h-1.0004l-.024-1.144c-.1877.391-.4672.701-.8386.928-.3714.228-.7868.342-1.2461.342-.3754 0-.7308-.072-1.0663-.216-.3354-.148-.629-.351-.8806-.611-.2476-.264-.4452-.589-.593-.976-.1438-.388-.2157-.809-.2157-1.264 0-.907.2656-1.644.7968-2.211.5351-.567 1.1881-.851 1.9588-.851.4513 0 .8607.112 1.2281.336.3714.22.653.519.8447.899zm-1.8571 8.428c.5431 0 .9984-.205 1.3658-.617.3714-.415.5571-.932.5571-1.551 0-.615-.1857-1.131-.5571-1.546s-.8267-.623-1.3658-.623c-.5471 0-1.0064.202-1.3778.605-.3714.399-.5571.921-.5571 1.564s.1857 1.166.5571 1.569c.3714.399.8307.599 1.3778.599zm5.5351-6.499c-.192 0-.357-.068-.497-.204-.136-.14-.2038-.306-.2038-.497 0-.192.0678-.356.2038-.492.14-.135.305-.203.497-.203.188 0 .35.068.485.203.14.136.21.3.21.492 0 .191-.07.357-.21.497-.135.136-.297.204-.485.204zm-.527 7.272v-5.889h1.042v5.889zm5.032 0c-.487 0-.871-.14-1.15-.419-.28-.284-.42-.677-.42-1.181v-3.462h-1.204v-.827h.444c.307 0 .523-.068.647-.203.127-.14.191-.372.191-.695v-1.067h.965v1.965h1.354v.827h-1.354v3.355c0 .279.074.497.221.653.152.151.35.227.593.227h.54v.827z" fill="#2c7be5"/><path d="m252.384 259.057c-.898 0-1.591-.367-2.078-1.102-.488-.735-.731-1.813-.731-3.235s.239-2.498.719-3.229c.483-.731 1.18-1.096 2.09-1.096.903 0 1.596.367 2.079 1.102.483.731.725 1.805.725 3.223s-.246 2.496-.737 3.235c-.487.735-1.176 1.102-2.067 1.102zm0-.958c.571 0 1.009-.282 1.312-.845.304-.563.455-1.408.455-2.534 0-1.134-.155-1.977-.467-2.528-.307-.555-.741-.832-1.3-.832-.563 0-.998.275-1.306.826-.307.551-.461 1.396-.461 2.534 0 1.13.15 1.977.449 2.54.304.559.743.839 1.318.839zm4.559.964c-.188 0-.351-.068-.491-.203-.136-.136-.204-.3-.204-.492 0-.187.068-.349.204-.485.14-.14.303-.209.491-.209s.351.069.491.209c.14.136.21.298.21.485 0 .192-.07.356-.21.492-.136.135-.299.203-.491.203zm5.445-.006c-.898 0-1.591-.367-2.078-1.102-.488-.735-.731-1.813-.731-3.235s.239-2.498.719-3.229c.483-.731 1.18-1.096 2.09-1.096.903 0 1.596.367 2.079 1.102.483.731.725 1.805.725 3.223s-.246 2.496-.737 3.235c-.487.735-1.176 1.102-2.067 1.102zm0-.958c.571 0 1.009-.282 1.312-.845.304-.563.456-1.408.456-2.534 0-1.134-.156-1.977-.468-2.528-.307-.555-.74-.832-1.3-.832-.563 0-.998.275-1.306.826-.307.551-.461 1.396-.461 2.534 0 1.13.15 1.977.449 2.54.304.559.743.839 1.318.839zm6.913.958c-.898 0-1.591-.367-2.078-1.102-.488-.735-.731-1.813-.731-3.235s.239-2.498.719-3.229c.483-.731 1.18-1.096 2.09-1.096.903 0 1.596.367 2.079 1.102.483.731.725 1.805.725 3.223s-.246 2.496-.737 3.235c-.487.735-1.176 1.102-2.067 1.102zm0-.958c.571 0 1.009-.282 1.312-.845.304-.563.456-1.408.456-2.534 0-1.134-.156-1.977-.468-2.528-.307-.555-.74-.832-1.3-.832-.563 0-.998.275-1.306.826-.307.551-.461 1.396-.461 2.534 0 1.13.15 1.977.45 2.54.303.559.742.839 1.317.839zm6.913.958c-.898 0-1.591-.367-2.078-1.102-.488-.735-.731-1.813-.731-3.235s.239-2.498.719-3.229c.483-.731 1.18-1.096 2.09-1.096.903 0 1.596.367 2.079 1.102.483.731.725 1.805.725 3.223s-.246 2.496-.737 3.235c-.487.735-1.176 1.102-2.067 1.102zm0-.958c.572 0 1.009-.282 1.312-.845.304-.563.456-1.408.456-2.534 0-1.134-.156-1.977-.468-2.528-.307-.555-.74-.832-1.3-.832-.563 0-.998.275-1.306.826-.307.551-.461 1.396-.461 2.534 0 1.13.15 1.977.45 2.54.303.559.742.839 1.317.839zm6.913.958c-.898 0-1.591-.367-2.078-1.102s-.731-1.813-.731-3.235.24-2.498.719-3.229c.483-.731 1.18-1.096 2.09-1.096.903 0 1.596.367 2.079 1.102.483.731.725 1.805.725 3.223s-.246 2.496-.737 3.235c-.487.735-1.176 1.102-2.067 1.102zm0-.958c.572 0 1.009-.282 1.312-.845.304-.563.456-1.408.456-2.534 0-1.134-.156-1.977-.468-2.528-.307-.555-.74-.832-1.3-.832-.563 0-.998.275-1.306.826-.307.551-.461 1.396-.461 2.534 0 1.13.15 1.977.45 2.54.303.559.742.839 1.317.839zm6.913.958c-.898 0-1.591-.367-2.078-1.102s-.731-1.813-.731-3.235.24-2.498.719-3.229c.483-.731 1.18-1.096 2.09-1.096.903 0 1.596.367 2.079 1.102.483.731.725 1.805.725 3.223s-.246 2.496-.737 3.235c-.487.735-1.176 1.102-2.067 1.102zm0-.958c.572 0 1.009-.282 1.312-.845.304-.563.456-1.408.456-2.534 0-1.134-.156-1.977-.468-2.528-.307-.555-.74-.832-1.3-.832-.563 0-.998.275-1.305.826-.308.551-.462 1.396-.462 2.534 0 1.13.15 1.977.45 2.54.303.559.742.839 1.317.839zm6.913.958c-.898 0-1.591-.367-2.078-1.102s-.731-1.813-.731-3.235.24-2.498.719-3.229c.483-.731 1.18-1.096 2.09-1.096.903 0 1.596.367 2.079 1.102.483.731.725 1.805.725 3.223s-.246 2.496-.737 3.235c-.487.735-1.176 1.102-2.067 1.102zm0-.958c.572 0 1.009-.282 1.312-.845.304-.563.456-1.408.456-2.534 0-1.134-.156-1.977-.468-2.528-.307-.555-.74-.832-1.3-.832-.563 0-.998.275-1.305.826-.308.551-.462 1.396-.462 2.534 0 1.13.15 1.977.45 2.54.303.559.742.839 1.317.839zm5.548-.108h4.199v.952h-5.691v-.784l3.379-3.493c.367-.375.621-.709.76-1 .14-.292.21-.581.21-.869 0-.479-.142-.85-.425-1.114-.284-.268-.651-.401-1.102-.401-.484 0-.869.145-1.157.437-.283.288-.425.739-.425 1.354v.623l-1.036-.096v-.521c0-.875.237-1.542.713-2.001.475-.463 1.11-.695 1.905-.695.742 0 1.351.214 1.827.641.479.427.718 1.01.718 1.749 0 .44-.095.847-.287 1.222-.188.372-.491.775-.911 1.21zm11.19-1.857c.008.563-.12 1.068-.384 1.516-.263.447-.617.79-1.06 1.03s-.93.359-1.462.359c-.834 0-1.533-.263-2.096-.79-.563-.532-.845-1.214-.845-2.049 0-.703.244-1.378.731-2.025l2.821-3.666h1.223l-2.343 2.953c.236-.068.479-.102.731-.102.463 0 .895.108 1.294.324s.729.539.988.97c.26.428.394.921.402 1.48zm-2.93 1.941c.564 0 1.025-.178 1.384-.533.364-.36.541-.835.533-1.426-.008-.599-.193-1.072-.557-1.42-.363-.351-.822-.527-1.377-.527-.556 0-1.015.194-1.378.581-.364.384-.541.853-.533 1.408.004.599.183 1.068.539 1.408.359.339.822.509 1.389.509z" fill="#000"/><path d="m91.1103 251.396h-3.3487v2.228h2.8994v1.372h-2.8994v3.606h-1.5755v-8.584h4.9242zm6.7213 4.073-.024.372h-4.5767c.028.543.1997.96.5152 1.252.3155.287.7069.431 1.1741.431.3275 0 .6151-.078.8627-.234.2516-.155.4433-.379.575-.671l1.3659.222c-.2037.591-.5551 1.052-1.0544 1.384-.4992.331-1.0782.497-1.7372.497-.9625 0-1.7312-.28-2.3063-.839s-.8627-1.33-.8627-2.312c0-.978.2876-1.749.8627-2.312.5791-.567 1.3319-.851 2.2584-.851.4273 0 .8167.064 1.1681.192.3555.124.665.309.9286.557.2675.243.4752.563.623.958.1477.392.2236.843.2276 1.354zm-2.9413-1.983c-.4313 0-.7868.114-1.0663.342-.2796.223-.4613.561-.5452 1.012h3.0672c-.04-.439-.1917-.775-.4553-1.006-.2596-.232-.5931-.348-1.0004-.348zm9.9377 1.983-.023.372h-4.577c.028.543.199.96.515 1.252.315.287.707.431 1.174.431.328 0 .615-.078.863-.234.251-.155.443-.379.575-.671l1.366.222c-.204.591-.555 1.052-1.055 1.384-.499.331-1.078.497-1.737.497-.962 0-1.731-.28-2.3062-.839-.5751-.559-.8627-1.33-.8627-2.312 0-.978.2876-1.749.8627-2.312.5792-.567 1.3322-.851 2.2582-.851.427 0 .817.064 1.168.192.356.124.665.309.929.557.267.243.475.563.623.958.148.392.223.843.227 1.354zm-2.941-1.983c-.431 0-.787.114-1.066.342-.28.223-.461.561-.545 1.012h3.067c-.04-.439-.192-.775-.455-1.006-.26-.232-.593-.348-1.001-.348z" fill="#000"/><path d="m289.098 276.08c0 .387-.072.732-.216 1.036-.143.299-.345.545-.605.737-.255.191-.549.339-.88.443-.328.104-.687.166-1.078.186v.767h-.564v-.767c-.77-.044-1.421-.264-1.952-.659-.528-.396-.857-.919-.989-1.57l1.09-.263c.088.439.3.794.635 1.066.336.272.741.433 1.216.485v-3.055l-.059-.018c-.232-.064-.422-.118-.57-.162-.143-.044-.319-.103-.527-.179-.203-.08-.369-.158-.497-.234s-.265-.172-.413-.288c-.144-.115-.258-.239-.342-.371-.08-.136-.147-.293-.203-.473-.052-.184-.078-.384-.078-.599 0-.372.072-.705.215-1.001.144-.299.34-.543.587-.73.248-.188.532-.334.851-.438.324-.104.669-.16 1.036-.167v-.797h.564v.814c.678.064 1.256.266 1.731.606.475.339.781.812.916 1.419l-1.036.27c-.092-.396-.28-.707-.563-.935-.284-.227-.633-.369-1.048-.425v2.875c.183.048.333.09.449.126.116.032.259.076.431.132.176.056.32.11.431.162.116.052.246.118.39.197.148.076.267.154.359.234s.188.176.288.288c.1.111.178.231.233.359.06.124.108.266.144.425.036.156.054.324.054.504zm-4.954-3.93c0 .192.04.361.12.509s.2.274.359.377c.16.104.326.19.497.258.172.068.384.138.635.21v-2.75c-.455.024-.838.152-1.15.383-.307.232-.461.57-.461 1.013zm2.175 5.403c.507-.032.916-.166 1.228-.401.311-.236.463-.583.455-1.042-.004-.208-.048-.392-.132-.552-.084-.159-.21-.295-.377-.407-.168-.116-.342-.212-.521-.288-.18-.075-.398-.151-.653-.227zm7.272-7.62h.97v8.435h-1.024v-7.302l-2.025 1.755v-1.108zm5.361 8.555c-.187 0-.351-.068-.491-.204-.136-.136-.203-.299-.203-.491 0-.188.067-.35.203-.485.14-.14.304-.21.491-.21.188 0 .352.07.492.21.139.135.209.297.209.485 0 .192-.07.355-.209.491-.136.136-.3.204-.492.204zm4.08-1.073h4.199v.953h-5.691v-.785l3.379-3.492c.367-.376.621-.709.761-1.001.14-.291.209-.581.209-.868 0-.48-.141-.851-.425-1.115-.283-.267-.651-.401-1.102-.401-.483 0-.869.146-1.156.437-.284.288-.426.739-.426 1.354v.623l-1.036-.096v-.521c0-.874.238-1.541.713-2.001.475-.463 1.11-.694 1.905-.694.743 0 1.352.213 1.827.641.479.427.719 1.01.719 1.749 0 .439-.096.846-.288 1.222-.187.371-.491.775-.91 1.21zm6.913 0h4.199v.953h-5.691v-.785l3.379-3.492c.367-.376.621-.709.761-1.001.14-.291.209-.581.209-.868 0-.48-.141-.851-.425-1.115-.283-.267-.651-.401-1.102-.401-.483 0-.869.146-1.156.437-.284.288-.426.739-.426 1.354v.623l-1.036-.096v-.521c0-.874.238-1.541.713-2.001.475-.463 1.11-.694 1.905-.694.743 0 1.352.213 1.827.641.479.427.719 1.01.719 1.749 0 .439-.096.846-.288 1.222-.187.371-.491.775-.91 1.21z" fill="#898a8d"/><path d="m90.8467 270.569h-3.4265v2.762h3.0192v.964h-3.0192v2.756h3.4265v.976h-4.5228v-8.434h4.5228zm6.1343-1.743h1.0363v9.201h-1.0004l-.024-1.144c-.1877.392-.4672.701-.8386.929-.3714.227-.7868.341-1.2461.341-.3754 0-.7308-.072-1.0663-.216-.3354-.147-.629-.351-.8806-.611-.2476-.263-.4452-.589-.593-.976-.1438-.387-.2157-.809-.2157-1.264 0-.907.2656-1.643.7968-2.21.5351-.568 1.1881-.851 1.9588-.851.4513 0 .8607.112 1.2281.335.3714.22.653.52.8447.899zm-1.8571 8.429c.5431 0 .9984-.206 1.3658-.617.3714-.416.5571-.933.5571-1.552 0-.615-.1857-1.13-.5571-1.546-.3714-.415-.8267-.623-1.3658-.623-.5471 0-1.0064.202-1.3778.606-.3714.399-.5571.92-.5571 1.563s.1857 1.166.5571 1.57c.3714.399.8307.599 1.3778.599zm5.5351-6.5c-.192 0-.357-.068-.497-.204-.136-.14-.2038-.305-.2038-.497s.0678-.355.2038-.491c.14-.136.305-.204.497-.204.188 0 .35.068.485.204.14.136.21.299.21.491s-.07.357-.21.497c-.135.136-.297.204-.485.204zm-.527 7.272v-5.888h1.042v5.888zm5.032 0c-.487 0-.871-.139-1.15-.419-.28-.284-.42-.677-.42-1.18v-3.463h-1.204v-.826h.444c.307 0 .523-.068.647-.204.127-.14.191-.371.191-.695v-1.066h.965v1.965h1.354v.826h-1.354v3.355c0 .28.074.497.221.653.152.152.35.228.593.228h.54v.826z" fill="#2c7be5"/><path d="m252.384 310.07c-.898 0-1.591-.367-2.078-1.102-.488-.735-.731-1.813-.731-3.235s.239-2.498.719-3.229c.483-.731 1.18-1.096 2.09-1.096.903 0 1.596.367 2.079 1.102.483.731.725 1.805.725 3.223s-.246 2.496-.737 3.235c-.487.735-1.176 1.102-2.067 1.102zm0-.958c.571 0 1.009-.282 1.312-.845.304-.563.455-1.408.455-2.534 0-1.134-.155-1.977-.467-2.528-.307-.555-.741-.833-1.3-.833-.563 0-.998.276-1.306.827-.307.551-.461 1.396-.461 2.534 0 1.13.15 1.977.449 2.54.304.559.743.839 1.318.839zm4.559.964c-.188 0-.351-.068-.491-.204-.136-.135-.204-.299-.204-.491 0-.187.068-.349.204-.485.14-.14.303-.21.491-.21s.351.07.491.21c.14.136.21.298.21.485 0 .192-.07.356-.21.491-.136.136-.299.204-.491.204zm5.385-.006c-1.873 0-2.809-1-2.809-3.001l1.054-.054c0 .707.132 1.236.396 1.587.263.352.717.528 1.359.528.54 0 .975-.152 1.306-.456.336-.303.504-.701.504-1.192 0-.499-.162-.894-.486-1.186-.319-.291-.72-.437-1.204-.437h-.419v-.881h.407c.36 0 .667-.13.923-.389.255-.26.383-.579.383-.959 0-.379-.136-.689-.407-.928-.272-.24-.613-.36-1.024-.36-.264 0-.49.042-.677.126-.184.084-.326.208-.426.372-.1.159-.171.337-.215.533-.044.195-.066.423-.066.683l-1.055-.036c0-.839.21-1.484.629-1.935.424-.451 1.025-.677 1.804-.677.69 0 1.266.206 1.725.617.463.411.695.922.695 1.533 0 .416-.112.781-.336 1.097-.223.315-.505.543-.844.683.483.139.878.397 1.186.772.307.376.461.849.461 1.42 0 .759-.27 1.372-.809 1.839-.535.467-1.22.701-2.055.701zm6.776-5.541c1.026 0 1.793.238 2.3.713.507.471.761 1.13.761 1.977 0 .838-.262 1.523-.785 2.054-.519.528-1.2.791-2.043.791-.371 0-.725-.056-1.06-.168-.331-.115-.629-.279-.893-.491-.259-.215-.467-.493-.623-.833-.151-.339-.227-.718-.227-1.138 0-.116.01-.259.03-.431l1.06-.09c-.032.232-.048.39-.048.473 0 .296.05.557.15.785.104.228.242.407.413.539.172.128.356.224.551.288.2.064.41.096.629.096.544 0 .979-.172 1.306-.516.332-.343.498-.784.498-1.323 0-.564-.172-1.007-.516-1.33-.339-.324-.878-.486-1.617-.486h-2.133l.521-3.905h4.421v.964h-3.546l-.275 2.031zm10.022 2.618c.008.563-.12 1.068-.384 1.515-.263.448-.617.791-1.06 1.031-.443.239-.93.359-1.462.359-.834 0-1.533-.263-2.096-.791-.563-.531-.845-1.214-.845-2.048 0-.703.244-1.378.731-2.025l2.821-3.666h1.222l-2.342 2.953c.236-.068.479-.102.731-.102.463 0 .895.108 1.294.324.399.215.729.539.988.97.26.427.394.921.402 1.48zm-2.93 1.941c.564 0 1.025-.178 1.384-.533.364-.36.541-.835.533-1.426-.008-.599-.193-1.073-.557-1.42-.363-.351-.822-.527-1.378-.527-.555 0-1.014.194-1.377.581-.364.383-.541.853-.533 1.408.004.599.183 1.068.539 1.407.359.34.822.51 1.389.51zm6.734-4.559c1.026 0 1.793.238 2.3.713.507.471.761 1.13.761 1.977 0 .838-.262 1.523-.785 2.054-.519.528-1.2.791-2.043.791-.371 0-.724-.056-1.06-.168-.331-.115-.629-.279-.893-.491-.259-.215-.467-.493-.623-.833-.151-.339-.227-.718-.227-1.138 0-.116.01-.259.03-.431l1.06-.09c-.032.232-.048.39-.048.473 0 .296.05.557.15.785.104.228.242.407.413.539.172.128.356.224.551.288.2.064.41.096.629.096.544 0 .979-.172 1.306-.516.332-.343.498-.784.498-1.323 0-.564-.172-1.007-.516-1.33-.339-.324-.878-.486-1.617-.486h-2.133l.521-3.905h4.421v.964h-3.546l-.275 2.031zm7.17-3.007h.971v8.434h-1.025v-7.302l-2.024 1.755v-1.108zm8.902 7.853c-.543.463-1.224.695-2.043.695-.818 0-1.501-.232-2.048-.695-.543-.467-.815-1.08-.815-1.839 0-.531.142-.99.425-1.378.284-.387.669-.671 1.156-.85-.347-.172-.625-.412-.832-.719-.204-.312-.306-.659-.306-1.043 0-.623.23-1.134.689-1.533.459-.403 1.037-.605 1.731-.605.683 0 1.252.202 1.708.605.459.403.689.914.689 1.533 0 .384-.1.731-.3 1.043-.2.307-.471.547-.815.719.484.183.867.469 1.151.856.283.384.425.841.425 1.372 0 .763-.272 1.376-.815 1.839zm-2.043-4.409c.404 0 .743-.132 1.019-.395.279-.264.419-.587.419-.971 0-.375-.14-.69-.419-.946-.276-.26-.615-.389-1.019-.389-.411 0-.754.127-1.03.383-.275.256-.413.573-.413.952 0 .384.138.707.413.971.28.263.623.395 1.03.395zm0 4.146c.52 0 .951-.154 1.294-.462.348-.307.522-.714.522-1.222 0-.499-.174-.9-.522-1.204-.343-.303-.774-.455-1.294-.455-.523 0-.958.152-1.305.455-.348.304-.522.705-.522 1.204 0 .508.174.915.522 1.222.347.308.782.462 1.305.462zm10.1-1.803v.952h-1.3v1.695h-1.036v-1.695h-4.037v-.958l3.51-5.781h1.563v5.787zm-5.301 0h2.965v-5.027zm7.656 1.695h4.199v.952h-5.691v-.784l3.379-3.493c.367-.375.621-.709.76-1 .14-.292.21-.581.21-.869 0-.479-.142-.851-.425-1.114-.284-.268-.651-.402-1.102-.402-.484 0-.869.146-1.157.438-.283.287-.425.739-.425 1.354v.623l-1.036-.096v-.521c0-.875.237-1.542.713-2.001.475-.463 1.11-.695 1.905-.695.742 0 1.351.214 1.827.641.479.427.718 1.01.718 1.749 0 .439-.095.847-.287 1.222-.188.372-.491.775-.911 1.21z" fill="#000"/><path d="m91.0084 301.032v1.377h-2.0966v7.207h-1.5396v-7.207h-2.1026v-1.377zm5.3136 7.853c-.603.567-1.3818.851-2.3363.851s-1.7332-.284-2.3363-.851c-.603-.571-.9045-1.342-.9045-2.312 0-.963.2995-1.727.8985-2.295.6031-.567 1.3838-.85 2.3423-.85s1.7373.283 2.3363.85c.603.568.9046 1.332.9046 2.295 0 .97-.3016 1.741-.9046 2.312zm-2.3543-.353c.5232 0 .9485-.18 1.276-.539.3315-.36.4972-.833.4972-1.42 0-.583-.1657-1.055-.4972-1.414-.3275-.359-.7528-.539-1.276-.539-.5072 0-.9245.18-1.252.539-.3235.359-.4852.831-.4852 1.414 0 .587.1617 1.06.4852 1.42.3275.359.7448.539 1.252.539zm6.8113 1.084c-.563 0-1.0005-.158-1.312-.473-.3115-.32-.4673-.767-.4673-1.342v-3.097h-1.204v-1.156h.4073c.3315 0 .5731-.08.7249-.24.1517-.16.2276-.441.2276-.845v-.892h1.3595v1.977h1.294v1.156h-1.294v2.935c0 .276.066.483.198.623.132.136.316.204.551.204h.545v1.15zm7.171-1.701c0 .691.051 1.204.155 1.539v.162h-1.419l-.144-.683c-.22.268-.505.469-.857.605-.347.132-.711.198-1.09.198-.252 0-.485-.032-.701-.096-.216-.06-.413-.154-.593-.282-.18-.127-.322-.303-.425-.527-.1-.223-.15-.483-.15-.779 0-.303.052-.567.156-.79.103-.224.259-.408.467-.551.211-.148.441-.268.689-.36.247-.092.547-.174.898-.245l1.013-.21c.203-.044.349-.106.437-.186s.132-.188.132-.323c0-.164-.032-.306-.096-.426-.064-.123-.152-.217-.264-.281-.107-.068-.225-.116-.353-.144-.128-.032-.264-.048-.407-.048-.739 0-1.159.328-1.258.983l-1.33-.252c.235-1.19 1.124-1.785 2.665-1.785.26 0 .502.018.725.054.224.036.446.104.665.203.224.1.412.228.563.384.156.156.282.363.378.623.096.259.144.559.144.898zm-2.894.784c.483 0 .859-.157 1.126-.473.272-.315.408-.801.408-1.456l-1.474.378c-.315.068-.555.164-.719.287-.16.12-.239.292-.239.516 0 .243.083.429.251.557s.384.191.647.191zm4.685.917v-9.201h1.509v9.201z" fill="#000"/><path d="m275.641 327.094c0 .387-.072.732-.216 1.036-.143.299-.345.545-.605.737-.255.191-.549.339-.88.443-.328.104-.687.166-1.079.186v.767h-.563v-.767c-.77-.044-1.421-.264-1.953-.659-.527-.396-.856-.919-.988-1.57l1.09-.263c.088.439.3.794.635 1.066.336.272.741.433 1.216.485v-3.055l-.06-.018c-.231-.064-.421-.118-.569-.162-.143-.044-.319-.103-.527-.179-.204-.08-.369-.158-.497-.234s-.266-.172-.413-.287c-.144-.116-.258-.24-.342-.372-.08-.136-.148-.293-.204-.473-.051-.184-.077-.384-.077-.599 0-.372.071-.705.215-1.001.144-.299.34-.543.587-.73.248-.188.531-.334.851-.438.323-.104.669-.159 1.036-.167v-.797h.563v.815c.679.063 1.256.265 1.732.605.475.339.78.812.916 1.419l-1.036.27c-.092-.396-.28-.707-.563-.935-.284-.227-.633-.369-1.049-.425v2.875c.184.048.334.09.45.126.116.032.259.076.431.132.176.056.32.11.431.162.116.052.246.118.39.197.148.076.267.154.359.234s.188.176.288.288c.1.111.177.231.233.359.06.124.108.266.144.425.036.156.054.324.054.504zm-4.954-3.93c0 .192.04.361.12.509s.199.274.359.377c.16.104.326.19.497.258.172.068.384.138.635.21v-2.75c-.455.024-.838.152-1.15.383-.307.232-.461.57-.461 1.013zm2.174 5.403c.508-.032.917-.165 1.228-.401.312-.236.464-.583.456-1.042-.004-.208-.048-.392-.132-.552-.084-.159-.21-.295-.377-.407-.168-.116-.342-.212-.522-.287-.179-.076-.397-.152-.653-.228zm7.273-7.62h.97v8.435h-1.024v-7.302l-2.025 1.755v-1.108zm8.902 7.854c-.543.463-1.224.695-2.043.695s-1.502-.232-2.049-.695c-.543-.467-.814-1.08-.814-1.839 0-.531.141-.991.425-1.378.283-.387.669-.671 1.156-.851-.347-.171-.625-.411-.833-.719-.203-.311-.305-.658-.305-1.042 0-.623.229-1.134.689-1.533.459-.404 1.036-.605 1.731-.605.683 0 1.252.201 1.707.605.46.403.689.914.689 1.533 0 .384-.1.731-.299 1.042-.2.308-.472.548-.815.719.483.184.867.47 1.15.857.284.383.425.841.425 1.372 0 .763-.271 1.376-.814 1.839zm-2.043-4.409c.403 0 .743-.132 1.018-.395.28-.264.42-.588.42-.971 0-.375-.14-.691-.42-.946-.275-.26-.615-.39-1.018-.39-.411 0-.755.128-1.03.384-.276.255-.414.573-.414.952 0 .383.138.707.414.971.279.263.623.395 1.03.395zm0 4.145c.519 0 .95-.153 1.294-.461.347-.307.521-.715.521-1.222 0-.499-.174-.901-.521-1.204-.344-.304-.775-.455-1.294-.455-.523 0-.959.151-1.306.455-.347.303-.521.705-.521 1.204 0 .507.174.915.521 1.222.347.308.783.461 1.306.461zm6.967-7.59h.97v8.435h-1.024v-7.302l-2.025 1.755v-1.108zm5.361 8.555c-.187 0-.351-.068-.491-.204-.136-.136-.204-.299-.204-.491 0-.188.068-.35.204-.485.14-.14.304-.21.491-.21.188 0 .352.07.492.21.139.135.209.297.209.485 0 .192-.07.355-.209.491-.136.136-.3.204-.492.204zm8.639-2.768v.953h-1.3v1.695h-1.037v-1.695h-4.037v-.959l3.51-5.781h1.564v5.787zm-5.302 0h2.965v-5.026zm12.215 0v.953h-1.3v1.695h-1.037v-1.695h-4.037v-.959l3.51-5.781h1.564v5.787zm-5.302 0h2.965v-5.026z" fill="#898a8d"/><rect fill="#f7931a" height="31" rx="3.408" width="227" x="86" y="342"/><path d="m184.616 356.521c-.305-1.908-1.8-3.023-3.686-3.023-2.309 0-4.013 1.729-4.013 4.583s1.695 4.583 4.013 4.583c1.96 0 3.394-1.228 3.686-2.993l-1.36-.004c-.231 1.141-1.189 1.769-2.317 1.769-1.53 0-2.684-1.172-2.684-3.355 0-2.165 1.15-3.355 2.688-3.355 1.137 0 2.091.641 2.313 1.795zm4.325 6.156c1.886 0 3.119-1.381 3.119-3.45 0-2.083-1.233-3.464-3.119-3.464-1.887 0-3.12 1.381-3.12 3.464 0 2.069 1.233 3.45 3.12 3.45zm.004-1.093c-1.233 0-1.808-1.076-1.808-2.362 0-1.281.575-2.37 1.808-2.37 1.224 0 1.799 1.089 1.799 2.37 0 1.286-.575 2.362-1.799 2.362zm5.872-3.015c0-1.068.653-1.677 1.56-1.677.884 0 1.42.579 1.42 1.551v4.099h1.302v-4.256c0-1.656-.91-2.523-2.278-2.523-1.007 0-1.664.466-1.974 1.176h-.082v-1.089h-1.251v6.692h1.303zm9.214-2.719h-1.442v-.601c0-.592.244-.915.88-.915.27 0 .462.061.584.1l.305-1.054c-.183-.07-.562-.179-1.089-.179-1.059 0-1.987.619-1.987 1.874v.775h-1.032v1.046h1.032v5.646h1.307v-5.646h1.442zm1.344 6.692h1.303v-6.692h-1.303zm.658-7.724c.449 0 .824-.349.824-.776s-.375-.78-.824-.78c-.453 0-.823.353-.823.78s.37.776.823.776zm2.397 7.724h1.303v-4.086c0-.876.675-1.508 1.599-1.508.27 0 .575.048.68.079v-1.246c-.131-.018-.388-.031-.554-.031-.784 0-1.455.444-1.699 1.163h-.069v-1.063h-1.26zm4.709 0h1.303v-4.126c0-.901.631-1.529 1.372-1.529.723 0 1.224.479 1.224 1.207v4.448h1.299v-4.265c0-.806.492-1.39 1.341-1.39.689 0 1.255.384 1.255 1.29v4.365h1.303v-4.487c0-1.529-.854-2.292-2.065-2.292-.963 0-1.686.462-2.009 1.176h-.069c-.292-.731-.907-1.176-1.8-1.176-.884 0-1.542.44-1.821 1.176h-.083v-1.089h-1.25z" fill="#fff"/><path d="m187.613 389.979c-.305-1.908-1.799-3.024-3.686-3.024-2.309 0-4.012 1.73-4.012 4.584 0 2.853 1.695 4.583 4.012 4.583 1.961 0 3.394-1.229 3.686-2.993l-1.359-.004c-.231 1.141-1.189 1.768-2.318 1.768-1.529 0-2.684-1.172-2.684-3.354 0-2.166 1.151-3.355 2.689-3.355 1.137 0 2.091.64 2.313 1.795zm3.454 6.169c1.107 0 1.73-.562 1.978-1.063h.052v.915h1.272v-4.444c0-1.947-1.533-2.335-2.596-2.335-1.211 0-2.327.488-2.762 1.708l1.224.279c.192-.475.68-.933 1.555-.933.841 0 1.272.44 1.272 1.198v.031c0 .475-.488.466-1.69.605-1.268.149-2.566.48-2.566 2 0 1.316.989 2.039 2.261 2.039zm.283-1.045c-.736 0-1.268-.332-1.268-.976 0-.697.619-.946 1.373-1.046.422-.057 1.424-.17 1.612-.357v.862c0 .793-.632 1.517-1.717 1.517zm6.057-3.076c0-1.068.654-1.678 1.56-1.678.884 0 1.42.58 1.42 1.551v4.1h1.303v-4.257c0-1.655-.911-2.522-2.279-2.522-1.006 0-1.664.466-1.973 1.176h-.083v-1.089h-1.251v6.692h1.303zm8.849 4.108c1.581 0 2.605-.95 2.749-2.252h-1.268c-.166.723-.728 1.15-1.473 1.15-1.102 0-1.812-.919-1.812-2.379 0-1.433.723-2.335 1.812-2.335.828 0 1.333.523 1.473 1.15h1.268c-.14-1.351-1.242-2.248-2.762-2.248-1.887 0-3.107 1.42-3.107 3.464 0 2.017 1.177 3.45 3.12 3.45zm7.026 0c1.459 0 2.492-.719 2.788-1.808l-1.233-.222c-.235.632-.801.954-1.542.954-1.115 0-1.865-.723-1.9-2.013h4.758v-.462c0-2.418-1.446-3.363-2.963-3.363-1.864 0-3.093 1.42-3.093 3.477 0 2.078 1.211 3.437 3.185 3.437zm-1.882-4.065c.052-.95.74-1.773 1.799-1.773 1.011 0 1.673.749 1.677 1.773zm7.501-4.993h-1.303v8.923h1.303z" fill="#000"/><path d="m.5.5h399v399h-399z" stroke="#000"/></svg>