<svg fill="none" height="400" viewBox="0 0 400 400" width="400" xmlns="http://www.w3.org/2000/svg" xmlns:xlink="http://www.w3.org/1999/xlink"><clipPath id="a"><path d="m67 254.042h265v16h-265z"/></clipPath><clipPath id="b"><path d="m67 275.042h265v16h-265z"/></clipPath><clipPath id="c"><path d="m67 296.042h265v16h-265z"/></clipPath><path d="m.5.5h399v399h-399z" fill="#95edf7"/><rect fill="#fbfbfb" height="322.042" rx="3.882" width="305" x="47.5" y="38.5"/><path d="m74.54 62.2041h1.7774v9.7959h-1.7774v-4.1289h-4.4023v4.1289h-1.7842v-9.7959h1.7842v4.1084h4.4023zm9.96 8.9619c-.6882.6472-1.5768.9707-2.666.9707s-1.9779-.3235-2.666-.9707c-.6882-.6517-1.0323-1.5312-1.0323-2.6387 0-1.0983.3418-1.971 1.0254-2.6181.6882-.6472 1.5791-.9707 2.6729-.9707 1.0937 0 1.9824.3235 2.666.9707.6882.6471 1.0322 1.5198 1.0322 2.6181 0 1.1075-.344 1.987-1.0322 2.6387zm-2.6865-.4033c.597 0 1.0823-.2051 1.456-.6152.3783-.4102.5674-.9502.5674-1.6202 0-.6653-.1891-1.2031-.5674-1.6132-.3737-.4102-.859-.6153-1.456-.6153-.5788 0-1.055.2051-1.4287.6153-.3692.4101-.5537.9479-.5537 1.6132 0 .67.1845 1.21.5537 1.6202.3737.4101.8499.6152 1.4287.6152zm13.6582-5.6875h1.7705l-2.4131 6.9316h-1.5723l-1.6953-4.8261-1.7021 4.8261h-1.5928l-2.3652-6.9316h1.7636l1.5245 4.7578 1.7089-4.7578h1.3125l1.7159 4.751zm11.1223 0h1.709v6.9248h-1.62l-.048-.8545c-.233.319-.536.5651-.909.7383-.37.1686-.787.2529-1.251.2529-.798 0-1.418-.2073-1.86-.6221-.437-.4192-.656-1.0117-.656-1.7773v-4.6621h1.709v4.293c0 .4694.123.818.369 1.0459.251.2233.572.3349.964.3349.465 0 .845-.1413 1.142-.4238.296-.2826.446-.7246.451-1.3262zm5.51 1.1348c.177-.3373.473-.6221.888-.8545.419-.237.871-.3578 1.354-.3623v1.5449c-.743 0-1.29.1504-1.641.4512-.351.2962-.526.8066-.526 1.5312v3.4795h-1.716v-6.9248h1.641zm8.264-1.1348h1.634v6.46c0 1.2532-.314 2.1897-.943 2.8095s-1.507.9297-2.632.9297c-1.778 0-2.944-.7132-3.5-2.1396l1.415-.6221c.2.4785.462.8317.786 1.0596.328.2324.74.3486 1.237.3486.638 0 1.117-.196 1.436-.5879.323-.3919.485-.9525.485-1.6816v-.9502c-.21.3235-.513.5833-.909.7793-.397.1959-.829.2939-1.299.2939-.879 0-1.627-.3213-2.242-.9639-.611-.6425-.916-1.4651-.916-2.4677 0-.5013.084-.9662.253-1.3946.168-.4329.396-.7929.683-1.08.292-.2917.632-.5196 1.019-.6836.387-.1641.795-.2461 1.224-.2461.492 0 .936.1071 1.333.3213.401.2096.699.4899.895.8408zm-3.233 4.7168c.373.3874.831.581 1.374.581.542 0 1-.1959 1.374-.5878.374-.3965.56-.8773.56-1.4424s-.186-1.0436-.56-1.4356c-.369-.3965-.827-.5947-1.374-.5947-.552 0-1.012.1937-1.381.5811-.369.3828-.554.8658-.554 1.4492 0 .5787.187 1.0618.561 1.4492zm13.398-1.3672-.027.4238h-5.223c.032.6198.228 1.0961.588 1.4287.36.3282.807.4922 1.34.4922.374 0 .702-.0888.984-.2666.287-.1777.506-.4329.657-.7656l1.558.2529c-.232.6745-.633 1.2009-1.203 1.5791-.57.3783-1.23.5674-1.982.5674-1.099 0-1.976-.319-2.632-.957s-.985-1.5176-.985-2.6387c0-1.1165.329-1.9961.985-2.6387.661-.6471 1.52-.9707 2.577-.9707.488 0 .932.073 1.333.2188.406.1413.759.3532 1.059.6357.306.278.543.6426.711 1.0938.169.4466.256.9616.26 1.5449zm-3.356-2.2627c-.492 0-.898.1299-1.217.3897-.319.2552-.526.6403-.622 1.1552h3.5c-.046-.5013-.219-.8841-.52-1.1484-.296-.2643-.676-.3965-1.141-.3965zm8.798-1.2236c.793 0 1.41.2096 1.852.6289.442.4147.663 1.0049.663 1.7705v4.6621h-1.709v-4.293c0-.4739-.125-.8226-.376-1.0459-.246-.2233-.563-.3349-.95-.3349-.465 0-.848.1412-1.148.4238-.297.2826-.447.7246-.452 1.3262v3.9238h-1.709v-6.9248h1.709v.7998c.497-.6243 1.204-.9365 2.12-.9365zm7.013 7.0615c-.642 0-1.141-.18-1.497-.54-.355-.3646-.533-.875-.533-1.5313v-3.5342h-1.374v-1.3193h.465c.378 0 .654-.0912.827-.2734.173-.1823.26-.5036.26-.9639v-1.0186h1.552v2.2559h1.476v1.3193h-1.476v3.3496c0 .3145.075.5515.225.711.15.1549.36.2324.629.2324h.622v1.3125zm7.274-8.1553c-.283 0-.524-.1002-.725-.3008-.2-.2005-.301-.4397-.301-.7177 0-.2826.101-.5218.301-.7178.201-.2005.442-.3008.725-.3008.278 0 .517.1003.717.3008.201.196.301.4352.301.7178 0 .278-.102.5172-.307.7177-.201.2006-.438.3008-.711.3008zm-.875 8.1553v-6.9248h1.716v6.9248zm6.241.1367c-.788 0-1.445-.164-1.969-.4922-.524-.3281-.845-.8066-.964-1.4355l1.443-.4102c.091.3783.266.6608.526.8477.26.1823.581.2734.964.2734.314 0 .579-.0638.793-.1914.219-.1276.326-.3349.321-.6221-.004-.1458-.043-.2711-.116-.3759-.068-.1094-.182-.2028-.342-.2803-.159-.0775-.31-.139-.451-.1846-.141-.0501-.344-.1116-.608-.1845-.265-.0775-.477-.1436-.636-.1983-.196-.0638-.369-.1276-.52-.1914-.145-.0638-.298-.1481-.458-.2529-.159-.1094-.289-.2279-.389-.3555-.101-.1276-.185-.2848-.253-.4717-.064-.1914-.096-.401-.096-.6289 0-.6699.244-1.1758.731-1.5176.488-.3463 1.119-.5195 1.894-.5195.706 0 1.299.1504 1.777.4512.479.2962.777.7542.896 1.374l-1.333.3076c-.178-.6471-.622-.9707-1.333-.9707-.301 0-.554.0615-.759.1846-.205.123-.308.3053-.308.5469 0 .0683.007.1321.021.1914.018.0547.048.1071.089.1572.045.0501.089.0934.13.1299.041.0364.1.0752.177.1162.078.0365.144.0661.199.0889.054.0227.136.0501.246.082.109.0319.193.057.253.0752.064.0137.159.0364.287.0683.127.0319.223.057.287.0752.255.0684.472.1345.649.1983.183.0638.383.1549.602.2734s.394.2507.526.3965c.132.1413.244.3259.335.5537.096.2279.144.4831.144.7656 0 .3008-.05.572-.151.8135-.095.2416-.23.4444-.403.6084-.169.1595-.371.294-.608.4033-.237.1049-.488.1801-.752.2256-.26.0502-.54.0752-.841.0752zm10.425-.1367c-.643 0-1.142-.18-1.497-.54-.356-.3646-.534-.875-.534-1.5313v-3.5342h-1.374v-1.3193h.465c.379 0 .654-.0912.827-.2734.174-.1823.26-.5036.26-.9639v-1.0186h1.552v2.2559h1.477v1.3193h-1.477v3.3496c0 .3145.075.5515.226.711.15.1549.36.2324.628.2324h.623v1.3125zm6.665-7.0615c.765 0 1.362.2187 1.791.6562.433.433.649 1.0664.649 1.9004v4.5049h-1.709v-4.2109c0-.5105-.123-.8819-.369-1.1143s-.57-.3486-.971-.3486c-.446 0-.822.139-1.128.417-.3.278-.453.7223-.458 1.333v3.9238h-1.709v-10.5h1.709v4.4297c.511-.6608 1.242-.9912 2.195-.9912zm5.339-1.0938c-.283 0-.524-.1002-.725-.3008-.2-.2005-.301-.4397-.301-.7177 0-.2826.101-.5218.301-.7178.201-.2005.442-.3008.725-.3008.278 0 .517.1003.717.3008.201.196.301.4352.301.7178 0 .278-.102.5172-.307.7177-.201.2006-.438.3008-.711.3008zm-.875 8.1553v-6.9248h1.715v6.9248zm6.241.1367c-.789 0-1.445-.164-1.969-.4922-.524-.3281-.845-.8066-.964-1.4355l1.443-.4102c.091.3783.266.6608.526.8477.26.1823.581.2734.964.2734.314 0 .579-.0638.793-.1914.219-.1276.326-.3349.321-.6221-.004-.1458-.043-.2711-.116-.3759-.068-.1094-.182-.2028-.342-.2803-.159-.0775-.31-.139-.451-.1846-.141-.0501-.344-.1116-.608-.1845-.265-.0775-.477-.1436-.636-.1983-.196-.0638-.369-.1276-.52-.1914-.146-.0638-.298-.1481-.458-.2529-.159-.1094-.289-.2279-.389-.3555-.101-.1276-.185-.2848-.253-.4717-.064-.1914-.096-.401-.096-.6289 0-.6699.244-1.1758.731-1.5176.488-.3463 1.119-.5195 1.894-.5195.706 0 1.299.1504 1.777.4512.479.2962.777.7542.896 1.374l-1.333.3076c-.178-.6471-.622-.9707-1.333-.9707-.301 0-.554.0615-.759.1846-.205.123-.308.3053-.308.5469 0 .0683.007.1321.021.1914.018.0547.048.1071.089.1572.045.0501.089.0934.13.1299.041.0364.1.0752.177.1162.078.0365.144.0661.199.0889.054.0227.136.0501.246.082.109.0319.193.057.253.0752.063.0137.159.0364.287.0683.127.0319.223.057.287.0752.255.0684.472.1345.649.1983.183.0638.383.1549.602.2734s.394.2507.526.3965c.132.1413.244.3259.335.5537.096.2279.144.4831.144.7656 0 .3008-.05.572-.151.8135-.095.2416-.23.4444-.403.6084-.169.1595-.371.294-.608.4033-.237.1049-.488.1801-.752.2256-.26.0502-.54.0752-.841.0752zm11.894-7.1982c.452 0 .878.0843 1.279.2529.401.1641.752.3988 1.052.7041.301.3008.538.6813.711 1.1416.174.4557.26.9593.26 1.5108 0 .5514-.086 1.0572-.26 1.5175-.173.4558-.41.8363-.711 1.1416-.3.3008-.651.5355-1.052.7041-.401.1641-.827.2461-1.279.2461-.483 0-.922-.1002-1.319-.3008-.396-.2005-.697-.4762-.902-.8271v4.3818h-1.709v-10.3359h1.627l.048 1.0527c.2-.3737.501-.6653.902-.875.401-.2096.852-.3144 1.353-.3144zm-.376 5.79c.561 0 1.028-.1982 1.402-.5947.378-.3965.567-.9251.567-1.5859 0-.6609-.189-1.1872-.567-1.5791-.374-.3965-.841-.5948-1.402-.5948-.565 0-1.036.2051-1.415.6153-.378.4056-.567.9251-.567 1.5586 0 .638.189 1.1621.567 1.5722.379.4056.85.6084 1.415.6084zm10.753-.6699c0 .7884.06 1.374.178 1.7568v.1846h-1.62l-.164-.7793c-.251.3053-.577.5355-.978.6904-.396.1504-.811.2256-1.244.2256-.287 0-.554-.0364-.8-.1094-.246-.0683-.471-.1754-.676-.3212-.205-.1459-.367-.3464-.486-.6016-.114-.2552-.171-.5514-.171-.8887 0-.3463.06-.6471.178-.9023.119-.2552.296-.4649.533-.6289.242-.1686.504-.3054.786-.4102.283-.1048.625-.1982 1.026-.2803l1.155-.2392c.233-.0501.399-.1208.499-.2119.1-.0912.151-.2142.151-.3692 0-.1868-.037-.3486-.11-.4853-.073-.1413-.173-.2484-.301-.3213-.123-.0775-.257-.1322-.403-.1641-.146-.0364-.301-.0547-.465-.0547-.843 0-1.321.3737-1.435 1.1211l-1.518-.2871c.269-1.3581 1.283-2.0371 3.042-2.0371.296 0 .572.0205.827.0615.255.0411.508.1185.759.2325.255.1139.469.2597.643.4375.177.1777.321.4147.43.7109.11.2962.164.638.164 1.0254zm-3.301.8955c.551 0 .979-.18 1.285-.54.31-.3601.465-.9138.465-1.6612l-1.682.4307c-.36.0775-.634.1868-.82.3281-.183.1367-.274.3327-.274.5879 0 .278.096.4899.287.6358.192.1458.438.2187.739.2187zm9.652-5.8789h1.77l-4.19 10.1855h-1.736l1.517-3.5068-2.796-6.6787h1.867l1.743 4.8125zm10.78-.1367c.725 0 1.301.1914 1.73.5742.428.3828.642.9251.642 1.6269v4.8604h-1.709v-4.3887c0-.4238-.111-.7428-.335-.957-.218-.2188-.496-.3281-.834-.3281-.401 0-.729.1344-.984.4033-.251.2643-.376.679-.376 1.2441v4.0264h-1.73v-4.3545c0-.4375-.111-.7656-.334-.9844-.219-.2233-.504-.3349-.855-.3349-.396 0-.722.139-.978.417-.25.2734-.375.7086-.375 1.3056v3.9512h-1.703v-6.9248h1.703v.834c.46-.6472 1.116-.9707 1.968-.9707.488 0 .909.0911 1.265.2734.355.1823.622.4466.8.793.469-.711 1.171-1.0664 2.105-1.0664zm10.78 3.4863-.027.4238h-5.223c.032.6198.228 1.0961.588 1.4287.36.3282.807.4922 1.34.4922.374 0 .702-.0888.985-.2666.287-.1777.505-.4329.656-.7656l1.558.2529c-.232.6745-.633 1.2009-1.203 1.5791-.569.3783-1.23.5674-1.982.5674-1.098 0-1.976-.319-2.632-.957s-.984-1.5176-.984-2.6387c0-1.1165.328-1.9961.984-2.6387.661-.6471 1.52-.9707 2.577-.9707.488 0 .932.073 1.333.2188.406.1413.759.3532 1.06.6357.305.278.542.6426.711 1.0938.168.4466.255.9616.259 1.5449zm-3.356-2.2627c-.492 0-.898.1299-1.217.3897-.319.2552-.526.6403-.622 1.1552h3.5c-.045-.5013-.219-.8841-.519-1.1484-.297-.2643-.677-.3965-1.142-.3965zm8.798-1.2236c.793 0 1.41.2096 1.852.6289.442.4147.663 1.0049.663 1.7705v4.6621h-1.708v-4.293c0-.4739-.126-.8226-.376-1.0459-.247-.2233-.563-.3349-.951-.3349-.465 0-.847.1412-1.148.4238-.296.2826-.447.7246-.451 1.3262v3.9238h-1.709v-6.9248h1.709v.7998c.496-.6243 1.203-.9365 2.119-.9365zm7.014 7.0615c-.643 0-1.142-.18-1.498-.54-.355-.3646-.533-.875-.533-1.5313v-3.5342h-1.374v-1.3193h.465c.378 0 .654-.0912.827-.2734.173-.1823.26-.5036.26-.9639v-1.0186h1.552v2.2559h1.476v1.3193h-1.476v3.3496c0 .3145.075.5515.225.711.151.1549.36.2324.629.2324h.622v1.3125zm4.566-2.9326v-.7725c0-.4284.105-.7633.314-1.0049.215-.2415.556-.4785 1.026-.7109.579-.2871.868-.7907.868-1.5107 0-.5013-.141-.891-.424-1.169-.282-.278-.652-.417-1.107-.417-.456 0-.827.1459-1.115.4375-.282.2917-.423.6677-.423 1.128 0 .1503.025.3463.075.5878l-1.518-.1845c-.027-.1823-.041-.3623-.041-.5401 0-.8385.278-1.5221.834-2.0507.556-.5287 1.276-.793 2.16-.793.898 0 1.632.2689 2.202.8066.574.5378.861 1.2556.861 2.1533 0 .6973-.157 1.2556-.472 1.6748-.314.4193-.711.7224-1.189.9092-.224.0912-.39.2005-.499.3282-.105.1276-.158.3007-.158.5195v.6084zm.731 3.0693c-.282 0-.524-.098-.724-.2939-.196-.2005-.294-.4398-.294-.7178s.1-.515.301-.7109c.205-.2006.444-.3008.717-.3008.274 0 .509.1002.704.3008.196.1959.294.4329.294.7109s-.098.5173-.294.7178c-.195.1959-.43.2939-.704.2939z" fill="#000"/><rect fill="#ededed" height="28.042" rx="4.382" width="265" x="67" y="94"/><rect fill="#fff" height="22.784" rx="2.629" width="127.94" x="69.629" y="96.629"/><path d="m114.053 106.026h1.206c-.037-1.327-1.21-2.29-2.893-2.29-1.662 0-2.937.951-2.937 2.379 0 1.153.826 1.828 2.157 2.188l.979.267c.886.235 1.569.526 1.569 1.262 0 .81-.772 1.344-1.836 1.344-.963 0-1.764-.429-1.837-1.331h-1.254c.081 1.5 1.242 2.427 3.099 2.427 1.946 0 3.066-1.024 3.066-2.427 0-1.493-1.331-2.072-2.383-2.331l-.809-.21c-.647-.166-1.509-.469-1.505-1.262 0-.704.644-1.226 1.663-1.226.951 0 1.626.445 1.715 1.21zm5.616-.106h-1.274v-1.488h-1.209v1.488h-.911v.971h.911v3.67c-.005 1.128.857 1.674 1.812 1.654.384-.004.643-.077.785-.129l-.219-.999c-.081.016-.23.052-.425.052-.392 0-.744-.129-.744-.829v-3.419h1.274zm3.147 6.352c1.027 0 1.606-.522 1.836-.987h.049v.849h1.181v-4.126c0-1.808-1.424-2.168-2.411-2.168-1.125 0-2.16.453-2.565 1.585l1.137.259c.178-.441.631-.865 1.444-.865.781 0 1.182.408 1.182 1.112v.028c0 .441-.454.433-1.57.563-1.177.137-2.383.445-2.383 1.857 0 1.221.918 1.893 2.1 1.893zm.263-.971c-.684 0-1.178-.308-1.178-.906 0-.648.575-.878 1.275-.971.392-.053 1.323-.158 1.497-.332v.801c0 .736-.587 1.408-1.594 1.408zm5.624-2.856c0-.991.607-1.558 1.448-1.558.821 0 1.319.538 1.319 1.441v3.806h1.21v-3.952c0-1.537-.846-2.342-2.116-2.342-.935 0-1.546.432-1.833 1.092h-.077v-1.012h-1.161v6.214h1.21zm7.925 3.811c1.133 0 1.578-.692 1.796-1.089h.101v.967h1.181v-8.285h-1.209v3.079h-.073c-.218-.385-.631-1.088-1.788-1.088-1.501 0-2.605 1.185-2.605 3.2 0 2.01 1.088 3.216 2.597 3.216zm.267-1.032c-1.08 0-1.643-.951-1.643-2.197 0-1.233.551-2.16 1.643-2.16 1.056 0 1.622.862 1.622 2.16 0 1.307-.578 2.197-1.622 2.197zm6.346 1.048c1.028 0 1.606-.522 1.837-.987h.048v.849h1.182v-4.126c0-1.808-1.424-2.168-2.412-2.168-1.124 0-2.16.453-2.564 1.585l1.136.259c.178-.441.632-.865 1.445-.865.78 0 1.181.408 1.181 1.112v.028c0 .441-.453.433-1.57.563-1.177.137-2.382.445-2.382 1.857 0 1.221.918 1.893 2.099 1.893zm.263-.971c-.684 0-1.177-.308-1.177-.906 0-.648.574-.878 1.274-.971.393-.053 1.323-.158 1.497-.332v.801c0 .736-.587 1.408-1.594 1.408zm4.415.833h1.209v-3.794c0-.813.627-1.4 1.485-1.4.251 0 .534.044.631.073v-1.157c-.121-.016-.36-.029-.514-.029-.728 0-1.351.413-1.577 1.081h-.065v-.988h-1.169zm6.475.122c1.133 0 1.578-.692 1.797-1.089h.101v.967h1.181v-8.285h-1.21v3.079h-.072c-.219-.385-.632-1.088-1.789-1.088-1.5 0-2.605 1.185-2.605 3.2 0 2.01 1.088 3.216 2.597 3.216zm.267-1.032c-1.08 0-1.642-.951-1.642-2.197 0-1.233.55-2.16 1.642-2.16 1.056 0 1.623.862 1.623 2.16 0 1.307-.579 2.197-1.623 2.197z" fill="#000"/><path d="m248.299 106.543c-.283-1.771-1.671-2.807-3.422-2.807-2.144 0-3.726 1.606-3.726 4.256s1.574 4.256 3.726 4.256c1.82 0 3.151-1.141 3.422-2.78l-1.262-.004c-.214 1.06-1.104 1.643-2.152 1.643-1.42 0-2.492-1.088-2.492-3.115 0-2.011 1.068-3.115 2.496-3.115 1.056 0 1.942.594 2.148 1.666zm5.335 3.014c.004 1.056-.781 1.558-1.46 1.558-.749 0-1.267-.542-1.267-1.388v-3.807h-1.209v3.953c0 1.541.845 2.342 2.039 2.342.934 0 1.569-.493 1.857-1.157h.064v1.076h1.19v-6.214h-1.214zm7.495-2.119c-.251-.967-1.007-1.598-2.35-1.598-1.404 0-2.399.74-2.399 1.84 0 .882.534 1.469 1.699 1.728l1.052.23c.599.134.878.401.878.789 0 .482-.514.858-1.307.858-.724 0-1.189-.312-1.335-.923l-1.169.178c.202 1.101 1.116 1.72 2.512 1.72 1.501 0 2.541-.797 2.541-1.922 0-.878-.559-1.42-1.699-1.683l-.988-.226c-.683-.162-.979-.393-.974-.813-.005-.478.513-.818 1.201-.818.752 0 1.1.417 1.242.834zm4.352-1.518h-1.274v-1.488h-1.21v1.488h-.91v.971h.91v3.67c-.004 1.128.858 1.674 1.813 1.654.384-.004.643-.077.784-.129l-.218-.999c-.081.016-.231.052-.425.052-.392 0-.744-.129-.744-.829v-3.419h1.274zm3.889 6.34c1.751 0 2.896-1.283 2.896-3.204 0-1.934-1.145-3.216-2.896-3.216-1.752 0-2.897 1.282-2.897 3.216 0 1.921 1.145 3.204 2.897 3.204zm.004-1.016c-1.145 0-1.679-.999-1.679-2.192 0-1.19.534-2.201 1.679-2.201 1.137 0 1.671 1.011 1.671 2.201 0 1.193-.534 2.192-1.671 2.192zm4.242.89h1.21v-3.831c0-.837.587-1.42 1.274-1.42.672 0 1.137.445 1.137 1.121v4.13h1.206v-3.96c0-.749.457-1.291 1.246-1.291.639 0 1.165.356 1.165 1.198v4.053h1.209v-4.167c0-1.419-.793-2.127-1.917-2.127-.894 0-1.566.428-1.865 1.092h-.065c-.271-.68-.841-1.092-1.671-1.092-.821 0-1.432.408-1.691 1.092h-.076v-1.012h-1.162z" fill="#000"/><rect fill="#fff" height="84.878" rx="3.882" stroke="#e5e5e5" width="81.372" x="67.74" y="138.286"/><path d="m82.6286 150.007h1.4377v8.543h-1.4377v-3.649h-3.9656v3.649h-1.4377v-8.543h1.4377v3.63h3.9656zm4.343 1.366c-.2316 0-.4313-.082-.599-.245-.1677-.168-.2516-.368-.2516-.6 0-.231.0819-.429.2456-.593.1677-.167.3694-.251.605-.251.2277 0 .4253.084.5931.251.1677.164.2516.362.2516.593 0 .232-.0839.432-.2516.6-.1678.163-.3654.245-.5931.245zm-.7068 7.177v-6.027h1.3837v6.027zm7.5897-6.027h1.3299v5.649c0 1.07-.2716 1.875-.8147 2.414-.5391.543-1.2899.815-2.2524.815-1.5215 0-2.5279-.619-3.0191-1.857l1.1441-.515c.1758.427.4114.745.7069.952.2955.212.6669.318 1.1142.318.5711 0 1.0024-.178 1.2939-.533.2916-.352.4373-.853.4373-1.504v-.893c-.1837.296-.4532.536-.8087.719-.3514.18-.7368.27-1.1561.27-.7668 0-1.4177-.28-1.9529-.839-.5311-.559-.7967-1.274-.7967-2.144 0-.436.0739-.839.2217-1.21.1477-.376.3454-.689.593-.941.2516-.255.5451-.455.8806-.599.3354-.144.6909-.216 1.0663-.216.4353 0 .8286.098 1.1801.294.3554.192.621.447.7967.767zm-1.6893 4.697c.4913 0 .9066-.18 1.246-.539.3395-.36.5092-.795.5092-1.306s-.1697-.947-.5092-1.306c-.3354-.364-.7507-.545-1.246-.545-.4952 0-.9105.175-1.2459.527-.3355.351-.5032.793-.5032 1.324 0 .523.1697.962.5091 1.318.3395.351.7528.527 1.24.527zm8.2368-4.811c.655 0 1.168.19 1.539.57.376.375.564.922.564 1.641v3.93h-1.39v-3.69c0-.46-.112-.795-.336-1.007-.219-.212-.507-.317-.8622-.317-.3994 0-.7329.125-1.0004.377-.2676.248-.4034.639-.4074 1.174v3.463h-1.3778v-9.202h1.3778v3.93c.2077-.275.4733-.489.7967-.641.3235-.152.6889-.228 1.0963-.228z" fill="#000"/><path d="m81.1012 175.884c-.4513.204-.9604.306-1.5275.306s-1.0783-.102-1.5336-.306c-.4512-.208-.8107-.511-1.0782-.911-.2636-.399-.3954-.86-.3954-1.383 0-.519.1298-.971.3894-1.354.2636-.384.625-.673 1.0842-.869-.3274-.187-.585-.431-.7727-.731-.1877-.303-.2816-.641-.2816-1.012 0-.651.2436-1.182.7309-1.593.4872-.412 1.1062-.617 1.857-.617.7388 0 1.3498.207 1.833.623.4872.411.7308.94.7308 1.587 0 .371-.0918.709-.2755 1.012-.1837.3-.4353.544-.7548.731.4513.2.8087.491 1.0723.875.2635.383.3953.833.3953 1.348 0 .523-.1338.984-.4013 1.383-.2636.4-.621.703-1.0723.911zm-1.5275-4.942c.3594 0 .6649-.12.9165-.359.2556-.24.3834-.534.3834-.881 0-.343-.1258-.631-.3774-.863-.2516-.235-.5591-.353-.9225-.353-.3674 0-.6769.118-.9285.353-.2516.232-.3774.52-.3774.863 0 .351.1258.647.3774.887.2516.235.5611.353.9285.353zm0 4.002c.4592 0 .8426-.138 1.1501-.414.3075-.279.4613-.647.4613-1.102 0-.451-.1538-.813-.4613-1.084-.3075-.272-.6909-.408-1.1501-.408-.4673 0-.8547.136-1.1622.408-.3075.271-.4612.633-.4612 1.084 0 .459.1537.827.4612 1.102.3075.276.6949.414 1.1622.414zm7.6856-1.48v-1.156h4.2951v1.156zm11.9028-5.931h1.3059v8.543h-1.3778v-7.093l-2.0068 1.803v-1.437zm7.2059 8.657c-.954 0-1.689-.37-2.204-1.109s-.773-1.833-.773-3.282c0-1.45.256-2.542.767-3.277.511-.739 1.248-1.108 2.21-1.108.955 0 1.688.369 2.199 1.108.515.739.773 1.831.773 3.277 0 1.445-.258 2.539-.773 3.282-.515.739-1.248 1.109-2.199 1.109zm0-1.252c.512 0 .903-.26 1.175-.779.275-.519.413-1.306.413-2.36 0-1.059-.14-1.843-.419-2.355-.276-.515-.665-.772-1.169-.772-.507 0-.898.255-1.174.766-.275.512-.413 1.298-.413 2.361 0 2.092.529 3.139 1.587 3.139zm14.371-5.002c.619 0 1.113.167 1.48.503.367.331.551.802.551 1.413v4.224h-1.384v-3.84c0-.388-.1-.679-.299-.875-.2-.199-.452-.299-.755-.299-.355 0-.645.12-.869.359-.219.236-.329.601-.329 1.096v3.559h-1.402v-3.81c0-.396-.102-.695-.305-.899-.2-.203-.456-.305-.767-.305-.356 0-.645.124-.869.371-.223.244-.335.625-.335 1.144v3.499h-1.372v-6.027h1.372v.743c.395-.571.962-.856 1.701-.856.411 0 .771.081 1.078.245.308.16.539.392.695.695.4-.627 1.003-.94 1.809-.94zm4.583-1.037c-.232 0-.431-.082-.599-.245-.168-.168-.252-.368-.252-.599 0-.232.082-.43.246-.593.168-.168.369-.252.605-.252.228 0 .425.084.593.252.168.163.252.361.252.593 0 .231-.084.431-.252.599-.168.163-.365.245-.593.245zm-.707 7.177v-6.027h1.384v6.027zm6.548-6.14c.678 0 1.21.181 1.593.545.383.359.575.872.575 1.539v4.056h-1.39v-3.756c0-.428-.112-.743-.335-.947-.22-.207-.503-.311-.851-.311-.415 0-.755.128-1.018.383-.264.252-.398.641-.402 1.168v3.463h-1.377v-6.027h1.377v.713c.204-.263.462-.467.773-.611.316-.144.667-.215 1.055-.215zm6.02 6.254c-.675 0-1.238-.142-1.689-.426-.452-.287-.727-.703-.827-1.246l1.168-.329c.08.335.238.589.473.76.236.168.527.252.875.252.287 0 .531-.06.731-.18.199-.119.297-.313.293-.581 0-.112-.026-.209-.078-.293-.052-.088-.114-.16-.185-.216-.072-.06-.176-.118-.312-.174-.132-.055-.253-.099-.365-.131-.108-.032-.256-.076-.444-.132-.187-.056-.343-.104-.467-.144-.227-.072-.419-.146-.575-.222-.156-.075-.313-.175-.473-.299s-.282-.28-.366-.467c-.079-.192-.119-.414-.119-.665 0-.392.101-.721.305-.989.204-.267.471-.461.803-.581.331-.124.711-.185 1.138-.185.603 0 1.11.129 1.522.389.415.26.672.657.772 1.192l-1.09.258c-.076-.304-.222-.528-.437-.671-.212-.144-.465-.216-.761-.216-.276 0-.509.058-.701.174-.188.112-.281.283-.281.515 0 .064.006.124.018.18.016.052.043.099.083.143s.076.084.108.12c.032.032.084.066.156.102s.13.064.174.084.116.046.215.078c.1.028.174.05.222.066.048.012.13.034.246.066.119.028.203.047.251.059.224.06.414.116.569.168.16.052.334.13.521.234.192.1.346.211.462.335.12.124.219.286.299.486.08.195.12.415.12.658 0 .324-.064.607-.192.851-.127.24-.303.429-.527.569-.219.136-.467.238-.743.306-.271.068-.569.102-.892.102z" fill="#000"/><path d="m79.0224 197.184c-.866 0-1.5061-.221-1.9203-.663-.4108-.445-.6162-1.111-.6162-1.997l1.2118-.057c0 .285.0188.524.0565.719.0376.195.1044.368.2002.519.0993.147.2362.257.4108.328.1746.072.3937.108.6572.108.4211 0 .7531-.114.9961-.344.2465-.232.3697-.534.3697-.903 0-.391-.1181-.694-.3543-.909-.2327-.219-.5357-.329-.9088-.329h-.3235v-.95h.3081c.2807 0 .5152-.099.7035-.298.1916-.198.2875-.446.2875-.744 0-.294-.1027-.529-.3081-.703-.2054-.175-.4689-.262-.7907-.262-.2088 0-.3851.034-.5289.102-.1437.069-.2533.168-.3286.298-.0719.13-.1232.271-.154.421-.0308.147-.0462.319-.0462.514l-1.2015-.052c0-.749.1968-1.323.5905-1.72.3936-.4.9464-.601 1.6584-.601.6367 0 1.1656.184 1.5866.55s.6316.82.6316 1.361c0 .362-.0959.679-.2876.949-.1917.271-.421.463-.688.575.3902.11.7137.321.9704.632.2602.312.3903.717.3903 1.217 0 .674-.2379 1.217-.7138 1.628-.4758.407-1.0953.611-1.8587.611zm6.1359 0c-.8182 0-1.448-.317-1.8896-.95-.4415-.634-.6623-1.571-.6623-2.814s.219-2.179.6572-2.809c.4381-.633 1.0697-.95 1.8947-.95.8181 0 1.4462.317 1.8843.95.4416.634.6624 1.57.6624 2.809s-.2208 2.177-.6624 2.814c-.4415.633-1.0697.95-1.8843.95zm0-1.074c.4381 0 .7736-.222 1.0063-.667.2362-.445.3543-1.119.3543-2.023 0-.907-.1198-1.58-.3594-2.018-.2362-.441-.5699-.662-1.0012-.662-.4348 0-.7702.219-1.0064.657s-.3543 1.112-.3543 2.023c0 1.794.4535 2.69 1.3607 2.69zm8.3385 1.074c-.5785 0-1.0611-.122-1.4479-.365-.3868-.246-.623-.602-.7086-1.068l1.0012-.282c.0685.287.2037.505.4057.652.2019.144.4518.215.7496.215.2465 0 .4553-.051.6264-.154.1712-.102.2551-.268.2516-.498 0-.096-.0222-.179-.0667-.251-.0445-.076-.0976-.137-.1592-.185-.0616-.051-.1506-.101-.267-.149-.1129-.048-.2174-.086-.3132-.113-.0924-.027-.2191-.065-.38-.113-.1608-.048-.2943-.089-.4005-.123-.1951-.062-.3594-.125-.4929-.19s-.2687-.151-.4056-.257-.2413-.239-.3132-.4c-.0685-.165-.1027-.355-.1027-.57 0-.336.0873-.618.2619-.848.1745-.229.4039-.395.688-.498.2841-.106.6093-.159.9756-.159.5168 0 .9516.111 1.3041.334.356.222.5768.563.6624 1.022l-.9345.221c-.065-.261-.19-.452-.3748-.576-.1814-.123-.3988-.184-.6521-.184-.2362 0-.4364.049-.6008.149-.1608.095-.2413.243-.2413.441 0 .055.0052.106.0154.154.0137.045.0377.086.0719.123.0342.038.0651.072.0924.103.0274.027.0719.057.1335.087.0616.031.1113.055.1489.072.0377.017.0993.04.1849.067.0856.024.1489.043.19.056.041.011.1112.03.2105.057.1027.024.1746.041.2156.051.1917.052.3543.1.4878.144.1369.045.2858.111.4467.2.1643.086.2961.182.3954.288.1027.106.1883.245.2567.416.0685.167.1027.356.1027.565 0 .277-.0548.52-.1643.729-.1095.205-.2601.368-.4518.487-.1883.117-.4005.204-.6367.262-.2328.059-.4878.088-.7651.088zm4.4722 0c-.2943 0-.5579-.045-.7907-.134-.2293-.092-.421-.246-.5751-.462-.1506-.219-.2259-.489-.2259-.811 0-.216.0342-.408.1027-.575.0719-.171.1643-.314.2773-.427.1164-.112.2618-.212.4364-.297.178-.086.356-.153.534-.201.1814-.051.3902-.099.6264-.143l.7805-.144c.3183-.062.4775-.217.4775-.467 0-.295-.0958-.509-.2875-.642-.1917-.137-.433-.206-.724-.206-.3012 0-.5494.074-.7445.221-.1951.144-.3115.373-.3492.688l-1.0628-.195c.1745-1.04.9173-1.561 2.2284-1.561.2191 0 .4227.017.611.052.1917.03.3782.089.5597.174.1848.086.3418.195.4728.329.13.13.234.304.313.524.078.215.118.463.118.744v2.003c0 .239.036.403.108.492s.198.134.38.134h.082v.806h-.56c-.585 0-.9344-.228-1.0473-.683h-.0565c-.1883.267-.433.464-.7343.591-.2978.126-.6144.19-.9499.19zm.2773-.93c.4142 0 .7582-.142 1.0321-.426.2738-.284.4107-.657.4107-1.119l-1.3196.292c-.2841.055-.4963.136-.6367.242-.1403.102-.2105.248-.2105.436 0 .192.0668.336.2003.431.1335.096.3081.144.5237.144zm5.9507.832c-.465 0-.828-.132-1.088-.395-.26-.264-.39-.635-.39-1.115v-2.731h-1.033v-.924h.355c.28 0 .482-.065.606-.195.126-.134.19-.365.19-.694v-.801h1.078v1.69h1.124v.924h-1.124v2.608c0 .236.058.416.174.539.12.12.281.18.483.18h.467v.914zm1.156 1.997 5.103-9.884h1.125l-5.104 9.884zm10.289-7.162h1.258l-2.151 5.165h-1.022l-2.136-5.165h1.253l1.391 3.81zm6.085 1.319c.445.12.792.331 1.042.632s.375.7.375 1.196c0 .613-.192 1.102-.575 1.469-.384.366-.921.549-1.612.549h-2.932v-7.322h2.295c.719 0 1.28.178 1.684.534.407.356.611.835.611 1.438 0 .342-.077.643-.231.904-.151.26-.37.46-.657.6zm-1.402-2.439h-1.114v2.059h1.237c.319 0 .568-.099.75-.298.185-.198.277-.448.277-.749 0-.298-.101-.541-.303-.729-.202-.189-.484-.283-.847-.283zm.411 5.217c.393 0 .695-.103.903-.308.209-.209.314-.467.314-.775 0-.322-.108-.586-.324-.791-.212-.209-.525-.313-.939-.313h-1.479v2.187z" fill="#a4a4a4"/><path d="m82.288 209.94c0 .345-.065.653-.1951.924-.1266.267-.3046.486-.534.657-.2293.168-.4895.298-.7804.39-.2876.093-.6042.149-.9499.17v.693h-.5238v-.698c-.6948-.038-1.2802-.235-1.756-.591-.4724-.356-.7633-.833-.8729-1.432l1.2631-.293c.0582.359.2088.65.4519.873.2464.222.5511.359.9139.411v-2.316c-.0171-.007-.041-.014-.0719-.021-.0308-.01-.0547-.017-.0718-.02-.1951-.058-.3543-.106-.4776-.144-.1232-.041-.2738-.096-.4518-.164-.1746-.072-.3166-.141-.4262-.206-.1095-.068-.2276-.154-.3543-.256-.1232-.107-.2207-.218-.2926-.334-.0685-.117-.1267-.253-.1746-.411-.0479-.161-.0719-.335-.0719-.524 0-.428.1078-.799.3235-1.114.2156-.315.5015-.551.8575-.708.356-.161.7599-.249 1.2117-.262v-.673h.5238v.693c.6024.055 1.1193.235 1.5506.539.4313.305.7069.736.8267 1.294l-1.1861.298c-.0685-.318-.2071-.568-.4159-.75-.2054-.184-.4638-.301-.7753-.349v2.152c.2053.054.3714.102.498.143.1301.038.291.095.4827.17.1951.072.3525.144.4723.216.1233.068.2551.159.3954.272.1404.113.2499.232.3286.359.0788.123.1455.272.2003.447.0547.174.0821.363.0821.565zm-4.1333-3.312c0 .25.0975.448.2927.595.1951.144.4809.274.8574.391v-2.018c-.3354.027-.611.126-.8266.298-.2157.171-.3235.415-.3235.734zm1.6739 4.426c.3628-.028.6521-.129.8677-.303.2191-.175.3269-.428.3235-.76-.0034-.281-.1078-.503-.3132-.668-.202-.167-.4947-.314-.878-.441zm6.2539 1.027c-.8181 0-1.448-.317-1.8895-.95-.4416-.633-.6624-1.571-.6624-2.814s.2191-2.179.6572-2.809c.4382-.633 1.0697-.949 1.8947-.949.8181 0 1.4462.316 1.8844.949.4415.634.6623 1.57.6623 2.809s-.2208 2.177-.6623 2.814c-.4416.633-1.0697.95-1.8844.95zm0-1.073c.4381 0 .7736-.223 1.0064-.668.2362-.445.3542-1.119.3542-2.023 0-.907-.1198-1.58-.3594-2.018-.2362-.441-.5699-.662-1.0012-.662-.4347 0-.7702.219-1.0064.657s-.3543 1.113-.3543 2.023c0 1.794.4536 2.691 1.3607 2.691zm3.9947 1.078c-.1951 0-.3646-.07-.5083-.211-.1438-.143-.2157-.313-.2157-.508 0-.199.0719-.368.2157-.508.1437-.144.3132-.216.5083-.216.1985 0 .368.072.5083.216.1438.14.2157.309.2157.508s-.0719.368-.2157.508c-.1403.141-.3098.211-.5083.211zm4.7546-.005c-.8181 0-1.4479-.317-1.8895-.95s-.6624-1.571-.6624-2.814.2191-2.179.6572-2.809c.4382-.633 1.0698-.949 1.8947-.949.8181 0 1.4463.316 1.8844.949.4416.634.6624 1.57.6624 2.809s-.2208 2.177-.6624 2.814c-.4416.633-1.0697.95-1.8844.95zm0-1.073c.4382 0 .7736-.223 1.0064-.668.2362-.445.3543-1.119.3543-2.023 0-.907-.1198-1.58-.3594-2.018-.2362-.441-.57-.662-1.0013-.662-.4347 0-.7702.219-1.0064.657s-.3543 1.113-.3543 2.023c0 1.794.4536 2.691 1.3607 2.691zm6.0232-6.347h1.119v7.322h-1.181v-6.079l-1.72 1.545v-1.232zm8.98 4.827v1.063h-1.006v1.432h-1.181v-1.432h-3.44v-1.068l2.818-4.822h1.803v4.827zm-4.477 0h2.29v-4.067zm5.252-4.827h5.089v.94l-3.446 6.382h-1.345l3.461-6.259h-3.759z" fill="#a4a4a4"/><rect height="84.878" rx="3.882" stroke="#e6e6e6" width="81.372" x="159.266" y="138.286"/><path d="m178.174 158.55h-1.42l-.563-6.746-2.45 6.746h-.898l-2.438-6.734-.57 6.734h-1.425l.683-8.543h1.994l2.199 6.039 2.216-6.039h1.995zm7.266-3.115-.018.347h-4.582c.024.575.199 1.014.527 1.318.327.303.733.455 1.216.455.335 0 .633-.082.892-.245.264-.164.464-.398.6-.701l1.257.215c-.207.579-.555 1.031-1.042 1.354-.487.324-1.052.485-1.695.485-.939 0-1.691-.277-2.258-.832-.568-.555-.851-1.32-.851-2.295 0-.97.283-1.735.851-2.294.567-.559 1.305-.839 2.216-.839.867 0 1.563.258 2.091.773.527.511.792 1.264.796 2.259zm-2.881-2.007c-.435 0-.799.11-1.09.329-.288.216-.478.547-.569.995h3.157c-.052-.436-.212-.765-.48-.989-.267-.223-.607-.335-1.018-.335zm8.704-4.08h1.378v9.202h-1.318l-.036-.959c-.18.34-.449.607-.809.803-.355.195-.755.293-1.198.293-.391 0-.761-.074-1.108-.221-.344-.148-.645-.354-.905-.617-.259-.268-.465-.599-.617-.995-.151-.399-.227-.836-.227-1.312 0-.471.076-.904.227-1.299.152-.396.358-.725.617-.989.26-.267.563-.475.911-.623.347-.148.715-.222 1.102-.222.431 0 .823.094 1.174.282.356.184.625.437.809.761zm-2.953 7.626c.343.364.768.545 1.276.545.507 0 .93-.185 1.27-.557.339-.371.509-.845.509-1.42 0-.571-.172-1.042-.515-1.413-.34-.372-.761-.557-1.264-.557-.508 0-.933.181-1.276.545-.34.359-.509.834-.509 1.425s.169 1.069.509 1.432zm6.996-5.601c-.231 0-.431-.082-.599-.245-.167-.168-.251-.368-.251-.6 0-.231.082-.429.245-.593.168-.167.37-.251.605-.251.228 0 .426.084.593.251.168.164.252.362.252.593 0 .232-.084.432-.252.6-.167.163-.365.245-.593.245zm-.706 7.177v-6.027h1.383v6.027zm7.212-6.027h1.378v6.027h-1.312l-.036-.755c-.423.579-1.042.868-1.857.868-.679 0-1.21-.179-1.594-.539-.383-.363-.575-.878-.575-1.545v-4.056h1.39v3.756c0 .428.11.745.33.953.223.203.511.305.862.305.416 0 .753-.126 1.013-.377.263-.256.397-.647.401-1.174zm9.986-.114c.619 0 1.112.168 1.479.504.368.331.552.802.552 1.413v4.224h-1.384v-3.84c0-.388-.1-.679-.3-.875-.199-.2-.451-.299-.755-.299-.355 0-.644.119-.868.359-.22.236-.33.601-.33 1.096v3.559h-1.401v-3.81c0-.396-.102-.695-.306-.899-.2-.204-.455-.305-.767-.305-.355 0-.645.123-.868.371-.224.244-.336.625-.336 1.144v3.499h-1.371v-6.027h1.371v.743c.396-.571.963-.857 1.702-.857.411 0 .77.082 1.078.246.307.16.539.391.695.695.399-.627 1.002-.941 1.809-.941z" fill="#000"/><path d="m171.004 167.533h1.305v8.543h-1.377v-7.093l-2.007 1.803v-1.437zm11.076 2.403c.655 0 1.168.189 1.539.569.376.375.563.922.563 1.641v3.93h-1.389v-3.69c0-.46-.112-.795-.336-1.007-.22-.211-.507-.317-.862-.317-.4 0-.733.126-1.001.377-.267.248-.403.639-.407 1.174v3.463h-1.378v-9.201h1.378v3.929c.207-.275.473-.489.796-.641.324-.152.689-.227 1.097-.227zm6.601 6.254c-.93 0-1.691-.282-2.282-.845-.591-.567-.887-1.33-.887-2.288 0-.951.296-1.708.887-2.271.591-.567 1.352-.85 2.282-.85.935 0 1.697.281 2.288.844s.887 1.322.887 2.277c0 .958-.296 1.721-.887 2.288-.591.563-1.353.845-2.288.845zm-.012-1.115c.531 0 .967-.185 1.306-.557.339-.371.509-.858.509-1.461s-.17-1.089-.509-1.456c-.339-.372-.775-.557-1.306-.557-.519 0-.946.185-1.282.557-.335.367-.503.853-.503 1.456s.166 1.09.497 1.461c.336.372.765.557 1.288.557zm8.518-5.026h1.378v6.027h-1.312l-.036-.755c-.423.579-1.042.869-1.857.869-.679 0-1.21-.18-1.593-.54-.383-.363-.575-.878-.575-1.545v-4.056h1.39v3.756c0 .428.109.745.329.953.224.203.511.305.863.305.415 0 .752-.125 1.012-.377.264-.256.397-.647.401-1.174zm4.661 1.013c.152-.308.405-.563.761-.767.359-.204.752-.308 1.18-.311v1.257c-.639 0-1.114.136-1.426.408-.307.267-.461.719-.461 1.354v3.073h-1.384v-6.027h1.33z" fill="#000"/><path d="m170.507 189.538h1.12v7.321h-1.181v-6.079l-1.72 1.546v-1.233zm8.786 4.872c.003.49-.115.93-.355 1.32-.239.39-.559.691-.96.904-.397.208-.832.313-1.304.313-.743 0-1.366-.236-1.869-.709-.503-.472-.755-1.071-.755-1.797 0-.596.214-1.186.642-1.771l2.367-3.132h1.361l-1.962 2.51c.154-.03.313-.046.478-.046.304 0 .597.057.878.17.284.113.534.27.749.472.219.202.394.457.524.765.134.305.202.638.206 1.001zm-2.65 1.459c.438 0 .798-.136 1.078-.406.281-.274.42-.633.416-1.078-.003-.452-.144-.815-.421-1.089s-.635-.411-1.073-.411c-.431 0-.786.146-1.063.437-.277.287-.416.645-.416 1.073 0 .452.136.811.406 1.078.27.264.628.396 1.073.396zm8.38 1.088c-.579 0-1.061-.121-1.448-.365-.387-.246-.623-.602-.709-1.067l1.001-.283c.069.288.204.505.406.652.202.144.452.216.75.216.246 0 .455-.051.626-.154s.255-.269.252-.498c0-.096-.023-.18-.067-.252-.045-.075-.098-.137-.159-.185-.062-.051-.151-.101-.267-.149-.113-.048-.218-.085-.313-.113-.093-.027-.219-.065-.38-.113-.161-.047-.295-.089-.401-.123-.195-.061-.359-.125-.493-.19-.133-.065-.269-.15-.405-.256-.137-.107-.242-.24-.314-.401-.068-.164-.102-.354-.102-.57 0-.335.087-.618.262-.847.174-.229.403-.395.688-.498.284-.106.609-.159.975-.159.517 0 .952.111 1.304.333.356.223.577.564.663 1.022l-.935.221c-.065-.26-.19-.452-.375-.575-.181-.123-.398-.185-.652-.185-.236 0-.436.05-.6.149-.161.096-.242.243-.242.442 0 .054.005.106.016.154.013.044.037.085.071.123.035.037.066.072.093.103.027.027.072.056.133.087.062.031.112.055.149.072.038.017.1.039.185.066.086.024.149.043.19.057.041.01.111.029.211.056.102.024.174.041.215.052.192.051.355.099.488.144.137.044.286.111.447.2.164.085.296.181.395.287.103.106.188.245.257.416.068.168.103.356.103.565 0 .277-.055.52-.165.729-.109.206-.26.368-.452.488-.188.116-.4.204-.636.262-.233.058-.488.087-.765.087zm4.472 0c-.294 0-.558-.044-.791-.133-.229-.093-.421-.247-.575-.463-.15-.219-.226-.489-.226-.811 0-.215.034-.407.103-.575.072-.171.164-.313.277-.426.117-.113.262-.212.437-.298.178-.085.356-.152.534-.2.181-.051.39-.099.626-.144l.78-.144c.319-.061.478-.217.478-.467 0-.294-.096-.508-.288-.642-.191-.137-.433-.205-.724-.205-.301 0-.549.073-.744.221-.195.143-.312.373-.349.688l-1.063-.195c.175-1.041.917-1.561 2.228-1.561.219 0 .423.017.611.051.192.031.379.089.56.175.185.085.342.195.472.328.13.13.235.305.314.524.078.216.118.464.118.744v2.003c0 .24.036.404.108.493.071.089.198.133.38.133h.082v.806h-.56c-.585 0-.934-.227-1.047-.682h-.057c-.188.267-.433.463-.734.59-.298.127-.615.19-.95.19zm.277-.929c.414 0 .758-.142 1.032-.426.274-.285.411-.658.411-1.12l-1.32.293c-.284.055-.496.135-.636.241-.141.103-.211.248-.211.437 0 .191.067.335.2.431.134.096.309.144.524.144zm5.951.831c-.465 0-.828-.131-1.088-.395-.261-.263-.391-.635-.391-1.114v-2.732h-1.032v-.924h.355c.28 0 .482-.065.606-.195.126-.134.19-.365.19-.693v-.801h1.078v1.689h1.124v.924h-1.124v2.609c0 .236.058.416.174.539.12.12.281.18.483.18h.467v.913zm1.155 1.998 5.104-9.884h1.125l-5.104 9.884zm10.29-7.163h1.258l-2.151 5.165h-1.022l-2.136-5.165h1.253l1.391 3.81zm6.085 1.32c.445.12.792.33 1.042.631s.375.7.375 1.197c0 .612-.192 1.102-.575 1.468-.384.366-.921.549-1.613.549h-2.931v-7.321h2.295c.719 0 1.28.178 1.684.534.407.356.611.835.611 1.437 0 .343-.077.644-.231.904-.151.26-.37.46-.657.601zm-1.402-2.439h-1.114v2.059h1.237c.318 0 .568-.1.75-.298.185-.199.277-.448.277-.75 0-.298-.101-.541-.303-.729s-.484-.282-.847-.282zm.411 5.217c.393 0 .695-.103.903-.309.209-.208.314-.467.314-.775 0-.322-.108-.585-.324-.791-.212-.208-.525-.313-.94-.313h-1.478v2.188z" fill="#a4a4a4"/><path d="m173.814 209.713c0 .346-.065.654-.195.924-.127.267-.305.486-.534.657-.23.168-.49.298-.781.391-.287.092-.604.149-.95.169v.693h-.523v-.698c-.695-.038-1.281-.234-1.756-.59-.473-.356-.764-.834-.873-1.433l1.263-.293c.058.36.209.651.452.873.246.223.551.36.914.411v-2.316c-.017-.007-.041-.013-.072-.02-.031-.011-.055-.017-.072-.021-.195-.058-.354-.106-.478-.144-.123-.041-.273-.095-.451-.164-.175-.072-.317-.14-.427-.205-.109-.069-.227-.154-.354-.257-.123-.106-.221-.217-.293-.334-.068-.116-.126-.253-.174-.411-.048-.16-.072-.335-.072-.523 0-.428.108-.8.323-1.114.216-.315.502-.552.858-.709.356-.161.76-.248 1.212-.262v-.673h.523v.694c.603.054 1.12.234 1.551.539.431.304.707.736.827 1.294l-1.186.298c-.069-.319-.207-.569-.416-.75-.206-.185-.464-.301-.776-.349v2.151c.206.055.372.103.498.144.131.038.291.094.483.169.195.072.353.144.473.216.123.068.255.159.395.272s.25.233.329.36c.078.123.145.272.2.446.055.175.082.363.082.565zm-4.133-3.312c0 .25.097.449.292.596.195.144.481.274.858.39v-2.018c-.336.028-.611.127-.827.298s-.323.416-.323.734zm1.673 4.426c.363-.027.653-.128.868-.303.219-.174.327-.428.324-.76-.004-.28-.108-.503-.314-.667-.202-.168-.494-.315-.878-.442zm6.254 1.027c-.818 0-1.448-.316-1.889-.95-.442-.633-.663-1.571-.663-2.814 0-1.242.22-2.178.658-2.808.438-.633 1.069-.95 1.894-.95.818 0 1.447.317 1.885.95.441.633.662 1.569.662 2.808 0 1.24-.221 2.178-.662 2.814-.442.634-1.07.95-1.885.95zm0-1.073c.439 0 .774-.222 1.007-.667.236-.445.354-1.12.354-2.024 0-.907-.12-1.579-.359-2.017-.237-.442-.57-.663-1.002-.663-.434 0-.77.219-1.006.657-.236.439-.354 1.113-.354 2.023 0 1.794.453 2.691 1.36 2.691zm3.995 1.078c-.195 0-.364-.07-.508-.21-.144-.144-.216-.313-.216-.509 0-.198.072-.368.216-.508.144-.144.313-.216.508-.216.199 0 .368.072.508.216.144.14.216.31.216.508 0 .199-.072.368-.216.509-.14.14-.309.21-.508.21zm4.755-.005c-.818 0-1.448-.316-1.89-.95-.441-.633-.662-1.571-.662-2.814 0-1.242.219-2.178.657-2.808.438-.633 1.07-.95 1.895-.95.818 0 1.446.317 1.884.95.442.633.662 1.569.662 2.808 0 1.24-.22 2.178-.662 2.814-.441.634-1.07.95-1.884.95zm0-1.073c.438 0 .773-.222 1.006-.667.236-.445.354-1.12.354-2.024 0-.907-.119-1.579-.359-2.017-.236-.442-.57-.663-1.001-.663-.435 0-.77.219-1.007.657-.236.439-.354 1.113-.354 2.023 0 1.794.454 2.691 1.361 2.691zm6.1 1.073c-.819 0-1.448-.316-1.89-.95-.442-.633-.662-1.571-.662-2.814 0-1.242.219-2.178.657-2.808.438-.633 1.07-.95 1.895-.95.818 0 1.446.317 1.884.95.442.633.662 1.569.662 2.808 0 1.24-.22 2.178-.662 2.814-.442.634-1.07.95-1.884.95zm0-1.073c.438 0 .773-.222 1.006-.667.236-.445.354-1.12.354-2.024 0-.907-.12-1.579-.359-2.017-.236-.442-.57-.663-1.001-.663-.435 0-.771.219-1.007.657-.236.439-.354 1.113-.354 2.023 0 1.794.453 2.691 1.361 2.691zm3.578-6.346h5.089v.939l-3.446 6.383h-1.345l3.461-6.259h-3.759zm7.754 6.254h3.378v1.068h-5.052v-.894l2.926-3.004c.49-.503.735-.982.735-1.437 0-.353-.105-.627-.314-.822-.208-.198-.491-.298-.847-.298-.373 0-.667.11-.883.329-.216.216-.323.561-.323 1.037v.539l-1.176-.113v-.41c0-.76.214-1.344.642-1.751.428-.408 1.006-.611 1.735-.611.685 0 1.244.186 1.679.559s.652.885.652 1.536c0 .373-.08.717-.241 1.032s-.414.652-.76 1.011zm9.771-1.428v1.063h-1.007v1.433h-1.181v-1.433h-3.44v-1.068l2.819-4.821h1.802v4.826zm-4.478 0h2.29v-4.066z" fill="#a4a4a4"/><g fill="#2c7be5"><rect fill-opacity=".1" height="84.878" rx="3.882" stroke="#2c7be5" width="81.372" x="251.266" y="138.286"/><path d="m262.183 157.268h2.821v1.282h-4.253v-8.543h1.432zm6.769 1.395c-.93 0-1.691-.281-2.282-.844-.591-.567-.887-1.33-.887-2.289 0-.95.296-1.707.887-2.27.591-.567 1.352-.851 2.282-.851.935 0 1.697.282 2.288.845s.887 1.322.887 2.276c0 .959-.296 1.722-.887 2.289-.591.563-1.353.844-2.288.844zm-.012-1.114c.531 0 .967-.186 1.306-.557s.509-.859.509-1.462-.17-1.088-.509-1.455c-.339-.372-.775-.557-1.306-.557-.519 0-.946.185-1.282.557-.335.367-.503.852-.503 1.455s.166 1.091.497 1.462c.336.371.765.557 1.288.557zm11.867-5.026h1.438l-2.097 6.033h-1.264l-1.515-4.308-1.516 4.308h-1.282l-2.055-6.033h1.426l1.366 4.265 1.521-4.265h1.067l1.521 4.259z"/><path d="m266.137 173.218c.004.571-.134 1.085-.414 1.54-.279.455-.653.807-1.12 1.054-.463.244-.97.366-1.521.366-.867 0-1.594-.276-2.181-.827s-.88-1.25-.88-2.097c0-.695.249-1.384.748-2.066l2.762-3.655h1.587l-2.288 2.93c.18-.036.366-.054.557-.054.356 0 .697.066 1.025.197.331.132.623.316.874.552.256.235.459.533.611.892.156.356.236.745.24 1.168zm-3.091 1.702c.511 0 .93-.158 1.258-.474.327-.319.489-.738.485-1.258-.004-.527-.168-.95-.491-1.27-.324-.319-.741-.479-1.252-.479-.503 0-.917.17-1.24.509-.324.336-.485.753-.485 1.252 0 .527.157.947.473 1.258.315.308.733.462 1.252.462zm6.661-.078v-2.367h-2.366v-1.078h2.366v-2.366h1.078v2.366h2.36v1.078h-2.36v2.367zm11.573-4.906c.655 0 1.168.189 1.54.569.375.375.563.922.563 1.641v3.93h-1.39v-3.69c0-.46-.112-.795-.335-1.007-.22-.211-.507-.317-.863-.317-.399 0-.733.126-1 .377-.268.248-.404.639-.408 1.174v3.463h-1.377v-9.201h1.377v3.929c.208-.275.474-.489.797-.641.324-.152.689-.227 1.096-.227zm6.602 6.254c-.931 0-1.692-.282-2.283-.845-.591-.567-.886-1.33-.886-2.288 0-.951.295-1.708.886-2.271.591-.567 1.352-.85 2.283-.85.934 0 1.697.281 2.288.844s.887 1.322.887 2.277c0 .958-.296 1.721-.887 2.288-.591.563-1.354.845-2.288.845zm-.012-1.115c.531 0 .966-.185 1.306-.557.339-.371.509-.858.509-1.461s-.17-1.089-.509-1.456c-.34-.372-.775-.557-1.306-.557-.519 0-.947.185-1.282.557-.336.367-.503.853-.503 1.456s.165 1.09.497 1.461c.335.372.765.557 1.288.557zm8.518-5.026h1.378v6.027h-1.312l-.036-.755c-.423.579-1.042.869-1.857.869-.679 0-1.21-.18-1.593-.54-.384-.363-.576-.878-.576-1.545v-4.056h1.39v3.756c0 .428.11.745.33.953.223.203.511.305.862.305.416 0 .753-.125 1.013-.377.263-.256.397-.647.401-1.174zm4.661 1.013c.151-.308.405-.563.76-.767.36-.204.753-.308 1.18-.311v1.257c-.639 0-1.114.136-1.425.408-.308.267-.462.719-.462 1.354v3.073h-1.383v-6.027h1.33zm5.067 5.128c-.675 0-1.238-.142-1.689-.426-.451-.287-.727-.703-.827-1.246l1.169-.329c.079.335.237.589.473.76.235.168.527.252.874.252.288 0 .531-.06.731-.18.2-.119.298-.313.294-.581 0-.112-.026-.209-.078-.293-.052-.088-.114-.16-.186-.216-.072-.06-.176-.118-.311-.174-.132-.055-.254-.099-.366-.131-.108-.032-.255-.076-.443-.132s-.344-.104-.467-.144c-.228-.072-.42-.146-.575-.222-.156-.075-.314-.175-.474-.299-.159-.124-.281-.28-.365-.467-.08-.192-.12-.414-.12-.665 0-.392.102-.721.306-.989.203-.267.471-.461.802-.581.332-.124.711-.185 1.139-.185.603 0 1.11.129 1.521.389.415.26.673.657.773 1.192l-1.09.258c-.076-.304-.222-.528-.438-.671-.211-.144-.465-.216-.76-.216-.276 0-.51.058-.701.174-.188.112-.282.283-.282.515 0 .064.006.124.018.18.016.052.044.099.084.143s.076.084.108.12c.032.032.084.066.156.102.071.036.129.064.173.084s.116.046.216.078c.1.028.174.05.222.066.047.012.129.034.245.066.12.028.204.047.252.059.223.06.413.116.569.168.16.052.333.13.521.234.192.1.345.211.461.335.12.124.22.286.3.486.08.195.12.415.12.658 0 .324-.064.607-.192.851-.128.24-.304.429-.527.569-.22.136-.468.238-.743.306-.272.068-.569.102-.893.102z"/><path d="m263.899 196.922c-.387.174-.823.262-1.309.262-.487 0-.925-.088-1.315-.262-.387-.178-.695-.438-.924-.781-.226-.342-.339-.737-.339-1.186 0-.445.111-.832.334-1.16.226-.329.535-.577.929-.745-.281-.161-.501-.369-.662-.626-.161-.26-.242-.55-.242-.868 0-.558.209-1.013.627-1.366.417-.352.948-.529 1.592-.529.633 0 1.157.178 1.571.534.417.353.626.807.626 1.361 0 .318-.079.608-.236.868-.158.257-.373.465-.647.626.387.171.693.421.919.75s.339.714.339 1.155c0 .449-.115.844-.344 1.186-.226.343-.532.603-.919.781zm-1.309-4.236c.308 0 .569-.103.785-.308.219-.206.329-.457.329-.755 0-.295-.108-.541-.324-.74-.215-.201-.479-.302-.79-.302-.315 0-.581.101-.796.302-.216.199-.324.445-.324.74 0 .301.108.554.324.76.215.202.481.303.796.303zm0 3.43c.393 0 .722-.118.985-.355.264-.239.396-.554.396-.944 0-.387-.132-.697-.396-.93-.263-.233-.592-.349-.985-.349-.401 0-.733.116-.997.349-.263.233-.395.543-.395.93 0 .393.132.708.395.944.264.237.596.355.997.355zm8.333 1.068c-.579 0-1.061-.122-1.448-.365-.387-.246-.623-.602-.709-1.068l1.002-.282c.068.287.203.505.405.652.202.144.452.215.75.215.246 0 .455-.051.626-.154.172-.102.255-.268.252-.498 0-.096-.022-.179-.067-.251-.044-.076-.097-.137-.159-.185-.062-.051-.151-.101-.267-.149-.113-.048-.217-.086-.313-.113-.093-.027-.219-.065-.38-.113s-.295-.089-.401-.123c-.195-.062-.359-.125-.493-.19-.133-.065-.268-.151-.405-.257s-.242-.239-.313-.4c-.069-.165-.103-.355-.103-.57 0-.336.087-.618.262-.848.174-.229.404-.395.688-.498.284-.106.609-.159.975-.159.517 0 .952.111 1.305.334.356.222.576.563.662 1.022l-.935.221c-.065-.261-.19-.452-.374-.576-.182-.123-.399-.184-.652-.184-.237 0-.437.049-.601.149-.161.095-.242.243-.242.441 0 .055.006.106.016.154.014.045.037.086.072.123.034.038.065.072.092.103.028.027.072.057.134.087.061.031.111.055.149.072.037.017.099.04.184.067.086.024.149.043.19.056.041.011.112.03.211.057.103.024.174.041.216.051.191.052.354.1.487.144.137.045.286.111.447.2.164.086.296.182.395.288.103.106.189.245.257.416.069.167.103.356.103.565 0 .277-.055.52-.164.729-.11.205-.261.368-.452.487-.189.117-.401.204-.637.262-.233.059-.488.088-.765.088zm4.472 0c-.294 0-.558-.045-.791-.134-.229-.092-.421-.246-.575-.462-.15-.219-.226-.489-.226-.811 0-.216.035-.408.103-.575.072-.171.164-.314.277-.427.117-.112.262-.212.437-.297.178-.086.356-.153.534-.201.181-.051.39-.099.626-.143l.781-.144c.318-.062.477-.217.477-.467 0-.295-.096-.509-.287-.642-.192-.137-.433-.206-.724-.206-.302 0-.55.074-.745.221-.195.144-.311.373-.349.688l-1.063-.195c.175-1.04.918-1.561 2.229-1.561.219 0 .422.017.611.052.191.03.378.089.559.174.185.086.343.195.473.329.13.13.234.304.313.524.079.215.118.463.118.744v2.003c0 .239.036.403.108.492s.198.134.38.134h.082v.806h-.56c-.585 0-.934-.228-1.047-.683h-.057c-.188.267-.433.464-.734.591-.298.126-.614.19-.95.19zm.277-.93c.415 0 .759-.142 1.032-.426.274-.284.411-.657.411-1.119l-1.319.292c-.284.055-.497.136-.637.242-.14.102-.211.248-.211.436 0 .192.067.336.201.431.133.096.308.144.523.144zm5.951.832c-.465 0-.828-.132-1.088-.395-.26-.264-.39-.635-.39-1.115v-2.731h-1.032v-.924h.354c.281 0 .483-.065.606-.195.126-.134.19-.365.19-.694v-.801h1.078v1.69h1.124v.924h-1.124v2.608c0 .236.058.416.175.539.119.12.28.18.482.18h.467v.914zm1.156 1.997 5.103-9.884h1.125l-5.104 9.884zm10.289-7.162h1.258l-2.151 5.165h-1.022l-2.136-5.165h1.253l1.392 3.81zm6.085 1.319c.445.12.792.331 1.042.632s.375.7.375 1.196c0 .613-.192 1.102-.575 1.469-.383.366-.921.549-1.612.549h-2.932v-7.322h2.295c.719 0 1.28.178 1.684.534.407.356.611.835.611 1.438 0 .342-.077.643-.231.904-.151.26-.37.46-.657.6zm-1.402-2.439h-1.114v2.059h1.237c.319 0 .569-.099.75-.298.185-.198.277-.448.277-.749 0-.298-.101-.541-.303-.729-.202-.189-.484-.283-.847-.283zm.411 5.217c.394 0 .695-.103.904-.308.208-.209.313-.467.313-.775 0-.322-.108-.586-.324-.791-.212-.209-.525-.313-.939-.313h-1.479v2.187z"/><path d="m265.814 209.94c0 .345-.065.653-.195.924-.127.267-.305.486-.534.657-.229.168-.49.298-.781.39-.287.093-.604.149-.949.17v.693h-.524v-.698c-.695-.038-1.28-.235-1.756-.591-.473-.356-.764-.833-.873-1.432l1.263-.293c.058.359.209.65.452.873.246.222.551.359.914.411v-2.316c-.017-.007-.041-.014-.072-.021-.031-.01-.055-.017-.072-.02-.195-.058-.354-.106-.477-.144-.124-.041-.274-.096-.452-.164-.175-.072-.317-.141-.426-.206-.11-.068-.228-.154-.355-.256-.123-.107-.221-.218-.292-.334-.069-.117-.127-.253-.175-.411-.048-.161-.072-.335-.072-.524 0-.428.108-.799.324-1.114.215-.315.501-.551.857-.708.356-.161.76-.249 1.212-.262v-.673h.524v.693c.602.055 1.119.235 1.55.539.432.305.707.736.827 1.294l-1.186.298c-.069-.318-.207-.568-.416-.75-.206-.184-.464-.301-.775-.349v2.152c.205.054.371.102.498.143.13.038.291.095.482.17.195.072.353.144.473.216.123.068.255.159.395.272s.25.232.329.359c.078.123.145.272.2.447.055.174.082.363.082.565zm-4.133-3.312c0 .25.097.448.292.595.195.144.481.274.858.391v-2.018c-.336.027-.611.126-.827.298-.215.171-.323.415-.323.734zm1.674 4.426c.362-.028.652-.129.867-.303.219-.175.327-.428.324-.76-.004-.281-.108-.503-.313-.668-.202-.167-.495-.314-.878-.441zm6.253 1.027c-.818 0-1.447-.317-1.889-.95s-.662-1.571-.662-2.814.219-2.179.657-2.809c.438-.633 1.07-.949 1.894-.949.819 0 1.447.316 1.885.949.441.634.662 1.57.662 2.809s-.221 2.177-.662 2.814c-.442.633-1.07.95-1.885.95zm0-1.073c.439 0 .774-.223 1.007-.668.236-.445.354-1.119.354-2.023 0-.907-.12-1.58-.359-2.018-.236-.441-.57-.662-1.002-.662-.434 0-.77.219-1.006.657s-.354 1.113-.354 2.023c0 1.794.453 2.691 1.36 2.691zm3.995 1.078c-.195 0-.364-.07-.508-.211-.144-.143-.216-.313-.216-.508 0-.199.072-.368.216-.508.144-.144.313-.216.508-.216.199 0 .368.072.509.216.143.14.215.309.215.508s-.072.368-.215.508c-.141.141-.31.211-.509.211zm4.755-.005c-.818 0-1.448-.317-1.89-.95-.441-.633-.662-1.571-.662-2.814s.219-2.179.657-2.809c.438-.633 1.07-.949 1.895-.949.818 0 1.446.316 1.884.949.442.634.663 1.57.663 2.809s-.221 2.177-.663 2.814c-.441.633-1.07.95-1.884.95zm0-1.073c.438 0 .773-.223 1.006-.668.236-.445.354-1.119.354-2.023 0-.907-.119-1.58-.359-2.018-.236-.441-.57-.662-1.001-.662-.435 0-.77.219-1.007.657-.236.438-.354 1.113-.354 2.023 0 1.794.454 2.691 1.361 2.691zm6.1 1.073c-.818 0-1.448-.317-1.89-.95-.441-.633-.662-1.571-.662-2.814s.219-2.179.657-2.809c.438-.633 1.07-.949 1.895-.949.818 0 1.446.316 1.884.949.442.634.662 1.57.662 2.809s-.22 2.177-.662 2.814c-.441.633-1.07.95-1.884.95zm0-1.073c.438 0 .773-.223 1.006-.668.236-.445.354-1.119.354-2.023 0-.907-.119-1.58-.359-2.018-.236-.441-.57-.662-1.001-.662-.435 0-.77.219-1.007.657-.236.438-.354 1.113-.354 2.023 0 1.794.454 2.691 1.361 2.691zm6.064 1.073c-.866 0-1.507-.221-1.921-.663-.41-.445-.616-1.11-.616-1.997l1.212-.056c0 .284.019.523.056.718.038.195.105.368.201.519.099.147.236.257.41.329.175.071.394.107.658.107.421 0 .753-.114.996-.344.246-.232.369-.534.369-.903 0-.391-.118-.693-.354-.909-.233-.219-.536-.329-.909-.329h-.323v-.95h.308c.281 0 .515-.099.703-.297.192-.199.288-.447.288-.745 0-.294-.103-.529-.308-.703-.206-.175-.469-.262-.791-.262-.209 0-.385.034-.529.102-.144.069-.253.168-.328.298-.072.13-.124.271-.154.421-.031.147-.047.319-.047.514l-1.201-.052c0-.749.197-1.323.59-1.72.394-.4.947-.6 1.659-.6.637 0 1.165.183 1.586.549s.632.82.632 1.361c0 .362-.096.679-.288.95-.191.27-.421.462-.688.575.391.109.714.32.971.631.26.312.39.717.39 1.217 0 .674-.238 1.217-.714 1.628-.475.407-1.095.611-1.858.611zm6.13-7.512c.486 0 .928.106 1.325.318.401.212.717.512.95.899.233.383.349.814.349 1.294 0 .599-.216 1.189-.647 1.771l-2.367 3.132h-1.371l1.951-2.511c-.147.031-.301.047-.462.047-.407 0-.787-.096-1.14-.288-.352-.192-.642-.472-.867-.842-.223-.373-.336-.799-.339-1.279-.004-.489.113-.929.349-1.319.239-.394.558-.695.955-.904.4-.212.839-.318 1.314-.318zm.031 4.066c.431 0 .784-.143 1.058-.431.277-.291.416-.65.416-1.078 0-.452-.135-.811-.406-1.078-.27-.267-.626-.401-1.068-.401-.435 0-.794.139-1.078.416-.284.274-.425.632-.421 1.073.003.449.144.811.421 1.089.281.273.64.41 1.078.41zm5.207 2.28h3.378v1.068h-5.052v-.893l2.926-3.004c.49-.503.735-.982.735-1.438 0-.352-.105-.626-.314-.821-.208-.199-.491-.298-.847-.298-.373 0-.667.11-.883.329-.216.215-.323.561-.323 1.037v.539l-1.176-.113v-.411c0-.76.214-1.343.642-1.751.428-.407 1.006-.611 1.735-.611.685 0 1.244.187 1.679.56s.652.885.652 1.535c0 .373-.08.717-.241 1.032s-.414.652-.76 1.012z"/></g><path d="m67 238.542h265" opacity=".5" stroke="#e5e5e5"/><g clip-path="url(#a)"><path d="m67.9102 266.042h1.2501v-3.613h3.5195v-1.072h-3.5195v-2.524h3.8876v-1.076h-5.1377zm8.7998.125c1.3553 0 2.314-.667 2.5891-1.679l-1.1448-.206c-.2185.587-.7444.886-1.4321.886-1.0357 0-1.7315-.672-1.7638-1.869h4.4176v-.429c0-2.245-1.3431-3.123-2.7509-3.123-1.7315 0-2.8723 1.319-2.8723 3.228 0 1.93 1.1247 3.192 2.9572 3.192zm-1.7476-3.774c.0486-.882.6877-1.647 1.6708-1.647.9385 0 1.5534.696 1.5575 1.647zm8.4337 3.774c1.3552 0 2.314-.667 2.5891-1.679l-1.1449-.206c-.2184.587-.7443.886-1.432.886-1.0357 0-1.7315-.672-1.7638-1.869h4.4176v-.429c0-2.245-1.3431-3.123-2.7509-3.123-1.7315 0-2.8723 1.319-2.8723 3.228 0 1.93 1.1246 3.192 2.9572 3.192zm-1.7476-3.774c.0485-.882.6877-1.647 1.6708-1.647.9385 0 1.5534.696 1.5574 1.647zm8.7705 3.649h1.2096v-3.795c0-.813.627-1.4 1.4846-1.4.2509 0 .534.045.6311.073v-1.157c-.1213-.016-.36-.028-.5137-.028-.7282 0-1.3512.413-1.5778 1.08h-.0647v-.987h-1.1691zm6.1248.137c1.0275 0 1.606-.522 1.8366-.987h.0485v.85h1.1813v-4.127c0-1.808-1.424-2.168-2.4111-2.168-1.1246 0-2.1602.453-2.5648 1.586l1.1368.259c.178-.441.6311-.866 1.4442-.866.7808 0 1.1813.409 1.1813 1.113v.028c0 .441-.4531.433-1.5697.562-1.1772.138-2.3827.445-2.3827 1.857 0 1.222.9183 1.893 2.0996 1.893zm.2629-.971c-.6837 0-1.1772-.307-1.1772-.906 0-.647.5744-.878 1.2743-.971.3924-.052 1.3229-.157 1.4968-.331v.801c0 .736-.5866 1.407-1.5939 1.407zm7.3153-5.38h-1.274v-1.489h-1.21v1.489h-.91v.971h.91v3.669c-.004 1.129.858 1.675 1.812 1.655.385-.004.644-.077.785-.13l-.218-.999c-.081.016-.231.053-.425.053-.392 0-.744-.13-.744-.83v-3.418h1.274zm3.949 6.339c1.355 0 2.314-.667 2.589-1.679l-1.145-.206c-.218.587-.744.886-1.432.886-1.035 0-1.731-.672-1.763-1.869h4.417v-.429c0-2.245-1.343-3.123-2.751-3.123-1.731 0-2.872 1.319-2.872 3.228 0 1.93 1.125 3.192 2.957 3.192zm-1.747-3.774c.048-.882.687-1.647 1.67-1.647.939 0 1.554.696 1.558 1.647z" fill="#000"/><path d="m281.805 266.017c1.691 0 2.933-1.011 2.929-2.387.004-1.047-.631-1.8-1.732-1.97v-.065c.866-.222 1.428-.902 1.424-1.832.004-1.218-.995-2.258-2.589-2.258-1.521 0-2.743.919-2.783 2.266h1.21c.028-.761.744-1.222 1.557-1.222.845 0 1.4.514 1.396 1.279.004.801-.64 1.326-1.558 1.326h-.7v1.02h.7c1.149 0 1.813.582 1.813 1.416 0 .805-.7 1.351-1.675 1.351-.898 0-1.598-.461-1.647-1.197h-1.27c.053 1.351 1.25 2.273 2.925 2.273zm7.342.024c1.914 0 3.034-1.561 3.034-4.276 0-2.694-1.136-4.26-3.034-4.26-1.901 0-3.034 1.562-3.038 4.26 0 2.711 1.121 4.272 3.038 4.276zm0-1.08c-1.12 0-1.796-1.124-1.796-3.196.004-2.063.68-3.2 1.796-3.2 1.113 0 1.792 1.137 1.792 3.2 0 2.072-.675 3.196-1.792 3.196zm12.116-5.166h1.206c-.037-1.327-1.21-2.29-2.893-2.29-1.662 0-2.937.951-2.937 2.379 0 1.153.826 1.829 2.157 2.189l.979.267c.886.234 1.569.526 1.569 1.262 0 .809-.772 1.343-1.836 1.343-.963 0-1.764-.429-1.837-1.331h-1.254c.081 1.501 1.242 2.427 3.099 2.427 1.946 0 3.066-1.023 3.066-2.427 0-1.493-1.331-2.071-2.383-2.33l-.809-.21c-.647-.166-1.509-.47-1.505-1.263 0-.704.644-1.225 1.663-1.225.951 0 1.626.445 1.715 1.209zm4.524 6.246c1.028 0 1.606-.522 1.837-.987h.048v.85h1.182v-4.127c0-1.808-1.424-2.168-2.412-2.168-1.124 0-2.16.453-2.564 1.586l1.136.259c.178-.441.632-.866 1.445-.866.78 0 1.181.409 1.181 1.113v.028c0 .441-.453.433-1.57.562-1.177.138-2.382.445-2.382 1.857 0 1.222.918 1.893 2.099 1.893zm.263-.971c-.684 0-1.177-.307-1.177-.906 0-.647.574-.878 1.274-.971.393-.052 1.323-.157 1.497-.331v.801c0 .736-.587 1.407-1.594 1.407zm7.315-5.38h-1.274v-1.489h-1.21v1.489h-.91v.971h.91v3.669c-.004 1.129.858 1.675 1.813 1.655.384-.004.643-.077.784-.13l-.218-.999c-.081.016-.231.053-.425.053-.392 0-.744-.13-.744-.83v-3.418h1.274zm4.494-2.46h-1.08l-2.67 9.92h1.08zm6.343 2.46h-1.299l-1.569 4.782h-.065l-1.574-4.782h-1.298l2.257 6.214h1.295zm1.234 6.214h3.175c1.926 0 2.796-.959 2.796-2.229 0-1.283-.898-2.007-1.719-2.051v-.081c.76-.194 1.395-.712 1.395-1.748 0-1.226-.849-2.176-2.613-2.176h-3.034zm1.25-1.072v-2.654h1.849c1.003 0 1.63.647 1.63 1.436 0 .696-.473 1.218-1.675 1.218zm0-3.629v-2.52h1.707c.991 0 1.464.522 1.464 1.209 0 .801-.655 1.311-1.496 1.311z" fill="#a4a4a4"/></g><g clip-path="url(#b)"><path d="m67.5016 279.833h2.581v7.209h1.246v-7.209h2.585v-1.076h-6.412zm7.0866 7.209h1.2096v-3.795c0-.813.627-1.4 1.4847-1.4.2508 0 .534.045.6311.073v-1.157c-.1214-.016-.3601-.028-.5138-.028-.7282 0-1.3512.413-1.5777 1.08h-.0648v-.987h-1.1691zm6.1248.137c1.0275 0 1.606-.522 1.8366-.987h.0486v.85h1.1812v-4.127c0-1.808-1.424-2.168-2.411-2.168-1.1247 0-2.1603.453-2.5649 1.586l1.1368.259c.178-.441.6311-.866 1.4442-.866.7808 0 1.1813.409 1.1813 1.113v.028c0 .441-.4531.433-1.5696.562-1.1772.138-2.3828.445-2.3828 1.857 0 1.222.9183 1.893 2.0996 1.893zm.2629-.971c-.6836 0-1.1772-.307-1.1772-.906 0-.647.5745-.878 1.2743-.971.3924-.052 1.3229-.157 1.4968-.331v.801c0 .736-.5865 1.407-1.5939 1.407zm5.6242-2.856c0-.991.6068-1.557 1.4483-1.557.8212 0 1.3188.538 1.3188 1.44v3.807h1.2096v-3.953c0-1.537-.8455-2.342-2.1158-2.342-.9345 0-1.5454.433-1.8326 1.092h-.0768v-1.011h-1.1611v6.214h1.2096zm10.2552-1.007c-.2509-.967-1.0073-1.598-2.3504-1.598-1.4038 0-2.399.74-2.399 1.841 0 .882.534 1.468 1.6991 1.727l1.0518.231c.5987.133.8779.4.8779.789 0 .481-.5138.857-1.3067.857-.7241 0-1.1894-.311-1.335-.922l-1.1691.178c.2023 1.1 1.1165 1.719 2.5122 1.719 1.5009 0 2.5405-.797 2.5405-1.921 0-.878-.5582-1.42-1.6991-1.683l-.987-.227c-.6837-.162-.979-.392-.975-.813-.004-.477.5138-.817 1.2015-.817.7525 0 1.1004.417 1.242.833zm3.2597 4.834c1.027 0 1.606-.522 1.836-.987h.049v.85h1.181v-4.127c0-1.808-1.424-2.168-2.411-2.168-1.1244 0-2.16.453-2.5646 1.586l1.1368.259c.178-.441.6311-.866 1.4438-.866.781 0 1.182.409 1.182 1.113v.028c0 .441-.453.433-1.57.562-1.1772.138-2.3827.445-2.3827 1.857 0 1.222.9183 1.893 2.0997 1.893zm.263-.971c-.6839 0-1.1774-.307-1.1774-.906 0-.647.5745-.878 1.2744-.971.392-.052 1.323-.157 1.497-.331v.801c0 .736-.587 1.407-1.594 1.407zm7.032.959c1.468 0 2.419-.882 2.552-2.091h-1.177c-.153.671-.675 1.068-1.367 1.068-1.024 0-1.683-.854-1.683-2.209 0-1.331.672-2.168 1.683-2.168.769 0 1.238.485 1.367 1.068h1.177c-.129-1.255-1.152-2.088-2.564-2.088-1.752 0-2.885 1.319-2.885 3.216 0 1.873 1.093 3.204 2.897 3.204zm6.747-6.339h-1.275v-1.489h-1.209v1.489h-.911v.971h.911v3.669c-.004 1.129.857 1.675 1.812 1.655.384-.004.643-.077.785-.13l-.219-.999c-.081.016-.23.053-.424.053-.393 0-.745-.13-.745-.83v-3.418h1.275zm1.338 6.214h1.209v-6.214h-1.209zm.61-7.173c.417 0 .765-.323.765-.72 0-.396-.348-.724-.765-.724-.42 0-.764.328-.764.724 0 .397.344.72.764.72zm4.844 7.298c1.751 0 2.896-1.282 2.896-3.204 0-1.934-1.145-3.216-2.896-3.216-1.752 0-2.897 1.282-2.897 3.216 0 1.922 1.145 3.204 2.897 3.204zm.004-1.015c-1.145 0-1.679-.999-1.679-2.193 0-1.189.534-2.201 1.679-2.201 1.137 0 1.671 1.012 1.671 2.201 0 1.194-.534 2.193-1.671 2.193zm5.452-2.8c0-.991.607-1.557 1.448-1.557.822 0 1.319.538 1.319 1.44v3.807h1.21v-3.953c0-1.537-.846-2.342-2.116-2.342-.935 0-1.545.433-1.833 1.092h-.076v-1.011h-1.161v6.214h1.209zm10.94 3.811c1.133 0 1.578-.692 1.796-1.088h.101v.967h1.182v-8.285h-1.21v3.078h-.073c-.218-.384-.631-1.088-1.788-1.088-1.501 0-2.605 1.185-2.605 3.2 0 2.011 1.088 3.216 2.597 3.216zm.267-1.031c-1.08 0-1.642-.951-1.642-2.197 0-1.234.55-2.16 1.642-2.16 1.056 0 1.622.861 1.622 2.16 0 1.307-.578 2.197-1.622 2.197zm6.346 1.047c1.028 0 1.606-.522 1.837-.987h.048v.85h1.182v-4.127c0-1.808-1.424-2.168-2.411-2.168-1.125 0-2.161.453-2.565 1.586l1.137.259c.178-.441.631-.866 1.444-.866.781 0 1.181.409 1.181 1.113v.028c0 .441-.453.433-1.57.562-1.177.138-2.382.445-2.382 1.857 0 1.222.918 1.893 2.099 1.893zm.263-.971c-.684 0-1.177-.307-1.177-.906 0-.647.574-.878 1.274-.971.393-.052 1.323-.157 1.497-.331v.801c0 .736-.587 1.407-1.594 1.407zm7.315-5.38h-1.274v-1.489h-1.21v1.489h-.91v.971h.91v3.669c-.004 1.129.858 1.675 1.813 1.655.384-.004.643-.077.785-.13l-.219-.999c-.081.016-.23.053-.425.053-.392 0-.744-.13-.744-.83v-3.418h1.274zm3.147 6.351c1.027 0 1.606-.522 1.836-.987h.049v.85h1.181v-4.127c0-1.808-1.424-2.168-2.411-2.168-1.125 0-2.16.453-2.565 1.586l1.137.259c.178-.441.631-.866 1.444-.866.781 0 1.181.409 1.181 1.113v.028c0 .441-.453.433-1.569.562-1.177.138-2.383.445-2.383 1.857 0 1.222.918 1.893 2.1 1.893zm.263-.971c-.684 0-1.178-.307-1.178-.906 0-.647.575-.878 1.275-.971.392-.052 1.323-.157 1.496-.331v.801c0 .736-.586 1.407-1.593 1.407z" fill="#000"/><path d="m294.429 286.904h5.453v-1.072h-3.73v-.061l1.646-1.723c1.517-1.533 1.95-2.266 1.95-3.192 0-1.331-1.084-2.351-2.645-2.351-1.55 0-2.683 1.004-2.683 2.517h1.194c-.004-.89.57-1.473 1.464-1.473.842 0 1.481.518 1.481 1.343 0 .733-.437 1.258-1.327 2.201l-2.803 2.905zm9.879.113c1.731.016 2.88-1.23 2.876-2.82.004-1.585-1.149-2.722-2.585-2.722-.874 0-1.631.421-2.055 1.12h-.061c.004-1.881.716-2.997 1.93-2.997.797 0 1.298.485 1.468 1.173h1.234c-.19-1.311-1.222-2.266-2.702-2.266-1.926 0-3.127 1.655-3.127 4.535-.004 3.051 1.549 3.965 3.022 3.977zm-.005-1.052c-.962 0-1.666-.809-1.666-1.739.004-.927.74-1.736 1.695-1.736.946 0 1.642.765 1.638 1.724.004.979-.72 1.751-1.667 1.751zm7.154 1.052c1.723 0 2.941-.979 2.949-2.322-.008-1.044-.74-1.922-1.667-2.087v-.049c.805-.194 1.351-.951 1.359-1.845-.008-1.266-1.124-2.209-2.641-2.209-1.533 0-2.65.943-2.642 2.209-.008.89.538 1.651 1.359 1.845v.049c-.942.165-1.674 1.043-1.666 2.087-.008 1.343 1.209 2.322 2.949 2.322zm0-1.023c-1.036 0-1.691-.551-1.683-1.38-.008-.862.704-1.476 1.683-1.476.963 0 1.675.614 1.683 1.476-.008.829-.66 1.38-1.683 1.38zm0-3.856c-.838 0-1.432-.53-1.424-1.319-.008-.776.566-1.29 1.424-1.29.841 0 1.416.514 1.424 1.29-.008.789-.599 1.319-1.424 1.319zm12.745-1.448h-1.299l-1.569 4.782h-.065l-1.574-4.782h-1.298l2.257 6.214h1.295zm1.234 6.214h3.175c1.926 0 2.796-.959 2.796-2.229 0-1.283-.898-2.007-1.719-2.051v-.081c.76-.194 1.395-.712 1.395-1.748 0-1.226-.849-2.176-2.613-2.176h-3.034zm1.25-1.072v-2.654h1.849c1.003 0 1.63.647 1.63 1.436 0 .696-.473 1.218-1.675 1.218zm0-3.629v-2.52h1.707c.991 0 1.464.522 1.464 1.209 0 .801-.655 1.311-1.496 1.311z" fill="#a4a4a4"/></g><g clip-path="url(#c)"><path d="m67.5016 300.833h2.581v7.209h1.246v-7.209h2.585v-1.076h-6.412zm7.7319 7.209h1.2095v-6.214h-1.2095zm.6108-7.173c.4167 0 .7646-.323.7646-.72 0-.396-.3479-.724-.7646-.724-.4207 0-.7646.328-.7646.724 0 .397.3439.72.7646.72zm2.226 7.173h1.2096v-3.831c0-.838.5866-1.42 1.2743-1.42.6715 0 1.1368.445 1.1368 1.12v4.131h1.2055v-3.961c0-.748.4571-1.29 1.246-1.29.6392 0 1.1651.356 1.1651 1.197v4.054h1.2096v-4.167c0-1.42-.7929-2.128-1.9176-2.128-.894 0-1.5655.429-1.8649 1.092h-.0647c-.2711-.679-.8415-1.092-1.6708-1.092-.8212 0-1.4321.409-1.691 1.092h-.0768v-1.011h-1.1611zm12.7461.125c1.3553 0 2.314-.667 2.5891-1.679l-1.1448-.206c-.2185.587-.7444.886-1.4321.886-1.0356 0-1.7315-.672-1.7638-1.869h4.4176v-.429c0-2.245-1.3431-3.123-2.7509-3.123-1.7314 0-2.8723 1.319-2.8723 3.228 0 1.93 1.1247 3.192 2.9572 3.192zm-1.7476-3.774c.0486-.882.6877-1.647 1.6708-1.647.9385 0 1.5534.696 1.5575 1.647zm11.7282-2.565h-1.3395v-.558c0-.55.2265-.85.8175-.85.25 0 .428.057.542.093l.283-.979c-.17-.065-.522-.166-1.011-.166-.9835 0-1.8451.575-1.8451 1.74v.72h-.9588v.971h.9588v5.243h1.2136v-5.243h1.3395zm3.62 6.339c1.752 0 2.897-1.282 2.897-3.204 0-1.934-1.145-3.216-2.897-3.216-1.751 0-2.896 1.282-2.896 3.216 0 1.922 1.145 3.204 2.896 3.204zm.004-1.015c-1.145 0-1.679-.999-1.679-2.193 0-1.189.534-2.201 1.679-2.201 1.137 0 1.671 1.012 1.671 2.201 0 1.194-.534 2.193-1.671 2.193zm4.243.89h1.209v-3.795c0-.813.627-1.4 1.485-1.4.251 0 .534.045.631.073v-1.157c-.121-.016-.36-.028-.514-.028-.728 0-1.351.413-1.577 1.08h-.065v-.987h-1.169zm10.004.125c1.469 0 2.419-.882 2.553-2.091h-1.177c-.154.671-.676 1.068-1.368 1.068-1.023 0-1.683-.854-1.683-2.209 0-1.331.672-2.168 1.683-2.168.769 0 1.238.485 1.368 1.068h1.177c-.13-1.255-1.153-2.088-2.565-2.088-1.752 0-2.884 1.319-2.884 3.216 0 1.873 1.092 3.204 2.896 3.204zm6.464 0c1.751 0 2.896-1.282 2.896-3.204 0-1.934-1.145-3.216-2.896-3.216-1.752 0-2.897 1.282-2.897 3.216 0 1.922 1.145 3.204 2.897 3.204zm.004-1.015c-1.145 0-1.679-.999-1.679-2.193 0-1.189.534-2.201 1.679-2.201 1.137 0 1.671 1.012 1.671 2.201 0 1.194-.534 2.193-1.671 2.193zm5.452-2.8c0-.991.607-1.557 1.448-1.557.822 0 1.319.538 1.319 1.44v3.807h1.21v-3.953c0-1.537-.846-2.342-2.116-2.342-.935 0-1.545.433-1.833 1.092h-.076v-1.011h-1.162v6.214h1.21zm8.556-2.524h-1.339v-.558c0-.55.227-.85.817-.85.251 0 .429.057.542.093l.284-.979c-.17-.065-.522-.166-1.012-.166-.983 0-1.845.575-1.845 1.74v.72h-.958v.971h.958v5.243h1.214v-5.243h1.339zm1.248 6.214h1.21v-6.214h-1.21zm.611-7.173c.417 0 .765-.323.765-.72 0-.396-.348-.724-.765-.724-.421 0-.765.328-.765.724 0 .397.344.72.765.72zm2.226 7.173h1.21v-3.795c0-.813.627-1.4 1.484-1.4.251 0 .534.045.631.073v-1.157c-.121-.016-.36-.028-.513-.028-.729 0-1.352.413-1.578 1.08h-.065v-.987h-1.169zm4.372 0h1.21v-3.831c0-.838.586-1.42 1.274-1.42.672 0 1.137.445 1.137 1.12v4.131h1.205v-3.961c0-.748.457-1.29 1.246-1.29.639 0 1.165.356 1.165 1.197v4.054h1.21v-4.167c0-1.42-.793-2.128-1.918-2.128-.894 0-1.565.429-1.865 1.092h-.064c-.271-.679-.842-1.092-1.671-1.092-.821 0-1.432.409-1.691 1.092h-.077v-1.011h-1.161zm11.876.137c1.028 0 1.607-.522 1.837-.987h.049v.85h1.181v-4.127c0-1.808-1.424-2.168-2.411-2.168-1.125 0-2.16.453-2.565 1.586l1.137.259c.178-.441.631-.866 1.444-.866.781 0 1.181.409 1.181 1.113v.028c0 .441-.453.433-1.569.562-1.178.138-2.383.445-2.383 1.857 0 1.222.918 1.893 2.099 1.893zm.263-.971c-.683 0-1.177-.307-1.177-.906 0-.647.575-.878 1.275-.971.392-.052 1.322-.157 1.496-.331v.801c0 .736-.586 1.407-1.594 1.407zm7.316-5.38h-1.275v-1.489h-1.209v1.489h-.911v.971h.911v3.669c-.004 1.129.857 1.675 1.812 1.655.384-.004.643-.077.785-.13l-.219-.999c-.081.016-.23.053-.424.053-.393 0-.745-.13-.745-.83v-3.418h1.275zm1.338 6.214h1.209v-6.214h-1.209zm.61-7.173c.417 0 .765-.323.765-.72 0-.396-.348-.724-.765-.724-.42 0-.764.328-.764.724 0 .397.344.72.764.72zm4.844 7.298c1.752 0 2.896-1.282 2.896-3.204 0-1.934-1.144-3.216-2.896-3.216s-2.897 1.282-2.897 3.216c0 1.922 1.145 3.204 2.897 3.204zm.004-1.015c-1.145 0-1.679-.999-1.679-2.193 0-1.189.534-2.201 1.679-2.201 1.137 0 1.671 1.012 1.671 2.201 0 1.194-.534 2.193-1.671 2.193zm5.452-2.8c0-.991.607-1.557 1.448-1.557.822 0 1.319.538 1.319 1.44v3.807h1.21v-3.953c0-1.537-.846-2.342-2.116-2.342-.934 0-1.545.433-1.833 1.092h-.076v-1.011h-1.161v6.214h1.209zm8.966.251c0 2.031.542 3.722 1.569 5.162h1.109c-.797-1.068-1.424-3.236-1.424-5.162 0-1.921.627-4.09 1.424-5.158h-1.109c-1.027 1.44-1.569 3.131-1.569 5.158zm6.531 3.564c1.355 0 2.314-.667 2.589-1.679l-1.145-.206c-.218.587-.744.886-1.432.886-1.035 0-1.731-.672-1.764-1.869h4.418v-.429c0-2.245-1.343-3.123-2.751-3.123-1.731 0-2.872 1.319-2.872 3.228 0 1.93 1.125 3.192 2.957 3.192zm-1.747-3.774c.048-.882.687-1.647 1.67-1.647.939 0 1.554.696 1.558 1.647zm10.411-1.048c-.25-.967-1.007-1.598-2.35-1.598-1.404 0-2.399.74-2.399 1.841 0 .882.534 1.468 1.699 1.727l1.052.231c.599.133.878.4.878.789 0 .481-.514.857-1.307.857-.724 0-1.189-.311-1.335-.922l-1.169.178c.202 1.1 1.117 1.719 2.512 1.719 1.501 0 2.541-.797 2.541-1.921 0-.878-.558-1.42-1.699-1.683l-.987-.227c-.684-.162-.979-.392-.975-.813-.004-.477.513-.817 1.201-.817.753 0 1.101.417 1.242.833zm4.352-1.517h-1.274v-1.489h-1.21v1.489h-.91v.971h.91v3.669c-.004 1.129.858 1.675 1.813 1.655.384-.004.643-.077.785-.13l-.219-.999c-.081.016-.23.053-.425.053-.392 0-.744-.13-.744-.83v-3.418h1.274zm1.338 6.214h1.21v-6.214h-1.21zm.611-7.173c.417 0 .765-.323.765-.72 0-.396-.348-.724-.765-.724-.421 0-.764.328-.764.724 0 .397.343.72.764.72zm2.226 7.173h1.21v-3.831c0-.838.586-1.42 1.274-1.42.672 0 1.137.445 1.137 1.12v4.131h1.205v-3.961c0-.748.458-1.29 1.246-1.29.64 0 1.165.356 1.165 1.197v4.054h1.21v-4.167c0-1.42-.793-2.128-1.917-2.128-.895 0-1.566.429-1.865 1.092h-.065c-.271-.679-.842-1.092-1.671-1.092-.821 0-1.432.409-1.691 1.092h-.077v-1.011h-1.161zm11.877.137c1.027 0 1.606-.522 1.836-.987h.049v.85h1.181v-4.127c0-1.808-1.424-2.168-2.411-2.168-1.125 0-2.16.453-2.565 1.586l1.137.259c.178-.441.631-.866 1.444-.866.781 0 1.181.409 1.181 1.113v.028c0 .441-.453.433-1.569.562-1.177.138-2.383.445-2.383 1.857 0 1.222.918 1.893 2.1 1.893zm.263-.971c-.684 0-1.178-.307-1.178-.906 0-.647.575-.878 1.275-.971.392-.052 1.322-.157 1.496-.331v.801c0 .736-.586 1.407-1.593 1.407zm7.315-5.38h-1.275v-1.489h-1.209v1.489h-.91v.971h.91v3.669c-.004 1.129.857 1.675 1.812 1.655.384-.004.643-.077.785-.13l-.219-.999c-.08.016-.23.053-.424.053-.393 0-.745-.13-.745-.83v-3.418h1.275zm3.949 6.339c1.355 0 2.314-.667 2.589-1.679l-1.145-.206c-.218.587-.744.886-1.432.886-1.035 0-1.731-.672-1.764-1.869h4.418v-.429c0-2.245-1.343-3.123-2.751-3.123-1.731 0-2.872 1.319-2.872 3.228 0 1.93 1.124 3.192 2.957 3.192zm-1.748-3.774c.049-.882.688-1.647 1.671-1.647.939 0 1.554.696 1.558 1.647zm8.082 3.77c1.133 0 1.578-.692 1.796-1.088h.101v.967h1.182v-8.285h-1.21v3.078h-.073c-.218-.384-.631-1.088-1.788-1.088-1.501 0-2.605 1.185-2.605 3.2 0 2.011 1.088 3.216 2.597 3.216zm.267-1.031c-1.08 0-1.642-.951-1.642-2.197 0-1.234.55-2.16 1.642-2.16 1.056 0 1.622.861 1.622 2.16 0 1.307-.578 2.197-1.622 2.197zm6.864-2.525c0-2.031-.542-3.722-1.569-5.162h-1.109c.797 1.068 1.424 3.237 1.424 5.162 0 1.922-.627 4.09-1.424 5.158h1.109c1.027-1.44 1.569-3.131 1.569-5.158z" fill="#000"/><path d="m294.346 299.619h-1.218l-2.067 1.351v1.197l1.982-1.294h.049v7.031h1.254zm5.125 8.422c1.914 0 3.034-1.561 3.034-4.276 0-2.694-1.136-4.26-3.034-4.26-1.901 0-3.034 1.562-3.038 4.26 0 2.711 1.121 4.272 3.038 4.276zm0-1.08c-1.12 0-1.796-1.124-1.796-3.196.004-2.063.68-3.2 1.796-3.2 1.113 0 1.792 1.137 1.792 3.2 0 2.072-.675 3.196-1.792 3.196zm7.5.943h1.21v-3.831c0-.838.587-1.42 1.274-1.42.672 0 1.137.445 1.137 1.12v4.131h1.206v-3.961c0-.748.457-1.29 1.246-1.29.639 0 1.165.356 1.165 1.197v4.054h1.209v-4.167c0-1.42-.793-2.128-1.917-2.128-.894 0-1.566.429-1.865 1.092h-.065c-.271-.679-.841-1.092-1.671-1.092-.821 0-1.432.409-1.691 1.092h-.077v-1.011h-1.161zm10.068 0h1.21v-6.214h-1.21zm.611-7.173c.417 0 .765-.323.765-.72 0-.396-.348-.724-.765-.724-.42 0-.764.328-.764.724 0 .397.344.72.764.72zm3.436 3.483c0-.991.607-1.557 1.448-1.557.821 0 1.319.538 1.319 1.44v3.807h1.21v-3.953c0-1.537-.846-2.342-2.116-2.342-.935 0-1.546.433-1.833 1.092h-.077v-1.011h-1.161v6.214h1.21zm10.255-1.007c-.251-.967-1.007-1.598-2.35-1.598-1.404 0-2.399.74-2.399 1.841 0 .882.534 1.468 1.699 1.727l1.052.231c.598.133.877.4.877.789 0 .481-.513.857-1.306.857-.724 0-1.19-.311-1.335-.922l-1.169.178c.202 1.1 1.116 1.719 2.512 1.719 1.501 0 2.54-.797 2.54-1.921 0-.878-.558-1.42-1.699-1.683l-.987-.227c-.683-.162-.979-.392-.975-.813-.004-.477.514-.817 1.202-.817.752 0 1.1.417 1.242.833z" fill="#a4a4a4"/></g><rect fill="#2c7be5" fill-opacity=".1" height="24" rx="4.382" width="265" x="67" y="317.042"/><path d="m75.5016 325.833h2.581v7.209h1.246v-7.209h2.585v-1.076h-6.412zm9.4481 7.334c1.7517 0 2.8966-1.282 2.8966-3.204 0-1.934-1.1449-3.216-2.8966-3.216-1.7516 0-2.8965 1.282-2.8965 3.216 0 1.922 1.1449 3.204 2.8965 3.204zm.0041-1.015c-1.1449 0-1.6789-.999-1.6789-2.193 0-1.189.534-2.201 1.6789-2.201 1.1367 0 1.6707 1.012 1.6707 2.201 0 1.194-.534 2.193-1.6707 2.193zm7.1432-5.324h-1.2743v-1.489h-1.2096v1.489h-.9102v.971h.9102v3.669c-.004 1.129.8576 1.675 1.8124 1.655.3843-.004.6432-.077.7848-.13l-.2185-.999c-.0809.016-.2306.053-.4248.053-.3924 0-.7443-.13-.7443-.83v-3.418h1.2743zm3.1463 6.351c1.0276 0 1.6061-.522 1.8366-.987h.0486v.85h1.1813v-4.127c0-1.808-1.424-2.168-2.4111-2.168-1.1246 0-2.1603.453-2.5648 1.586l1.1367.259c.178-.441.6311-.866 1.4443-.866.7807 0 1.1812.409 1.1812 1.113v.028c0 .441-.4531.433-1.5696.562-1.1772.138-2.3828.445-2.3828 1.857 0 1.222.9184 1.893 2.0996 1.893zm.263-.971c-.6837 0-1.1772-.307-1.1772-.906 0-.647.5744-.878 1.2743-.971.3924-.052 1.3228-.157 1.4968-.331v.801c0 .736-.5866 1.407-1.5939 1.407zm5.6237-7.451h-1.2091v8.285h1.2091zm4.74 8.285h1.25v-3.613h3.519v-1.072h-3.519v-2.524h3.887v-1.076h-5.137zm8.799.125c1.356 0 2.314-.667 2.59-1.679l-1.145-.206c-.219.587-.745.886-1.432.886-1.036 0-1.732-.672-1.764-1.869h4.417v-.429c0-2.245-1.343-3.123-2.75-3.123-1.732 0-2.873 1.319-2.873 3.228 0 1.93 1.125 3.192 2.957 3.192zm-1.747-3.774c.048-.882.688-1.647 1.671-1.647.938 0 1.553.696 1.557 1.647zm8.434 3.774c1.355 0 2.314-.667 2.589-1.679l-1.145-.206c-.219.587-.745.886-1.432.886-1.036 0-1.732-.672-1.764-1.869h4.417v-.429c0-2.245-1.343-3.123-2.75-3.123-1.732 0-2.873 1.319-2.873 3.228 0 1.93 1.125 3.192 2.958 3.192zm-1.748-3.774c.048-.882.688-1.647 1.671-1.647.938 0 1.553.696 1.557 1.647z" fill="#000"/><path d="m282.183 329.813h1.024c-.012-.691.295-.97.712-.97.283 0 .461.125.837.453.583.509.987.732 1.534.732.906 0 1.682-.627 1.65-2.031h-1.023c.012.643-.28.971-.712.971-.288 0-.47-.133-.838-.453-.59-.518-.995-.732-1.533-.732-.914 0-1.683.627-1.651 2.03zm12.981 4.264h.761l.004-.91c1.711-.125 2.69-1.104 2.69-2.415 0-1.493-1.331-2.071-2.383-2.33l-.295-.077.008-2.597c.756.101 1.274.522 1.351 1.185h1.206c-.033-1.234-1.052-2.156-2.553-2.277l.004-.935h-.76l-.004.943c-1.453.145-2.517 1.051-2.517 2.358 0 1.153.826 1.829 2.156 2.189l.348.093-.008 2.755c-.789-.097-1.399-.526-1.464-1.307h-1.254c.077 1.396 1.084 2.294 2.714 2.415zm.769-2.018.008-2.545c.821.227 1.44.526 1.44 1.226 0 .708-.591 1.205-1.448 1.319zm-.749-3.916c-.602-.178-1.266-.498-1.262-1.194 0-.606.482-1.08 1.266-1.197zm7.7 5.012c1.691 0 2.933-1.011 2.929-2.387.004-1.048-.631-1.8-1.732-1.97v-.065c.866-.222 1.428-.902 1.424-1.832.004-1.218-.995-2.258-2.589-2.258-1.521 0-2.743.919-2.783 2.266h1.21c.028-.761.744-1.222 1.557-1.222.846 0 1.4.514 1.396 1.279.004.801-.639 1.326-1.558 1.326h-.7v1.02h.7c1.149 0 1.813.582 1.813 1.416 0 .805-.7 1.351-1.675 1.351-.898 0-1.598-.461-1.647-1.198h-1.27c.053 1.352 1.25 2.274 2.925 2.274zm5.015-.036c.441 0 .809-.36.809-.809 0-.441-.368-.806-.809-.806-.445 0-.809.365-.809.806 0 .449.364.809.809.809zm5.068-8.476c-1.739-.016-2.876 1.234-2.876 2.804.004 1.582 1.149 2.722 2.585 2.722.878 0 1.63-.428 2.055-1.124h.065c-.004 1.905-.72 3.018-1.934 3.018-.793 0-1.303-.486-1.465-1.194h-1.233c.182 1.339 1.217 2.286 2.698 2.286 1.926 0 3.131-1.655 3.131-4.555-.004-3.026-1.549-3.944-3.026-3.957zm.004 1.052c.959 0 1.667.813 1.667 1.724.004.922-.744 1.731-1.691 1.731-.951 0-1.639-.76-1.643-1.719 0-.963.716-1.736 1.667-1.736zm7.368 7.46c1.691 0 2.933-1.011 2.929-2.387.004-1.048-.631-1.8-1.732-1.97v-.065c.866-.222 1.428-.902 1.424-1.832.004-1.218-.995-2.258-2.589-2.258-1.521 0-2.743.919-2.783 2.266h1.21c.028-.761.744-1.222 1.557-1.222.846 0 1.4.514 1.396 1.279.004.801-.639 1.326-1.558 1.326h-.7v1.02h.7c1.149 0 1.813.582 1.813 1.416 0 .805-.7 1.351-1.675 1.351-.898 0-1.598-.461-1.647-1.198h-1.27c.053 1.352 1.25 2.274 2.925 2.274z" fill="#2c7be5"/><rect height="322.042" rx="3.882" stroke="#24d9df" width="305" x="47.5" y="38.5"/><path d="m.5.5h399v399h-399z" stroke="#000"/></svg>