<svg width="75" height="75" viewBox="0 0 75 75" fill="none" xmlns="http://www.w3.org/2000/svg">
<mask id="path-1-inside-1" fill="white">
<path fill-rule="evenodd" clip-rule="evenodd" d="M28.4328 73.8804C48.5467 78.8874 68.8814 66.6276 73.8853 46.5506C78.877 26.4613 66.6369 6.06523 46.5108 1.1196C26.446 -3.88738 6.12358 8.37236 1.11964 28.4494C-3.8843 48.5264 8.35573 68.8611 28.4328 73.8804ZM46.924 23.2327C52.1323 25 55.9313 27.6141 55.2573 32.6215C54.7426 36.2665 52.7573 38.0461 50.0122 38.672C53.7622 40.5989 55.6372 43.5198 53.9215 48.6377C51.7892 55.0564 46.5318 55.6333 39.4975 54.3814L37.8799 61.2174L33.7622 60.2233L35.3799 53.4978C34.3382 53.24 33.2475 52.97 32.0956 52.6632L30.4779 59.4379L26.3603 58.4438L27.9779 51.6077C27.4118 51.4436 26.8231 51.3022 26.2254 51.1586C25.8398 51.066 25.4505 50.9724 25.0612 50.8713L19.6936 49.6195L21.6421 44.8699C21.6421 44.8699 24.7181 45.6553 24.6691 45.6063C25.8088 45.864 26.3358 45.1276 26.5441 44.6121L29.0441 33.8119C29.1237 33.8365 29.1881 33.8488 29.2524 33.861C29.3168 33.8733 29.3811 33.8856 29.4608 33.9101C29.3577 33.8387 29.2598 33.8134 29.1736 33.7912C29.1266 33.7791 29.083 33.7679 29.0441 33.7506L30.8701 26.0309C30.9313 25.1963 30.6127 24.104 28.946 23.6868C29.0563 23.6254 25.9804 22.9504 25.9804 22.9504L27.022 18.5689L32.696 19.9312C33.1372 20.0356 33.5815 20.1276 34.0257 20.2197C34.4699 20.3117 34.9142 20.4037 35.3554 20.5081L36.973 13.7334L41.1397 14.7275L39.571 21.3549C40.6617 21.5758 41.7647 21.8335 42.8554 22.0913L44.424 15.4639L48.5416 16.458L46.924 23.2327ZM34.106 47.8758C37.4167 48.7261 44.8825 50.6437 45.9926 45.9131C47.1099 41.1193 40.111 39.6102 36.5992 38.853C36.182 38.763 35.814 38.6837 35.5147 38.6107L33.3823 47.6926C33.5919 47.7437 33.835 47.8062 34.106 47.8758ZM37.0716 34.594C39.833 35.308 46.1186 36.9332 47.1323 32.6215C48.1606 28.2939 42.2945 27.0373 39.3933 26.4158C39.0445 26.3411 38.7386 26.2756 38.4926 26.215L36.5073 34.4501C36.6725 34.4908 36.8619 34.5398 37.0716 34.594Z"/>
</mask>
<path d="M73.8853 46.5506L74.8556 46.7924L74.8558 46.7918L73.8853 46.5506ZM28.4328 73.8804L28.1903 74.8505L28.1913 74.8508L28.4328 73.8804ZM46.5108 1.1196L46.2687 2.08986L46.2722 2.09071L46.5108 1.1196ZM1.11964 28.4494L0.149323 28.2075L1.11964 28.4494ZM55.2573 32.6215L56.2475 32.7613L56.2484 32.7549L55.2573 32.6215ZM46.924 23.2327L45.9513 23.0004L45.7397 23.8868L46.6026 24.1796L46.924 23.2327ZM50.0122 38.672L49.7899 37.6971L47.1141 38.3072L49.5552 39.5615L50.0122 38.672ZM53.9215 48.6377L52.9734 48.3198L52.9725 48.3224L53.9215 48.6377ZM39.4975 54.3814L39.6727 53.3969L38.7421 53.2313L38.5244 54.1511L39.4975 54.3814ZM37.8799 61.2174L37.6452 62.1895L38.6217 62.4253L38.853 61.4477L37.8799 61.2174ZM33.7622 60.2233L32.7899 59.9895L32.5563 60.9609L33.5275 61.1954L33.7622 60.2233ZM35.3799 53.4978L36.3521 53.7316L36.5845 52.7656L35.62 52.527L35.3799 53.4978ZM32.0956 52.6632L32.3529 51.6969L31.3612 51.4328L31.1229 52.4309L32.0956 52.6632ZM30.4779 59.4379L30.2432 60.4099L31.2177 60.6452L31.4506 59.6701L30.4779 59.4379ZM26.3603 58.4438L25.3871 58.2135L25.1579 59.1822L26.1256 59.4158L26.3603 58.4438ZM27.9779 51.6077L28.951 51.838L29.1701 50.9122L28.2563 50.6473L27.9779 51.6077ZM26.2254 51.1586L25.9918 52.1309H25.9918L26.2254 51.1586ZM25.0612 50.8713L25.3126 49.9034L25.3005 49.9003L25.2884 49.8975L25.0612 50.8713ZM19.6936 49.6195L18.7684 49.24L18.3226 50.3266L19.4665 50.5934L19.6936 49.6195ZM21.6421 44.8699L21.8895 43.901L21.047 43.6858L20.717 44.4903L21.6421 44.8699ZM24.6691 45.6063L24.8897 44.6309L21.5214 43.8692L23.9615 46.3128L24.6691 45.6063ZM26.5441 44.6121L27.4712 44.9869L27.5006 44.9141L27.5183 44.8377L26.5441 44.6121ZM29.0441 33.8119L29.3386 32.8563L28.3121 32.54L28.0698 33.5864L29.0441 33.8119ZM29.2524 33.861L29.065 34.8433L29.0651 34.8433L29.2524 33.861ZM29.4608 33.9101L29.1663 34.8658L30.0305 33.0883L29.4608 33.9101ZM29.1736 33.7912L29.4231 32.8229L29.423 32.8229L29.1736 33.7912ZM29.0441 33.7506L28.0709 33.5204L27.8801 34.3271L28.6374 34.6642L29.0441 33.7506ZM30.8701 26.0309L31.8432 26.2611L31.8615 26.1836L31.8674 26.1041L30.8701 26.0309ZM28.946 23.6868L28.4599 22.8129L26.2497 24.0425L28.7032 24.6568L28.946 23.6868ZM25.9804 22.9504L25.0075 22.7191L24.7721 23.709L25.766 23.9271L25.9804 22.9504ZM27.022 18.5689L27.2555 17.5966L26.281 17.3626L26.0491 18.3376L27.022 18.5689ZM32.696 19.9312L32.4626 20.9036L32.4659 20.9044L32.696 19.9312ZM34.0257 20.2197L33.8228 21.1989L33.8228 21.1989L34.0257 20.2197ZM35.3554 20.5081L35.1252 21.4812L36.0963 21.7108L36.328 20.7403L35.3554 20.5081ZM36.973 13.7334L37.2051 12.7607L36.2326 12.5287L36.0003 13.5011L36.973 13.7334ZM41.1397 14.7275L42.1128 14.9578L42.3427 13.9865L41.3717 13.7548L41.1397 14.7275ZM39.571 21.3549L38.5979 21.1246L38.36 22.1299L39.3725 22.335L39.571 21.3549ZM42.8554 22.0913L42.6254 23.0645L43.5982 23.2944L43.8285 22.3216L42.8554 22.0913ZM44.424 15.4639L44.6587 14.4918L43.6822 14.2561L43.4509 15.2336L44.424 15.4639ZM48.5416 16.458L49.5143 16.6902L49.7459 15.72L48.7763 15.4859L48.5416 16.458ZM45.9926 45.9131L46.9662 46.1415L46.9665 46.1401L45.9926 45.9131ZM34.106 47.8758L34.3548 46.9072H34.3548L34.106 47.8758ZM36.5992 38.853L36.81 37.8754L36.81 37.8754L36.5992 38.853ZM35.5147 38.6107L35.7516 37.6391L34.7717 37.4002L34.5411 38.3821L35.5147 38.6107ZM33.3823 47.6926L32.4088 47.4641L32.1821 48.4294L33.1455 48.6642L33.3823 47.6926ZM47.1323 32.6215L46.1594 32.3903L46.1588 32.3926L47.1323 32.6215ZM37.0716 34.594L36.8213 35.5622H36.8213L37.0716 34.594ZM39.3933 26.4158L39.1838 27.3937L39.3933 26.4158ZM38.4926 26.215L38.7318 25.244L37.756 25.0036L37.5205 25.9806L38.4926 26.215ZM36.5073 34.4501L35.5352 34.2158L35.302 35.183L36.268 35.4211L36.5073 34.4501ZM72.915 46.3088C68.0444 65.8508 48.2516 77.7834 28.6744 72.91L28.1913 74.8508C48.8418 79.9913 69.7183 67.4044 74.8556 46.7924L72.915 46.3088ZM46.2722 2.09071C65.8584 6.90367 77.7737 26.7546 72.9148 46.3095L74.8558 46.7918C79.9802 26.1681 67.4155 5.22679 46.7494 0.148494L46.2722 2.09071ZM2.08996 28.6912C6.96087 9.14795 26.7421 -2.78283 46.2687 2.08985L46.7529 0.149357C26.1499 -4.99193 5.28629 7.59678 0.149323 28.2075L2.08996 28.6912ZM28.6754 72.9102C9.13253 68.0246 -2.78018 48.2314 2.08996 28.6912L0.149323 28.2075C-4.98843 48.8214 7.57893 69.6977 28.1903 74.8505L28.6754 72.9102ZM56.2484 32.7549C56.629 29.9271 55.7298 27.7127 53.9998 26.0012C52.3206 24.3399 49.8955 23.185 47.2453 22.2857L46.6026 24.1796C49.1607 25.0476 51.2393 26.0835 52.5932 27.4229C53.8963 28.7121 54.5596 30.3085 54.2662 32.4881L56.2484 32.7549ZM50.2345 39.647C51.7588 39.2995 53.1367 38.6151 54.2058 37.4573C55.2752 36.2993 55.968 34.7406 56.2475 32.7613L54.2671 32.4816C54.0319 34.1474 53.4747 35.3011 52.7365 36.1005C51.998 36.9003 51.0108 37.4187 49.7899 37.6971L50.2345 39.647ZM54.8697 48.9555C55.7801 46.2396 55.7852 43.9567 54.9288 42.0487C54.0783 40.1539 52.4554 38.8031 50.4692 37.7826L49.5552 39.5615C51.319 40.4678 52.5086 41.5409 53.1042 42.8677C53.6938 44.1814 53.7786 45.9179 52.9734 48.3198L54.8697 48.9555ZM39.3223 55.3659C42.8716 55.9976 46.149 56.2067 48.8535 55.3381C51.6504 54.4399 53.7152 52.4305 54.8705 48.9529L52.9725 48.3224C51.9954 51.2635 50.3654 52.752 48.242 53.4339C46.0262 54.1455 43.1577 54.0171 39.6727 53.3969L39.3223 55.3659ZM38.853 61.4477L40.4706 54.6117L38.5244 54.1511L36.9067 60.9872L38.853 61.4477ZM33.5275 61.1954L37.6452 62.1895L38.1145 60.2454L33.9969 59.2513L33.5275 61.1954ZM34.4076 53.2639L32.7899 59.9895L34.7345 60.4572L36.3521 53.7316L34.4076 53.2639ZM31.8382 53.6295C32.9999 53.9389 34.0989 54.211 35.1397 54.4685L35.62 52.527C34.5775 52.2691 33.4951 52.0011 32.3529 51.6969L31.8382 53.6295ZM31.4506 59.6701L33.0682 52.8954L31.1229 52.4309L29.5053 59.2056L31.4506 59.6701ZM26.1256 59.4158L30.2432 60.4099L30.7126 58.4658L26.5949 57.4717L26.1256 59.4158ZM27.0048 51.3775L25.3871 58.2135L27.3334 58.674L28.951 51.838L27.0048 51.3775ZM25.9918 52.1309C26.5938 52.2755 27.1595 52.4117 27.6995 52.5682L28.2563 50.6473C27.6641 50.4756 27.0524 50.3288 26.459 50.1863L25.9918 52.1309ZM24.8099 51.8393C25.2095 51.943 25.6077 52.0386 25.9918 52.1309L26.459 50.1863C26.072 50.0933 25.6916 50.0019 25.3126 49.9034L24.8099 51.8393ZM19.4665 50.5934L24.8341 51.8452L25.2884 49.8975L19.9207 48.6456L19.4665 50.5934ZM20.717 44.4903L18.7684 49.24L20.6188 49.9991L22.5673 45.2494L20.717 44.4903ZM23.9615 46.3128C23.9251 46.2765 23.6763 46.034 23.6698 45.623C23.6611 45.0687 24.0626 44.7926 24.2243 44.7123C24.3798 44.6351 24.5163 44.6192 24.5528 44.6149C24.6085 44.6085 24.6528 44.6083 24.6753 44.6085C24.7213 44.609 24.7559 44.6128 24.7664 44.6139C24.7812 44.6156 24.7916 44.6171 24.7955 44.6177C24.8048 44.6192 24.7972 44.6182 24.7598 44.6103C24.693 44.5962 24.5868 44.5719 24.4475 44.5389C24.1719 44.4735 23.7966 44.3811 23.4159 44.2862C23.0362 44.1915 22.6545 44.0952 22.3676 44.0225C22.2242 43.9861 22.1046 43.9557 22.0208 43.9344C21.979 43.9238 21.9461 43.9154 21.9237 43.9097C21.9125 43.9068 21.904 43.9046 21.8982 43.9032C21.8953 43.9024 21.8931 43.9019 21.8917 43.9015C21.891 43.9013 21.8904 43.9012 21.8901 43.9011C21.8899 43.9011 21.8898 43.901 21.8897 43.901C21.8896 43.901 21.8896 43.901 21.8896 43.901C21.8896 43.901 21.8895 43.901 21.6421 44.8699C21.3947 45.8388 21.3947 45.8388 21.3948 45.8388C21.3948 45.8388 21.3948 45.8388 21.3949 45.8388C21.395 45.8388 21.3951 45.8389 21.3953 45.8389C21.3957 45.839 21.3963 45.8392 21.397 45.8394C21.3985 45.8398 21.4008 45.8403 21.4037 45.8411C21.4096 45.8426 21.4183 45.8448 21.4296 45.8477C21.4523 45.8535 21.4854 45.8619 21.5276 45.8726C21.6119 45.8941 21.7322 45.9247 21.8764 45.9612C22.1647 46.0342 22.5489 46.1312 22.932 46.2268C23.3142 46.3221 23.6987 46.4168 23.9861 46.4849C24.1283 46.5186 24.2543 46.5477 24.3464 46.5671C24.3884 46.576 24.4419 46.5869 24.4909 46.5944C24.5018 46.5961 24.5715 46.6075 24.6541 46.6084C24.6788 46.6087 24.725 46.6084 24.7822 46.6017C24.8201 46.5974 24.9577 46.5812 25.114 46.5035C25.2764 46.4229 25.6783 46.1464 25.6695 45.5915C25.6631 45.1799 25.4138 44.9368 25.3767 44.8997L23.9615 46.3128ZM25.6169 44.2374C25.5532 44.3951 25.464 44.521 25.3713 44.5878C25.3313 44.6166 25.2859 44.6384 25.2252 44.65C25.1632 44.6619 25.0566 44.6686 24.8897 44.6309L24.4485 46.5816C25.2813 46.77 25.9943 46.604 26.5404 46.2105C27.0482 45.8447 27.3266 45.3447 27.4712 44.9869L25.6169 44.2374ZM28.0698 33.5864L25.5698 44.3866L27.5183 44.8377L30.0183 34.0375L28.0698 33.5864ZM29.4398 32.8788C29.3764 32.8667 29.3603 32.863 29.3386 32.8563L28.7496 34.7676C28.8872 34.81 28.9998 34.8309 29.065 34.8433L29.4398 32.8788ZM29.7552 32.9545C29.6176 32.9121 29.5051 32.8912 29.4398 32.8788L29.0651 34.8433C29.1285 34.8554 29.1446 34.8591 29.1663 34.8658L29.7552 32.9545ZM28.9241 34.7596C28.9354 34.7625 28.9428 34.7645 28.9498 34.7663C28.9564 34.7681 28.9606 34.7692 28.9633 34.77C28.9688 34.7716 28.9667 34.7712 28.9604 34.7688C28.9536 34.7663 28.9431 34.7619 28.9302 34.7554C28.9172 34.7487 28.9039 34.7409 28.891 34.7319L30.0305 33.0883C29.7669 32.9055 29.5121 32.8458 29.4231 32.8229L28.9241 34.7596ZM28.6374 34.6642C28.7669 34.7218 28.8956 34.7523 28.9241 34.7596L29.423 32.8229C29.4104 32.8196 29.4035 32.8178 29.3976 32.8162C29.3921 32.8148 29.3912 32.8145 29.393 32.815C29.3949 32.8156 29.4012 32.8175 29.4107 32.8209C29.4202 32.8243 29.434 32.8295 29.4507 32.837L28.6374 34.6642ZM29.8969 25.8007L28.0709 33.5204L30.0172 33.9808L31.8432 26.2611L29.8969 25.8007ZM28.7032 24.6568C29.3423 24.8168 29.6019 25.0701 29.7186 25.2489C29.8459 25.444 29.8925 25.6893 29.8727 25.9577L31.8674 26.1041C31.909 25.5379 31.8268 24.8198 31.3935 24.1558C30.9495 23.4755 30.2165 22.974 29.1889 22.7167L28.7032 24.6568ZM25.9804 22.9504C25.766 23.9271 25.766 23.9271 25.766 23.9271C25.766 23.9272 25.7661 23.9272 25.7661 23.9272C25.7662 23.9272 25.7663 23.9272 25.7665 23.9272C25.7668 23.9273 25.7673 23.9274 25.768 23.9276C25.7694 23.9279 25.7716 23.9284 25.7744 23.929C25.7801 23.9302 25.7886 23.9321 25.7997 23.9345C25.8219 23.9394 25.8545 23.9466 25.8961 23.9559C25.9793 23.9743 26.0982 24.0007 26.2406 24.0326C26.5256 24.0965 26.9035 24.1821 27.2771 24.2693C27.653 24.3572 28.0158 24.4447 28.2743 24.5128C28.4078 24.548 28.4938 24.5729 28.5362 24.5869C28.5693 24.5978 28.5353 24.5889 28.4803 24.5611C28.4627 24.5522 28.4288 24.5344 28.3877 24.5071C28.3559 24.4859 28.2687 24.4261 28.1816 24.3226C28.1085 24.2355 27.8966 23.9503 27.9604 23.5325C28.0274 23.0936 28.338 22.8807 28.4599 22.8129L29.4322 24.5606C29.5575 24.4909 29.87 24.2758 29.9374 23.8344C30.0016 23.4141 29.7886 23.1261 29.7128 23.0359C29.5652 22.8602 29.389 22.7795 29.3816 22.7757C29.2935 22.7312 29.2048 22.7015 29.1643 22.6881C29.0597 22.6535 28.9235 22.6156 28.784 22.5788C28.4969 22.5032 28.1114 22.4104 27.732 22.3218C27.3504 22.2326 26.9662 22.1456 26.6779 22.081C26.5337 22.0487 26.4131 22.0219 26.3285 22.0032C26.2862 21.9938 26.2529 21.9864 26.2301 21.9814C26.2187 21.9789 26.2099 21.977 26.2039 21.9757C26.201 21.975 26.1987 21.9745 26.1971 21.9742C26.1964 21.974 26.1958 21.9739 26.1954 21.9738C26.1952 21.9737 26.195 21.9737 26.1949 21.9737C26.1948 21.9737 26.1948 21.9736 26.1948 21.9736C26.1947 21.9736 26.1947 21.9736 25.9804 22.9504ZM26.0491 18.3376L25.0075 22.7191L26.9532 23.1817L27.9949 18.8002L26.0491 18.3376ZM32.9295 18.9589L27.2555 17.5966L26.7886 19.5413L32.4626 20.9036L32.9295 18.9589ZM34.2286 19.2405C33.7821 19.1479 33.3515 19.0587 32.9262 18.9581L32.4659 20.9044C32.9229 21.0125 33.3809 21.1073 33.8228 21.1989L34.2286 19.2405ZM35.5855 19.5349C35.1285 19.4268 34.6706 19.332 34.2286 19.2405L33.8228 21.1989C34.2693 21.2914 34.6999 21.3807 35.1252 21.4812L35.5855 19.5349ZM36.0003 13.5011L34.3827 20.2758L36.328 20.7403L37.9457 13.9656L36.0003 13.5011ZM41.3717 13.7548L37.2051 12.7607L36.7409 14.7061L40.9076 15.7002L41.3717 13.7548ZM40.5442 21.5852L42.1128 14.9578L40.1665 14.4972L38.5979 21.1246L40.5442 21.5852ZM43.0853 21.1181C41.995 20.8604 40.8778 20.5993 39.7696 20.3748L39.3725 22.335C40.4456 22.5523 41.5343 22.8067 42.6254 23.0645L43.0853 21.1181ZM43.4509 15.2336L41.8822 21.861L43.8285 22.3216L45.3971 15.6942L43.4509 15.2336ZM48.7763 15.4859L44.6587 14.4918L44.1893 16.436L48.3069 17.4301L48.7763 15.4859ZM47.8966 23.4649L49.5143 16.6902L47.569 16.2257L45.9513 23.0004L47.8966 23.4649ZM45.019 45.6846C44.8117 46.5684 44.3345 47.1028 43.6711 47.4479C42.9641 47.8156 42.0051 47.9846 40.8722 47.9873C38.6021 47.9926 36.0318 47.338 34.3548 46.9072L33.8572 48.8443C35.4908 49.2639 38.3088 49.9933 40.8768 49.9873C42.1629 49.9843 43.4854 49.7989 44.594 49.2222C45.7461 48.6229 46.6185 47.6231 46.9662 46.1415L45.019 45.6846ZM36.3885 39.8305C38.1708 40.2148 40.6606 40.7582 42.5685 41.7555C43.5171 42.2514 44.2349 42.8168 44.6591 43.4503C45.0587 44.0473 45.2353 44.7567 45.0187 45.6861L46.9665 46.1401C47.3085 44.6725 47.0293 43.3957 46.3211 42.3378C45.6374 41.3165 44.5956 40.5584 43.4951 39.9831C41.3049 38.8382 38.5394 38.2483 36.81 37.8754L36.3885 39.8305ZM35.2778 39.5822C35.593 39.6591 35.9757 39.7415 36.3885 39.8305L36.81 37.8754C36.3883 37.7845 36.035 37.7083 35.7516 37.6391L35.2778 39.5822ZM34.3558 47.9212L36.4882 38.8392L34.5411 38.3821L32.4088 47.4641L34.3558 47.9212ZM34.3548 46.9072C34.0856 46.8381 33.8359 46.7739 33.6191 46.7211L33.1455 48.6642C33.3478 48.7135 33.5844 48.7743 33.8572 48.8443L34.3548 46.9072ZM46.1588 32.3926C45.9692 33.1993 45.5599 33.6752 45.0249 33.9809C44.4517 34.3084 43.6719 34.4727 42.7361 34.4926C40.8537 34.5326 38.7255 33.9888 37.3219 33.6259L36.8213 35.5622C38.1791 35.9133 40.5744 36.539 42.7786 36.4922C43.8861 36.4686 45.0403 36.2755 46.0171 35.7174C47.0321 35.1374 47.7886 34.1995 48.1058 32.8503L46.1588 32.3926ZM39.1838 27.3937C40.6624 27.7104 42.7054 28.1555 44.2555 29.0057C45.022 29.4261 45.5861 29.9034 45.912 30.4357C46.2182 30.9358 46.3583 31.5531 46.1594 32.3903L48.1052 32.8527C48.4205 31.526 48.2129 30.3635 47.6177 29.3914C47.0423 28.4516 46.1514 27.7645 45.2173 27.2521C43.366 26.2367 41.0254 25.7428 39.6028 25.438L39.1838 27.3937ZM38.2534 27.186C38.5175 27.251 38.8403 27.3201 39.1838 27.3937L39.6028 25.438C39.2487 25.3622 38.9597 25.3001 38.7318 25.244L38.2534 27.186ZM37.4795 34.6845L39.4648 26.4493L37.5205 25.9806L35.5352 34.2158L37.4795 34.6845ZM37.3219 33.6259C37.1138 33.5721 36.9185 33.5215 36.7466 33.4792L36.268 35.4211C36.4266 35.4602 36.6099 35.5076 36.8213 35.5622L37.3219 33.6259Z" fill="black" mask="url(#path-1-inside-1)"/>
</svg>
