<svg width="17" height="17" viewBox="0 0 17 17" fill="none" xmlns="http://www.w3.org/2000/svg">
<path d="M8.5 16C12.6421 16 16 12.6421 16 8.5C16 4.35786 12.6421 1 8.5 1C4.35786 1 1 4.35786 1 8.5C1 12.6421 4.35786 16 8.5 16Z" stroke="black" stroke-width="0.75"/>
<path d="M8.5 12.5C10.7091 12.5 12.5 10.7091 12.5 8.5C12.5 6.29086 10.7091 4.5 8.5 4.5C6.29086 4.5 4.5 6.29086 4.5 8.5C4.5 10.7091 6.29086 12.5 8.5 12.5Z" stroke="black" stroke-width="0.75"/>
<circle cx="2.95001" cy="10" r="0.5" fill="black"/>
<circle cx="14.05" cy="10" r="0.5" fill="black"/>
<path d="M4.43414 12.5659C4.96807 13.0998 5.60195 13.5233 6.29957 13.8123C6.99719 14.1013 7.7449 14.25 8.5 14.25C9.2551 14.25 10.0028 14.1013 10.7004 13.8123C11.3981 13.5233 12.0319 13.0998 12.5659 12.5659" stroke="black" stroke-width="0.75" stroke-linecap="round"/>
<path d="M7.01179 2.94593C6.03685 3.20716 5.14784 3.72043 4.43414 4.43414C3.72043 5.14784 3.20716 6.03685 2.94593 7.01179" stroke="black" stroke-width="0.75" stroke-linecap="round"/>
<path d="M9.98821 2.94593C10.9632 3.20716 11.8522 3.72043 12.5659 4.43414C13.2796 5.14785 13.7928 6.03685 14.0541 7.01179" stroke="black" stroke-width="0.75" stroke-linecap="round"/>
<path d="M10.5022 7.86526C10.5811 7.2792 10.1365 6.97324 9.52689 6.76639L9.71622 5.97349L9.23429 5.85713L9.0507 6.63281C8.92305 6.60264 8.79396 6.57248 8.6663 6.54662L8.8499 5.77095L8.36223 5.6546L8.1729 6.44751C8.06963 6.42309 7.96492 6.40441 7.86165 6.37999L7.19756 6.22055L7.07565 6.73336C7.07565 6.73336 7.43566 6.81236 7.42275 6.81954C7.61782 6.86838 7.65511 6.99622 7.64794 7.0939L7.43423 7.99741C7.44714 8.00316 7.46435 8.00316 7.48299 8.01609C7.46435 8.01034 7.45287 8.01034 7.43423 8.00459L7.14163 9.26865C7.11724 9.32898 7.05557 9.41517 6.92218 9.385C6.92791 9.39075 6.5679 9.29882 6.5679 9.29882L6.33984 9.85471L6.96807 10.0012C7.08425 10.0314 7.20043 10.0558 7.30944 10.0874L7.12011 10.8875L7.60204 11.0039L7.79137 10.2109C7.9262 10.2469 8.05385 10.2785 8.17577 10.3086L7.98644 11.0958L8.46837 11.2121L8.6577 10.412C9.48099 10.5586 10.0963 10.4911 10.3459 9.7398C10.5467 9.14081 10.3272 8.79894 9.88834 8.57342C10.2096 8.50016 10.442 8.29188 10.5022 7.86526ZM9.41788 9.42091C9.27732 10.0199 8.26613 9.7082 7.94197 9.62919L8.19154 8.56624C8.52144 8.64668 9.56418 8.79319 9.41788 9.42091ZM9.55128 7.86526C9.42362 8.40823 8.58168 8.1468 8.30772 8.07929L8.54008 7.11545C8.8083 7.18152 9.6861 7.29787 9.55128 7.86526Z" fill="black"/>
</svg>
