<svg width="1630" height="454" viewBox="0 0 1630 454" fill="none" xmlns="http://www.w3.org/2000/svg">
<path d="M51.0133 100.034H54.559C54.5078 96.9157 51.9446 94.7626 48.0485 94.7626C44.2122 94.7626 41.4012 96.8815 41.4183 100.06C41.4098 102.64 43.2296 104.118 46.1859 104.827L48.0912 105.306C49.9965 105.767 51.056 106.314 51.0645 107.493C51.056 108.775 49.8427 109.646 47.963 109.646C46.0406 109.646 44.6565 108.758 44.5369 107.006H40.9569C41.0509 110.791 43.7594 112.748 48.0058 112.748C52.2778 112.748 54.7897 110.706 54.7983 107.502C54.7897 104.588 52.5939 103.042 49.5522 102.358L47.9801 101.982C46.4593 101.632 45.1862 101.068 45.2119 99.8121C45.2119 98.6843 46.2115 97.8555 48.0228 97.8555C49.7915 97.8555 50.8766 98.6587 51.0133 100.034ZM63.1992 112.756C66.4459 112.756 68.6332 111.176 69.1458 108.741L65.7795 108.518C65.4121 109.518 64.4722 110.039 63.259 110.039C61.4391 110.039 60.2857 108.835 60.2857 106.878V106.869H69.2227V105.87C69.2227 101.41 66.5228 99.2055 63.0539 99.2055C59.192 99.2055 56.6886 101.948 56.6886 105.998C56.6886 110.159 59.1579 112.756 63.1992 112.756ZM60.2857 104.614C60.3626 103.119 61.4989 101.922 63.1137 101.922C64.6944 101.922 65.788 103.05 65.7966 104.614H60.2857ZM75.2377 104.913C75.2463 103.221 76.2545 102.23 77.724 102.23C79.1851 102.23 80.0651 103.187 80.0566 104.793V112.5H83.6963V104.144C83.6963 101.085 81.9021 99.2055 79.168 99.2055C77.2199 99.2055 75.8102 100.162 75.2206 101.692H75.0668V99.3764H71.598V112.5H75.2377V104.913ZM91.4009 112.714C93.5198 112.714 94.622 111.492 95.1261 110.398H95.2799V112.5H98.8684V95.0018H95.2372V101.581H95.1261C94.6391 100.513 93.5882 99.2055 91.3924 99.2055C88.513 99.2055 86.078 101.444 86.078 105.955C86.078 110.347 88.4105 112.714 91.4009 112.714ZM92.5543 109.817C90.7686 109.817 89.7946 108.228 89.7946 105.938C89.7946 103.665 90.7516 102.102 92.5543 102.102C94.323 102.102 95.3141 103.597 95.3141 105.938C95.3141 108.279 94.3059 109.817 92.5543 109.817ZM107.842 112.756C111.088 112.756 113.276 111.176 113.788 108.741L110.422 108.518C110.055 109.518 109.115 110.039 107.902 110.039C106.082 110.039 104.928 108.835 104.928 106.878V106.869H113.865V105.87C113.865 101.41 111.165 99.2055 107.697 99.2055C103.835 99.2055 101.331 101.948 101.331 105.998C101.331 110.159 103.8 112.756 107.842 112.756ZM104.928 104.614C105.005 103.119 106.141 101.922 107.756 101.922C109.337 101.922 110.431 103.05 110.439 104.614H104.928ZM116.241 112.5H119.88V105.075C119.889 103.469 121.051 102.367 122.52 102.367C123.016 102.367 123.418 102.503 123.759 102.674L124.853 99.6669C124.374 99.3764 123.759 99.1884 123.059 99.1884C121.581 99.1884 120.384 100.043 119.906 101.666H119.769V99.3764H116.241V112.5ZM134.713 112.5H138.558L140.813 104.246H140.976L143.231 112.5H147.085L150.647 99.3764H146.973L144.974 108.143H144.863L142.71 99.3764H139.096L136.977 108.194H136.857L134.824 99.3764H131.141L134.713 112.5ZM156.331 112.748C158.271 112.748 159.527 111.902 160.168 110.68H160.27V112.5H163.722V103.648C163.722 100.521 161.073 99.2055 158.151 99.2055C155.007 99.2055 152.939 100.709 152.435 103.102L155.802 103.375C156.049 102.503 156.827 101.863 158.134 101.863C159.373 101.863 160.082 102.486 160.082 103.563V103.614C160.082 104.46 159.185 104.571 156.904 104.793C154.306 105.033 151.974 105.904 151.974 108.835C151.974 111.432 153.828 112.748 156.331 112.748ZM157.374 110.236C156.254 110.236 155.451 109.715 155.451 108.715C155.451 107.69 156.297 107.186 157.579 107.006C158.373 106.895 159.672 106.707 160.108 106.417V107.809C160.108 109.185 158.971 110.236 157.374 110.236ZM170.185 95.0018H166.546V112.5H170.185V95.0018ZM176.741 95.0018H173.101V112.5H176.741V95.0018ZM185.637 112.756C188.884 112.756 191.071 111.176 191.584 108.741L188.218 108.518C187.85 109.518 186.91 110.039 185.697 110.039C183.877 110.039 182.724 108.835 182.724 106.878V106.869H191.661V105.87C191.661 101.41 188.961 99.2055 185.492 99.2055C181.63 99.2055 179.127 101.948 179.127 105.998C179.127 110.159 181.596 112.756 185.637 112.756ZM182.724 104.614C182.801 103.119 183.937 101.922 185.552 101.922C187.133 101.922 188.226 103.05 188.235 104.614H182.724ZM201.017 99.3764H198.547V96.2322H194.908V99.3764H193.113V102.11H194.908V108.946C194.891 111.517 196.642 112.79 199.282 112.679C200.222 112.645 200.888 112.457 201.256 112.338L200.683 109.629C200.504 109.663 200.119 109.749 199.778 109.749C199.051 109.749 198.547 109.475 198.547 108.467V102.11H201.017V99.3764Z" fill="black"/>
<path d="M40 143.5C40 140.739 42.2386 138.5 45 138.5H265C267.761 138.5 270 140.739 270 143.5V236.5C270 239.261 267.761 241.5 265 241.5H45C42.2386 241.5 40 239.261 40 236.5V143.5Z" fill="#6490E3"/>
<path d="M77.6007 172.751C77.6007 167.026 74.0464 163.763 69.407 163.763C64.7419 163.763 61.2133 167.026 61.2133 172.751C61.2133 178.45 64.7419 181.739 69.407 181.739C74.0464 181.739 77.6007 178.475 77.6007 172.751ZM73.8499 172.751C73.8499 176.459 72.0898 178.467 69.407 178.467C66.7156 178.467 64.9641 176.459 64.9641 172.751C64.9641 169.043 66.7156 167.035 69.407 167.035C72.0898 167.035 73.8499 169.043 73.8499 172.751ZM88.6887 175.912C88.6973 177.672 87.4926 178.595 86.1853 178.595C84.8097 178.595 83.9212 177.63 83.9126 176.083V168.376H80.2729V176.732C80.2814 179.8 82.0756 181.671 84.7158 181.671C86.6894 181.671 88.1077 180.654 88.6973 179.116H88.834V181.5H92.3285V168.376H88.6887V175.912ZM102.22 168.376H99.7511V165.232H96.1114V168.376H94.3171V171.11H96.1114V177.946C96.0943 180.517 97.8458 181.79 100.486 181.679C101.426 181.645 102.092 181.457 102.46 181.338L101.887 178.629C101.708 178.663 101.323 178.749 100.981 178.749C100.255 178.749 99.7511 178.475 99.7511 177.467V171.11H102.22V168.376ZM104.591 186.421H108.231V179.398H108.342C108.846 180.492 109.948 181.714 112.067 181.714C115.058 181.714 117.39 179.347 117.39 174.955C117.39 170.444 114.955 168.205 112.076 168.205C109.88 168.205 108.829 169.513 108.342 170.581H108.18V168.376H104.591V186.421ZM108.154 174.938C108.154 172.597 109.145 171.102 110.914 171.102C112.717 171.102 113.674 172.665 113.674 174.938C113.674 177.228 112.7 178.817 110.914 178.817C109.162 178.817 108.154 177.279 108.154 174.938ZM128.233 175.912C128.241 177.672 127.036 178.595 125.729 178.595C124.354 178.595 123.465 177.63 123.457 176.083V168.376H119.817V176.732C119.825 179.8 121.62 181.671 124.26 181.671C126.233 181.671 127.652 180.654 128.241 179.116H128.378V181.5H131.872V168.376H128.233V175.912ZM141.764 168.376H139.295V165.232H135.655V168.376H133.861V171.11H135.655V177.946C135.638 180.517 137.39 181.79 140.03 181.679C140.97 181.645 141.636 181.457 142.003 181.338L141.431 178.629C141.252 178.663 140.867 178.749 140.525 178.749C139.799 178.749 139.295 178.475 139.295 177.467V171.11H141.764V168.376ZM156.915 164.002H153.292C153.25 165.07 151.746 166.89 149.499 166.89V169.829C151.43 169.829 152.686 169.111 153.062 168.53H153.224V181.5H156.915V164.002Z" fill="white"/>
<path d="M67.7238 215.739C71.1158 215.739 73.6363 213.612 73.6363 210.75C73.6363 208.528 72.3205 206.913 70.1161 206.546V206.409C71.8848 205.871 72.9869 204.418 72.9869 202.445C72.9869 199.967 71.0303 197.763 67.7922 197.763C64.7676 197.763 62.2556 199.625 62.1531 202.376H64.2037C64.2806 200.633 65.9381 199.608 67.758 199.608C69.6889 199.608 70.9364 200.779 70.9364 202.547C70.9364 204.393 69.4924 205.589 67.4162 205.589H66.015V207.469H67.4162C70.0734 207.469 71.5515 208.819 71.5515 210.75C71.5515 212.604 69.9367 213.86 67.6896 213.86C65.6647 213.86 64.0584 212.817 63.9303 211.125H61.7772C61.9053 213.877 64.3318 215.739 67.7238 215.739ZM84.2052 215.5H86.1533V213.484H86.3925C86.8368 214.201 87.6912 215.773 90.2202 215.773C93.5012 215.773 95.791 213.142 95.791 208.972C95.791 204.837 93.5012 202.205 90.1861 202.205C87.6229 202.205 86.8368 203.778 86.3925 204.461H86.2216V198.002H84.2052V215.5ZM86.1875 208.938C86.1875 205.999 87.4862 204.017 89.9468 204.017C92.51 204.017 93.7746 206.17 93.7746 208.938C93.7746 211.741 92.4759 213.962 89.9468 213.962C87.5203 213.962 86.1875 211.912 86.1875 208.938ZM98.8753 215.5H100.892V202.376H98.8753V215.5ZM99.9006 200.189C100.687 200.189 101.336 199.574 101.336 198.822C101.336 198.07 100.687 197.455 99.9006 197.455C99.1146 197.455 98.4652 198.07 98.4652 198.822C98.4652 199.574 99.1146 200.189 99.9006 200.189ZM110.292 202.376H107.49V199.232H105.473V202.376H103.491V204.085H105.473V212.287C105.473 214.577 107.319 215.671 109.028 215.671C109.78 215.671 110.258 215.534 110.532 215.432L110.121 213.62C109.951 213.654 109.677 213.723 109.233 213.723C108.344 213.723 107.49 213.449 107.49 211.741V204.085H110.292V202.376ZM118.516 215.773C121.421 215.773 123.335 213.996 123.677 211.672H121.66C121.284 213.108 120.088 213.962 118.516 213.962C116.124 213.962 114.586 211.98 114.586 208.938C114.586 205.965 116.158 204.017 118.516 204.017C120.293 204.017 121.353 205.11 121.66 206.307H123.677C123.335 203.846 121.25 202.205 118.482 202.205C114.927 202.205 112.569 205.008 112.569 209.007C112.569 212.937 114.825 215.773 118.516 215.773ZM131.956 215.773C135.51 215.773 137.902 213.073 137.902 209.007C137.902 204.905 135.51 202.205 131.956 202.205C128.401 202.205 126.009 204.905 126.009 209.007C126.009 213.073 128.401 215.773 131.956 215.773ZM131.956 213.962C129.256 213.962 128.025 211.638 128.025 209.007C128.025 206.375 129.256 204.017 131.956 204.017C134.656 204.017 135.886 206.375 135.886 209.007C135.886 211.638 134.656 213.962 131.956 213.962ZM140.98 215.5H142.997V202.376H140.98V215.5ZM142.006 200.189C142.792 200.189 143.441 199.574 143.441 198.822C143.441 198.07 142.792 197.455 142.006 197.455C141.22 197.455 140.57 198.07 140.57 198.822C140.57 199.574 141.22 200.189 142.006 200.189ZM148.706 207.605C148.706 205.316 150.125 204.017 152.056 204.017C153.927 204.017 155.063 205.239 155.063 207.298V215.5H157.079V207.161C157.079 203.812 155.294 202.205 152.637 202.205C150.654 202.205 149.424 203.094 148.809 204.427H148.638V202.376H146.69V215.5H148.706V207.605Z" fill="white"/>
<path d="M40 266.5C40 263.739 42.2386 261.5 45 261.5H265C267.761 261.5 270 263.739 270 266.5V359.5C270 362.261 267.761 364.5 265 364.5H45C42.2386 364.5 40 362.261 40 359.5V266.5Z" fill="#6FCF97"/>
<path d="M77.6007 295.751C77.6007 290.026 74.0464 286.763 69.407 286.763C64.7419 286.763 61.2133 290.026 61.2133 295.751C61.2133 301.45 64.7419 304.739 69.407 304.739C74.0464 304.739 77.6007 301.475 77.6007 295.751ZM73.8499 295.751C73.8499 299.459 72.0898 301.467 69.407 301.467C66.7156 301.467 64.9641 299.459 64.9641 295.751C64.9641 292.043 66.7156 290.035 69.407 290.035C72.0898 290.035 73.8499 292.043 73.8499 295.751ZM88.6887 298.912C88.6973 300.672 87.4926 301.595 86.1853 301.595C84.8097 301.595 83.9212 300.63 83.9126 299.083V291.376H80.2729V299.732C80.2814 302.8 82.0756 304.671 84.7158 304.671C86.6894 304.671 88.1077 303.654 88.6973 302.116H88.834V304.5H92.3285V291.376H88.6887V298.912ZM102.22 291.376H99.7511V288.232H96.1114V291.376H94.3171V294.11H96.1114V300.946C96.0943 303.517 97.8458 304.79 100.486 304.679C101.426 304.645 102.092 304.457 102.46 304.338L101.887 301.629C101.708 301.663 101.323 301.749 100.981 301.749C100.255 301.749 99.7511 301.475 99.7511 300.467V294.11H102.22V291.376ZM104.591 309.421H108.231V302.398H108.342C108.846 303.492 109.948 304.714 112.067 304.714C115.058 304.714 117.39 302.347 117.39 297.955C117.39 293.444 114.955 291.205 112.076 291.205C109.88 291.205 108.829 292.513 108.342 293.581H108.18V291.376H104.591V309.421ZM108.154 297.938C108.154 295.597 109.145 294.102 110.914 294.102C112.717 294.102 113.674 295.665 113.674 297.938C113.674 300.228 112.7 301.817 110.914 301.817C109.162 301.817 108.154 300.279 108.154 297.938ZM128.233 298.912C128.241 300.672 127.036 301.595 125.729 301.595C124.354 301.595 123.465 300.63 123.457 299.083V291.376H119.817V299.732C119.825 302.8 121.62 304.671 124.26 304.671C126.233 304.671 127.652 303.654 128.241 302.116H128.378V304.5H131.872V291.376H128.233V298.912ZM141.764 291.376H139.295V288.232H135.655V291.376H133.861V294.11H135.655V300.946C135.638 303.517 137.39 304.79 140.03 304.679C140.97 304.645 141.636 304.457 142.003 304.338L141.431 301.629C141.252 301.663 140.867 301.749 140.525 301.749C139.799 301.749 139.295 301.475 139.295 300.467V294.11H141.764V291.376ZM149.67 304.5H162.144V301.475H154.796V301.356L157.351 298.852C160.948 295.571 161.913 293.931 161.913 291.94C161.913 288.907 159.435 286.763 155.685 286.763C152.011 286.763 149.49 288.958 149.499 292.393H153.01C153.002 290.718 154.061 289.693 155.659 289.693C157.197 289.693 158.342 290.65 158.342 292.188C158.342 293.581 157.487 294.538 155.898 296.067L149.67 301.834V304.5Z" fill="white"/>
<path d="M61.8113 338.5H72.8502V336.62H64.7163V336.484L68.6466 332.28C71.6541 329.059 72.5426 327.555 72.5426 325.616C72.5426 322.916 70.3554 320.763 67.2795 320.763C64.2122 320.763 61.8797 322.847 61.8797 325.923H63.8961C63.8961 323.932 65.1862 322.608 67.2112 322.608C69.1079 322.608 70.5604 323.77 70.5604 325.616C70.5604 327.23 69.612 328.427 67.5871 330.639L61.8113 336.962V338.5ZM83.4534 338.5H85.4014V336.484H85.6406C86.0849 337.201 86.9393 338.773 89.4684 338.773C92.7493 338.773 95.0391 336.142 95.0391 331.972C95.0391 327.837 92.7493 325.205 89.4342 325.205C86.871 325.205 86.0849 326.778 85.6406 327.461H85.4698V321.002H83.4534V338.5ZM85.4356 331.938C85.4356 328.999 86.7343 327.017 89.195 327.017C91.7582 327.017 93.0227 329.17 93.0227 331.938C93.0227 334.741 91.724 336.962 89.195 336.962C86.7685 336.962 85.4356 334.912 85.4356 331.938ZM98.1235 338.5H100.14V325.376H98.1235V338.5ZM99.1488 323.189C99.9348 323.189 100.584 322.574 100.584 321.822C100.584 321.07 99.9348 320.455 99.1488 320.455C98.3627 320.455 97.7134 321.07 97.7134 321.822C97.7134 322.574 98.3627 323.189 99.1488 323.189ZM109.54 325.376H106.738V322.232H104.722V325.376H102.739V327.085H104.722V335.287C104.722 337.577 106.567 338.671 108.276 338.671C109.028 338.671 109.506 338.534 109.78 338.432L109.37 336.62C109.199 336.654 108.925 336.723 108.481 336.723C107.592 336.723 106.738 336.449 106.738 334.741V327.085H109.54V325.376ZM117.764 338.773C120.669 338.773 122.583 336.996 122.925 334.672H120.908C120.532 336.108 119.336 336.962 117.764 336.962C115.372 336.962 113.834 334.98 113.834 331.938C113.834 328.965 115.406 327.017 117.764 327.017C119.541 327.017 120.601 328.11 120.908 329.307H122.925C122.583 326.846 120.498 325.205 117.73 325.205C114.176 325.205 111.817 328.008 111.817 332.007C111.817 335.937 114.073 338.773 117.764 338.773ZM131.204 338.773C134.758 338.773 137.15 336.073 137.15 332.007C137.15 327.905 134.758 325.205 131.204 325.205C127.65 325.205 125.257 327.905 125.257 332.007C125.257 336.073 127.65 338.773 131.204 338.773ZM131.204 336.962C128.504 336.962 127.274 334.638 127.274 332.007C127.274 329.375 128.504 327.017 131.204 327.017C133.904 327.017 135.134 329.375 135.134 332.007C135.134 334.638 133.904 336.962 131.204 336.962ZM140.228 338.5H142.245V325.376H140.228V338.5ZM141.254 323.189C142.04 323.189 142.689 322.574 142.689 321.822C142.689 321.07 142.04 320.455 141.254 320.455C140.468 320.455 139.818 321.07 139.818 321.822C139.818 322.574 140.468 323.189 141.254 323.189ZM147.954 330.605C147.954 328.316 149.373 327.017 151.304 327.017C153.175 327.017 154.311 328.239 154.311 330.298V338.5H156.328V330.161C156.328 326.812 154.542 325.205 151.885 325.205C149.902 325.205 148.672 326.094 148.057 327.427H147.886V325.376H145.938V338.5H147.954V330.605Z" fill="white"/>
<rect x="21" y="70.5" width="268" height="313" rx="4" stroke="#333333" stroke-width="2"/>
<path d="M371.561 173.939C372.146 174.525 372.146 175.475 371.561 176.061L362.015 185.607C361.429 186.192 360.479 186.192 359.893 185.607C359.308 185.021 359.308 184.071 359.893 183.485L368.379 175L359.893 166.515C359.308 165.929 359.308 164.979 359.893 164.393C360.479 163.808 361.429 163.808 362.015 164.393L371.561 173.939ZM320.5 173.5H370.5V176.5H320.5V173.5Z" fill="#2F80ED"/>
<path d="M371.561 262.939C372.146 263.525 372.146 264.475 371.561 265.061L362.015 274.607C361.429 275.192 360.479 275.192 359.893 274.607C359.308 274.021 359.308 273.071 359.893 272.485L368.379 264L359.893 255.515C359.308 254.929 359.308 253.979 359.893 253.393C360.479 252.808 361.429 252.808 362.015 253.393L371.561 262.939ZM320.5 262.5H370.5V265.5H320.5V262.5Z" fill="#27AE60"/>
<path d="M420.854 98.052H426.212V112.5H429.868V98.052H435.225V95.0018H420.854V98.052ZM436.161 112.5H439.801V105.075C439.809 103.469 440.971 102.367 442.441 102.367C442.936 102.367 443.338 102.503 443.68 102.674L444.773 99.6669C444.295 99.3764 443.68 99.1884 442.979 99.1884C441.501 99.1884 440.305 100.043 439.826 101.666H439.69V99.3764H436.161V112.5ZM449.842 112.748C451.782 112.748 453.038 111.902 453.678 110.68H453.781V112.5H457.233V103.648C457.233 100.521 454.584 99.2055 451.662 99.2055C448.518 99.2055 446.45 100.709 445.946 103.102L449.312 103.375C449.56 102.503 450.338 101.863 451.645 101.863C452.884 101.863 453.593 102.486 453.593 103.563V103.614C453.593 104.46 452.696 104.571 450.415 104.793C447.817 105.033 445.485 105.904 445.485 108.835C445.485 111.432 447.339 112.748 449.842 112.748ZM450.885 110.236C449.765 110.236 448.962 109.715 448.962 108.715C448.962 107.69 449.808 107.186 451.09 107.006C451.884 106.895 453.183 106.707 453.619 106.417V107.809C453.619 109.185 452.482 110.236 450.885 110.236ZM463.696 104.913C463.705 103.221 464.713 102.23 466.183 102.23C467.644 102.23 468.524 103.187 468.515 104.793V112.5H472.155V104.144C472.155 101.085 470.361 99.2055 467.627 99.2055C465.679 99.2055 464.269 100.162 463.679 101.692H463.525V99.3764H460.057V112.5H463.696V104.913ZM485.943 103.119C485.618 100.701 483.67 99.2055 480.355 99.2055C476.997 99.2055 474.784 100.76 474.793 103.29C474.784 105.255 476.023 106.528 478.586 107.04L480.859 107.493C482.004 107.724 482.525 108.143 482.542 108.8C482.525 109.578 481.679 110.133 480.406 110.133C479.108 110.133 478.245 109.578 478.023 108.51L474.443 108.698C474.784 111.21 476.92 112.756 480.398 112.756C483.798 112.756 486.233 111.022 486.242 108.433C486.233 106.536 484.994 105.4 482.448 104.879L480.073 104.4C478.851 104.135 478.398 103.717 478.407 103.084C478.398 102.298 479.287 101.786 480.415 101.786C481.679 101.786 482.431 102.478 482.611 103.324L485.943 103.119ZM492.276 112.748C494.216 112.748 495.472 111.902 496.112 110.68H496.215V112.5H499.667V103.648C499.667 100.521 497.018 99.2055 494.096 99.2055C490.952 99.2055 488.884 100.709 488.38 103.102L491.746 103.375C491.994 102.503 492.772 101.863 494.079 101.863C495.318 101.863 496.027 102.486 496.027 103.563V103.614C496.027 104.46 495.13 104.571 492.849 104.793C490.251 105.033 487.919 105.904 487.919 108.835C487.919 111.432 489.773 112.748 492.276 112.748ZM493.318 110.236C492.199 110.236 491.396 109.715 491.396 108.715C491.396 107.69 492.242 107.186 493.524 107.006C494.318 106.895 495.617 106.707 496.053 106.417V107.809C496.053 109.185 494.916 110.236 493.318 110.236ZM508.42 112.756C511.915 112.756 514.11 110.706 514.281 107.69H510.847C510.633 109.091 509.71 109.877 508.463 109.877C506.763 109.877 505.66 108.45 505.66 105.938C505.66 103.46 506.771 102.042 508.463 102.042C509.796 102.042 510.65 102.922 510.847 104.229H514.281C514.127 101.196 511.829 99.2055 508.403 99.2055C504.421 99.2055 501.961 101.965 501.961 105.989C501.961 109.98 504.379 112.756 508.42 112.756ZM523.592 99.3764H521.123V96.2322H517.483V99.3764H515.689V102.11H517.483V108.946C517.466 111.517 519.218 112.79 521.858 112.679C522.798 112.645 523.464 112.457 523.831 112.338L523.259 109.629C523.079 109.663 522.695 109.749 522.353 109.749C521.627 109.749 521.123 109.475 521.123 108.467V102.11H523.592V99.3764ZM525.963 112.5H529.603V99.3764H525.963V112.5ZM527.792 97.6846C528.877 97.6846 529.765 96.8559 529.765 95.8391C529.765 94.8309 528.877 94.0022 527.792 94.0022C526.715 94.0022 525.826 94.8309 525.826 95.8391C525.826 96.8559 526.715 97.6846 527.792 97.6846ZM538.448 112.756C542.43 112.756 544.907 110.031 544.907 105.989C544.907 101.922 542.43 99.2055 538.448 99.2055C534.467 99.2055 531.989 101.922 531.989 105.989C531.989 110.031 534.467 112.756 538.448 112.756ZM538.465 109.937C536.628 109.937 535.688 108.254 535.688 105.964C535.688 103.674 536.628 101.982 538.465 101.982C540.268 101.982 541.208 103.674 541.208 105.964C541.208 108.254 540.268 109.937 538.465 109.937ZM550.914 104.913C550.922 103.221 551.931 102.23 553.4 102.23C554.861 102.23 555.741 103.187 555.733 104.793V112.5H559.372V104.144C559.372 101.085 557.578 99.2055 554.844 99.2055C552.896 99.2055 551.486 100.162 550.897 101.692H550.743V99.3764H547.274V112.5H550.914V104.913Z" fill="black"/>
<path d="M420 143.5C420 140.739 422.239 138.5 425 138.5H645C647.761 138.5 650 140.739 650 143.5V236.5C650 239.261 647.761 241.5 645 241.5H425C422.239 241.5 420 239.261 420 236.5V143.5Z" fill="#6490E3"/>
<path d="M445.22 164.002H441.521V181.5H445.22V164.002ZM451.836 173.913C451.844 172.221 452.852 171.23 454.322 171.23C455.783 171.23 456.663 172.187 456.654 173.793V181.5H460.294V173.144C460.294 170.085 458.5 168.205 455.766 168.205C453.818 168.205 452.408 169.162 451.819 170.692H451.665V168.376H448.196V181.5H451.836V173.913ZM463.163 186.421H466.803V179.398H466.914C467.418 180.492 468.52 181.714 470.639 181.714C473.629 181.714 475.962 179.347 475.962 174.955C475.962 170.444 473.527 168.205 470.647 168.205C468.452 168.205 467.401 169.513 466.914 170.581H466.751V168.376H463.163V186.421ZM466.726 174.938C466.726 172.597 467.717 171.102 469.485 171.102C471.288 171.102 472.245 172.665 472.245 174.938C472.245 177.228 471.271 178.817 469.485 178.817C467.734 178.817 466.726 177.279 466.726 174.938ZM486.804 175.912C486.813 177.672 485.608 178.595 484.301 178.595C482.925 178.595 482.037 177.63 482.028 176.083V168.376H478.388V176.732C478.397 179.8 480.191 181.671 482.831 181.671C484.805 181.671 486.223 180.654 486.813 179.116H486.949V181.5H490.444V168.376H486.804V175.912ZM500.336 168.376H497.867V165.232H494.227V168.376H492.433V171.11H494.227V177.946C494.21 180.517 495.961 181.79 498.601 181.679C499.541 181.645 500.208 181.457 500.575 181.338L500.003 178.629C499.823 178.663 499.439 178.749 499.097 178.749C498.371 178.749 497.867 178.475 497.867 177.467V171.11H500.336V168.376ZM515.854 164.002H512.377L508.045 166.744V170.025L512.052 167.513H512.154V181.5H515.854V164.002Z" fill="white"/>
<path d="M447.724 215.739C451.116 215.739 453.636 213.612 453.636 210.75C453.636 208.528 452.32 206.913 450.116 206.546V206.409C451.885 205.871 452.987 204.418 452.987 202.445C452.987 199.967 451.03 197.763 447.792 197.763C444.768 197.763 442.256 199.625 442.153 202.376H444.204C444.281 200.633 445.938 199.608 447.758 199.608C449.689 199.608 450.936 200.779 450.936 202.547C450.936 204.393 449.492 205.589 447.416 205.589H446.015V207.469H447.416C450.073 207.469 451.552 208.819 451.552 210.75C451.552 212.604 449.937 213.86 447.69 213.86C445.665 213.86 444.058 212.817 443.93 211.125H441.777C441.905 213.877 444.332 215.739 447.724 215.739ZM464.205 215.5H466.153V213.484H466.393C466.837 214.201 467.691 215.773 470.22 215.773C473.501 215.773 475.791 213.142 475.791 208.972C475.791 204.837 473.501 202.205 470.186 202.205C467.623 202.205 466.837 203.778 466.393 204.461H466.222V198.002H464.205V215.5ZM466.187 208.938C466.187 205.999 467.486 204.017 469.947 204.017C472.51 204.017 473.775 206.17 473.775 208.938C473.775 211.741 472.476 213.962 469.947 213.962C467.52 213.962 466.187 211.912 466.187 208.938ZM478.875 215.5H480.892V202.376H478.875V215.5ZM479.901 200.189C480.687 200.189 481.336 199.574 481.336 198.822C481.336 198.07 480.687 197.455 479.901 197.455C479.115 197.455 478.465 198.07 478.465 198.822C478.465 199.574 479.115 200.189 479.901 200.189ZM490.292 202.376H487.49V199.232H485.473V202.376H483.491V204.085H485.473V212.287C485.473 214.577 487.319 215.671 489.028 215.671C489.78 215.671 490.258 215.534 490.532 215.432L490.121 213.62C489.951 213.654 489.677 213.723 489.233 213.723C488.344 213.723 487.49 213.449 487.49 211.741V204.085H490.292V202.376ZM498.516 215.773C501.421 215.773 503.335 213.996 503.677 211.672H501.66C501.284 213.108 500.088 213.962 498.516 213.962C496.124 213.962 494.586 211.98 494.586 208.938C494.586 205.965 496.158 204.017 498.516 204.017C500.293 204.017 501.353 205.11 501.66 206.307H503.677C503.335 203.846 501.25 202.205 498.482 202.205C494.927 202.205 492.569 205.008 492.569 209.007C492.569 212.937 494.825 215.773 498.516 215.773ZM511.956 215.773C515.51 215.773 517.902 213.073 517.902 209.007C517.902 204.905 515.51 202.205 511.956 202.205C508.401 202.205 506.009 204.905 506.009 209.007C506.009 213.073 508.401 215.773 511.956 215.773ZM511.956 213.962C509.256 213.962 508.025 211.638 508.025 209.007C508.025 206.375 509.256 204.017 511.956 204.017C514.656 204.017 515.886 206.375 515.886 209.007C515.886 211.638 514.656 213.962 511.956 213.962ZM520.98 215.5H522.997V202.376H520.98V215.5ZM522.006 200.189C522.792 200.189 523.441 199.574 523.441 198.822C523.441 198.07 522.792 197.455 522.006 197.455C521.22 197.455 520.57 198.07 520.57 198.822C520.57 199.574 521.22 200.189 522.006 200.189ZM528.706 207.605C528.706 205.316 530.125 204.017 532.056 204.017C533.927 204.017 535.063 205.239 535.063 207.298V215.5H537.079V207.161C537.079 203.812 535.294 202.205 532.637 202.205C530.654 202.205 529.424 203.094 528.809 204.427H528.638V202.376H526.69V215.5H528.706V207.605Z" fill="white"/>
<path d="M420 266.5C420 263.739 422.239 261.5 425 261.5H645C647.761 261.5 650 263.739 650 266.5V359.5C650 362.261 647.761 364.5 645 364.5H425C422.239 364.5 420 362.261 420 359.5V266.5Z" fill="#6FCF97"/>
<path d="M445.22 287.002H441.521V304.5H445.22V287.002ZM451.836 296.913C451.844 295.221 452.852 294.23 454.322 294.23C455.783 294.23 456.663 295.187 456.654 296.793V304.5H460.294V296.144C460.294 293.085 458.5 291.205 455.766 291.205C453.818 291.205 452.408 292.162 451.819 293.692H451.665V291.376H448.196V304.5H451.836V296.913ZM463.163 309.421H466.803V302.398H466.914C467.418 303.492 468.52 304.714 470.639 304.714C473.629 304.714 475.962 302.347 475.962 297.955C475.962 293.444 473.527 291.205 470.647 291.205C468.452 291.205 467.401 292.513 466.914 293.581H466.751V291.376H463.163V309.421ZM466.726 297.938C466.726 295.597 467.717 294.102 469.485 294.102C471.288 294.102 472.245 295.665 472.245 297.938C472.245 300.228 471.271 301.817 469.485 301.817C467.734 301.817 466.726 300.279 466.726 297.938ZM486.804 298.912C486.813 300.672 485.608 301.595 484.301 301.595C482.925 301.595 482.037 300.63 482.028 299.083V291.376H478.388V299.732C478.397 302.8 480.191 304.671 482.831 304.671C484.805 304.671 486.223 303.654 486.813 302.116H486.949V304.5H490.444V291.376H486.804V298.912ZM500.336 291.376H497.867V288.232H494.227V291.376H492.433V294.11H494.227V300.946C494.21 303.517 495.961 304.79 498.601 304.679C499.541 304.645 500.208 304.457 500.575 304.338L500.003 301.629C499.823 301.663 499.439 301.749 499.097 301.749C498.371 301.749 497.867 301.475 497.867 300.467V294.11H500.336V291.376ZM508.241 304.5H520.715V301.475H513.368V301.356L515.922 298.852C519.519 295.571 520.485 293.931 520.485 291.94C520.485 288.907 518.007 286.763 514.256 286.763C510.582 286.763 508.062 288.958 508.07 292.393H511.582C511.573 290.718 512.633 289.693 514.231 289.693C515.768 289.693 516.913 290.65 516.913 292.188C516.913 293.581 516.059 294.538 514.47 296.067L508.241 301.834V304.5Z" fill="white"/>
<path d="M441.811 338.5H452.85V336.62H444.716V336.484L448.647 332.28C451.654 329.059 452.543 327.555 452.543 325.616C452.543 322.916 450.355 320.763 447.28 320.763C444.212 320.763 441.88 322.847 441.88 325.923H443.896C443.896 323.932 445.186 322.608 447.211 322.608C449.108 322.608 450.56 323.77 450.56 325.616C450.56 327.23 449.612 328.427 447.587 330.639L441.811 336.962V338.5ZM463.453 338.5H465.401V336.484H465.641C466.085 337.201 466.939 338.773 469.468 338.773C472.749 338.773 475.039 336.142 475.039 331.972C475.039 327.837 472.749 325.205 469.434 325.205C466.871 325.205 466.085 326.778 465.641 327.461H465.47V321.002H463.453V338.5ZM465.436 331.938C465.436 328.999 466.734 327.017 469.195 327.017C471.758 327.017 473.023 329.17 473.023 331.938C473.023 334.741 471.724 336.962 469.195 336.962C466.768 336.962 465.436 334.912 465.436 331.938ZM478.123 338.5H480.14V325.376H478.123V338.5ZM479.149 323.189C479.935 323.189 480.584 322.574 480.584 321.822C480.584 321.07 479.935 320.455 479.149 320.455C478.363 320.455 477.713 321.07 477.713 321.822C477.713 322.574 478.363 323.189 479.149 323.189ZM489.54 325.376H486.738V322.232H484.722V325.376H482.739V327.085H484.722V335.287C484.722 337.577 486.567 338.671 488.276 338.671C489.028 338.671 489.506 338.534 489.78 338.432L489.37 336.62C489.199 336.654 488.925 336.723 488.481 336.723C487.592 336.723 486.738 336.449 486.738 334.741V327.085H489.54V325.376ZM497.764 338.773C500.669 338.773 502.583 336.996 502.925 334.672H500.908C500.532 336.108 499.336 336.962 497.764 336.962C495.372 336.962 493.834 334.98 493.834 331.938C493.834 328.965 495.406 327.017 497.764 327.017C499.541 327.017 500.601 328.11 500.908 329.307H502.925C502.583 326.846 500.498 325.205 497.73 325.205C494.176 325.205 491.817 328.008 491.817 332.007C491.817 335.937 494.073 338.773 497.764 338.773ZM511.204 338.773C514.758 338.773 517.15 336.073 517.15 332.007C517.15 327.905 514.758 325.205 511.204 325.205C507.65 325.205 505.257 327.905 505.257 332.007C505.257 336.073 507.65 338.773 511.204 338.773ZM511.204 336.962C508.504 336.962 507.274 334.638 507.274 332.007C507.274 329.375 508.504 327.017 511.204 327.017C513.904 327.017 515.134 329.375 515.134 332.007C515.134 334.638 513.904 336.962 511.204 336.962ZM520.228 338.5H522.245V325.376H520.228V338.5ZM521.254 323.189C522.04 323.189 522.689 322.574 522.689 321.822C522.689 321.07 522.04 320.455 521.254 320.455C520.468 320.455 519.818 321.07 519.818 321.822C519.818 322.574 520.468 323.189 521.254 323.189ZM527.954 330.605C527.954 328.316 529.373 327.017 531.304 327.017C533.175 327.017 534.311 328.239 534.311 330.298V338.5H536.328V330.161C536.328 326.812 534.542 325.205 531.885 325.205C529.902 325.205 528.672 326.094 528.057 327.427H527.886V325.376H525.938V338.5H527.954V330.605Z" fill="white"/>
<path d="M721.061 250.439C721.646 251.025 721.646 251.975 721.061 252.561L711.515 262.107C710.929 262.692 709.979 262.692 709.393 262.107C708.808 261.521 708.808 260.571 709.393 259.985L717.879 251.5L709.393 243.015C708.808 242.429 708.808 241.479 709.393 240.893C709.979 240.308 710.929 240.308 711.515 240.893L721.061 250.439ZM670 250H720V253H670V250Z" fill="black"/>
<path d="M760.961 228.552H766.318V243H769.975V228.552H775.332V225.502H760.961V228.552ZM781.657 243.256C785.638 243.256 788.116 240.531 788.116 236.489C788.116 232.422 785.638 229.705 781.657 229.705C777.675 229.705 775.197 232.422 775.197 236.489C775.197 240.531 777.675 243.256 781.657 243.256ZM781.674 240.437C779.837 240.437 778.897 238.754 778.897 236.464C778.897 234.174 779.837 232.482 781.674 232.482C783.476 232.482 784.416 234.174 784.416 236.464C784.416 238.754 783.476 240.437 781.674 240.437ZM797.463 229.876H794.994V226.732H791.354V229.876H789.56V232.61H791.354V239.446C791.337 242.017 793.088 243.29 795.729 243.179C796.668 243.145 797.335 242.957 797.702 242.838L797.13 240.129C796.95 240.163 796.566 240.249 796.224 240.249C795.498 240.249 794.994 239.975 794.994 238.967V232.61H797.463V229.876ZM803.576 243.248C805.516 243.248 806.772 242.402 807.413 241.18H807.515V243H810.967V234.148C810.967 231.021 808.318 229.705 805.396 229.705C802.252 229.705 800.184 231.209 799.68 233.602L803.047 233.875C803.294 233.003 804.072 232.363 805.379 232.363C806.618 232.363 807.327 232.986 807.327 234.063V234.114C807.327 234.96 806.43 235.071 804.149 235.293C801.551 235.533 799.219 236.404 799.219 239.335C799.219 241.932 801.073 243.248 803.576 243.248ZM804.619 240.736C803.499 240.736 802.696 240.215 802.696 239.215C802.696 238.19 803.542 237.686 804.824 237.506C805.618 237.395 806.917 237.207 807.353 236.917V238.309C807.353 239.685 806.216 240.736 804.619 240.736ZM817.43 225.502H813.791V243H817.43V225.502Z" fill="black"/>
<path d="M767.661 277.239C770.993 277.239 773.437 274.779 773.437 271.429C773.437 268.037 771.079 265.551 767.866 265.551C766.687 265.551 765.542 265.97 764.824 266.542H764.722L765.337 261.382H772.651V259.502H763.56L762.5 268.114L764.483 268.353C765.209 267.832 766.448 267.456 767.524 267.465C769.754 267.482 771.386 269.174 771.386 271.463C771.386 273.711 769.814 275.36 767.661 275.36C765.867 275.36 764.44 274.206 764.277 272.625H762.227C762.355 275.291 764.653 277.239 767.661 277.239ZM783.905 277H785.853V274.984H786.093C786.537 275.701 787.391 277.273 789.92 277.273C793.201 277.273 795.491 274.642 795.491 270.472C795.491 266.337 793.201 263.705 789.886 263.705C787.323 263.705 786.537 265.278 786.093 265.961H785.922V259.502H783.905V277ZM785.887 270.438C785.887 267.499 787.186 265.517 789.647 265.517C792.21 265.517 793.475 267.67 793.475 270.438C793.475 273.241 792.176 275.462 789.647 275.462C787.22 275.462 785.887 273.412 785.887 270.438ZM798.575 277H800.592V263.876H798.575V277ZM799.601 261.689C800.387 261.689 801.036 261.074 801.036 260.322C801.036 259.57 800.387 258.955 799.601 258.955C798.815 258.955 798.165 259.57 798.165 260.322C798.165 261.074 798.815 261.689 799.601 261.689ZM809.992 263.876H807.19V260.732H805.174V263.876H803.191V265.585H805.174V273.787C805.174 276.077 807.019 277.171 808.728 277.171C809.48 277.171 809.958 277.034 810.232 276.932L809.821 275.12C809.651 275.154 809.377 275.223 808.933 275.223C808.044 275.223 807.19 274.949 807.19 273.241V265.585H809.992V263.876ZM818.216 277.273C821.121 277.273 823.035 275.496 823.377 273.172H821.36C820.984 274.608 819.788 275.462 818.216 275.462C815.824 275.462 814.286 273.48 814.286 270.438C814.286 267.465 815.858 265.517 818.216 265.517C819.993 265.517 821.053 266.61 821.36 267.807H823.377C823.035 265.346 820.95 263.705 818.182 263.705C814.627 263.705 812.269 266.508 812.269 270.507C812.269 274.437 814.525 277.273 818.216 277.273ZM831.656 277.273C835.21 277.273 837.602 274.573 837.602 270.507C837.602 266.405 835.21 263.705 831.656 263.705C828.101 263.705 825.709 266.405 825.709 270.507C825.709 274.573 828.101 277.273 831.656 277.273ZM831.656 275.462C828.956 275.462 827.725 273.138 827.725 270.507C827.725 267.875 828.956 265.517 831.656 265.517C834.356 265.517 835.586 267.875 835.586 270.507C835.586 273.138 834.356 275.462 831.656 275.462ZM840.68 277H842.697V263.876H840.68V277ZM841.706 261.689C842.492 261.689 843.141 261.074 843.141 260.322C843.141 259.57 842.492 258.955 841.706 258.955C840.92 258.955 840.27 259.57 840.27 260.322C840.27 261.074 840.92 261.689 841.706 261.689ZM848.406 269.105C848.406 266.816 849.825 265.517 851.756 265.517C853.627 265.517 854.763 266.739 854.763 268.798V277H856.779V268.661C856.779 265.312 854.994 263.705 852.337 263.705C850.354 263.705 849.124 264.594 848.509 265.927H848.338V263.876H846.39V277H848.406V269.105Z" fill="black"/>
<rect x="741" y="201" width="148" height="101" rx="4" stroke="black" stroke-width="2"/>
<path d="M961.061 250.439C961.646 251.025 961.646 251.975 961.061 252.561L951.515 262.107C950.929 262.692 949.979 262.692 949.393 262.107C948.808 261.521 948.808 260.571 949.393 259.985L957.879 251.5L949.393 243.015C948.808 242.429 948.808 241.479 949.393 240.893C949.979 240.308 950.929 240.308 951.515 240.893L961.061 250.439ZM910 250H960V253H910V250Z" fill="black"/>
<path d="M980 143.5C980 140.739 982.239 138.5 985 138.5H1205C1207.76 138.5 1210 140.739 1210 143.5V236.5C1210 239.261 1207.76 241.5 1205 241.5H985C982.239 241.5 980 239.261 980 236.5V143.5Z" fill="#BB6BD9"/>
<path d="M1016.96 170.128C1016.47 166.087 1013.41 163.763 1009.36 163.763C1004.74 163.763 1001.21 167.026 1001.21 172.751C1001.21 178.458 1004.68 181.739 1009.36 181.739C1013.85 181.739 1016.56 178.757 1016.96 175.536L1013.22 175.519C1012.87 177.39 1011.4 178.467 1009.42 178.467C1006.77 178.467 1004.96 176.493 1004.96 172.751C1004.96 169.111 1006.74 167.035 1009.45 167.035C1011.47 167.035 1012.94 168.205 1013.22 170.128H1016.96ZM1023.18 173.913C1023.19 172.221 1024.23 171.23 1025.71 171.23C1027.19 171.23 1028.06 172.178 1028.05 173.793V181.5H1031.69V173.144C1031.7 170.068 1029.89 168.205 1027.16 168.205C1025.17 168.205 1023.83 169.145 1023.24 170.692H1023.08V164.002H1019.54V181.5H1023.18V173.913ZM1038.3 181.748C1040.24 181.748 1041.5 180.902 1042.14 179.68H1042.24V181.5H1045.69V172.648C1045.69 169.521 1043.04 168.205 1040.12 168.205C1036.98 168.205 1034.91 169.709 1034.4 172.102L1037.77 172.375C1038.02 171.503 1038.8 170.863 1040.1 170.863C1041.34 170.863 1042.05 171.486 1042.05 172.563V172.614C1042.05 173.46 1041.15 173.571 1038.87 173.793C1036.28 174.033 1033.94 174.904 1033.94 177.835C1033.94 180.432 1035.8 181.748 1038.3 181.748ZM1039.34 179.236C1038.22 179.236 1037.42 178.715 1037.42 177.715C1037.42 176.69 1038.27 176.186 1039.55 176.006C1040.34 175.895 1041.64 175.707 1042.08 175.417V176.809C1042.08 178.185 1040.94 179.236 1039.34 179.236ZM1052.15 173.913C1052.16 172.221 1053.17 171.23 1054.64 171.23C1056.1 171.23 1056.98 172.187 1056.97 173.793V181.5H1060.61V173.144C1060.61 170.085 1058.82 168.205 1056.09 168.205C1054.14 168.205 1052.73 169.162 1052.14 170.692H1051.98V168.376H1048.52V181.5H1052.15V173.913ZM1069.39 186.609C1073.15 186.609 1075.81 184.901 1075.81 181.628V168.376H1072.2V170.581H1072.06C1071.57 169.513 1070.51 168.205 1068.31 168.205C1065.43 168.205 1063 170.444 1063 174.913C1063 179.279 1065.36 181.312 1068.32 181.312C1070.41 181.312 1071.58 180.261 1072.06 179.176H1072.21V181.577C1072.21 183.294 1071.06 183.995 1069.48 183.995C1067.87 183.995 1067.06 183.294 1066.76 182.585L1063.4 183.038C1063.83 185.02 1065.86 186.609 1069.39 186.609ZM1069.47 178.578C1067.69 178.578 1066.71 177.16 1066.71 174.895C1066.71 172.665 1067.67 171.102 1069.47 171.102C1071.24 171.102 1072.23 172.597 1072.23 174.895C1072.23 177.211 1071.22 178.578 1069.47 178.578ZM1084.69 181.756C1087.94 181.756 1090.12 180.176 1090.64 177.741L1087.27 177.518C1086.9 178.518 1085.96 179.039 1084.75 179.039C1082.93 179.039 1081.77 177.835 1081.77 175.878V175.869H1090.71V174.87C1090.71 170.41 1088.01 168.205 1084.54 168.205C1080.68 168.205 1078.18 170.948 1078.18 174.998C1078.18 179.159 1080.65 181.756 1084.69 181.756ZM1081.77 173.614C1081.85 172.119 1082.99 170.922 1084.6 170.922C1086.18 170.922 1087.28 172.05 1087.29 173.614H1081.77ZM1104.59 181.756C1108.57 181.756 1111.04 179.031 1111.04 174.989C1111.04 170.922 1108.57 168.205 1104.59 168.205C1100.6 168.205 1098.13 170.922 1098.13 174.989C1098.13 179.031 1100.6 181.756 1104.59 181.756ZM1104.6 178.937C1102.77 178.937 1101.83 177.254 1101.83 174.964C1101.83 172.674 1102.77 170.982 1104.6 170.982C1106.41 170.982 1107.35 172.674 1107.35 174.964C1107.35 177.254 1106.41 178.937 1104.6 178.937ZM1121.83 175.912C1121.84 177.672 1120.63 178.595 1119.32 178.595C1117.95 178.595 1117.06 177.63 1117.05 176.083V168.376H1113.41V176.732C1113.42 179.8 1115.21 181.671 1117.85 181.671C1119.83 181.671 1121.25 180.654 1121.84 179.116H1121.97V181.5H1125.47V168.376H1121.83V175.912ZM1135.36 168.376H1132.89V165.232H1129.25V168.376H1127.46V171.11H1129.25V177.946C1129.23 180.517 1130.98 181.79 1133.62 181.679C1134.56 181.645 1135.23 181.457 1135.6 181.338L1135.03 178.629C1134.85 178.663 1134.46 178.749 1134.12 178.749C1133.39 178.749 1132.89 178.475 1132.89 177.467V171.11H1135.36V168.376ZM1137.73 186.421H1141.37V179.398H1141.48C1141.98 180.492 1143.09 181.714 1145.21 181.714C1148.2 181.714 1150.53 179.347 1150.53 174.955C1150.53 170.444 1148.09 168.205 1145.21 168.205C1143.02 168.205 1141.97 169.513 1141.48 170.581H1141.32V168.376H1137.73V186.421ZM1141.29 174.938C1141.29 172.597 1142.28 171.102 1144.05 171.102C1145.86 171.102 1146.81 172.665 1146.81 174.938C1146.81 177.228 1145.84 178.817 1144.05 178.817C1142.3 178.817 1141.29 177.279 1141.29 174.938ZM1161.37 175.912C1161.38 177.672 1160.17 178.595 1158.87 178.595C1157.49 178.595 1156.6 177.63 1156.6 176.083V168.376H1152.96V176.732C1152.96 179.8 1154.76 181.671 1157.4 181.671C1159.37 181.671 1160.79 180.654 1161.38 179.116H1161.52V181.5H1165.01V168.376H1161.37V175.912ZM1174.9 168.376H1172.43V165.232H1168.79V168.376H1167V171.11H1168.79V177.946C1168.78 180.517 1170.53 181.79 1173.17 181.679C1174.11 181.645 1174.77 181.457 1175.14 181.338L1174.57 178.629C1174.39 178.663 1174.01 178.749 1173.66 178.749C1172.94 178.749 1172.43 178.475 1172.43 177.467V171.11H1174.9V168.376Z" fill="white"/>
<path d="M1007.42 198.002H1005.54C1005.43 198.181 1004.17 200.599 1001.47 200.599V202.376C1003.48 202.376 1004.91 201.556 1005.16 201.078H1005.3V215.5H1007.42V198.002ZM1019.51 215.5H1021.45V213.484H1021.69C1022.14 214.201 1022.99 215.773 1025.52 215.773C1028.8 215.773 1031.09 213.142 1031.09 208.972C1031.09 204.837 1028.8 202.205 1025.49 202.205C1022.92 202.205 1022.14 203.778 1021.69 204.461H1021.52V198.002H1019.51V215.5ZM1021.49 208.938C1021.49 205.999 1022.79 204.017 1025.25 204.017C1027.81 204.017 1029.08 206.17 1029.08 208.938C1029.08 211.741 1027.78 213.962 1025.25 213.962C1022.82 213.962 1021.49 211.912 1021.49 208.938ZM1034.18 215.5H1036.19V202.376H1034.18V215.5ZM1035.2 200.189C1035.99 200.189 1036.64 199.574 1036.64 198.822C1036.64 198.07 1035.99 197.455 1035.2 197.455C1034.42 197.455 1033.77 198.07 1033.77 198.822C1033.77 199.574 1034.42 200.189 1035.2 200.189ZM1045.59 202.376H1042.79V199.232H1040.77V202.376H1038.79V204.085H1040.77V212.287C1040.77 214.577 1042.62 215.671 1044.33 215.671C1045.08 215.671 1045.56 215.534 1045.83 215.432L1045.42 213.62C1045.25 213.654 1044.98 213.723 1044.53 213.723C1043.65 213.723 1042.79 213.449 1042.79 211.741V204.085H1045.59V202.376ZM1053.82 215.773C1056.72 215.773 1058.64 213.996 1058.98 211.672H1056.96C1056.58 213.108 1055.39 213.962 1053.82 213.962C1051.42 213.962 1049.89 211.98 1049.89 208.938C1049.89 205.965 1051.46 204.017 1053.82 204.017C1055.59 204.017 1056.65 205.11 1056.96 206.307H1058.98C1058.64 203.846 1056.55 202.205 1053.78 202.205C1050.23 202.205 1047.87 205.008 1047.87 209.007C1047.87 212.937 1050.13 215.773 1053.82 215.773ZM1067.26 215.773C1070.81 215.773 1073.2 213.073 1073.2 209.007C1073.2 204.905 1070.81 202.205 1067.26 202.205C1063.7 202.205 1061.31 204.905 1061.31 209.007C1061.31 213.073 1063.7 215.773 1067.26 215.773ZM1067.26 213.962C1064.56 213.962 1063.33 211.638 1063.33 209.007C1063.33 206.375 1064.56 204.017 1067.26 204.017C1069.96 204.017 1071.19 206.375 1071.19 209.007C1071.19 211.638 1069.96 213.962 1067.26 213.962ZM1076.28 215.5H1078.3V202.376H1076.28V215.5ZM1077.31 200.189C1078.09 200.189 1078.74 199.574 1078.74 198.822C1078.74 198.07 1078.09 197.455 1077.31 197.455C1076.52 197.455 1075.87 198.07 1075.87 198.822C1075.87 199.574 1076.52 200.189 1077.31 200.189ZM1084.01 207.605C1084.01 205.316 1085.43 204.017 1087.36 204.017C1089.23 204.017 1090.36 205.239 1090.36 207.298V215.5H1092.38V207.161C1092.38 203.812 1090.59 202.205 1087.94 202.205C1085.96 202.205 1084.72 203.094 1084.11 204.427H1083.94V202.376H1081.99V215.5H1084.01V207.605Z" fill="white"/>
<path d="M980 266.5C980 263.739 982.239 261.5 985 261.5H1205C1207.76 261.5 1210 263.739 1210 266.5V359.5C1210 362.261 1207.76 364.5 1205 364.5H985C982.239 364.5 980 362.261 980 359.5V266.5Z" fill="#F7931A"/>
<path d="M1017.6 295.751C1017.6 290.026 1014.05 286.763 1009.41 286.763C1004.74 286.763 1001.21 290.026 1001.21 295.751C1001.21 301.45 1004.74 304.739 1009.41 304.739C1014.05 304.739 1017.6 301.475 1017.6 295.751ZM1013.85 295.751C1013.85 299.459 1012.09 301.467 1009.41 301.467C1006.72 301.467 1004.96 299.459 1004.96 295.751C1004.96 292.043 1006.72 290.035 1009.41 290.035C1012.09 290.035 1013.85 292.043 1013.85 295.751ZM1028.69 298.912C1028.7 300.672 1027.49 301.595 1026.19 301.595C1024.81 301.595 1023.92 300.63 1023.91 299.083V291.376H1020.27V299.732C1020.28 302.8 1022.08 304.671 1024.72 304.671C1026.69 304.671 1028.11 303.654 1028.7 302.116H1028.83V304.5H1032.33V291.376H1028.69V298.912ZM1042.22 291.376H1039.75V288.232H1036.11V291.376H1034.32V294.11H1036.11V300.946C1036.09 303.517 1037.85 304.79 1040.49 304.679C1041.43 304.645 1042.09 304.457 1042.46 304.338L1041.89 301.629C1041.71 301.663 1041.32 301.749 1040.98 301.749C1040.26 301.749 1039.75 301.475 1039.75 300.467V294.11H1042.22V291.376ZM1044.59 309.421H1048.23V302.398H1048.34C1048.85 303.492 1049.95 304.714 1052.07 304.714C1055.06 304.714 1057.39 302.347 1057.39 297.955C1057.39 293.444 1054.96 291.205 1052.08 291.205C1049.88 291.205 1048.83 292.513 1048.34 293.581H1048.18V291.376H1044.59V309.421ZM1048.15 297.938C1048.15 295.597 1049.15 294.102 1050.91 294.102C1052.72 294.102 1053.67 295.665 1053.67 297.938C1053.67 300.228 1052.7 301.817 1050.91 301.817C1049.16 301.817 1048.15 300.279 1048.15 297.938ZM1068.23 298.912C1068.24 300.672 1067.04 301.595 1065.73 301.595C1064.35 301.595 1063.47 300.63 1063.46 299.083V291.376H1059.82V299.732C1059.83 302.8 1061.62 304.671 1064.26 304.671C1066.23 304.671 1067.65 303.654 1068.24 302.116H1068.38V304.5H1071.87V291.376H1068.23V298.912ZM1081.76 291.376H1079.3V288.232H1075.66V291.376H1073.86V294.11H1075.66V300.946C1075.64 303.517 1077.39 304.79 1080.03 304.679C1080.97 304.645 1081.64 304.457 1082 304.338L1081.43 301.629C1081.25 301.663 1080.87 301.749 1080.53 301.749C1079.8 301.749 1079.3 301.475 1079.3 300.467V294.11H1081.76V291.376ZM1089.67 304.5H1102.14V301.475H1094.8V301.356L1097.35 298.852C1100.95 295.571 1101.91 293.931 1101.91 291.94C1101.91 288.907 1099.44 286.763 1095.68 286.763C1092.01 286.763 1089.49 288.958 1089.5 292.393H1093.01C1093 290.718 1094.06 289.693 1095.66 289.693C1097.2 289.693 1098.34 290.65 1098.34 292.188C1098.34 293.581 1097.49 294.538 1095.9 296.067L1089.67 301.834V304.5Z" fill="white"/>
<path d="M1001.4 334.912H1009.64V338.5H1011.65V334.912H1014.05V333.032H1011.65V321.002H1009.09L1001.4 333.169V334.912ZM1009.64 333.032H1003.69V332.895L1009.5 323.702H1009.64V333.032ZM1024.32 338.5H1026.27V336.484H1026.51C1026.95 337.201 1027.81 338.773 1030.34 338.773C1033.62 338.773 1035.91 336.142 1035.91 331.972C1035.91 327.837 1033.62 325.205 1030.3 325.205C1027.74 325.205 1026.95 326.778 1026.51 327.461H1026.34V321.002H1024.32V338.5ZM1026.3 331.938C1026.3 328.999 1027.6 327.017 1030.06 327.017C1032.63 327.017 1033.89 329.17 1033.89 331.938C1033.89 334.741 1032.59 336.962 1030.06 336.962C1027.64 336.962 1026.3 334.912 1026.3 331.938ZM1038.99 338.5H1041.01V325.376H1038.99V338.5ZM1040.02 323.189C1040.8 323.189 1041.45 322.574 1041.45 321.822C1041.45 321.07 1040.8 320.455 1040.02 320.455C1039.23 320.455 1038.58 321.07 1038.58 321.822C1038.58 322.574 1039.23 323.189 1040.02 323.189ZM1050.41 325.376H1047.61V322.232H1045.59V325.376H1043.61V327.085H1045.59V335.287C1045.59 337.577 1047.44 338.671 1049.15 338.671C1049.9 338.671 1050.38 338.534 1050.65 338.432L1050.24 336.62C1050.07 336.654 1049.79 336.723 1049.35 336.723C1048.46 336.723 1047.61 336.449 1047.61 334.741V327.085H1050.41V325.376ZM1058.63 338.773C1061.54 338.773 1063.45 336.996 1063.79 334.672H1061.78C1061.4 336.108 1060.21 336.962 1058.63 336.962C1056.24 336.962 1054.7 334.98 1054.7 331.938C1054.7 328.965 1056.28 327.017 1058.63 327.017C1060.41 327.017 1061.47 328.11 1061.78 329.307H1063.79C1063.45 326.846 1061.37 325.205 1058.6 325.205C1055.04 325.205 1052.69 328.008 1052.69 332.007C1052.69 335.937 1054.94 338.773 1058.63 338.773ZM1072.07 338.773C1075.63 338.773 1078.02 336.073 1078.02 332.007C1078.02 327.905 1075.63 325.205 1072.07 325.205C1068.52 325.205 1066.13 327.905 1066.13 332.007C1066.13 336.073 1068.52 338.773 1072.07 338.773ZM1072.07 336.962C1069.37 336.962 1068.14 334.638 1068.14 332.007C1068.14 329.375 1069.37 327.017 1072.07 327.017C1074.77 327.017 1076 329.375 1076 332.007C1076 334.638 1074.77 336.962 1072.07 336.962ZM1081.1 338.5H1083.11V325.376H1081.1V338.5ZM1082.12 323.189C1082.91 323.189 1083.56 322.574 1083.56 321.822C1083.56 321.07 1082.91 320.455 1082.12 320.455C1081.34 320.455 1080.69 321.07 1080.69 321.822C1080.69 322.574 1081.34 323.189 1082.12 323.189ZM1088.82 330.605C1088.82 328.316 1090.24 327.017 1092.17 327.017C1094.04 327.017 1095.18 328.239 1095.18 330.298V338.5H1097.2V330.161C1097.2 326.812 1095.41 325.205 1092.75 325.205C1090.77 325.205 1089.54 326.094 1088.93 327.427H1088.76V325.376H1086.81V338.5H1088.82V330.605Z" fill="white"/>
<rect x="401" y="70.5" width="828" height="313" rx="4" stroke="black" stroke-width="2" stroke-dasharray="5 5"/>
<path d="M1285 260H1286.5C1286.5 259.172 1285.83 258.5 1285 258.5V260ZM1285 312H1283.5C1283.5 312.828 1284.17 313.5 1285 313.5V312ZM1311.06 313.061C1311.65 312.475 1311.65 311.525 1311.06 310.939L1301.51 301.393C1300.93 300.808 1299.98 300.808 1299.39 301.393C1298.81 301.979 1298.81 302.929 1299.39 303.515L1307.88 312L1299.39 320.485C1298.81 321.071 1298.81 322.021 1299.39 322.607C1299.98 323.192 1300.93 323.192 1301.51 322.607L1311.06 313.061ZM1260 261.5H1285V258.5H1260V261.5ZM1283.5 260V312H1286.5V260H1283.5ZM1285 313.5H1310V310.5H1285V313.5Z" fill="#F2994A"/>
<path d="M1285 171H1286.5C1286.5 171.828 1285.83 172.5 1285 172.5V171ZM1285 126H1283.5C1283.5 125.172 1284.17 124.5 1285 124.5V126ZM1311.06 124.939C1311.65 125.525 1311.65 126.475 1311.06 127.061L1301.51 136.607C1300.93 137.192 1299.98 137.192 1299.39 136.607C1298.81 136.021 1298.81 135.071 1299.39 134.485L1307.88 126L1299.39 117.515C1298.81 116.929 1298.81 115.979 1299.39 115.393C1299.98 114.808 1300.93 114.808 1301.51 115.393L1311.06 124.939ZM1260 169.5H1285V172.5H1260V169.5ZM1283.5 171V126H1286.5V171H1283.5ZM1285 124.5H1310V127.5H1285V124.5Z" fill="#BB6BD9"/>
<path d="M1371.01 50.5343H1374.56C1374.51 47.4157 1371.94 45.2626 1368.05 45.2626C1364.21 45.2626 1361.4 47.3815 1361.42 50.5599C1361.41 53.1402 1363.23 54.6183 1366.19 55.3275L1368.09 55.8059C1370 56.2673 1371.06 56.8141 1371.06 57.9932C1371.06 59.2748 1369.84 60.1463 1367.96 60.1463C1366.04 60.1463 1364.66 59.2577 1364.54 57.5062H1360.96C1361.05 61.2912 1363.76 63.2478 1368.01 63.2478C1372.28 63.2478 1374.79 61.2058 1374.8 58.0017C1374.79 55.0882 1372.59 53.5418 1369.55 52.8582L1367.98 52.4823C1366.46 52.132 1365.19 51.5681 1365.21 50.3121C1365.21 49.1843 1366.21 48.3555 1368.02 48.3555C1369.79 48.3555 1370.88 49.1587 1371.01 50.5343ZM1383.2 63.2563C1386.45 63.2563 1388.63 61.6757 1389.15 59.2406L1385.78 59.0185C1385.41 60.0181 1384.47 60.5393 1383.26 60.5393C1381.44 60.5393 1380.29 59.3346 1380.29 57.378V57.3695H1389.22V56.3698C1389.22 51.9098 1386.52 49.7055 1383.05 49.7055C1379.19 49.7055 1376.69 52.4481 1376.69 56.498C1376.69 60.6589 1379.16 63.2563 1383.2 63.2563ZM1380.29 55.1139C1380.36 53.6187 1381.5 52.4225 1383.11 52.4225C1384.69 52.4225 1385.79 53.5503 1385.8 55.1139H1380.29ZM1395.24 55.4129C1395.25 53.7212 1396.25 52.7301 1397.72 52.7301C1399.19 52.7301 1400.07 53.687 1400.06 55.2933V63H1403.7V54.6439C1403.7 51.5852 1401.9 49.7055 1399.17 49.7055C1397.22 49.7055 1395.81 50.6624 1395.22 52.1918H1395.07V49.8764H1391.6V63H1395.24V55.4129ZM1411.4 63.2136C1413.52 63.2136 1414.62 61.9918 1415.13 60.8982H1415.28V63H1418.87V45.5018H1415.24V52.0807H1415.13C1414.64 51.0127 1413.59 49.7055 1411.39 49.7055C1408.51 49.7055 1406.08 51.944 1406.08 56.4553C1406.08 60.8469 1408.41 63.2136 1411.4 63.2136ZM1412.55 60.3172C1410.77 60.3172 1409.79 58.728 1409.79 56.4382C1409.79 54.1655 1410.75 52.6019 1412.55 52.6019C1414.32 52.6019 1415.31 54.0971 1415.31 56.4382C1415.31 58.7792 1414.31 60.3172 1412.55 60.3172ZM1427.84 63.2563C1431.09 63.2563 1433.28 61.6757 1433.79 59.2406L1430.42 59.0185C1430.05 60.0181 1429.11 60.5393 1427.9 60.5393C1426.08 60.5393 1424.93 59.3346 1424.93 57.378V57.3695H1433.87V56.3698C1433.87 51.9098 1431.17 49.7055 1427.7 49.7055C1423.83 49.7055 1421.33 52.4481 1421.33 56.498C1421.33 60.6589 1423.8 63.2563 1427.84 63.2563ZM1424.93 55.1139C1425.01 53.6187 1426.14 52.4225 1427.76 52.4225C1429.34 52.4225 1430.43 53.5503 1430.44 55.1139H1424.93ZM1436.24 63H1439.88V55.5752C1439.89 53.969 1441.05 52.8668 1442.52 52.8668C1443.02 52.8668 1443.42 53.0035 1443.76 53.1744L1444.85 50.1669C1444.37 49.8764 1443.76 49.6884 1443.06 49.6884C1441.58 49.6884 1440.38 50.5428 1439.91 52.1662H1439.77V49.8764H1436.24V63ZM1454.71 63H1458.56L1460.81 54.7465H1460.98L1463.23 63H1467.08L1470.65 49.8764H1466.97L1464.97 58.6425H1464.86L1462.71 49.8764H1459.1L1456.98 58.6938H1456.86L1454.82 49.8764H1451.14L1454.71 63ZM1476.33 63.2478C1478.27 63.2478 1479.53 62.4019 1480.17 61.1801H1480.27V63H1483.72V54.1484C1483.72 51.0213 1481.07 49.7055 1478.15 49.7055C1475.01 49.7055 1472.94 51.2092 1472.44 53.6016L1475.8 53.875C1476.05 53.0035 1476.83 52.3627 1478.13 52.3627C1479.37 52.3627 1480.08 52.9864 1480.08 54.0629V54.1142C1480.08 54.9601 1479.18 55.0711 1476.9 55.2933C1474.31 55.5325 1471.97 56.404 1471.97 59.3346C1471.97 61.932 1473.83 63.2478 1476.33 63.2478ZM1477.37 60.7358C1476.25 60.7358 1475.45 60.2146 1475.45 59.215C1475.45 58.1897 1476.3 57.6856 1477.58 57.5062C1478.37 57.3951 1479.67 57.2071 1480.11 56.9166V58.3093C1480.11 59.6849 1478.97 60.7358 1477.37 60.7358ZM1490.19 45.5018H1486.55V63H1490.19V45.5018ZM1496.74 45.5018H1493.1V63H1496.74V45.5018ZM1505.64 63.2563C1508.88 63.2563 1511.07 61.6757 1511.58 59.2406L1508.22 59.0185C1507.85 60.0181 1506.91 60.5393 1505.7 60.5393C1503.88 60.5393 1502.72 59.3346 1502.72 57.378V57.3695H1511.66V56.3698C1511.66 51.9098 1508.96 49.7055 1505.49 49.7055C1501.63 49.7055 1499.13 52.4481 1499.13 56.498C1499.13 60.6589 1501.6 63.2563 1505.64 63.2563ZM1502.72 55.1139C1502.8 53.6187 1503.94 52.4225 1505.55 52.4225C1507.13 52.4225 1508.23 53.5503 1508.23 55.1139H1502.72ZM1521.02 49.8764H1518.55V46.7322H1514.91V49.8764H1513.11V52.6105H1514.91V59.4457C1514.89 62.0174 1516.64 63.2905 1519.28 63.1794C1520.22 63.1452 1520.89 62.9573 1521.26 62.8377L1520.68 60.1292C1520.5 60.1634 1520.12 60.2488 1519.78 60.2488C1519.05 60.2488 1518.55 59.9754 1518.55 58.9672V52.6105H1521.02V49.8764Z" fill="black"/>
<path d="M1360 94C1360 91.2386 1362.24 89 1365 89H1585C1587.76 89 1590 91.2386 1590 94V187C1590 189.761 1587.76 192 1585 192H1365C1362.24 192 1360 189.761 1360 187V94Z" fill="#BB6BD9"/>
<path d="M1396.96 120.628C1396.47 116.587 1393.41 114.263 1389.36 114.263C1384.74 114.263 1381.21 117.526 1381.21 123.251C1381.21 128.958 1384.68 132.239 1389.36 132.239C1393.85 132.239 1396.56 129.257 1396.96 126.036L1393.22 126.019C1392.87 127.89 1391.4 128.967 1389.42 128.967C1386.77 128.967 1384.96 126.993 1384.96 123.251C1384.96 119.611 1386.74 117.535 1389.45 117.535C1391.47 117.535 1392.94 118.705 1393.22 120.628H1396.96ZM1403.18 124.413C1403.19 122.721 1404.23 121.73 1405.71 121.73C1407.19 121.73 1408.06 122.678 1408.05 124.293V132H1411.69V123.644C1411.7 120.568 1409.89 118.705 1407.16 118.705C1405.17 118.705 1403.83 119.645 1403.24 121.192H1403.08V114.502H1399.54V132H1403.18V124.413ZM1418.3 132.248C1420.24 132.248 1421.5 131.402 1422.14 130.18H1422.24V132H1425.69V123.148C1425.69 120.021 1423.04 118.705 1420.12 118.705C1416.98 118.705 1414.91 120.209 1414.4 122.602L1417.77 122.875C1418.02 122.003 1418.8 121.363 1420.1 121.363C1421.34 121.363 1422.05 121.986 1422.05 123.063V123.114C1422.05 123.96 1421.15 124.071 1418.87 124.293C1416.28 124.533 1413.94 125.404 1413.94 128.335C1413.94 130.932 1415.8 132.248 1418.3 132.248ZM1419.34 129.736C1418.22 129.736 1417.42 129.215 1417.42 128.215C1417.42 127.19 1418.27 126.686 1419.55 126.506C1420.34 126.395 1421.64 126.207 1422.08 125.917V127.309C1422.08 128.685 1420.94 129.736 1419.34 129.736ZM1432.15 124.413C1432.16 122.721 1433.17 121.73 1434.64 121.73C1436.1 121.73 1436.98 122.687 1436.97 124.293V132H1440.61V123.644C1440.61 120.585 1438.82 118.705 1436.09 118.705C1434.14 118.705 1432.73 119.662 1432.14 121.192H1431.98V118.876H1428.52V132H1432.15V124.413ZM1449.39 137.109C1453.15 137.109 1455.81 135.401 1455.81 132.128V118.876H1452.2V121.081H1452.06C1451.57 120.013 1450.51 118.705 1448.31 118.705C1445.43 118.705 1443 120.944 1443 125.413C1443 129.779 1445.36 131.812 1448.32 131.812C1450.41 131.812 1451.58 130.761 1452.06 129.676H1452.21V132.077C1452.21 133.794 1451.06 134.495 1449.48 134.495C1447.87 134.495 1447.06 133.794 1446.76 133.085L1443.4 133.538C1443.83 135.52 1445.86 137.109 1449.39 137.109ZM1449.47 129.078C1447.69 129.078 1446.71 127.66 1446.71 125.395C1446.71 123.165 1447.67 121.602 1449.47 121.602C1451.24 121.602 1452.23 123.097 1452.23 125.395C1452.23 127.711 1451.22 129.078 1449.47 129.078ZM1464.69 132.256C1467.94 132.256 1470.12 130.676 1470.64 128.241L1467.27 128.018C1466.9 129.018 1465.96 129.539 1464.75 129.539C1462.93 129.539 1461.77 128.335 1461.77 126.378V126.369H1470.71V125.37C1470.71 120.91 1468.01 118.705 1464.54 118.705C1460.68 118.705 1458.18 121.448 1458.18 125.498C1458.18 129.659 1460.65 132.256 1464.69 132.256ZM1461.77 124.114C1461.85 122.619 1462.99 121.422 1464.6 121.422C1466.18 121.422 1467.28 122.55 1467.29 124.114H1461.77ZM1484.59 132.256C1488.57 132.256 1491.04 129.531 1491.04 125.489C1491.04 121.422 1488.57 118.705 1484.59 118.705C1480.6 118.705 1478.13 121.422 1478.13 125.489C1478.13 129.531 1480.6 132.256 1484.59 132.256ZM1484.6 129.437C1482.77 129.437 1481.83 127.754 1481.83 125.464C1481.83 123.174 1482.77 121.482 1484.6 121.482C1486.41 121.482 1487.35 123.174 1487.35 125.464C1487.35 127.754 1486.41 129.437 1484.6 129.437ZM1501.83 126.412C1501.84 128.172 1500.63 129.095 1499.32 129.095C1497.95 129.095 1497.06 128.13 1497.05 126.583V118.876H1493.41V127.232C1493.42 130.3 1495.21 132.171 1497.85 132.171C1499.83 132.171 1501.25 131.154 1501.84 129.616H1501.97V132H1505.47V118.876H1501.83V126.412ZM1515.36 118.876H1512.89V115.732H1509.25V118.876H1507.46V121.61H1509.25V128.446C1509.23 131.017 1510.98 132.29 1513.62 132.179C1514.56 132.145 1515.23 131.957 1515.6 131.838L1515.03 129.129C1514.85 129.163 1514.46 129.249 1514.12 129.249C1513.39 129.249 1512.89 128.975 1512.89 127.967V121.61H1515.36V118.876ZM1517.73 136.921H1521.37V129.898H1521.48C1521.98 130.992 1523.09 132.214 1525.21 132.214C1528.2 132.214 1530.53 129.847 1530.53 125.455C1530.53 120.944 1528.09 118.705 1525.21 118.705C1523.02 118.705 1521.97 120.013 1521.48 121.081H1521.32V118.876H1517.73V136.921ZM1521.29 125.438C1521.29 123.097 1522.28 121.602 1524.05 121.602C1525.86 121.602 1526.81 123.165 1526.81 125.438C1526.81 127.728 1525.84 129.317 1524.05 129.317C1522.3 129.317 1521.29 127.779 1521.29 125.438ZM1541.37 126.412C1541.38 128.172 1540.17 129.095 1538.87 129.095C1537.49 129.095 1536.6 128.13 1536.6 126.583V118.876H1532.96V127.232C1532.96 130.3 1534.76 132.171 1537.4 132.171C1539.37 132.171 1540.79 131.154 1541.38 129.616H1541.52V132H1545.01V118.876H1541.37V126.412ZM1554.9 118.876H1552.43V115.732H1548.79V118.876H1547V121.61H1548.79V128.446C1548.78 131.017 1550.53 132.29 1553.17 132.179C1554.11 132.145 1554.77 131.957 1555.14 131.838L1554.57 129.129C1554.39 129.163 1554.01 129.249 1553.66 129.249C1552.94 129.249 1552.43 128.975 1552.43 127.967V121.61H1554.9V118.876Z" fill="white"/>
<path d="M1387.42 148.502H1385.54C1385.43 148.681 1384.17 151.099 1381.47 151.099V152.876C1383.48 152.876 1384.91 152.056 1385.16 151.578H1385.3V166H1387.42V148.502ZM1399.51 166H1401.45V163.984H1401.69C1402.14 164.701 1402.99 166.273 1405.52 166.273C1408.8 166.273 1411.09 163.642 1411.09 159.472C1411.09 155.337 1408.8 152.705 1405.49 152.705C1402.92 152.705 1402.14 154.278 1401.69 154.961H1401.52V148.502H1399.51V166ZM1401.49 159.438C1401.49 156.499 1402.79 154.517 1405.25 154.517C1407.81 154.517 1409.08 156.67 1409.08 159.438C1409.08 162.241 1407.78 164.462 1405.25 164.462C1402.82 164.462 1401.49 162.412 1401.49 159.438ZM1414.18 166H1416.19V152.876H1414.18V166ZM1415.2 150.689C1415.99 150.689 1416.64 150.074 1416.64 149.322C1416.64 148.57 1415.99 147.955 1415.2 147.955C1414.42 147.955 1413.77 148.57 1413.77 149.322C1413.77 150.074 1414.42 150.689 1415.2 150.689ZM1425.59 152.876H1422.79V149.732H1420.77V152.876H1418.79V154.585H1420.77V162.787C1420.77 165.077 1422.62 166.171 1424.33 166.171C1425.08 166.171 1425.56 166.034 1425.83 165.932L1425.42 164.12C1425.25 164.154 1424.98 164.223 1424.53 164.223C1423.65 164.223 1422.79 163.949 1422.79 162.241V154.585H1425.59V152.876ZM1433.82 166.273C1436.72 166.273 1438.64 164.496 1438.98 162.172H1436.96C1436.58 163.608 1435.39 164.462 1433.82 164.462C1431.42 164.462 1429.89 162.48 1429.89 159.438C1429.89 156.465 1431.46 154.517 1433.82 154.517C1435.59 154.517 1436.65 155.61 1436.96 156.807H1438.98C1438.64 154.346 1436.55 152.705 1433.78 152.705C1430.23 152.705 1427.87 155.508 1427.87 159.507C1427.87 163.437 1430.13 166.273 1433.82 166.273ZM1447.26 166.273C1450.81 166.273 1453.2 163.573 1453.2 159.507C1453.2 155.405 1450.81 152.705 1447.26 152.705C1443.7 152.705 1441.31 155.405 1441.31 159.507C1441.31 163.573 1443.7 166.273 1447.26 166.273ZM1447.26 164.462C1444.56 164.462 1443.33 162.138 1443.33 159.507C1443.33 156.875 1444.56 154.517 1447.26 154.517C1449.96 154.517 1451.19 156.875 1451.19 159.507C1451.19 162.138 1449.96 164.462 1447.26 164.462ZM1456.28 166H1458.3V152.876H1456.28V166ZM1457.31 150.689C1458.09 150.689 1458.74 150.074 1458.74 149.322C1458.74 148.57 1458.09 147.955 1457.31 147.955C1456.52 147.955 1455.87 148.57 1455.87 149.322C1455.87 150.074 1456.52 150.689 1457.31 150.689ZM1464.01 158.105C1464.01 155.816 1465.43 154.517 1467.36 154.517C1469.23 154.517 1470.36 155.739 1470.36 157.798V166H1472.38V157.661C1472.38 154.312 1470.59 152.705 1467.94 152.705C1465.96 152.705 1464.72 153.594 1464.11 154.927H1463.94V152.876H1461.99V166H1464.01V158.105Z" fill="white"/>
<rect x="1341" y="21" width="268" height="190" rx="4" stroke="#333333" stroke-width="2"/>
<path d="M1361.52 285H1365.22V278.797H1367.92L1371.24 285H1375.32L1371.6 278.199C1373.59 277.345 1374.7 275.61 1374.7 273.218C1374.7 269.74 1372.4 267.502 1368.42 267.502H1361.52V285ZM1365.22 275.824V270.526H1367.72C1369.85 270.526 1370.89 271.475 1370.89 273.218C1370.89 274.952 1369.85 275.824 1367.73 275.824H1365.22ZM1383.01 285.256C1386.26 285.256 1388.45 283.676 1388.96 281.241L1385.59 281.018C1385.22 282.018 1384.28 282.539 1383.07 282.539C1381.25 282.539 1380.1 281.335 1380.1 279.378V279.369H1389.03V278.37C1389.03 273.91 1386.33 271.705 1382.87 271.705C1379 271.705 1376.5 274.448 1376.5 278.498C1376.5 282.659 1378.97 285.256 1383.01 285.256ZM1380.1 277.114C1380.17 275.619 1381.31 274.422 1382.93 274.422C1384.51 274.422 1385.6 275.55 1385.61 277.114H1380.1ZM1397.34 285.256C1400.83 285.256 1403.03 283.206 1403.2 280.19H1399.77C1399.55 281.591 1398.63 282.377 1397.38 282.377C1395.68 282.377 1394.58 280.95 1394.58 278.438C1394.58 275.96 1395.69 274.542 1397.38 274.542C1398.72 274.542 1399.57 275.422 1399.77 276.729H1403.2C1403.05 273.696 1400.75 271.705 1397.32 271.705C1393.34 271.705 1390.88 274.465 1390.88 278.489C1390.88 282.48 1393.3 285.256 1397.34 285.256ZM1411.51 285.256C1414.76 285.256 1416.95 283.676 1417.46 281.241L1414.09 281.018C1413.72 282.018 1412.79 282.539 1411.57 282.539C1409.75 282.539 1408.6 281.335 1408.6 279.378V279.369H1417.54V278.37C1417.54 273.91 1414.84 271.705 1411.37 271.705C1407.5 271.705 1405 274.448 1405 278.498C1405 282.659 1407.47 285.256 1411.51 285.256ZM1408.6 277.114C1408.68 275.619 1409.81 274.422 1411.43 274.422C1413.01 274.422 1414.1 275.55 1414.11 277.114H1408.6ZM1419.91 285H1423.55V271.876H1419.91V285ZM1421.74 270.185C1422.82 270.185 1423.71 269.356 1423.71 268.339C1423.71 267.331 1422.82 266.502 1421.74 266.502C1420.66 266.502 1419.77 267.331 1419.77 268.339C1419.77 269.356 1420.66 270.185 1421.74 270.185ZM1438.7 271.876H1434.85L1432.13 281.266H1431.99L1429.27 271.876H1425.42L1430.01 285H1434.11L1438.7 271.876ZM1446.1 285.256C1449.34 285.256 1451.53 283.676 1452.04 281.241L1448.68 281.018C1448.31 282.018 1447.37 282.539 1446.16 282.539C1444.34 282.539 1443.18 281.335 1443.18 279.378V279.369H1452.12V278.37C1452.12 273.91 1449.42 271.705 1445.95 271.705C1442.09 271.705 1439.59 274.448 1439.59 278.498C1439.59 282.659 1442.06 285.256 1446.1 285.256ZM1443.18 277.114C1443.26 275.619 1444.4 274.422 1446.01 274.422C1447.59 274.422 1448.69 275.55 1448.7 277.114H1443.18ZM1454.5 285H1458.14V277.575C1458.15 275.969 1459.31 274.867 1460.78 274.867C1461.27 274.867 1461.67 275.003 1462.02 275.174L1463.11 272.167C1462.63 271.876 1462.02 271.688 1461.32 271.688C1459.84 271.688 1458.64 272.543 1458.16 274.166H1458.03V271.876H1454.5V285ZM1472.97 285H1476.81L1479.07 276.746H1479.23L1481.49 285H1485.34L1488.9 271.876H1485.23L1483.23 280.643H1483.12L1480.97 271.876H1477.35L1475.23 280.694H1475.11L1473.08 271.876H1469.4L1472.97 285ZM1494.59 285.248C1496.53 285.248 1497.78 284.402 1498.42 283.18H1498.53V285H1501.98V276.148C1501.98 273.021 1499.33 271.705 1496.41 271.705C1493.26 271.705 1491.2 273.209 1490.69 275.602L1494.06 275.875C1494.31 275.003 1495.08 274.363 1496.39 274.363C1497.63 274.363 1498.34 274.986 1498.34 276.063V276.114C1498.34 276.96 1497.44 277.071 1495.16 277.293C1492.56 277.533 1490.23 278.404 1490.23 281.335C1490.23 283.932 1492.08 285.248 1494.59 285.248ZM1495.63 282.736C1494.51 282.736 1493.71 282.215 1493.71 281.215C1493.71 280.19 1494.55 279.686 1495.84 279.506C1496.63 279.395 1497.93 279.207 1498.36 278.917V280.309C1498.36 281.685 1497.23 282.736 1495.63 282.736ZM1508.44 267.502H1504.8V285H1508.44V267.502ZM1515 267.502H1511.36V285H1515V267.502ZM1523.89 285.256C1527.14 285.256 1529.33 283.676 1529.84 281.241L1526.47 281.018C1526.11 282.018 1525.17 282.539 1523.95 282.539C1522.13 282.539 1520.98 281.335 1520.98 279.378V279.369H1529.92V278.37C1529.92 273.91 1527.22 271.705 1523.75 271.705C1519.89 271.705 1517.38 274.448 1517.38 278.498C1517.38 282.659 1519.85 285.256 1523.89 285.256ZM1520.98 277.114C1521.06 275.619 1522.19 274.422 1523.81 274.422C1525.39 274.422 1526.48 275.55 1526.49 277.114H1520.98ZM1539.27 271.876H1536.8V268.732H1533.16V271.876H1531.37V274.61H1533.16V281.446C1533.15 284.017 1534.9 285.29 1537.54 285.179C1538.48 285.145 1539.14 284.957 1539.51 284.838L1538.94 282.129C1538.76 282.163 1538.38 282.249 1538.03 282.249C1537.31 282.249 1536.8 281.975 1536.8 280.967V274.61H1539.27V271.876Z" fill="black"/>
<path d="M1360 316C1360 313.239 1362.24 311 1365 311H1585C1587.76 311 1590 313.239 1590 316V409C1590 411.761 1587.76 414 1585 414H1365C1362.24 414 1360 411.761 1360 409V316Z" fill="#F7931A"/>
<path d="M1397.6 345.251C1397.6 339.526 1394.05 336.263 1389.41 336.263C1384.74 336.263 1381.21 339.526 1381.21 345.251C1381.21 350.95 1384.74 354.239 1389.41 354.239C1394.05 354.239 1397.6 350.975 1397.6 345.251ZM1393.85 345.251C1393.85 348.959 1392.09 350.967 1389.41 350.967C1386.72 350.967 1384.96 348.959 1384.96 345.251C1384.96 341.543 1386.72 339.535 1389.41 339.535C1392.09 339.535 1393.85 341.543 1393.85 345.251ZM1408.69 348.412C1408.7 350.172 1407.49 351.095 1406.19 351.095C1404.81 351.095 1403.92 350.13 1403.91 348.583V340.876H1400.27V349.232C1400.28 352.3 1402.08 354.171 1404.72 354.171C1406.69 354.171 1408.11 353.154 1408.7 351.616H1408.83V354H1412.33V340.876H1408.69V348.412ZM1422.22 340.876H1419.75V337.732H1416.11V340.876H1414.32V343.61H1416.11V350.446C1416.09 353.017 1417.85 354.29 1420.49 354.179C1421.43 354.145 1422.09 353.957 1422.46 353.838L1421.89 351.129C1421.71 351.163 1421.32 351.249 1420.98 351.249C1420.26 351.249 1419.75 350.975 1419.75 349.967V343.61H1422.22V340.876ZM1424.59 358.921H1428.23V351.898H1428.34C1428.85 352.992 1429.95 354.214 1432.07 354.214C1435.06 354.214 1437.39 351.847 1437.39 347.455C1437.39 342.944 1434.96 340.705 1432.08 340.705C1429.88 340.705 1428.83 342.013 1428.34 343.081H1428.18V340.876H1424.59V358.921ZM1428.15 347.438C1428.15 345.097 1429.15 343.602 1430.91 343.602C1432.72 343.602 1433.67 345.165 1433.67 347.438C1433.67 349.728 1432.7 351.317 1430.91 351.317C1429.16 351.317 1428.15 349.779 1428.15 347.438ZM1448.23 348.412C1448.24 350.172 1447.04 351.095 1445.73 351.095C1444.35 351.095 1443.47 350.13 1443.46 348.583V340.876H1439.82V349.232C1439.83 352.3 1441.62 354.171 1444.26 354.171C1446.23 354.171 1447.65 353.154 1448.24 351.616H1448.38V354H1451.87V340.876H1448.23V348.412ZM1461.76 340.876H1459.3V337.732H1455.66V340.876H1453.86V343.61H1455.66V350.446C1455.64 353.017 1457.39 354.29 1460.03 354.179C1460.97 354.145 1461.64 353.957 1462 353.838L1461.43 351.129C1461.25 351.163 1460.87 351.249 1460.53 351.249C1459.8 351.249 1459.3 350.975 1459.3 349.967V343.61H1461.76V340.876ZM1469.67 354H1482.14V350.975H1474.8V350.856L1477.35 348.352C1480.95 345.071 1481.91 343.431 1481.91 341.44C1481.91 338.407 1479.44 336.263 1475.68 336.263C1472.01 336.263 1469.49 338.458 1469.5 341.893H1473.01C1473 340.218 1474.06 339.193 1475.66 339.193C1477.2 339.193 1478.34 340.15 1478.34 341.688C1478.34 343.081 1477.49 344.038 1475.9 345.567L1469.67 351.334V354Z" fill="white"/>
<path d="M1381.4 384.412H1389.64V388H1391.65V384.412H1394.05V382.532H1391.65V370.502H1389.09L1381.4 382.669V384.412ZM1389.64 382.532H1383.69V382.395L1389.5 373.202H1389.64V382.532ZM1404.32 388H1406.27V385.984H1406.51C1406.95 386.701 1407.81 388.273 1410.34 388.273C1413.62 388.273 1415.91 385.642 1415.91 381.472C1415.91 377.337 1413.62 374.705 1410.3 374.705C1407.74 374.705 1406.95 376.278 1406.51 376.961H1406.34V370.502H1404.32V388ZM1406.3 381.438C1406.3 378.499 1407.6 376.517 1410.06 376.517C1412.63 376.517 1413.89 378.67 1413.89 381.438C1413.89 384.241 1412.59 386.462 1410.06 386.462C1407.64 386.462 1406.3 384.412 1406.3 381.438ZM1418.99 388H1421.01V374.876H1418.99V388ZM1420.02 372.689C1420.8 372.689 1421.45 372.074 1421.45 371.322C1421.45 370.57 1420.8 369.955 1420.02 369.955C1419.23 369.955 1418.58 370.57 1418.58 371.322C1418.58 372.074 1419.23 372.689 1420.02 372.689ZM1430.41 374.876H1427.61V371.732H1425.59V374.876H1423.61V376.585H1425.59V384.787C1425.59 387.077 1427.44 388.171 1429.15 388.171C1429.9 388.171 1430.38 388.034 1430.65 387.932L1430.24 386.12C1430.07 386.154 1429.79 386.223 1429.35 386.223C1428.46 386.223 1427.61 385.949 1427.61 384.241V376.585H1430.41V374.876ZM1438.63 388.273C1441.54 388.273 1443.45 386.496 1443.79 384.172H1441.78C1441.4 385.608 1440.21 386.462 1438.63 386.462C1436.24 386.462 1434.7 384.48 1434.7 381.438C1434.7 378.465 1436.28 376.517 1438.63 376.517C1440.41 376.517 1441.47 377.61 1441.78 378.807H1443.79C1443.45 376.346 1441.37 374.705 1438.6 374.705C1435.04 374.705 1432.69 377.508 1432.69 381.507C1432.69 385.437 1434.94 388.273 1438.63 388.273ZM1452.07 388.273C1455.63 388.273 1458.02 385.573 1458.02 381.507C1458.02 377.405 1455.63 374.705 1452.07 374.705C1448.52 374.705 1446.13 377.405 1446.13 381.507C1446.13 385.573 1448.52 388.273 1452.07 388.273ZM1452.07 386.462C1449.37 386.462 1448.14 384.138 1448.14 381.507C1448.14 378.875 1449.37 376.517 1452.07 376.517C1454.77 376.517 1456 378.875 1456 381.507C1456 384.138 1454.77 386.462 1452.07 386.462ZM1461.1 388H1463.11V374.876H1461.1V388ZM1462.12 372.689C1462.91 372.689 1463.56 372.074 1463.56 371.322C1463.56 370.57 1462.91 369.955 1462.12 369.955C1461.34 369.955 1460.69 370.57 1460.69 371.322C1460.69 372.074 1461.34 372.689 1462.12 372.689ZM1468.82 380.105C1468.82 377.816 1470.24 376.517 1472.17 376.517C1474.04 376.517 1475.18 377.739 1475.18 379.798V388H1477.2V379.661C1477.2 376.312 1475.41 374.705 1472.75 374.705C1470.77 374.705 1469.54 375.594 1468.93 376.927H1468.76V374.876H1466.81V388H1468.82V380.105Z" fill="white"/>
<rect x="1341" y="243" width="268" height="190" rx="4" stroke="#333333" stroke-width="2"/>
</svg>
