<svg width="610" height="1102" viewBox="0 0 610 1102" fill="none" xmlns="http://www.w3.org/2000/svg">
<path d="M51.0133 50.5343H54.559C54.5078 47.4157 51.9446 45.2626 48.0485 45.2626C44.2122 45.2626 41.4012 47.3815 41.4183 50.5599C41.4098 53.1402 43.2296 54.6183 46.1859 55.3275L48.0912 55.8059C49.9965 56.2673 51.056 56.8141 51.0645 57.9932C51.056 59.2748 49.8427 60.1463 47.963 60.1463C46.0406 60.1463 44.6565 59.2577 44.5369 57.5062H40.9569C41.0509 61.2912 43.7594 63.2478 48.0058 63.2478C52.2778 63.2478 54.7897 61.2058 54.7983 58.0017C54.7897 55.0882 52.5939 53.5418 49.5522 52.8582L47.9801 52.4823C46.4593 52.132 45.1862 51.5681 45.2119 50.3121C45.2119 49.1843 46.2115 48.3555 48.0228 48.3555C49.7915 48.3555 50.8766 49.1587 51.0133 50.5343ZM63.1992 63.2563C66.4459 63.2563 68.6332 61.6757 69.1458 59.2406L65.7795 59.0185C65.4121 60.0181 64.4722 60.5393 63.259 60.5393C61.4391 60.5393 60.2857 59.3346 60.2857 57.378V57.3695H69.2227V56.3698C69.2227 51.9098 66.5228 49.7055 63.0539 49.7055C59.192 49.7055 56.6886 52.4481 56.6886 56.498C56.6886 60.6589 59.1579 63.2563 63.1992 63.2563ZM60.2857 55.1139C60.3626 53.6187 61.4989 52.4225 63.1137 52.4225C64.6944 52.4225 65.788 53.5503 65.7966 55.1139H60.2857ZM75.2377 55.4129C75.2463 53.7212 76.2545 52.7301 77.724 52.7301C79.1851 52.7301 80.0651 53.687 80.0566 55.2933V63H83.6963V54.6439C83.6963 51.5852 81.9021 49.7055 79.168 49.7055C77.2199 49.7055 75.8102 50.6624 75.2206 52.1918H75.0668V49.8764H71.598V63H75.2377V55.4129ZM91.4009 63.2136C93.5198 63.2136 94.622 61.9918 95.1261 60.8982H95.2799V63H98.8684V45.5018H95.2372V52.0807H95.1261C94.6391 51.0127 93.5882 49.7055 91.3924 49.7055C88.513 49.7055 86.078 51.944 86.078 56.4553C86.078 60.8469 88.4105 63.2136 91.4009 63.2136ZM92.5543 60.3172C90.7686 60.3172 89.7946 58.728 89.7946 56.4382C89.7946 54.1655 90.7516 52.6019 92.5543 52.6019C94.323 52.6019 95.3141 54.0971 95.3141 56.4382C95.3141 58.7792 94.3059 60.3172 92.5543 60.3172ZM107.842 63.2563C111.088 63.2563 113.276 61.6757 113.788 59.2406L110.422 59.0185C110.055 60.0181 109.115 60.5393 107.902 60.5393C106.082 60.5393 104.928 59.3346 104.928 57.378V57.3695H113.865V56.3698C113.865 51.9098 111.165 49.7055 107.697 49.7055C103.835 49.7055 101.331 52.4481 101.331 56.498C101.331 60.6589 103.8 63.2563 107.842 63.2563ZM104.928 55.1139C105.005 53.6187 106.141 52.4225 107.756 52.4225C109.337 52.4225 110.431 53.5503 110.439 55.1139H104.928ZM116.241 63H119.88V55.5752C119.889 53.969 121.051 52.8668 122.52 52.8668C123.016 52.8668 123.418 53.0035 123.759 53.1744L124.853 50.1669C124.374 49.8764 123.759 49.6884 123.059 49.6884C121.581 49.6884 120.384 50.5428 119.906 52.1662H119.769V49.8764H116.241V63ZM134.713 63H138.558L140.813 54.7465H140.976L143.231 63H147.085L150.647 49.8764H146.973L144.974 58.6425H144.863L142.71 49.8764H139.096L136.977 58.6938H136.857L134.824 49.8764H131.141L134.713 63ZM156.331 63.2478C158.271 63.2478 159.527 62.4019 160.168 61.1801H160.27V63H163.722V54.1484C163.722 51.0213 161.073 49.7055 158.151 49.7055C155.007 49.7055 152.939 51.2092 152.435 53.6016L155.802 53.875C156.049 53.0035 156.827 52.3627 158.134 52.3627C159.373 52.3627 160.082 52.9864 160.082 54.0629V54.1142C160.082 54.9601 159.185 55.0711 156.904 55.2933C154.306 55.5325 151.974 56.404 151.974 59.3346C151.974 61.932 153.828 63.2478 156.331 63.2478ZM157.374 60.7358C156.254 60.7358 155.451 60.2146 155.451 59.215C155.451 58.1897 156.297 57.6856 157.579 57.5062C158.373 57.3951 159.672 57.2071 160.108 56.9166V58.3093C160.108 59.6849 158.971 60.7358 157.374 60.7358ZM170.185 45.5018H166.546V63H170.185V45.5018ZM176.741 45.5018H173.101V63H176.741V45.5018ZM185.637 63.2563C188.884 63.2563 191.071 61.6757 191.584 59.2406L188.218 59.0185C187.85 60.0181 186.91 60.5393 185.697 60.5393C183.877 60.5393 182.724 59.3346 182.724 57.378V57.3695H191.661V56.3698C191.661 51.9098 188.961 49.7055 185.492 49.7055C181.63 49.7055 179.127 52.4481 179.127 56.498C179.127 60.6589 181.596 63.2563 185.637 63.2563ZM182.724 55.1139C182.801 53.6187 183.937 52.4225 185.552 52.4225C187.133 52.4225 188.226 53.5503 188.235 55.1139H182.724ZM201.017 49.8764H198.547V46.7322H194.908V49.8764H193.113V52.6105H194.908V59.4457C194.891 62.0174 196.642 63.2905 199.282 63.1794C200.222 63.1452 200.888 62.9573 201.256 62.8377L200.683 60.1292C200.504 60.1634 200.119 60.2488 199.778 60.2488C199.051 60.2488 198.547 59.9754 198.547 58.9672V52.6105H201.017V49.8764Z" fill="black"/>
<path d="M40 94C40 91.2386 42.2386 89 45 89H290C292.761 89 295 91.2386 295 94V187C295 189.761 292.761 192 290 192H45C42.2386 192 40 189.761 40 187V94Z" fill="#6490E3"/>
<path d="M77.6007 123.251C77.6007 117.526 74.0464 114.263 69.407 114.263C64.7419 114.263 61.2133 117.526 61.2133 123.251C61.2133 128.95 64.7419 132.239 69.407 132.239C74.0464 132.239 77.6007 128.975 77.6007 123.251ZM73.8499 123.251C73.8499 126.959 72.0898 128.967 69.407 128.967C66.7156 128.967 64.9641 126.959 64.9641 123.251C64.9641 119.543 66.7156 117.535 69.407 117.535C72.0898 117.535 73.8499 119.543 73.8499 123.251ZM88.6887 126.412C88.6973 128.172 87.4926 129.095 86.1853 129.095C84.8097 129.095 83.9212 128.13 83.9126 126.583V118.876H80.2729V127.232C80.2814 130.3 82.0756 132.171 84.7158 132.171C86.6894 132.171 88.1077 131.154 88.6973 129.616H88.834V132H92.3285V118.876H88.6887V126.412ZM102.22 118.876H99.7511V115.732H96.1114V118.876H94.3171V121.61H96.1114V128.446C96.0943 131.017 97.8458 132.29 100.486 132.179C101.426 132.145 102.092 131.957 102.46 131.838L101.887 129.129C101.708 129.163 101.323 129.249 100.981 129.249C100.255 129.249 99.7511 128.975 99.7511 127.967V121.61H102.22V118.876ZM104.591 136.921H108.231V129.898H108.342C108.846 130.992 109.948 132.214 112.067 132.214C115.058 132.214 117.39 129.847 117.39 125.455C117.39 120.944 114.955 118.705 112.076 118.705C109.88 118.705 108.829 120.013 108.342 121.081H108.18V118.876H104.591V136.921ZM108.154 125.438C108.154 123.097 109.145 121.602 110.914 121.602C112.717 121.602 113.674 123.165 113.674 125.438C113.674 127.728 112.7 129.317 110.914 129.317C109.162 129.317 108.154 127.779 108.154 125.438ZM128.233 126.412C128.241 128.172 127.036 129.095 125.729 129.095C124.354 129.095 123.465 128.13 123.457 126.583V118.876H119.817V127.232C119.825 130.3 121.62 132.171 124.26 132.171C126.233 132.171 127.652 131.154 128.241 129.616H128.378V132H131.872V118.876H128.233V126.412ZM141.764 118.876H139.295V115.732H135.655V118.876H133.861V121.61H135.655V128.446C135.638 131.017 137.39 132.29 140.03 132.179C140.97 132.145 141.636 131.957 142.003 131.838L141.431 129.129C141.252 129.163 140.867 129.249 140.525 129.249C139.799 129.249 139.295 128.975 139.295 127.967V121.61H141.764V118.876ZM156.915 114.502H153.292C153.25 115.57 151.746 117.39 149.499 117.39V120.329C151.43 120.329 152.686 119.611 153.062 119.03H153.224V132H156.915V114.502Z" fill="white"/>
<path d="M67.7238 166.239C71.1158 166.239 73.6363 164.112 73.6363 161.25C73.6363 159.028 72.3205 157.413 70.1161 157.046V156.909C71.8848 156.371 72.9869 154.918 72.9869 152.945C72.9869 150.467 71.0303 148.263 67.7922 148.263C64.7676 148.263 62.2556 150.125 62.1531 152.876H64.2037C64.2806 151.133 65.9381 150.108 67.758 150.108C69.6889 150.108 70.9364 151.279 70.9364 153.047C70.9364 154.893 69.4924 156.089 67.4162 156.089H66.015V157.969H67.4162C70.0734 157.969 71.5515 159.319 71.5515 161.25C71.5515 163.104 69.9367 164.36 67.6896 164.36C65.6647 164.36 64.0584 163.317 63.9303 161.625H61.7772C61.9053 164.377 64.3318 166.239 67.7238 166.239ZM84.2052 166H86.1533V163.984H86.3925C86.8368 164.701 87.6912 166.273 90.2202 166.273C93.5012 166.273 95.791 163.642 95.791 159.472C95.791 155.337 93.5012 152.705 90.1861 152.705C87.6229 152.705 86.8368 154.278 86.3925 154.961H86.2216V148.502H84.2052V166ZM86.1875 159.438C86.1875 156.499 87.4862 154.517 89.9468 154.517C92.51 154.517 93.7746 156.67 93.7746 159.438C93.7746 162.241 92.4759 164.462 89.9468 164.462C87.5203 164.462 86.1875 162.412 86.1875 159.438ZM98.8753 166H100.892V152.876H98.8753V166ZM99.9006 150.689C100.687 150.689 101.336 150.074 101.336 149.322C101.336 148.57 100.687 147.955 99.9006 147.955C99.1146 147.955 98.4652 148.57 98.4652 149.322C98.4652 150.074 99.1146 150.689 99.9006 150.689ZM110.292 152.876H107.49V149.732H105.473V152.876H103.491V154.585H105.473V162.787C105.473 165.077 107.319 166.171 109.028 166.171C109.78 166.171 110.258 166.034 110.532 165.932L110.121 164.12C109.951 164.154 109.677 164.223 109.233 164.223C108.344 164.223 107.49 163.949 107.49 162.241V154.585H110.292V152.876ZM118.516 166.273C121.421 166.273 123.335 164.496 123.677 162.172H121.66C121.284 163.608 120.088 164.462 118.516 164.462C116.124 164.462 114.586 162.48 114.586 159.438C114.586 156.465 116.158 154.517 118.516 154.517C120.293 154.517 121.353 155.61 121.66 156.807H123.677C123.335 154.346 121.25 152.705 118.482 152.705C114.927 152.705 112.569 155.508 112.569 159.507C112.569 163.437 114.825 166.273 118.516 166.273ZM131.956 166.273C135.51 166.273 137.902 163.573 137.902 159.507C137.902 155.405 135.51 152.705 131.956 152.705C128.401 152.705 126.009 155.405 126.009 159.507C126.009 163.573 128.401 166.273 131.956 166.273ZM131.956 164.462C129.256 164.462 128.025 162.138 128.025 159.507C128.025 156.875 129.256 154.517 131.956 154.517C134.656 154.517 135.886 156.875 135.886 159.507C135.886 162.138 134.656 164.462 131.956 164.462ZM140.98 166H142.997V152.876H140.98V166ZM142.006 150.689C142.792 150.689 143.441 150.074 143.441 149.322C143.441 148.57 142.792 147.955 142.006 147.955C141.22 147.955 140.57 148.57 140.57 149.322C140.57 150.074 141.22 150.689 142.006 150.689ZM148.706 158.105C148.706 155.816 150.125 154.517 152.056 154.517C153.927 154.517 155.063 155.739 155.063 157.798V166H157.079V157.661C157.079 154.312 155.294 152.705 152.637 152.705C150.654 152.705 149.424 153.594 148.809 154.927H148.638V152.876H146.69V166H148.706V158.105Z" fill="white"/>
<path d="M315 94C315 91.2386 317.239 89 320 89H565C567.761 89 570 91.2386 570 94V187C570 189.761 567.761 192 565 192H320C317.239 192 315 189.761 315 187V94Z" fill="#6FCF97"/>
<path d="M352.601 123.251C352.601 117.526 349.046 114.263 344.407 114.263C339.742 114.263 336.213 117.526 336.213 123.251C336.213 128.95 339.742 132.239 344.407 132.239C349.046 132.239 352.601 128.975 352.601 123.251ZM348.85 123.251C348.85 126.959 347.09 128.967 344.407 128.967C341.716 128.967 339.964 126.959 339.964 123.251C339.964 119.543 341.716 117.535 344.407 117.535C347.09 117.535 348.85 119.543 348.85 123.251ZM363.689 126.412C363.697 128.172 362.493 129.095 361.185 129.095C359.81 129.095 358.921 128.13 358.913 126.583V118.876H355.273V127.232C355.281 130.3 357.076 132.171 359.716 132.171C361.689 132.171 363.108 131.154 363.697 129.616H363.834V132H367.328V118.876H363.689V126.412ZM377.22 118.876H374.751V115.732H371.111V118.876H369.317V121.61H371.111V128.446C371.094 131.017 372.846 132.29 375.486 132.179C376.426 132.145 377.092 131.957 377.46 131.838L376.887 129.129C376.708 129.163 376.323 129.249 375.981 129.249C375.255 129.249 374.751 128.975 374.751 127.967V121.61H377.22V118.876ZM379.591 136.921H383.231V129.898H383.342C383.846 130.992 384.948 132.214 387.067 132.214C390.058 132.214 392.39 129.847 392.39 125.455C392.39 120.944 389.955 118.705 387.076 118.705C384.88 118.705 383.829 120.013 383.342 121.081H383.18V118.876H379.591V136.921ZM383.154 125.438C383.154 123.097 384.145 121.602 385.914 121.602C387.717 121.602 388.674 123.165 388.674 125.438C388.674 127.728 387.7 129.317 385.914 129.317C384.162 129.317 383.154 127.779 383.154 125.438ZM403.233 126.412C403.241 128.172 402.036 129.095 400.729 129.095C399.354 129.095 398.465 128.13 398.457 126.583V118.876H394.817V127.232C394.825 130.3 396.62 132.171 399.26 132.171C401.233 132.171 402.652 131.154 403.241 129.616H403.378V132H406.872V118.876H403.233V126.412ZM416.764 118.876H414.295V115.732H410.655V118.876H408.861V121.61H410.655V128.446C410.638 131.017 412.39 132.29 415.03 132.179C415.97 132.145 416.636 131.957 417.003 131.838L416.431 129.129C416.252 129.163 415.867 129.249 415.525 129.249C414.799 129.249 414.295 128.975 414.295 127.967V121.61H416.764V118.876ZM424.67 132H437.144V128.975H429.796V128.856L432.351 126.352C435.948 123.071 436.913 121.431 436.913 119.44C436.913 116.407 434.435 114.263 430.685 114.263C427.011 114.263 424.49 116.458 424.499 119.893H428.01C428.002 118.218 429.061 117.193 430.659 117.193C432.197 117.193 433.342 118.15 433.342 119.688C433.342 121.081 432.487 122.038 430.898 123.567L424.67 129.334V132Z" fill="white"/>
<path d="M336.811 166H347.85V164.12H339.716V163.984L343.647 159.78C346.654 156.559 347.543 155.055 347.543 153.116C347.543 150.416 345.355 148.263 342.28 148.263C339.212 148.263 336.88 150.347 336.88 153.423H338.896C338.896 151.432 340.186 150.108 342.211 150.108C344.108 150.108 345.56 151.27 345.56 153.116C345.56 154.73 344.612 155.927 342.587 158.139L336.811 164.462V166ZM358.453 166H360.401V163.984H360.641C361.085 164.701 361.939 166.273 364.468 166.273C367.749 166.273 370.039 163.642 370.039 159.472C370.039 155.337 367.749 152.705 364.434 152.705C361.871 152.705 361.085 154.278 360.641 154.961H360.47V148.502H358.453V166ZM360.436 159.438C360.436 156.499 361.734 154.517 364.195 154.517C366.758 154.517 368.023 156.67 368.023 159.438C368.023 162.241 366.724 164.462 364.195 164.462C361.768 164.462 360.436 162.412 360.436 159.438ZM373.123 166H375.14V152.876H373.123V166ZM374.149 150.689C374.935 150.689 375.584 150.074 375.584 149.322C375.584 148.57 374.935 147.955 374.149 147.955C373.363 147.955 372.713 148.57 372.713 149.322C372.713 150.074 373.363 150.689 374.149 150.689ZM384.54 152.876H381.738V149.732H379.722V152.876H377.739V154.585H379.722V162.787C379.722 165.077 381.567 166.171 383.276 166.171C384.028 166.171 384.506 166.034 384.78 165.932L384.37 164.12C384.199 164.154 383.925 164.223 383.481 164.223C382.592 164.223 381.738 163.949 381.738 162.241V154.585H384.54V152.876ZM392.764 166.273C395.669 166.273 397.583 164.496 397.925 162.172H395.908C395.532 163.608 394.336 164.462 392.764 164.462C390.372 164.462 388.834 162.48 388.834 159.438C388.834 156.465 390.406 154.517 392.764 154.517C394.541 154.517 395.601 155.61 395.908 156.807H397.925C397.583 154.346 395.498 152.705 392.73 152.705C389.176 152.705 386.817 155.508 386.817 159.507C386.817 163.437 389.073 166.273 392.764 166.273ZM406.204 166.273C409.758 166.273 412.15 163.573 412.15 159.507C412.15 155.405 409.758 152.705 406.204 152.705C402.65 152.705 400.257 155.405 400.257 159.507C400.257 163.573 402.65 166.273 406.204 166.273ZM406.204 164.462C403.504 164.462 402.274 162.138 402.274 159.507C402.274 156.875 403.504 154.517 406.204 154.517C408.904 154.517 410.134 156.875 410.134 159.507C410.134 162.138 408.904 164.462 406.204 164.462ZM415.228 166H417.245V152.876H415.228V166ZM416.254 150.689C417.04 150.689 417.689 150.074 417.689 149.322C417.689 148.57 417.04 147.955 416.254 147.955C415.468 147.955 414.818 148.57 414.818 149.322C414.818 150.074 415.468 150.689 416.254 150.689ZM422.954 158.105C422.954 155.816 424.373 154.517 426.304 154.517C428.175 154.517 429.311 155.739 429.311 157.798V166H431.328V157.661C431.328 154.312 429.542 152.705 426.885 152.705C424.902 152.705 423.672 153.594 423.057 154.927H422.886V152.876H420.938V166H422.954V158.105Z" fill="white"/>
<rect x="21" y="21" width="568" height="190" rx="4" stroke="#333333" stroke-width="2"/>
<path d="M431.061 263.061C430.475 263.646 429.525 263.646 428.939 263.061L419.393 253.515C418.808 252.929 418.808 251.979 419.393 251.393C419.979 250.808 420.929 250.808 421.515 251.393L430 259.879L438.485 251.393C439.071 250.808 440.021 250.808 440.607 251.393C441.192 251.979 441.192 252.929 440.607 253.515L431.061 263.061ZM431.5 232V262H428.5V232H431.5Z" fill="#2F80ED"/>
<path d="M181.061 263.061C180.475 263.646 179.525 263.646 178.939 263.061L169.393 253.515C168.808 252.929 168.808 251.979 169.393 251.393C169.979 250.808 170.929 250.808 171.515 251.393L180 259.879L188.485 251.393C189.071 250.808 190.021 250.808 190.607 251.393C191.192 251.979 191.192 252.929 190.607 253.515L181.061 263.061ZM181.5 232V262H178.5V232H181.5Z" fill="#27AE60"/>
<path d="M40.8544 310.552H46.2115V325H49.8684V310.552H55.2255V307.502H40.8544V310.552ZM56.161 325H59.8008V317.575C59.8093 315.969 60.9713 314.867 62.4409 314.867C62.9365 314.867 63.338 315.003 63.6798 315.174L64.7734 312.167C64.295 311.876 63.6798 311.688 62.9792 311.688C61.5011 311.688 60.3049 312.543 59.8264 314.166H59.6897V311.876H56.161V325ZM69.8422 325.248C71.7817 325.248 73.0376 324.402 73.6784 323.18H73.781V325H77.2328V316.148C77.2328 313.021 74.5841 311.705 71.6621 311.705C68.5178 311.705 66.4502 313.209 65.9461 315.602L69.3124 315.875C69.5602 315.003 70.3377 314.363 71.645 314.363C72.8838 314.363 73.593 314.986 73.593 316.063V316.114C73.593 316.96 72.6959 317.071 70.4146 317.293C67.8172 317.533 65.4847 318.404 65.4847 321.335C65.4847 323.932 67.3388 325.248 69.8422 325.248ZM70.8845 322.736C69.7653 322.736 68.9621 322.215 68.9621 321.215C68.9621 320.19 69.808 319.686 71.0896 319.506C71.8842 319.395 73.1829 319.207 73.6186 318.917V320.309C73.6186 321.685 72.4823 322.736 70.8845 322.736ZM83.6963 317.413C83.7049 315.721 84.7131 314.73 86.1826 314.73C87.6437 314.73 88.5237 315.687 88.5152 317.293V325H92.1549V316.644C92.1549 313.585 90.3607 311.705 87.6266 311.705C85.6785 311.705 84.2688 312.662 83.6792 314.192H83.5254V311.876H80.0566V325H83.6963V317.413ZM105.943 315.619C105.618 313.201 103.67 311.705 100.355 311.705C96.9972 311.705 94.7843 313.26 94.7929 315.79C94.7843 317.755 96.0232 319.028 98.5864 319.54L100.859 319.993C102.004 320.224 102.525 320.643 102.542 321.3C102.525 322.078 101.679 322.633 100.406 322.633C99.1076 322.633 98.2447 322.078 98.0225 321.01L94.4426 321.198C94.7843 323.71 96.9204 325.256 100.398 325.256C103.798 325.256 106.233 323.522 106.242 320.933C106.233 319.036 104.994 317.9 102.448 317.379L100.073 316.9C98.8513 316.635 98.3985 316.217 98.407 315.584C98.3985 314.798 99.287 314.286 100.415 314.286C101.679 314.286 102.431 314.978 102.611 315.824L105.943 315.619ZM112.276 325.248C114.216 325.248 115.472 324.402 116.112 323.18H116.215V325H119.667V316.148C119.667 313.021 117.018 311.705 114.096 311.705C110.952 311.705 108.884 313.209 108.38 315.602L111.746 315.875C111.994 315.003 112.772 314.363 114.079 314.363C115.318 314.363 116.027 314.986 116.027 316.063V316.114C116.027 316.96 115.13 317.071 112.849 317.293C110.251 317.533 107.919 318.404 107.919 321.335C107.919 323.932 109.773 325.248 112.276 325.248ZM113.318 322.736C112.199 322.736 111.396 322.215 111.396 321.215C111.396 320.19 112.242 319.686 113.524 319.506C114.318 319.395 115.617 319.207 116.053 318.917V320.309C116.053 321.685 114.916 322.736 113.318 322.736ZM128.42 325.256C131.915 325.256 134.11 323.206 134.281 320.19H130.847C130.633 321.591 129.71 322.377 128.463 322.377C126.763 322.377 125.66 320.95 125.66 318.438C125.66 315.96 126.771 314.542 128.463 314.542C129.796 314.542 130.65 315.422 130.847 316.729H134.281C134.127 313.696 131.829 311.705 128.403 311.705C124.421 311.705 121.961 314.465 121.961 318.489C121.961 322.48 124.379 325.256 128.42 325.256ZM143.592 311.876H141.123V308.732H137.483V311.876H135.689V314.61H137.483V321.446C137.466 324.017 139.218 325.29 141.858 325.179C142.798 325.145 143.464 324.957 143.831 324.838L143.259 322.129C143.079 322.163 142.695 322.249 142.353 322.249C141.627 322.249 141.123 321.975 141.123 320.967V314.61H143.592V311.876ZM145.963 325H149.603V311.876H145.963V325ZM147.792 310.185C148.877 310.185 149.765 309.356 149.765 308.339C149.765 307.331 148.877 306.502 147.792 306.502C146.715 306.502 145.826 307.331 145.826 308.339C145.826 309.356 146.715 310.185 147.792 310.185ZM158.448 325.256C162.43 325.256 164.907 322.531 164.907 318.489C164.907 314.422 162.43 311.705 158.448 311.705C154.467 311.705 151.989 314.422 151.989 318.489C151.989 322.531 154.467 325.256 158.448 325.256ZM158.465 322.437C156.628 322.437 155.688 320.754 155.688 318.464C155.688 316.174 156.628 314.482 158.465 314.482C160.268 314.482 161.208 316.174 161.208 318.464C161.208 320.754 160.268 322.437 158.465 322.437ZM170.914 317.413C170.922 315.721 171.931 314.73 173.4 314.73C174.861 314.73 175.741 315.687 175.733 317.293V325H179.372V316.644C179.372 313.585 177.578 311.705 174.844 311.705C172.896 311.705 171.486 312.662 170.897 314.192H170.743V311.876H167.274V325H170.914V317.413Z" fill="black"/>
<path d="M40 356C40 353.239 42.2386 351 45 351H290C292.761 351 295 353.239 295 356V449C295 451.761 292.761 454 290 454H45C42.2386 454 40 451.761 40 449V356Z" fill="#6490E3"/>
<path d="M65.2204 376.502H61.5208V394H65.2204V376.502ZM71.8356 386.413C71.8442 384.721 72.8524 383.73 74.3219 383.73C75.783 383.73 76.663 384.687 76.6545 386.293V394H80.2942V385.644C80.2942 382.585 78.5 380.705 75.7659 380.705C73.8178 380.705 72.4081 381.662 71.8185 383.192H71.6647V380.876H68.1959V394H71.8356V386.413ZM83.1629 398.921H86.8026V391.898H86.9137C87.4178 392.992 88.52 394.214 90.6389 394.214C93.6293 394.214 95.9618 391.847 95.9618 387.455C95.9618 382.944 93.5268 380.705 90.6474 380.705C88.4516 380.705 87.4007 382.013 86.9137 383.081H86.7514V380.876H83.1629V398.921ZM86.7257 387.438C86.7257 385.097 87.7168 383.602 89.4855 383.602C91.2882 383.602 92.2452 385.165 92.2452 387.438C92.2452 389.728 91.2712 391.317 89.4855 391.317C87.7339 391.317 86.7257 389.779 86.7257 387.438ZM106.804 388.412C106.813 390.172 105.608 391.095 104.301 391.095C102.925 391.095 102.037 390.13 102.028 388.583V380.876H98.3883V389.232C98.3969 392.3 100.191 394.171 102.831 394.171C104.805 394.171 106.223 393.154 106.813 391.616H106.949V394H110.444V380.876H106.804V388.412ZM120.336 380.876H117.867V377.732H114.227V380.876H112.433V383.61H114.227V390.446C114.21 393.017 115.961 394.29 118.601 394.179C119.541 394.145 120.208 393.957 120.575 393.838L120.003 391.129C119.823 391.163 119.439 391.249 119.097 391.249C118.371 391.249 117.867 390.975 117.867 389.967V383.61H120.336V380.876ZM135.487 376.502H131.864C131.821 377.57 130.317 379.39 128.07 379.39V382.329C130.001 382.329 131.257 381.611 131.633 381.03H131.796V394H135.487V376.502Z" fill="white"/>
<path d="M67.7238 428.239C71.1158 428.239 73.6363 426.112 73.6363 423.25C73.6363 421.028 72.3205 419.413 70.1161 419.046V418.909C71.8848 418.371 72.9869 416.918 72.9869 414.945C72.9869 412.467 71.0303 410.263 67.7922 410.263C64.7676 410.263 62.2556 412.125 62.1531 414.876H64.2037C64.2806 413.133 65.9381 412.108 67.758 412.108C69.6889 412.108 70.9364 413.279 70.9364 415.047C70.9364 416.893 69.4924 418.089 67.4162 418.089H66.015V419.969H67.4162C70.0734 419.969 71.5515 421.319 71.5515 423.25C71.5515 425.104 69.9367 426.36 67.6896 426.36C65.6647 426.36 64.0584 425.317 63.9303 423.625H61.7772C61.9053 426.377 64.3318 428.239 67.7238 428.239ZM84.2052 428H86.1533V425.984H86.3925C86.8368 426.701 87.6912 428.273 90.2202 428.273C93.5012 428.273 95.791 425.642 95.791 421.472C95.791 417.337 93.5012 414.705 90.1861 414.705C87.6229 414.705 86.8368 416.278 86.3925 416.961H86.2216V410.502H84.2052V428ZM86.1875 421.438C86.1875 418.499 87.4862 416.517 89.9468 416.517C92.51 416.517 93.7746 418.67 93.7746 421.438C93.7746 424.241 92.4759 426.462 89.9468 426.462C87.5203 426.462 86.1875 424.412 86.1875 421.438ZM98.8753 428H100.892V414.876H98.8753V428ZM99.9006 412.689C100.687 412.689 101.336 412.074 101.336 411.322C101.336 410.57 100.687 409.955 99.9006 409.955C99.1146 409.955 98.4652 410.57 98.4652 411.322C98.4652 412.074 99.1146 412.689 99.9006 412.689ZM110.292 414.876H107.49V411.732H105.473V414.876H103.491V416.585H105.473V424.787C105.473 427.077 107.319 428.171 109.028 428.171C109.78 428.171 110.258 428.034 110.532 427.932L110.121 426.12C109.951 426.154 109.677 426.223 109.233 426.223C108.344 426.223 107.49 425.949 107.49 424.241V416.585H110.292V414.876ZM118.516 428.273C121.421 428.273 123.335 426.496 123.677 424.172H121.66C121.284 425.608 120.088 426.462 118.516 426.462C116.124 426.462 114.586 424.48 114.586 421.438C114.586 418.465 116.158 416.517 118.516 416.517C120.293 416.517 121.353 417.61 121.66 418.807H123.677C123.335 416.346 121.25 414.705 118.482 414.705C114.927 414.705 112.569 417.508 112.569 421.507C112.569 425.437 114.825 428.273 118.516 428.273ZM131.956 428.273C135.51 428.273 137.902 425.573 137.902 421.507C137.902 417.405 135.51 414.705 131.956 414.705C128.401 414.705 126.009 417.405 126.009 421.507C126.009 425.573 128.401 428.273 131.956 428.273ZM131.956 426.462C129.256 426.462 128.025 424.138 128.025 421.507C128.025 418.875 129.256 416.517 131.956 416.517C134.656 416.517 135.886 418.875 135.886 421.507C135.886 424.138 134.656 426.462 131.956 426.462ZM140.98 428H142.997V414.876H140.98V428ZM142.006 412.689C142.792 412.689 143.441 412.074 143.441 411.322C143.441 410.57 142.792 409.955 142.006 409.955C141.22 409.955 140.57 410.57 140.57 411.322C140.57 412.074 141.22 412.689 142.006 412.689ZM148.706 420.105C148.706 417.816 150.125 416.517 152.056 416.517C153.927 416.517 155.063 417.739 155.063 419.798V428H157.079V419.661C157.079 416.312 155.294 414.705 152.637 414.705C150.654 414.705 149.424 415.594 148.809 416.927H148.638V414.876H146.69V428H148.706V420.105Z" fill="white"/>
<path d="M315 356C315 353.239 317.239 351 320 351H565C567.761 351 570 353.239 570 356V449C570 451.761 567.761 454 565 454H320C317.239 454 315 451.761 315 449V356Z" fill="#6FCF97"/>
<path d="M340.22 376.502H336.521V394H340.22V376.502ZM346.836 386.413C346.844 384.721 347.852 383.73 349.322 383.73C350.783 383.73 351.663 384.687 351.654 386.293V394H355.294V385.644C355.294 382.585 353.5 380.705 350.766 380.705C348.818 380.705 347.408 381.662 346.819 383.192H346.665V380.876H343.196V394H346.836V386.413ZM358.163 398.921H361.803V391.898H361.914C362.418 392.992 363.52 394.214 365.639 394.214C368.629 394.214 370.962 391.847 370.962 387.455C370.962 382.944 368.527 380.705 365.647 380.705C363.452 380.705 362.401 382.013 361.914 383.081H361.751V380.876H358.163V398.921ZM361.726 387.438C361.726 385.097 362.717 383.602 364.485 383.602C366.288 383.602 367.245 385.165 367.245 387.438C367.245 389.728 366.271 391.317 364.485 391.317C362.734 391.317 361.726 389.779 361.726 387.438ZM381.804 388.412C381.813 390.172 380.608 391.095 379.301 391.095C377.925 391.095 377.037 390.13 377.028 388.583V380.876H373.388V389.232C373.397 392.3 375.191 394.171 377.831 394.171C379.805 394.171 381.223 393.154 381.813 391.616H381.949V394H385.444V380.876H381.804V388.412ZM395.336 380.876H392.867V377.732H389.227V380.876H387.433V383.61H389.227V390.446C389.21 393.017 390.961 394.29 393.601 394.179C394.541 394.145 395.208 393.957 395.575 393.838L395.003 391.129C394.823 391.163 394.439 391.249 394.097 391.249C393.371 391.249 392.867 390.975 392.867 389.967V383.61H395.336V380.876ZM403.241 394H415.715V390.975H408.368V390.856L410.922 388.352C414.519 385.071 415.485 383.431 415.485 381.44C415.485 378.407 413.007 376.263 409.256 376.263C405.582 376.263 403.062 378.458 403.07 381.893H406.582C406.573 380.218 407.633 379.193 409.231 379.193C410.768 379.193 411.913 380.15 411.913 381.688C411.913 383.081 411.059 384.038 409.47 385.567L403.241 391.334V394Z" fill="white"/>
<path d="M336.811 428H347.85V426.12H339.716V425.984L343.647 421.78C346.654 418.559 347.543 417.055 347.543 415.116C347.543 412.416 345.355 410.263 342.28 410.263C339.212 410.263 336.88 412.347 336.88 415.423H338.896C338.896 413.432 340.186 412.108 342.211 412.108C344.108 412.108 345.56 413.27 345.56 415.116C345.56 416.73 344.612 417.927 342.587 420.139L336.811 426.462V428ZM358.453 428H360.401V425.984H360.641C361.085 426.701 361.939 428.273 364.468 428.273C367.749 428.273 370.039 425.642 370.039 421.472C370.039 417.337 367.749 414.705 364.434 414.705C361.871 414.705 361.085 416.278 360.641 416.961H360.47V410.502H358.453V428ZM360.436 421.438C360.436 418.499 361.734 416.517 364.195 416.517C366.758 416.517 368.023 418.67 368.023 421.438C368.023 424.241 366.724 426.462 364.195 426.462C361.768 426.462 360.436 424.412 360.436 421.438ZM373.123 428H375.14V414.876H373.123V428ZM374.149 412.689C374.935 412.689 375.584 412.074 375.584 411.322C375.584 410.57 374.935 409.955 374.149 409.955C373.363 409.955 372.713 410.57 372.713 411.322C372.713 412.074 373.363 412.689 374.149 412.689ZM384.54 414.876H381.738V411.732H379.722V414.876H377.739V416.585H379.722V424.787C379.722 427.077 381.567 428.171 383.276 428.171C384.028 428.171 384.506 428.034 384.78 427.932L384.37 426.12C384.199 426.154 383.925 426.223 383.481 426.223C382.592 426.223 381.738 425.949 381.738 424.241V416.585H384.54V414.876ZM392.764 428.273C395.669 428.273 397.583 426.496 397.925 424.172H395.908C395.532 425.608 394.336 426.462 392.764 426.462C390.372 426.462 388.834 424.48 388.834 421.438C388.834 418.465 390.406 416.517 392.764 416.517C394.541 416.517 395.601 417.61 395.908 418.807H397.925C397.583 416.346 395.498 414.705 392.73 414.705C389.176 414.705 386.817 417.508 386.817 421.507C386.817 425.437 389.073 428.273 392.764 428.273ZM406.204 428.273C409.758 428.273 412.15 425.573 412.15 421.507C412.15 417.405 409.758 414.705 406.204 414.705C402.65 414.705 400.257 417.405 400.257 421.507C400.257 425.573 402.65 428.273 406.204 428.273ZM406.204 426.462C403.504 426.462 402.274 424.138 402.274 421.507C402.274 418.875 403.504 416.517 406.204 416.517C408.904 416.517 410.134 418.875 410.134 421.507C410.134 424.138 408.904 426.462 406.204 426.462ZM415.228 428H417.245V414.876H415.228V428ZM416.254 412.689C417.04 412.689 417.689 412.074 417.689 411.322C417.689 410.57 417.04 409.955 416.254 409.955C415.468 409.955 414.818 410.57 414.818 411.322C414.818 412.074 415.468 412.689 416.254 412.689ZM422.954 420.105C422.954 417.816 424.373 416.517 426.304 416.517C428.175 416.517 429.311 417.739 429.311 419.798V428H431.328V419.661C431.328 416.312 429.542 414.705 426.885 414.705C424.902 414.705 423.672 415.594 423.057 416.927H422.886V414.876H420.938V428H422.954V420.105Z" fill="white"/>
<path d="M306.061 505.061C305.475 505.646 304.525 505.646 303.939 505.061L294.393 495.515C293.808 494.929 293.808 493.979 294.393 493.393C294.979 492.808 295.929 492.808 296.515 493.393L305 501.879L313.485 493.393C314.071 492.808 315.021 492.808 315.607 493.393C316.192 493.979 316.192 494.929 315.607 495.515L306.061 505.061ZM306.5 474V504H303.5V474H306.5Z" fill="black"/>
<path d="M250.961 552.552H256.318V567H259.975V552.552H265.332V549.502H250.961V552.552ZM271.657 567.256C275.638 567.256 278.116 564.531 278.116 560.489C278.116 556.422 275.638 553.705 271.657 553.705C267.675 553.705 265.197 556.422 265.197 560.489C265.197 564.531 267.675 567.256 271.657 567.256ZM271.674 564.437C269.837 564.437 268.897 562.754 268.897 560.464C268.897 558.174 269.837 556.482 271.674 556.482C273.476 556.482 274.416 558.174 274.416 560.464C274.416 562.754 273.476 564.437 271.674 564.437ZM287.463 553.876H284.994V550.732H281.354V553.876H279.56V556.61H281.354V563.446C281.337 566.017 283.088 567.29 285.729 567.179C286.668 567.145 287.335 566.957 287.702 566.838L287.13 564.129C286.95 564.163 286.566 564.249 286.224 564.249C285.498 564.249 284.994 563.975 284.994 562.967V556.61H287.463V553.876ZM293.576 567.248C295.516 567.248 296.772 566.402 297.413 565.18H297.515V567H300.967V558.148C300.967 555.021 298.318 553.705 295.396 553.705C292.252 553.705 290.184 555.209 289.68 557.602L293.047 557.875C293.294 557.003 294.072 556.363 295.379 556.363C296.618 556.363 297.327 556.986 297.327 558.063V558.114C297.327 558.96 296.43 559.071 294.149 559.293C291.551 559.533 289.219 560.404 289.219 563.335C289.219 565.932 291.073 567.248 293.576 567.248ZM294.619 564.736C293.499 564.736 292.696 564.215 292.696 563.215C292.696 562.19 293.542 561.686 294.824 561.506C295.618 561.395 296.917 561.207 297.353 560.917V562.309C297.353 563.685 296.216 564.736 294.619 564.736ZM307.43 549.502H303.791V567H307.43V549.502Z" fill="black"/>
<path d="M257.661 601.239C260.993 601.239 263.437 598.779 263.437 595.429C263.437 592.037 261.079 589.551 257.866 589.551C256.687 589.551 255.542 589.97 254.824 590.542H254.722L255.337 585.382H262.651V583.502H253.56L252.5 592.114L254.483 592.353C255.209 591.832 256.448 591.456 257.524 591.465C259.754 591.482 261.386 593.174 261.386 595.463C261.386 597.711 259.814 599.36 257.661 599.36C255.867 599.36 254.44 598.206 254.277 596.625H252.227C252.355 599.291 254.653 601.239 257.661 601.239ZM273.905 601H275.853V598.984H276.093C276.537 599.701 277.391 601.273 279.92 601.273C283.201 601.273 285.491 598.642 285.491 594.472C285.491 590.337 283.201 587.705 279.886 587.705C277.323 587.705 276.537 589.278 276.093 589.961H275.922V583.502H273.905V601ZM275.887 594.438C275.887 591.499 277.186 589.517 279.647 589.517C282.21 589.517 283.475 591.67 283.475 594.438C283.475 597.241 282.176 599.462 279.647 599.462C277.22 599.462 275.887 597.412 275.887 594.438ZM288.575 601H290.592V587.876H288.575V601ZM289.601 585.689C290.387 585.689 291.036 585.074 291.036 584.322C291.036 583.57 290.387 582.955 289.601 582.955C288.815 582.955 288.165 583.57 288.165 584.322C288.165 585.074 288.815 585.689 289.601 585.689ZM299.992 587.876H297.19V584.732H295.174V587.876H293.191V589.585H295.174V597.787C295.174 600.077 297.019 601.171 298.728 601.171C299.48 601.171 299.958 601.034 300.232 600.932L299.821 599.12C299.651 599.154 299.377 599.223 298.933 599.223C298.044 599.223 297.19 598.949 297.19 597.241V589.585H299.992V587.876ZM308.216 601.273C311.121 601.273 313.035 599.496 313.377 597.172H311.36C310.984 598.608 309.788 599.462 308.216 599.462C305.824 599.462 304.286 597.48 304.286 594.438C304.286 591.465 305.858 589.517 308.216 589.517C309.993 589.517 311.053 590.61 311.36 591.807H313.377C313.035 589.346 310.95 587.705 308.182 587.705C304.627 587.705 302.269 590.508 302.269 594.507C302.269 598.437 304.525 601.273 308.216 601.273ZM321.656 601.273C325.21 601.273 327.602 598.573 327.602 594.507C327.602 590.405 325.21 587.705 321.656 587.705C318.101 587.705 315.709 590.405 315.709 594.507C315.709 598.573 318.101 601.273 321.656 601.273ZM321.656 599.462C318.956 599.462 317.725 597.138 317.725 594.507C317.725 591.875 318.956 589.517 321.656 589.517C324.356 589.517 325.586 591.875 325.586 594.507C325.586 597.138 324.356 599.462 321.656 599.462ZM330.68 601H332.697V587.876H330.68V601ZM331.706 585.689C332.492 585.689 333.141 585.074 333.141 584.322C333.141 583.57 332.492 582.955 331.706 582.955C330.92 582.955 330.27 583.57 330.27 584.322C330.27 585.074 330.92 585.689 331.706 585.689ZM338.406 593.105C338.406 590.816 339.825 589.517 341.756 589.517C343.627 589.517 344.763 590.739 344.763 592.798V601H346.779V592.661C346.779 589.312 344.994 587.705 342.337 587.705C340.354 587.705 339.124 588.594 338.509 589.927H338.338V587.876H336.39V601H338.406V593.105Z" fill="black"/>
<rect x="231" y="525" width="148" height="101" rx="4" stroke="black" stroke-width="2"/>
<path d="M306.061 678.061C305.475 678.646 304.525 678.646 303.939 678.061L294.393 668.515C293.808 667.929 293.808 666.979 294.393 666.393C294.979 665.808 295.929 665.808 296.515 666.393L305 674.879L313.485 666.393C314.071 665.808 315.021 665.808 315.607 666.393C316.192 666.979 316.192 667.929 315.607 668.515L306.061 678.061ZM306.5 647V677H303.5V647H306.5Z" fill="black"/>
<path d="M40 702C40 699.239 42.2386 697 45 697H290C292.761 697 295 699.239 295 702V795C295 797.761 292.761 800 290 800H45C42.2386 800 40 797.761 40 795V702Z" fill="#BB6BD9"/>
<path d="M76.9599 728.628C76.4729 724.587 73.4141 722.263 69.3643 722.263C64.7419 722.263 61.2133 725.526 61.2133 731.251C61.2133 736.958 64.6821 740.239 69.3643 740.239C73.8499 740.239 76.5583 737.257 76.9599 734.036L73.2176 734.019C72.8673 735.89 71.3977 736.967 69.4241 736.967C66.7669 736.967 64.9641 734.993 64.9641 731.251C64.9641 727.611 66.7412 725.535 69.4497 725.535C71.4746 725.535 72.9357 726.705 73.2176 728.628H76.9599ZM83.1842 732.413C83.1928 730.721 84.2266 729.73 85.7133 729.73C87.1914 729.73 88.0629 730.678 88.0543 732.293V740H91.6941V731.644C91.7026 728.568 89.8913 726.705 87.1572 726.705C85.1664 726.705 83.8336 727.645 83.2355 729.192H83.0817V722.502H79.5445V740H83.1842V732.413ZM98.3008 740.248C100.24 740.248 101.496 739.402 102.137 738.18H102.24V740H105.691V731.148C105.691 728.021 103.043 726.705 100.121 726.705C96.9764 726.705 94.9088 728.209 94.4047 730.602L97.771 730.875C98.0188 730.003 98.7963 729.363 100.104 729.363C101.342 729.363 102.052 729.986 102.052 731.063V731.114C102.052 731.96 101.154 732.071 98.8732 732.293C96.2758 732.533 93.9433 733.404 93.9433 736.335C93.9433 738.932 95.7974 740.248 98.3008 740.248ZM99.3431 737.736C98.2239 737.736 97.4207 737.215 97.4207 736.215C97.4207 735.19 98.2666 734.686 99.5482 734.506C100.343 734.395 101.641 734.207 102.077 733.917V735.309C102.077 736.685 100.941 737.736 99.3431 737.736ZM112.155 732.413C112.163 730.721 113.172 729.73 114.641 729.73C116.102 729.73 116.982 730.687 116.974 732.293V740H120.614V731.644C120.614 728.585 118.819 726.705 116.085 726.705C114.137 726.705 112.727 727.662 112.138 729.192H111.984V726.876H108.515V740H112.155V732.413ZM129.395 745.109C133.145 745.109 135.811 743.401 135.811 740.128V726.876H132.197V729.081H132.06C131.573 728.013 130.505 726.705 128.31 726.705C125.43 726.705 122.995 728.944 122.995 733.413C122.995 737.779 125.362 739.812 128.318 739.812C130.411 739.812 131.582 738.761 132.06 737.676H132.214V740.077C132.214 741.794 131.061 742.495 129.48 742.495C127.874 742.495 127.062 741.794 126.763 741.085L123.397 741.538C123.832 743.52 125.857 745.109 129.395 745.109ZM129.472 737.078C127.686 737.078 126.712 735.66 126.712 733.395C126.712 731.165 127.669 729.602 129.472 729.602C131.24 729.602 132.231 731.097 132.231 733.395C132.231 735.711 131.223 737.078 129.472 737.078ZM144.688 740.256C147.935 740.256 150.122 738.676 150.635 736.241L147.269 736.018C146.901 737.018 145.962 737.539 144.748 737.539C142.928 737.539 141.775 736.335 141.775 734.378V734.369H150.712V733.37C150.712 728.91 148.012 726.705 144.543 726.705C140.681 726.705 138.178 729.448 138.178 733.498C138.178 737.659 140.647 740.256 144.688 740.256ZM141.775 732.114C141.852 730.619 142.988 729.422 144.603 729.422C146.184 729.422 147.277 730.55 147.286 732.114H141.775ZM164.585 740.256C168.567 740.256 171.045 737.531 171.045 733.489C171.045 729.422 168.567 726.705 164.585 726.705C160.604 726.705 158.126 729.422 158.126 733.489C158.126 737.531 160.604 740.256 164.585 740.256ZM164.602 737.437C162.765 737.437 161.826 735.754 161.826 733.464C161.826 731.174 162.765 729.482 164.602 729.482C166.405 729.482 167.345 731.174 167.345 733.464C167.345 735.754 166.405 737.437 164.602 737.437ZM181.827 734.412C181.836 736.172 180.631 737.095 179.324 737.095C177.948 737.095 177.06 736.13 177.051 734.583V726.876H173.411V735.232C173.42 738.3 175.214 740.171 177.854 740.171C179.828 740.171 181.246 739.154 181.836 737.616H181.972V740H185.467V726.876H181.827V734.412ZM195.359 726.876H192.89V723.732H189.25V726.876H187.456V729.61H189.25V736.446C189.233 739.017 190.984 740.29 193.624 740.179C194.564 740.145 195.231 739.957 195.598 739.838L195.026 737.129C194.846 737.163 194.462 737.249 194.12 737.249C193.394 737.249 192.89 736.975 192.89 735.967V729.61H195.359V726.876ZM197.73 744.921H201.37V737.898H201.481C201.985 738.992 203.087 740.214 205.206 740.214C208.196 740.214 210.529 737.847 210.529 733.455C210.529 728.944 208.094 726.705 205.214 726.705C203.019 726.705 201.968 728.013 201.481 729.081H201.318V726.876H197.73V744.921ZM201.293 733.438C201.293 731.097 202.284 729.602 204.052 729.602C205.855 729.602 206.812 731.165 206.812 733.438C206.812 735.728 205.838 737.317 204.052 737.317C202.301 737.317 201.293 735.779 201.293 733.438ZM221.371 734.412C221.38 736.172 220.175 737.095 218.868 737.095C217.492 737.095 216.604 736.13 216.595 734.583V726.876H212.955V735.232C212.964 738.3 214.758 740.171 217.398 740.171C219.372 740.171 220.79 739.154 221.38 737.616H221.516V740H225.011V726.876H221.371V734.412ZM234.903 726.876H232.434V723.732H228.794V726.876H227V729.61H228.794V736.446C228.777 739.017 230.528 740.29 233.168 740.179C234.108 740.145 234.775 739.957 235.142 739.838L234.57 737.129C234.39 737.163 234.006 737.249 233.664 737.249C232.938 737.249 232.434 736.975 232.434 735.967V729.61H234.903V726.876Z" fill="white"/>
<path d="M67.4162 756.502H65.5365C65.4255 756.681 64.1695 759.099 61.4696 759.099V760.876C63.4774 760.876 64.9128 760.056 65.1606 759.578H65.2973V774H67.4162V756.502ZM79.506 774H81.4541V771.984H81.6933C82.1376 772.701 82.992 774.273 85.521 774.273C88.8019 774.273 91.0917 771.642 91.0917 767.472C91.0917 763.337 88.8019 760.705 85.4869 760.705C82.9236 760.705 82.1376 762.278 81.6933 762.961H81.5224V756.502H79.506V774ZM81.4882 767.438C81.4882 764.499 82.7869 762.517 85.2476 762.517C87.8108 762.517 89.0753 764.67 89.0753 767.438C89.0753 770.241 87.7767 772.462 85.2476 772.462C82.8211 772.462 81.4882 770.412 81.4882 767.438ZM94.1761 774H96.1925V760.876H94.1761V774ZM95.2014 758.689C95.9875 758.689 96.6368 758.074 96.6368 757.322C96.6368 756.57 95.9875 755.955 95.2014 755.955C94.4154 755.955 93.766 756.57 93.766 757.322C93.766 758.074 94.4154 758.689 95.2014 758.689ZM105.593 760.876H102.791V757.732H100.774V760.876H98.792V762.585H100.774V770.787C100.774 773.077 102.62 774.171 104.329 774.171C105.08 774.171 105.559 774.034 105.832 773.932L105.422 772.12C105.251 772.154 104.978 772.223 104.534 772.223C103.645 772.223 102.791 771.949 102.791 770.241V762.585H105.593V760.876ZM113.817 774.273C116.722 774.273 118.636 772.496 118.977 770.172H116.961C116.585 771.608 115.389 772.462 113.817 772.462C111.424 772.462 109.886 770.48 109.886 767.438C109.886 764.465 111.459 762.517 113.817 762.517C115.594 762.517 116.653 763.61 116.961 764.807H118.977C118.636 762.346 116.551 760.705 113.783 760.705C110.228 760.705 107.87 763.508 107.87 767.507C107.87 771.437 110.126 774.273 113.817 774.273ZM127.256 774.273C130.811 774.273 133.203 771.573 133.203 767.507C133.203 763.405 130.811 760.705 127.256 760.705C123.702 760.705 121.31 763.405 121.31 767.507C121.31 771.573 123.702 774.273 127.256 774.273ZM127.256 772.462C124.557 772.462 123.326 770.138 123.326 767.507C123.326 764.875 124.557 762.517 127.256 762.517C129.956 762.517 131.187 764.875 131.187 767.507C131.187 770.138 129.956 772.462 127.256 772.462ZM136.281 774H138.298V760.876H136.281V774ZM137.306 758.689C138.092 758.689 138.742 758.074 138.742 757.322C138.742 756.57 138.092 755.955 137.306 755.955C136.52 755.955 135.871 756.57 135.871 757.322C135.871 758.074 136.52 758.689 137.306 758.689ZM144.007 766.105C144.007 763.816 145.425 762.517 147.356 762.517C149.227 762.517 150.364 763.739 150.364 765.798V774H152.38V765.661C152.38 762.312 150.595 760.705 147.937 760.705C145.955 760.705 144.725 761.594 144.11 762.927H143.939V760.876H141.991V774H144.007V766.105Z" fill="white"/>
<path d="M315 702C315 699.239 317.239 697 320 697H565C567.761 697 570 699.239 570 702V795C570 797.761 567.761 800 565 800H320C317.239 800 315 797.761 315 795V702Z" fill="#F7931A"/>
<path d="M352.601 731.251C352.601 725.526 349.046 722.263 344.407 722.263C339.742 722.263 336.213 725.526 336.213 731.251C336.213 736.95 339.742 740.239 344.407 740.239C349.046 740.239 352.601 736.975 352.601 731.251ZM348.85 731.251C348.85 734.959 347.09 736.967 344.407 736.967C341.716 736.967 339.964 734.959 339.964 731.251C339.964 727.543 341.716 725.535 344.407 725.535C347.09 725.535 348.85 727.543 348.85 731.251ZM363.689 734.412C363.697 736.172 362.493 737.095 361.185 737.095C359.81 737.095 358.921 736.13 358.913 734.583V726.876H355.273V735.232C355.281 738.3 357.076 740.171 359.716 740.171C361.689 740.171 363.108 739.154 363.697 737.616H363.834V740H367.328V726.876H363.689V734.412ZM377.22 726.876H374.751V723.732H371.111V726.876H369.317V729.61H371.111V736.446C371.094 739.017 372.846 740.29 375.486 740.179C376.426 740.145 377.092 739.957 377.46 739.838L376.887 737.129C376.708 737.163 376.323 737.249 375.981 737.249C375.255 737.249 374.751 736.975 374.751 735.967V729.61H377.22V726.876ZM379.591 744.921H383.231V737.898H383.342C383.846 738.992 384.948 740.214 387.067 740.214C390.058 740.214 392.39 737.847 392.39 733.455C392.39 728.944 389.955 726.705 387.076 726.705C384.88 726.705 383.829 728.013 383.342 729.081H383.18V726.876H379.591V744.921ZM383.154 733.438C383.154 731.097 384.145 729.602 385.914 729.602C387.717 729.602 388.674 731.165 388.674 733.438C388.674 735.728 387.7 737.317 385.914 737.317C384.162 737.317 383.154 735.779 383.154 733.438ZM403.233 734.412C403.241 736.172 402.036 737.095 400.729 737.095C399.354 737.095 398.465 736.13 398.457 734.583V726.876H394.817V735.232C394.825 738.3 396.62 740.171 399.26 740.171C401.233 740.171 402.652 739.154 403.241 737.616H403.378V740H406.872V726.876H403.233V734.412ZM416.764 726.876H414.295V723.732H410.655V726.876H408.861V729.61H410.655V736.446C410.638 739.017 412.39 740.29 415.03 740.179C415.97 740.145 416.636 739.957 417.003 739.838L416.431 737.129C416.252 737.163 415.867 737.249 415.525 737.249C414.799 737.249 414.295 736.975 414.295 735.967V729.61H416.764V726.876ZM424.67 740H437.144V736.975H429.796V736.856L432.351 734.352C435.948 731.071 436.913 729.431 436.913 727.44C436.913 724.407 434.435 722.263 430.685 722.263C427.011 722.263 424.49 724.458 424.499 727.893H428.01C428.002 726.218 429.061 725.193 430.659 725.193C432.197 725.193 433.342 726.15 433.342 727.688C433.342 729.081 432.487 730.038 430.898 731.567L424.67 737.334V740Z" fill="white"/>
<path d="M336.401 770.412H344.638V774H346.654V770.412H349.046V768.532H346.654V756.502H344.091L336.401 768.669V770.412ZM344.638 768.532H338.691V768.395L344.501 759.202H344.638V768.532ZM359.323 774H361.271V771.984H361.51C361.954 772.701 362.809 774.273 365.338 774.273C368.619 774.273 370.908 771.642 370.908 767.472C370.908 763.337 368.619 760.705 365.304 760.705C362.74 760.705 361.954 762.278 361.51 762.961H361.339V756.502H359.323V774ZM361.305 767.438C361.305 764.499 362.604 762.517 365.064 762.517C367.628 762.517 368.892 764.67 368.892 767.438C368.892 770.241 367.593 772.462 365.064 772.462C362.638 772.462 361.305 770.412 361.305 767.438ZM373.993 774H376.009V760.876H373.993V774ZM375.018 758.689C375.804 758.689 376.454 758.074 376.454 757.322C376.454 756.57 375.804 755.955 375.018 755.955C374.232 755.955 373.583 756.57 373.583 757.322C373.583 758.074 374.232 758.689 375.018 758.689ZM385.41 760.876H382.607V757.732H380.591V760.876H378.609V762.585H380.591V770.787C380.591 773.077 382.436 774.171 384.145 774.171C384.897 774.171 385.376 774.034 385.649 773.932L385.239 772.12C385.068 772.154 384.795 772.223 384.35 772.223C383.462 772.223 382.607 771.949 382.607 770.241V762.585H385.41V760.876ZM393.633 774.273C396.538 774.273 398.452 772.496 398.794 770.172H396.778C396.402 771.608 395.206 772.462 393.633 772.462C391.241 772.462 389.703 770.48 389.703 767.438C389.703 764.465 391.275 762.517 393.633 762.517C395.411 762.517 396.47 763.61 396.778 764.807H398.794C398.452 762.346 396.368 760.705 393.599 760.705C390.045 760.705 387.687 763.508 387.687 767.507C387.687 771.437 389.942 774.273 393.633 774.273ZM407.073 774.273C410.628 774.273 413.02 771.573 413.02 767.507C413.02 763.405 410.628 760.705 407.073 760.705C403.519 760.705 401.127 763.405 401.127 767.507C401.127 771.573 403.519 774.273 407.073 774.273ZM407.073 772.462C404.373 772.462 403.143 770.138 403.143 767.507C403.143 764.875 404.373 762.517 407.073 762.517C409.773 762.517 411.003 764.875 411.003 767.507C411.003 770.138 409.773 772.462 407.073 772.462ZM416.098 774H418.114V760.876H416.098V774ZM417.123 758.689C417.909 758.689 418.559 758.074 418.559 757.322C418.559 756.57 417.909 755.955 417.123 755.955C416.337 755.955 415.688 756.57 415.688 757.322C415.688 758.074 416.337 758.689 417.123 758.689ZM423.824 766.105C423.824 763.816 425.242 762.517 427.173 762.517C429.044 762.517 430.181 763.739 430.181 765.798V774H432.197V765.661C432.197 762.312 430.411 760.705 427.754 760.705C425.772 760.705 424.541 761.594 423.926 762.927H423.755V760.876H421.807V774H423.824V766.105Z" fill="white"/>
<rect x="21" y="283" width="568" height="536" rx="4" stroke="black" stroke-width="2" stroke-dasharray="5 5"/>
<path d="M428.939 871.061C429.525 871.646 430.475 871.646 431.061 871.061L440.607 861.515C441.192 860.929 441.192 859.979 440.607 859.393C440.021 858.808 439.071 858.808 438.485 859.393L430 867.879L421.515 859.393C420.929 858.808 419.979 858.808 419.393 859.393C418.808 859.979 418.808 860.929 419.393 861.515L428.939 871.061ZM428.5 840V870H431.5V840H428.5Z" fill="#F2994A"/>
<path d="M181.061 871.061C180.475 871.646 179.525 871.646 178.939 871.061L169.393 861.515C168.808 860.929 168.808 859.979 169.393 859.393C169.979 858.808 170.929 858.808 171.515 859.393L180 867.879L188.485 859.393C189.071 858.808 190.021 858.808 190.607 859.393C191.192 859.979 191.192 860.929 190.607 861.515L181.061 871.061ZM181.5 840V870H178.5V840H181.5Z" fill="#BB6BD9"/>
<path d="M51.0133 920.534H54.559C54.5078 917.416 51.9446 915.263 48.0485 915.263C44.2122 915.263 41.4012 917.382 41.4183 920.56C41.4098 923.14 43.2296 924.618 46.1859 925.327L48.0912 925.806C49.9965 926.267 51.056 926.814 51.0645 927.993C51.056 929.275 49.8427 930.146 47.963 930.146C46.0406 930.146 44.6565 929.258 44.5369 927.506H40.9569C41.0509 931.291 43.7594 933.248 48.0058 933.248C52.2778 933.248 54.7897 931.206 54.7983 928.002C54.7897 925.088 52.5939 923.542 49.5522 922.858L47.9801 922.482C46.4593 922.132 45.1862 921.568 45.2119 920.312C45.2119 919.184 46.2115 918.356 48.0228 918.356C49.7915 918.356 50.8766 919.159 51.0133 920.534ZM63.1992 933.256C66.4459 933.256 68.6332 931.676 69.1458 929.241L65.7795 929.018C65.4121 930.018 64.4722 930.539 63.259 930.539C61.4391 930.539 60.2857 929.335 60.2857 927.378V927.369H69.2227V926.37C69.2227 921.91 66.5228 919.705 63.0539 919.705C59.192 919.705 56.6886 922.448 56.6886 926.498C56.6886 930.659 59.1579 933.256 63.1992 933.256ZM60.2857 925.114C60.3626 923.619 61.4989 922.422 63.1137 922.422C64.6944 922.422 65.788 923.55 65.7966 925.114H60.2857ZM75.2377 925.413C75.2463 923.721 76.2545 922.73 77.724 922.73C79.1851 922.73 80.0651 923.687 80.0566 925.293V933H83.6963V924.644C83.6963 921.585 81.9021 919.705 79.168 919.705C77.2199 919.705 75.8102 920.662 75.2206 922.192H75.0668V919.876H71.598V933H75.2377V925.413ZM91.4009 933.214C93.5198 933.214 94.622 931.992 95.1261 930.898H95.2799V933H98.8684V915.502H95.2372V922.081H95.1261C94.6391 921.013 93.5882 919.705 91.3924 919.705C88.513 919.705 86.078 921.944 86.078 926.455C86.078 930.847 88.4105 933.214 91.4009 933.214ZM92.5543 930.317C90.7686 930.317 89.7946 928.728 89.7946 926.438C89.7946 924.165 90.7516 922.602 92.5543 922.602C94.323 922.602 95.3141 924.097 95.3141 926.438C95.3141 928.779 94.3059 930.317 92.5543 930.317ZM107.842 933.256C111.088 933.256 113.276 931.676 113.788 929.241L110.422 929.018C110.055 930.018 109.115 930.539 107.902 930.539C106.082 930.539 104.928 929.335 104.928 927.378V927.369H113.865V926.37C113.865 921.91 111.165 919.705 107.697 919.705C103.835 919.705 101.331 922.448 101.331 926.498C101.331 930.659 103.8 933.256 107.842 933.256ZM104.928 925.114C105.005 923.619 106.141 922.422 107.756 922.422C109.337 922.422 110.431 923.55 110.439 925.114H104.928ZM116.241 933H119.88V925.575C119.889 923.969 121.051 922.867 122.52 922.867C123.016 922.867 123.418 923.003 123.759 923.174L124.853 920.167C124.374 919.876 123.759 919.688 123.059 919.688C121.581 919.688 120.384 920.543 119.906 922.166H119.769V919.876H116.241V933ZM134.713 933H138.558L140.813 924.746H140.976L143.231 933H147.085L150.647 919.876H146.973L144.974 928.643H144.863L142.71 919.876H139.096L136.977 928.694H136.857L134.824 919.876H131.141L134.713 933ZM156.331 933.248C158.271 933.248 159.527 932.402 160.168 931.18H160.27V933H163.722V924.148C163.722 921.021 161.073 919.705 158.151 919.705C155.007 919.705 152.939 921.209 152.435 923.602L155.802 923.875C156.049 923.003 156.827 922.363 158.134 922.363C159.373 922.363 160.082 922.986 160.082 924.063V924.114C160.082 924.96 159.185 925.071 156.904 925.293C154.306 925.533 151.974 926.404 151.974 929.335C151.974 931.932 153.828 933.248 156.331 933.248ZM157.374 930.736C156.254 930.736 155.451 930.215 155.451 929.215C155.451 928.19 156.297 927.686 157.579 927.506C158.373 927.395 159.672 927.207 160.108 926.917V928.309C160.108 929.685 158.971 930.736 157.374 930.736ZM170.185 915.502H166.546V933H170.185V915.502ZM176.741 915.502H173.101V933H176.741V915.502ZM185.637 933.256C188.884 933.256 191.071 931.676 191.584 929.241L188.218 929.018C187.85 930.018 186.91 930.539 185.697 930.539C183.877 930.539 182.724 929.335 182.724 927.378V927.369H191.661V926.37C191.661 921.91 188.961 919.705 185.492 919.705C181.63 919.705 179.127 922.448 179.127 926.498C179.127 930.659 181.596 933.256 185.637 933.256ZM182.724 925.114C182.801 923.619 183.937 922.422 185.552 922.422C187.133 922.422 188.226 923.55 188.235 925.114H182.724ZM201.017 919.876H198.547V916.732H194.908V919.876H193.113V922.61H194.908V929.446C194.891 932.017 196.642 933.29 199.282 933.179C200.222 933.145 200.888 932.957 201.256 932.838L200.683 930.129C200.504 930.163 200.119 930.249 199.778 930.249C199.051 930.249 198.547 929.975 198.547 928.967V922.61H201.017V919.876Z" fill="black"/>
<path d="M40 964C40 961.239 42.2386 959 45 959H265C267.761 959 270 961.239 270 964V1057C270 1059.76 267.761 1062 265 1062H45C42.2386 1062 40 1059.76 40 1057V964Z" fill="#BB6BD9"/>
<path d="M76.9599 990.628C76.4729 986.587 73.4141 984.263 69.3643 984.263C64.7419 984.263 61.2133 987.526 61.2133 993.251C61.2133 998.958 64.6821 1002.24 69.3643 1002.24C73.8499 1002.24 76.5583 999.257 76.9599 996.036L73.2176 996.019C72.8673 997.89 71.3977 998.967 69.4241 998.967C66.7669 998.967 64.9641 996.993 64.9641 993.251C64.9641 989.611 66.7412 987.535 69.4497 987.535C71.4746 987.535 72.9357 988.705 73.2176 990.628H76.9599ZM83.1842 994.413C83.1928 992.721 84.2266 991.73 85.7133 991.73C87.1914 991.73 88.0629 992.678 88.0543 994.293V1002H91.6941V993.644C91.7026 990.568 89.8913 988.705 87.1572 988.705C85.1664 988.705 83.8336 989.645 83.2355 991.192H83.0817V984.502H79.5445V1002H83.1842V994.413ZM98.3008 1002.25C100.24 1002.25 101.496 1001.4 102.137 1000.18H102.24V1002H105.691V993.148C105.691 990.021 103.043 988.705 100.121 988.705C96.9764 988.705 94.9088 990.209 94.4047 992.602L97.771 992.875C98.0188 992.003 98.7963 991.363 100.104 991.363C101.342 991.363 102.052 991.986 102.052 993.063V993.114C102.052 993.96 101.154 994.071 98.8732 994.293C96.2758 994.533 93.9433 995.404 93.9433 998.335C93.9433 1000.93 95.7974 1002.25 98.3008 1002.25ZM99.3431 999.736C98.2239 999.736 97.4207 999.215 97.4207 998.215C97.4207 997.19 98.2666 996.686 99.5482 996.506C100.343 996.395 101.641 996.207 102.077 995.917V997.309C102.077 998.685 100.941 999.736 99.3431 999.736ZM112.155 994.413C112.163 992.721 113.172 991.73 114.641 991.73C116.102 991.73 116.982 992.687 116.974 994.293V1002H120.614V993.644C120.614 990.585 118.819 988.705 116.085 988.705C114.137 988.705 112.727 989.662 112.138 991.192H111.984V988.876H108.515V1002H112.155V994.413ZM129.395 1007.11C133.145 1007.11 135.811 1005.4 135.811 1002.13V988.876H132.197V991.081H132.06C131.573 990.013 130.505 988.705 128.31 988.705C125.43 988.705 122.995 990.944 122.995 995.413C122.995 999.779 125.362 1001.81 128.318 1001.81C130.411 1001.81 131.582 1000.76 132.06 999.676H132.214V1002.08C132.214 1003.79 131.061 1004.49 129.48 1004.49C127.874 1004.49 127.062 1003.79 126.763 1003.09L123.397 1003.54C123.832 1005.52 125.857 1007.11 129.395 1007.11ZM129.472 999.078C127.686 999.078 126.712 997.66 126.712 995.395C126.712 993.165 127.669 991.602 129.472 991.602C131.24 991.602 132.231 993.097 132.231 995.395C132.231 997.711 131.223 999.078 129.472 999.078ZM144.688 1002.26C147.935 1002.26 150.122 1000.68 150.635 998.241L147.269 998.018C146.901 999.018 145.962 999.539 144.748 999.539C142.928 999.539 141.775 998.335 141.775 996.378V996.369H150.712V995.37C150.712 990.91 148.012 988.705 144.543 988.705C140.681 988.705 138.178 991.448 138.178 995.498C138.178 999.659 140.647 1002.26 144.688 1002.26ZM141.775 994.114C141.852 992.619 142.988 991.422 144.603 991.422C146.184 991.422 147.277 992.55 147.286 994.114H141.775ZM164.585 1002.26C168.567 1002.26 171.045 999.531 171.045 995.489C171.045 991.422 168.567 988.705 164.585 988.705C160.604 988.705 158.126 991.422 158.126 995.489C158.126 999.531 160.604 1002.26 164.585 1002.26ZM164.602 999.437C162.765 999.437 161.826 997.754 161.826 995.464C161.826 993.174 162.765 991.482 164.602 991.482C166.405 991.482 167.345 993.174 167.345 995.464C167.345 997.754 166.405 999.437 164.602 999.437ZM181.827 996.412C181.836 998.172 180.631 999.095 179.324 999.095C177.948 999.095 177.06 998.13 177.051 996.583V988.876H173.411V997.232C173.42 1000.3 175.214 1002.17 177.854 1002.17C179.828 1002.17 181.246 1001.15 181.836 999.616H181.972V1002H185.467V988.876H181.827V996.412ZM195.359 988.876H192.89V985.732H189.25V988.876H187.456V991.61H189.25V998.446C189.233 1001.02 190.984 1002.29 193.624 1002.18C194.564 1002.15 195.231 1001.96 195.598 1001.84L195.026 999.129C194.846 999.163 194.462 999.249 194.12 999.249C193.394 999.249 192.89 998.975 192.89 997.967V991.61H195.359V988.876ZM197.73 1006.92H201.37V999.898H201.481C201.985 1000.99 203.087 1002.21 205.206 1002.21C208.196 1002.21 210.529 999.847 210.529 995.455C210.529 990.944 208.094 988.705 205.214 988.705C203.019 988.705 201.968 990.013 201.481 991.081H201.318V988.876H197.73V1006.92ZM201.293 995.438C201.293 993.097 202.284 991.602 204.052 991.602C205.855 991.602 206.812 993.165 206.812 995.438C206.812 997.728 205.838 999.317 204.052 999.317C202.301 999.317 201.293 997.779 201.293 995.438ZM221.371 996.412C221.38 998.172 220.175 999.095 218.868 999.095C217.492 999.095 216.604 998.13 216.595 996.583V988.876H212.955V997.232C212.964 1000.3 214.758 1002.17 217.398 1002.17C219.372 1002.17 220.79 1001.15 221.38 999.616H221.516V1002H225.011V988.876H221.371V996.412ZM234.903 988.876H232.434V985.732H228.794V988.876H227V991.61H228.794V998.446C228.777 1001.02 230.528 1002.29 233.168 1002.18C234.108 1002.15 234.775 1001.96 235.142 1001.84L234.57 999.129C234.39 999.163 234.006 999.249 233.664 999.249C232.938 999.249 232.434 998.975 232.434 997.967V991.61H234.903V988.876Z" fill="white"/>
<path d="M67.4162 1018.5H65.5365C65.4255 1018.68 64.1695 1021.1 61.4696 1021.1V1022.88C63.4774 1022.88 64.9128 1022.06 65.1606 1021.58H65.2973V1036H67.4162V1018.5ZM79.506 1036H81.4541V1033.98H81.6933C82.1376 1034.7 82.992 1036.27 85.521 1036.27C88.8019 1036.27 91.0917 1033.64 91.0917 1029.47C91.0917 1025.34 88.8019 1022.71 85.4869 1022.71C82.9236 1022.71 82.1376 1024.28 81.6933 1024.96H81.5224V1018.5H79.506V1036ZM81.4882 1029.44C81.4882 1026.5 82.7869 1024.52 85.2476 1024.52C87.8108 1024.52 89.0753 1026.67 89.0753 1029.44C89.0753 1032.24 87.7767 1034.46 85.2476 1034.46C82.8211 1034.46 81.4882 1032.41 81.4882 1029.44ZM94.1761 1036H96.1925V1022.88H94.1761V1036ZM95.2014 1020.69C95.9875 1020.69 96.6368 1020.07 96.6368 1019.32C96.6368 1018.57 95.9875 1017.96 95.2014 1017.96C94.4154 1017.96 93.766 1018.57 93.766 1019.32C93.766 1020.07 94.4154 1020.69 95.2014 1020.69ZM105.593 1022.88H102.791V1019.73H100.774V1022.88H98.792V1024.59H100.774V1032.79C100.774 1035.08 102.62 1036.17 104.329 1036.17C105.08 1036.17 105.559 1036.03 105.832 1035.93L105.422 1034.12C105.251 1034.15 104.978 1034.22 104.534 1034.22C103.645 1034.22 102.791 1033.95 102.791 1032.24V1024.59H105.593V1022.88ZM113.817 1036.27C116.722 1036.27 118.636 1034.5 118.977 1032.17H116.961C116.585 1033.61 115.389 1034.46 113.817 1034.46C111.424 1034.46 109.886 1032.48 109.886 1029.44C109.886 1026.46 111.459 1024.52 113.817 1024.52C115.594 1024.52 116.653 1025.61 116.961 1026.81H118.977C118.636 1024.35 116.551 1022.71 113.783 1022.71C110.228 1022.71 107.87 1025.51 107.87 1029.51C107.87 1033.44 110.126 1036.27 113.817 1036.27ZM127.256 1036.27C130.811 1036.27 133.203 1033.57 133.203 1029.51C133.203 1025.41 130.811 1022.71 127.256 1022.71C123.702 1022.71 121.31 1025.41 121.31 1029.51C121.31 1033.57 123.702 1036.27 127.256 1036.27ZM127.256 1034.46C124.557 1034.46 123.326 1032.14 123.326 1029.51C123.326 1026.87 124.557 1024.52 127.256 1024.52C129.956 1024.52 131.187 1026.87 131.187 1029.51C131.187 1032.14 129.956 1034.46 127.256 1034.46ZM136.281 1036H138.298V1022.88H136.281V1036ZM137.306 1020.69C138.092 1020.69 138.742 1020.07 138.742 1019.32C138.742 1018.57 138.092 1017.96 137.306 1017.96C136.52 1017.96 135.871 1018.57 135.871 1019.32C135.871 1020.07 136.52 1020.69 137.306 1020.69ZM144.007 1028.11C144.007 1025.82 145.425 1024.52 147.356 1024.52C149.227 1024.52 150.364 1025.74 150.364 1027.8V1036H152.38V1027.66C152.38 1024.31 150.595 1022.71 147.937 1022.71C145.955 1022.71 144.725 1023.59 144.11 1024.93H143.939V1022.88H141.991V1036H144.007V1028.11Z" fill="white"/>
<rect x="21" y="891" width="268" height="190" rx="4" stroke="#333333" stroke-width="2"/>
<path d="M341.521 933H345.22V926.797H347.92L351.235 933H355.319L351.603 926.199C353.594 925.345 354.696 923.61 354.696 921.218C354.696 917.74 352.397 915.502 348.424 915.502H341.521V933ZM345.22 923.824V918.526H347.715C349.851 918.526 350.885 919.475 350.885 921.218C350.885 922.952 349.851 923.824 347.732 923.824H345.22ZM363.011 933.256C366.258 933.256 368.445 931.676 368.958 929.241L365.592 929.018C365.224 930.018 364.284 930.539 363.071 930.539C361.251 930.539 360.098 929.335 360.098 927.378V927.369H369.035V926.37C369.035 921.91 366.335 919.705 362.866 919.705C359.004 919.705 356.501 922.448 356.501 926.498C356.501 930.659 358.97 933.256 363.011 933.256ZM360.098 925.114C360.175 923.619 361.311 922.422 362.926 922.422C364.506 922.422 365.6 923.55 365.609 925.114H360.098ZM377.34 933.256C380.834 933.256 383.03 931.206 383.201 928.19H379.766C379.552 929.591 378.63 930.377 377.382 930.377C375.682 930.377 374.58 928.95 374.58 926.438C374.58 923.96 375.691 922.542 377.382 922.542C378.715 922.542 379.57 923.422 379.766 924.729H383.201C383.047 921.696 380.749 919.705 377.322 919.705C373.341 919.705 370.88 922.465 370.88 926.489C370.88 930.48 373.298 933.256 377.34 933.256ZM391.512 933.256C394.759 933.256 396.946 931.676 397.459 929.241L394.092 929.018C393.725 930.018 392.785 930.539 391.572 930.539C389.752 930.539 388.598 929.335 388.598 927.378V927.369H397.536V926.37C397.536 921.91 394.836 919.705 391.367 919.705C387.505 919.705 385.001 922.448 385.001 926.498C385.001 930.659 387.471 933.256 391.512 933.256ZM388.598 925.114C388.675 923.619 389.812 922.422 391.427 922.422C393.007 922.422 394.101 923.55 394.109 925.114H388.598ZM399.911 933H403.551V919.876H399.911V933ZM401.739 918.185C402.824 918.185 403.713 917.356 403.713 916.339C403.713 915.331 402.824 914.502 401.739 914.502C400.663 914.502 399.774 915.331 399.774 916.339C399.774 917.356 400.663 918.185 401.739 918.185ZM418.701 919.876H414.848L412.131 929.266H411.994L409.269 919.876H405.424L410.012 933H414.113L418.701 919.876ZM426.098 933.256C429.345 933.256 431.532 931.676 432.045 929.241L428.679 929.018C428.311 930.018 427.371 930.539 426.158 930.539C424.338 930.539 423.185 929.335 423.185 927.378V927.369H432.122V926.37C432.122 921.91 429.422 919.705 425.953 919.705C422.091 919.705 419.588 922.448 419.588 926.498C419.588 930.659 422.057 933.256 426.098 933.256ZM423.185 925.114C423.262 923.619 424.398 922.422 426.013 922.422C427.593 922.422 428.687 923.55 428.696 925.114H423.185ZM434.497 933H438.137V925.575C438.145 923.969 439.307 922.867 440.777 922.867C441.272 922.867 441.674 923.003 442.016 923.174L443.109 920.167C442.631 919.876 442.016 919.688 441.315 919.688C439.837 919.688 438.641 920.543 438.162 922.166H438.026V919.876H434.497V933ZM452.969 933H456.814L459.07 924.746H459.232L461.488 933H465.341L468.904 919.876H465.23L463.231 928.643H463.12L460.966 919.876H457.352L455.233 928.694H455.114L453.08 919.876H449.398L452.969 933ZM474.588 933.248C476.527 933.248 477.783 932.402 478.424 931.18H478.527V933H481.978V924.148C481.978 921.021 479.33 919.705 476.408 919.705C473.263 919.705 471.196 921.209 470.692 923.602L474.058 923.875C474.306 923.003 475.083 922.363 476.391 922.363C477.629 922.363 478.339 922.986 478.339 924.063V924.114C478.339 924.96 477.441 925.071 475.16 925.293C472.563 925.533 470.23 926.404 470.23 929.335C470.23 931.932 472.084 933.248 474.588 933.248ZM475.63 930.736C474.511 930.736 473.708 930.215 473.708 929.215C473.708 928.19 474.554 927.686 475.835 927.506C476.63 927.395 477.928 927.207 478.364 926.917V928.309C478.364 929.685 477.228 930.736 475.63 930.736ZM488.442 915.502H484.802V933H488.442V915.502ZM494.997 915.502H491.358V933H494.997V915.502ZM503.894 933.256C507.141 933.256 509.328 931.676 509.84 929.241L506.474 929.018C506.107 930.018 505.167 930.539 503.954 930.539C502.134 930.539 500.98 929.335 500.98 927.378V927.369H509.917V926.37C509.917 921.91 507.217 919.705 503.749 919.705C499.887 919.705 497.383 922.448 497.383 926.498C497.383 930.659 499.852 933.256 503.894 933.256ZM500.98 925.114C501.057 923.619 502.194 922.422 503.808 922.422C505.389 922.422 506.483 923.55 506.491 925.114H500.98ZM519.273 919.876H516.804V916.732H513.164V919.876H511.37V922.61H513.164V929.446C513.147 932.017 514.899 933.29 517.539 933.179C518.478 933.145 519.145 932.957 519.512 932.838L518.94 930.129C518.76 930.163 518.376 930.249 518.034 930.249C517.308 930.249 516.804 929.975 516.804 928.967V922.61H519.273V919.876Z" fill="black"/>
<path d="M340 964C340 961.239 342.239 959 345 959H565C567.761 959 570 961.239 570 964V1057C570 1059.76 567.761 1062 565 1062H345C342.239 1062 340 1059.76 340 1057V964Z" fill="#F7931A"/>
<path d="M377.601 993.251C377.601 987.526 374.046 984.263 369.407 984.263C364.742 984.263 361.213 987.526 361.213 993.251C361.213 998.95 364.742 1002.24 369.407 1002.24C374.046 1002.24 377.601 998.975 377.601 993.251ZM373.85 993.251C373.85 996.959 372.09 998.967 369.407 998.967C366.716 998.967 364.964 996.959 364.964 993.251C364.964 989.543 366.716 987.535 369.407 987.535C372.09 987.535 373.85 989.543 373.85 993.251ZM388.689 996.412C388.697 998.172 387.493 999.095 386.185 999.095C384.81 999.095 383.921 998.13 383.913 996.583V988.876H380.273V997.232C380.281 1000.3 382.076 1002.17 384.716 1002.17C386.689 1002.17 388.108 1001.15 388.697 999.616H388.834V1002H392.328V988.876H388.689V996.412ZM402.22 988.876H399.751V985.732H396.111V988.876H394.317V991.61H396.111V998.446C396.094 1001.02 397.846 1002.29 400.486 1002.18C401.426 1002.15 402.092 1001.96 402.46 1001.84L401.887 999.129C401.708 999.163 401.323 999.249 400.981 999.249C400.255 999.249 399.751 998.975 399.751 997.967V991.61H402.22V988.876ZM404.591 1006.92H408.231V999.898H408.342C408.846 1000.99 409.948 1002.21 412.067 1002.21C415.058 1002.21 417.39 999.847 417.39 995.455C417.39 990.944 414.955 988.705 412.076 988.705C409.88 988.705 408.829 990.013 408.342 991.081H408.18V988.876H404.591V1006.92ZM408.154 995.438C408.154 993.097 409.145 991.602 410.914 991.602C412.717 991.602 413.674 993.165 413.674 995.438C413.674 997.728 412.7 999.317 410.914 999.317C409.162 999.317 408.154 997.779 408.154 995.438ZM428.233 996.412C428.241 998.172 427.036 999.095 425.729 999.095C424.354 999.095 423.465 998.13 423.457 996.583V988.876H419.817V997.232C419.825 1000.3 421.62 1002.17 424.26 1002.17C426.233 1002.17 427.652 1001.15 428.241 999.616H428.378V1002H431.872V988.876H428.233V996.412ZM441.764 988.876H439.295V985.732H435.655V988.876H433.861V991.61H435.655V998.446C435.638 1001.02 437.39 1002.29 440.03 1002.18C440.97 1002.15 441.636 1001.96 442.003 1001.84L441.431 999.129C441.252 999.163 440.867 999.249 440.525 999.249C439.799 999.249 439.295 998.975 439.295 997.967V991.61H441.764V988.876ZM449.67 1002H462.144V998.975H454.796V998.856L457.351 996.352C460.948 993.071 461.913 991.431 461.913 989.44C461.913 986.407 459.435 984.263 455.685 984.263C452.011 984.263 449.49 986.458 449.499 989.893H453.01C453.002 988.218 454.061 987.193 455.659 987.193C457.197 987.193 458.342 988.15 458.342 989.688C458.342 991.081 457.487 992.038 455.898 993.567L449.67 999.334V1002Z" fill="white"/>
<path d="M361.401 1032.41H369.638V1036H371.654V1032.41H374.046V1030.53H371.654V1018.5H369.091L361.401 1030.67V1032.41ZM369.638 1030.53H363.691V1030.4L369.501 1021.2H369.638V1030.53ZM384.323 1036H386.271V1033.98H386.51C386.954 1034.7 387.809 1036.27 390.338 1036.27C393.619 1036.27 395.908 1033.64 395.908 1029.47C395.908 1025.34 393.619 1022.71 390.304 1022.71C387.74 1022.71 386.954 1024.28 386.51 1024.96H386.339V1018.5H384.323V1036ZM386.305 1029.44C386.305 1026.5 387.604 1024.52 390.064 1024.52C392.628 1024.52 393.892 1026.67 393.892 1029.44C393.892 1032.24 392.593 1034.46 390.064 1034.46C387.638 1034.46 386.305 1032.41 386.305 1029.44ZM398.993 1036H401.009V1022.88H398.993V1036ZM400.018 1020.69C400.804 1020.69 401.454 1020.07 401.454 1019.32C401.454 1018.57 400.804 1017.96 400.018 1017.96C399.232 1017.96 398.583 1018.57 398.583 1019.32C398.583 1020.07 399.232 1020.69 400.018 1020.69ZM410.41 1022.88H407.607V1019.73H405.591V1022.88H403.609V1024.59H405.591V1032.79C405.591 1035.08 407.436 1036.17 409.145 1036.17C409.897 1036.17 410.376 1036.03 410.649 1035.93L410.239 1034.12C410.068 1034.15 409.795 1034.22 409.35 1034.22C408.462 1034.22 407.607 1033.95 407.607 1032.24V1024.59H410.41V1022.88ZM418.633 1036.27C421.538 1036.27 423.452 1034.5 423.794 1032.17H421.778C421.402 1033.61 420.206 1034.46 418.633 1034.46C416.241 1034.46 414.703 1032.48 414.703 1029.44C414.703 1026.46 416.275 1024.52 418.633 1024.52C420.411 1024.52 421.47 1025.61 421.778 1026.81H423.794C423.452 1024.35 421.368 1022.71 418.599 1022.71C415.045 1022.71 412.687 1025.51 412.687 1029.51C412.687 1033.44 414.942 1036.27 418.633 1036.27ZM432.073 1036.27C435.628 1036.27 438.02 1033.57 438.02 1029.51C438.02 1025.41 435.628 1022.71 432.073 1022.71C428.519 1022.71 426.127 1025.41 426.127 1029.51C426.127 1033.57 428.519 1036.27 432.073 1036.27ZM432.073 1034.46C429.373 1034.46 428.143 1032.14 428.143 1029.51C428.143 1026.87 429.373 1024.52 432.073 1024.52C434.773 1024.52 436.003 1026.87 436.003 1029.51C436.003 1032.14 434.773 1034.46 432.073 1034.46ZM441.098 1036H443.114V1022.88H441.098V1036ZM442.123 1020.69C442.909 1020.69 443.559 1020.07 443.559 1019.32C443.559 1018.57 442.909 1017.96 442.123 1017.96C441.337 1017.96 440.688 1018.57 440.688 1019.32C440.688 1020.07 441.337 1020.69 442.123 1020.69ZM448.824 1028.11C448.824 1025.82 450.242 1024.52 452.173 1024.52C454.044 1024.52 455.181 1025.74 455.181 1027.8V1036H457.197V1027.66C457.197 1024.31 455.411 1022.71 452.754 1022.71C450.772 1022.71 449.541 1023.59 448.926 1024.93H448.755V1022.88H446.807V1036H448.824V1028.11Z" fill="white"/>
<rect x="321" y="891" width="268" height="190" rx="4" stroke="#333333" stroke-width="2"/>
</svg>
