<svg width="600" height="980" viewBox="0 0 600 980" fill="none" xmlns="http://www.w3.org/2000/svg">
<path d="M600 0H0V980H600V0Z" fill="white"/>
<path d="M545 218.594H55C52.7909 218.594 51 220.239 51 222.268V276.457C51 278.486 52.7909 280.131 55 280.131H545C547.209 280.131 549 278.486 549 276.457V222.268C549 220.239 547.209 218.594 545 218.594Z" fill="white"/>
<path d="M545 338.913H55C52.7909 338.913 51 340.558 51 342.587V396.776C51 398.805 52.7909 400.45 55 400.45H545C547.209 400.45 549 398.805 549 396.776V342.587C549 340.558 547.209 338.913 545 338.913Z" fill="white"/>
<path d="M545 643.843H55C52.7909 643.843 51 645.487 51 647.516V701.706C51 703.735 52.7909 705.38 55 705.38H545C547.209 705.38 549 703.735 549 701.706V647.516C549 645.487 547.209 643.843 545 643.843Z" fill="white"/>
<path d="M545 884.48H55C52.7909 884.48 51 886.125 51 888.154V942.343C51 944.372 52.7909 946.017 55 946.017H545C547.209 946.017 549 944.372 549 942.343V888.154C549 886.125 547.209 884.48 545 884.48Z" fill="white"/>
<path d="M52.1378 63H54.9055V58.3594H56.9254L59.4055 63H62.4609L59.6804 57.9119C61.1697 57.2727 61.9943 55.9751 61.9943 54.1854C61.9943 51.5838 60.2749 49.9091 57.3026 49.9091H52.1378V63ZM54.9055 56.1349V52.1719H56.772C58.37 52.1719 59.1435 52.8814 59.1435 54.1854C59.1435 55.483 58.37 56.1349 56.7848 56.1349H54.9055ZM63.9503 63H72.7969V60.718H66.718V57.5923H72.3175V55.3104H66.718V52.1911H72.7713V49.9091H63.9503V63ZM86.5222 54.4922C86.1578 51.4688 83.8695 49.7301 80.8397 49.7301C77.3816 49.7301 74.7417 52.1719 74.7417 56.4545C74.7417 60.7244 77.3368 63.179 80.8397 63.179C84.1955 63.179 86.2218 60.9482 86.5222 58.5384L83.7225 58.5256C83.4604 59.9254 82.361 60.7308 80.8844 60.7308C78.8965 60.7308 77.5478 59.2543 77.5478 56.4545C77.5478 53.7315 78.8773 52.1783 80.9036 52.1783C82.4185 52.1783 83.5115 53.054 83.7225 54.4922H86.5222ZM91.2747 49.9091H88.5069V63H91.2747V49.9091ZM93.5518 63H96.3196V58.7557H98.6463C101.657 58.7557 103.408 56.9595 103.408 54.3452C103.408 51.7436 101.689 49.9091 98.7166 49.9091H93.5518V63ZM96.3196 56.5376V52.1719H98.1861C99.7841 52.1719 100.558 53.0412 100.558 54.3452C100.558 55.6428 99.7841 56.5376 98.1989 56.5376H96.3196ZM107.974 49.9091H105.206V63H107.974V49.9091ZM110.251 63H119.098V60.718H113.019V57.5923H118.618V55.3104H113.019V52.1911H119.072V49.9091H110.251V63ZM132.222 49.9091H129.467V58.142H129.352L123.702 49.9091H121.273V63H124.04V54.7607H124.136L129.831 63H132.222V49.9091ZM134.01 52.1911H138.018V63H140.754V52.1911H144.762V49.9091H134.01V52.1911ZM153.645 63H156.343L158.829 54.4411H158.931L161.424 63H164.122L167.867 49.9091H164.844L162.677 59.0241H162.562L160.178 49.9091H157.589L155.198 59.005H155.09L152.923 49.9091H149.899L153.645 63ZM170.269 63L171.241 60.0149H175.964L176.936 63H179.902L175.389 49.9091H171.822L167.303 63H170.269ZM171.944 57.8544L173.555 52.9006H173.657L175.268 57.8544H171.944ZM181.478 63H189.858V60.718H184.245V49.9091H181.478V63ZM191.691 63H200.07V60.718H194.458V49.9091H191.691V63ZM201.903 63H210.75V60.718H204.671V57.5923H210.271V55.3104H204.671V52.1911H210.724V49.9091H201.903V63ZM212.426 52.1911H216.434V63H219.17V52.1911H223.178V49.9091H212.426V52.1911Z" fill="black"/>
<path d="M51 82H549" stroke="#FDF1E2" stroke-width="16" stroke-linecap="round" stroke-linejoin="round"/>
<path d="M87.9176 140.656C87.4318 136.625 84.3807 134.307 80.3409 134.307C75.7301 134.307 72.2102 137.562 72.2102 143.273C72.2102 148.966 75.6705 152.239 80.3409 152.239C84.8153 152.239 87.517 149.264 87.9176 146.051L84.1847 146.034C83.8352 147.901 82.3693 148.974 80.4006 148.974C77.75 148.974 75.9517 147.006 75.9517 143.273C75.9517 139.642 77.7244 137.571 80.4261 137.571C82.446 137.571 83.9034 138.739 84.1847 140.656H87.9176ZM90.4957 152H94.1264V144.594C94.1264 142.983 95.3026 141.875 96.9048 141.875C97.4077 141.875 98.098 141.96 98.4389 142.071V138.849C98.1151 138.773 97.6634 138.722 97.2969 138.722C95.831 138.722 94.6293 139.574 94.152 141.193H94.0156V138.909H90.4957V152ZM105.673 152.256C108.911 152.256 111.093 150.679 111.604 148.25L108.246 148.028C107.88 149.026 106.942 149.545 105.732 149.545C103.917 149.545 102.766 148.344 102.766 146.392V146.384H111.681V145.386C111.681 140.938 108.988 138.739 105.528 138.739C101.675 138.739 99.1783 141.474 99.1783 145.514C99.1783 149.665 101.641 152.256 105.673 152.256ZM102.766 144.134C102.843 142.642 103.977 141.449 105.587 141.449C107.164 141.449 108.255 142.574 108.263 144.134H102.766ZM117.783 152.247C119.718 152.247 120.971 151.403 121.61 150.185H121.712V152H125.156V143.17C125.156 140.051 122.513 138.739 119.599 138.739C116.462 138.739 114.4 140.239 113.897 142.625L117.255 142.898C117.502 142.028 118.278 141.389 119.582 141.389C120.817 141.389 121.525 142.011 121.525 143.085V143.136C121.525 143.98 120.63 144.091 118.354 144.312C115.763 144.551 113.437 145.42 113.437 148.344C113.437 150.935 115.286 152.247 117.783 152.247ZM118.823 149.741C117.707 149.741 116.906 149.222 116.906 148.224C116.906 147.202 117.749 146.699 119.028 146.52C119.82 146.409 121.116 146.222 121.55 145.932V147.321C121.55 148.693 120.417 149.741 118.823 149.741ZM134.935 138.909H132.472V135.773H128.842V138.909H127.052V141.636H128.842V148.455C128.825 151.02 130.572 152.29 133.205 152.179C134.143 152.145 134.808 151.957 135.174 151.838L134.603 149.136C134.424 149.17 134.04 149.256 133.7 149.256C132.975 149.256 132.472 148.983 132.472 147.977V141.636H134.935V138.909ZM143.126 152.256C146.364 152.256 148.546 150.679 149.058 148.25L145.7 148.028C145.333 149.026 144.396 149.545 143.185 149.545C141.37 149.545 140.219 148.344 140.219 146.392V146.384H149.134V145.386C149.134 140.938 146.441 138.739 142.981 138.739C139.129 138.739 136.631 141.474 136.631 145.514C136.631 149.665 139.094 152.256 143.126 152.256ZM140.219 144.134C140.296 142.642 141.43 141.449 143.04 141.449C144.617 141.449 145.708 142.574 145.717 144.134H140.219ZM157.058 152H160.689V138.909H157.058V152ZM158.882 137.222C159.964 137.222 160.851 136.395 160.851 135.381C160.851 134.375 159.964 133.548 158.882 133.548C157.808 133.548 156.922 134.375 156.922 135.381C156.922 136.395 157.808 137.222 158.882 137.222ZM167.228 144.432C167.237 142.744 168.242 141.756 169.708 141.756C171.165 141.756 172.043 142.71 172.035 144.312V152H175.665V143.665C175.665 140.614 173.876 138.739 171.148 138.739C169.205 138.739 167.799 139.693 167.211 141.219H167.058V138.909H163.597V152H167.228V144.432ZM190.263 138.909H186.419L183.709 148.276H183.572L180.854 138.909H177.018L181.595 152H185.686L190.263 138.909ZM197.59 152.256C201.562 152.256 204.033 149.537 204.033 145.506C204.033 141.449 201.562 138.739 197.59 138.739C193.619 138.739 191.147 141.449 191.147 145.506C191.147 149.537 193.619 152.256 197.59 152.256ZM197.607 149.443C195.775 149.443 194.837 147.764 194.837 145.48C194.837 143.196 195.775 141.509 197.607 141.509C199.406 141.509 200.343 143.196 200.343 145.48C200.343 147.764 199.406 149.443 197.607 149.443ZM206.394 152H210.025V138.909H206.394V152ZM208.218 137.222C209.3 137.222 210.187 136.395 210.187 135.381C210.187 134.375 209.3 133.548 208.218 133.548C207.144 133.548 206.258 134.375 206.258 135.381C206.258 136.395 207.144 137.222 208.218 137.222ZM218.848 152.256C222.334 152.256 224.524 150.21 224.695 147.202H221.268C221.055 148.599 220.135 149.384 218.891 149.384C217.195 149.384 216.095 147.96 216.095 145.455C216.095 142.983 217.203 141.568 218.891 141.568C220.22 141.568 221.072 142.446 221.268 143.75H224.695C224.541 140.724 222.249 138.739 218.831 138.739C214.859 138.739 212.405 141.491 212.405 145.506C212.405 149.486 214.817 152.256 218.848 152.256ZM232.985 152.256C236.224 152.256 238.406 150.679 238.917 148.25L235.559 148.028C235.192 149.026 234.255 149.545 233.045 149.545C231.229 149.545 230.079 148.344 230.079 146.392V146.384H238.994V145.386C238.994 140.938 236.3 138.739 232.84 138.739C228.988 138.739 226.491 141.474 226.491 145.514C226.491 149.665 228.954 152.256 232.985 152.256ZM230.079 144.134C230.156 142.642 231.289 141.449 232.9 141.449C234.477 141.449 235.567 142.574 235.576 144.134H230.079Z" fill="black"/>
<rect x="51" y="109" width="498" height="69" rx="4" stroke="black" stroke-width="2"/>
<path d="M301.5 194C301.5 193.172 300.828 192.5 300 192.5C299.172 192.5 298.5 193.172 298.5 194H301.5ZM298.939 233.561C299.525 234.146 300.475 234.146 301.061 233.561L310.607 224.015C311.192 223.429 311.192 222.479 310.607 221.893C310.021 221.308 309.071 221.308 308.485 221.893L300 230.379L291.515 221.893C290.929 221.308 289.979 221.308 289.393 221.893C288.808 222.479 288.808 223.429 289.393 224.015L298.939 233.561ZM298.5 194V232.5H301.5V194H298.5Z" fill="black"/>
<path d="M59.2393 257.174H61.892C61.8537 254.841 59.9361 253.23 57.0213 253.23C54.1513 253.23 52.0483 254.815 52.0611 257.193C52.0547 259.124 53.4162 260.229 55.6278 260.76L57.0533 261.118C58.4787 261.463 59.2713 261.872 59.2777 262.754C59.2713 263.713 58.3636 264.365 56.9574 264.365C55.5192 264.365 54.4837 263.7 54.3942 262.39H51.7159C51.7862 265.222 53.8125 266.685 56.9893 266.685C60.1854 266.685 62.0646 265.158 62.071 262.761C62.0646 260.581 60.4219 259.424 58.1463 258.913L56.9702 258.631C55.8324 258.369 54.88 257.947 54.8991 257.008C54.8991 256.164 55.647 255.544 57.0021 255.544C58.3253 255.544 59.1371 256.145 59.2393 257.174ZM63.9327 266.5H72.7793V264.218H66.7005V261.092H72.2999V258.81H66.7005V255.691H72.7537V253.409H63.9327V266.5ZM85.9038 253.409H83.1488V261.642H83.0337L77.3832 253.409H74.9542V266.5H77.7219V258.261H77.8178L83.5131 266.5H85.9038V253.409ZM92.8311 266.5C96.8198 266.5 99.236 264.033 99.236 259.942C99.236 255.864 96.8198 253.409 92.8695 253.409H88.1905V266.5H92.8311ZM90.9583 264.129V255.781H92.7225C95.177 255.781 96.4746 257.033 96.4746 259.942C96.4746 262.863 95.177 264.129 92.7161 264.129H90.9583ZM101.286 266.5H110.133V264.218H104.054V261.092H109.653V258.81H104.054V255.691H110.107V253.409H101.286V266.5ZM112.308 266.5H115.075V261.859H117.095L119.575 266.5H122.631L119.85 261.412C121.34 260.773 122.164 259.475 122.164 257.685C122.164 255.084 120.445 253.409 117.472 253.409H112.308V266.5ZM115.075 259.635V255.672H116.942C118.54 255.672 119.313 256.381 119.313 257.685C119.313 258.983 118.54 259.635 116.955 259.635H115.075ZM131.233 266.5H133.93L136.417 257.941H136.519L139.012 266.5H141.71L145.455 253.409H142.432L140.265 262.524H140.15L137.766 253.409H135.177L132.786 262.505H132.678L130.511 253.409H127.487L131.233 266.5ZM147.857 266.5L148.829 263.515H153.552L154.524 266.5H157.49L152.977 253.409H149.41L144.891 266.5H147.857ZM149.532 261.354L151.143 256.401H151.245L152.856 261.354H149.532ZM159.066 266.5H167.445V264.218H161.833V253.409H159.066V266.5ZM169.278 266.5H177.658V264.218H172.046V253.409H169.278V266.5ZM179.491 266.5H188.338V264.218H182.259V261.092H187.858V258.81H182.259V255.691H188.312V253.409H179.491V266.5ZM190.014 255.691H194.022V266.5H196.758V255.691H200.766V253.409H190.014V255.691Z" fill="black"/>
<path d="M51 285.5H549" stroke="#FDF1E2" stroke-width="16" stroke-linecap="round" stroke-linejoin="round"/>
<path d="M87.9176 344.156C87.4318 340.125 84.3807 337.807 80.3409 337.807C75.7301 337.807 72.2102 341.062 72.2102 346.773C72.2102 352.466 75.6705 355.739 80.3409 355.739C84.8153 355.739 87.517 352.764 87.9176 349.551L84.1847 349.534C83.8352 351.401 82.3693 352.474 80.4006 352.474C77.75 352.474 75.9517 350.506 75.9517 346.773C75.9517 343.142 77.7244 341.071 80.4261 341.071C82.446 341.071 83.9034 342.239 84.1847 344.156H87.9176ZM96.4105 355.756C100.382 355.756 102.854 353.037 102.854 349.006C102.854 344.949 100.382 342.239 96.4105 342.239C92.4389 342.239 89.9673 344.949 89.9673 349.006C89.9673 353.037 92.4389 355.756 96.4105 355.756ZM96.4276 352.943C94.5952 352.943 93.6577 351.264 93.6577 348.98C93.6577 346.696 94.5952 345.009 96.4276 345.009C98.2259 345.009 99.1634 346.696 99.1634 348.98C99.1634 351.264 98.2259 352.943 96.4276 352.943ZM108.845 347.932C108.854 346.244 109.859 345.256 111.325 345.256C112.783 345.256 113.661 346.21 113.652 347.812V355.5H117.283V347.165C117.283 344.114 115.493 342.239 112.766 342.239C110.822 342.239 109.416 343.193 108.828 344.719H108.675V342.409H105.214V355.5H108.845V347.932ZM127.184 342.409H124.585V341.531C124.585 340.645 124.942 340.125 126.008 340.125C126.442 340.125 126.886 340.219 127.175 340.312L127.815 337.585C127.363 337.449 126.366 337.227 125.249 337.227C122.786 337.227 120.954 338.616 120.954 341.463V342.409H119.104V345.136H120.954V355.5H124.585V345.136H127.184V342.409ZM129.402 355.5H133.033V342.409H129.402V355.5ZM131.226 340.722C132.308 340.722 133.195 339.895 133.195 338.881C133.195 337.875 132.308 337.048 131.226 337.048C130.152 337.048 129.266 337.875 129.266 338.881C129.266 339.895 130.152 340.722 131.226 340.722ZM135.941 355.5H139.572V348.094C139.572 346.483 140.748 345.375 142.35 345.375C142.853 345.375 143.543 345.46 143.884 345.571V342.349C143.56 342.273 143.109 342.222 142.742 342.222C141.276 342.222 140.075 343.074 139.597 344.693H139.461V342.409H135.941V355.5ZM145.761 355.5H149.392V347.642C149.392 346.193 150.312 345.23 151.523 345.23C152.716 345.23 153.517 346.048 153.517 347.335V355.5H157.037V347.506C157.037 346.151 157.812 345.23 159.134 345.23C160.293 345.23 161.162 345.955 161.162 347.412V355.5H164.784V346.696C164.784 343.858 163.097 342.239 160.659 342.239C158.741 342.239 157.25 343.219 156.713 344.719H156.577C156.159 343.202 154.821 342.239 153.023 342.239C151.259 342.239 149.92 343.176 149.375 344.719H149.222V342.409H145.761V355.5ZM173.275 355.5H176.965V349.841H180.067C184.082 349.841 186.417 347.446 186.417 343.96C186.417 340.491 184.124 338.045 180.161 338.045H173.275V355.5ZM176.965 346.884V341.062H179.454C181.585 341.062 182.616 342.222 182.616 343.96C182.616 345.69 181.585 346.884 179.471 346.884H176.965ZM192.127 355.747C194.062 355.747 195.315 354.903 195.954 353.685H196.056V355.5H199.499V346.67C199.499 343.551 196.857 342.239 193.942 342.239C190.806 342.239 188.744 343.739 188.241 346.125L191.599 346.398C191.846 345.528 192.621 344.889 193.925 344.889C195.161 344.889 195.869 345.511 195.869 346.585V346.636C195.869 347.48 194.974 347.591 192.698 347.812C190.107 348.051 187.781 348.92 187.781 351.844C187.781 354.435 189.63 355.747 192.127 355.747ZM193.167 353.241C192.05 353.241 191.249 352.722 191.249 351.724C191.249 350.702 192.093 350.199 193.371 350.02C194.164 349.909 195.46 349.722 195.894 349.432V350.821C195.894 352.193 194.761 353.241 193.167 353.241ZM204.089 360.409C206.79 360.409 208.222 359.028 208.964 356.915L214.052 342.426L210.208 342.409L207.472 352.023H207.336L204.626 342.409H200.808L205.504 355.875L205.29 356.429C204.813 357.656 203.901 357.716 202.623 357.324L201.805 360.034C202.325 360.256 203.168 360.409 204.089 360.409ZM215.91 355.5H219.54V347.642C219.54 346.193 220.461 345.23 221.671 345.23C222.864 345.23 223.665 346.048 223.665 347.335V355.5H227.185V347.506C227.185 346.151 227.961 345.23 229.282 345.23C230.441 345.23 231.31 345.955 231.31 347.412V355.5H234.933V346.696C234.933 343.858 233.245 342.239 230.808 342.239C228.89 342.239 227.398 343.219 226.862 344.719H226.725C226.308 343.202 224.969 342.239 223.171 342.239C221.407 342.239 220.069 343.176 219.523 344.719H219.37V342.409H215.91V355.5ZM243.766 355.756C247.005 355.756 249.187 354.179 249.698 351.75L246.34 351.528C245.974 352.526 245.036 353.045 243.826 353.045C242.011 353.045 240.86 351.844 240.86 349.892V349.884H249.775V348.886C249.775 344.438 247.082 342.239 243.621 342.239C239.769 342.239 237.272 344.974 237.272 349.014C237.272 353.165 239.735 355.756 243.766 355.756ZM240.86 347.634C240.937 346.142 242.07 344.949 243.681 344.949C245.258 344.949 246.349 346.074 246.357 347.634H240.86ZM255.775 347.932C255.783 346.244 256.789 345.256 258.255 345.256C259.712 345.256 260.59 346.21 260.582 347.812V355.5H264.212V347.165C264.212 344.114 262.423 342.239 259.695 342.239C257.752 342.239 256.346 343.193 255.758 344.719H255.604V342.409H252.144V355.5H255.775V347.932ZM274.037 342.409H271.574V339.273H267.943V342.409H266.153V345.136H267.943V351.955C267.926 354.52 269.673 355.79 272.307 355.679C273.244 355.645 273.909 355.457 274.276 355.338L273.705 352.636C273.526 352.67 273.142 352.756 272.801 352.756C272.077 352.756 271.574 352.483 271.574 351.477V345.136H274.037V342.409Z" fill="black"/>
<rect x="51" y="312.5" width="498" height="69" rx="4" stroke="black" stroke-width="2"/>
<path d="M301.5 397.5C301.5 396.672 300.828 396 300 396C299.172 396 298.5 396.672 298.5 397.5H301.5ZM298.939 437.061C299.525 437.646 300.475 437.646 301.061 437.061L310.607 427.515C311.192 426.929 311.192 425.979 310.607 425.393C310.021 424.808 309.071 424.808 308.485 425.393L300 433.879L291.515 425.393C290.929 424.808 289.979 424.808 289.393 425.393C288.808 425.979 288.808 426.929 289.393 427.515L298.939 437.061ZM298.5 397.5V436H301.5V397.5H298.5Z" fill="black"/>
<path d="M72.517 495H76.2074V489.341H79.3097C83.3239 489.341 85.6591 486.946 85.6591 483.46C85.6591 479.991 83.3665 477.545 79.4034 477.545H72.517V495ZM76.2074 486.384V480.562H78.696C80.8267 480.562 81.858 481.722 81.858 483.46C81.858 485.19 80.8267 486.384 78.7131 486.384H76.2074ZM91.3693 495.247C93.304 495.247 94.5568 494.403 95.196 493.185H95.2983V495H98.7415V486.17C98.7415 483.051 96.0994 481.739 93.1847 481.739C90.0483 481.739 87.9858 483.239 87.483 485.625L90.8409 485.898C91.0881 485.028 91.8636 484.389 93.1676 484.389C94.4034 484.389 95.1108 485.011 95.1108 486.085V486.136C95.1108 486.98 94.2159 487.091 91.9403 487.312C89.3494 487.551 87.0227 488.42 87.0227 491.344C87.0227 493.935 88.8722 495.247 91.3693 495.247ZM92.4091 492.741C91.2926 492.741 90.4915 492.222 90.4915 491.224C90.4915 490.202 91.3352 489.699 92.6136 489.52C93.4062 489.409 94.7017 489.222 95.1364 488.932V490.321C95.1364 491.693 94.0028 492.741 92.4091 492.741ZM108.521 481.909H106.058V478.773H102.428V481.909H100.638V484.636H102.428V491.455C102.411 494.02 104.158 495.29 106.791 495.179C107.729 495.145 108.393 494.957 108.76 494.838L108.189 492.136C108.01 492.17 107.626 492.256 107.286 492.256C106.561 492.256 106.058 491.983 106.058 490.977V484.636H108.521V481.909ZM114.798 487.432C114.807 485.744 115.838 484.756 117.321 484.756C118.795 484.756 119.665 485.702 119.656 487.312V495H123.287V486.665C123.295 483.597 121.489 481.739 118.761 481.739C116.776 481.739 115.446 482.676 114.849 484.219H114.696V477.545H111.168V495H114.798V487.432ZM133.184 481.909H130.585V481.031C130.585 480.145 130.942 479.625 132.008 479.625C132.442 479.625 132.886 479.719 133.175 479.812L133.815 477.085C133.363 476.949 132.366 476.727 131.249 476.727C128.786 476.727 126.954 478.116 126.954 480.963V481.909H125.104V484.636H126.954V495H130.585V484.636H133.184V481.909ZM135.402 495H139.033V481.909H135.402V495ZM137.226 480.222C138.308 480.222 139.195 479.395 139.195 478.381C139.195 477.375 138.308 476.548 137.226 476.548C136.152 476.548 135.266 477.375 135.266 478.381C135.266 479.395 136.152 480.222 137.226 480.222ZM145.572 487.432C145.58 485.744 146.586 484.756 148.052 484.756C149.509 484.756 150.387 485.71 150.379 487.312V495H154.009V486.665C154.009 483.614 152.219 481.739 149.492 481.739C147.549 481.739 146.143 482.693 145.555 484.219H145.401V481.909H141.941V495H145.572V487.432ZM161.695 495.213C163.808 495.213 164.908 493.994 165.411 492.903H165.564V495H169.143V477.545H165.521V484.108H165.411C164.925 483.043 163.876 481.739 161.686 481.739C158.814 481.739 156.385 483.972 156.385 488.472C156.385 492.852 158.712 495.213 161.695 495.213ZM162.845 492.324C161.064 492.324 160.092 490.739 160.092 488.455C160.092 486.188 161.047 484.628 162.845 484.628C164.609 484.628 165.598 486.119 165.598 488.455C165.598 490.79 164.592 492.324 162.845 492.324ZM172.129 495H175.759V481.909H172.129V495ZM173.952 480.222C175.035 480.222 175.921 479.395 175.921 478.381C175.921 477.375 175.035 476.548 173.952 476.548C172.879 476.548 171.992 477.375 171.992 478.381C171.992 479.395 172.879 480.222 173.952 480.222ZM182.298 487.432C182.307 485.744 183.312 484.756 184.778 484.756C186.236 484.756 187.114 485.71 187.105 487.312V495H190.736V486.665C190.736 483.614 188.946 481.739 186.219 481.739C184.276 481.739 182.869 482.693 182.281 484.219H182.128V481.909H178.668V495H182.298V487.432ZM199.495 500.182C203.237 500.182 205.896 498.477 205.896 495.128V481.909H202.29V484.108H202.154C201.668 483.043 200.603 481.739 198.413 481.739C195.54 481.739 193.112 483.972 193.112 488.429C193.112 492.784 195.472 494.812 198.421 494.812C200.509 494.812 201.677 493.764 202.154 492.682H202.308V495.077C202.308 496.875 201.157 497.574 199.58 497.574C197.978 497.574 197.168 496.875 196.87 496.082L193.512 496.534C193.947 498.597 195.967 500.182 199.495 500.182ZM199.572 492.085C197.79 492.085 196.819 490.67 196.819 488.412C196.819 486.188 197.773 484.628 199.572 484.628C201.336 484.628 202.325 486.119 202.325 488.412C202.325 490.722 201.319 492.085 199.572 492.085ZM219.692 495.256C221.217 495.256 222.871 494.83 224.158 493.824L225.214 495H228.999L226.374 491.991C227.345 490.705 227.959 488.855 227.959 486.486H224.95C224.95 487.628 224.669 488.642 224.209 489.503L221.328 486.196L222.351 485.463C223.817 484.406 224.669 483.077 224.669 481.432C224.669 479.199 222.939 477.315 220.135 477.315C217.271 477.315 215.371 479.267 215.371 481.798C215.371 483.349 216.121 484.645 217.033 485.804C215.132 487.108 213.854 488.344 213.854 490.364C213.854 493.116 216.061 495.256 219.692 495.256ZM222.197 491.642C221.464 492.094 220.663 492.341 219.871 492.341C218.354 492.341 217.374 491.403 217.374 490.159C217.374 489.494 217.825 488.727 218.788 488.028L218.891 487.96L222.197 491.642ZM219.581 484.125C218.933 483.307 218.482 482.582 218.482 481.858C218.482 480.98 219.146 480.247 220.161 480.239C221.183 480.23 221.763 480.946 221.763 481.636C221.763 482.369 221.362 482.974 220.493 483.528L219.581 484.125ZM236.134 495H239.825V488.812H242.518L245.825 495H249.898L246.191 488.216C248.177 487.364 249.276 485.634 249.276 483.247C249.276 479.778 246.984 477.545 243.021 477.545H236.134V495ZM239.825 485.847V480.562H242.313C244.444 480.562 245.475 481.509 245.475 483.247C245.475 484.977 244.444 485.847 242.33 485.847H239.825ZM257.52 495.256C261.491 495.256 263.963 492.537 263.963 488.506C263.963 484.449 261.491 481.739 257.52 481.739C253.548 481.739 251.077 484.449 251.077 488.506C251.077 492.537 253.548 495.256 257.52 495.256ZM257.537 492.443C255.705 492.443 254.767 490.764 254.767 488.48C254.767 486.196 255.705 484.509 257.537 484.509C259.335 484.509 260.273 486.196 260.273 488.48C260.273 490.764 259.335 492.443 257.537 492.443ZM274.719 489.426C274.727 491.182 273.526 492.102 272.222 492.102C270.849 492.102 269.963 491.139 269.955 489.597V481.909H266.324V490.244C266.332 493.304 268.122 495.17 270.756 495.17C272.724 495.17 274.139 494.156 274.727 492.622H274.864V495H278.349V481.909H274.719V489.426ZM288.217 481.909H285.754V478.773H282.123V481.909H280.333V484.636H282.123V491.455C282.106 494.02 283.853 495.29 286.487 495.179C287.424 495.145 288.089 494.957 288.455 494.838L287.884 492.136C287.705 492.17 287.322 492.256 286.981 492.256C286.256 492.256 285.754 491.983 285.754 490.977V484.636H288.217V481.909ZM290.582 495H294.212V481.909H290.582V495ZM292.406 480.222C293.488 480.222 294.374 479.395 294.374 478.381C294.374 477.375 293.488 476.548 292.406 476.548C291.332 476.548 290.445 477.375 290.445 478.381C290.445 479.395 291.332 480.222 292.406 480.222ZM300.751 487.432C300.76 485.744 301.766 484.756 303.232 484.756C304.689 484.756 305.567 485.71 305.558 487.312V495H309.189V486.665C309.189 483.614 307.399 481.739 304.672 481.739C302.729 481.739 301.322 482.693 300.734 484.219H300.581V481.909H297.121V495H300.751V487.432ZM317.948 500.182C321.69 500.182 324.349 498.477 324.349 495.128V481.909H320.744V484.108H320.607C320.121 483.043 319.056 481.739 316.866 481.739C313.994 481.739 311.565 483.972 311.565 488.429C311.565 492.784 313.925 494.812 316.874 494.812C318.962 494.812 320.13 493.764 320.607 492.682H320.761V495.077C320.761 496.875 319.61 497.574 318.033 497.574C316.431 497.574 315.621 496.875 315.323 496.082L311.965 496.534C312.4 498.597 314.42 500.182 317.948 500.182ZM318.025 492.085C316.244 492.085 315.272 490.67 315.272 488.412C315.272 486.188 316.227 484.628 318.025 484.628C319.789 484.628 320.778 486.119 320.778 488.412C320.778 490.722 319.772 492.085 318.025 492.085Z" fill="black"/>
<rect x="51" y="452" width="498" height="69" rx="4" stroke="black" stroke-width="2"/>
<path d="M301.5 537C301.5 536.172 300.828 535.5 300 535.5C299.172 535.5 298.5 536.172 298.5 537H301.5ZM298.939 576.561C299.525 577.146 300.475 577.146 301.061 576.561L310.607 567.015C311.192 566.429 311.192 565.479 310.607 564.893C310.021 564.308 309.071 564.308 308.485 564.893L300 573.379L291.515 564.893C290.929 564.308 289.979 564.308 289.393 564.893C288.808 565.479 288.808 566.429 289.393 567.015L298.939 576.561ZM298.5 537V575.5H301.5V537H298.5Z" fill="black"/>
<path d="M52.2642 610.5H55.3395V605.344H57.5838L60.3395 610.5H63.7344L60.6449 604.847C62.2997 604.136 63.2159 602.695 63.2159 600.706C63.2159 597.815 61.3054 595.955 58.0028 595.955H52.2642V610.5ZM55.3395 602.872V598.469H57.4134C59.1889 598.469 60.0483 599.257 60.0483 600.706C60.0483 602.148 59.1889 602.872 57.4276 602.872H55.3395ZM65.3892 610.5H75.2188V607.964H68.4645V604.491H74.6861V601.956H68.4645V598.49H75.1903V595.955H65.3892V610.5ZM90.4691 601.047C90.0643 597.688 87.5217 595.756 84.1552 595.756C80.3129 595.756 77.3796 598.469 77.3796 603.227C77.3796 607.972 80.2631 610.699 84.1552 610.699C87.8839 610.699 90.1353 608.22 90.4691 605.543L87.3583 605.528C87.0671 607.084 85.8455 607.979 84.2049 607.979C81.9961 607.979 80.4975 606.338 80.4975 603.227C80.4975 600.202 81.9748 598.476 84.2262 598.476C85.9094 598.476 87.1239 599.449 87.3583 601.047H90.4691ZM95.7496 595.955H92.6744V610.5H95.7496V595.955ZM98.2798 610.5H101.355V605.784H103.94C107.286 605.784 109.232 603.788 109.232 600.884C109.232 597.993 107.321 595.955 104.018 595.955H98.2798V610.5ZM101.355 603.32V598.469H103.429C105.205 598.469 106.064 599.435 106.064 600.884C106.064 602.325 105.205 603.32 103.443 603.32H101.355ZM114.304 595.955H111.229V610.5H114.304V595.955ZM116.835 610.5H126.664V607.964H119.91V604.491H126.131V601.956H119.91V598.49H126.636V595.955H116.835V610.5ZM141.247 595.955H138.186V605.102H138.058L131.779 595.955H129.081V610.5H132.156V601.345H132.262L138.591 610.5H141.247V595.955ZM143.234 598.49H147.687V610.5H150.727V598.49H155.18V595.955H143.234V598.49ZM165.05 610.5H168.047L170.81 600.99H170.924L173.694 610.5H176.691L180.853 595.955H177.493L175.086 606.082H174.958L172.309 595.955H169.432L166.776 606.061H166.655L164.248 595.955H160.888L165.05 610.5ZM183.521 610.5L184.601 607.183H189.849L190.929 610.5H194.224L189.21 595.955H185.247L180.226 610.5H183.521ZM185.382 604.783L187.172 599.278H187.286L189.075 604.783H185.382ZM195.975 610.5H205.286V607.964H199.05V595.955H195.975V610.5ZM207.323 610.5H216.634V607.964H210.398V595.955H207.323V610.5ZM218.67 610.5H228.5V607.964H221.746V604.491H227.967V601.956H221.746V598.49H228.472V595.955H218.67V610.5ZM230.363 598.49H234.816V610.5H237.855V598.49H242.309V595.955H230.363V598.49Z" fill="black"/>
<path d="M51 630.5H549" stroke="#FDF1E2" stroke-width="16" stroke-linecap="round" stroke-linejoin="round"/>
<path d="M72.517 698.5H76.2074V692.312H78.9006L82.2074 698.5H86.2812L82.5739 691.716C84.5597 690.864 85.6591 689.134 85.6591 686.747C85.6591 683.278 83.3665 681.045 79.4034 681.045H72.517V698.5ZM76.2074 689.347V684.062H78.696C80.8267 684.062 81.858 685.009 81.858 686.747C81.858 688.477 80.8267 689.347 78.7131 689.347H76.2074ZM93.9538 698.756C97.1925 698.756 99.3743 697.179 99.8857 694.75L96.5277 694.528C96.1612 695.526 95.2237 696.045 94.0135 696.045C92.1982 696.045 91.0476 694.844 91.0476 692.892V692.884H99.9624V691.886C99.9624 687.438 97.2692 685.239 93.8089 685.239C89.9567 685.239 87.4595 687.974 87.4595 692.014C87.4595 696.165 89.9226 698.756 93.9538 698.756ZM91.0476 690.634C91.1243 689.142 92.2578 687.949 93.8686 687.949C95.4453 687.949 96.5362 689.074 96.5447 690.634H91.0476ZM108.246 698.756C111.732 698.756 113.923 696.71 114.093 693.702H110.667C110.454 695.099 109.533 695.884 108.289 695.884C106.593 695.884 105.494 694.46 105.494 691.955C105.494 689.483 106.602 688.068 108.289 688.068C109.619 688.068 110.471 688.946 110.667 690.25H114.093C113.94 687.224 111.647 685.239 108.229 685.239C104.258 685.239 101.803 687.991 101.803 692.006C101.803 695.986 104.215 698.756 108.246 698.756ZM122.384 698.756C125.622 698.756 127.804 697.179 128.315 694.75L124.957 694.528C124.591 695.526 123.653 696.045 122.443 696.045C120.628 696.045 119.477 694.844 119.477 692.892V692.884H128.392V691.886C128.392 687.438 125.699 685.239 122.239 685.239C118.386 685.239 115.889 687.974 115.889 692.014C115.889 696.165 118.352 698.756 122.384 698.756ZM119.477 690.634C119.554 689.142 120.688 687.949 122.298 687.949C123.875 687.949 124.966 689.074 124.974 690.634H119.477ZM130.761 698.5H134.392V685.409H130.761V698.5ZM132.585 683.722C133.668 683.722 134.554 682.895 134.554 681.881C134.554 680.875 133.668 680.048 132.585 680.048C131.511 680.048 130.625 680.875 130.625 681.881C130.625 682.895 131.511 683.722 132.585 683.722ZM149.505 685.409H145.661L142.951 694.776H142.815L140.096 685.409H136.261L140.837 698.5H144.928L149.505 685.409ZM156.884 698.756C160.122 698.756 162.304 697.179 162.815 694.75L159.457 694.528C159.091 695.526 158.153 696.045 156.943 696.045C155.128 696.045 153.977 694.844 153.977 692.892V692.884H162.892V691.886C162.892 687.438 160.199 685.239 156.739 685.239C152.886 685.239 150.389 687.974 150.389 692.014C150.389 696.165 152.852 698.756 156.884 698.756ZM153.977 690.634C154.054 689.142 155.188 687.949 156.798 687.949C158.375 687.949 159.466 689.074 159.474 690.634H153.977ZM170.816 703.409H174.447V696.403H174.558C175.06 697.494 176.16 698.713 178.273 698.713C181.256 698.713 183.583 696.352 183.583 691.972C183.583 687.472 181.154 685.239 178.282 685.239C176.092 685.239 175.043 686.543 174.558 687.608H174.396V685.409H170.816V703.409ZM174.37 691.955C174.37 689.619 175.359 688.128 177.123 688.128C178.921 688.128 179.876 689.688 179.876 691.955C179.876 694.239 178.904 695.824 177.123 695.824C175.376 695.824 174.37 694.29 174.37 691.955ZM189.737 698.747C191.671 698.747 192.924 697.903 193.563 696.685H193.665V698.5H197.109V689.67C197.109 686.551 194.467 685.239 191.552 685.239C188.415 685.239 186.353 686.739 185.85 689.125L189.208 689.398C189.455 688.528 190.231 687.889 191.535 687.889C192.771 687.889 193.478 688.511 193.478 689.585V689.636C193.478 690.48 192.583 690.591 190.308 690.812C187.717 691.051 185.39 691.92 185.39 694.844C185.39 697.435 187.239 698.747 189.737 698.747ZM190.776 696.241C189.66 696.241 188.859 695.722 188.859 694.724C188.859 693.702 189.702 693.199 190.981 693.02C191.773 692.909 193.069 692.722 193.504 692.432V693.821C193.504 695.193 192.37 696.241 190.776 696.241ZM201.698 703.409C204.4 703.409 205.832 702.028 206.573 699.915L211.661 685.426L207.817 685.409L205.082 695.023H204.945L202.235 685.409H198.417L203.113 698.875L202.9 699.429C202.423 700.656 201.511 700.716 200.232 700.324L199.414 703.034C199.934 703.256 200.778 703.409 201.698 703.409ZM213.519 698.5H217.15V690.642C217.15 689.193 218.07 688.23 219.281 688.23C220.474 688.23 221.275 689.048 221.275 690.335V698.5H224.795V690.506C224.795 689.151 225.57 688.23 226.891 688.23C228.05 688.23 228.92 688.955 228.92 690.412V698.5H232.542V689.696C232.542 686.858 230.854 685.239 228.417 685.239C226.499 685.239 225.008 686.219 224.471 687.719H224.335C223.917 686.202 222.579 685.239 220.781 685.239C219.016 685.239 217.678 686.176 217.133 687.719H216.979V685.409H213.519V698.5ZM241.376 698.756C244.614 698.756 246.796 697.179 247.308 694.75L243.95 694.528C243.583 695.526 242.646 696.045 241.435 696.045C239.62 696.045 238.469 694.844 238.469 692.892V692.884H247.384V691.886C247.384 687.438 244.691 685.239 241.231 685.239C237.379 685.239 234.881 687.974 234.881 692.014C234.881 696.165 237.344 698.756 241.376 698.756ZM238.469 690.634C238.546 689.142 239.68 687.949 241.29 687.949C242.867 687.949 243.958 689.074 243.967 690.634H238.469ZM253.384 690.932C253.393 689.244 254.398 688.256 255.864 688.256C257.322 688.256 258.2 689.21 258.191 690.812V698.5H261.822V690.165C261.822 687.114 260.032 685.239 257.305 685.239C255.362 685.239 253.955 686.193 253.367 687.719H253.214V685.409H249.754V698.5H253.384V690.932ZM271.646 685.409H269.183V682.273H265.553V685.409H263.763V688.136H265.553V694.955C265.536 697.52 267.283 698.79 269.916 698.679C270.854 698.645 271.518 698.457 271.885 698.338L271.314 695.636C271.135 695.67 270.751 695.756 270.411 695.756C269.686 695.756 269.183 695.483 269.183 694.477V688.136H271.646V685.409ZM283.299 698.747C285.234 698.747 286.487 697.903 287.126 696.685H287.228V698.5H290.671V689.67C290.671 686.551 288.029 685.239 285.114 685.239C281.978 685.239 279.915 686.739 279.413 689.125L282.771 689.398C283.018 688.528 283.793 687.889 285.097 687.889C286.333 687.889 287.04 688.511 287.04 689.585V689.636C287.04 690.48 286.146 690.591 283.87 690.812C281.279 691.051 278.952 691.92 278.952 694.844C278.952 697.435 280.802 698.747 283.299 698.747ZM284.339 696.241C283.222 696.241 282.421 695.722 282.421 694.724C282.421 693.702 283.265 693.199 284.543 693.02C285.336 692.909 286.631 692.722 287.066 692.432V693.821C287.066 695.193 285.933 696.241 284.339 696.241ZM297.119 690.932C297.127 689.244 298.133 688.256 299.599 688.256C301.056 688.256 301.934 689.21 301.925 690.812V698.5H305.556V690.165C305.556 687.114 303.766 685.239 301.039 685.239C299.096 685.239 297.69 686.193 297.102 687.719H296.948V685.409H293.488V698.5H297.119V690.932ZM313.241 698.713C315.355 698.713 316.455 697.494 316.957 696.403H317.111V698.5H320.69V681.045H317.068V687.608H316.957C316.472 686.543 315.423 685.239 313.233 685.239C310.361 685.239 307.932 687.472 307.932 691.972C307.932 696.352 310.259 698.713 313.241 698.713ZM314.392 695.824C312.611 695.824 311.639 694.239 311.639 691.955C311.639 689.688 312.594 688.128 314.392 688.128C316.156 688.128 317.145 689.619 317.145 691.955C317.145 694.29 316.139 695.824 314.392 695.824ZM329.23 698.5H332.861V691.094C332.861 689.483 334.037 688.375 335.639 688.375C336.142 688.375 336.832 688.46 337.173 688.571V685.349C336.849 685.273 336.398 685.222 336.031 685.222C334.565 685.222 333.364 686.074 332.886 687.693H332.75V685.409H329.23V698.5ZM344.407 698.756C347.646 698.756 349.827 697.179 350.339 694.75L346.981 694.528C346.614 695.526 345.677 696.045 344.467 696.045C342.651 696.045 341.501 694.844 341.501 692.892V692.884H350.415V691.886C350.415 687.438 347.722 685.239 344.262 685.239C340.41 685.239 337.913 687.974 337.913 692.014C337.913 696.165 340.376 698.756 344.407 698.756ZM341.501 690.634C341.577 689.142 342.711 687.949 344.322 687.949C345.898 687.949 346.989 689.074 346.998 690.634H341.501ZM364.614 685.409H360.771L358.06 694.776H357.924L355.205 685.409H351.37L355.947 698.5H360.038L364.614 685.409ZM371.993 698.756C375.232 698.756 377.413 697.179 377.925 694.75L374.567 694.528C374.2 695.526 373.263 696.045 372.053 696.045C370.237 696.045 369.087 694.844 369.087 692.892V692.884H378.001V691.886C378.001 687.438 375.308 685.239 371.848 685.239C367.996 685.239 365.499 687.974 365.499 692.014C365.499 696.165 367.962 698.756 371.993 698.756ZM369.087 690.634C369.163 689.142 370.297 687.949 371.908 687.949C373.484 687.949 374.575 689.074 374.584 690.634H369.087ZM384.104 698.747C386.038 698.747 387.291 697.903 387.93 696.685H388.033V698.5H391.476V689.67C391.476 686.551 388.834 685.239 385.919 685.239C382.783 685.239 380.72 686.739 380.217 689.125L383.575 689.398C383.822 688.528 384.598 687.889 385.902 687.889C387.138 687.889 387.845 688.511 387.845 689.585V689.636C387.845 690.48 386.95 690.591 384.675 690.812C382.084 691.051 379.757 691.92 379.757 694.844C379.757 697.435 381.607 698.747 384.104 698.747ZM385.143 696.241C384.027 696.241 383.226 695.722 383.226 694.724C383.226 693.702 384.07 693.199 385.348 693.02C386.141 692.909 387.436 692.722 387.871 692.432V693.821C387.871 695.193 386.737 696.241 385.143 696.241ZM397.923 681.045H394.293V698.5H397.923V681.045ZM406.386 703.409H410.017V696.403H410.128C410.631 697.494 411.73 698.713 413.844 698.713C416.827 698.713 419.153 696.352 419.153 691.972C419.153 687.472 416.724 685.239 413.852 685.239C411.662 685.239 410.614 686.543 410.128 687.608H409.966V685.409H406.386V703.409ZM409.94 691.955C409.94 689.619 410.929 688.128 412.693 688.128C414.491 688.128 415.446 689.688 415.446 691.955C415.446 694.239 414.474 695.824 412.693 695.824C410.946 695.824 409.94 694.29 409.94 691.955ZM421.574 698.5H425.205V691.094C425.205 689.483 426.381 688.375 427.983 688.375C428.486 688.375 429.176 688.46 429.517 688.571V685.349C429.193 685.273 428.741 685.222 428.375 685.222C426.909 685.222 425.707 686.074 425.23 687.693H425.094V685.409H421.574V698.5ZM436.751 698.756C439.989 698.756 442.171 697.179 442.683 694.75L439.325 694.528C438.958 695.526 438.021 696.045 436.81 696.045C434.995 696.045 433.844 694.844 433.844 692.892V692.884H442.759V691.886C442.759 687.438 440.066 685.239 436.606 685.239C432.754 685.239 430.256 687.974 430.256 692.014C430.256 696.165 432.719 698.756 436.751 698.756ZM433.844 690.634C433.921 689.142 435.055 687.949 436.665 687.949C438.242 687.949 439.333 689.074 439.342 690.634H433.844ZM445.129 698.5H448.759V685.409H445.129V698.5ZM446.952 683.722C448.035 683.722 448.921 682.895 448.921 681.881C448.921 680.875 448.035 680.048 446.952 680.048C445.879 680.048 444.992 680.875 444.992 681.881C444.992 682.895 445.879 683.722 446.952 683.722ZM451.668 698.5H455.298V690.642C455.298 689.193 456.219 688.23 457.429 688.23C458.622 688.23 459.423 689.048 459.423 690.335V698.5H462.943V690.506C462.943 689.151 463.719 688.23 465.04 688.23C466.199 688.23 467.068 688.955 467.068 690.412V698.5H470.69V689.696C470.69 686.858 469.003 685.239 466.565 685.239C464.648 685.239 463.156 686.219 462.619 687.719H462.483C462.065 686.202 460.727 685.239 458.929 685.239C457.165 685.239 455.827 686.176 455.281 687.719H455.128V685.409H451.668V698.5ZM477.291 698.747C479.226 698.747 480.479 697.903 481.118 696.685H481.22V698.5H484.663V689.67C484.663 686.551 482.021 685.239 479.107 685.239C475.97 685.239 473.908 686.739 473.405 689.125L476.763 689.398C477.01 688.528 477.786 687.889 479.089 687.889C480.325 687.889 481.033 688.511 481.033 689.585V689.636C481.033 690.48 480.138 690.591 477.862 690.812C475.271 691.051 472.945 691.92 472.945 694.844C472.945 697.435 474.794 698.747 477.291 698.747ZM478.331 696.241C477.214 696.241 476.413 695.722 476.413 694.724C476.413 693.702 477.257 693.199 478.536 693.02C479.328 692.909 480.624 692.722 481.058 692.432V693.821C481.058 695.193 479.925 696.241 478.331 696.241ZM493.378 703.682C497.119 703.682 499.778 701.977 499.778 698.628V685.409H496.173V687.608H496.037C495.551 686.543 494.486 685.239 492.295 685.239C489.423 685.239 486.994 687.472 486.994 691.929C486.994 696.284 489.355 698.312 492.304 698.312C494.392 698.312 495.56 697.264 496.037 696.182H496.19V698.577C496.19 700.375 495.04 701.074 493.463 701.074C491.861 701.074 491.051 700.375 490.753 699.582L487.395 700.034C487.83 702.097 489.849 703.682 493.378 703.682ZM493.455 695.585C491.673 695.585 490.702 694.17 490.702 691.912C490.702 689.688 491.656 688.128 493.455 688.128C495.219 688.128 496.207 689.619 496.207 691.912C496.207 694.222 495.202 695.585 493.455 695.585ZM508.634 698.756C511.872 698.756 514.054 697.179 514.565 694.75L511.207 694.528C510.841 695.526 509.903 696.045 508.693 696.045C506.878 696.045 505.727 694.844 505.727 692.892V692.884H514.642V691.886C514.642 687.438 511.949 685.239 508.489 685.239C504.636 685.239 502.139 687.974 502.139 692.014C502.139 696.165 504.602 698.756 508.634 698.756ZM505.727 690.634C505.804 689.142 506.938 687.949 508.548 687.949C510.125 687.949 511.216 689.074 511.224 690.634H505.727Z" fill="black"/>
<rect x="51" y="655.5" width="498" height="69" rx="4" stroke="black" stroke-width="2"/>
<path d="M301.5 740.5C301.5 739.672 300.828 739 300 739C299.172 739 298.5 739.672 298.5 740.5H301.5ZM298.939 780.061C299.525 780.646 300.475 780.646 301.061 780.061L310.607 770.515C311.192 769.929 311.192 768.979 310.607 768.393C310.021 767.808 309.071 767.808 308.485 768.393L300 776.879L291.515 768.393C290.929 767.808 289.979 767.808 289.393 768.393C288.808 768.979 288.808 769.929 289.393 770.515L298.939 780.061ZM298.5 740.5V779H301.5V740.5H298.5Z" fill="black"/>
<path d="M59.2393 803.674H61.892C61.8537 801.341 59.9361 799.73 57.0213 799.73C54.1513 799.73 52.0483 801.315 52.0611 803.693C52.0547 805.624 53.4162 806.729 55.6278 807.26L57.0533 807.618C58.4787 807.963 59.2713 808.372 59.2777 809.254C59.2713 810.213 58.3636 810.865 56.9574 810.865C55.5192 810.865 54.4837 810.2 54.3942 808.89H51.7159C51.7862 811.722 53.8125 813.185 56.9893 813.185C60.1854 813.185 62.0646 811.658 62.071 809.261C62.0646 807.081 60.4219 805.924 58.1463 805.413L56.9702 805.131C55.8324 804.869 54.88 804.447 54.8991 803.508C54.8991 802.664 55.647 802.044 57.0021 802.044C58.3253 802.044 59.1371 802.645 59.2393 803.674ZM63.9327 813H72.7793V810.718H66.7005V807.592H72.2999V805.31H66.7005V802.191H72.7537V799.909H63.9327V813ZM85.9038 799.909H83.1488V808.142H83.0337L77.3832 799.909H74.9542V813H77.7219V804.761H77.8178L83.5131 813H85.9038V799.909ZM92.8311 813C96.8198 813 99.236 810.533 99.236 806.442C99.236 802.364 96.8198 799.909 92.8695 799.909H88.1905V813H92.8311ZM90.9583 810.629V802.281H92.7225C95.177 802.281 96.4746 803.533 96.4746 806.442C96.4746 809.363 95.177 810.629 92.7161 810.629H90.9583ZM101.286 813H110.133V810.718H104.054V807.592H109.653V805.31H104.054V802.191H110.107V799.909H101.286V813ZM112.308 813H115.075V808.359H117.095L119.575 813H122.631L119.85 807.912C121.34 807.273 122.164 805.975 122.164 804.185C122.164 801.584 120.445 799.909 117.472 799.909H112.308V813ZM115.075 806.135V802.172H116.942C118.54 802.172 119.313 802.881 119.313 804.185C119.313 805.483 118.54 806.135 116.955 806.135H115.075ZM131.233 813H133.93L136.417 804.441H136.519L139.012 813H141.71L145.455 799.909H142.432L140.265 809.024H140.15L137.766 799.909H135.177L132.786 809.005H132.678L130.511 799.909H127.487L131.233 813ZM147.857 813L148.829 810.015H153.552L154.524 813H157.49L152.977 799.909H149.41L144.891 813H147.857ZM149.532 807.854L151.143 802.901H151.245L152.856 807.854H149.532ZM159.066 813H167.445V810.718H161.833V799.909H159.066V813ZM169.278 813H177.658V810.718H172.046V799.909H169.278V813ZM179.491 813H188.338V810.718H182.259V807.592H187.858V805.31H182.259V802.191H188.312V799.909H179.491V813ZM190.014 802.191H194.022V813H196.758V802.191H200.766V799.909H190.014V802.191Z" fill="black"/>
<path d="M51 832H549" stroke="#FDF1E2" stroke-width="16" stroke-linecap="round" stroke-linejoin="round"/>
<path d="M72.517 902H76.2074V896.341H79.3097C83.3239 896.341 85.6591 893.946 85.6591 890.46C85.6591 886.991 83.3665 884.545 79.4034 884.545H72.517V902ZM76.2074 893.384V887.562H78.696C80.8267 887.562 81.858 888.722 81.858 890.46C81.858 892.19 80.8267 893.384 78.7131 893.384H76.2074ZM91.3693 902.247C93.304 902.247 94.5568 901.403 95.196 900.185H95.2983V902H98.7415V893.17C98.7415 890.051 96.0994 888.739 93.1847 888.739C90.0483 888.739 87.9858 890.239 87.483 892.625L90.8409 892.898C91.0881 892.028 91.8636 891.389 93.1676 891.389C94.4034 891.389 95.1108 892.011 95.1108 893.085V893.136C95.1108 893.98 94.2159 894.091 91.9403 894.312C89.3494 894.551 87.0227 895.42 87.0227 898.344C87.0227 900.935 88.8722 902.247 91.3693 902.247ZM92.4091 899.741C91.2926 899.741 90.4915 899.222 90.4915 898.224C90.4915 897.202 91.3352 896.699 92.6136 896.52C93.4062 896.409 94.7017 896.222 95.1364 895.932V897.321C95.1364 898.693 94.0028 899.741 92.4091 899.741ZM103.331 906.909C106.033 906.909 107.464 905.528 108.206 903.415L113.294 888.926L109.45 888.909L106.714 898.523H106.578L103.868 888.909H100.05L104.746 902.375L104.533 902.929C104.055 904.156 103.143 904.216 101.865 903.824L101.047 906.534C101.567 906.756 102.411 906.909 103.331 906.909ZM115.152 902H118.783V894.142C118.783 892.693 119.703 891.73 120.913 891.73C122.107 891.73 122.908 892.548 122.908 893.835V902H126.428V894.006C126.428 892.651 127.203 891.73 128.524 891.73C129.683 891.73 130.553 892.455 130.553 893.912V902H134.175V893.196C134.175 890.358 132.487 888.739 130.05 888.739C128.132 888.739 126.641 889.719 126.104 891.219H125.967C125.55 889.702 124.212 888.739 122.413 888.739C120.649 888.739 119.311 889.676 118.766 891.219H118.612V888.909H115.152V902ZM143.009 902.256C146.247 902.256 148.429 900.679 148.94 898.25L145.582 898.028C145.216 899.026 144.278 899.545 143.068 899.545C141.253 899.545 140.102 898.344 140.102 896.392V896.384H149.017V895.386C149.017 890.938 146.324 888.739 142.864 888.739C139.011 888.739 136.514 891.474 136.514 895.514C136.514 899.665 138.977 902.256 143.009 902.256ZM140.102 894.134C140.179 892.642 141.312 891.449 142.923 891.449C144.5 891.449 145.591 892.574 145.599 894.134H140.102ZM155.017 894.432C155.026 892.744 156.031 891.756 157.497 891.756C158.955 891.756 159.832 892.71 159.824 894.312V902H163.455V893.665C163.455 890.614 161.665 888.739 158.938 888.739C156.994 888.739 155.588 889.693 155 891.219H154.847V888.909H151.386V902H155.017V894.432ZM173.279 888.909H170.816V885.773H167.185V888.909H165.396V891.636H167.185V898.455C167.168 901.02 168.915 902.29 171.549 902.179C172.487 902.145 173.151 901.957 173.518 901.838L172.947 899.136C172.768 899.17 172.384 899.256 172.043 899.256C171.319 899.256 170.816 898.983 170.816 897.977V891.636H173.279V888.909ZM187.114 902.256C190.599 902.256 192.79 900.21 192.96 897.202H189.534C189.321 898.599 188.401 899.384 187.156 899.384C185.46 899.384 184.361 897.96 184.361 895.455C184.361 892.983 185.469 891.568 187.156 891.568C188.486 891.568 189.338 892.446 189.534 893.75H192.96C192.807 890.724 190.514 888.739 187.097 888.739C183.125 888.739 180.67 891.491 180.67 895.506C180.67 899.486 183.082 902.256 187.114 902.256ZM201.2 902.256C205.171 902.256 207.643 899.537 207.643 895.506C207.643 891.449 205.171 888.739 201.2 888.739C197.228 888.739 194.756 891.449 194.756 895.506C194.756 899.537 197.228 902.256 201.2 902.256ZM201.217 899.443C199.384 899.443 198.447 897.764 198.447 895.48C198.447 893.196 199.384 891.509 201.217 891.509C203.015 891.509 203.952 893.196 203.952 895.48C203.952 897.764 203.015 899.443 201.217 899.443ZM210.004 902H213.634V894.142C213.634 892.693 214.555 891.73 215.765 891.73C216.958 891.73 217.759 892.548 217.759 893.835V902H221.279V894.006C221.279 892.651 222.055 891.73 223.376 891.73C224.535 891.73 225.404 892.455 225.404 893.912V902H229.026V893.196C229.026 890.358 227.339 888.739 224.901 888.739C222.984 888.739 221.492 889.719 220.955 891.219H220.819C220.401 889.702 219.063 888.739 217.265 888.739C215.501 888.739 214.163 889.676 213.617 891.219H213.464V888.909H210.004V902ZM231.894 906.909H235.525V899.903H235.636C236.138 900.994 237.238 902.213 239.352 902.213C242.335 902.213 244.661 899.852 244.661 895.472C244.661 890.972 242.232 888.739 239.36 888.739C237.17 888.739 236.121 890.043 235.636 891.108H235.474V888.909H231.894V906.909ZM235.448 895.455C235.448 893.119 236.437 891.628 238.201 891.628C239.999 891.628 240.954 893.188 240.954 895.455C240.954 897.739 239.982 899.324 238.201 899.324C236.454 899.324 235.448 897.79 235.448 895.455ZM250.712 884.545H247.082V902H250.712V884.545ZM259.587 902.256C262.825 902.256 265.007 900.679 265.518 898.25L262.161 898.028C261.794 899.026 260.857 899.545 259.646 899.545C257.831 899.545 256.68 898.344 256.68 896.392V896.384H265.595V895.386C265.595 890.938 262.902 888.739 259.442 888.739C255.589 888.739 253.092 891.474 253.092 895.514C253.092 899.665 255.555 902.256 259.587 902.256ZM256.68 894.134C256.757 892.642 257.891 891.449 259.501 891.449C261.078 891.449 262.169 892.574 262.178 894.134H256.68ZM274.928 888.909H272.464V885.773H268.834V888.909H267.044V891.636H268.834V898.455C268.817 901.02 270.564 902.29 273.197 902.179C274.135 902.145 274.8 901.957 275.166 901.838L274.595 899.136C274.416 899.17 274.033 899.256 273.692 899.256C272.967 899.256 272.464 898.983 272.464 897.977V891.636H274.928V888.909ZM283.118 902.256C286.357 902.256 288.538 900.679 289.05 898.25L285.692 898.028C285.325 899.026 284.388 899.545 283.178 899.545C281.362 899.545 280.212 898.344 280.212 896.392V896.384H289.126V895.386C289.126 890.938 286.433 888.739 282.973 888.739C279.121 888.739 276.624 891.474 276.624 895.514C276.624 899.665 279.087 902.256 283.118 902.256ZM280.212 894.134C280.288 892.642 281.422 891.449 283.033 891.449C284.609 891.449 285.7 892.574 285.709 894.134H280.212Z" fill="black"/>
<rect x="51" y="859" width="498" height="69" rx="4" stroke="black" stroke-width="2"/>
</svg>
