<svg fill="none" height="242" viewBox="0 0 1350 242" width="1350" xmlns="http://www.w3.org/2000/svg"><path d="m0 0h1350v242h-1350z" fill="#fff"/><rect fill="#fff" height="55.5" rx="4.25" width="191.5" x="60.75" y="60.75"/><path d="m87.6364 87.1094h2.1875c-.2784-2.0135-2.0533-3.4304-4.3551-3.4304-2.6897 0-4.7628 1.9389-4.7628 5.24 0 3.2216 1.9389 5.2202 4.8075 5.2202 2.5703 0 4.4048-1.6257 4.4048-4.3054v-1.2827h-4.2606v1.6208h2.1875c-.0299 1.2628-.8899 2.0632-2.3218 2.0632-1.6157 0-2.6349-1.2081-2.6349-3.336 0-2.1179 1.0589-3.316 2.6151-3.316 1.1086 0 1.8593.5717 2.1328 1.5263zm7.3393 7.0397c1.8892 0 3.1619-.9197 3.4602-2.3366l-1.9588-.1293c-.2138.5817-.7607.885-1.4666.885-1.059 0-1.7301-.701-1.7301-1.8395v-.005h5.2002v-.5817c0-2.5951-1.571-3.8778-3.5894-3.8778-2.2472 0-3.7039 1.5959-3.7039 3.9524 0 2.4212 1.4368 3.9325 3.7884 3.9325zm-1.6953-4.7379c.0447-.87.7059-1.566 1.6456-1.566.9197 0 1.5561.6562 1.561 1.566zm10.6446-3.0476h-1.437v-1.8295h-2.118v1.8295h-1.0442v1.5909h1.0442v3.9773c-.01 1.4965 1.009 2.2372 2.545 2.1726.547-.0199.935-.1293 1.149-.1989l-.333-1.576c-.105.0199-.328.0696-.527.0696-.423 0-.716-.159-.716-.7457v-3.6989h1.437zm4.659 7.6364h2.153v-3.6094h1.571l1.929 3.6094h2.376l-2.162-3.9574c1.158-.4971 1.799-1.5064 1.799-2.8984 0-2.0235-1.337-3.326-3.649-3.326h-4.017zm2.153-5.3395v-3.0824h1.452c1.242 0 1.844.5519 1.844 1.5661 0 1.0092-.602 1.5163-1.834 1.5163zm10.352 5.4886c1.889 0 3.162-.9197 3.46-2.3366l-1.959-.1293c-.213.5817-.76.885-1.466.885-1.059 0-1.73-.701-1.73-1.8395v-.005h5.2v-.5817c0-2.5951-1.571-3.8778-3.59-3.8778-2.247 0-3.703 1.5959-3.703 3.9524 0 2.4212 1.436 3.9325 3.788 3.9325zm-1.695-4.7379c.044-.87.706-1.566 1.645-1.566.92 0 1.556.6562 1.561 1.566zm10.032 4.7379c2.034 0 3.311-1.1931 3.411-2.9481h-1.999c-.124.8153-.661 1.2727-1.387 1.2727-.989 0-1.631-.8302-1.631-2.2919 0-1.4417.647-2.267 1.631-2.267.776 0 1.273.512 1.387 1.2727h1.999c-.09-1.7649-1.427-2.9233-3.421-2.9233-2.316 0-3.748 1.6058-3.748 3.9474 0 2.3218 1.407 3.9375 3.758 3.9375zm4.767-.1491h2.118v-7.6364h-2.118zm1.064-8.6207c.631 0 1.148-.4823 1.148-1.0739 0-.5866-.517-1.0689-1.148-1.0689-.627 0-1.144.4823-1.144 1.0689 0 .5916.517 1.0739 1.144 1.0739zm2.75 11.4843h2.118v-4.0866h.065c.293.6364.934 1.3473 2.167 1.3473 1.74 0 3.098-1.3771 3.098-3.9325 0-2.625-1.417-3.9276-3.093-3.9276-1.277 0-1.889.7607-2.172 1.3821h-.095v-1.2827h-2.088zm2.073-6.6818c0-1.3622.577-2.2322 1.606-2.2322 1.049 0 1.606.9098 1.606 2.2322 0 1.3324-.567 2.2571-1.606 2.2571-1.019 0-1.606-.8949-1.606-2.2571zm6.787 3.8182h2.118v-7.6364h-2.118zm1.064-8.6207c.631 0 1.148-.4823 1.148-1.0739 0-.5866-.517-1.0689-1.148-1.0689-.627 0-1.144.4823-1.144 1.0689 0 .5916.517 1.0739 1.144 1.0739zm6.23 8.7698c1.889 0 3.162-.9197 3.46-2.3366l-1.958-.1293c-.214.5817-.761.885-1.467.885-1.059 0-1.73-.701-1.73-1.8395v-.005h5.2v-.5817c0-2.5951-1.571-3.8778-3.589-3.8778-2.247 0-3.704 1.5959-3.704 3.9524 0 2.4212 1.437 3.9325 3.788 3.9325zm-1.695-4.7379c.045-.87.706-1.566 1.646-1.566.919 0 1.556.6562 1.561 1.566zm8.7.174c.005-.9843.592-1.5611 1.447-1.5611.85 0 1.362.5569 1.357 1.4915v4.4844h2.118v-4.8622c0-1.7798-1.044-2.8736-2.635-2.8736-1.133 0-1.954.5568-2.297 1.4467h-.089v-1.3473h-2.019v7.6364h2.118zm10.653-3.2216h-1.437v-1.8295h-2.118v1.8295h-1.044v1.5909h1.044v3.9773c-.01 1.4965 1.01 2.2372 2.546 2.1726.547-.0199.934-.1293 1.148-.1989l-.333-1.576c-.104.0199-.328.0696-.527.0696-.422 0-.716-.159-.716-.7457v-3.6989h1.437zm6.415 7.6364.755-2.3217h3.674l.756 2.3217h2.307l-3.51-10.1818h-2.774l-3.515 10.1818zm1.302-4.0021 1.253-3.853h.08l1.252 3.853zm9.834 4.1264c1.233 0 1.874-.7109 2.168-1.3473h.089v1.223h2.088v-10.1818h-2.113v3.8281h-.064c-.284-.6214-.895-1.3821-2.173-1.3821-1.675 0-3.092 1.3026-3.092 3.9276 0 2.5554 1.357 3.9325 3.097 3.9325zm.671-1.6854c-1.039 0-1.606-.9247-1.606-2.2571 0-1.3224.557-2.2322 1.606-2.2322 1.029 0 1.606.87 1.606 2.2322s-.587 2.2571-1.606 2.2571zm8.229 1.6854c1.233 0 1.875-.7109 2.168-1.3473h.09v1.223h2.088v-10.1818h-2.113v3.8281h-.065c-.283-.6214-.895-1.3821-2.173-1.3821-1.675 0-3.092 1.3026-3.092 3.9276 0 2.5554 1.357 3.9325 3.097 3.9325zm.672-1.6854c-1.039 0-1.606-.9247-1.606-2.2571 0-1.3224.557-2.2322 1.606-2.2322 1.029 0 1.605.87 1.605 2.2322s-.586 2.2571-1.605 2.2571zm5.415 1.5611h2.118v-4.3203c0-.9396.686-1.5859 1.621-1.5859.293 0 .696.0497.894.1143v-1.8793c-.189-.0447-.452-.0745-.666-.0745-.855 0-1.556.4971-1.834 1.4417h-.08v-1.3324h-2.053zm8.853.1491c1.889 0 3.162-.9197 3.46-2.3366l-1.959-.1293c-.213.5817-.76.885-1.466.885-1.059 0-1.73-.701-1.73-1.8395v-.005h5.2v-.5817c0-2.5951-1.571-3.8778-3.589-3.8778-2.248 0-3.704 1.5959-3.704 3.9524 0 2.4212 1.436 3.9325 3.788 3.9325zm-1.695-4.7379c.044-.87.706-1.566 1.645-1.566.92 0 1.556.6562 1.561 1.566zm12.936-.87c-.189-1.407-1.323-2.277-3.252-2.277-1.953 0-3.241.9048-3.236 2.3764-.005 1.1435.716 1.8843 2.207 2.1826l1.323.2634c.666.1343.969.3779.979.7607-.01.4524-.502.7756-1.243.7756-.755 0-1.258-.3232-1.387-.9446l-2.083.1093c.199 1.4617 1.442 2.3615 3.465 2.3615 1.979 0 3.396-1.0092 3.401-2.5156-.005-1.1037-.726-1.7649-2.208-2.0682l-1.382-.2784c-.711-.1541-.974-.3977-.969-.7656-.005-.4574.512-.7557 1.168-.7557.736 0 1.173.4027 1.278.8949zm7.861 0c-.189-1.407-1.322-2.277-3.251-2.277-1.954 0-3.242.9048-3.237 2.3764-.005 1.1435.716 1.8843 2.208 2.1826l1.322.2634c.666.1343.97.3779.979.7607-.009.4524-.502.7756-1.242.7756-.756 0-1.258-.3232-1.388-.9446l-2.083.1093c.199 1.4617 1.442 2.3615 3.466 2.3615 1.978 0 3.395-1.0092 3.4-2.5156-.005-1.1037-.726-1.7649-2.207-2.0682l-1.382-.2784c-.711-.1541-.975-.3977-.97-.7656-.005-.4574.512-.7557 1.169-.7557.735 0 1.173.4027 1.277.8949z" fill="#000"/><rect height="55.5" rx="4.25" stroke="#000" stroke-width="1.5" width="191.5" x="60.75" y="60.75"/><path d="m294.707 89.2071c.391-.3905.391-1.0237 0-1.4142l-6.364-6.364c-.39-.3905-1.024-.3905-1.414 0-.391.3906-.391 1.0237 0 1.4142l5.657 5.6569-5.657 5.6569c-.391.3905-.391 1.0236 0 1.4142.39.3905 1.024.3905 1.414 0zm-25.707.2929h25v-2h-25z" fill="#000"/><rect fill="#fff" height="55.5" rx="4.25" width="97.5" x="310.75" y="60.75"/><path d="m339.869 87.3828c-.284-2.3516-2.064-3.7038-4.42-3.7038-2.69 0-4.743 1.8991-4.743 5.2301 0 3.321 2.018 5.2301 4.743 5.2301 2.61 0 4.186-1.7351 4.42-3.6094l-2.178-.0099c-.204 1.0888-1.059 1.7152-2.207 1.7152-1.546 0-2.596-1.1485-2.596-3.326 0-2.1179 1.035-3.326 2.611-3.326 1.178 0 2.028.6811 2.192 1.7997zm1.504 6.6172h2.117v-4.3203c0-.9396.686-1.5859 1.621-1.5859.293 0 .696.0497.895.1143v-1.8793c-.189-.0447-.452-.0745-.666-.0745-.855 0-1.556.4971-1.835 1.4417h-.079v-1.3324h-2.053zm8.853.1491c1.889 0 3.162-.9197 3.46-2.3366l-1.959-.1293c-.214.5817-.761.885-1.467.885-1.058 0-1.73-.701-1.73-1.8395v-.005h5.201v-.5817c0-2.5951-1.571-3.8778-3.59-3.8778-2.247 0-3.704 1.5959-3.704 3.9524 0 2.4212 1.437 3.9325 3.789 3.9325zm-1.696-4.7379c.045-.87.706-1.566 1.646-1.566.92 0 1.556.6562 1.561 1.566zm8.76 4.733c1.129 0 1.86-.4922 2.233-1.2031h.059v1.0589h2.009v-5.1506c0-1.8196-1.541-2.5852-3.242-2.5852-1.829 0-3.032.875-3.326 2.267l1.959.1591c.144-.5071.597-.8799 1.357-.8799.721 0 1.134.3629 1.134.9893v.0298c0 .4922-.522.5569-1.85.6861-1.511.1392-2.868.6463-2.868 2.3516 0 1.5114 1.079 2.277 2.535 2.277zm.607-1.4617c-.651 0-1.119-.3032-1.119-.8849 0-.5966.492-.8899 1.238-.9943.463-.0647 1.218-.174 1.472-.3431v.8104c0 .8004-.661 1.4119-1.591 1.4119zm9.399-6.3189h-1.437v-1.8295h-2.118v1.8295h-1.044v1.5909h1.044v3.9773c-.01 1.4965 1.009 2.2372 2.545 2.1726.547-.0199.935-.1293 1.149-.1989l-.333-1.576c-.105.0199-.328.0696-.527.0696-.423 0-.716-.159-.716-.7457v-3.6989h1.437zm1.379 7.6364h2.118v-7.6364h-2.118zm1.064-8.6207c.632 0 1.149-.4823 1.149-1.0739 0-.5866-.517-1.0689-1.149-1.0689-.626 0-1.143.4823-1.143 1.0689 0 .5916.517 1.0739 1.143 1.0739zm6.201 8.7698c2.317 0 3.759-1.5859 3.759-3.9375 0-2.3664-1.442-3.9474-3.759-3.9474s-3.759 1.581-3.759 3.9474c0 2.3516 1.442 3.9375 3.759 3.9375zm.01-1.6406c-1.069 0-1.616-.9794-1.616-2.3118s.547-2.3167 1.616-2.3167c1.049 0 1.596.9843 1.596 2.3167s-.547 2.3118-1.596 2.3118zm7.244-2.9233c.005-.9843.591-1.5611 1.446-1.5611.85 0 1.362.5569 1.358 1.4915v4.4844h2.117v-4.8622c0-1.7798-1.044-2.8736-2.635-2.8736-1.133 0-1.953.5568-2.296 1.4467h-.09v-1.3473h-2.018v7.6364h2.118z" fill="#000"/><rect height="55.5" rx="4.25" stroke="#000" stroke-width="1.5" width="97.5" x="310.75" y="60.75"/><path d="m450.707 89.2071c.391-.3905.391-1.0237 0-1.4142l-6.364-6.364c-.39-.3905-1.024-.3905-1.414 0-.391.3906-.391 1.0237 0 1.4142l5.657 5.6569-5.657 5.6569c-.391.3905-.391 1.0236 0 1.4142.39.3905 1.024.3905 1.414 0zm-25.707.2929h25v-2h-25z" fill="#000"/><rect fill="#fff" height="55.5" rx="4.25" width="90.5" x="466.75" y="60.75"/><path d="m492.408 86.7464h2.064c-.03-1.8146-1.522-3.0674-3.789-3.0674-2.232 0-3.868 1.2329-3.858 3.0824-.005 1.5014 1.054 2.3615 2.774 2.7741l1.109.2784c1.109.2685 1.725.5867 1.73 1.2727-.005.7458-.711 1.2529-1.804 1.2529-1.119 0-1.924-.5171-1.994-1.5362h-2.083c.055 2.2024 1.631 3.3409 4.101 3.3409 2.486 0 3.948-1.1882 3.953-3.0526-.005-1.6953-1.283-2.5952-3.053-2.9929l-.915-.2187c-.884-.2039-1.625-.532-1.61-1.2628 0-.6563.581-1.1385 1.635-1.1385 1.029 0 1.661.4673 1.74 1.2677zm3.611 7.2536h2.118v-7.6364h-2.118zm1.064-8.6207c.631 0 1.148-.4823 1.148-1.0739 0-.5866-.517-1.0689-1.148-1.0689-.627 0-1.144.4823-1.144 1.0689 0 .5916.517 1.0739 1.144 1.0739zm6.191 11.6434c2.182 0 3.733-.9943 3.733-2.9481v-7.711h-2.103v1.2827h-.079c-.283-.6214-.905-1.3821-2.183-1.3821-1.675 0-3.092 1.3026-3.092 3.9027 0 2.5405 1.377 3.7237 3.097 3.7237 1.218 0 1.9-.6115 2.178-1.2429h.089v1.397c0 1.0491-.671 1.4567-1.59 1.4567-.935 0-1.407-.4076-1.581-.87l-1.959.2635c.253 1.2031 1.432 2.1278 3.49 2.1278zm.045-4.723c-1.04 0-1.606-.8253-1.606-2.1427 0-1.2976.557-2.2074 1.606-2.2074 1.029 0 1.605.87 1.605 2.2074 0 1.3473-.586 2.1427-1.605 2.1427zm7.492-2.7145c.005-.9843.591-1.5611 1.446-1.5611.851 0 1.363.5569 1.358 1.4915v4.4844h2.118v-4.8622c0-1.7798-1.044-2.8736-2.635-2.8736-1.134 0-1.954.5568-2.297 1.4467h-.09v-1.3473h-2.018v7.6364h2.118zm6.591 4.4148h2.118v-7.6364h-2.118zm1.064-8.6207c.631 0 1.148-.4823 1.148-1.0739 0-.5866-.517-1.0689-1.148-1.0689-.627 0-1.144.4823-1.144 1.0689 0 .5916.517 1.0739 1.144 1.0739zm4.868 4.2059c.005-.9843.592-1.5611 1.447-1.5611.85 0 1.362.5569 1.357 1.4915v4.4844h2.118v-4.8622c0-1.7798-1.044-2.8736-2.635-2.8736-1.133 0-1.954.5568-2.297 1.4467h-.089v-1.3473h-2.019v7.6364h2.118zm10.032 7.4375c2.182 0 3.733-.9943 3.733-2.9481v-7.711h-2.103v1.2827h-.079c-.284-.6214-.905-1.3821-2.183-1.3821-1.675 0-3.092 1.3026-3.092 3.9027 0 2.5405 1.377 3.7237 3.097 3.7237 1.218 0 1.899-.6115 2.178-1.2429h.089v1.397c0 1.0491-.671 1.4567-1.591 1.4567-.934 0-1.407-.4076-1.581-.87l-1.958.2635c.253 1.2031 1.431 2.1278 3.49 2.1278zm.044-4.723c-1.039 0-1.605-.8253-1.605-2.1427 0-1.2976.556-2.2074 1.605-2.2074 1.029 0 1.606.87 1.606 2.2074 0 1.3473-.586 2.1427-1.606 2.1427z" fill="#000"/><rect height="55.5" rx="4.25" stroke="#000" stroke-width="1.5" width="90.5" x="466.75" y="60.75"/><path d="m599.707 89.2071c.391-.3905.391-1.0237 0-1.4142l-6.364-6.364c-.39-.3905-1.024-.3905-1.414 0-.391.3906-.391 1.0237 0 1.4142l5.657 5.6569-5.657 5.6569c-.391.3905-.391 1.0236 0 1.4142.39.3905 1.024.3905 1.414 0zm-25.707.2929h25v-2h-25z" fill="#000"/><rect fill="#fff" height="55.5" rx="4.25" width="130.5" x="615.75" y="60.75"/><path d="m635.885 94h4.35c2.287 0 3.505-1.1932 3.505-2.8139 0-1.5064-1.079-2.4162-2.237-2.4709v-.0994c1.059-.2387 1.839-.9894 1.839-2.1875 0-1.5263-1.133-2.6101-3.38-2.6101h-4.077zm2.153-1.7599v-2.7046h1.804c1.034 0 1.676.5966 1.676 1.4368 0 .7656-.522 1.2678-1.725 1.2678zm0-4.1613v-2.5206h1.635c.955 0 1.497.4922 1.497 1.228 0 .8054-.657 1.2926-1.536 1.2926zm7.063 5.9212h2.118v-4.3203c0-.9396.686-1.5859 1.621-1.5859.293 0 .696.0497.895.1143v-1.8793c-.189-.0447-.453-.0745-.667-.0745-.855 0-1.556.4971-1.834 1.4417h-.08v-1.3324h-2.053zm8.823.1491c2.317 0 3.759-1.5859 3.759-3.9375 0-2.3664-1.442-3.9474-3.759-3.9474-2.316 0-3.758 1.581-3.758 3.9474 0 2.3516 1.442 3.9375 3.758 3.9375zm.01-1.6406c-1.069 0-1.615-.9794-1.615-2.3118s.546-2.3167 1.615-2.3167c1.049 0 1.596.9843 1.596 2.3167s-.547 2.3118-1.596 2.3118zm7.304 1.6357c1.128 0 1.859-.4922 2.232-1.2031h.059v1.0589h2.009v-5.1506c0-1.8196-1.541-2.5852-3.241-2.5852-1.83 0-3.033.875-3.326 2.267l1.958.1591c.145-.5071.597-.8799 1.358-.8799.72 0 1.133.3629 1.133.9893v.0298c0 .4922-.522.5569-1.849.6861-1.512.1392-2.869.6463-2.869 2.3516 0 1.5114 1.079 2.277 2.536 2.277zm.606-1.4617c-.651 0-1.119-.3032-1.119-.8849 0-.5966.493-.8899 1.238-.9943.463-.0647 1.218-.174 1.472-.3431v.8104c0 .8004-.661 1.4119-1.591 1.4119zm8.151 1.4418c1.233 0 1.874-.7109 2.168-1.3473h.089v1.223h2.088v-10.1818h-2.113v3.8281h-.064c-.284-.6214-.895-1.3821-2.173-1.3821-1.675 0-3.092 1.3026-3.092 3.9276 0 2.5554 1.357 3.9325 3.097 3.9325zm.671-1.6854c-1.039 0-1.606-.9247-1.606-2.2571 0-1.3224.557-2.2322 1.606-2.2322 1.029 0 1.606.87 1.606 2.2322s-.587 2.2571-1.606 2.2571zm8.866 1.7102c2.033 0 3.311-1.1931 3.41-2.9481h-1.998c-.125.8153-.662 1.2727-1.387 1.2727-.99 0-1.631-.8302-1.631-2.2919 0-1.4417.646-2.267 1.631-2.267.775 0 1.272.512 1.387 1.2727h1.998c-.089-1.7649-1.427-2.9233-3.42-2.9233-2.317 0-3.749 1.6058-3.749 3.9474 0 2.3218 1.407 3.9375 3.759 3.9375zm6.944-.0049c1.128 0 1.859-.4922 2.232-1.2031h.06v1.0589h2.008v-5.1506c0-1.8196-1.541-2.5852-3.241-2.5852-1.83 0-3.033.875-3.326 2.267l1.959.1591c.144-.5071.596-.8799 1.357-.8799.721 0 1.133.3629 1.133.9893v.0298c0 .4922-.522.5569-1.849.6861-1.511.1392-2.869.6463-2.869 2.3516 0 1.5114 1.079 2.277 2.536 2.277zm.606-1.4617c-.651 0-1.118-.3032-1.118-.8849 0-.5966.492-.8899 1.238-.9943.462-.0647 1.218-.174 1.471-.3431v.8104c0 .8004-.661 1.4119-1.591 1.4119zm11.691-4.1413c-.189-1.407-1.322-2.277-3.251-2.277-1.954 0-3.242.9048-3.237 2.3764-.005 1.1435.716 1.8843 2.208 2.1826l1.322.2634c.666.1343.969.3779.979.7607-.01.4524-.502.7756-1.243.7756-.755 0-1.257-.3232-1.387-.9446l-2.083.1093c.199 1.4617 1.442 2.3615 3.466 2.3615 1.978 0 3.395-1.0092 3.4-2.5156-.005-1.1037-.726-1.7649-2.207-2.0682l-1.382-.2784c-.711-.1541-.975-.3977-.97-.7656-.005-.4574.512-.7557 1.168-.7557.736 0 1.174.4027 1.278.8949zm5.57-2.1776h-1.437v-1.8295h-2.118v1.8295h-1.044v1.5909h1.044v3.9773c-.01 1.4965 1.009 2.2372 2.545 2.1726.547-.0199.935-.1293 1.149-.1989l-.333-1.576c-.105.0199-.329.0696-.527.0696-.423 0-.716-.159-.716-.7457v-3.6989h1.437zm1.379 7.6364h2.118v-7.6364h-2.118zm1.064-8.6207c.631 0 1.148-.4823 1.148-1.0739 0-.5866-.517-1.0689-1.148-1.0689-.626 0-1.143.4823-1.143 1.0689 0 .5916.517 1.0739 1.143 1.0739zm4.868 4.2059c.005-.9843.592-1.5611 1.447-1.5611.85 0 1.362.5569 1.357 1.4915v4.4844h2.118v-4.8622c0-1.7798-1.044-2.8736-2.635-2.8736-1.133 0-1.953.5568-2.296 1.4467h-.09v-1.3473h-2.018v7.6364h2.117zm10.032 7.4375c2.182 0 3.734-.9943 3.734-2.9481v-7.711h-2.103v1.2827h-.08c-.283-.6214-.905-1.3821-2.182-1.3821-1.676 0-3.093 1.3026-3.093 3.9027 0 2.5405 1.377 3.7237 3.097 3.7237 1.219 0 1.9-.6115 2.178-1.2429h.09v1.397c0 1.0491-.672 1.4567-1.591 1.4567-.935 0-1.407-.4076-1.581-.87l-1.959.2635c.253 1.2031 1.432 2.1278 3.49 2.1278zm.045-4.723c-1.039 0-1.606-.8253-1.606-2.1427 0-1.2976.557-2.2074 1.606-2.2074 1.029 0 1.605.87 1.605 2.2074 0 1.3473-.586 2.1427-1.605 2.1427z" fill="#000"/><rect height="55.5" rx="4.25" stroke="#000" stroke-width="1.5" width="130.5" x="615.75" y="60.75"/><path d="m788.707 89.2071c.391-.3905.391-1.0237 0-1.4142l-6.364-6.364c-.39-.3905-1.024-.3905-1.414 0-.391.3906-.391 1.0237 0 1.4142l5.657 5.6569-5.657 5.6569c-.391.3905-.391 1.0236 0 1.4142.39.3905 1.024.3905 1.414 0zm-25.707.2929h25v-2h-25z" fill="#000"/><rect fill="#fff" height="55.5" rx="4.25" width="107.5" x="804.75" y="60.75"/><path d="m826.724 83.8182h-2.391l3.515 10.1818h2.774l3.51-10.1818h-2.386l-2.466 7.7358h-.095zm9.924 10.326c1.128 0 1.859-.4922 2.232-1.2031h.06v1.0589h2.008v-5.1506c0-1.8196-1.541-2.5852-3.241-2.5852-1.83 0-3.033.875-3.326 2.267l1.958.1591c.145-.5071.597-.8799 1.358-.8799.721 0 1.133.3629 1.133.9893v.0298c0 .4922-.522.5569-1.849.6861-1.512.1392-2.869.6463-2.869 2.3516 0 1.5114 1.079 2.277 2.536 2.277zm.606-1.4617c-.651 0-1.118-.3032-1.118-.8849 0-.5966.492-.8899 1.238-.9943.462-.0647 1.218-.174 1.471-.3431v.8104c0 .8004-.661 1.4119-1.591 1.4119zm7.455-8.8643h-2.118v10.1818h2.118zm1.697 10.1818h2.118v-7.6364h-2.118zm1.064-8.6207c.631 0 1.148-.4823 1.148-1.0739 0-.5866-.517-1.0689-1.148-1.0689-.627 0-1.144.4823-1.144 1.0689 0 .5916.517 1.0739 1.144 1.0739zm5.564 8.745c1.233 0 1.874-.7109 2.168-1.3473h.089v1.223h2.088v-10.1818h-2.113v3.8281h-.064c-.284-.6214-.895-1.3821-2.173-1.3821-1.675 0-3.092 1.3026-3.092 3.9276 0 2.5554 1.357 3.9325 3.097 3.9325zm.671-1.6854c-1.039 0-1.606-.9247-1.606-2.2571 0-1.3224.557-2.2322 1.606-2.2322 1.029 0 1.606.87 1.606 2.2322s-.587 2.2571-1.606 2.2571zm7.593 1.7053c1.129 0 1.859-.4922 2.232-1.2031h.06v1.0589h2.009v-5.1506c0-1.8196-1.542-2.5852-3.242-2.5852-1.829 0-3.033.875-3.326 2.267l1.959.1591c.144-.5071.596-.8799 1.357-.8799.721 0 1.134.3629 1.134.9893v.0298c0 .4922-.522.5569-1.85.6861-1.511.1392-2.868.6463-2.868 2.3516 0 1.5114 1.078 2.277 2.535 2.277zm.607-1.4617c-.652 0-1.119-.3032-1.119-.8849 0-.5966.492-.8899 1.238-.9943.462-.0647 1.218-.174 1.472-.3431v.8104c0 .8004-.662 1.4119-1.591 1.4119zm9.398-6.3189h-1.436v-1.8295h-2.118v1.8295h-1.044v1.5909h1.044v3.9773c-.01 1.4965 1.009 2.2372 2.545 2.1726.547-.0199.935-.1293 1.149-.1989l-.333-1.576c-.105.0199-.329.0696-.527.0696-.423 0-.716-.159-.716-.7457v-3.6989h1.436zm1.38 7.6364h2.118v-7.6364h-2.118zm1.064-8.6207c.631 0 1.148-.4823 1.148-1.0739 0-.5866-.517-1.0689-1.148-1.0689-.626 0-1.143.4823-1.143 1.0689 0 .5916.517 1.0739 1.143 1.0739zm6.201 8.7698c2.317 0 3.758-1.5859 3.758-3.9375 0-2.3664-1.441-3.9474-3.758-3.9474s-3.759 1.581-3.759 3.9474c0 2.3516 1.442 3.9375 3.759 3.9375zm.01-1.6406c-1.069 0-1.616-.9794-1.616-2.3118s.547-2.3167 1.616-2.3167c1.049 0 1.596.9843 1.596 2.3167s-.547 2.3118-1.596 2.3118zm7.243-2.9233c.005-.9843.592-1.5611 1.447-1.5611.85 0 1.362.5569 1.357 1.4915v4.4844h2.118v-4.8622c0-1.7798-1.044-2.8736-2.635-2.8736-1.133 0-1.954.5568-2.297 1.4467h-.089v-1.3473h-2.019v7.6364h2.118z" fill="#000"/><rect height="55.5" rx="4.25" stroke="#000" stroke-width="1.5" width="107.5" x="804.75" y="60.75"/><path d="m954.707 89.2071c.391-.3905.391-1.0237 0-1.4142l-6.364-6.364c-.39-.3905-1.024-.3905-1.414 0-.391.3906-.391 1.0237 0 1.4142l5.657 5.6569-5.657 5.6569c-.391.3905-.391 1.0236 0 1.4142.39.3905 1.024.3905 1.414 0zm-25.707.2929h25v-2h-25z" fill="#000"/><rect fill="#fff" height="55.5" rx="4.25" width="122.5" x="970.75" y="60.75"/><path d="m990.885 94h2.153v-3.3011h1.809c2.342 0 3.704-1.3971 3.704-3.4304 0-2.0235-1.337-3.4503-3.649-3.4503h-4.017zm2.153-5.0263v-3.3956h1.451c1.243 0 1.845.6762 1.845 1.6904 0 1.0092-.602 1.7052-1.835 1.7052zm6.872 5.0263h2.12v-4.3203c0-.9396.68-1.5859 1.62-1.5859.29 0 .69.0497.89.1143v-1.8793c-.19-.0447-.45-.0745-.66-.0745-.86 0-1.56.4971-1.84 1.4417h-.08v-1.3324h-2.05zm8.82.1491c2.32 0 3.76-1.5859 3.76-3.9375 0-2.3664-1.44-3.9474-3.76-3.9474-2.31 0-3.76 1.581-3.76 3.9474 0 2.3516 1.45 3.9375 3.76 3.9375zm.01-1.6406c-1.07 0-1.61-.9794-1.61-2.3118s.54-2.3167 1.61-2.3167c1.05 0 1.6.9843 1.6 2.3167s-.55 2.3118-1.6 2.3118zm5.13 4.3551h2.12v-4.0866h.06c.29.6364.94 1.3473 2.17 1.3473 1.74 0 3.1-1.3771 3.1-3.9325 0-2.625-1.42-3.9276-3.1-3.9276-1.27 0-1.89.7607-2.17 1.3821h-.09v-1.2827h-2.09zm2.07-6.6818c0-1.3622.58-2.2322 1.61-2.2322 1.05 0 1.6.9098 1.6 2.2322 0 1.3324-.56 2.2571-1.6 2.2571-1.02 0-1.61-.8949-1.61-2.2571zm8.97 3.9624c1.12 0 1.85-.4922 2.23-1.2031h.06v1.0589h2.01v-5.1506c0-1.8196-1.55-2.5852-3.25-2.5852-1.83 0-3.03.875-3.32 2.267l1.96.1591c.14-.5071.59-.8799 1.35-.8799.73 0 1.14.3629 1.14.9893v.0298c0 .4922-.52.5569-1.85.6861-1.51.1392-2.87.6463-2.87 2.3516 0 1.5114 1.08 2.277 2.54 2.277zm.6-1.4617c-.65 0-1.12-.3032-1.12-.8849 0-.5966.5-.8899 1.24-.9943.46-.0647 1.22-.174 1.47-.3431v.8104c0 .8004-.66 1.4119-1.59 1.4119zm8.78 4.3402c2.18 0 3.73-.9943 3.73-2.9481v-7.711h-2.1v1.2827h-.08c-.28-.6214-.9-1.3821-2.18-1.3821-1.68 0-3.09 1.3026-3.09 3.9027 0 2.5405 1.37 3.7237 3.09 3.7237 1.22 0 1.9-.6115 2.18-1.2429h.09v1.397c0 1.0491-.67 1.4567-1.59 1.4567-.94 0-1.41-.4076-1.58-.87l-1.96.2635c.25 1.2031 1.43 2.1278 3.49 2.1278zm.04-4.723c-1.03 0-1.6-.8253-1.6-2.1427 0-1.2976.56-2.2074 1.6-2.2074 1.03 0 1.61.87 1.61 2.2074 0 1.3473-.59 2.1427-1.61 2.1427zm7.56 1.8445c1.12 0 1.86-.4922 2.23-1.2031h.06v1.0589h2.01v-5.1506c0-1.8196-1.54-2.5852-3.25-2.5852-1.82 0-3.03.875-3.32 2.267l1.96.1591c.14-.5071.59-.8799 1.36-.8799.72 0 1.13.3629 1.13.9893v.0298c0 .4922-.52.5569-1.85.6861-1.51.1392-2.87.6463-2.87 2.3516 0 1.5114 1.08 2.277 2.54 2.277zm.6-1.4617c-.65 0-1.12-.3032-1.12-.8849 0-.5966.5-.8899 1.24-.9943.46-.0647 1.22-.174 1.47-.3431v.8104c0 .8004-.66 1.4119-1.59 1.4119zm9.4-6.3189h-1.44v-1.8295h-2.11v1.8295h-1.05v1.5909h1.05v3.9773c-.01 1.4965 1.01 2.2372 2.54 2.1726.55-.0199.94-.1293 1.15-.1989l-.33-1.576c-.11.0199-.33.0696-.53.0696-.42 0-.72-.159-.72-.7457v-3.6989h1.44zm1.38 7.6364h2.12v-7.6364h-2.12zm1.06-8.6207c.64 0 1.15-.4823 1.15-1.0739 0-.5866-.51-1.0689-1.15-1.0689-.62 0-1.14.4823-1.14 1.0689 0 .5916.52 1.0739 1.14 1.0739zm6.21 8.7698c2.31 0 3.75-1.5859 3.75-3.9375 0-2.3664-1.44-3.9474-3.75-3.9474-2.32 0-3.76 1.581-3.76 3.9474 0 2.3516 1.44 3.9375 3.76 3.9375zm.01-1.6406c-1.07 0-1.62-.9794-1.62-2.3118s.55-2.3167 1.62-2.3167c1.04 0 1.59.9843 1.59 2.3167s-.55 2.3118-1.59 2.3118zm7.24-2.9233c0-.9843.59-1.5611 1.45-1.5611.85 0 1.36.5569 1.35 1.4915v4.4844h2.12v-4.8622c0-1.7798-1.04-2.8736-2.63-2.8736-1.14 0-1.96.5568-2.3 1.4467h-.09v-1.3473h-2.02v7.6364h2.12z" fill="#000"/><rect height="55.5" rx="4.25" stroke="#000" stroke-width="1.5" width="122.5" x="970.75" y="60.75"/><path d="m1135.71 89.2071c.39-.3905.39-1.0237 0-1.4142l-6.37-6.364c-.39-.3905-1.02-.3905-1.41 0-.39.3906-.39 1.0237 0 1.4142l5.66 5.6569-5.66 5.6569c-.39.3905-.39 1.0236 0 1.4142.39.3905 1.02.3905 1.41 0zm-25.71.2929h25v-2h-25z" fill="#000"/><rect fill="#fff" height="55.5" rx="4.25" width="137.5" x="1151.75" y="60.75"/><path d="m1180.87 87.3828c-.28-2.3516-2.06-3.7038-4.42-3.7038-2.69 0-4.74 1.8991-4.74 5.2301 0 3.321 2.01 5.2301 4.74 5.2301 2.61 0 4.18-1.7351 4.42-3.6094l-2.18-.0099c-.2 1.0888-1.06 1.7152-2.21 1.7152-1.54 0-2.59-1.1485-2.59-3.326 0-2.1179 1.03-3.326 2.61-3.326 1.18 0 2.03.6811 2.19 1.7997zm4.95 6.7663c2.32 0 3.76-1.5859 3.76-3.9375 0-2.3664-1.44-3.9474-3.76-3.9474-2.31 0-3.76 1.581-3.76 3.9474 0 2.3516 1.45 3.9375 3.76 3.9375zm.01-1.6406c-1.07 0-1.61-.9794-1.61-2.3118s.54-2.3167 1.61-2.3167c1.05 0 1.6.9843 1.6 2.3167s-.55 2.3118-1.6 2.3118zm7.25-2.9233c0-.9843.59-1.5611 1.44-1.5611s1.37.5569 1.36 1.4915v4.4844h2.12v-4.8622c0-1.7798-1.05-2.8736-2.64-2.8736-1.13 0-1.95.5568-2.29 1.4467h-.09v-1.3473h-2.02v7.6364h2.12zm10.69-3.2216h-1.51v-.512c0-.5171.21-.8204.83-.8204.25 0 .51.0547.68.1094l.37-1.5909c-.26-.0795-.84-.2088-1.49-.2088-1.44 0-2.51.8104-2.51 2.4709v.5518h-1.08v1.5909h1.08v6.0455h2.12v-6.0455h1.51zm1.3 7.6364h2.12v-7.6364h-2.12zm1.06-8.6207c.63 0 1.15-.4823 1.15-1.0739 0-.5866-.52-1.0689-1.15-1.0689-.62 0-1.14.4823-1.14 1.0689 0 .5916.52 1.0739 1.14 1.0739zm2.75 8.6207h2.12v-4.3203c0-.9396.69-1.5859 1.62-1.5859.29 0 .7.0497.9.1143v-1.8793c-.19-.0447-.46-.0745-.67-.0745-.86 0-1.56.4971-1.83 1.4417h-.08v-1.3324h-2.06zm5.73 0h2.12v-4.5838c0-.8452.54-1.407 1.24-1.407s1.16.4773 1.16 1.228v4.7628h2.06v-4.6634c0-.7904.45-1.3274 1.22-1.3274.68 0 1.18.4226 1.18 1.2728v4.718h2.12v-5.1357c0-1.6555-.99-2.6001-2.41-2.6001-1.12 0-1.99.5717-2.3 1.4467h-.08c-.24-.8849-1.02-1.4467-2.07-1.4467-1.03 0-1.81.5469-2.13 1.4467h-.09v-1.3473h-2.02zm14.95.1442c1.13 0 1.86-.4922 2.23-1.2031h.06v1.0589h2.01v-5.1506c0-1.8196-1.54-2.5852-3.24-2.5852-1.83 0-3.04.875-3.33 2.267l1.96.1591c.14-.5071.6-.8799 1.36-.8799.72 0 1.13.3629 1.13.9893v.0298c0 .4922-.52.5569-1.85.6861-1.51.1392-2.87.6463-2.87 2.3516 0 1.5114 1.08 2.277 2.54 2.277zm.6-1.4617c-.65 0-1.11-.3032-1.11-.8849 0-.5966.49-.8899 1.23-.9943.47-.0647 1.22-.174 1.48-.3431v.8104c0 .8004-.67 1.4119-1.6 1.4119zm9.4-6.3189h-1.43v-1.8295h-2.12v1.8295h-1.05v1.5909h1.05v3.9773c-.01 1.4965 1.01 2.2372 2.54 2.1726.55-.0199.94-.1293 1.15-.1989l-.33-1.576c-.11.0199-.33.0696-.53.0696-.42 0-.71-.159-.71-.7457v-3.6989h1.43zm1.38 7.6364h2.12v-7.6364h-2.12zm1.07-8.6207c.63 0 1.15-.4823 1.15-1.0739 0-.5866-.52-1.0689-1.15-1.0689s-1.15.4823-1.15 1.0689c0 .5916.52 1.0739 1.15 1.0739zm6.2 8.7698c2.31 0 3.76-1.5859 3.76-3.9375 0-2.3664-1.45-3.9474-3.76-3.9474-2.32 0-3.76 1.581-3.76 3.9474 0 2.3516 1.44 3.9375 3.76 3.9375zm.01-1.6406c-1.07 0-1.62-.9794-1.62-2.3118s.55-2.3167 1.62-2.3167c1.05 0 1.59.9843 1.59 2.3167s-.54 2.3118-1.59 2.3118zm7.24-2.9233c.01-.9843.59-1.5611 1.45-1.5611.85 0 1.36.5569 1.36 1.4915v4.4844h2.11v-4.8622c0-1.7798-1.04-2.8736-2.63-2.8736-1.14 0-1.96.5568-2.3 1.4467h-.09v-1.3473h-2.02v7.6364h2.12zm12.95-1.044c-.19-1.407-1.33-2.277-3.26-2.277-1.95 0-3.24.9048-3.23 2.3764-.01 1.1435.71 1.8843 2.21 2.1826l1.32.2634c.66.1343.97.3779.98.7607-.01.4524-.5.7756-1.25.7756s-1.25-.3232-1.38-.9446l-2.09.1093c.2 1.4617 1.45 2.3615 3.47 2.3615 1.98 0 3.39-1.0092 3.4-2.5156-.01-1.1037-.73-1.7649-2.21-2.0682l-1.38-.2784c-.71-.1541-.97-.3977-.97-.7656 0-.4574.51-.7557 1.17-.7557.74 0 1.17.4027 1.28.8949z" fill="#000"/><rect height="55.5" rx="4.25" stroke="#000" stroke-width="1.5" width="137.5" x="1151.75" y="60.75"/><path d="m63.1768 179h2.0981l1.9339-6.657h.0796l1.9389 6.657h2.098l2.9133-10.182h-2.3515l-1.6854 7.09h-.0895l-1.8544-7.09h-2.0135l-1.8594 7.075h-.0845l-1.6853-7.075h-2.3516zm12.9299 0 .7557-2.322h3.674l.7557 2.322h2.3068l-3.5099-10.182h-2.7742l-3.5149 10.182zm1.3026-4.002 1.2528-3.853h.0796l1.2528 3.853zm7.4151 4.002h6.5178v-1.775h-4.3651v-8.407h-2.1527zm7.9434 0h6.5177v-1.775h-4.365v-8.407h-2.1527zm7.9432 0h6.881v-1.775h-4.728v-2.431h4.355v-1.775h-4.355v-2.426h4.708v-1.775h-6.861zm8.185-8.407h3.117v8.407h2.128v-8.407h3.117v-1.775h-8.362zm22.336 3.316c0-3.331-2.068-5.23-4.768-5.23-2.715 0-4.768 1.899-4.768 5.23 0 3.316 2.053 5.23 4.768 5.23 2.7 0 4.768-1.899 4.768-5.23zm-2.183 0c0 2.158-1.024 3.326-2.585 3.326-1.566 0-2.585-1.168-2.585-3.326s1.019-3.326 2.585-3.326c1.561 0 2.585 1.168 2.585 3.326zm5.686 5.091h2.098l1.934-6.657h.08l1.939 6.657h2.098l2.913-10.182h-2.351l-1.686 7.09h-.089l-1.855-7.09h-2.013l-1.859 7.075h-.085l-1.685-7.075h-2.352zm20.731-10.182h-2.143v6.404h-.09l-4.394-6.404h-1.89v10.182h2.153v-6.408h.075l4.429 6.408h1.86zm1.778 10.182h6.881v-1.775h-4.728v-2.431h4.355v-1.775h-4.355v-2.426h4.708v-1.775h-6.861zm8.573 0h2.152v-3.609h1.571l1.929 3.609h2.377l-2.163-3.957c1.158-.498 1.8-1.507 1.8-2.899 0-2.023-1.338-3.326-3.649-3.326h-4.017zm2.152-5.339v-3.083h1.452c1.243 0 1.844.552 1.844 1.566 0 1.009-.601 1.517-1.834 1.517zm12.559-1.915h2.063c-.03-1.814-1.522-3.067-3.789-3.067-2.232 0-3.868 1.233-3.858 3.082-.005 1.502 1.054 2.362 2.775 2.775l1.108.278c1.109.268 1.725.587 1.73 1.273-.005.745-.711 1.252-1.804 1.252-1.119 0-1.924-.517-1.994-1.536h-2.083c.055 2.203 1.631 3.341 4.102 3.341 2.485 0 3.947-1.188 3.952-3.052-.005-1.696-1.283-2.596-3.053-2.993l-.914-.219c-.885-.204-1.626-.532-1.611-1.263 0-.656.581-1.138 1.635-1.138 1.03 0 1.661.467 1.741 1.267z" fill="#000"/><rect fill="#fde9d1" height="688" rx="2.5" transform="matrix(0 -1 1 0 -92 212)" width="5" x="60" y="152"/><path d="m812.401 168.818h-2.142v6.404h-.09l-4.395-6.404h-1.889v10.182h2.153v-6.408h.074l4.43 6.408h1.859zm1.779 10.182h6.881v-1.775h-4.728v-2.431h4.355v-1.775h-4.355v-2.426h4.708v-1.775h-6.861zm8.184-8.407h3.118v8.407h2.127v-8.407h3.118v-1.775h-8.363zm12.032 8.407h2.098l1.934-6.657h.079l1.939 6.657h2.098l2.913-10.182h-2.351l-1.686 7.09h-.089l-1.854-7.09h-2.014l-1.859 7.075h-.085l-1.685-7.075h-2.352zm20.996-5.091c0-3.331-2.068-5.23-4.768-5.23-2.714 0-4.768 1.899-4.768 5.23 0 3.316 2.054 5.23 4.768 5.23 2.7 0 4.768-1.899 4.768-5.23zm-2.183 0c0 2.158-1.024 3.326-2.585 3.326-1.566 0-2.585-1.168-2.585-3.326s1.019-3.326 2.585-3.326c1.561 0 2.585 1.168 2.585 3.326zm3.778 5.091h2.152v-3.609h1.571l1.929 3.609h2.377l-2.163-3.957c1.158-.498 1.8-1.507 1.8-2.899 0-2.023-1.338-3.326-3.649-3.326h-4.017zm2.152-5.339v-3.083h1.452c1.243 0 1.844.552 1.844 1.566 0 1.009-.601 1.517-1.834 1.517zm7.035 5.339h2.153v-2.893l1.059-1.293 2.789 4.186h2.575l-3.823-5.623 3.778-4.559h-2.58l-3.664 4.49h-.134v-4.49h-2.153zm15.975.149c.89 0 1.854-.248 2.605-.835l.617.686h2.207l-1.531-1.755c.566-.751.924-1.83.924-3.212h-1.755c0 .667-.164 1.258-.432 1.76l-1.68-1.929.596-.427c.855-.617 1.352-1.392 1.352-2.352 0-1.302-1.009-2.401-2.645-2.401-1.67 0-2.779 1.138-2.779 2.615 0 .905.438 1.661.97 2.337-1.109.76-1.855 1.481-1.855 2.659 0 1.606 1.288 2.854 3.406 2.854zm1.462-2.108c-.428.264-.895.408-1.358.408-.885 0-1.456-.547-1.456-1.273 0-.388.263-.835.825-1.243l.06-.04zm-1.527-4.385c-.378-.477-.641-.9-.641-1.322 0-.512.388-.94.979-.945.597-.005.935.413.935.816 0 .427-.234.78-.741 1.103zm9.656-3.838v10.182h2.088v-6.652h.085l2.635 6.602h1.422l2.635-6.577h.084v6.627h2.088v-10.182h-2.654l-2.804 6.841h-.12l-2.804-6.841zm14.964 0h-2.153v10.182h2.153zm10.287 0h-2.143v6.404h-.089l-4.395-6.404h-1.889v10.182h2.152v-6.408h.075l4.43 6.408h1.859zm1.779 10.182h6.88v-1.775h-4.728v-2.431h4.356v-1.775h-4.356v-2.426h4.709v-1.775h-6.861zm8.572 0h2.153v-3.609h1.571l1.929 3.609h2.376l-2.163-3.957c1.159-.498 1.8-1.507 1.8-2.899 0-2.023-1.337-3.326-3.649-3.326h-4.017zm2.153-5.339v-3.083h1.451c1.243 0 1.845.552 1.845 1.566 0 1.009-.602 1.517-1.835 1.517zm12.558-1.915h2.063c-.03-1.814-1.521-3.067-3.788-3.067-2.232 0-3.868 1.233-3.858 3.082-.005 1.502 1.054 2.362 2.774 2.775l1.109.278c1.108.268 1.725.587 1.73 1.273-.005.745-.711 1.252-1.805 1.252-1.119 0-1.924-.517-1.994-1.536h-2.083c.055 2.203 1.631 3.341 4.102 3.341 2.486 0 3.947-1.188 3.952-3.052-.005-1.696-1.282-2.596-3.052-2.993l-.915-.219c-.885-.204-1.626-.532-1.611-1.263 0-.656.582-1.138 1.636-1.138 1.029 0 1.66.467 1.74 1.267z" fill="#000"/><rect fill="#fde9d1" height="487" rx="2.5" transform="matrix(0 -1 1 0 651 955)" width="5" x="803" y="152"/></svg>