<svg fill="none" height="1154" viewBox="0 0 600 1154" width="600" xmlns="http://www.w3.org/2000/svg"><path d="m1 1h598v1152h-598z" fill="#fff"/><path d="m55.5719 59h3.6056l3.3236-11.4405h.1367l3.3322 11.4405h3.6056l5.0068-17.4982h-4.0414l-2.8964 12.1838h-.1538l-3.1869-12.1838h-3.4604l-3.1954 12.1582h-.1453l-2.8964-12.1582h-4.0413zm22.2209 0 1.2987-3.9901h6.314l1.2987 3.9901h3.9644l-6.0321-17.4982h-4.7675l-6.0407 17.4982zm2.2385-6.8779 2.1531-6.6217h.1367l2.1531 6.6217zm12.7434 6.8779h11.2013v-3.0502h-7.5017v-14.448h-3.6996zm13.6513 0h11.201v-3.0502h-7.501v-14.448h-3.7zm13.651 0h11.825v-3.0502h-8.125v-4.1781h7.484v-3.0502h-7.484v-4.1695h8.091v-3.0502h-11.791zm14.066-14.448h5.357v14.448h3.657v-14.448h5.357v-3.0502h-14.371zm38.386 5.6989c0-5.7245-3.554-8.9883-8.194-8.9883-4.665 0-8.193 3.2638-8.193 8.9883 0 5.6989 3.528 8.9883 8.193 8.9883 4.64 0 8.194-3.2638 8.194-8.9883zm-3.751 0c0 3.7081-1.76 5.716-4.443 5.716-2.691 0-4.443-2.0079-4.443-5.716s1.752-5.7159 4.443-5.7159c2.683 0 4.443 2.0078 4.443 5.7159zm9.772 8.7491h3.606l3.324-11.4405h.136l3.333 11.4405h3.605l5.007-17.4982h-4.041l-2.897 12.1838h-.154l-3.187-12.1838h-3.46l-3.195 12.1582h-.146l-2.896-12.1582h-4.041zm35.627-17.4982h-3.683v11.0047h-.153l-7.553-11.0047h-3.247v17.4982h3.7v-11.0133h.128l7.612 11.0133h3.196zm3.057 17.4982h11.824v-3.0502h-8.125v-4.1781h7.485v-3.0502h-7.485v-4.1695h8.091v-3.0502h-11.79zm14.732 0h3.699v-6.203h2.7l3.315 6.203h4.084l-3.716-6.8011c1.99-.8544 3.092-2.5888 3.092-4.9811 0-3.4774-2.298-5.716-6.271-5.716h-6.903zm3.699-9.1763v-5.2973h2.495c2.136 0 3.17.9484 3.17 2.6914 0 1.7344-1.034 2.6059-3.153 2.6059zm21.582-3.2894h3.546c-.051-3.1186-2.614-5.2717-6.51-5.2717-3.837 0-6.648 2.1189-6.631 5.2973-.008 2.5803 1.812 4.0584 4.768 4.7676l1.905.4784c1.906.4614 2.965 1.0082 2.974 2.1873-.009 1.2816-1.222 2.1531-3.102 2.1531-1.922 0-3.306-.8886-3.426-2.6401h-3.58c.094 3.785 2.802 5.7416 7.049 5.7416 4.272 0 6.784-2.042 6.792-5.2461-.008-2.9135-2.204-4.4599-5.246-5.1435l-1.572-.3759c-1.521-.3503-2.794-.9142-2.768-2.1702 0-1.1278 1-1.9566 2.811-1.9566 1.769 0 2.854.8032 2.99 2.1788z" fill="#000"/><rect fill="#f7931a" fill-opacity=".2" height="500" rx="5" transform="matrix(0 -1 1 0 -40 140)" width="15" x="50" y="90"/><rect fill="#fff" height="67" rx="4" width="498" x="51" y="107"/><path d="m83.1236 137.158h3.7594c-.4785-3.46-3.5287-5.895-7.4846-5.895-4.6223 0-8.1851 3.332-8.1851 9.005 0 5.537 3.3321 8.971 8.262 8.971 4.4173 0 7.57-2.794 7.57-7.399v-2.204h-7.3222v2.785h3.7594c-.0513 2.17-1.5294 3.546-3.9901 3.546-2.7768 0-4.5283-2.076-4.5283-5.733 0-3.64 1.8199-5.699 4.4941-5.699 1.9054 0 3.1955.983 3.6654 2.623zm12.6132 12.098c3.2467 0 5.4342-1.58 5.9462-4.015l-3.3659-.223c-.3674 1-1.3073 1.521-2.5205 1.521-1.8199 0-2.9734-1.204-2.9734-3.161v-.009h8.9368v-.999c0-4.46-2.6996-6.665-6.1685-6.665-3.8619 0-6.3653 2.743-6.3653 6.793 0 4.161 2.4692 6.758 6.5106 6.758zm-2.9136-8.142c.0769-1.495 1.2133-2.692 2.8281-2.692 1.5807 0 2.6743 1.128 2.6829 2.692zm18.2928-5.238h-2.469v-3.144h-3.64v3.144h-1.794v2.734h1.794v6.836c-.017 2.571 1.734 3.844 4.375 3.733.939-.034 1.606-.222 1.973-.341l-.572-2.709c-.18.034-.564.12-.906.12-.726 0-1.23-.274-1.23-1.282v-6.357h2.469zm8.008 13.124h3.699v-6.203h2.7l3.315 6.203h4.085l-3.717-6.801c1.991-.854 3.093-2.589 3.093-4.981 0-3.478-2.299-5.716-6.272-5.716h-6.903zm3.699-9.176v-5.298h2.495c2.136 0 3.17.949 3.17 2.692 0 1.734-1.034 2.606-3.153 2.606zm17.791 9.432c3.247 0 5.434-1.58 5.947-4.015l-3.366-.223c-.368 1-1.308 1.521-2.521 1.521-1.82 0-2.973-1.204-2.973-3.161v-.009h8.937v-.999c0-4.46-2.7-6.665-6.169-6.665-3.862 0-6.365 2.743-6.365 6.793 0 4.161 2.469 6.758 6.51 6.758zm-2.913-8.142c.077-1.495 1.213-2.692 2.828-2.692 1.581 0 2.674 1.128 2.683 2.692zm17.242 8.142c3.494 0 5.69-2.05 5.861-5.066h-3.435c-.213 1.401-1.136 2.187-2.384 2.187-1.7 0-2.802-1.427-2.802-3.939 0-2.478 1.111-3.896 2.802-3.896 1.333 0 2.188.88 2.384 2.187h3.435c-.154-3.033-2.452-5.024-5.878-5.024-3.982 0-6.443 2.76-6.443 6.784 0 3.991 2.418 6.767 6.46 6.767zm8.191-.256h3.64v-13.124h-3.64zm1.829-14.815c1.085 0 1.973-.829 1.973-1.846 0-1.008-.888-1.837-1.973-1.837-1.077 0-1.965.829-1.965 1.837 0 1.017.888 1.846 1.965 1.846zm4.727 19.736h3.639v-7.023h.111c.505 1.094 1.607 2.316 3.726 2.316 2.99 0 5.323-2.367 5.323-6.759 0-4.511-2.435-6.75-5.315-6.75-2.196 0-3.247 1.308-3.734 2.376h-.162v-2.205h-3.588zm3.563-11.483c0-2.341.991-3.836 2.759-3.836 1.803 0 2.76 1.563 2.76 3.836 0 2.29-.974 3.879-2.76 3.879-1.751 0-2.759-1.538-2.759-3.879zm11.662 6.562h3.64v-13.124h-3.64zm1.829-14.815c1.085 0 1.973-.829 1.973-1.846 0-1.008-.888-1.837-1.973-1.837-1.077 0-1.966.829-1.966 1.837 0 1.017.889 1.846 1.966 1.846zm10.707 15.071c3.247 0 5.434-1.58 5.947-4.015l-3.366-.223c-.368 1-1.308 1.521-2.521 1.521-1.82 0-2.973-1.204-2.973-3.161v-.009h8.937v-.999c0-4.46-2.7-6.665-6.169-6.665-3.862 0-6.365 2.743-6.365 6.793 0 4.161 2.469 6.758 6.51 6.758zm-2.913-8.142c.077-1.495 1.213-2.692 2.828-2.692 1.581 0 2.674 1.128 2.683 2.692zm14.952.299c.008-1.692 1.017-2.683 2.486-2.683 1.461 0 2.341.957 2.333 2.563v7.707h3.639v-8.356c0-3.059-1.794-4.939-4.528-4.939-1.948 0-3.358.957-3.947 2.487h-.154v-2.316h-3.469v13.124h3.64zm18.308-5.537h-2.47v-3.144h-3.639v3.144h-1.795v2.734h1.795v6.836c-.017 2.571 1.734 3.844 4.374 3.733.94-.034 1.606-.222 1.974-.341l-.573-2.709c-.179.034-.564.12-.905.12-.727 0-1.231-.274-1.231-1.282v-6.357h2.47zm11.024 13.124 1.298-3.99h6.314l1.299 3.99h3.964l-6.032-17.498h-4.767l-6.041 17.498zm2.238-6.878 2.153-6.622h.137l2.153 6.622zm16.9 7.092c2.119 0 3.221-1.222 3.725-2.316h.154v2.102h3.589v-17.498h-3.632v6.579h-.111c-.487-1.068-1.538-2.376-3.733-2.376-2.88 0-5.315 2.239-5.315 6.75 0 4.392 2.333 6.759 5.323 6.759zm1.154-2.897c-1.786 0-2.76-1.589-2.76-3.879 0-2.273.957-3.836 2.76-3.836 1.768 0 2.759 1.495 2.759 3.836s-1.008 3.879-2.759 3.879zm14.142 2.897c2.119 0 3.221-1.222 3.725-2.316h.154v2.102h3.589v-17.498h-3.632v6.579h-.111c-.487-1.068-1.538-2.376-3.733-2.376-2.88 0-5.315 2.239-5.315 6.75 0 4.392 2.333 6.759 5.323 6.759zm1.154-2.897c-1.786 0-2.76-1.589-2.76-3.879 0-2.273.957-3.836 2.76-3.836 1.768 0 2.759 1.495 2.759 3.836s-1.008 3.879-2.759 3.879zm9.306 2.683h3.64v-7.425c0-1.615 1.179-2.725 2.785-2.725.504 0 1.196.085 1.538.196v-3.229c-.324-.077-.777-.129-1.145-.129-1.469 0-2.674.855-3.152 2.478h-.137v-2.29h-3.529zm15.215.256c3.247 0 5.434-1.58 5.947-4.015l-3.367-.223c-.367 1-1.307 1.521-2.52 1.521-1.82 0-2.974-1.204-2.974-3.161v-.009h8.938v-.999c0-4.46-2.7-6.665-6.169-6.665-3.862 0-6.366 2.743-6.366 6.793 0 4.161 2.47 6.758 6.511 6.758zm-2.914-8.142c.077-1.495 1.214-2.692 2.829-2.692 1.58 0 2.674 1.128 2.682 2.692zm22.232-1.495c-.325-2.418-2.273-3.914-5.588-3.914-3.358 0-5.57 1.555-5.562 4.085-.008 1.965 1.23 3.238 3.794 3.75l2.272.453c1.145.231 1.666.65 1.683 1.307-.017.778-.862 1.333-2.136 1.333-1.298 0-2.161-.555-2.383-1.623l-3.58.188c.342 2.512 2.478 4.058 5.955 4.058 3.4 0 5.836-1.734 5.844-4.323-.008-1.897-1.247-3.033-3.793-3.554l-2.376-.479c-1.222-.265-1.674-.683-1.666-1.316-.008-.786.88-1.298 2.008-1.298 1.265 0 2.016.692 2.196 1.538zm13.51 0c-.324-2.418-2.272-3.914-5.588-3.914-3.357 0-5.57 1.555-5.562 4.085-.008 1.965 1.231 3.238 3.794 3.75l2.273.453c1.144.231 1.666.65 1.683 1.307-.017.778-.863 1.333-2.136 1.333-1.299 0-2.162-.555-2.384-1.623l-3.58.188c.342 2.512 2.478 4.058 5.955 4.058 3.401 0 5.836-1.734 5.844-4.323-.008-1.897-1.247-3.033-3.793-3.554l-2.375-.479c-1.222-.265-1.675-.683-1.667-1.316-.008-.786.88-1.298 2.008-1.298 1.265 0 2.017.692 2.196 1.538z" fill="#000"/><rect height="67" rx="4" stroke="#000" stroke-width="2" width="498" x="51" y="107"/><path d="m298.939 222.061c.586.585 1.536.585 2.122 0l9.546-9.546c.585-.586.585-1.536 0-2.122-.586-.585-1.536-.585-2.122 0l-8.485 8.486-8.485-8.486c-.586-.585-1.536-.585-2.122 0-.585.586-.585 1.536 0 2.122zm-.439-31.061v30h3v-30z" fill="#000"/><rect fill="#fff" height="154" rx="4" width="498" x="51" y="238"/><rect fill="#fff" height="65" rx="4" width="124" x="71" y="307"/><path d="m94.1484 348 1.1875-3.648h5.7731l1.188 3.648h3.625l-5.516-16h-4.3591l-5.5235 16zm2.0469-6.289 1.9688-6.055h.125l1.9689 6.055zm11.5897 6.289h3.328v-7.203c0-1.328.844-2.211 1.953-2.211 1.094 0 1.829.75 1.829 1.93v7.484h3.226v-7.328c0-1.242.711-2.086 1.922-2.086 1.062 0 1.859.664 1.859 2v7.414h3.321v-8.07c0-2.602-1.547-4.086-3.782-4.086-1.757 0-3.125.898-3.617 2.273h-.125c-.383-1.39-1.609-2.273-3.258-2.273-1.617 0-2.843.859-3.343 2.273h-.141v-2.117h-3.172zm25.488.234c3.641 0 5.907-2.492 5.907-6.187 0-3.719-2.266-6.203-5.907-6.203-3.64 0-5.906 2.484-5.906 6.203 0 3.695 2.266 6.187 5.906 6.187zm.016-2.578c-1.68 0-2.539-1.539-2.539-3.633 0-2.093.859-3.64 2.539-3.64 1.649 0 2.508 1.547 2.508 3.64 0 2.094-.859 3.633-2.508 3.633zm15.75-2.765c.008 1.609-1.094 2.453-2.289 2.453-1.258 0-2.07-.883-2.078-2.297v-7.047h-3.328v7.641c.008 2.804 1.648 4.515 4.062 4.515 1.805 0 3.102-.929 3.641-2.336h.125v2.18h3.195v-12h-3.328zm9.318-1.828c.008-1.547.93-2.454 2.274-2.454 1.336 0 2.14.875 2.133 2.344v7.047h3.328v-7.641c0-2.797-1.641-4.515-4.141-4.515-1.781 0-3.07.875-3.609 2.273h-.141v-2.117h-3.172v12h3.328zm16.741-5.063h-2.258v-2.875h-3.328v2.875h-1.641v2.5h1.641v6.25c-.016 2.352 1.586 3.516 4 3.414.859-.031 1.468-.203 1.804-.312l-.523-2.477c-.164.031-.516.109-.828.109-.664 0-1.125-.25-1.125-1.172v-5.812h2.258z" fill="#000"/><rect height="65" rx="4" stroke="#000" stroke-width="2" width="124" x="71" y="307"/><rect fill="#fff" height="65" rx="4" width="129" x="204" y="307"/><path d="m227.148 348 1.188-3.648h5.773l1.188 3.648h3.625l-5.516-16h-4.359l-5.524 16zm2.047-6.289 1.969-6.055h.125l1.969 6.055zm15.453 6.484c1.938 0 2.946-1.117 3.407-2.117h.14v1.922h3.282v-16h-3.321v6.016h-.101c-.446-.977-1.407-2.172-3.414-2.172-2.633 0-4.86 2.047-4.86 6.172 0 4.015 2.133 6.179 4.867 6.179zm1.055-2.648c-1.633 0-2.523-1.453-2.523-3.547 0-2.078.875-3.508 2.523-3.508 1.617 0 2.524 1.367 2.524 3.508s-.922 3.547-2.524 3.547zm12.932 2.648c1.937 0 2.945-1.117 3.406-2.117h.141v1.922h3.281v-16h-3.32v6.016h-.102c-.445-.977-1.406-2.172-3.414-2.172-2.633 0-4.859 2.047-4.859 6.172 0 4.015 2.132 6.179 4.867 6.179zm1.054-2.648c-1.632 0-2.523-1.453-2.523-3.547 0-2.078.875-3.508 2.523-3.508 1.618 0 2.524 1.367 2.524 3.508s-.922 3.547-2.524 3.547zm8.51 2.453h3.328v-6.789c0-1.477 1.078-2.492 2.547-2.492.461 0 1.094.078 1.406.179v-2.953c-.296-.07-.71-.117-1.046-.117-1.344 0-2.446.781-2.883 2.266h-.125v-2.094h-3.227zm13.912.234c2.969 0 4.969-1.445 5.438-3.672l-3.078-.203c-.336.914-1.196 1.391-2.305 1.391-1.664 0-2.719-1.102-2.719-2.891v-.007h8.172v-.915c0-4.078-2.469-6.093-5.64-6.093-3.532 0-5.821 2.508-5.821 6.211 0 3.804 2.258 6.179 5.953 6.179zm-2.664-7.445c.071-1.367 1.11-2.461 2.586-2.461 1.446 0 2.446 1.031 2.453 2.461zm20.328-1.367c-.296-2.211-2.078-3.578-5.109-3.578-3.07 0-5.094 1.422-5.086 3.734-.008 1.797 1.125 2.961 3.469 3.43l2.078.414c1.047.211 1.523.594 1.539 1.195-.016.711-.789 1.219-1.953 1.219-1.188 0-1.977-.508-2.18-1.484l-3.273.171c.312 2.297 2.265 3.711 5.445 3.711 3.109 0 5.336-1.586 5.344-3.953-.008-1.734-1.141-2.773-3.469-3.25l-2.172-.437c-1.117-.242-1.531-.625-1.523-1.203-.008-.719.804-1.188 1.836-1.188 1.156 0 1.843.633 2.008 1.406zm12.354 0c-.297-2.211-2.078-3.578-5.109-3.578-3.071 0-5.094 1.422-5.086 3.734-.008 1.797 1.125 2.961 3.468 3.43l2.078.414c1.047.211 1.524.594 1.54 1.195-.016.711-.79 1.219-1.954 1.219-1.187 0-1.976-.508-2.179-1.484l-3.274.171c.313 2.297 2.266 3.711 5.446 3.711 3.109 0 5.336-1.586 5.343-3.953-.007-1.734-1.14-2.773-3.468-3.25l-2.172-.437c-1.117-.242-1.532-.625-1.524-1.203-.008-.719.805-1.188 1.836-1.188 1.156 0 1.844.633 2.008 1.406z" fill="#000"/><rect height="65" rx="4" stroke="#000" stroke-width="2" width="129" x="204" y="307"/><rect fill="#fff" height="65" rx="4" width="77" x="343" y="307"/><path d="m363.391 348h3.382v-6.609h6.508v-2.789h-6.508v-3.813h7.211v-2.789h-10.593zm17.394.234c2.969 0 4.969-1.445 5.438-3.672l-3.078-.203c-.336.914-1.196 1.391-2.305 1.391-1.664 0-2.719-1.102-2.719-2.891v-.007h8.172v-.915c0-4.078-2.469-6.093-5.641-6.093-3.531 0-5.82 2.508-5.82 6.211 0 3.804 2.258 6.179 5.953 6.179zm-2.664-7.445c.07-1.367 1.109-2.461 2.586-2.461 1.445 0 2.445 1.031 2.453 2.461zm15.813 7.445c2.968 0 4.968-1.445 5.437-3.672l-3.078-.203c-.336.914-1.195 1.391-2.305 1.391-1.664 0-2.718-1.102-2.718-2.891v-.007h8.171v-.915c0-4.078-2.468-6.093-5.64-6.093-3.531 0-5.821 2.508-5.821 6.211 0 3.804 2.258 6.179 5.954 6.179zm-2.664-7.445c.07-1.367 1.109-2.461 2.585-2.461 1.446 0 2.446 1.031 2.454 2.461z" fill="#000"/><rect height="65" rx="4" stroke="#000" stroke-dasharray="4 4" stroke-width="2" width="77" x="343" y="307"/><rect fill="#fff" height="65" rx="4" width="101" x="429" y="307"/><path d="m463.508 337.602c-.445-3.696-3.242-5.821-6.945-5.821-4.227 0-7.454 2.985-7.454 8.219 0 5.219 3.172 8.219 7.454 8.219 4.101 0 6.578-2.727 6.945-5.672l-3.422-.016c-.32 1.711-1.664 2.696-3.469 2.696-2.429 0-4.078-1.805-4.078-5.227 0-3.328 1.625-5.227 4.102-5.227 1.851 0 3.187 1.071 3.445 2.829zm7.785 10.632c3.641 0 5.906-2.492 5.906-6.187 0-3.719-2.265-6.203-5.906-6.203s-5.906 2.484-5.906 6.203c0 3.695 2.265 6.187 5.906 6.187zm.016-2.578c-1.68 0-2.539-1.539-2.539-3.633 0-2.093.859-3.64 2.539-3.64 1.648 0 2.507 1.547 2.507 3.64 0 2.094-.859 3.633-2.507 3.633zm8.054 2.344h3.328v-12h-3.328zm1.672-13.547c.992 0 1.805-.758 1.805-1.687 0-.922-.813-1.68-1.805-1.68-.984 0-1.797.758-1.797 1.68 0 .929.813 1.687 1.797 1.687zm7.651 6.61c.007-1.547.929-2.454 2.273-2.454 1.336 0 2.141.875 2.133 2.344v7.047h3.328v-7.641c0-2.797-1.641-4.515-4.141-4.515-1.781 0-3.07.875-3.609 2.273h-.141v-2.117h-3.172v12h3.329zm20.341-1.641c-.297-2.211-2.078-3.578-5.109-3.578-3.07 0-5.094 1.422-5.086 3.734-.008 1.797 1.125 2.961 3.469 3.43l2.078.414c1.047.211 1.523.594 1.539 1.195-.016.711-.789 1.219-1.953 1.219-1.188 0-1.977-.508-2.18-1.484l-3.273.171c.312 2.297 2.265 3.711 5.445 3.711 3.109 0 5.336-1.586 5.344-3.953-.008-1.734-1.141-2.773-3.469-3.25l-2.172-.437c-1.117-.242-1.531-.625-1.523-1.203-.008-.719.804-1.188 1.836-1.188 1.156 0 1.843.633 2.007 1.406z" fill="#000"/><rect height="65" rx="4" stroke="#000" stroke-dasharray="4 4" stroke-width="2" width="101" x="429" y="307"/><rect height="154" rx="4" stroke="#000" stroke-width="2" width="498" x="51" y="238"/><path d="m86.9599 268.628c-.487-4.041-3.5458-6.365-7.5956-6.365-4.6224 0-8.151 3.263-8.151 8.988 0 5.707 3.4688 8.988 8.151 8.988 4.4856 0 7.194-2.982 7.5956-6.203l-3.7423-.017c-.3503 1.871-1.8199 2.948-3.7935 2.948-2.6572 0-4.46-1.974-4.46-5.716 0-3.64 1.7771-5.716 4.4856-5.716 2.0249 0 3.486 1.17 3.7679 3.093zm2.5846 11.372h3.6397v-7.425c0-1.615 1.1791-2.725 2.7854-2.725.5041 0 1.1962.085 1.5379.196v-3.229c-.3247-.077-.7775-.129-1.1449-.129-1.4696 0-2.6743.855-3.1527 2.478h-.1367v-2.29h-3.5287zm15.2145.256c3.247 0 5.434-1.58 5.947-4.015l-3.366-.223c-.368 1-1.308 1.521-2.521 1.521-1.82 0-2.973-1.204-2.973-3.161v-.009h8.937v-.999c0-4.46-2.7-6.665-6.169-6.665-3.862 0-6.3653 2.743-6.3653 6.793 0 4.161 2.4693 6.758 6.5103 6.758zm-2.913-8.142c.077-1.495 1.213-2.692 2.828-2.692 1.58 0 2.674 1.128 2.683 2.692zm15.054 8.134c1.94 0 3.196-.846 3.837-2.068h.102v1.82h3.452v-8.852c0-3.127-2.649-4.443-5.571-4.443-3.144 0-5.212 1.504-5.716 3.897l3.367.273c.247-.872 1.025-1.512 2.332-1.512 1.239 0 1.948.623 1.948 1.7v.051c0 .846-.897.957-3.178 1.179-2.598.24-4.93 1.111-4.93 4.042 0 2.597 1.854 3.913 4.357 3.913zm1.043-2.512c-1.12 0-1.923-.521-1.923-1.521 0-1.025.846-1.529 2.128-1.709.794-.111 2.093-.299 2.529-.589v1.392c0 1.376-1.137 2.427-2.734 2.427zm16.152-10.86h-2.469v-3.144h-3.64v3.144h-1.794v2.734h1.794v6.836c-.017 2.571 1.735 3.844 4.375 3.733.94-.034 1.606-.222 1.973-.341l-.572-2.709c-.179.034-.564.12-.906.12-.726 0-1.23-.274-1.23-1.282v-6.357h2.469zm2.371 13.124h3.64v-13.124h-3.64zm1.829-14.815c1.085 0 1.973-.829 1.973-1.846 0-1.008-.888-1.837-1.973-1.837-1.077 0-1.966.829-1.966 1.837 0 1.017.889 1.846 1.966 1.846zm10.656 15.071c3.982 0 6.459-2.725 6.459-6.767 0-4.067-2.477-6.784-6.459-6.784-3.981 0-6.459 2.717-6.459 6.784 0 4.042 2.478 6.767 6.459 6.767zm.017-2.819c-1.837 0-2.777-1.683-2.777-3.973s.94-3.982 2.777-3.982c1.803 0 2.743 1.692 2.743 3.982s-.94 3.973-2.743 3.973zm12.449-5.024c.008-1.692 1.017-2.683 2.486-2.683 1.461 0 2.341.957 2.333 2.563v7.707h3.639v-8.356c0-3.059-1.794-4.939-4.528-4.939-1.948 0-3.358.957-3.947 2.487h-.154v-2.316h-3.469v13.124h3.64z" fill="#000"/><path d="m298.939 440.061c.586.585 1.536.585 2.122 0l9.546-9.546c.585-.586.585-1.536 0-2.122-.586-.585-1.536-.585-2.122 0l-8.485 8.486-8.485-8.486c-.586-.585-1.536-.585-2.122 0-.585.586-.585 1.536 0 2.122zm-.439-31.061v30h3v-30z" fill="#000"/><rect fill="#fff" height="67" rx="4" width="498" x="51" y="456"/><path d="m81.0133 485.534h3.5457c-.0512-3.118-2.6144-5.271-6.5105-5.271-3.8363 0-6.6473 2.119-6.6302 5.297-.0085 2.58 1.8113 4.058 4.7676 4.767l1.9053.479c1.9053.461 2.9648 1.008 2.9733 2.187-.0085 1.282-1.2218 2.153-3.1015 2.153-1.9224 0-3.3065-.888-3.4261-2.64h-3.58c.094 3.785 2.8025 5.742 7.0489 5.742 4.272 0 6.7839-2.042 6.7925-5.246-.0086-2.914-2.2044-4.46-5.2461-5.144l-1.5721-.376c-1.5208-.35-2.7939-.914-2.7682-2.17 0-1.128.9996-1.956 2.8109-1.956 1.7687 0 2.8538.803 2.9905 2.178zm6.2051 12.466h3.6397v-13.124h-3.6397zm1.8284-14.815c1.0851 0 1.9737-.829 1.9737-1.846 0-1.008-.8886-1.837-1.9737-1.837-1.0766 0-1.9651.829-1.9651 1.837 0 1.017.8885 1.846 1.9651 1.846zm10.6394 20.01c3.7508 0 6.4168-1.709 6.4168-5.067v-13.252h-3.614v2.205h-.137c-.487-1.068-1.555-2.376-3.7508-2.376-2.8794 0-5.3144 2.239-5.3144 6.708 0 4.366 2.3667 6.399 5.3229 6.399 2.0933 0 3.2643-1.051 3.7423-2.136h.154v2.401c0 1.803-1.154 2.503-2.7343 2.503-1.6063 0-2.418-.7-2.717-1.495l-3.3664.453c.4358 2.068 2.4607 3.657 5.9979 3.657zm.0769-8.117c-1.7857 0-2.7597-1.418-2.7597-3.683 0-2.23.9569-3.793 2.7597-3.793 1.7689 0 2.7599 1.495 2.7599 3.793 0 2.316-1.008 3.683-2.7599 3.683zm12.8759-4.665c.009-1.692 1.017-2.683 2.486-2.683 1.461 0 2.341.957 2.333 2.563v7.707h3.64v-8.356c0-3.059-1.795-4.939-4.529-4.939-1.948 0-3.358.957-3.947 2.487h-.154v-2.316h-3.469v13.124h3.64zm11.327 7.587h3.64v-13.124h-3.64zm1.829-14.815c1.085 0 1.973-.829 1.973-1.846 0-1.008-.888-1.837-1.973-1.837-1.077 0-1.965.829-1.965 1.837 0 1.017.888 1.846 1.965 1.846zm8.366 7.228c.009-1.692 1.017-2.683 2.487-2.683 1.461 0 2.341.957 2.332 2.563v7.707h3.64v-8.356c0-3.059-1.794-4.939-4.528-4.939-1.948 0-3.358.957-3.948 2.487h-.153v-2.316h-3.469v13.124h3.639zm17.24 12.782c3.751 0 6.417-1.709 6.417-5.067v-13.252h-3.614v2.205h-.137c-.487-1.068-1.555-2.376-3.751-2.376-2.879 0-5.314 2.239-5.314 6.708 0 4.366 2.366 6.399 5.323 6.399 2.093 0 3.263-1.051 3.742-2.136h.154v2.401c0 1.803-1.154 2.503-2.734 2.503-1.607 0-2.418-.7-2.717-1.495l-3.367.453c.436 2.068 2.461 3.657 5.998 3.657zm.077-8.117c-1.786 0-2.76-1.418-2.76-3.683 0-2.23.957-3.793 2.76-3.793 1.769 0 2.76 1.495 2.76 3.793 0 2.316-1.008 3.683-2.76 3.683z" fill="#000"/><rect height="67" rx="4" stroke="#000" stroke-width="2" width="498" x="51" y="456"/><path d="m298.939 571.061c.586.585 1.536.585 2.122 0l9.546-9.546c.585-.586.585-1.536 0-2.122-.586-.585-1.536-.585-2.122 0l-8.485 8.486-8.485-8.486c-.586-.585-1.536-.585-2.122 0-.585.586-.585 1.536 0 2.122zm-.439-31.061v30h3v-30z" fill="#000"/><rect fill="#fff" height="67" rx="4" width="498" x="51" y="587"/><path d="m71.5208 629h7.4761c3.9302 0 6.0235-2.051 6.0235-4.836 0-2.589-1.854-4.152-3.8448-4.246v-.171c1.8199-.41 3.1613-1.7 3.1613-3.76 0-2.623-1.9481-4.485-5.81-4.485h-7.0061zm3.6996-3.025v-4.648h3.1015c1.7771 0 2.8793 1.026 2.8793 2.47 0 1.315-.8971 2.178-2.9648 2.178zm0-7.151v-4.332h2.811c1.6404 0 2.5717.846 2.5717 2.111 0 1.384-1.1278 2.221-2.6401 2.221zm12.1389 10.176h3.6398v-7.425c0-1.615 1.1791-2.725 2.7854-2.725.5041 0 1.1961.085 1.5379.196v-3.229c-.3247-.077-.7775-.129-1.1449-.129-1.4696 0-2.6743.855-3.1528 2.478h-.1367v-2.29h-3.5287zm15.1637.256c3.981 0 6.459-2.725 6.459-6.767 0-4.067-2.478-6.784-6.459-6.784-3.9817 0-6.4594 2.717-6.4594 6.784 0 4.042 2.4777 6.767 6.4594 6.767zm.017-2.819c-1.837 0-2.7769-1.683-2.7769-3.973s.9399-3.982 2.7769-3.982c1.803 0 2.743 1.692 2.743 3.982s-.94 3.973-2.743 3.973zm12.551 2.811c1.94 0 3.196-.846 3.836-2.068h.103v1.82h3.452v-8.852c0-3.127-2.649-4.443-5.571-4.443-3.144 0-5.212 1.504-5.716 3.897l3.366.273c.248-.872 1.026-1.512 2.333-1.512 1.239 0 1.948.623 1.948 1.7v.051c0 .846-.897.957-3.178 1.179-2.598.24-4.93 1.111-4.93 4.042 0 2.597 1.854 3.913 4.357 3.913zm1.043-2.512c-1.12 0-1.923-.521-1.923-1.521 0-1.025.846-1.529 2.128-1.709.794-.111 2.093-.299 2.529-.589v1.392c0 1.376-1.137 2.427-2.734 2.427zm14.007 2.478c2.119 0 3.222-1.222 3.726-2.316h.153v2.102h3.589v-17.498h-3.631v6.579h-.111c-.487-1.068-1.538-2.376-3.734-2.376-2.879 0-5.314 2.239-5.314 6.75 0 4.392 2.332 6.759 5.322 6.759zm1.154-2.897c-1.786 0-2.76-1.589-2.76-3.879 0-2.273.957-3.836 2.76-3.836 1.769 0 2.76 1.495 2.76 3.836s-1.009 3.879-2.76 3.879zm15.236 2.939c3.495 0 5.69-2.05 5.861-5.066h-3.434c-.214 1.401-1.137 2.187-2.384 2.187-1.701 0-2.803-1.427-2.803-3.939 0-2.478 1.111-3.896 2.803-3.896 1.333 0 2.187.88 2.384 2.187h3.434c-.154-3.033-2.452-5.024-5.878-5.024-3.982 0-6.442 2.76-6.442 6.784 0 3.991 2.418 6.767 6.459 6.767zm11.934-.008c1.939 0 3.195-.846 3.836-2.068h.103v1.82h3.452v-8.852c0-3.127-2.649-4.443-5.571-4.443-3.144 0-5.212 1.504-5.716 3.897l3.366.273c.248-.872 1.025-1.512 2.333-1.512 1.239 0 1.948.623 1.948 1.7v.051c0 .846-.897.957-3.179 1.179-2.597.24-4.93 1.111-4.93 4.042 0 2.597 1.855 3.913 4.358 3.913zm1.042-2.512c-1.119 0-1.922-.521-1.922-1.521 0-1.025.846-1.529 2.127-1.709.795-.111 2.094-.299 2.529-.589v1.392c0 1.376-1.136 2.427-2.734 2.427zm20.092-7.117c-.325-2.418-2.273-3.914-5.588-3.914-3.358 0-5.571 1.555-5.562 4.085-.009 1.965 1.23 3.238 3.793 3.75l2.273.453c1.145.231 1.666.65 1.683 1.307-.017.778-.863 1.333-2.136 1.333-1.299 0-2.162-.555-2.384-1.623l-3.58.188c.342 2.512 2.478 4.058 5.956 4.058 3.4 0 5.835-1.734 5.844-4.323-.009-1.897-1.248-3.033-3.794-3.554l-2.375-.479c-1.222-.265-1.675-.683-1.666-1.316-.009-.786.88-1.298 2.008-1.298 1.264 0 2.016.692 2.195 1.538zm9.571-3.743h-2.469v-3.144h-3.64v3.144h-1.794v2.734h1.794v6.836c-.017 2.571 1.734 3.844 4.375 3.733.939-.034 1.606-.222 1.973-.341l-.572-2.709c-.18.034-.564.12-.906.12-.726 0-1.23-.274-1.23-1.282v-6.357h2.469zm2.371 13.124h3.64v-13.124h-3.64zm1.828-14.815c1.086 0 1.974-.829 1.974-1.846 0-1.008-.888-1.837-1.974-1.837-1.076 0-1.965.829-1.965 1.837 0 1.017.889 1.846 1.965 1.846zm8.367 7.228c.009-1.692 1.017-2.683 2.486-2.683 1.462 0 2.342.957 2.333 2.563v7.707h3.64v-8.356c0-3.059-1.794-4.939-4.529-4.939-1.948 0-3.357.957-3.947 2.487h-.154v-2.316h-3.469v13.124h3.64zm17.24 12.782c3.751 0 6.416-1.709 6.416-5.067v-13.252h-3.614v2.205h-.136c-.487-1.068-1.555-2.376-3.751-2.376-2.88 0-5.315 2.239-5.315 6.708 0 4.366 2.367 6.399 5.323 6.399 2.094 0 3.264-1.051 3.743-2.136h.153v2.401c0 1.803-1.153 2.503-2.734 2.503-1.606 0-2.418-.7-2.717-1.495l-3.366.453c.436 2.068 2.461 3.657 5.998 3.657zm.077-8.117c-1.786 0-2.76-1.418-2.76-3.683 0-2.23.957-3.793 2.76-3.793 1.768 0 2.76 1.495 2.76 3.793 0 2.316-1.009 3.683-2.76 3.683z" fill="#000"/><rect height="67" rx="4" stroke="#000" stroke-width="2" width="498" x="51" y="587"/><path d="m298.939 702.061c.586.585 1.536.585 2.122 0l9.546-9.546c.585-.586.585-1.536 0-2.122-.586-.585-1.536-.585-2.122 0l-8.485 8.486-8.485-8.486c-.586-.585-1.536-.585-2.122 0-.585.586-.585 1.536 0 2.122zm-.439-31.061v30h3v-30z" fill="#000"/><path d="m66.1568 722.502h-3.6825v11.005h-.1538l-7.5529-11.005h-3.2468v17.498h3.6996v-11.013h.1282l7.6127 11.013h3.1955zm3.0566 17.498h11.8249v-3.05h-8.1253v-4.178h7.4845v-3.05h-7.4845v-4.17h8.0912v-3.05h-11.7908zm14.0656-14.448h5.3571v14.448h3.6569v-14.448h5.3571v-3.05h-14.3711zm20.677 14.448h3.605l3.324-11.44h.136l3.333 11.44h3.605l5.007-17.498h-4.041l-2.897 12.184h-.154l-3.186-12.184h-3.461l-3.195 12.158h-.145l-2.897-12.158h-4.0412zm36.083-8.749c0-5.725-3.554-8.988-8.194-8.988-4.665 0-8.193 3.263-8.193 8.988 0 5.699 3.528 8.988 8.193 8.988 4.64 0 8.194-3.264 8.194-8.988zm-3.751 0c0 3.708-1.76 5.716-4.443 5.716-2.691 0-4.442-2.008-4.442-5.716s1.751-5.716 4.442-5.716c2.683 0 4.443 2.008 4.443 5.716zm6.492 8.749h3.699v-6.203h2.7l3.315 6.203h4.084l-3.716-6.801c1.99-.854 3.093-2.589 3.093-4.981 0-3.478-2.299-5.716-6.272-5.716h-6.903zm3.699-9.176v-5.298h2.495c2.136 0 3.17.949 3.17 2.692 0 1.734-1.034 2.606-3.153 2.606zm12.09 9.176h3.7v-4.973l1.819-2.221 4.794 7.194h4.425l-6.57-9.663 6.494-7.835h-4.435l-6.297 7.715h-.23v-7.715h-3.7zm27.454.256c1.53 0 3.187-.427 4.477-1.435l1.06 1.179h3.793l-2.631-3.016c.974-1.29 1.589-3.144 1.589-5.519h-3.016c0 1.144-.282 2.161-.744 3.024l-2.887-3.315 1.025-.735c1.469-1.059 2.324-2.392 2.324-4.041 0-2.239-1.735-4.127-4.546-4.127-2.87 0-4.776 1.957-4.776 4.494 0 1.555.752 2.854 1.666 4.016-1.905 1.307-3.187 2.546-3.187 4.571 0 2.76 2.213 4.904 5.853 4.904zm2.512-3.622c-.735.452-1.538.7-2.332.7-1.521 0-2.504-.94-2.504-2.187 0-.666.453-1.435 1.418-2.136l.103-.068zm-2.623-7.536c-.649-.82-1.102-1.547-1.102-2.273 0-.88.666-1.615 1.683-1.623 1.025-.009 1.606.709 1.606 1.401 0 .735-.401 1.341-1.273 1.897zm16.595-6.596v17.498h3.588v-11.432h.145l4.529 11.347h2.443l4.529-11.304h.145v11.389h3.588v-17.498h-4.562l-4.819 11.756h-.205l-4.819-11.756zm25.715 0h-3.699v17.498h3.699zm17.68 0h-3.683v11.005h-.153l-7.553-11.005h-3.247v17.498h3.7v-11.013h.128l7.612 11.013h3.196zm3.056 17.498h11.825v-3.05h-8.125v-4.178h7.485v-3.05h-7.485v-4.17h8.091v-3.05h-11.791zm14.733 0h3.699v-6.203h2.7l3.315 6.203h4.084l-3.716-6.801c1.99-.854 3.092-2.589 3.092-4.981 0-3.478-2.298-5.716-6.271-5.716h-6.903zm3.699-9.176v-5.298h2.495c2.136 0 3.17.949 3.17 2.692 0 1.734-1.034 2.606-3.153 2.606zm21.582-3.29h3.546c-.051-3.118-2.614-5.271-6.51-5.271-3.837 0-6.648 2.119-6.631 5.297-.008 2.58 1.812 4.058 4.768 4.767l1.905.479c1.906.461 2.965 1.008 2.974 2.187-.009 1.282-1.222 2.153-3.102 2.153-1.922 0-3.306-.888-3.426-2.64h-3.58c.094 3.785 2.802 5.742 7.049 5.742 4.272 0 6.784-2.042 6.792-5.246-.008-2.914-2.204-4.46-5.246-5.144l-1.572-.376c-1.521-.35-2.794-.914-2.768-2.17 0-1.128 1-1.956 2.811-1.956 1.769 0 2.854.803 2.99 2.178z" fill="#000"/><rect fill="#f7931a" fill-opacity=".2" height="500" rx="5" transform="matrix(0 -1 1 0 -721 821)" width="15" x="50" y="771"/><rect fill="#fff" height="67" rx="4" width="498" x="51" y="788"/><path d="m74.6821 812.502h-4.1096l6.0406 17.498h4.7676l6.032-17.498h-4.1011l-4.2378 13.294h-.1624zm17.0539 17.746c1.9395 0 3.1955-.846 3.8363-2.068h.1025v1.82h3.4518v-8.852c0-3.127-2.6486-4.443-5.5707-4.443-3.1442 0-5.2119 1.504-5.716 3.897l3.3664.273c.2478-.872 1.0253-1.512 2.3325-1.512 1.2389 0 1.9481.623 1.9481 1.7v.051c0 .846-.8972.957-3.1784 1.179-2.5974.24-4.9299 1.111-4.9299 4.042 0 2.597 1.854 3.913 4.3574 3.913zm1.0424-2.512c-1.1193 0-1.9224-.521-1.9224-1.521 0-1.025.8458-1.529 2.1274-1.709.7946-.111 2.0933-.299 2.5291-.589v1.392c0 1.376-1.1364 2.427-2.7341 2.427zm12.8116-15.234h-3.64v17.498h3.64zm2.916 17.498h3.64v-13.124h-3.64zm1.828-14.815c1.085 0 1.974-.829 1.974-1.846 0-1.008-.889-1.837-1.974-1.837-1.076 0-1.965.829-1.965 1.837 0 1.017.889 1.846 1.965 1.846zm9.563 15.029c2.119 0 3.221-1.222 3.725-2.316h.154v2.102h3.589v-17.498h-3.632v6.579h-.111c-.487-1.068-1.538-2.376-3.733-2.376-2.88 0-5.315 2.239-5.315 6.75 0 4.392 2.333 6.759 5.323 6.759zm1.154-2.897c-1.786 0-2.76-1.589-2.76-3.879 0-2.273.957-3.836 2.76-3.836 1.768 0 2.759 1.495 2.759 3.836s-1.008 3.879-2.759 3.879zm13.048 2.931c1.94 0 3.196-.846 3.837-2.068h.102v1.82h3.452v-8.852c0-3.127-2.649-4.443-5.571-4.443-3.144 0-5.212 1.504-5.716 3.897l3.367.273c.248-.872 1.025-1.512 2.332-1.512 1.239 0 1.948.623 1.948 1.7v.051c0 .846-.897.957-3.178 1.179-2.597.24-4.93 1.111-4.93 4.042 0 2.597 1.854 3.913 4.357 3.913zm1.043-2.512c-1.119 0-1.923-.521-1.923-1.521 0-1.025.846-1.529 2.128-1.709.794-.111 2.093-.299 2.529-.589v1.392c0 1.376-1.136 2.427-2.734 2.427zm16.152-10.86h-2.469v-3.144h-3.64v3.144h-1.794v2.734h1.794v6.836c-.017 2.571 1.735 3.844 4.375 3.733.94-.034 1.606-.222 1.974-.341l-.573-2.709c-.179.034-.564.12-.906.12-.726 0-1.23-.274-1.23-1.282v-6.357h2.469zm2.371 13.124h3.64v-13.124h-3.64zm1.829-14.815c1.085 0 1.973-.829 1.973-1.846 0-1.008-.888-1.837-1.973-1.837-1.077 0-1.965.829-1.965 1.837 0 1.017.888 1.846 1.965 1.846zm10.656 15.071c3.982 0 6.46-2.725 6.46-6.767 0-4.067-2.478-6.784-6.46-6.784-3.981 0-6.459 2.717-6.459 6.784 0 4.042 2.478 6.767 6.459 6.767zm.017-2.819c-1.837 0-2.776-1.683-2.776-3.973s.939-3.982 2.776-3.982c1.803 0 2.743 1.692 2.743 3.982s-.94 3.973-2.743 3.973zm12.449-5.024c.009-1.692 1.017-2.683 2.486-2.683 1.461 0 2.341.957 2.333 2.563v7.707h3.64v-8.356c0-3.059-1.795-4.939-4.529-4.939-1.948 0-3.358.957-3.947 2.487h-.154v-2.316h-3.469v13.124h3.64z" fill="#000"/><rect height="67" rx="4" stroke="#000" stroke-width="2" width="498" x="51" y="788"/><path d="m298.939 903.061c.586.585 1.536.585 2.122 0l9.546-9.546c.585-.586.585-1.536 0-2.122-.586-.585-1.536-.585-2.122 0l-8.485 8.486-8.485-8.486c-.586-.585-1.536-.585-2.122 0-.585.586-.585 1.536 0 2.122zm-.439-31.061v30h3v-30z" fill="#000"/><rect fill="#fff" height="67" rx="4" width="498" x="51" y="919"/><path d="m71.5208 961h3.6996v-5.673h3.11c4.0243 0 6.3653-2.401 6.3653-5.896 0-3.477-2.2983-5.929-6.2713-5.929h-6.9036zm3.6996-8.638v-5.836h2.4949c2.136 0 3.1698 1.162 3.1698 2.905 0 1.735-1.0338 2.931-3.1527 2.931zm11.81 8.638h3.6398v-7.425c0-1.615 1.179-2.725 2.7853-2.725.5041 0 1.1962.085 1.5379.196v-3.229c-.3246-.077-.7775-.129-1.1449-.129-1.4695 0-2.6742.855-3.1527 2.478h-.1367v-2.29h-3.5287zm15.1636.256c3.981 0 6.459-2.725 6.459-6.767 0-4.067-2.478-6.784-6.459-6.784-3.9816 0-6.4594 2.717-6.4594 6.784 0 4.042 2.4778 6.767 6.4594 6.767zm.017-2.819c-1.837 0-2.7768-1.683-2.7768-3.973s.9398-3.982 2.7768-3.982c1.803 0 2.743 1.692 2.743 3.982s-.94 3.973-2.743 3.973zm8.809 7.484h3.64v-7.023h.111c.504 1.094 1.606 2.316 3.725 2.316 2.99 0 5.323-2.367 5.323-6.759 0-4.511-2.435-6.75-5.315-6.75-2.195 0-3.246 1.308-3.733 2.376h-.163v-2.205h-3.588zm3.563-11.483c0-2.341.991-3.836 2.759-3.836 1.803 0 2.76 1.563 2.76 3.836 0 2.29-.974 3.879-2.76 3.879-1.751 0-2.759-1.538-2.759-3.879zm15.405 6.81c1.939 0 3.195-.846 3.836-2.068h.102v1.82h3.452v-8.852c0-3.127-2.648-4.443-5.57-4.443-3.145 0-5.212 1.504-5.716 3.897l3.366.273c.248-.872 1.025-1.512 2.332-1.512 1.239 0 1.948.623 1.948 1.7v.051c0 .846-.897.957-3.178 1.179-2.597.24-4.93 1.111-4.93 4.042 0 2.597 1.854 3.913 4.358 3.913zm1.042-2.512c-1.119 0-1.922-.521-1.922-1.521 0-1.025.845-1.529 2.127-1.709.795-.111 2.093-.299 2.529-.589v1.392c0 1.376-1.136 2.427-2.734 2.427zm15.085 7.459c3.75 0 6.416-1.709 6.416-5.067v-13.252h-3.614v2.205h-.137c-.487-1.068-1.555-2.376-3.751-2.376-2.879 0-5.314 2.239-5.314 6.708 0 4.366 2.367 6.399 5.323 6.399 2.093 0 3.264-1.051 3.742-2.136h.154v2.401c0 1.803-1.153 2.503-2.734 2.503-1.606 0-2.418-.7-2.717-1.495l-3.366.453c.435 2.068 2.46 3.657 5.998 3.657zm.076-8.117c-1.785 0-2.759-1.418-2.759-3.683 0-2.23.957-3.793 2.759-3.793 1.769 0 2.76 1.495 2.76 3.793 0 2.316-1.008 3.683-2.76 3.683zm12.979 3.17c1.939 0 3.195-.846 3.836-2.068h.103v1.82h3.451v-8.852c0-3.127-2.648-4.443-5.57-4.443-3.145 0-5.212 1.504-5.716 3.897l3.366.273c.248-.872 1.025-1.512 2.333-1.512 1.238 0 1.948.623 1.948 1.7v.051c0 .846-.897.957-3.179 1.179-2.597.24-4.93 1.111-4.93 4.042 0 2.597 1.854 3.913 4.358 3.913zm1.042-2.512c-1.119 0-1.922-.521-1.922-1.521 0-1.025.846-1.529 2.127-1.709.795-.111 2.094-.299 2.529-.589v1.392c0 1.376-1.136 2.427-2.734 2.427zm16.153-10.86h-2.47v-3.144h-3.639v3.144h-1.795v2.734h1.795v6.836c-.017 2.571 1.734 3.844 4.374 3.733.94-.034 1.607-.222 1.974-.341l-.573-2.709c-.179.034-.563.12-.905.12-.726 0-1.231-.274-1.231-1.282v-6.357h2.47zm2.371 13.124h3.639v-13.124h-3.639zm1.828-14.815c1.085 0 1.974-.829 1.974-1.846 0-1.008-.889-1.837-1.974-1.837-1.076 0-1.965.829-1.965 1.837 0 1.017.889 1.846 1.965 1.846zm10.657 15.071c3.981 0 6.459-2.725 6.459-6.767 0-4.067-2.478-6.784-6.459-6.784-3.982 0-6.46 2.717-6.46 6.784 0 4.042 2.478 6.767 6.46 6.767zm.017-2.819c-1.837 0-2.777-1.683-2.777-3.973s.94-3.982 2.777-3.982c1.802 0 2.742 1.692 2.742 3.982s-.94 3.973-2.742 3.973zm12.448-5.024c.009-1.692 1.017-2.683 2.487-2.683 1.461 0 2.341.957 2.332 2.563v7.707h3.64v-8.356c0-3.059-1.794-4.939-4.528-4.939-1.948 0-3.358.957-3.948 2.487h-.154v-2.316h-3.468v13.124h3.639z" fill="#000"/><rect height="67" rx="4" stroke="#000" stroke-width="2" width="498" x="51" y="919"/><path d="m298.939 1034.06c.586.59 1.536.59 2.122 0l9.546-9.55c.585-.58.585-1.53 0-2.12-.586-.58-1.536-.58-2.122 0l-8.485 8.49-8.485-8.49c-.586-.58-1.536-.58-2.122 0-.585.59-.585 1.54 0 2.12zm-.439-31.06v30h3v-30z" fill="#000"/><rect fill="#fff" height="67" rx="4" width="498" x="51" y="1050"/><path d="m86.9599 1080.63c-.487-4.04-3.5458-6.37-7.5956-6.37-4.6224 0-8.151 3.27-8.151 8.99 0 5.71 3.4688 8.99 8.151 8.99 4.4856 0 7.194-2.98 7.5956-6.2l-3.7423-.02c-.3503 1.87-1.8199 2.95-3.7935 2.95-2.6572 0-4.46-1.98-4.46-5.72 0-3.64 1.7771-5.72 4.4856-5.72 2.0249 0 3.486 1.18 3.7679 3.1zm8.5141 11.63c3.9816 0 6.459-2.73 6.459-6.77 0-4.07-2.4774-6.78-6.459-6.78-3.9815 0-6.4593 2.71-6.4593 6.78 0 4.04 2.4778 6.77 6.4593 6.77zm.0171-2.82c-1.8369 0-2.7768-1.69-2.7768-3.98s.9399-3.98 2.7768-3.98c1.8028 0 2.7427 1.69 2.7427 3.98s-.9399 3.98-2.7427 3.98zm12.4489-5.03c.008-1.69 1.017-2.68 2.486-2.68 1.461 0 2.341.96 2.333 2.56v7.71h3.639v-8.36c0-3.05-1.794-4.93-4.528-4.93-1.948 0-3.358.95-3.947 2.48h-.154v-2.31h-3.469v13.12h3.64zm18.384-5.53h-2.606v-.88c0-.89.359-1.41 1.427-1.41.436 0 .88.09 1.171.18l.641-2.73c-.453-.14-1.453-.36-2.572-.36-2.469 0-4.306 1.39-4.306 4.25v.95h-1.854v2.73h1.854v10.39h3.639v-10.39h2.606zm2.224 13.12h3.64v-13.12h-3.64zm1.828-14.82c1.086 0 1.974-.82 1.974-1.84 0-1.01-.888-1.84-1.974-1.84-1.076 0-1.965.83-1.965 1.84 0 1.02.889 1.84 1.965 1.84zm4.727 14.82h3.64v-7.42c0-1.62 1.179-2.73 2.786-2.73.504 0 1.196.09 1.537.2v-3.23c-.324-.08-.777-.13-1.144-.13-1.47 0-2.675.85-3.153 2.48h-.137v-2.29h-3.529zm9.845 0h3.64v-7.88c0-1.45.923-2.42 2.136-2.42 1.196 0 1.999.82 1.999 2.11v8.19h3.529v-8.01c0-1.36.778-2.29 2.102-2.29 1.162 0 2.033.73 2.033 2.19v8.11h3.632v-8.83c0-2.84-1.692-4.46-4.136-4.46-1.922 0-3.417.98-3.956 2.48h-.136c-.419-1.52-1.76-2.48-3.563-2.48-1.769 0-3.11.94-3.657 2.48h-.154v-2.31h-3.469zm25.688.25c1.939 0 3.195-.85 3.836-2.07h.103v1.82h3.451v-8.85c0-3.13-2.648-4.44-5.57-4.44-3.144 0-5.212 1.5-5.716 3.89l3.366.27c.248-.87 1.025-1.51 2.333-1.51 1.239 0 1.948.63 1.948 1.7v.05c0 .85-.897.96-3.179 1.18-2.597.24-4.93 1.11-4.93 4.04 0 2.6 1.854 3.92 4.358 3.92zm1.042-2.51c-1.119 0-1.922-.53-1.922-1.53 0-1.02.846-1.52 2.127-1.7.795-.11 2.094-.3 2.529-.59v1.39c0 1.37-1.136 2.43-2.734 2.43zm16.153-10.86h-2.469v-3.15h-3.64v3.15h-1.794v2.73h1.794v6.84c-.017 2.57 1.734 3.84 4.374 3.73.94-.03 1.607-.22 1.974-.34l-.572-2.71c-.18.03-.564.12-.906.12-.726 0-1.23-.27-1.23-1.28v-6.36h2.469zm2.371 13.12h3.639v-13.12h-3.639zm1.828-14.82c1.085 0 1.974-.82 1.974-1.84 0-1.01-.889-1.84-1.974-1.84-1.076 0-1.965.83-1.965 1.84 0 1.02.889 1.84 1.965 1.84zm10.657 15.08c3.981 0 6.459-2.73 6.459-6.77 0-4.07-2.478-6.78-6.459-6.78-3.982 0-6.46 2.71-6.46 6.78 0 4.04 2.478 6.77 6.46 6.77zm.017-2.82c-1.837 0-2.777-1.69-2.777-3.98s.94-3.98 2.777-3.98c1.803 0 2.742 1.69 2.742 3.98s-.939 3.98-2.742 3.98zm12.448-5.03c.009-1.69 1.017-2.68 2.487-2.68 1.461 0 2.341.96 2.332 2.56v7.71h3.64v-8.36c0-3.05-1.794-4.93-4.528-4.93-1.948 0-3.358.95-3.948 2.48h-.153v-2.31h-3.469v13.12h3.639zm22.247-1.79c-.325-2.42-2.273-3.91-5.588-3.91-3.358 0-5.571 1.55-5.562 4.08-.009 1.96 1.23 3.24 3.794 3.75l2.272.45c1.145.23 1.666.65 1.683 1.31-.017.78-.863 1.33-2.136 1.33-1.298 0-2.161-.55-2.383-1.62l-3.58.19c.341 2.51 2.477 4.06 5.955 4.06 3.4 0 5.835-1.74 5.844-4.33-.009-1.89-1.247-3.03-3.794-3.55l-2.375-.48c-1.222-.26-1.674-.68-1.666-1.32-.008-.78.88-1.29 2.008-1.29 1.264 0 2.016.69 2.196 1.53z" fill="#000"/><g stroke="#000" stroke-width="2"><rect height="67" rx="4" width="498" x="51" y="1050"/><path d="m1 1h598v1152h-598z"/></g></svg>