<svg width="600" height="1067" viewBox="0 0 600 1067" fill="none" xmlns="http://www.w3.org/2000/svg">
<rect width="600" height="1067" fill="white"/>
<path d="M55.5719 59H59.1775L62.5011 47.5595H62.6378L65.97 59H69.5756L74.5824 41.5018H70.541L67.6446 53.6856H67.4908L64.3039 41.5018H60.8435L57.6481 53.66H57.5028L54.6064 41.5018H50.5651L55.5719 59ZM77.7928 59L79.0915 55.0099H85.4055L86.7042 59H90.6686L84.6365 41.5018H79.869L73.8283 59H77.7928ZM80.0313 52.1221L82.1844 45.5004H82.3211L84.4742 52.1221H80.0313ZM92.7747 59H103.976V55.9498H96.4743V41.5018H92.7747V59ZM106.426 59H117.627V55.9498H110.126V41.5018H106.426V59ZM120.077 59H131.902V55.9498H123.777V51.7717H131.261V48.7215H123.777V44.552H131.868V41.5018H120.077V59ZM134.143 44.552H139.5V59H143.157V44.552H148.514V41.5018H134.143V44.552ZM172.529 50.2509C172.529 44.5264 168.975 41.2626 164.335 41.2626C159.67 41.2626 156.142 44.5264 156.142 50.2509C156.142 55.9498 159.67 59.2392 164.335 59.2392C168.975 59.2392 172.529 55.9754 172.529 50.2509ZM168.778 50.2509C168.778 53.959 167.018 55.9669 164.335 55.9669C161.644 55.9669 159.892 53.959 159.892 50.2509C159.892 46.5428 161.644 44.535 164.335 44.535C167.018 44.535 168.778 46.5428 168.778 50.2509ZM178.55 59H182.156L185.48 47.5595H185.616L188.949 59H192.554L197.561 41.5018H193.52L190.623 53.6856H190.469L187.282 41.5018H183.822L180.627 53.66H180.481L177.585 41.5018H173.544L178.55 59ZM214.177 41.5018H210.494V52.5065H210.341L202.788 41.5018H199.541V59H203.241V47.9867H203.369L210.981 59H214.177V41.5018ZM217.234 59H229.058V55.9498H220.933V51.7717H228.418V48.7215H220.933V44.552H229.024V41.5018H217.234V59ZM231.966 59H235.665V52.797H238.365L241.68 59H245.764L242.048 52.1989C244.038 51.3445 245.14 49.6101 245.14 47.2178C245.14 43.7404 242.842 41.5018 238.869 41.5018H231.966V59ZM235.665 49.8237V44.5264H238.16C240.296 44.5264 241.33 45.4748 241.33 47.2178C241.33 48.9522 240.296 49.8237 238.177 49.8237H235.665ZM257.247 46.5343H260.793C260.742 43.4157 258.179 41.2626 254.283 41.2626C250.446 41.2626 247.635 43.3815 247.652 46.5599C247.644 49.1402 249.464 50.6183 252.42 51.3275L254.325 51.8059C256.231 52.2673 257.29 52.8141 257.299 53.9932C257.29 55.2748 256.077 56.1463 254.197 56.1463C252.275 56.1463 250.891 55.2577 250.771 53.5062H247.191C247.285 57.2912 249.993 59.2478 254.24 59.2478C258.512 59.2478 261.024 57.2058 261.032 54.0017C261.024 51.0882 258.828 49.5418 255.786 48.8582L254.214 48.4823C252.693 48.132 251.42 47.5681 251.446 46.3121C251.446 45.1843 252.446 44.3555 254.257 44.3555C256.026 44.3555 257.111 45.1587 257.247 46.5343Z" fill="black"/>
<rect x="50" y="90" width="15" height="500" rx="5" transform="rotate(-90 50 90)" fill="#F7931A" fill-opacity="0.2"/>
<rect x="51" y="107" width="498" height="67" rx="4" fill="white"/>
<path d="M83.1236 137.158H86.883C86.4045 133.698 83.3543 131.263 79.3984 131.263C74.7761 131.263 71.2133 134.595 71.2133 140.268C71.2133 145.805 74.5454 149.239 79.4753 149.239C83.8926 149.239 87.0453 146.445 87.0453 141.84V139.636H79.7231V142.421H83.4825C83.4312 144.591 81.9531 145.967 79.4924 145.967C76.7156 145.967 74.9641 143.891 74.9641 140.234C74.9641 136.594 76.784 134.535 79.4582 134.535C81.3636 134.535 82.6537 135.518 83.1236 137.158ZM95.7368 149.256C98.9835 149.256 101.171 147.676 101.683 145.241L98.3171 145.018C97.9497 146.018 97.0098 146.539 95.7966 146.539C93.9767 146.539 92.8232 145.335 92.8232 143.378V143.369H101.76V142.37C101.76 137.91 99.0604 135.705 95.5915 135.705C91.7296 135.705 89.2262 138.448 89.2262 142.498C89.2262 146.659 91.6954 149.256 95.7368 149.256ZM92.8232 141.114C92.9001 139.619 94.0365 138.422 95.6513 138.422C97.232 138.422 98.3256 139.55 98.3342 141.114H92.8232ZM111.116 135.876H108.647V132.732H105.007V135.876H103.213V138.61H105.007V145.446C104.99 148.017 106.741 149.29 109.382 149.179C110.321 149.145 110.988 148.957 111.355 148.838L110.783 146.129C110.603 146.163 110.219 146.249 109.877 146.249C109.151 146.249 108.647 145.975 108.647 144.967V138.61H111.116V135.876ZM119.056 149H122.695V141.575C122.695 139.96 123.874 138.85 125.481 138.85C125.985 138.85 126.677 138.935 127.019 139.046V135.817C126.694 135.74 126.241 135.688 125.874 135.688C124.404 135.688 123.199 136.543 122.721 138.166H122.584V135.876H119.056V149ZM134.27 149.256C137.517 149.256 139.704 147.676 140.217 145.241L136.851 145.018C136.483 146.018 135.543 146.539 134.33 146.539C132.51 146.539 131.357 145.335 131.357 143.378V143.369H140.294V142.37C140.294 137.91 137.594 135.705 134.125 135.705C130.263 135.705 127.76 138.448 127.76 142.498C127.76 146.659 130.229 149.256 134.27 149.256ZM131.357 141.114C131.434 139.619 132.57 138.422 134.185 138.422C135.766 138.422 136.859 139.55 136.868 141.114H131.357ZM148.599 149.256C152.093 149.256 154.289 147.206 154.46 144.19H151.025C150.812 145.591 149.889 146.377 148.641 146.377C146.941 146.377 145.839 144.95 145.839 142.438C145.839 139.96 146.95 138.542 148.641 138.542C149.974 138.542 150.829 139.422 151.025 140.729H154.46C154.306 137.696 152.008 135.705 148.582 135.705C144.6 135.705 142.139 138.465 142.139 142.489C142.139 146.48 144.557 149.256 148.599 149.256ZM156.79 149H160.43V135.876H156.79V149ZM158.619 134.185C159.704 134.185 160.592 133.356 160.592 132.339C160.592 131.331 159.704 130.502 158.619 130.502C157.542 130.502 156.654 131.331 156.654 132.339C156.654 133.356 157.542 134.185 158.619 134.185ZM163.346 153.921H166.985V146.898H167.097C167.601 147.992 168.703 149.214 170.822 149.214C173.812 149.214 176.145 146.847 176.145 142.455C176.145 137.944 173.71 135.705 170.83 135.705C168.634 135.705 167.584 137.013 167.097 138.081H166.934V135.876H163.346V153.921ZM166.909 142.438C166.909 140.097 167.9 138.602 169.668 138.602C171.471 138.602 172.428 140.165 172.428 142.438C172.428 144.728 171.454 146.317 169.668 146.317C167.917 146.317 166.909 144.779 166.909 142.438ZM178.571 149H182.211V135.876H178.571V149ZM180.4 134.185C181.485 134.185 182.373 133.356 182.373 132.339C182.373 131.331 181.485 130.502 180.4 130.502C179.323 130.502 178.434 131.331 178.434 132.339C178.434 133.356 179.323 134.185 180.4 134.185ZM191.107 149.256C194.354 149.256 196.541 147.676 197.054 145.241L193.688 145.018C193.32 146.018 192.38 146.539 191.167 146.539C189.347 146.539 188.194 145.335 188.194 143.378V143.369H197.131V142.37C197.131 137.91 194.431 135.705 190.962 135.705C187.1 135.705 184.597 138.448 184.597 142.498C184.597 146.659 187.066 149.256 191.107 149.256ZM188.194 141.114C188.271 139.619 189.407 138.422 191.022 138.422C192.603 138.422 193.696 139.55 193.705 141.114H188.194ZM203.146 141.413C203.154 139.721 204.163 138.73 205.632 138.73C207.093 138.73 207.973 139.687 207.965 141.293V149H211.605V140.644C211.605 137.585 209.81 135.705 207.076 135.705C205.128 135.705 203.718 136.662 203.129 138.192H202.975V135.876H199.506V149H203.146V141.413ZM221.454 135.876H218.984V132.732H215.345V135.876H213.55V138.61H215.345V145.446C215.328 148.017 217.079 149.29 219.719 149.179C220.659 149.145 221.326 148.957 221.693 148.838L221.12 146.129C220.941 146.163 220.557 146.249 220.215 146.249C219.489 146.249 218.984 145.975 218.984 144.967V138.61H221.454V135.876ZM233.136 149.248C235.075 149.248 236.331 148.402 236.972 147.18H237.074V149H240.526V140.148C240.526 137.021 237.877 135.705 234.955 135.705C231.811 135.705 229.744 137.209 229.239 139.602L232.606 139.875C232.854 139.003 233.631 138.363 234.938 138.363C236.177 138.363 236.886 138.986 236.886 140.063V140.114C236.886 140.96 235.989 141.071 233.708 141.293C231.111 141.533 228.778 142.404 228.778 145.335C228.778 147.932 230.632 149.248 233.136 149.248ZM234.178 146.736C233.059 146.736 232.255 146.215 232.255 145.215C232.255 144.19 233.101 143.686 234.383 143.506C235.178 143.395 236.476 143.207 236.912 142.917V144.309C236.912 145.685 235.776 146.736 234.178 146.736ZM248.186 149.214C250.305 149.214 251.407 147.992 251.911 146.898H252.065V149H255.653V131.502H252.022V138.081H251.911C251.424 137.013 250.373 135.705 248.177 135.705C245.298 135.705 242.863 137.944 242.863 142.455C242.863 146.847 245.195 149.214 248.186 149.214ZM249.339 146.317C247.554 146.317 246.58 144.728 246.58 142.438C246.58 140.165 247.536 138.602 249.339 138.602C251.108 138.602 252.099 140.097 252.099 142.438C252.099 144.779 251.091 146.317 249.339 146.317ZM263.482 149.214C265.601 149.214 266.703 147.992 267.207 146.898H267.361V149H270.949V131.502H267.318V138.081H267.207C266.72 137.013 265.669 135.705 263.473 135.705C260.594 135.705 258.159 137.944 258.159 142.455C258.159 146.847 260.491 149.214 263.482 149.214ZM264.635 146.317C262.85 146.317 261.875 144.728 261.875 142.438C261.875 140.165 262.832 138.602 264.635 138.602C266.404 138.602 267.395 140.097 267.395 142.438C267.395 144.779 266.387 146.317 264.635 146.317ZM273.942 149H277.582V141.575C277.582 139.96 278.761 138.85 280.367 138.85C280.871 138.85 281.563 138.935 281.905 139.046V135.817C281.58 135.74 281.127 135.688 280.76 135.688C279.29 135.688 278.086 136.543 277.607 138.166H277.47V135.876H273.942V149ZM289.157 149.256C292.403 149.256 294.591 147.676 295.103 145.241L291.737 145.018C291.369 146.018 290.43 146.539 289.216 146.539C287.397 146.539 286.243 145.335 286.243 143.378V143.369H295.18V142.37C295.18 137.91 292.48 135.705 289.011 135.705C285.149 135.705 282.646 138.448 282.646 142.498C282.646 146.659 285.115 149.256 289.157 149.256ZM286.243 141.114C286.32 139.619 287.456 138.422 289.071 138.422C290.652 138.422 291.745 139.55 291.754 141.114H286.243ZM308.475 139.619C308.15 137.201 306.202 135.705 302.887 135.705C299.529 135.705 297.316 137.26 297.325 139.79C297.316 141.755 298.555 143.028 301.118 143.54L303.391 143.993C304.536 144.224 305.057 144.643 305.074 145.3C305.057 146.078 304.211 146.633 302.938 146.633C301.639 146.633 300.776 146.078 300.554 145.01L296.974 145.198C297.316 147.71 299.452 149.256 302.93 149.256C306.33 149.256 308.765 147.522 308.774 144.933C308.765 143.036 307.526 141.9 304.98 141.379L302.605 140.9C301.383 140.635 300.93 140.217 300.939 139.584C300.93 138.798 301.819 138.286 302.947 138.286C304.211 138.286 304.963 138.978 305.142 139.824L308.475 139.619ZM321.985 139.619C321.66 137.201 319.712 135.705 316.397 135.705C313.039 135.705 310.826 137.26 310.835 139.79C310.826 141.755 312.065 143.028 314.628 143.54L316.901 143.993C318.046 144.224 318.567 144.643 318.584 145.3C318.567 146.078 317.721 146.633 316.448 146.633C315.15 146.633 314.287 146.078 314.065 145.01L310.485 145.198C310.826 147.71 312.962 149.256 316.44 149.256C319.84 149.256 322.275 147.522 322.284 144.933C322.275 143.036 321.037 141.9 318.49 141.379L316.115 140.9C314.893 140.635 314.441 140.217 314.449 139.584C314.441 138.798 315.329 138.286 316.457 138.286C317.721 138.286 318.473 138.978 318.653 139.824L321.985 139.619Z" fill="black"/>
<rect x="51" y="107" width="498" height="67" rx="4" stroke="black" stroke-width="2"/>
<path d="M298.939 222.061C299.525 222.646 300.475 222.646 301.061 222.061L310.607 212.515C311.192 211.929 311.192 210.979 310.607 210.393C310.021 209.808 309.071 209.808 308.485 210.393L300 218.879L291.515 210.393C290.929 209.808 289.979 209.808 289.393 210.393C288.808 210.979 288.808 211.929 289.393 212.515L298.939 222.061ZM298.5 191V221H301.5V191H298.5Z" fill="black"/>
<rect x="51" y="238" width="498" height="67" rx="4" fill="white"/>
<path d="M86.9599 268.628C86.4729 264.587 83.4141 262.263 79.3643 262.263C74.7419 262.263 71.2133 265.526 71.2133 271.251C71.2133 276.958 74.6821 280.239 79.3643 280.239C83.8499 280.239 86.5583 277.257 86.9599 274.036L83.2176 274.019C82.8673 275.89 81.3977 276.967 79.4241 276.967C76.7669 276.967 74.9641 274.993 74.9641 271.251C74.9641 267.611 76.7412 265.535 79.4497 265.535C81.4746 265.535 82.9357 266.705 83.2176 268.628H86.9599ZM89.5445 280H93.1842V272.575C93.1842 270.96 94.3633 269.85 95.9696 269.85C96.4737 269.85 97.1658 269.935 97.5075 270.046V266.817C97.1828 266.74 96.73 266.688 96.3626 266.688C94.893 266.688 93.6883 267.543 93.2099 269.166H93.0732V266.876H89.5445V280ZM104.759 280.256C108.006 280.256 110.193 278.676 110.706 276.241L107.34 276.018C106.972 277.018 106.032 277.539 104.819 277.539C102.999 277.539 101.846 276.335 101.846 274.378V274.369H110.783V273.37C110.783 268.91 108.083 266.705 104.614 266.705C100.752 266.705 98.2487 269.448 98.2487 273.498C98.2487 277.659 100.718 280.256 104.759 280.256ZM101.846 272.114C101.923 270.619 103.059 269.422 104.674 269.422C106.254 269.422 107.348 270.55 107.357 272.114H101.846ZM116.9 280.248C118.84 280.248 120.096 279.402 120.737 278.18H120.839V280H124.291V271.148C124.291 268.021 121.642 266.705 118.72 266.705C115.576 266.705 113.508 268.209 113.004 270.602L116.371 270.875C116.618 270.003 117.396 269.363 118.703 269.363C119.942 269.363 120.651 269.986 120.651 271.063V271.114C120.651 271.96 119.754 272.071 117.473 272.293C114.875 272.533 112.543 273.404 112.543 276.335C112.543 278.932 114.397 280.248 116.9 280.248ZM117.943 277.736C116.823 277.736 116.02 277.215 116.02 276.215C116.02 275.19 116.866 274.686 118.148 274.506C118.942 274.395 120.241 274.207 120.677 273.917V275.309C120.677 276.685 119.54 277.736 117.943 277.736ZM134.095 266.876H131.626V263.732H127.986V266.876H126.192V269.61H127.986V276.446C127.969 279.017 129.721 280.29 132.361 280.179C133.301 280.145 133.967 279.957 134.334 279.838L133.762 277.129C133.583 277.163 133.198 277.249 132.856 277.249C132.13 277.249 131.626 276.975 131.626 275.967V269.61H134.095V266.876ZM136.466 280H140.106V266.876H136.466V280ZM138.295 265.185C139.38 265.185 140.268 264.356 140.268 263.339C140.268 262.331 139.38 261.502 138.295 261.502C137.218 261.502 136.329 262.331 136.329 263.339C136.329 264.356 137.218 265.185 138.295 265.185ZM148.951 280.256C152.933 280.256 155.41 277.531 155.41 273.489C155.41 269.422 152.933 266.705 148.951 266.705C144.97 266.705 142.492 269.422 142.492 273.489C142.492 277.531 144.97 280.256 148.951 280.256ZM148.968 277.437C147.131 277.437 146.191 275.754 146.191 273.464C146.191 271.174 147.131 269.482 148.968 269.482C150.771 269.482 151.711 271.174 151.711 273.464C151.711 275.754 150.771 277.437 148.968 277.437ZM161.417 272.413C161.425 270.721 162.434 269.73 163.903 269.73C165.364 269.73 166.244 270.687 166.236 272.293V280H169.875V271.644C169.875 268.585 168.081 266.705 165.347 266.705C163.399 266.705 161.989 267.662 161.4 269.192H161.246V266.876H157.777V280H161.417V272.413Z" fill="black"/>
<rect x="51" y="238" width="498" height="67" rx="4" stroke="black" stroke-width="2"/>
<path d="M298.939 353.061C299.525 353.646 300.475 353.646 301.061 353.061L310.607 343.515C311.192 342.929 311.192 341.979 310.607 341.393C310.021 340.808 309.071 340.808 308.485 341.393L300 349.879L291.515 341.393C290.929 340.808 289.979 340.808 289.393 341.393C288.808 341.979 288.808 342.929 289.393 343.515L298.939 353.061ZM298.5 322V352H301.5V322H298.5Z" fill="black"/>
<rect x="51" y="369" width="498" height="67" rx="4" fill="white"/>
<path d="M81.0133 398.534H84.559C84.5078 395.416 81.9446 393.263 78.0485 393.263C74.2122 393.263 71.4012 395.382 71.4183 398.56C71.4098 401.14 73.2296 402.618 76.1859 403.327L78.0912 403.806C79.9965 404.267 81.056 404.814 81.0645 405.993C81.056 407.275 79.8427 408.146 77.963 408.146C76.0406 408.146 74.6565 407.258 74.5369 405.506H70.9569C71.0509 409.291 73.7594 411.248 78.0058 411.248C82.2778 411.248 84.7897 409.206 84.7983 406.002C84.7897 403.088 82.5939 401.542 79.5522 400.858L77.9801 400.482C76.4593 400.132 75.1862 399.568 75.2119 398.312C75.2119 397.184 76.2115 396.356 78.0228 396.356C79.7915 396.356 80.8766 397.159 81.0133 398.534ZM87.2184 411H90.8581V397.876H87.2184V411ZM89.0468 396.185C90.1319 396.185 91.0205 395.356 91.0205 394.339C91.0205 393.331 90.1319 392.502 89.0468 392.502C87.9702 392.502 87.0817 393.331 87.0817 394.339C87.0817 395.356 87.9702 396.185 89.0468 396.185ZM99.6862 416.195C103.437 416.195 106.103 414.486 106.103 411.128V397.876H102.489V400.081H102.352C101.865 399.013 100.797 397.705 98.6012 397.705C95.7218 397.705 93.2868 399.944 93.2868 404.413C93.2868 408.779 95.6535 410.812 98.6097 410.812C100.703 410.812 101.874 409.761 102.352 408.676H102.506V411.077C102.506 412.88 101.352 413.58 99.7717 413.58C98.1654 413.58 97.3537 412.88 97.0547 412.085L93.6883 412.538C94.1241 414.606 96.149 416.195 99.6862 416.195ZM99.7631 408.078C97.9774 408.078 97.0034 406.66 97.0034 404.395C97.0034 402.165 97.9603 400.602 99.7631 400.602C101.532 400.602 102.523 402.097 102.523 404.395C102.523 406.711 101.515 408.078 99.7631 408.078ZM112.639 403.413C112.648 401.721 113.656 400.73 115.125 400.73C116.586 400.73 117.466 401.687 117.458 403.293V411H121.098V402.644C121.098 399.585 119.303 397.705 116.569 397.705C114.621 397.705 113.211 398.662 112.622 400.192H112.468V397.876H108.999V411H112.639V403.413ZM123.966 411H127.606V397.876H123.966V411ZM125.795 396.185C126.88 396.185 127.768 395.356 127.768 394.339C127.768 393.331 126.88 392.502 125.795 392.502C124.718 392.502 123.83 393.331 123.83 394.339C123.83 395.356 124.718 396.185 125.795 396.185ZM134.161 403.413C134.17 401.721 135.178 400.73 136.648 400.73C138.109 400.73 138.989 401.687 138.98 403.293V411H142.62V402.644C142.62 399.585 140.826 397.705 138.092 397.705C136.144 397.705 134.734 398.662 134.144 400.192H133.991V397.876H130.522V411H134.161V403.413ZM151.401 416.195C155.152 416.195 157.818 414.486 157.818 411.128V397.876H154.204V400.081H154.067C153.58 399.013 152.512 397.705 150.316 397.705C147.437 397.705 145.002 399.944 145.002 404.413C145.002 408.779 147.368 410.812 150.325 410.812C152.418 410.812 153.588 409.761 154.067 408.676H154.221V411.077C154.221 412.88 153.067 413.58 151.487 413.58C149.88 413.58 149.069 412.88 148.77 412.085L145.403 412.538C145.839 414.606 147.864 416.195 151.401 416.195ZM151.478 408.078C149.692 408.078 148.718 406.66 148.718 404.395C148.718 402.165 149.675 400.602 151.478 400.602C153.247 400.602 154.238 402.097 154.238 404.395C154.238 406.711 153.23 408.078 151.478 408.078Z" fill="black"/>
<rect x="51" y="369" width="498" height="67" rx="4" stroke="black" stroke-width="2"/>
<path d="M298.939 484.061C299.525 484.646 300.475 484.646 301.061 484.061L310.607 474.515C311.192 473.929 311.192 472.979 310.607 472.393C310.021 471.808 309.071 471.808 308.485 472.393L300 480.879L291.515 472.393C290.929 471.808 289.979 471.808 289.393 472.393C288.808 472.979 288.808 473.929 289.393 474.515L298.939 484.061ZM298.5 453V483H301.5V453H298.5Z" fill="black"/>
<rect x="51" y="500" width="498" height="67" rx="4" fill="white"/>
<path d="M71.5208 542H78.9969C82.9271 542 85.0204 539.949 85.0204 537.164C85.0204 534.575 83.1664 533.012 81.1756 532.918V532.747C82.9955 532.337 84.3369 531.047 84.3369 528.987C84.3369 526.364 82.3888 524.502 78.5269 524.502H71.5208V542ZM75.2204 538.975V534.327H78.3219C80.099 534.327 81.2012 535.353 81.2012 536.797C81.2012 538.112 80.3041 538.975 78.2364 538.975H75.2204ZM75.2204 531.824V527.492H78.0314C79.6718 527.492 80.6031 528.338 80.6031 529.603C80.6031 530.987 79.4753 531.824 77.963 531.824H75.2204ZM87.3593 542H90.9991V534.575C90.9991 532.96 92.1782 531.85 93.7845 531.85C94.2886 531.85 94.9806 531.935 95.3224 532.046V528.817C94.9977 528.74 94.5449 528.688 94.1775 528.688C92.7079 528.688 91.5032 529.543 91.0247 531.166H90.888V528.876H87.3593V542ZM102.523 542.256C106.504 542.256 108.982 539.531 108.982 535.489C108.982 531.422 106.504 528.705 102.523 528.705C98.5413 528.705 96.0636 531.422 96.0636 535.489C96.0636 539.531 98.5413 542.256 102.523 542.256ZM102.54 539.437C100.703 539.437 99.7631 537.754 99.7631 535.464C99.7631 533.174 100.703 531.482 102.54 531.482C104.343 531.482 105.283 533.174 105.283 535.464C105.283 537.754 104.343 539.437 102.54 539.437ZM115.091 542.248C117.031 542.248 118.287 541.402 118.927 540.18H119.03V542H122.482V533.148C122.482 530.021 119.833 528.705 116.911 528.705C113.767 528.705 111.699 530.209 111.195 532.602L114.561 532.875C114.809 532.003 115.587 531.363 116.894 531.363C118.133 531.363 118.842 531.986 118.842 533.063V533.114C118.842 533.96 117.945 534.071 115.664 534.293C113.066 534.533 110.734 535.404 110.734 538.335C110.734 540.932 112.588 542.248 115.091 542.248ZM116.134 539.736C115.014 539.736 114.211 539.215 114.211 538.215C114.211 537.19 115.057 536.686 116.339 536.506C117.133 536.395 118.432 536.207 118.868 535.917V537.309C118.868 538.685 117.731 539.736 116.134 539.736ZM130.141 542.214C132.26 542.214 133.363 540.992 133.867 539.898H134.02V542H137.609V524.502H133.978V531.081H133.867C133.38 530.013 132.329 528.705 130.133 528.705C127.254 528.705 124.819 530.944 124.819 535.455C124.819 539.847 127.151 542.214 130.141 542.214ZM131.295 539.317C129.509 539.317 128.535 537.728 128.535 535.438C128.535 533.165 129.492 531.602 131.295 531.602C133.064 531.602 134.055 533.097 134.055 535.438C134.055 537.779 133.046 539.317 131.295 539.317ZM146.531 542.256C150.026 542.256 152.221 540.206 152.392 537.19H148.958C148.744 538.591 147.821 539.377 146.574 539.377C144.873 539.377 143.771 537.95 143.771 535.438C143.771 532.96 144.882 531.542 146.574 531.542C147.907 531.542 148.761 532.422 148.958 533.729H152.392C152.238 530.696 149.94 528.705 146.514 528.705C142.532 528.705 140.072 531.465 140.072 535.489C140.072 539.48 142.49 542.256 146.531 542.256ZM158.465 542.248C160.404 542.248 161.66 541.402 162.301 540.18H162.404V542H165.856V533.148C165.856 530.021 163.207 528.705 160.285 528.705C157.141 528.705 155.073 530.209 154.569 532.602L157.935 532.875C158.183 532.003 158.96 531.363 160.268 531.363C161.507 531.363 162.216 531.986 162.216 533.063V533.114C162.216 533.96 161.319 534.071 159.037 534.293C156.44 534.533 154.107 535.404 154.107 538.335C154.107 540.932 155.962 542.248 158.465 542.248ZM159.507 539.736C158.388 539.736 157.585 539.215 157.585 538.215C157.585 537.19 158.431 536.686 159.712 536.506C160.507 536.395 161.806 536.207 162.241 535.917V537.309C162.241 538.685 161.105 539.736 159.507 539.736ZM179.599 532.619C179.274 530.201 177.326 528.705 174.011 528.705C170.653 528.705 168.44 530.26 168.449 532.79C168.44 534.755 169.679 536.028 172.242 536.54L174.515 536.993C175.66 537.224 176.181 537.643 176.198 538.3C176.181 539.078 175.335 539.633 174.062 539.633C172.763 539.633 171.9 539.078 171.678 538.01L168.098 538.198C168.44 540.71 170.576 542.256 174.054 542.256C177.454 542.256 179.889 540.522 179.898 537.933C179.889 536.036 178.65 534.9 176.104 534.379L173.729 533.9C172.507 533.635 172.054 533.217 172.063 532.584C172.054 531.798 172.943 531.286 174.071 531.286C175.335 531.286 176.087 531.978 176.266 532.824L179.599 532.619ZM189.17 528.876H186.701V525.732H183.061V528.876H181.267V531.61H183.061V538.446C183.044 541.017 184.795 542.29 187.436 542.179C188.375 542.145 189.042 541.957 189.409 541.838L188.837 539.129C188.657 539.163 188.273 539.249 187.931 539.249C187.205 539.249 186.701 538.975 186.701 537.967V531.61H189.17V528.876ZM191.541 542H195.181V528.876H191.541V542ZM193.369 527.185C194.455 527.185 195.343 526.356 195.343 525.339C195.343 524.331 194.455 523.502 193.369 523.502C192.293 523.502 191.404 524.331 191.404 525.339C191.404 526.356 192.293 527.185 193.369 527.185ZM201.736 534.413C201.745 532.721 202.753 531.73 204.222 531.73C205.684 531.73 206.564 532.687 206.555 534.293V542H210.195V533.644C210.195 530.585 208.401 528.705 205.666 528.705C203.718 528.705 202.309 529.662 201.719 531.192H201.565V528.876H198.096V542H201.736V534.413ZM218.976 547.195C222.727 547.195 225.392 545.486 225.392 542.128V528.876H221.778V531.081H221.642C221.155 530.013 220.087 528.705 217.891 528.705C215.011 528.705 212.576 530.944 212.576 535.413C212.576 539.779 214.943 541.812 217.899 541.812C219.993 541.812 221.163 540.761 221.642 539.676H221.795V542.077C221.795 543.88 220.642 544.58 219.061 544.58C217.455 544.58 216.643 543.88 216.344 543.085L212.978 543.538C213.414 545.606 215.439 547.195 218.976 547.195ZM219.053 539.078C217.267 539.078 216.293 537.66 216.293 535.395C216.293 533.165 217.25 531.602 219.053 531.602C220.821 531.602 221.813 533.097 221.813 535.395C221.813 537.711 220.804 539.078 219.053 539.078Z" fill="black"/>
<rect x="51" y="500" width="498" height="67" rx="4" stroke="black" stroke-width="2"/>
<path d="M298.939 615.061C299.525 615.646 300.475 615.646 301.061 615.061L310.607 605.515C311.192 604.929 311.192 603.979 310.607 603.393C310.021 602.808 309.071 602.808 308.485 603.393L300 611.879L291.515 603.393C290.929 602.808 289.979 602.808 289.393 603.393C288.808 603.979 288.808 604.929 289.393 605.515L298.939 615.061ZM298.5 584V614H301.5V584H298.5Z" fill="black"/>
<path d="M66.1568 635.502H62.4743V646.507H62.3205L54.7676 635.502H51.5208V653H55.2204V641.987H55.3486L62.9613 653H66.1568V635.502ZM69.2134 653H81.0383V649.95H72.913V645.772H80.3975V642.722H72.913V638.552H81.0042V635.502H69.2134V653ZM83.279 638.552H88.6361V653H92.293V638.552H97.6501V635.502H83.279V638.552ZM103.956 653H107.561L110.885 641.56H111.021L114.354 653H117.959L122.966 635.502H118.925L116.028 647.686H115.874L112.688 635.502H109.227L106.032 647.66H105.887L102.99 635.502H98.9488L103.956 653ZM140.039 644.251C140.039 638.526 136.485 635.263 131.845 635.263C127.18 635.263 123.652 638.526 123.652 644.251C123.652 649.95 127.18 653.239 131.845 653.239C136.485 653.239 140.039 649.975 140.039 644.251ZM136.288 644.251C136.288 647.959 134.528 649.967 131.845 649.967C129.154 649.967 127.403 647.959 127.403 644.251C127.403 640.543 129.154 638.535 131.845 638.535C134.528 638.535 136.288 640.543 136.288 644.251ZM142.78 653H146.479V646.797H149.179L152.494 653H156.578L152.862 646.199C154.852 645.345 155.955 643.61 155.955 641.218C155.955 637.74 153.656 635.502 149.683 635.502H142.78V653ZM146.479 643.824V638.526H148.974C151.11 638.526 152.144 639.475 152.144 641.218C152.144 642.952 151.11 643.824 148.991 643.824H146.479ZM158.569 653H162.269V648.027L164.088 645.806L168.882 653H173.307L166.737 643.337L173.231 635.502H168.796L162.499 643.217H162.269V635.502H158.569V653ZM186.023 653.256C187.553 653.256 189.21 652.829 190.5 651.821L191.56 653H195.353L192.722 649.984C193.696 648.694 194.311 646.84 194.311 644.465H191.295C191.295 645.609 191.013 646.626 190.551 647.489L187.664 644.174L188.689 643.439C190.158 642.38 191.013 641.047 191.013 639.398C191.013 637.159 189.278 635.271 186.467 635.271C183.597 635.271 181.691 637.228 181.691 639.765C181.691 641.32 182.443 642.619 183.357 643.781C181.452 645.088 180.17 646.327 180.17 648.352C180.17 651.112 182.383 653.256 186.023 653.256ZM188.535 649.634C187.8 650.086 186.997 650.334 186.203 650.334C184.682 650.334 183.699 649.394 183.699 648.147C183.699 647.481 184.152 646.712 185.117 646.011L185.22 645.943L188.535 649.634ZM185.912 642.098C185.263 641.278 184.81 640.551 184.81 639.825C184.81 638.945 185.476 638.21 186.493 638.202C187.518 638.193 188.099 638.911 188.099 639.603C188.099 640.338 187.698 640.944 186.826 641.5L185.912 642.098ZM202.507 635.502V653H206.095V641.568H206.24L210.769 652.915H213.212L217.741 641.611H217.886V653H221.474V635.502H216.912L212.093 647.258H211.888L207.069 635.502H202.507ZM228.222 635.502H224.523V653H228.222V635.502ZM245.902 635.502H242.219V646.507H242.066L234.513 635.502H231.266V653H234.966V641.987H235.094L242.706 653H245.902V635.502ZM248.958 653H260.783V649.95H252.658V645.772H260.143V642.722H252.658V638.552H260.749V635.502H248.958V653ZM263.691 653H267.39V646.797H270.09L273.405 653H277.489L273.773 646.199C275.763 645.345 276.865 643.61 276.865 641.218C276.865 637.74 274.567 635.502 270.594 635.502H263.691V653ZM267.39 643.824V638.526H269.885C272.021 638.526 273.055 639.475 273.055 641.218C273.055 642.952 272.021 643.824 269.902 643.824H267.39ZM288.972 640.534H292.518C292.467 637.416 289.904 635.263 286.008 635.263C282.171 635.263 279.36 637.382 279.377 640.56C279.369 643.14 281.189 644.618 284.145 645.327L286.05 645.806C287.956 646.267 289.015 646.814 289.024 647.993C289.015 649.275 287.802 650.146 285.922 650.146C284 650.146 282.616 649.258 282.496 647.506H278.916C279.01 651.291 281.718 653.248 285.965 653.248C290.237 653.248 292.749 651.206 292.757 648.002C292.749 645.088 290.553 643.542 287.511 642.858L285.939 642.482C284.418 642.132 283.145 641.568 283.171 640.312C283.171 639.184 284.171 638.356 285.982 638.356C287.751 638.356 288.836 639.159 288.972 640.534Z" fill="black"/>
<rect x="50" y="684" width="15" height="500" rx="5" transform="rotate(-90 50 684)" fill="#F7931A" fill-opacity="0.2"/>
<rect x="51" y="701" width="498" height="67" rx="4" fill="white"/>
<path d="M74.6821 725.502H70.5725L76.6131 743H81.3807L87.4127 725.502H83.3116L79.0738 738.796H78.9114L74.6821 725.502ZM91.736 743.248C93.6755 743.248 94.9315 742.402 95.5723 741.18H95.6748V743H99.1266V734.148C99.1266 731.021 96.478 729.705 93.5559 729.705C90.4117 729.705 88.344 731.209 87.8399 733.602L91.2063 733.875C91.4541 733.003 92.2316 732.363 93.5388 732.363C94.7777 732.363 95.4869 732.986 95.4869 734.063V734.114C95.4869 734.96 94.5897 735.071 92.3085 735.293C89.7111 735.533 87.3786 736.404 87.3786 739.335C87.3786 741.932 89.2326 743.248 91.736 743.248ZM92.7784 740.736C91.6591 740.736 90.856 740.215 90.856 739.215C90.856 738.19 91.7018 737.686 92.9834 737.506C93.778 737.395 95.0767 737.207 95.5125 736.917V738.309C95.5125 739.685 94.3761 740.736 92.7784 740.736ZM105.59 725.502H101.95V743H105.59V725.502ZM108.506 743H112.146V729.876H108.506V743ZM110.334 728.185C111.419 728.185 112.308 727.356 112.308 726.339C112.308 725.331 111.419 724.502 110.334 724.502C109.258 724.502 108.369 725.331 108.369 726.339C108.369 727.356 109.258 728.185 110.334 728.185ZM119.897 743.214C122.016 743.214 123.118 741.992 123.622 740.898H123.776V743H127.365V725.502H123.733V732.081H123.622C123.135 731.013 122.084 729.705 119.889 729.705C117.009 729.705 114.574 731.944 114.574 736.455C114.574 740.847 116.907 743.214 119.897 743.214ZM121.051 740.317C119.265 740.317 118.291 738.728 118.291 736.438C118.291 734.165 119.248 732.602 121.051 732.602C122.819 732.602 123.81 734.097 123.81 736.438C123.81 738.779 122.802 740.317 121.051 740.317ZM134.099 743.248C136.039 743.248 137.295 742.402 137.936 741.18H138.038V743H141.49V734.148C141.49 731.021 138.841 729.705 135.919 729.705C132.775 729.705 130.707 731.209 130.203 733.602L133.57 733.875C133.818 733.003 134.595 732.363 135.902 732.363C137.141 732.363 137.85 732.986 137.85 734.063V734.114C137.85 734.96 136.953 735.071 134.672 735.293C132.075 735.533 129.742 736.404 129.742 739.335C129.742 741.932 131.596 743.248 134.099 743.248ZM135.142 740.736C134.023 740.736 133.219 740.215 133.219 739.215C133.219 738.19 134.065 737.686 135.347 737.506C136.141 737.395 137.44 737.207 137.876 736.917V738.309C137.876 739.685 136.74 740.736 135.142 740.736ZM151.294 729.876H148.825V726.732H145.185V729.876H143.391V732.61H145.185V739.446C145.168 742.017 146.92 743.29 149.56 743.179C150.5 743.145 151.166 742.957 151.534 742.838L150.961 740.129C150.782 740.163 150.397 740.249 150.055 740.249C149.329 740.249 148.825 739.975 148.825 738.967V732.61H151.294V729.876ZM153.665 743H157.305V729.876H153.665V743ZM155.494 728.185C156.579 728.185 157.467 727.356 157.467 726.339C157.467 725.331 156.579 724.502 155.494 724.502C154.417 724.502 153.529 725.331 153.529 726.339C153.529 727.356 154.417 728.185 155.494 728.185ZM166.15 743.256C170.132 743.256 172.61 740.531 172.61 736.489C172.61 732.422 170.132 729.705 166.15 729.705C162.169 729.705 159.691 732.422 159.691 736.489C159.691 740.531 162.169 743.256 166.15 743.256ZM166.167 740.437C164.33 740.437 163.391 738.754 163.391 736.464C163.391 734.174 164.33 732.482 166.167 732.482C167.97 732.482 168.91 734.174 168.91 736.464C168.91 738.754 167.97 740.437 166.167 740.437ZM178.616 735.413C178.625 733.721 179.633 732.73 181.102 732.73C182.563 732.73 183.443 733.687 183.435 735.293V743H187.075V734.644C187.075 731.585 185.28 729.705 182.546 729.705C180.598 729.705 179.188 730.662 178.599 732.192H178.445V729.876H174.976V743H178.616V735.413Z" fill="black"/>
<rect x="51" y="701" width="498" height="67" rx="4" stroke="black" stroke-width="2"/>
<path d="M298.939 816.061C299.525 816.646 300.475 816.646 301.061 816.061L310.607 806.515C311.192 805.929 311.192 804.979 310.607 804.393C310.021 803.808 309.071 803.808 308.485 804.393L300 812.879L291.515 804.393C290.929 803.808 289.979 803.808 289.393 804.393C288.808 804.979 288.808 805.929 289.393 806.515L298.939 816.061ZM298.5 785V815H301.5V785H298.5Z" fill="black"/>
<rect x="51" y="832" width="498" height="67" rx="4" fill="white"/>
<path d="M71.5208 874H75.2204V868.327H78.3304C82.3547 868.327 84.6957 865.926 84.6957 862.431C84.6957 858.954 82.3974 856.502 78.4244 856.502H71.5208V874ZM75.2204 865.362V859.526H77.7153C79.8513 859.526 80.8851 860.688 80.8851 862.431C80.8851 864.166 79.8513 865.362 77.7324 865.362H75.2204ZM87.0304 874H90.6702V866.575C90.6702 864.96 91.8492 863.85 93.4555 863.85C93.9596 863.85 94.6517 863.935 94.9934 864.046V860.817C94.6688 860.74 94.2159 860.688 93.8485 860.688C92.379 860.688 91.1743 861.543 90.6958 863.166H90.5591V860.876H87.0304V874ZM102.194 874.256C106.175 874.256 108.653 871.531 108.653 867.489C108.653 863.422 106.175 860.705 102.194 860.705C98.2124 860.705 95.7346 863.422 95.7346 867.489C95.7346 871.531 98.2124 874.256 102.194 874.256ZM102.211 871.437C100.374 871.437 99.4342 869.754 99.4342 867.464C99.4342 865.174 100.374 863.482 102.211 863.482C104.014 863.482 104.954 865.174 104.954 867.464C104.954 869.754 104.014 871.437 102.211 871.437ZM111.02 878.921H114.66V871.898H114.771C115.275 872.992 116.377 874.214 118.496 874.214C121.486 874.214 123.819 871.847 123.819 867.455C123.819 862.944 121.384 860.705 118.504 860.705C116.309 860.705 115.258 862.013 114.771 863.081H114.608V860.876H111.02V878.921ZM114.583 867.438C114.583 865.097 115.574 863.602 117.342 863.602C119.145 863.602 120.102 865.165 120.102 867.438C120.102 869.728 119.128 871.317 117.342 871.317C115.591 871.317 114.583 869.779 114.583 867.438ZM129.988 874.248C131.927 874.248 133.183 873.402 133.824 872.18H133.926V874H137.378V865.148C137.378 862.021 134.73 860.705 131.808 860.705C128.663 860.705 126.596 862.209 126.092 864.602L129.458 864.875C129.706 864.003 130.483 863.363 131.79 863.363C133.029 863.363 133.738 863.986 133.738 865.063V865.114C133.738 865.96 132.841 866.071 130.56 866.293C127.963 866.533 125.63 867.404 125.63 870.335C125.63 872.932 127.484 874.248 129.988 874.248ZM131.03 871.736C129.911 871.736 129.108 871.215 129.108 870.215C129.108 869.19 129.953 868.686 131.235 868.506C132.03 868.395 133.328 868.207 133.764 867.917V869.309C133.764 870.685 132.628 871.736 131.03 871.736ZM146.115 879.195C149.865 879.195 152.531 877.486 152.531 874.128V860.876H148.917V863.081H148.78C148.293 862.013 147.225 860.705 145.029 860.705C142.15 860.705 139.715 862.944 139.715 867.413C139.715 871.779 142.082 873.812 145.038 873.812C147.131 873.812 148.302 872.761 148.78 871.676H148.934V874.077C148.934 875.88 147.781 876.58 146.2 876.58C144.594 876.58 143.782 875.88 143.483 875.085L140.117 875.538C140.552 877.606 142.577 879.195 146.115 879.195ZM146.191 871.078C144.406 871.078 143.432 869.66 143.432 867.395C143.432 865.165 144.389 863.602 146.191 863.602C147.96 863.602 148.951 865.097 148.951 867.395C148.951 869.711 147.943 871.078 146.191 871.078ZM159.17 874.248C161.109 874.248 162.365 873.402 163.006 872.18H163.109V874H166.56V865.148C166.56 862.021 163.912 860.705 160.99 860.705C157.845 860.705 155.778 862.209 155.274 864.602L158.64 864.875C158.888 864.003 159.665 863.363 160.973 863.363C162.211 863.363 162.921 863.986 162.921 865.063V865.114C162.921 865.96 162.024 866.071 159.742 866.293C157.145 866.533 154.812 867.404 154.812 870.335C154.812 872.932 156.666 874.248 159.17 874.248ZM160.212 871.736C159.093 871.736 158.29 871.215 158.29 870.215C158.29 869.19 159.136 868.686 160.417 868.506C161.212 868.395 162.511 868.207 162.946 867.917V869.309C162.946 870.685 161.81 871.736 160.212 871.736ZM176.365 860.876H173.895V857.732H170.256V860.876H168.461V863.61H170.256V870.446C170.239 873.017 171.99 874.29 174.63 874.179C175.57 874.145 176.237 873.957 176.604 873.838L176.031 871.129C175.852 871.163 175.468 871.249 175.126 871.249C174.4 871.249 173.895 870.975 173.895 869.967V863.61H176.365V860.876ZM178.736 874H182.375V860.876H178.736V874ZM180.564 859.185C181.649 859.185 182.538 858.356 182.538 857.339C182.538 856.331 181.649 855.502 180.564 855.502C179.488 855.502 178.599 856.331 178.599 857.339C178.599 858.356 179.488 859.185 180.564 859.185ZM191.221 874.256C195.202 874.256 197.68 871.531 197.68 867.489C197.68 863.422 195.202 860.705 191.221 860.705C187.239 860.705 184.761 863.422 184.761 867.489C184.761 871.531 187.239 874.256 191.221 874.256ZM191.238 871.437C189.401 871.437 188.461 869.754 188.461 867.464C188.461 865.174 189.401 863.482 191.238 863.482C193.04 863.482 193.98 865.174 193.98 867.464C193.98 869.754 193.04 871.437 191.238 871.437ZM203.686 866.413C203.695 864.721 204.703 863.73 206.173 863.73C207.634 863.73 208.514 864.687 208.505 866.293V874H212.145V865.644C212.145 862.585 210.351 860.705 207.617 860.705C205.669 860.705 204.259 861.662 203.669 863.192H203.515V860.876H200.047V874H203.686V866.413Z" fill="black"/>
<rect x="51" y="832" width="498" height="67" rx="4" stroke="black" stroke-width="2"/>
<path d="M298.939 947.061C299.525 947.646 300.475 947.646 301.061 947.061L310.607 937.515C311.192 936.929 311.192 935.979 310.607 935.393C310.021 934.808 309.071 934.808 308.485 935.393L300 943.879L291.515 935.393C290.929 934.808 289.979 934.808 289.393 935.393C288.808 935.979 288.808 936.929 289.393 937.515L298.939 947.061ZM298.5 916V946H301.5V916H298.5Z" fill="black"/>
<rect x="51" y="963" width="498" height="67" rx="4" fill="white"/>
<path d="M86.9599 993.628C86.4729 989.587 83.4141 987.263 79.3643 987.263C74.7419 987.263 71.2133 990.526 71.2133 996.251C71.2133 1001.96 74.6821 1005.24 79.3643 1005.24C83.8499 1005.24 86.5583 1002.26 86.9599 999.036L83.2176 999.019C82.8673 1000.89 81.3977 1001.97 79.4241 1001.97C76.7669 1001.97 74.9641 999.993 74.9641 996.251C74.9641 992.611 76.7412 990.535 79.4497 990.535C81.4746 990.535 82.9357 991.705 83.2176 993.628H86.9599ZM95.474 1005.26C99.4556 1005.26 101.933 1002.53 101.933 998.489C101.933 994.422 99.4556 991.705 95.474 991.705C91.4925 991.705 89.0147 994.422 89.0147 998.489C89.0147 1002.53 91.4925 1005.26 95.474 1005.26ZM95.4911 1002.44C93.6542 1002.44 92.7143 1000.75 92.7143 998.464C92.7143 996.174 93.6542 994.482 95.4911 994.482C97.2939 994.482 98.2338 996.174 98.2338 998.464C98.2338 1000.75 97.2939 1002.44 95.4911 1002.44ZM107.94 997.413C107.948 995.721 108.957 994.73 110.426 994.73C111.887 994.73 112.767 995.687 112.759 997.293V1005H116.398V996.644C116.398 993.585 114.604 991.705 111.87 991.705C109.922 991.705 108.512 992.662 107.923 994.192H107.769V991.876H104.3V1005H107.94V997.413ZM126.324 991.876H123.718V990.996C123.718 990.108 124.077 989.587 125.145 989.587C125.581 989.587 126.025 989.681 126.316 989.775L126.957 987.04C126.504 986.904 125.504 986.682 124.385 986.682C121.916 986.682 120.079 988.074 120.079 990.928V991.876H118.225V994.61H120.079V1005H123.718V994.61H126.324V991.876ZM128.548 1005H132.188V991.876H128.548V1005ZM130.376 990.185C131.462 990.185 132.35 989.356 132.35 988.339C132.35 987.331 131.462 986.502 130.376 986.502C129.3 986.502 128.411 987.331 128.411 988.339C128.411 989.356 129.3 990.185 130.376 990.185ZM135.103 1005H138.743V997.575C138.743 995.96 139.922 994.85 141.529 994.85C142.033 994.85 142.725 994.935 143.066 995.046V991.817C142.742 991.74 142.289 991.688 141.922 991.688C140.452 991.688 139.247 992.543 138.769 994.166H138.632V991.876H135.103V1005ZM144.948 1005H148.588V997.122C148.588 995.67 149.511 994.704 150.724 994.704C151.92 994.704 152.723 995.525 152.723 996.815V1005H156.252V996.986C156.252 995.627 157.03 994.704 158.354 994.704C159.516 994.704 160.387 995.431 160.387 996.892V1005H164.019V996.174C164.019 993.329 162.327 991.705 159.883 991.705C157.961 991.705 156.466 992.688 155.927 994.192H155.791C155.372 992.671 154.031 991.705 152.228 991.705C150.459 991.705 149.118 992.645 148.571 994.192H148.417V991.876H144.948V1005ZM170.636 1005.25C172.575 1005.25 173.831 1004.4 174.472 1003.18H174.575V1005H178.026V996.148C178.026 993.021 175.378 991.705 172.456 991.705C169.312 991.705 167.244 993.209 166.74 995.602L170.106 995.875C170.354 995.003 171.131 994.363 172.439 994.363C173.678 994.363 174.387 994.986 174.387 996.063V996.114C174.387 996.96 173.49 997.071 171.208 997.293C168.611 997.533 166.278 998.404 166.278 1001.33C166.278 1003.93 168.132 1005.25 170.636 1005.25ZM171.678 1002.74C170.559 1002.74 169.756 1002.21 169.756 1001.21C169.756 1000.19 170.602 999.686 171.883 999.506C172.678 999.395 173.977 999.207 174.412 998.917V1000.31C174.412 1001.68 173.276 1002.74 171.678 1002.74ZM187.831 991.876H185.362V988.732H181.722V991.876H179.928V994.61H181.722V1001.45C181.705 1004.02 183.456 1005.29 186.096 1005.18C187.036 1005.15 187.703 1004.96 188.07 1004.84L187.498 1002.13C187.318 1002.16 186.934 1002.25 186.592 1002.25C185.866 1002.25 185.362 1001.98 185.362 1000.97V994.61H187.831V991.876ZM190.202 1005H193.841V991.876H190.202V1005ZM192.03 990.185C193.115 990.185 194.004 989.356 194.004 988.339C194.004 987.331 193.115 986.502 192.03 986.502C190.954 986.502 190.065 987.331 190.065 988.339C190.065 989.356 190.954 990.185 192.03 990.185ZM202.687 1005.26C206.668 1005.26 209.146 1002.53 209.146 998.489C209.146 994.422 206.668 991.705 202.687 991.705C198.705 991.705 196.227 994.422 196.227 998.489C196.227 1002.53 198.705 1005.26 202.687 1005.26ZM202.704 1002.44C200.867 1002.44 199.927 1000.75 199.927 998.464C199.927 996.174 200.867 994.482 202.704 994.482C204.507 994.482 205.446 996.174 205.446 998.464C205.446 1000.75 204.507 1002.44 202.704 1002.44ZM215.152 997.413C215.161 995.721 216.169 994.73 217.639 994.73C219.1 994.73 219.98 995.687 219.971 997.293V1005H223.611V996.644C223.611 993.585 221.817 991.705 219.083 991.705C217.135 991.705 215.725 992.662 215.135 994.192H214.982V991.876H211.513V1005H215.152V997.413ZM237.399 995.619C237.074 993.201 235.126 991.705 231.811 991.705C228.453 991.705 226.24 993.26 226.249 995.79C226.24 997.755 227.479 999.028 230.043 999.54L232.315 999.993C233.46 1000.22 233.981 1000.64 233.998 1001.3C233.981 1002.08 233.135 1002.63 231.862 1002.63C230.564 1002.63 229.701 1002.08 229.479 1001.01L225.899 1001.2C226.24 1003.71 228.376 1005.26 231.854 1005.26C235.254 1005.26 237.689 1003.52 237.698 1000.93C237.689 999.036 236.451 997.9 233.904 997.379L231.529 996.9C230.307 996.635 229.855 996.217 229.863 995.584C229.855 994.798 230.743 994.286 231.871 994.286C233.135 994.286 233.887 994.978 234.067 995.824L237.399 995.619Z" fill="black"/>
<rect x="51" y="963" width="498" height="67" rx="4" stroke="black" stroke-width="2"/>
</svg>
