<?xml version="1.0" encoding="UTF-8"?>
<svg xmlns="http://www.w3.org/2000/svg" xmlns:xlink="http://www.w3.org/1999/xlink" width="300pt" height="299.999988pt" viewBox="0 0 300 299.999988" version="1.2">
<defs>
<clipPath id="clip1">
  <path d="M 113.621094 74.214844 L 186.371094 74.214844 L 186.371094 225.714844 L 113.621094 225.714844 Z M 113.621094 74.214844 "/>
</clipPath>
</defs>
<g id="surface1">
<rect x="0" y="0" width="300" height="299.999988" style="fill:rgb(100%,100%,100%);fill-opacity:1;stroke:none;"/>
<rect x="0" y="0" width="300" height="299.999988" style="fill:rgb(100%,100%,100%);fill-opacity:1;stroke:none;"/>
<rect x="0" y="0" width="300" height="299.999988" style="fill:rgb(100%,100%,100%);fill-opacity:1;stroke:none;"/>
<path style=" stroke:none;fill-rule:nonzero;fill:rgb(0%,0%,0%);fill-opacity:1;" d="M 287.375 0 L 12.625 0 C 5.644531 0 0 5.644531 0 12.625 L 0 287.375 C 0 294.355469 5.644531 300 12.625 300 L 287.375 300 C 294.355469 300 300 294.355469 300 287.375 L 300 12.625 C 300 5.644531 294.355469 0 287.375 0 Z M 297.03125 74.257812 L 297.03125 287.375 C 297.03125 292.722656 292.722656 297.03125 287.375 297.03125 L 12.625 297.03125 C 7.277344 297.03125 2.96875 292.722656 2.96875 287.375 L 2.96875 12.625 C 2.96875 7.277344 7.277344 2.96875 12.625 2.96875 L 287.375 2.96875 C 292.722656 2.96875 297.03125 7.277344 297.03125 12.625 Z M 297.03125 74.257812 "/>
<g clip-path="url(#clip1)" clip-rule="nonzero">
<path style=" stroke:none;fill-rule:nonzero;fill:rgb(49.409485%,85.099792%,34.118652%);fill-opacity:1;" d="M 176.257812 87.246094 L 164.878906 87.246094 L 164.878906 84.425781 C 164.878906 78.792969 160.292969 74.214844 154.660156 74.214844 L 145.347656 74.214844 C 139.714844 74.214844 135.132812 78.792969 135.132812 84.425781 L 135.132812 87.246094 L 123.753906 87.246094 C 118.195312 87.246094 113.671875 91.769531 113.671875 97.324219 L 113.671875 215.636719 C 113.671875 221.195312 118.195312 225.714844 123.753906 225.714844 L 176.257812 225.714844 C 181.816406 225.714844 186.335938 221.195312 186.335938 215.636719 L 186.335938 97.324219 C 186.335938 91.769531 181.816406 87.246094 176.257812 87.246094 Z M 143.550781 84.425781 C 143.550781 83.433594 144.359375 82.628906 145.347656 82.628906 L 154.660156 82.628906 C 155.652344 82.628906 156.457031 83.433594 156.457031 84.425781 L 156.457031 87.246094 L 143.554688 87.246094 L 143.554688 84.425781 Z M 177.917969 215.636719 C 177.917969 216.550781 177.171875 217.296875 176.257812 217.296875 L 123.753906 217.296875 C 122.835938 217.296875 122.089844 216.550781 122.089844 215.636719 L 122.089844 97.324219 C 122.089844 96.410156 122.835938 95.664062 123.753906 95.664062 L 176.257812 95.664062 C 177.171875 95.664062 177.917969 96.410156 177.917969 97.324219 Z M 177.917969 215.636719 "/>
</g>
<path style=" stroke:none;fill-rule:nonzero;fill:rgb(49.409485%,85.099792%,34.118652%);fill-opacity:1;" d="M 127.792969 147.5 L 172.21875 147.5 L 172.21875 165.460938 L 127.792969 165.460938 Z M 127.792969 147.5 "/>
<path style=" stroke:none;fill-rule:nonzero;fill:rgb(49.409485%,85.099792%,34.118652%);fill-opacity:1;" d="M 127.792969 170.472656 L 172.21875 170.472656 L 172.21875 188.433594 L 127.792969 188.433594 Z M 127.792969 170.472656 "/>
<path style=" stroke:none;fill-rule:nonzero;fill:rgb(49.409485%,85.099792%,34.118652%);fill-opacity:1;" d="M 127.792969 193.441406 L 172.21875 193.441406 L 172.21875 211.390625 L 127.792969 211.390625 Z M 127.792969 193.441406 "/>
</g>
</svg>
