<svg width="1000" height="400" viewBox="0 0 1000 400" fill="none" xmlns="http://www.w3.org/2000/svg">
<rect width="1000" height="400" fill="white"/>
<path d="M343.585 170H345.17V165.219H348.034C351.083 165.219 352.457 163.365 352.457 161.051C352.457 158.737 351.083 156.909 348.009 156.909H343.585V170ZM345.17 163.812V158.315H347.957C350.086 158.315 350.898 159.479 350.898 161.051C350.898 162.624 350.086 163.812 347.983 163.812H345.17ZM357.696 170.23C359.409 170.23 360.304 169.31 360.61 168.67H360.687V170H362.196V163.531C362.196 160.412 359.818 160.054 358.565 160.054C357.082 160.054 355.395 160.565 354.627 162.355L356.059 162.866C356.392 162.151 357.178 161.384 358.616 161.384C360.003 161.384 360.687 162.119 360.687 163.378V163.429C360.687 164.158 359.946 164.094 358.156 164.324C356.334 164.56 354.346 164.963 354.346 167.213C354.346 169.131 355.829 170.23 357.696 170.23ZM357.926 168.875C356.724 168.875 355.855 168.338 355.855 167.29C355.855 166.139 356.903 165.781 358.079 165.628C358.718 165.551 360.431 165.372 360.687 165.065V166.446C360.687 167.673 359.716 168.875 357.926 168.875ZM365.569 173.682C366.931 173.682 367.889 172.96 368.458 171.432L372.639 160.207L370.99 160.182L368.279 168.006H368.177L365.467 160.182H363.83L367.461 170.051L367.18 170.818C366.63 172.314 365.953 172.455 364.853 172.173L364.47 173.503C364.623 173.58 365.058 173.682 365.569 173.682ZM374.635 170H376.143V163.864C376.143 162.425 377.191 161.409 378.368 161.409C379.512 161.409 380.311 162.157 380.311 163.276V170H381.845V163.608C381.845 162.342 382.637 161.409 384.018 161.409C385.092 161.409 386.012 161.978 386.012 163.429V170H387.521V163.429C387.521 161.121 386.281 160.054 384.529 160.054C383.123 160.054 382.094 160.7 381.589 161.716H381.487C381.001 160.668 380.145 160.054 378.853 160.054C377.575 160.054 376.629 160.668 376.22 161.716H376.092V160.182H374.635V170ZM394.396 170.205C396.39 170.205 397.847 169.207 398.308 167.724L396.85 167.315C396.467 168.338 395.578 168.849 394.396 168.849C392.625 168.849 391.404 167.705 391.334 165.602H398.461V164.963C398.461 161.307 396.288 160.054 394.242 160.054C391.583 160.054 389.819 162.151 389.819 165.168C389.819 168.185 391.558 170.205 394.396 170.205ZM391.334 164.298C391.436 162.771 392.516 161.409 394.242 161.409C395.879 161.409 396.927 162.636 396.927 164.298H391.334ZM402.264 164.094C402.264 162.381 403.325 161.409 404.77 161.409C406.17 161.409 407.02 162.323 407.02 163.864V170H408.528V163.761C408.528 161.256 407.192 160.054 405.205 160.054C403.722 160.054 402.801 160.719 402.341 161.716H402.213V160.182H400.756V170H402.264V164.094ZM415.555 160.182H413.458V157.83H411.95V160.182H410.467V161.46H411.95V167.597C411.95 169.31 413.33 170.128 414.609 170.128C415.171 170.128 415.529 170.026 415.734 169.949L415.427 168.594C415.299 168.619 415.095 168.67 414.762 168.67C414.097 168.67 413.458 168.466 413.458 167.188V161.46H415.555V160.182ZM427.156 160.182H425.06V157.83H423.551V160.182H422.068V161.46H423.551V167.597C423.551 169.31 424.932 170.128 426.21 170.128C426.773 170.128 427.131 170.026 427.335 169.949L427.029 168.594C426.901 168.619 426.696 168.67 426.364 168.67C425.699 168.67 425.06 168.466 425.06 167.188V161.46H427.156V160.182ZM433.309 170.205C435.968 170.205 437.758 168.185 437.758 165.142C437.758 162.074 435.968 160.054 433.309 160.054C430.65 160.054 428.86 162.074 428.86 165.142C428.86 168.185 430.65 170.205 433.309 170.205ZM433.309 168.849C431.289 168.849 430.368 167.111 430.368 165.142C430.368 163.173 431.289 161.409 433.309 161.409C435.329 161.409 436.249 163.173 436.249 165.142C436.249 167.111 435.329 168.849 433.309 168.849ZM453.504 161.089H455.921C455.518 158.52 453.294 156.73 450.398 156.73C446.972 156.73 444.402 159.249 444.402 163.467C444.402 167.609 446.857 170.179 450.468 170.179C453.709 170.179 456.029 168.095 456.029 164.72V163.148H450.718V165.001H453.735C453.696 166.868 452.45 168.05 450.481 168.05C448.289 168.05 446.786 166.408 446.786 163.442C446.786 160.495 448.314 158.859 450.43 158.859C452.009 158.859 453.083 159.702 453.504 161.089ZM461.045 170.198C462.586 170.198 463.506 169.476 463.928 168.651H464.005V170H466.229V163.429C466.229 160.834 464.114 160.054 462.241 160.054C460.176 160.054 458.591 160.974 458.08 162.764L460.24 163.071C460.47 162.4 461.122 161.825 462.254 161.825C463.327 161.825 463.915 162.374 463.915 163.339V163.378C463.915 164.043 463.219 164.075 461.487 164.26C459.582 164.464 457.76 165.033 457.76 167.245C457.76 169.175 459.173 170.198 461.045 170.198ZM461.646 168.498C460.681 168.498 459.991 168.057 459.991 167.207C459.991 166.318 460.764 165.947 461.8 165.8C462.407 165.717 463.621 165.564 463.922 165.321V166.478C463.922 167.571 463.04 168.498 461.646 168.498ZM473.459 160.182H471.522V157.83H469.208V160.182H467.815V161.972H469.208V167.43C469.195 169.278 470.538 170.185 472.276 170.134C472.935 170.115 473.388 169.987 473.638 169.904L473.248 168.095C473.12 168.127 472.858 168.185 472.57 168.185C471.989 168.185 471.522 167.98 471.522 167.047V161.972H473.459V160.182ZM479.635 170.192C481.923 170.192 483.496 169.073 483.905 167.366L481.744 167.124C481.431 167.955 480.664 168.389 479.667 168.389C478.171 168.389 477.181 167.405 477.161 165.724H484.001V165.014C484.001 161.569 481.93 160.054 479.514 160.054C476.701 160.054 474.867 162.119 474.867 165.148C474.867 168.229 476.676 170.192 479.635 170.192ZM477.168 164.164C477.238 162.911 478.165 161.857 479.546 161.857C480.875 161.857 481.77 162.828 481.783 164.164H477.168ZM490.861 160.182H488.924V157.83H486.61V160.182H485.217V161.972H486.61V167.43C486.598 169.278 487.94 170.185 489.679 170.134C490.337 170.115 490.791 169.987 491.04 169.904L490.65 168.095C490.522 168.127 490.26 168.185 489.973 168.185C489.391 168.185 488.924 167.98 488.924 167.047V161.972H490.861V160.182ZM497.037 170.192C499.326 170.192 500.898 169.073 501.307 167.366L499.147 167.124C498.834 167.955 498.067 168.389 497.069 168.389C495.574 168.389 494.583 167.405 494.564 165.724H501.403V165.014C501.403 161.569 499.332 160.054 496.916 160.054C494.104 160.054 492.269 162.119 492.269 165.148C492.269 168.229 494.078 170.192 497.037 170.192ZM494.57 164.164C494.64 162.911 495.567 161.857 496.948 161.857C498.278 161.857 499.172 162.828 499.185 164.164H494.57Z" fill="black"/>
<path d="M593.832 170.249C596.99 170.256 598.876 167.763 598.876 163.467C598.876 159.197 596.977 156.73 593.832 156.73C590.687 156.73 588.795 159.191 588.789 163.467C588.789 167.756 590.675 170.249 593.832 170.249ZM593.832 168.249C592.202 168.249 591.18 166.612 591.186 163.467C591.192 160.348 592.209 158.705 593.832 158.705C595.462 158.705 596.479 160.348 596.485 163.467C596.485 166.612 595.469 168.249 593.832 168.249ZM601.941 170.141C602.695 170.141 603.34 169.514 603.347 168.734C603.34 167.967 602.695 167.341 601.941 167.341C601.161 167.341 600.528 167.967 600.534 168.734C600.528 169.514 601.161 170.141 601.941 170.141ZM610.044 156.73C607.206 156.711 605.32 158.661 605.32 161.217C605.327 163.685 607.085 165.468 609.379 165.468C610.792 165.468 612.019 164.784 612.652 163.659H612.741C612.735 166.459 611.719 168.127 609.91 168.127C608.778 168.127 608.018 167.475 607.781 166.433H605.448C605.717 168.6 607.43 170.179 609.91 170.179C613.048 170.179 615.049 167.558 615.043 163.052C615.036 158.283 612.556 156.743 610.044 156.73ZM610.05 158.648C611.45 158.648 612.479 159.811 612.479 161.147C612.486 162.502 611.406 163.665 610.025 163.665C608.631 163.665 607.628 162.566 607.621 161.166C607.621 159.76 608.663 158.648 610.05 158.648ZM621.764 170H627.063C630.061 170 631.531 168.472 631.531 166.433C631.531 164.452 630.125 163.288 628.731 163.218V163.09C630.01 162.79 631.02 161.895 631.02 160.303C631.02 158.354 629.613 156.909 626.775 156.909H621.764V170ZM624.135 168.018V164.183H626.75C628.213 164.183 629.121 165.078 629.121 166.248C629.121 167.29 628.405 168.018 626.686 168.018H624.135ZM624.135 162.477V158.865H626.532C627.926 158.865 628.648 159.6 628.648 160.61C628.648 161.761 627.715 162.477 626.481 162.477H624.135ZM633.019 158.897H637.065V170H639.417V158.897H643.463V156.909H633.019V158.897ZM656.119 161.326C655.717 158.418 653.48 156.73 650.578 156.73C647.158 156.73 644.582 159.223 644.582 163.455C644.582 167.68 647.126 170.179 650.578 170.179C653.691 170.179 655.755 168.165 656.119 165.666L653.729 165.653C653.428 167.188 652.176 168.05 650.61 168.05C648.487 168.05 646.966 166.459 646.966 163.455C646.966 160.501 648.475 158.859 650.616 158.859C652.208 158.859 653.454 159.76 653.729 161.326H656.119Z" fill="black"/>
<g opacity="0.6">
<path d="M343.14 188.12H344.1V191.816H344.148C344.548 191.048 345.184 190.664 346.056 190.664C346.816 190.664 347.408 190.948 347.832 191.516C348.264 192.084 348.48 192.88 348.48 193.904C348.48 194.928 348.264 195.724 347.832 196.292C347.408 196.86 346.816 197.144 346.056 197.144C345.184 197.144 344.548 196.76 344.148 195.992H344.1V197H343.14V188.12ZM345.684 196.292C346.244 196.292 346.676 196.124 346.98 195.788C347.292 195.444 347.448 194.992 347.448 194.432V193.376C347.448 192.816 347.292 192.368 346.98 192.032C346.676 191.688 346.244 191.516 345.684 191.516C345.468 191.516 345.264 191.544 345.072 191.6C344.88 191.656 344.712 191.74 344.568 191.852C344.424 191.956 344.308 192.088 344.22 192.248C344.14 192.4 344.1 192.58 344.1 192.788V195.02C344.1 195.228 344.14 195.412 344.22 195.572C344.308 195.724 344.424 195.856 344.568 195.968C344.712 196.072 344.88 196.152 345.072 196.208C345.264 196.264 345.468 196.292 345.684 196.292ZM353.011 197.144C352.563 197.144 352.163 197.068 351.811 196.916C351.467 196.756 351.175 196.536 350.935 196.256C350.695 195.976 350.511 195.636 350.383 195.236C350.263 194.836 350.203 194.392 350.203 193.904C350.203 193.416 350.267 192.972 350.395 192.572C350.523 192.172 350.707 191.832 350.947 191.552C351.187 191.264 351.479 191.044 351.823 190.892C352.167 190.74 352.559 190.664 352.999 190.664C353.599 190.664 354.087 190.796 354.463 191.06C354.839 191.324 355.115 191.668 355.291 192.092L354.523 192.5C354.411 192.18 354.223 191.932 353.959 191.756C353.703 191.58 353.383 191.492 352.999 191.492C352.719 191.492 352.467 191.54 352.243 191.636C352.027 191.724 351.843 191.852 351.691 192.02C351.539 192.188 351.423 192.388 351.343 192.62C351.271 192.852 351.235 193.104 351.235 193.376V194.432C351.235 194.704 351.271 194.956 351.343 195.188C351.423 195.42 351.539 195.62 351.691 195.788C351.843 195.956 352.031 196.088 352.255 196.184C352.479 196.272 352.735 196.316 353.023 196.316C353.439 196.316 353.783 196.22 354.055 196.028C354.327 195.836 354.543 195.572 354.703 195.236L355.387 195.704C355.203 196.12 354.915 196.464 354.523 196.736C354.139 197.008 353.635 197.144 353.011 197.144ZM357.411 197V196.124H359.811V189.368H359.727L357.615 191.336L357.027 190.7L359.247 188.624H360.819V196.124H363.027V197H357.411ZM368.686 195.992H368.638C368.238 196.76 367.602 197.144 366.73 197.144C365.97 197.144 365.374 196.86 364.942 196.292C364.518 195.724 364.306 194.928 364.306 193.904C364.306 192.88 364.518 192.084 364.942 191.516C365.374 190.948 365.97 190.664 366.73 190.664C367.602 190.664 368.238 191.048 368.638 191.816H368.686V190.808H369.646V199.4H368.686V195.992ZM367.102 196.292C367.318 196.292 367.522 196.264 367.714 196.208C367.906 196.152 368.074 196.072 368.218 195.968C368.362 195.856 368.474 195.724 368.554 195.572C368.642 195.412 368.686 195.228 368.686 195.02V192.788C368.686 192.58 368.642 192.4 368.554 192.248C368.474 192.088 368.362 191.956 368.218 191.852C368.074 191.74 367.906 191.656 367.714 191.6C367.522 191.544 367.318 191.516 367.102 191.516C366.542 191.516 366.106 191.688 365.794 192.032C365.49 192.368 365.338 192.816 365.338 193.376V194.432C365.338 194.992 365.49 195.444 365.794 195.788C366.106 196.124 366.542 196.292 367.102 196.292ZM376.721 197C376.345 197 376.077 196.904 375.917 196.712C375.757 196.52 375.657 196.28 375.617 195.992H375.557C375.421 196.352 375.201 196.636 374.897 196.844C374.601 197.044 374.201 197.144 373.697 197.144C373.049 197.144 372.533 196.976 372.149 196.64C371.765 196.304 371.573 195.844 371.573 195.26C371.573 194.684 371.781 194.24 372.197 193.928C372.621 193.616 373.301 193.46 374.237 193.46H375.557V192.848C375.557 192.392 375.429 192.052 375.173 191.828C374.917 191.596 374.553 191.48 374.081 191.48C373.665 191.48 373.325 191.564 373.061 191.732C372.797 191.892 372.585 192.112 372.425 192.392L371.777 191.912C371.857 191.752 371.965 191.596 372.101 191.444C372.237 191.292 372.405 191.16 372.605 191.048C372.805 190.928 373.033 190.836 373.289 190.772C373.545 190.7 373.829 190.664 374.141 190.664C374.869 190.664 375.445 190.848 375.869 191.216C376.301 191.584 376.517 192.096 376.517 192.752V196.16H377.381V197H376.721ZM373.865 196.34C374.113 196.34 374.337 196.312 374.537 196.256C374.745 196.192 374.925 196.112 375.077 196.016C375.229 195.912 375.345 195.792 375.425 195.656C375.513 195.512 375.557 195.36 375.557 195.2V194.18H374.237C373.661 194.18 373.241 194.26 372.977 194.42C372.713 194.58 372.581 194.812 372.581 195.116V195.368C372.581 195.688 372.693 195.932 372.917 196.1C373.149 196.26 373.465 196.34 373.865 196.34ZM378.901 196.184H380.713V191.624H378.901V190.808H381.673V192.368H381.733C381.861 191.88 382.101 191.5 382.453 191.228C382.813 190.948 383.269 190.808 383.821 190.808H384.685V191.768H383.521C382.969 191.768 382.521 191.928 382.177 192.248C381.841 192.568 381.673 192.988 381.673 193.508V196.184H384.073V197H378.901V196.184ZM388.772 197.144C388.26 197.144 387.82 197.048 387.452 196.856C387.084 196.656 386.78 196.372 386.54 196.004C386.3 195.636 386.124 195.184 386.012 194.648C385.9 194.112 385.844 193.5 385.844 192.812C385.844 192.132 385.9 191.524 386.012 190.988C386.124 190.444 386.3 189.988 386.54 189.62C386.78 189.252 387.084 188.972 387.452 188.78C387.82 188.58 388.26 188.48 388.772 188.48C389.284 188.48 389.724 188.58 390.092 188.78C390.46 188.972 390.764 189.252 391.004 189.62C391.244 189.988 391.42 190.444 391.532 190.988C391.644 191.524 391.7 192.132 391.7 192.812C391.7 193.5 391.644 194.112 391.532 194.648C391.42 195.184 391.244 195.636 391.004 196.004C390.764 196.372 390.46 196.656 390.092 196.856C389.724 197.048 389.284 197.144 388.772 197.144ZM388.772 196.268C389.108 196.268 389.396 196.204 389.636 196.076C389.876 195.94 390.068 195.752 390.212 195.512C390.364 195.272 390.476 194.984 390.548 194.648C390.62 194.304 390.656 193.92 390.656 193.496V192.128C390.656 191.712 390.62 191.332 390.548 190.988C390.476 190.644 390.364 190.352 390.212 190.112C390.068 189.872 389.876 189.688 389.636 189.56C389.396 189.424 389.108 189.356 388.772 189.356C388.436 189.356 388.148 189.424 387.908 189.56C387.668 189.688 387.472 189.872 387.32 190.112C387.176 190.352 387.068 190.644 386.996 190.988C386.924 191.332 386.888 191.712 386.888 192.128V193.496C386.888 193.92 386.924 194.304 386.996 194.648C387.068 194.984 387.176 195.272 387.32 195.512C387.472 195.752 387.668 195.94 387.908 196.076C388.148 196.204 388.436 196.268 388.772 196.268ZM388.772 193.52C388.492 193.52 388.296 193.464 388.184 193.352C388.08 193.24 388.028 193.104 388.028 192.944V192.68C388.028 192.52 388.08 192.384 388.184 192.272C388.296 192.16 388.492 192.104 388.772 192.104C389.052 192.104 389.244 192.16 389.348 192.272C389.46 192.384 389.516 192.52 389.516 192.68V192.944C389.516 193.104 389.46 193.24 389.348 193.352C389.244 193.464 389.052 193.52 388.772 193.52ZM396.039 197.144C395.391 197.144 394.831 197.036 394.359 196.82C393.895 196.596 393.499 196.3 393.171 195.932L393.819 195.368C394.115 195.68 394.439 195.92 394.791 196.088C395.143 196.256 395.567 196.34 396.063 196.34C396.543 196.34 396.935 196.256 397.239 196.088C397.551 195.912 397.707 195.64 397.707 195.272C397.707 195.112 397.675 194.98 397.611 194.876C397.555 194.764 397.475 194.676 397.371 194.612C397.267 194.548 397.151 194.5 397.023 194.468C396.895 194.428 396.759 194.396 396.615 194.372L395.643 194.228C395.427 194.196 395.191 194.152 394.935 194.096C394.687 194.04 394.459 193.952 394.251 193.832C394.043 193.704 393.867 193.536 393.723 193.328C393.587 193.12 393.519 192.848 393.519 192.512C393.519 192.2 393.579 191.932 393.699 191.708C393.827 191.476 394.003 191.284 394.227 191.132C394.451 190.972 394.715 190.856 395.019 190.784C395.323 190.704 395.655 190.664 396.015 190.664C396.575 190.664 397.059 190.752 397.467 190.928C397.883 191.104 398.239 191.348 398.535 191.66L397.911 192.248C397.839 192.16 397.747 192.072 397.635 191.984C397.531 191.888 397.399 191.804 397.239 191.732C397.087 191.652 396.907 191.588 396.699 191.54C396.491 191.492 396.251 191.468 395.979 191.468C395.491 191.468 395.115 191.552 394.851 191.72C394.595 191.888 394.467 192.132 394.467 192.452C394.467 192.612 394.495 192.748 394.551 192.86C394.615 192.964 394.699 193.048 394.803 193.112C394.907 193.176 395.023 193.228 395.151 193.268C395.287 193.3 395.423 193.328 395.559 193.352L396.531 193.496C396.755 193.528 396.991 193.572 397.239 193.628C397.487 193.684 397.715 193.776 397.923 193.904C398.131 194.024 398.303 194.188 398.439 194.396C398.583 194.604 398.655 194.876 398.655 195.212C398.655 195.828 398.415 196.304 397.935 196.64C397.463 196.976 396.831 197.144 396.039 197.144ZM400.487 196.184H402.299V191.624H400.487V190.808H403.259V192.368H403.319C403.447 191.88 403.687 191.5 404.039 191.228C404.399 190.948 404.855 190.808 405.407 190.808H406.271V191.768H405.107C404.555 191.768 404.107 191.928 403.763 192.248C403.427 192.568 403.259 192.988 403.259 193.508V196.184H405.659V197H400.487V196.184ZM407.682 196.184H409.494V191.624H407.682V190.808H410.454V192.368H410.514C410.642 191.88 410.882 191.5 411.234 191.228C411.594 190.948 412.05 190.808 412.602 190.808H413.466V191.768H412.302C411.75 191.768 411.302 191.928 410.958 192.248C410.622 192.568 410.454 192.988 410.454 193.508V196.184H412.854V197H407.682V196.184ZM414.877 196.184H416.689V191.624H414.877V190.808H417.649V192.368H417.709C417.837 191.88 418.077 191.5 418.429 191.228C418.789 190.948 419.245 190.808 419.797 190.808H420.661V191.768H419.497C418.945 191.768 418.497 191.928 418.153 192.248C417.817 192.568 417.649 192.988 417.649 193.508V196.184H420.049V197H414.877V196.184ZM423.224 197L426.5 189.488H422.828V191.048H421.928V188.624H427.52V189.512L424.304 197H423.224ZM429.076 197L431.38 193.856L429.136 190.808H430.288L431.224 192.116L431.968 193.148H432.016L432.736 192.116L433.66 190.808H434.764L432.496 193.844L434.824 197H433.672L432.628 195.548L431.92 194.564H431.872L431.188 195.548L430.18 197H429.076ZM436.535 196.184H438.623V191.624H436.415V190.808H438.623V189.536C438.623 189.12 438.731 188.78 438.947 188.516C439.171 188.252 439.519 188.12 439.991 188.12H442.067V188.936H439.583V190.808H442.067V191.624H439.583V196.184H441.791V197H436.535V196.184ZM443.994 188.12H444.954V193.724H445.002L446.082 192.704L448.146 190.808H449.322L446.754 193.232L449.622 197H448.434L446.022 193.784L444.954 194.756V197H443.994V188.12ZM452.918 197L450.698 190.808H451.67L452.558 193.4L453.518 196.196H453.566L454.526 193.4L455.414 190.808H456.362L454.142 197H452.918ZM462.729 190.808H463.689L460.617 198.356C460.545 198.532 460.465 198.684 460.377 198.812C460.289 198.948 460.185 199.056 460.065 199.136C459.945 199.224 459.801 199.288 459.633 199.328C459.465 199.376 459.265 199.4 459.033 199.4H458.121V198.584H459.561L460.257 196.88L457.761 190.808H458.745L459.789 193.4L460.713 195.752H460.761L461.685 193.4L462.729 190.808ZM470.332 189.5H466.588L466.348 192.704H466.432C466.64 192.424 466.872 192.204 467.128 192.044C467.384 191.876 467.736 191.792 468.184 191.792C468.552 191.792 468.888 191.852 469.192 191.972C469.504 192.084 469.772 192.252 469.996 192.476C470.22 192.7 470.396 192.972 470.524 193.292C470.652 193.604 470.716 193.964 470.716 194.372C470.716 194.78 470.652 195.156 470.524 195.5C470.396 195.836 470.208 196.128 469.96 196.376C469.712 196.616 469.412 196.804 469.06 196.94C468.708 197.076 468.308 197.144 467.86 197.144C467.508 197.144 467.192 197.104 466.912 197.024C466.64 196.944 466.396 196.836 466.18 196.7C465.972 196.564 465.788 196.412 465.628 196.244C465.468 196.076 465.324 195.9 465.196 195.716L465.952 195.14C466.064 195.308 466.176 195.46 466.288 195.596C466.408 195.732 466.544 195.852 466.696 195.956C466.848 196.052 467.02 196.128 467.212 196.184C467.404 196.24 467.628 196.268 467.884 196.268C468.46 196.268 468.9 196.112 469.204 195.8C469.516 195.488 469.672 195.056 469.672 194.504V194.408C469.672 193.856 469.516 193.424 469.204 193.112C468.892 192.8 468.444 192.644 467.86 192.644C467.46 192.644 467.148 192.712 466.924 192.848C466.708 192.984 466.508 193.152 466.324 193.352L465.472 193.232L465.772 188.624H470.332V189.5ZM472.476 196.184H474.636V188.936H472.476V188.12H475.596V196.184H477.756V197H472.476V196.184ZM482.323 197.144C481.883 197.144 481.487 197.072 481.135 196.928C480.783 196.776 480.483 196.564 480.235 196.292C479.995 196.012 479.807 195.672 479.671 195.272C479.543 194.872 479.479 194.424 479.479 193.928C479.479 193.304 479.571 192.72 479.755 192.176C479.947 191.624 480.187 191.124 480.475 190.676C480.771 190.22 481.099 189.82 481.459 189.476C481.819 189.124 482.171 188.84 482.515 188.624H483.811C483.355 188.952 482.947 189.272 482.587 189.584C482.235 189.896 481.923 190.224 481.651 190.568C481.379 190.904 481.151 191.268 480.967 191.66C480.783 192.044 480.631 192.48 480.511 192.968L480.571 192.992C480.771 192.648 481.035 192.364 481.363 192.14C481.691 191.908 482.115 191.792 482.635 191.792C483.003 191.792 483.339 191.852 483.643 191.972C483.947 192.092 484.211 192.264 484.435 192.488C484.659 192.712 484.831 192.984 484.951 193.304C485.079 193.624 485.143 193.98 485.143 194.372C485.143 194.78 485.075 195.156 484.939 195.5C484.803 195.836 484.611 196.128 484.363 196.376C484.123 196.616 483.827 196.804 483.475 196.94C483.131 197.076 482.747 197.144 482.323 197.144ZM482.311 196.292C482.887 196.292 483.331 196.136 483.643 195.824C483.963 195.512 484.123 195.072 484.123 194.504V194.408C484.123 193.84 483.963 193.4 483.643 193.088C483.331 192.776 482.887 192.62 482.311 192.62C481.735 192.62 481.287 192.776 480.967 193.088C480.655 193.4 480.499 193.84 480.499 194.408V194.504C480.499 195.072 480.655 195.512 480.967 195.824C481.287 196.136 481.735 196.292 482.311 196.292ZM490.442 197V195.356H486.314V194.468L489.938 188.624H491.402V194.528H492.65V195.356H491.402V197H490.442ZM487.214 194.528H490.442V189.404H490.394L487.214 194.528ZM496.342 192.176C496.926 192.176 497.362 192.048 497.65 191.792C497.946 191.528 498.094 191.192 498.094 190.784V190.7C498.094 190.252 497.95 189.916 497.662 189.692C497.382 189.468 497.014 189.356 496.558 189.356C496.11 189.356 495.746 189.456 495.466 189.656C495.194 189.848 494.97 190.104 494.794 190.424L494.038 189.848C494.142 189.68 494.27 189.516 494.422 189.356C494.574 189.188 494.75 189.04 494.95 188.912C495.158 188.784 495.394 188.68 495.658 188.6C495.93 188.52 496.238 188.48 496.582 188.48C496.942 188.48 497.278 188.528 497.59 188.624C497.902 188.712 498.174 188.848 498.406 189.032C498.638 189.208 498.818 189.428 498.946 189.692C499.082 189.956 499.15 190.256 499.15 190.592C499.15 190.864 499.106 191.108 499.018 191.324C498.938 191.54 498.822 191.728 498.67 191.888C498.526 192.048 498.354 192.184 498.154 192.296C497.954 192.408 497.742 192.492 497.518 192.548V192.596C497.75 192.644 497.974 192.724 498.19 192.836C498.406 192.94 498.598 193.08 498.766 193.256C498.934 193.424 499.066 193.632 499.162 193.88C499.266 194.12 499.318 194.396 499.318 194.708C499.318 195.068 499.246 195.4 499.102 195.704C498.966 196 498.77 196.256 498.514 196.472C498.266 196.68 497.962 196.844 497.602 196.964C497.25 197.084 496.858 197.144 496.426 197.144C496.058 197.144 495.73 197.104 495.442 197.024C495.162 196.944 494.91 196.836 494.686 196.7C494.47 196.564 494.278 196.412 494.11 196.244C493.95 196.076 493.806 195.9 493.678 195.716L494.434 195.14C494.546 195.308 494.662 195.46 494.782 195.596C494.902 195.732 495.038 195.852 495.19 195.956C495.35 196.052 495.53 196.128 495.73 196.184C495.93 196.24 496.162 196.268 496.426 196.268C497.018 196.268 497.47 196.132 497.782 195.86C498.102 195.588 498.262 195.2 498.262 194.696V194.6C498.262 194.104 498.106 193.72 497.794 193.448C497.49 193.176 497.03 193.04 496.414 193.04H495.418V192.176H496.342ZM501.257 196.184H503.417V188.936H501.257V188.12H504.377V196.184H506.537V197H501.257V196.184ZM513.096 190.808H514.056L510.984 198.356C510.912 198.532 510.832 198.684 510.744 198.812C510.656 198.948 510.552 199.056 510.432 199.136C510.312 199.224 510.168 199.288 510 199.328C509.832 199.376 509.632 199.4 509.4 199.4H508.488V198.584H509.928L510.624 196.88L508.128 190.808H509.112L510.156 193.4L511.08 195.752H511.128L512.052 193.4L513.096 190.808ZM519.788 195.992H519.74C519.34 196.76 518.704 197.144 517.832 197.144C517.072 197.144 516.476 196.86 516.044 196.292C515.62 195.724 515.408 194.928 515.408 193.904C515.408 192.88 515.62 192.084 516.044 191.516C516.476 190.948 517.072 190.664 517.832 190.664C518.704 190.664 519.34 191.048 519.74 191.816H519.788V188.12H520.747V197H519.788V195.992ZM518.204 196.292C518.42 196.292 518.624 196.264 518.816 196.208C519.008 196.152 519.176 196.072 519.32 195.968C519.464 195.856 519.576 195.724 519.656 195.572C519.744 195.412 519.788 195.228 519.788 195.02V192.788C519.788 192.58 519.744 192.4 519.656 192.248C519.576 192.088 519.464 191.956 519.32 191.852C519.176 191.74 519.008 191.656 518.816 191.6C518.624 191.544 518.42 191.516 518.204 191.516C517.644 191.516 517.208 191.688 516.896 192.032C516.592 192.368 516.44 192.816 516.44 193.376V194.432C516.44 194.992 516.592 195.444 516.896 195.788C517.208 196.124 517.644 196.292 518.204 196.292ZM523.059 197V190.808H524.019V191.816H524.067C524.131 191.664 524.211 191.52 524.307 191.384C524.403 191.24 524.519 191.116 524.655 191.012C524.799 190.908 524.967 190.824 525.159 190.76C525.351 190.696 525.575 190.664 525.831 190.664C526.479 190.664 526.999 190.872 527.391 191.288C527.783 191.696 527.979 192.276 527.979 193.028V197H527.019V193.196C527.019 192.628 526.895 192.208 526.647 191.936C526.399 191.656 526.035 191.516 525.555 191.516C525.363 191.516 525.175 191.54 524.991 191.588C524.807 191.636 524.643 191.708 524.499 191.804C524.355 191.9 524.239 192.024 524.151 192.176C524.063 192.328 524.019 192.504 524.019 192.704V197H523.059ZM529.438 190.808H530.29L530.998 196.16H531.106L532.162 190.808H533.218L534.274 196.16H534.382L535.09 190.808H535.918L534.97 197H533.722L532.738 191.816H532.642L531.634 197H530.386L529.438 190.808ZM542.705 191.696C542.705 192.32 542.609 192.908 542.417 193.46C542.233 194.004 541.993 194.504 541.697 194.96C541.401 195.408 541.073 195.808 540.713 196.16C540.361 196.504 540.013 196.784 539.669 197H538.373C538.829 196.672 539.233 196.352 539.585 196.04C539.945 195.728 540.261 195.404 540.533 195.068C540.805 194.724 541.033 194.36 541.217 193.976C541.401 193.584 541.553 193.144 541.673 192.656L541.613 192.632C541.405 192.976 541.137 193.264 540.809 193.496C540.489 193.72 540.069 193.832 539.549 193.832C539.181 193.832 538.841 193.772 538.529 193.652C538.225 193.532 537.961 193.36 537.737 193.136C537.521 192.912 537.349 192.644 537.221 192.332C537.101 192.012 537.041 191.652 537.041 191.252C537.041 190.844 537.105 190.472 537.233 190.136C537.369 189.792 537.561 189.5 537.809 189.26C538.057 189.012 538.353 188.82 538.697 188.684C539.049 188.548 539.437 188.48 539.861 188.48C540.301 188.48 540.697 188.556 541.049 188.708C541.401 188.852 541.697 189.064 541.937 189.344C542.185 189.616 542.373 189.952 542.501 190.352C542.637 190.752 542.705 191.2 542.705 191.696ZM539.873 193.004C540.449 193.004 540.893 192.848 541.205 192.536C541.525 192.224 541.685 191.784 541.685 191.216V191.12C541.685 190.552 541.525 190.112 541.205 189.8C540.893 189.488 540.449 189.332 539.873 189.332C539.297 189.332 538.849 189.488 538.529 189.8C538.217 190.112 538.061 190.552 538.061 191.12V191.216C538.061 191.784 538.217 192.224 538.529 192.536C538.849 192.848 539.297 193.004 539.873 193.004ZM544.393 196.184H546.205V191.624H544.393V190.808H547.165V192.368H547.225C547.353 191.88 547.593 191.5 547.945 191.228C548.305 190.948 548.761 190.808 549.313 190.808H550.177V191.768H549.013C548.461 191.768 548.013 191.928 547.669 192.248C547.333 192.568 547.165 192.988 547.165 193.508V196.184H549.565V197H544.393V196.184ZM554.372 197.144C553.924 197.144 553.52 197.068 553.16 196.916C552.808 196.764 552.504 196.548 552.248 196.268C552 195.98 551.808 195.64 551.672 195.248C551.536 194.848 551.468 194.404 551.468 193.916C551.468 193.42 551.536 192.972 551.672 192.572C551.816 192.172 552.012 191.832 552.26 191.552C552.508 191.264 552.804 191.044 553.148 190.892C553.5 190.74 553.888 190.664 554.312 190.664C554.728 190.664 555.104 190.74 555.44 190.892C555.784 191.044 556.076 191.256 556.316 191.528C556.556 191.792 556.74 192.108 556.868 192.476C556.996 192.844 557.06 193.248 557.06 193.688V194.144H552.476V194.432C552.476 194.704 552.52 194.956 552.608 195.188C552.696 195.42 552.82 195.62 552.98 195.788C553.148 195.956 553.348 196.088 553.58 196.184C553.82 196.272 554.084 196.316 554.372 196.316C554.788 196.316 555.148 196.22 555.452 196.028C555.756 195.836 555.988 195.572 556.148 195.236L556.856 195.716C556.672 196.132 556.364 196.476 555.932 196.748C555.508 197.012 554.988 197.144 554.372 197.144ZM554.312 191.456C554.048 191.456 553.804 191.504 553.58 191.6C553.356 191.696 553.16 191.828 552.992 191.996C552.832 192.164 552.704 192.364 552.608 192.596C552.52 192.82 552.476 193.068 552.476 193.34V193.424H556.028V193.292C556.028 193.02 555.984 192.772 555.896 192.548C555.816 192.324 555.7 192.132 555.548 191.972C555.404 191.804 555.224 191.676 555.008 191.588C554.8 191.5 554.568 191.456 554.312 191.456ZM563.871 189.5H560.127L559.887 192.704H559.971C560.179 192.424 560.411 192.204 560.667 192.044C560.923 191.876 561.275 191.792 561.723 191.792C562.091 191.792 562.427 191.852 562.731 191.972C563.043 192.084 563.311 192.252 563.535 192.476C563.759 192.7 563.935 192.972 564.063 193.292C564.191 193.604 564.255 193.964 564.255 194.372C564.255 194.78 564.191 195.156 564.063 195.5C563.935 195.836 563.747 196.128 563.499 196.376C563.251 196.616 562.951 196.804 562.599 196.94C562.247 197.076 561.847 197.144 561.399 197.144C561.047 197.144 560.731 197.104 560.451 197.024C560.179 196.944 559.935 196.836 559.719 196.7C559.511 196.564 559.327 196.412 559.167 196.244C559.007 196.076 558.863 195.9 558.735 195.716L559.491 195.14C559.603 195.308 559.715 195.46 559.827 195.596C559.947 195.732 560.083 195.852 560.235 195.956C560.387 196.052 560.559 196.128 560.751 196.184C560.943 196.24 561.167 196.268 561.423 196.268C561.999 196.268 562.439 196.112 562.743 195.8C563.055 195.488 563.211 195.056 563.211 194.504V194.408C563.211 193.856 563.055 193.424 562.743 193.112C562.431 192.8 561.983 192.644 561.399 192.644C560.999 192.644 560.687 192.712 560.463 192.848C560.247 192.984 560.047 193.152 559.863 193.352L559.011 193.232L559.311 188.624H563.871V189.5ZM571.487 191.696C571.487 192.32 571.391 192.908 571.199 193.46C571.015 194.004 570.775 194.504 570.479 194.96C570.183 195.408 569.855 195.808 569.495 196.16C569.143 196.504 568.795 196.784 568.451 197H567.155C567.611 196.672 568.015 196.352 568.367 196.04C568.727 195.728 569.043 195.404 569.315 195.068C569.587 194.724 569.815 194.36 569.999 193.976C570.183 193.584 570.335 193.144 570.455 192.656L570.395 192.632C570.187 192.976 569.919 193.264 569.591 193.496C569.271 193.72 568.851 193.832 568.331 193.832C567.963 193.832 567.623 193.772 567.311 193.652C567.007 193.532 566.743 193.36 566.519 193.136C566.303 192.912 566.131 192.644 566.003 192.332C565.883 192.012 565.823 191.652 565.823 191.252C565.823 190.844 565.887 190.472 566.015 190.136C566.151 189.792 566.343 189.5 566.591 189.26C566.839 189.012 567.135 188.82 567.479 188.684C567.831 188.548 568.219 188.48 568.643 188.48C569.083 188.48 569.479 188.556 569.831 188.708C570.183 188.852 570.479 189.064 570.719 189.344C570.967 189.616 571.155 189.952 571.283 190.352C571.419 190.752 571.487 191.2 571.487 191.696ZM568.655 193.004C569.231 193.004 569.675 192.848 569.987 192.536C570.307 192.224 570.467 191.784 570.467 191.216V191.12C570.467 190.552 570.307 190.112 569.987 189.8C569.675 189.488 569.231 189.332 568.655 189.332C568.079 189.332 567.631 189.488 567.311 189.8C566.999 190.112 566.843 190.552 566.843 191.12V191.216C566.843 191.784 566.999 192.224 567.311 192.536C567.631 192.848 568.079 193.004 568.655 193.004ZM578.982 197.708C578.982 198.332 578.722 198.792 578.202 199.088C577.682 199.392 576.902 199.544 575.862 199.544C574.862 199.544 574.142 199.412 573.702 199.148C573.27 198.884 573.054 198.504 573.054 198.008C573.054 197.672 573.142 197.412 573.318 197.228C573.494 197.044 573.742 196.908 574.062 196.82V196.676C573.886 196.588 573.75 196.476 573.654 196.34C573.558 196.204 573.51 196.032 573.51 195.824C573.51 195.504 573.614 195.264 573.822 195.104C574.038 194.944 574.306 194.824 574.626 194.744V194.696C574.242 194.528 573.942 194.28 573.726 193.952C573.518 193.624 573.414 193.24 573.414 192.8C573.414 192.488 573.47 192.2 573.582 191.936C573.694 191.672 573.854 191.448 574.062 191.264C574.278 191.072 574.534 190.924 574.83 190.82C575.126 190.716 575.454 190.664 575.814 190.664C576.278 190.664 576.686 190.748 577.038 190.916V190.808C577.038 190.568 577.094 190.368 577.206 190.208C577.318 190.048 577.51 189.968 577.782 189.968H578.922V190.808H577.53V191.228C577.754 191.42 577.926 191.648 578.046 191.912C578.166 192.176 578.226 192.472 578.226 192.8C578.226 193.112 578.166 193.4 578.046 193.664C577.934 193.928 577.774 194.156 577.566 194.348C577.358 194.532 577.102 194.676 576.798 194.78C576.502 194.884 576.174 194.936 575.814 194.936C575.71 194.936 575.61 194.932 575.514 194.924C575.418 194.916 575.322 194.904 575.226 194.888C575.13 194.904 575.03 194.932 574.926 194.972C574.822 195.004 574.726 195.052 574.638 195.116C574.55 195.172 574.478 195.24 574.422 195.32C574.366 195.4 574.338 195.492 574.338 195.596C574.338 195.78 574.43 195.904 574.614 195.968C574.798 196.024 575.038 196.052 575.334 196.052H576.702C577.502 196.052 578.082 196.204 578.442 196.508C578.802 196.804 578.982 197.204 578.982 197.708ZM578.082 197.756C578.082 197.508 577.982 197.308 577.782 197.156C577.582 197.012 577.234 196.94 576.738 196.94H574.59C574.174 197.108 573.966 197.388 573.966 197.78C573.966 198.052 574.074 198.284 574.29 198.476C574.506 198.676 574.866 198.776 575.37 198.776H576.306C576.866 198.776 577.302 198.688 577.614 198.512C577.926 198.344 578.082 198.092 578.082 197.756ZM575.814 194.192C576.294 194.192 576.646 194.08 576.87 193.856C577.102 193.632 577.218 193.336 577.218 192.968V192.62C577.218 192.252 577.102 191.96 576.87 191.744C576.646 191.52 576.294 191.408 575.814 191.408C575.334 191.408 574.982 191.52 574.758 191.744C574.534 191.96 574.422 192.252 574.422 192.62V192.968C574.422 193.336 574.534 193.632 574.758 193.856C574.982 194.08 575.334 194.192 575.814 194.192ZM583.345 197C582.873 197 582.525 196.868 582.301 196.604C582.085 196.34 581.977 196 581.977 195.584V191.624H579.913V190.808H581.449C581.657 190.808 581.801 190.768 581.881 190.688C581.969 190.6 582.013 190.452 582.013 190.244V188.624H582.937V190.808H585.757V191.624H582.937V196.184H585.757V197H583.345ZM587.661 197V196.076L591.657 191.624H587.793V190.808H592.701V191.732L588.705 196.184H592.821V197H587.661ZM594.856 197V196.076L598.852 191.624H594.988V190.808H599.896V191.732L595.9 196.184H600.016V197H594.856ZM601.391 190.808H602.243L602.951 196.16H603.059L604.115 190.808H605.171L606.227 196.16H606.335L607.043 190.808H607.871L606.923 197H605.675L604.691 191.816H604.595L603.587 197H602.339L601.391 190.808ZM609.223 196.184H611.311V191.624H609.103V190.808H611.311V189.536C611.311 189.12 611.419 188.78 611.635 188.516C611.859 188.252 612.207 188.12 612.679 188.12H614.755V188.936H612.271V190.808H614.755V191.624H612.271V196.184H614.479V197H609.223V196.184ZM621.434 189.5H617.69L617.45 192.704H617.534C617.742 192.424 617.974 192.204 618.23 192.044C618.486 191.876 618.838 191.792 619.286 191.792C619.654 191.792 619.99 191.852 620.294 191.972C620.606 192.084 620.874 192.252 621.098 192.476C621.322 192.7 621.498 192.972 621.626 193.292C621.754 193.604 621.818 193.964 621.818 194.372C621.818 194.78 621.754 195.156 621.626 195.5C621.498 195.836 621.31 196.128 621.062 196.376C620.814 196.616 620.514 196.804 620.162 196.94C619.81 197.076 619.41 197.144 618.962 197.144C618.61 197.144 618.294 197.104 618.014 197.024C617.742 196.944 617.498 196.836 617.282 196.7C617.074 196.564 616.89 196.412 616.73 196.244C616.57 196.076 616.426 195.9 616.298 195.716L617.054 195.14C617.166 195.308 617.278 195.46 617.39 195.596C617.51 195.732 617.646 195.852 617.798 195.956C617.95 196.052 618.122 196.128 618.314 196.184C618.506 196.24 618.73 196.268 618.986 196.268C619.562 196.268 620.002 196.112 620.306 195.8C620.618 195.488 620.774 195.056 620.774 194.504V194.408C620.774 193.856 620.618 193.424 620.306 193.112C619.994 192.8 619.546 192.644 618.962 192.644C618.562 192.644 618.25 192.712 618.026 192.848C617.81 192.984 617.61 193.152 617.426 193.352L616.574 193.232L616.874 188.624H621.434V189.5ZM623.265 197V190.808H624.153V191.528H624.201C624.297 191.288 624.433 191.084 624.609 190.916C624.785 190.748 625.045 190.664 625.389 190.664C625.749 190.664 626.017 190.756 626.193 190.94C626.369 191.116 626.477 191.348 626.517 191.636H626.553C626.665 191.356 626.825 191.124 627.033 190.94C627.241 190.756 627.529 190.664 627.897 190.664C628.401 190.664 628.737 190.84 628.905 191.192C629.081 191.544 629.169 192.048 629.169 192.704V197H628.281V192.86C628.281 192.332 628.225 191.968 628.113 191.768C628.009 191.56 627.813 191.456 627.525 191.456C627.269 191.456 627.061 191.54 626.901 191.708C626.741 191.868 626.661 192.116 626.661 192.452V197H625.773V192.86C625.773 192.332 625.717 191.968 625.605 191.768C625.501 191.56 625.309 191.456 625.029 191.456C624.773 191.456 624.561 191.54 624.393 191.708C624.233 191.868 624.153 192.116 624.153 192.452V197H623.265ZM634.913 195.992H634.865C634.465 196.76 633.829 197.144 632.957 197.144C632.197 197.144 631.601 196.86 631.169 196.292C630.745 195.724 630.533 194.928 630.533 193.904C630.533 192.88 630.745 192.084 631.169 191.516C631.601 190.948 632.197 190.664 632.957 190.664C633.829 190.664 634.465 191.048 634.865 191.816H634.913V188.12H635.872V197H634.913V195.992ZM633.329 196.292C633.545 196.292 633.749 196.264 633.941 196.208C634.133 196.152 634.301 196.072 634.445 195.968C634.589 195.856 634.701 195.724 634.781 195.572C634.869 195.412 634.913 195.228 634.913 195.02V192.788C634.913 192.58 634.869 192.4 634.781 192.248C634.701 192.088 634.589 191.956 634.445 191.852C634.301 191.74 634.133 191.656 633.941 191.6C633.749 191.544 633.545 191.516 633.329 191.516C632.769 191.516 632.333 191.688 632.021 192.032C631.717 192.368 631.565 192.816 631.565 193.376V194.432C631.565 194.992 631.717 195.444 632.021 195.788C632.333 196.124 632.769 196.292 633.329 196.292ZM642.108 195.992H642.06C641.66 196.76 641.024 197.144 640.152 197.144C639.392 197.144 638.796 196.86 638.364 196.292C637.94 195.724 637.728 194.928 637.728 193.904C637.728 192.88 637.94 192.084 638.364 191.516C638.796 190.948 639.392 190.664 640.152 190.664C641.024 190.664 641.66 191.048 642.06 191.816H642.108V190.808H643.068V199.4H642.108V195.992ZM640.524 196.292C640.74 196.292 640.944 196.264 641.136 196.208C641.328 196.152 641.496 196.072 641.64 195.968C641.784 195.856 641.896 195.724 641.976 195.572C642.064 195.412 642.108 195.228 642.108 195.02V192.788C642.108 192.58 642.064 192.4 641.976 192.248C641.896 192.088 641.784 191.956 641.64 191.852C641.496 191.74 641.328 191.656 641.136 191.6C640.944 191.544 640.74 191.516 640.524 191.516C639.964 191.516 639.528 191.688 639.216 192.032C638.912 192.368 638.76 192.816 638.76 193.376V194.432C638.76 194.992 638.912 195.444 639.216 195.788C639.528 196.124 639.964 196.292 640.524 196.292Z" fill="black"/>
</g>
<line x1="342.5" y1="213.5" x2="656.5" y2="213.5" stroke="black" stroke-linecap="round" stroke-linejoin="round"/>
<path d="M350.719 230.531C345.902 230.531 342 234.434 342 239.25C342 244.066 345.902 247.969 350.719 247.969C355.535 247.969 359.438 244.066 359.438 239.25C359.438 234.434 355.535 230.531 350.719 230.531ZM350.719 233.906C352.406 233.906 353.812 235.312 353.812 237C353.812 238.723 352.406 240.094 350.719 240.094C348.996 240.094 347.625 238.723 347.625 237C347.625 235.312 348.996 233.906 350.719 233.906ZM350.719 246C348.645 246 346.781 245.086 345.551 243.609C346.219 242.379 347.52 241.5 349.031 241.5C349.102 241.5 349.172 241.535 349.277 241.57C349.734 241.711 350.191 241.781 350.719 241.781C351.211 241.781 351.703 241.711 352.125 241.57C352.23 241.535 352.301 241.5 352.406 241.5C353.883 241.5 355.184 242.379 355.852 243.609C354.621 245.086 352.758 246 350.719 246Z" fill="black"/>
<path d="M374.719 230.531C369.902 230.531 366 234.434 366 239.25C366 244.066 369.902 247.969 374.719 247.969C379.535 247.969 383.438 244.066 383.438 239.25C383.438 234.434 379.535 230.531 374.719 230.531ZM374.719 233.906C376.406 233.906 377.812 235.312 377.812 237C377.812 238.723 376.406 240.094 374.719 240.094C372.996 240.094 371.625 238.723 371.625 237C371.625 235.312 372.996 233.906 374.719 233.906ZM374.719 246C372.645 246 370.781 245.086 369.551 243.609C370.219 242.379 371.52 241.5 373.031 241.5C373.102 241.5 373.172 241.535 373.277 241.57C373.734 241.711 374.191 241.781 374.719 241.781C375.211 241.781 375.703 241.711 376.125 241.57C376.23 241.535 376.301 241.5 376.406 241.5C377.883 241.5 379.184 242.379 379.852 243.609C378.621 245.086 376.758 246 374.719 246Z" fill="black"/>
<path d="M398.719 230.531C393.902 230.531 390 234.434 390 239.25C390 244.066 393.902 247.969 398.719 247.969C403.535 247.969 407.438 244.066 407.438 239.25C407.438 234.434 403.535 230.531 398.719 230.531ZM398.719 233.906C400.406 233.906 401.812 235.312 401.812 237C401.812 238.723 400.406 240.094 398.719 240.094C396.996 240.094 395.625 238.723 395.625 237C395.625 235.312 396.996 233.906 398.719 233.906ZM398.719 246C396.645 246 394.781 245.086 393.551 243.609C394.219 242.379 395.52 241.5 397.031 241.5C397.102 241.5 397.172 241.535 397.277 241.57C397.734 241.711 398.191 241.781 398.719 241.781C399.211 241.781 399.703 241.711 400.125 241.57C400.23 241.535 400.301 241.5 400.406 241.5C401.883 241.5 403.184 242.379 403.852 243.609C402.621 245.086 400.758 246 398.719 246Z" fill="black"/>
<path d="M608.203 236.5C605.766 236.688 602.297 239.078 600.562 239.875C599.203 240.484 597.984 241 597 241C595.922 241 595.781 240.25 595.969 238.562C596.016 238.188 596.531 234.859 594 235C592.781 235.094 590.953 236.172 586.031 240.906L588 236.078C589.406 232.516 585.469 228.953 581.906 231.25L579.328 232.984C579 233.172 578.859 233.641 579.094 234.016L579.891 235.281C580.125 235.609 580.594 235.75 580.922 235.516L583.641 233.688C584.531 233.125 585.562 234.016 585.188 234.953L580.594 246.484C580.266 247.234 580.734 248.5 582 248.5C582.375 248.5 582.75 248.359 583.031 248.078C585 246.109 590.297 241 592.922 238.891C592.828 240.25 592.828 241.656 593.906 242.828C594.609 243.625 595.641 244 596.953 244C598.641 244 600.141 243.344 601.781 242.594C603.328 241.938 606.422 239.688 608.25 239.547C608.672 239.5 608.953 239.172 608.953 238.797V237.297C609 236.875 608.625 236.5 608.203 236.5Z" fill="black"/>
<path d="M621.604 237.172H623.125C623.095 235.697 621.838 234.653 619.98 234.653C618.148 234.653 616.771 235.685 616.776 237.227C616.776 238.48 617.666 239.2 619.102 239.571L620.095 239.827C621.037 240.065 621.659 240.359 621.663 241.037C621.659 241.783 620.952 242.281 619.92 242.281C618.932 242.281 618.165 241.838 618.101 240.922H616.545C616.609 242.656 617.901 243.632 619.933 243.632C622.026 243.632 623.24 242.588 623.244 241.05C623.24 239.537 621.991 238.847 620.679 238.536L619.861 238.331C619.145 238.161 618.369 237.858 618.378 237.129C618.382 236.473 618.97 235.991 619.959 235.991C620.901 235.991 621.523 236.43 621.604 237.172ZM624.586 243.5H626.128V236.955H624.586V243.5ZM625.361 236.026C625.851 236.026 626.252 235.651 626.252 235.19C626.252 234.726 625.851 234.351 625.361 234.351C624.867 234.351 624.466 234.726 624.466 235.19C624.466 235.651 624.867 236.026 625.361 236.026ZM630.561 246.091C632.33 246.091 633.634 245.281 633.634 243.607V236.955H632.112V238.037H632.027C631.793 237.564 631.303 236.869 630.148 236.869C628.635 236.869 627.446 238.054 627.446 240.206C627.446 242.341 628.635 243.406 630.143 243.406C631.264 243.406 631.788 242.805 632.027 242.324H632.104V243.564C632.104 244.527 631.464 244.923 630.587 244.923C629.658 244.923 629.249 244.484 629.061 244.101L627.672 244.438C627.953 245.354 628.895 246.091 630.561 246.091ZM630.574 242.196C629.555 242.196 629.018 241.403 629.018 240.197C629.018 239.009 629.547 238.135 630.574 238.135C631.567 238.135 632.112 238.957 632.112 240.197C632.112 241.446 631.558 242.196 630.574 242.196ZM636.757 239.665C636.757 238.719 637.328 238.173 638.142 238.173C638.939 238.173 639.416 238.697 639.416 239.571V243.5H640.959V239.332C640.963 237.764 640.068 236.869 638.717 236.869C637.737 236.869 637.064 237.338 636.766 238.067H636.689V236.955H635.214V243.5H636.757V239.665ZM645.425 243.628C646.95 243.628 647.999 242.882 648.271 241.744L646.831 241.582C646.622 242.136 646.111 242.426 645.446 242.426C644.449 242.426 643.788 241.77 643.776 240.649H648.335V240.176C648.335 237.879 646.955 236.869 645.344 236.869C643.469 236.869 642.246 238.246 642.246 240.266C642.246 242.32 643.452 243.628 645.425 243.628ZM643.78 239.609C643.827 238.774 644.445 238.071 645.365 238.071C646.251 238.071 646.848 238.719 646.857 239.609H643.78ZM652.069 243.615C653.194 243.615 653.701 242.946 653.944 242.469H654.038V243.5H655.555V234.773H654.008V238.037H653.944C653.71 237.564 653.228 236.869 652.074 236.869C650.561 236.869 649.372 238.054 649.372 240.236C649.372 242.392 650.527 243.615 652.069 243.615ZM652.5 242.349C651.481 242.349 650.944 241.455 650.944 240.227C650.944 239.009 651.473 238.135 652.5 238.135C653.493 238.135 654.038 238.957 654.038 240.227C654.038 241.497 653.484 242.349 652.5 242.349Z" fill="black"/>
<rect x="313" y="121" width="373" height="158" rx="5" stroke="black" stroke-width="2"/>
</svg>
