<svg width="1000" height="400" viewBox="0 0 1000 400" fill="none" xmlns="http://www.w3.org/2000/svg">
<rect width="1000" height="400" fill="white"/>
<path d="M310.545 301.518C312.674 301.499 314.776 301.088 316.74 300.248C318.711 299.405 320.507 298.159 321.994 296.602C323.481 295.045 324.65 293.186 325.415 291.164C326.11 289.326 326.457 287.373 326.465 285.406C326.466 285.06 326.465 284.713 326.465 284.367C326.465 283.46 326.465 282.554 326.465 281.648C326.465 280.234 326.465 278.821 326.465 277.407C326.465 275.539 326.465 273.671 326.465 271.803C326.465 269.532 326.465 267.261 326.465 264.991C326.465 262.378 326.465 259.765 326.465 257.153C326.465 254.244 326.465 251.335 326.465 248.426C326.465 245.264 326.465 242.102 326.465 238.941C326.465 235.586 326.465 232.232 326.465 228.877C326.465 225.382 326.465 221.887 326.465 218.392C326.465 214.819 326.465 211.245 326.465 207.672C326.465 204.063 326.465 200.453 326.465 196.844C326.465 193.242 326.465 189.64 326.465 186.038C326.465 182.504 326.465 178.971 326.465 175.438C326.465 172.025 326.465 168.613 326.465 165.202C326.465 161.972 326.465 158.742 326.465 155.512C326.465 152.507 326.465 149.502 326.465 146.496C326.465 143.761 326.465 141.026 326.465 138.291C326.465 135.886 326.465 133.482 326.465 131.077C326.465 129.056 326.465 127.035 326.465 125.013C326.465 123.431 326.465 121.849 326.465 120.267C326.465 119.17 326.465 118.073 326.465 116.976C326.465 116.415 326.465 115.855 326.465 115.294C326.465 114.04 326.348 112.793 326.075 111.567C325.608 109.473 324.724 107.478 323.489 105.733C322.254 103.987 320.671 102.498 318.862 101.376C317.051 100.254 315.022 99.5066 312.923 99.185C311.85 99.0209 310.777 99.0039 309.697 99.0039C308.222 99.0039 306.746 99.0039 305.271 99.0039C302.809 99.0039 300.348 99.0039 297.886 99.0039C294.75 99.0039 291.614 99.0039 288.478 99.0039C284.999 99.0039 281.52 99.0039 278.041 99.0039C274.492 99.0039 270.943 99.0039 267.394 99.0039C264.105 99.0039 260.816 99.0039 257.527 99.0039C254.81 99.0039 252.093 99.0039 249.375 99.0039C247.542 99.0039 245.709 99.0039 243.876 99.0039C243.149 99.0039 242.423 98.9937 241.696 99.0063C239.58 99.0428 237.478 99.509 235.54 100.371C233.588 101.24 231.816 102.512 230.356 104.084C228.889 105.662 227.744 107.542 227.009 109.576C226.367 111.354 226.047 113.231 226.04 115.123C226.039 115.491 226.04 115.859 226.04 116.228C226.04 117.154 226.04 118.081 226.04 119.007C226.04 120.438 226.04 121.87 226.04 123.301C226.04 125.186 226.04 127.07 226.04 128.954C226.04 131.239 226.04 133.523 226.04 135.808C226.04 138.426 226.04 141.043 226.04 143.66C226.04 146.587 226.04 149.514 226.04 152.44C226.04 155.61 226.04 158.78 226.04 161.95C226.04 165.311 226.04 168.672 226.04 172.032C226.04 175.532 226.04 179.031 226.04 182.531C226.04 186.097 226.04 189.663 226.04 193.229C226.04 196.848 226.04 200.467 226.04 204.086C226.04 207.687 226.04 211.287 226.04 214.888C226.04 218.418 226.04 221.947 226.04 225.477C226.04 228.884 226.04 232.29 226.04 235.696C226.04 238.919 226.04 242.141 226.04 245.363C226.04 248.359 226.04 251.355 226.04 254.35C226.04 257.074 226.04 259.798 226.04 262.521C226.04 264.912 226.04 267.303 226.04 269.694C226.04 271.7 226.04 273.706 226.04 275.712C226.04 277.277 226.04 278.842 226.04 280.406C226.04 281.484 226.04 282.562 226.04 283.639C226.04 284.178 226.04 284.717 226.04 285.257C226.04 286.579 226.176 287.894 226.483 289.182C226.982 291.279 227.9 293.271 229.171 295.004C230.432 296.722 232.028 298.178 233.847 299.269C235.67 300.363 237.711 301.081 239.811 301.37C240.842 301.512 241.872 301.518 242.91 301.518C244.428 301.518 245.946 301.518 247.464 301.518C249.957 301.518 252.449 301.518 254.942 301.518C258.097 301.518 261.253 301.518 264.408 301.518C267.894 301.518 271.381 301.518 274.867 301.518C278.412 301.518 281.957 301.518 285.502 301.518C288.775 301.518 292.049 301.518 295.322 301.518C298.011 301.518 300.701 301.518 303.391 301.518C305.185 301.518 306.978 301.518 308.772 301.518C308.86 301.518 310.545 301.518 310.545 301.518Z" stroke="black" stroke-width="2" stroke-miterlimit="10" stroke-linecap="round" stroke-linejoin="round"/>
<path d="M294.1 113.101C292.213 113.101 290.325 113.101 288.437 113.101C285.303 113.101 282.169 113.101 279.035 113.101C277.859 113.101 276.684 113.101 275.509 113.101C272.781 113.101 270.054 113.101 267.326 113.101C264.631 113.101 261.936 113.101 259.241 113.101C257.695 113.101 256.121 113.042 254.75 112.223C253.93 111.732 253.29 111.003 252.875 110.139C252.649 109.668 252.489 109.166 252.377 108.656C252.295 108.277 252.271 107.886 252.183 107.51C252.072 107.039 251.819 106.599 251.341 106.443C251.156 106.382 250.967 106.376 250.775 106.375C250.341 106.375 249.907 106.375 249.473 106.375C246.937 106.375 244.401 106.365 241.866 106.375C239.733 106.384 237.65 107.188 236.072 108.642C234.487 110.101 233.486 112.146 233.301 114.303C233.263 114.756 233.27 115.21 233.27 115.664C233.27 116.361 233.27 117.058 233.27 117.756C233.27 118.908 233.27 120.06 233.27 121.212C233.27 122.776 233.27 124.341 233.27 125.905C233.27 127.846 233.27 129.786 233.27 131.727C233.27 133.997 233.27 136.267 233.27 138.538C233.27 141.087 233.27 143.636 233.27 146.186C233.27 148.978 233.27 151.77 233.27 154.563C233.27 157.556 233.27 160.549 233.27 163.542C233.27 166.694 233.27 169.845 233.27 172.997C233.27 176.265 233.27 179.533 233.27 182.8C233.27 186.152 233.27 189.503 233.27 192.855C233.27 196.238 233.27 199.621 233.27 203.004C233.27 206.366 233.27 209.729 233.27 213.091C233.27 216.401 233.27 219.71 233.27 223.019C233.27 226.233 233.27 229.447 233.27 232.661C233.27 235.738 233.27 238.814 233.27 241.89C233.27 244.787 233.27 247.683 233.27 250.579C233.27 253.253 233.27 255.927 233.27 258.601C233.27 261.017 233.27 263.433 233.27 265.849C233.27 267.957 233.27 270.064 233.27 272.172C233.27 273.923 233.27 275.675 233.27 277.426C233.27 278.786 233.27 280.146 233.27 281.506C233.27 282.432 233.27 283.358 233.27 284.284C233.27 284.734 233.269 285.184 233.27 285.634C233.271 287.027 233.564 288.396 234.186 289.644C235.154 291.586 236.844 293.116 238.862 293.875C240.004 294.304 241.179 294.422 242.385 294.422C243.574 294.422 244.763 294.422 245.952 294.422C248.055 294.422 250.158 294.422 252.261 294.422C255.025 294.422 257.79 294.422 260.555 294.422C263.729 294.422 266.903 294.422 270.077 294.422C273.408 294.422 276.74 294.422 280.071 294.422C283.308 294.422 286.545 294.422 289.782 294.422C292.679 294.422 295.577 294.422 298.474 294.422C300.769 294.422 303.063 294.422 305.357 294.422C306.792 294.422 308.226 294.422 309.66 294.422C310.52 294.422 311.377 294.443 312.23 294.293C314.343 293.921 316.275 292.738 317.579 291.019C318.726 289.505 319.341 287.637 319.348 285.733C319.349 285.408 319.348 285.083 319.348 284.758C319.348 283.943 319.348 283.129 319.348 282.314C319.348 281.053 319.348 279.791 319.348 278.53C319.348 276.869 319.348 275.209 319.348 273.549C319.348 271.529 319.348 269.509 319.348 267.489C319.348 265.152 319.348 262.814 319.348 260.477C319.348 257.865 319.348 255.253 319.348 252.641C319.348 249.796 319.348 246.951 319.348 244.106C319.348 241.07 319.348 238.035 319.348 234.999C319.348 231.806 319.348 228.613 319.348 225.42C319.348 222.12 319.348 218.821 319.348 215.521C319.348 212.168 319.348 208.815 319.348 205.461C319.348 202.086 319.348 198.712 319.348 195.337C319.348 191.984 319.348 188.63 319.348 185.276C319.348 181.986 319.348 178.696 319.348 175.406C319.348 172.222 319.348 169.037 319.348 165.853C319.348 162.808 319.348 159.763 319.348 156.718C319.348 153.865 319.348 151.011 319.348 148.158C319.348 145.545 319.348 142.933 319.348 140.321C319.348 137.984 319.348 135.646 319.348 133.309C319.348 131.289 319.348 129.27 319.348 127.249C319.348 125.589 319.348 123.929 319.348 122.268C319.348 121.01 319.348 119.751 319.348 118.493C319.348 117.679 319.348 116.864 319.348 116.05C319.348 115.722 319.349 115.394 319.348 115.066C319.341 113.162 318.726 111.294 317.579 109.78C316.275 108.06 314.343 106.877 312.23 106.505C311.438 106.366 310.645 106.377 309.845 106.377C308.339 106.377 306.832 106.377 305.326 106.377C304.162 106.377 302.999 106.374 301.836 106.377C301.413 106.377 301.015 106.47 300.74 106.821C300.334 107.34 300.369 108.079 300.231 108.694C300.015 109.666 299.611 110.607 298.939 111.348C298.339 112.009 297.56 112.467 296.717 112.737C296.294 112.873 295.857 112.964 295.416 113.021C295.301 113.035 294.1 113.132 294.1 113.101Z" stroke="black" stroke-width="2" stroke-miterlimit="10" stroke-linecap="round" stroke-linejoin="round"/>
<path d="M285.6 275.14C285.6 280.61 281.205 285.03 275.8 285.03C270.395 285.03 266 280.61 266 275.14C266 269.67 270.395 265.25 275.8 265.25C281.205 265.25 285.6 269.67 285.6 275.14Z" stroke="black" stroke-width="2"/>
<path d="M244 157.138H240V161.138H244V157.138Z" fill="black"/>
<path d="M260 157.138H256V161.138H260V157.138Z" fill="black"/>
<path d="M276 189.138H272V193.138H276V189.138Z" fill="black"/>
<path d="M292 189.138H288V193.138H292V189.138Z" fill="black"/>
<path d="M216 197.138H212V201.138H216V197.138Z" fill="black"/>
<path d="M212 201.138L208 201.138V205.138H212V201.138Z" fill="black"/>
<path d="M292 237.138H288V241.138H292V237.138Z" fill="black"/>
<path d="M272 165.138H276H280H284V169.138V173.138V177.138H280H276H272V173.138V169.138V165.138Z" fill="black"/>
<path fill-rule="evenodd" clip-rule="evenodd" d="M264 157.138H268H272H276H280H284H288H292V161.138V165.138V169.138V173.138V177.138V181.138V185.138H288H284H280H276H272H268H264V181.138V177.138V173.138V169.138V165.138V161.138V157.138ZM268 161.138H272H276H280H284H288V165.138V169.138V173.138V177.138V181.138H284H280H276H272H268V177.138V173.138V169.138V165.138V161.138Z" fill="black"/>
<path d="M216 165.138H220H224H226.04V177.138H224H220H216V173.138V169.138V165.138Z" fill="black"/>
<path d="M208 157.138H212H216H220H224H226.04V161.138H224H220H216H212V165.138V169.138V173.138V177.138V181.138H216H220H224H226.04V185.138H224H220H216H212H208V181.138V177.138V173.138V169.138V165.138V161.138V157.138Z" fill="black"/>
<path d="M233.27 185.138H236V157.138H233.27V185.138Z" fill="black"/>
<path d="M220 193.138V189.138H226.04V193.138H224V197.138H226.04V201.138H220V197.138V193.138Z" fill="black"/>
<path d="M220 209.138V205.138H226.04V209.138H220Z" fill="black"/>
<path d="M212 189.138H208V197.138H212V189.138Z" fill="black"/>
<path d="M244 181.138H240V185.138V189.138H236H233.27V192.855V193.138V197.138V201.138V203.004V205.138V209.138H236H240V205.138H244L244 209.138H248V205.138H252L252 201.138H248V197.138H252V193.138H248H244L244 197.138V201.138L240 201.138L236 201.138V197.138H240V193.138H244V189.138H248H252H256H260V185.138V181.138H256V185.138H252L252 181.138H248V185.138H244L244 181.138Z" fill="black"/>
<path d="M244 173.138H240V177.138H244L244 181.138H248V177.138H252L252 181.138H256V177.138V173.138H252H248H244Z" fill="black"/>
<path fill-rule="evenodd" clip-rule="evenodd" d="M244 221.138H248V225.138H244V221.138Z" fill="black"/>
<path fill-rule="evenodd" clip-rule="evenodd" d="M292 205.138H288V209.138H284V213.138H280V217.138H276V213.138H272V217.138H268V221.138H272V225.138H268V229.138H272V233.138H268V237.138H272V241.138H276H280V237.138V233.138H276V229.138H280V233.138H284H288H292V229.138H288H284V225.138H288V221.138H284V217.138H288H292V213.138V209.138V205.138ZM276 221.138H280V225.138H276V221.138Z" fill="black"/>
<path d="M248 233.138H244V237.138H240V241.138H244H248V237.138V233.138Z" fill="black"/>
<path d="M233.27 213.138H236V241.138H233.27V213.138Z" fill="black"/>
<path fill-rule="evenodd" clip-rule="evenodd" d="M264 189.138H260V193.138H264V197.138H268V201.138V205.138H264H260H256V209.138H252V213.138H248V217.138H244V213.138L244 209.138H240L240 213.138V217.138V221.138V225.138V229.138H244H248V233.138H252H256V237.138V241.138H260V237.138V233.138H264V229.138H260H256H252V225.138H256V221.138H252V217.138H256H260H264V213.138H268V209.138H272V205.138H276V209.138H280V205.138H284V201.138H288H292V197.138H288H284V193.138H280V197.138V201.138L276 201.138L272 201.138V197.138V193.138H268V189.138H264ZM244 221.138H248V225.138H244V221.138Z" fill="black"/>
<path d="M248 161.138H244L244 165.138V169.138H248H252H256V165.138V161.138H252V165.138H248V161.138Z" fill="black"/>
<path d="M226.04 221.138V233.138H216V221.138H226.04Z" fill="black"/>
<path d="M226.04 241.138V237.138H212V217.138H226.04V213.138H208V241.138H226.04Z" fill="black"/>
<path d="M256 197.138H252L252 201.138H256H260V197.138H256Z" fill="black"/>
<path d="M349.465 198.759C348.637 198.759 347.965 199.43 347.965 200.259C347.965 201.087 348.637 201.759 349.465 201.759V198.759ZM395.781 201.319C396.367 200.734 396.367 199.784 395.781 199.198L386.235 189.652C385.649 189.066 384.699 189.066 384.114 189.652C383.528 190.238 383.528 191.188 384.114 191.774L392.599 200.259L384.114 208.744C383.528 209.33 383.528 210.28 384.114 210.865C384.699 211.451 385.649 211.451 386.235 210.865L395.781 201.319ZM349.465 201.759H394.72V198.759H349.465V201.759Z" fill="black"/>
<path d="M449.305 190.759H450.891V185.978H453.754C456.803 185.978 458.178 184.124 458.178 181.81C458.178 179.496 456.803 177.668 453.729 177.668H449.305V190.759ZM450.891 184.571V179.074H453.678C455.806 179.074 456.618 180.237 456.618 181.81C456.618 183.382 455.806 184.571 453.703 184.571H450.891ZM463.416 190.989C465.129 190.989 466.024 190.068 466.331 189.429H466.407V190.759H467.916V184.29C467.916 181.171 465.538 180.813 464.285 180.813C462.802 180.813 461.115 181.324 460.348 183.114L461.78 183.625C462.112 182.909 462.898 182.142 464.336 182.142C465.723 182.142 466.407 182.877 466.407 184.137V184.188C466.407 184.916 465.666 184.853 463.876 185.083C462.054 185.319 460.066 185.722 460.066 187.972C460.066 189.889 461.549 190.989 463.416 190.989ZM463.646 189.634C462.444 189.634 461.575 189.097 461.575 188.049C461.575 186.898 462.623 186.54 463.799 186.387C464.439 186.31 466.152 186.131 466.407 185.824V187.205C466.407 188.432 465.436 189.634 463.646 189.634ZM471.289 194.441C472.651 194.441 473.61 193.718 474.178 192.191L478.359 180.966L476.71 180.941L474 188.764H473.897L471.187 180.941H469.551L473.181 190.81L472.9 191.577C472.35 193.073 471.673 193.213 470.573 192.932L470.19 194.262C470.343 194.338 470.778 194.441 471.289 194.441ZM480.355 190.759H481.863V184.622C481.863 183.184 482.912 182.168 484.088 182.168C485.232 182.168 486.031 182.916 486.031 184.034V190.759H487.565V184.367C487.565 183.101 488.358 182.168 489.738 182.168C490.812 182.168 491.733 182.737 491.733 184.188V190.759H493.241V184.188C493.241 181.88 492.001 180.813 490.25 180.813C488.843 180.813 487.814 181.458 487.309 182.475H487.207C486.721 181.426 485.865 180.813 484.574 180.813C483.295 180.813 482.349 181.426 481.94 182.475H481.812V180.941H480.355V190.759ZM500.116 190.963C502.11 190.963 503.568 189.966 504.028 188.483L502.57 188.074C502.187 189.097 501.298 189.608 500.116 189.608C498.345 189.608 497.124 188.464 497.054 186.361H504.181V185.722C504.181 182.066 502.008 180.813 499.962 180.813C497.303 180.813 495.539 182.909 495.539 185.926C495.539 188.943 497.278 190.963 500.116 190.963ZM497.054 185.057C497.156 183.529 498.237 182.168 499.962 182.168C501.599 182.168 502.647 183.395 502.647 185.057H497.054ZM507.984 184.853C507.984 183.139 509.045 182.168 510.49 182.168C511.89 182.168 512.74 183.082 512.74 184.622V190.759H514.249V184.52C514.249 182.014 512.913 180.813 510.925 180.813C509.442 180.813 508.521 181.478 508.061 182.475H507.933V180.941H506.476V190.759H507.984V184.853ZM521.275 180.941H519.178V178.588H517.67V180.941H516.187V182.219H517.67V188.355C517.67 190.068 519.051 190.887 520.329 190.887C520.892 190.887 521.25 190.784 521.454 190.708L521.147 189.353C521.019 189.378 520.815 189.429 520.482 189.429C519.818 189.429 519.178 189.225 519.178 187.946V182.219H521.275V180.941ZM532.877 180.941H530.78V178.588H529.272V180.941H527.789V182.219H529.272V188.355C529.272 190.068 530.652 190.887 531.931 190.887C532.493 190.887 532.851 190.784 533.056 190.708L532.749 189.353C532.621 189.378 532.416 189.429 532.084 189.429C531.419 189.429 530.78 189.225 530.78 187.946V182.219H532.877V180.941ZM539.029 190.963C541.688 190.963 543.478 188.943 543.478 185.901C543.478 182.833 541.688 180.813 539.029 180.813C536.37 180.813 534.58 182.833 534.58 185.901C534.58 188.943 536.37 190.963 539.029 190.963ZM539.029 189.608C537.009 189.608 536.089 187.87 536.089 185.901C536.089 183.932 537.009 182.168 539.029 182.168C541.049 182.168 541.969 183.932 541.969 185.901C541.969 187.87 541.049 189.608 539.029 189.608ZM559.225 181.848H561.641C561.238 179.279 559.014 177.489 556.118 177.489C552.692 177.489 550.122 180.007 550.122 184.226C550.122 188.368 552.577 190.938 556.188 190.938C559.429 190.938 561.75 188.854 561.75 185.479V183.907H556.438V185.76H559.455C559.416 187.627 558.17 188.809 556.201 188.809C554.009 188.809 552.507 187.166 552.507 184.201C552.507 181.254 554.034 179.617 556.15 179.617C557.729 179.617 558.803 180.461 559.225 181.848ZM566.766 190.957C568.306 190.957 569.227 190.235 569.648 189.41H569.725V190.759H571.95V184.188C571.95 181.593 569.834 180.813 567.961 180.813C565.896 180.813 564.311 181.733 563.8 183.523L565.96 183.83C566.19 183.159 566.842 182.583 567.974 182.583C569.048 182.583 569.636 183.133 569.636 184.098V184.137C569.636 184.801 568.939 184.833 567.207 185.019C565.302 185.223 563.48 185.792 563.48 188.004C563.48 189.934 564.893 190.957 566.766 190.957ZM567.367 189.257C566.401 189.257 565.711 188.816 565.711 187.965C565.711 187.077 566.484 186.706 567.52 186.559C568.127 186.476 569.342 186.323 569.642 186.08V187.237C569.642 188.33 568.76 189.257 567.367 189.257ZM579.179 180.941H577.242V178.588H574.928V180.941H573.535V182.73H574.928V188.189C574.916 190.036 576.258 190.944 577.996 190.893C578.655 190.874 579.109 190.746 579.358 190.663L578.968 188.854C578.84 188.886 578.578 188.943 578.291 188.943C577.709 188.943 577.242 188.739 577.242 187.806V182.73H579.179V180.941ZM585.355 190.951C587.644 190.951 589.216 189.832 589.625 188.125L587.465 187.882C587.152 188.713 586.384 189.148 585.387 189.148C583.892 189.148 582.901 188.164 582.882 186.483H589.721V185.773C589.721 182.328 587.65 180.813 585.234 180.813C582.421 180.813 580.587 182.877 580.587 185.907C580.587 188.988 582.396 190.951 585.355 190.951ZM582.888 184.923C582.958 183.67 583.885 182.615 585.266 182.615C586.595 182.615 587.49 183.587 587.503 184.923H582.888ZM596.581 180.941H594.645V178.588H592.331V180.941H590.937V182.73H592.331V188.189C592.318 190.036 593.66 190.944 595.399 190.893C596.057 190.874 596.511 190.746 596.76 190.663L596.37 188.854C596.243 188.886 595.981 188.943 595.693 188.943C595.111 188.943 594.645 188.739 594.645 187.806V182.73H596.581V180.941ZM602.758 190.951C605.046 190.951 606.618 189.832 607.028 188.125L604.867 187.882C604.554 188.713 603.787 189.148 602.79 189.148C601.294 189.148 600.303 188.164 600.284 186.483H607.123V185.773C607.123 182.328 605.052 180.813 602.636 180.813C599.824 180.813 597.989 182.877 597.989 185.907C597.989 188.988 599.798 190.951 602.758 190.951ZM600.29 184.923C600.361 183.67 601.288 182.615 602.668 182.615C603.998 182.615 604.893 183.587 604.905 184.923H600.29Z" fill="black"/>
<path d="M699.552 191.008C702.71 191.014 704.596 188.522 704.596 184.226C704.596 179.956 702.697 177.489 699.552 177.489C696.408 177.489 694.515 179.95 694.509 184.226C694.509 188.515 696.395 191.008 699.552 191.008ZM699.552 189.007C697.922 189.007 696.9 187.371 696.906 184.226C696.913 181.107 697.929 179.464 699.552 179.464C701.182 179.464 702.199 181.107 702.205 184.226C702.205 187.371 701.189 189.007 699.552 189.007ZM707.661 190.899C708.415 190.899 709.061 190.273 709.067 189.493C709.061 188.726 708.415 188.1 707.661 188.1C706.881 188.1 706.248 188.726 706.254 189.493C706.248 190.273 706.881 190.899 707.661 190.899ZM715.764 177.489C712.926 177.47 711.041 179.419 711.041 181.976C711.047 184.443 712.805 186.227 715.099 186.227C716.512 186.227 717.739 185.543 718.372 184.418H718.462C718.455 187.218 717.439 188.886 715.63 188.886C714.499 188.886 713.738 188.234 713.501 187.192H711.168C711.437 189.359 713.15 190.938 715.63 190.938C718.769 190.938 720.769 188.317 720.763 183.811C720.756 179.042 718.276 177.502 715.764 177.489ZM715.771 179.407C717.17 179.407 718.2 180.57 718.2 181.906C718.206 183.261 717.126 184.424 715.745 184.424C714.352 184.424 713.348 183.325 713.342 181.925C713.342 180.519 714.384 179.407 715.771 179.407ZM727.484 190.759H732.783C735.781 190.759 737.251 189.231 737.251 187.192C737.251 185.21 735.845 184.047 734.451 183.977V183.849C735.73 183.549 736.74 182.654 736.74 181.062C736.74 179.112 735.333 177.668 732.495 177.668H727.484V190.759ZM729.856 188.777V184.942H732.47C733.934 184.942 734.841 185.837 734.841 187.007C734.841 188.049 734.125 188.777 732.406 188.777H729.856ZM729.856 183.235V179.624H732.253C733.646 179.624 734.368 180.359 734.368 181.369C734.368 182.519 733.435 183.235 732.201 183.235H729.856ZM738.739 179.656H742.785V190.759H745.137V179.656H749.183V177.668H738.739V179.656ZM761.84 182.085C761.437 179.176 759.2 177.489 756.298 177.489C752.878 177.489 750.302 179.982 750.302 184.213C750.302 188.438 752.846 190.938 756.298 190.938C759.411 190.938 761.475 188.924 761.84 186.425L759.449 186.412C759.149 187.946 757.896 188.809 756.33 188.809C754.208 188.809 752.686 187.218 752.686 184.213C752.686 181.26 754.195 179.617 756.336 179.617C757.928 179.617 759.174 180.519 759.449 182.085H761.84Z" fill="black"/>
<g opacity="0.6">
<path d="M448.86 208.879H449.82V212.575H449.868C450.268 211.807 450.904 211.423 451.776 211.423C452.536 211.423 453.128 211.707 453.552 212.275C453.984 212.843 454.2 213.639 454.2 214.663C454.2 215.687 453.984 216.483 453.552 217.051C453.128 217.619 452.536 217.903 451.776 217.903C450.904 217.903 450.268 217.519 449.868 216.751H449.82V217.759H448.86V208.879ZM451.404 217.051C451.964 217.051 452.396 216.883 452.7 216.547C453.012 216.203 453.168 215.751 453.168 215.191V214.135C453.168 213.575 453.012 213.127 452.7 212.791C452.396 212.447 451.964 212.275 451.404 212.275C451.188 212.275 450.984 212.303 450.792 212.359C450.6 212.415 450.432 212.499 450.288 212.611C450.144 212.715 450.028 212.847 449.94 213.007C449.86 213.159 449.82 213.339 449.82 213.547V215.779C449.82 215.987 449.86 216.171 449.94 216.331C450.028 216.483 450.144 216.615 450.288 216.727C450.432 216.831 450.6 216.911 450.792 216.967C450.984 217.023 451.188 217.051 451.404 217.051ZM458.732 217.903C458.284 217.903 457.884 217.827 457.532 217.675C457.188 217.515 456.896 217.295 456.656 217.015C456.416 216.735 456.232 216.395 456.104 215.995C455.984 215.595 455.924 215.151 455.924 214.663C455.924 214.175 455.988 213.731 456.116 213.331C456.244 212.931 456.428 212.591 456.668 212.311C456.908 212.023 457.2 211.803 457.544 211.651C457.888 211.499 458.28 211.423 458.72 211.423C459.32 211.423 459.808 211.555 460.184 211.819C460.56 212.083 460.836 212.427 461.012 212.851L460.244 213.259C460.132 212.939 459.944 212.691 459.68 212.515C459.424 212.339 459.104 212.251 458.72 212.251C458.44 212.251 458.188 212.299 457.964 212.395C457.748 212.483 457.564 212.611 457.412 212.779C457.26 212.947 457.144 213.147 457.064 213.379C456.992 213.611 456.956 213.863 456.956 214.135V215.191C456.956 215.463 456.992 215.715 457.064 215.947C457.144 216.179 457.26 216.379 457.412 216.547C457.564 216.715 457.752 216.847 457.976 216.943C458.2 217.031 458.456 217.075 458.744 217.075C459.16 217.075 459.504 216.979 459.776 216.787C460.048 216.595 460.264 216.331 460.424 215.995L461.108 216.463C460.924 216.879 460.636 217.223 460.244 217.495C459.86 217.767 459.356 217.903 458.732 217.903ZM463.131 217.759V216.883H465.531V210.127H465.447L463.335 212.095L462.747 211.459L464.967 209.383H466.539V216.883H468.747V217.759H463.131ZM474.406 216.751H474.358C473.958 217.519 473.322 217.903 472.45 217.903C471.69 217.903 471.094 217.619 470.662 217.051C470.238 216.483 470.026 215.687 470.026 214.663C470.026 213.639 470.238 212.843 470.662 212.275C471.094 211.707 471.69 211.423 472.45 211.423C473.322 211.423 473.958 211.807 474.358 212.575H474.406V211.567H475.366V220.159H474.406V216.751ZM472.822 217.051C473.038 217.051 473.242 217.023 473.434 216.967C473.626 216.911 473.794 216.831 473.938 216.727C474.082 216.615 474.194 216.483 474.274 216.331C474.362 216.171 474.406 215.987 474.406 215.779V213.547C474.406 213.339 474.362 213.159 474.274 213.007C474.194 212.847 474.082 212.715 473.938 212.611C473.794 212.499 473.626 212.415 473.434 212.359C473.242 212.303 473.038 212.275 472.822 212.275C472.262 212.275 471.826 212.447 471.514 212.791C471.21 213.127 471.058 213.575 471.058 214.135V215.191C471.058 215.751 471.21 216.203 471.514 216.547C471.826 216.883 472.262 217.051 472.822 217.051ZM482.441 217.759C482.065 217.759 481.797 217.663 481.637 217.471C481.477 217.279 481.377 217.039 481.337 216.751H481.277C481.141 217.111 480.921 217.395 480.617 217.603C480.321 217.803 479.921 217.903 479.417 217.903C478.769 217.903 478.253 217.735 477.869 217.399C477.485 217.063 477.293 216.603 477.293 216.019C477.293 215.443 477.501 214.999 477.917 214.687C478.341 214.375 479.021 214.219 479.957 214.219H481.277V213.607C481.277 213.151 481.149 212.811 480.893 212.587C480.637 212.355 480.273 212.239 479.801 212.239C479.385 212.239 479.045 212.323 478.781 212.491C478.517 212.651 478.305 212.871 478.145 213.151L477.497 212.671C477.577 212.511 477.685 212.355 477.821 212.203C477.957 212.051 478.125 211.919 478.325 211.807C478.525 211.687 478.753 211.595 479.009 211.531C479.265 211.459 479.549 211.423 479.861 211.423C480.589 211.423 481.165 211.607 481.589 211.975C482.021 212.343 482.237 212.855 482.237 213.511V216.919H483.101V217.759H482.441ZM479.585 217.099C479.833 217.099 480.057 217.071 480.257 217.015C480.465 216.951 480.645 216.871 480.797 216.775C480.949 216.671 481.065 216.551 481.145 216.415C481.233 216.271 481.277 216.119 481.277 215.959V214.939H479.957C479.381 214.939 478.961 215.019 478.697 215.179C478.433 215.339 478.301 215.571 478.301 215.875V216.127C478.301 216.447 478.413 216.691 478.637 216.859C478.869 217.019 479.185 217.099 479.585 217.099ZM484.621 216.943H486.433V212.383H484.621V211.567H487.393V213.127H487.453C487.581 212.639 487.821 212.259 488.173 211.987C488.533 211.707 488.989 211.567 489.541 211.567H490.405V212.527H489.241C488.689 212.527 488.241 212.687 487.897 213.007C487.561 213.327 487.393 213.747 487.393 214.267V216.943H489.793V217.759H484.621V216.943ZM494.492 217.903C493.98 217.903 493.54 217.807 493.172 217.615C492.804 217.415 492.5 217.131 492.26 216.763C492.02 216.395 491.844 215.943 491.732 215.407C491.62 214.871 491.564 214.259 491.564 213.571C491.564 212.891 491.62 212.283 491.732 211.747C491.844 211.203 492.02 210.747 492.26 210.379C492.5 210.011 492.804 209.731 493.172 209.539C493.54 209.339 493.98 209.239 494.492 209.239C495.004 209.239 495.444 209.339 495.812 209.539C496.18 209.731 496.484 210.011 496.724 210.379C496.964 210.747 497.14 211.203 497.252 211.747C497.364 212.283 497.42 212.891 497.42 213.571C497.42 214.259 497.364 214.871 497.252 215.407C497.14 215.943 496.964 216.395 496.724 216.763C496.484 217.131 496.18 217.415 495.812 217.615C495.444 217.807 495.004 217.903 494.492 217.903ZM494.492 217.027C494.828 217.027 495.116 216.963 495.356 216.835C495.596 216.699 495.788 216.511 495.932 216.271C496.084 216.031 496.196 215.743 496.268 215.407C496.34 215.063 496.376 214.679 496.376 214.255V212.887C496.376 212.471 496.34 212.091 496.268 211.747C496.196 211.403 496.084 211.111 495.932 210.871C495.788 210.631 495.596 210.447 495.356 210.319C495.116 210.183 494.828 210.115 494.492 210.115C494.156 210.115 493.868 210.183 493.628 210.319C493.388 210.447 493.192 210.631 493.04 210.871C492.896 211.111 492.788 211.403 492.716 211.747C492.644 212.091 492.608 212.471 492.608 212.887V214.255C492.608 214.679 492.644 215.063 492.716 215.407C492.788 215.743 492.896 216.031 493.04 216.271C493.192 216.511 493.388 216.699 493.628 216.835C493.868 216.963 494.156 217.027 494.492 217.027ZM494.492 214.279C494.212 214.279 494.016 214.223 493.904 214.111C493.8 213.999 493.748 213.863 493.748 213.703V213.439C493.748 213.279 493.8 213.143 493.904 213.031C494.016 212.919 494.212 212.863 494.492 212.863C494.772 212.863 494.964 212.919 495.068 213.031C495.18 213.143 495.236 213.279 495.236 213.439V213.703C495.236 213.863 495.18 213.999 495.068 214.111C494.964 214.223 494.772 214.279 494.492 214.279ZM501.759 217.903C501.111 217.903 500.551 217.795 500.079 217.579C499.615 217.355 499.219 217.059 498.891 216.691L499.539 216.127C499.835 216.439 500.159 216.679 500.511 216.847C500.863 217.015 501.287 217.099 501.783 217.099C502.263 217.099 502.655 217.015 502.959 216.847C503.271 216.671 503.427 216.399 503.427 216.031C503.427 215.871 503.395 215.739 503.331 215.635C503.275 215.523 503.195 215.435 503.091 215.371C502.987 215.307 502.871 215.259 502.743 215.227C502.615 215.187 502.479 215.155 502.335 215.131L501.363 214.987C501.147 214.955 500.911 214.911 500.655 214.855C500.407 214.799 500.179 214.711 499.971 214.591C499.763 214.463 499.587 214.295 499.443 214.087C499.307 213.879 499.239 213.607 499.239 213.271C499.239 212.959 499.299 212.691 499.419 212.467C499.547 212.235 499.723 212.043 499.947 211.891C500.171 211.731 500.435 211.615 500.739 211.543C501.043 211.463 501.375 211.423 501.735 211.423C502.295 211.423 502.779 211.511 503.187 211.687C503.603 211.863 503.959 212.107 504.255 212.419L503.631 213.007C503.559 212.919 503.467 212.831 503.355 212.743C503.251 212.647 503.119 212.563 502.959 212.491C502.807 212.411 502.627 212.347 502.419 212.299C502.211 212.251 501.971 212.227 501.699 212.227C501.211 212.227 500.835 212.311 500.571 212.479C500.315 212.647 500.187 212.891 500.187 213.211C500.187 213.371 500.215 213.507 500.271 213.619C500.335 213.723 500.419 213.807 500.523 213.871C500.627 213.935 500.743 213.987 500.871 214.027C501.007 214.059 501.143 214.087 501.279 214.111L502.251 214.255C502.475 214.287 502.711 214.331 502.959 214.387C503.207 214.443 503.435 214.535 503.643 214.663C503.851 214.783 504.023 214.947 504.159 215.155C504.303 215.363 504.375 215.635 504.375 215.971C504.375 216.587 504.135 217.063 503.655 217.399C503.183 217.735 502.551 217.903 501.759 217.903ZM506.207 216.943H508.019V212.383H506.207V211.567H508.979V213.127H509.039C509.167 212.639 509.407 212.259 509.759 211.987C510.119 211.707 510.575 211.567 511.127 211.567H511.991V212.527H510.827C510.275 212.527 509.827 212.687 509.483 213.007C509.147 213.327 508.979 213.747 508.979 214.267V216.943H511.379V217.759H506.207V216.943ZM513.402 216.943H515.214V212.383H513.402V211.567H516.174V213.127H516.234C516.362 212.639 516.602 212.259 516.954 211.987C517.314 211.707 517.77 211.567 518.322 211.567H519.186V212.527H518.022C517.47 212.527 517.022 212.687 516.678 213.007C516.342 213.327 516.174 213.747 516.174 214.267V216.943H518.574V217.759H513.402V216.943ZM520.597 216.943H522.409V212.383H520.597V211.567H523.369V213.127H523.429C523.557 212.639 523.797 212.259 524.149 211.987C524.509 211.707 524.965 211.567 525.517 211.567H526.381V212.527H525.217C524.665 212.527 524.217 212.687 523.873 213.007C523.537 213.327 523.369 213.747 523.369 214.267V216.943H525.769V217.759H520.597V216.943ZM528.945 217.759L532.221 210.247H528.549V211.807H527.649V209.383H533.241V210.271L530.025 217.759H528.945ZM534.796 217.759L537.1 214.615L534.856 211.567H536.008L536.944 212.875L537.688 213.907H537.736L538.456 212.875L539.38 211.567H540.484L538.216 214.603L540.544 217.759H539.392L538.348 216.307L537.64 215.323H537.592L536.908 216.307L535.9 217.759H534.796ZM542.255 216.943H544.343V212.383H542.135V211.567H544.343V210.295C544.343 209.879 544.451 209.539 544.667 209.275C544.891 209.011 545.239 208.879 545.711 208.879H547.787V209.695H545.303V211.567H547.787V212.383H545.303V216.943H547.511V217.759H542.255V216.943ZM549.715 208.879H550.675V214.483H550.723L551.803 213.463L553.867 211.567H555.043L552.475 213.991L555.343 217.759H554.155L551.743 214.543L550.675 215.515V217.759H549.715V208.879ZM558.638 217.759L556.418 211.567H557.39L558.278 214.159L559.238 216.955H559.286L560.246 214.159L561.134 211.567H562.082L559.862 217.759H558.638ZM568.449 211.567H569.409L566.337 219.115C566.265 219.291 566.185 219.443 566.097 219.571C566.009 219.707 565.905 219.815 565.785 219.895C565.665 219.983 565.521 220.047 565.353 220.087C565.185 220.135 564.985 220.159 564.753 220.159H563.841V219.343H565.281L565.977 217.639L563.481 211.567H564.465L565.509 214.159L566.433 216.511H566.481L567.405 214.159L568.449 211.567ZM576.053 210.259H572.309L572.069 213.463H572.153C572.361 213.183 572.593 212.963 572.849 212.803C573.105 212.635 573.457 212.551 573.905 212.551C574.273 212.551 574.609 212.611 574.913 212.731C575.225 212.843 575.493 213.011 575.717 213.235C575.941 213.459 576.117 213.731 576.245 214.051C576.373 214.363 576.437 214.723 576.437 215.131C576.437 215.539 576.373 215.915 576.245 216.259C576.117 216.595 575.929 216.887 575.681 217.135C575.433 217.375 575.133 217.563 574.781 217.699C574.429 217.835 574.029 217.903 573.581 217.903C573.229 217.903 572.913 217.863 572.633 217.783C572.361 217.703 572.117 217.595 571.901 217.459C571.693 217.323 571.509 217.171 571.349 217.003C571.189 216.835 571.045 216.659 570.917 216.475L571.673 215.899C571.785 216.067 571.897 216.219 572.009 216.355C572.129 216.491 572.265 216.611 572.417 216.715C572.569 216.811 572.741 216.887 572.933 216.943C573.125 216.999 573.349 217.027 573.605 217.027C574.181 217.027 574.621 216.871 574.925 216.559C575.237 216.247 575.393 215.815 575.393 215.263V215.167C575.393 214.615 575.237 214.183 574.925 213.871C574.613 213.559 574.165 213.403 573.581 213.403C573.181 213.403 572.869 213.471 572.645 213.607C572.429 213.743 572.229 213.911 572.045 214.111L571.193 213.991L571.493 209.383H576.053V210.259ZM578.196 216.943H580.356V209.695H578.196V208.879H581.316V216.943H583.476V217.759H578.196V216.943ZM588.043 217.903C587.603 217.903 587.207 217.831 586.855 217.687C586.503 217.535 586.203 217.323 585.955 217.051C585.715 216.771 585.527 216.431 585.391 216.031C585.263 215.631 585.199 215.183 585.199 214.687C585.199 214.063 585.291 213.479 585.475 212.935C585.667 212.383 585.907 211.883 586.195 211.435C586.491 210.979 586.819 210.579 587.179 210.235C587.539 209.883 587.891 209.599 588.235 209.383H589.531C589.075 209.711 588.667 210.031 588.307 210.343C587.955 210.655 587.643 210.983 587.371 211.327C587.099 211.663 586.871 212.027 586.687 212.419C586.503 212.803 586.351 213.239 586.231 213.727L586.291 213.751C586.491 213.407 586.755 213.123 587.083 212.899C587.411 212.667 587.835 212.551 588.355 212.551C588.723 212.551 589.059 212.611 589.363 212.731C589.667 212.851 589.931 213.023 590.155 213.247C590.379 213.471 590.551 213.743 590.671 214.063C590.799 214.383 590.863 214.739 590.863 215.131C590.863 215.539 590.795 215.915 590.659 216.259C590.523 216.595 590.331 216.887 590.083 217.135C589.843 217.375 589.547 217.563 589.195 217.699C588.851 217.835 588.467 217.903 588.043 217.903ZM588.031 217.051C588.607 217.051 589.051 216.895 589.363 216.583C589.683 216.271 589.843 215.831 589.843 215.263V215.167C589.843 214.599 589.683 214.159 589.363 213.847C589.051 213.535 588.607 213.379 588.031 213.379C587.455 213.379 587.007 213.535 586.687 213.847C586.375 214.159 586.219 214.599 586.219 215.167V215.263C586.219 215.831 586.375 216.271 586.687 216.583C587.007 216.895 587.455 217.051 588.031 217.051ZM596.162 217.759V216.115H592.034V215.227L595.658 209.383H597.122V215.287H598.37V216.115H597.122V217.759H596.162ZM592.934 215.287H596.162V210.163H596.114L592.934 215.287ZM602.062 212.935C602.646 212.935 603.082 212.807 603.37 212.551C603.666 212.287 603.814 211.951 603.814 211.543V211.459C603.814 211.011 603.67 210.675 603.382 210.451C603.102 210.227 602.734 210.115 602.278 210.115C601.83 210.115 601.466 210.215 601.186 210.415C600.914 210.607 600.69 210.863 600.514 211.183L599.758 210.607C599.862 210.439 599.99 210.275 600.142 210.115C600.294 209.947 600.47 209.799 600.67 209.671C600.878 209.543 601.114 209.439 601.378 209.359C601.65 209.279 601.958 209.239 602.302 209.239C602.662 209.239 602.998 209.287 603.31 209.383C603.622 209.471 603.894 209.607 604.126 209.791C604.358 209.967 604.538 210.187 604.666 210.451C604.802 210.715 604.87 211.015 604.87 211.351C604.87 211.623 604.826 211.867 604.738 212.083C604.658 212.299 604.542 212.487 604.39 212.647C604.246 212.807 604.074 212.943 603.874 213.055C603.674 213.167 603.462 213.251 603.238 213.307V213.355C603.47 213.403 603.694 213.483 603.91 213.595C604.126 213.699 604.318 213.839 604.486 214.015C604.654 214.183 604.786 214.391 604.882 214.639C604.986 214.879 605.038 215.155 605.038 215.467C605.038 215.827 604.966 216.159 604.822 216.463C604.686 216.759 604.49 217.015 604.234 217.231C603.986 217.439 603.682 217.603 603.322 217.723C602.97 217.843 602.578 217.903 602.146 217.903C601.778 217.903 601.45 217.863 601.162 217.783C600.882 217.703 600.63 217.595 600.406 217.459C600.19 217.323 599.998 217.171 599.83 217.003C599.67 216.835 599.526 216.659 599.398 216.475L600.154 215.899C600.266 216.067 600.382 216.219 600.502 216.355C600.622 216.491 600.758 216.611 600.91 216.715C601.07 216.811 601.25 216.887 601.45 216.943C601.65 216.999 601.882 217.027 602.146 217.027C602.738 217.027 603.19 216.891 603.502 216.619C603.822 216.347 603.982 215.959 603.982 215.455V215.359C603.982 214.863 603.826 214.479 603.514 214.207C603.21 213.935 602.75 213.799 602.134 213.799H601.138V212.935H602.062ZM606.977 216.943H609.137V209.695H606.977V208.879H610.097V216.943H612.257V217.759H606.977V216.943ZM618.816 211.567H619.776L616.704 219.115C616.632 219.291 616.552 219.443 616.464 219.571C616.376 219.707 616.272 219.815 616.152 219.895C616.032 219.983 615.888 220.047 615.72 220.087C615.552 220.135 615.352 220.159 615.12 220.159H614.208V219.343H615.648L616.344 217.639L613.848 211.567H614.832L615.876 214.159L616.8 216.511H616.848L617.772 214.159L618.816 211.567ZM625.508 216.751H625.46C625.06 217.519 624.424 217.903 623.552 217.903C622.792 217.903 622.196 217.619 621.764 217.051C621.34 216.483 621.128 215.687 621.128 214.663C621.128 213.639 621.34 212.843 621.764 212.275C622.196 211.707 622.792 211.423 623.552 211.423C624.424 211.423 625.06 211.807 625.46 212.575H625.508V208.879H626.468V217.759H625.508V216.751ZM623.924 217.051C624.14 217.051 624.344 217.023 624.536 216.967C624.728 216.911 624.896 216.831 625.04 216.727C625.184 216.615 625.296 216.483 625.376 216.331C625.464 216.171 625.508 215.987 625.508 215.779V213.547C625.508 213.339 625.464 213.159 625.376 213.007C625.296 212.847 625.184 212.715 625.04 212.611C624.896 212.499 624.728 212.415 624.536 212.359C624.344 212.303 624.14 212.275 623.924 212.275C623.364 212.275 622.928 212.447 622.616 212.791C622.312 213.127 622.16 213.575 622.16 214.135V215.191C622.16 215.751 622.312 216.203 622.616 216.547C622.928 216.883 623.364 217.051 623.924 217.051ZM628.779 217.759V211.567H629.739V212.575H629.787C629.851 212.423 629.931 212.279 630.027 212.143C630.123 211.999 630.239 211.875 630.375 211.771C630.519 211.667 630.687 211.583 630.879 211.519C631.071 211.455 631.295 211.423 631.551 211.423C632.199 211.423 632.719 211.631 633.111 212.047C633.503 212.455 633.699 213.035 633.699 213.787V217.759H632.739V213.955C632.739 213.387 632.615 212.967 632.367 212.695C632.119 212.415 631.755 212.275 631.275 212.275C631.083 212.275 630.895 212.299 630.711 212.347C630.527 212.395 630.363 212.467 630.219 212.563C630.075 212.659 629.959 212.783 629.871 212.935C629.783 213.087 629.739 213.263 629.739 213.463V217.759H628.779ZM635.158 211.567H636.01L636.718 216.919H636.826L637.882 211.567H638.938L639.994 216.919H640.102L640.81 211.567H641.638L640.69 217.759H639.442L638.458 212.575H638.362L637.354 217.759H636.106L635.158 211.567ZM648.426 212.455C648.426 213.079 648.33 213.667 648.138 214.219C647.954 214.763 647.714 215.263 647.418 215.719C647.122 216.167 646.794 216.567 646.434 216.919C646.082 217.263 645.734 217.543 645.39 217.759H644.094C644.55 217.431 644.954 217.111 645.306 216.799C645.666 216.487 645.982 216.163 646.254 215.827C646.526 215.483 646.754 215.119 646.938 214.735C647.122 214.343 647.274 213.903 647.394 213.415L647.334 213.391C647.126 213.735 646.858 214.023 646.53 214.255C646.21 214.479 645.79 214.591 645.27 214.591C644.902 214.591 644.562 214.531 644.25 214.411C643.946 214.291 643.682 214.119 643.458 213.895C643.242 213.671 643.07 213.403 642.942 213.091C642.822 212.771 642.762 212.411 642.762 212.011C642.762 211.603 642.826 211.231 642.954 210.895C643.09 210.551 643.282 210.259 643.53 210.019C643.778 209.771 644.074 209.579 644.418 209.443C644.77 209.307 645.158 209.239 645.582 209.239C646.022 209.239 646.418 209.315 646.77 209.467C647.122 209.611 647.418 209.823 647.658 210.103C647.906 210.375 648.094 210.711 648.222 211.111C648.358 211.511 648.426 211.959 648.426 212.455ZM645.594 213.763C646.17 213.763 646.614 213.607 646.926 213.295C647.246 212.983 647.406 212.543 647.406 211.975V211.879C647.406 211.311 647.246 210.871 646.926 210.559C646.614 210.247 646.17 210.091 645.594 210.091C645.018 210.091 644.57 210.247 644.25 210.559C643.938 210.871 643.782 211.311 643.782 211.879V211.975C643.782 212.543 643.938 212.983 644.25 213.295C644.57 213.607 645.018 213.763 645.594 213.763ZM650.113 216.943H651.925V212.383H650.113V211.567H652.885V213.127H652.945C653.073 212.639 653.313 212.259 653.665 211.987C654.025 211.707 654.481 211.567 655.033 211.567H655.897V212.527H654.733C654.181 212.527 653.733 212.687 653.389 213.007C653.053 213.327 652.885 213.747 652.885 214.267V216.943H655.285V217.759H650.113V216.943ZM660.092 217.903C659.644 217.903 659.24 217.827 658.88 217.675C658.528 217.523 658.224 217.307 657.968 217.027C657.72 216.739 657.528 216.399 657.392 216.007C657.256 215.607 657.188 215.163 657.188 214.675C657.188 214.179 657.256 213.731 657.392 213.331C657.536 212.931 657.732 212.591 657.98 212.311C658.228 212.023 658.524 211.803 658.868 211.651C659.22 211.499 659.608 211.423 660.032 211.423C660.448 211.423 660.824 211.499 661.16 211.651C661.504 211.803 661.796 212.015 662.036 212.287C662.276 212.551 662.46 212.867 662.588 213.235C662.716 213.603 662.78 214.007 662.78 214.447V214.903H658.196V215.191C658.196 215.463 658.24 215.715 658.328 215.947C658.416 216.179 658.54 216.379 658.7 216.547C658.868 216.715 659.068 216.847 659.3 216.943C659.54 217.031 659.804 217.075 660.092 217.075C660.508 217.075 660.868 216.979 661.172 216.787C661.476 216.595 661.708 216.331 661.868 215.995L662.576 216.475C662.392 216.891 662.084 217.235 661.652 217.507C661.228 217.771 660.708 217.903 660.092 217.903ZM660.032 212.215C659.768 212.215 659.524 212.263 659.3 212.359C659.076 212.455 658.88 212.587 658.712 212.755C658.552 212.923 658.424 213.123 658.328 213.355C658.24 213.579 658.196 213.827 658.196 214.099V214.183H661.748V214.051C661.748 213.779 661.704 213.531 661.616 213.307C661.536 213.083 661.42 212.891 661.268 212.731C661.124 212.563 660.944 212.435 660.728 212.347C660.52 212.259 660.288 212.215 660.032 212.215ZM669.592 210.259H665.848L665.608 213.463H665.692C665.9 213.183 666.132 212.963 666.388 212.803C666.644 212.635 666.996 212.551 667.444 212.551C667.812 212.551 668.148 212.611 668.452 212.731C668.764 212.843 669.032 213.011 669.256 213.235C669.48 213.459 669.656 213.731 669.784 214.051C669.912 214.363 669.976 214.723 669.976 215.131C669.976 215.539 669.912 215.915 669.784 216.259C669.656 216.595 669.468 216.887 669.22 217.135C668.972 217.375 668.672 217.563 668.32 217.699C667.968 217.835 667.568 217.903 667.12 217.903C666.768 217.903 666.452 217.863 666.172 217.783C665.9 217.703 665.656 217.595 665.44 217.459C665.232 217.323 665.048 217.171 664.888 217.003C664.728 216.835 664.584 216.659 664.456 216.475L665.212 215.899C665.324 216.067 665.436 216.219 665.548 216.355C665.668 216.491 665.804 216.611 665.956 216.715C666.108 216.811 666.28 216.887 666.472 216.943C666.664 216.999 666.888 217.027 667.144 217.027C667.72 217.027 668.16 216.871 668.464 216.559C668.776 216.247 668.932 215.815 668.932 215.263V215.167C668.932 214.615 668.776 214.183 668.464 213.871C668.152 213.559 667.704 213.403 667.12 213.403C666.72 213.403 666.408 213.471 666.184 213.607C665.968 213.743 665.768 213.911 665.584 214.111L664.732 213.991L665.032 209.383H669.592V210.259ZM677.207 212.455C677.207 213.079 677.111 213.667 676.919 214.219C676.735 214.763 676.495 215.263 676.199 215.719C675.903 216.167 675.575 216.567 675.215 216.919C674.863 217.263 674.515 217.543 674.171 217.759H672.875C673.331 217.431 673.735 217.111 674.087 216.799C674.447 216.487 674.763 216.163 675.035 215.827C675.307 215.483 675.535 215.119 675.719 214.735C675.903 214.343 676.055 213.903 676.175 213.415L676.115 213.391C675.907 213.735 675.639 214.023 675.311 214.255C674.991 214.479 674.571 214.591 674.051 214.591C673.683 214.591 673.343 214.531 673.031 214.411C672.727 214.291 672.463 214.119 672.239 213.895C672.023 213.671 671.851 213.403 671.723 213.091C671.603 212.771 671.543 212.411 671.543 212.011C671.543 211.603 671.607 211.231 671.735 210.895C671.871 210.551 672.063 210.259 672.311 210.019C672.559 209.771 672.855 209.579 673.199 209.443C673.551 209.307 673.939 209.239 674.363 209.239C674.803 209.239 675.199 209.315 675.551 209.467C675.903 209.611 676.199 209.823 676.439 210.103C676.687 210.375 676.875 210.711 677.003 211.111C677.139 211.511 677.207 211.959 677.207 212.455ZM674.375 213.763C674.951 213.763 675.395 213.607 675.707 213.295C676.027 212.983 676.187 212.543 676.187 211.975V211.879C676.187 211.311 676.027 210.871 675.707 210.559C675.395 210.247 674.951 210.091 674.375 210.091C673.799 210.091 673.351 210.247 673.031 210.559C672.719 210.871 672.563 211.311 672.563 211.879V211.975C672.563 212.543 672.719 212.983 673.031 213.295C673.351 213.607 673.799 213.763 674.375 213.763ZM684.702 218.467C684.702 219.091 684.442 219.551 683.922 219.847C683.402 220.151 682.622 220.303 681.582 220.303C680.582 220.303 679.862 220.171 679.422 219.907C678.99 219.643 678.774 219.263 678.774 218.767C678.774 218.431 678.862 218.171 679.038 217.987C679.214 217.803 679.462 217.667 679.782 217.579V217.435C679.606 217.347 679.47 217.235 679.374 217.099C679.278 216.963 679.23 216.791 679.23 216.583C679.23 216.263 679.334 216.023 679.542 215.863C679.758 215.703 680.026 215.583 680.346 215.503V215.455C679.962 215.287 679.662 215.039 679.446 214.711C679.238 214.383 679.134 213.999 679.134 213.559C679.134 213.247 679.19 212.959 679.302 212.695C679.414 212.431 679.574 212.207 679.782 212.023C679.998 211.831 680.254 211.683 680.55 211.579C680.846 211.475 681.174 211.423 681.534 211.423C681.998 211.423 682.406 211.507 682.758 211.675V211.567C682.758 211.327 682.814 211.127 682.926 210.967C683.038 210.807 683.23 210.727 683.502 210.727H684.642V211.567H683.25V211.987C683.474 212.179 683.646 212.407 683.766 212.671C683.886 212.935 683.946 213.231 683.946 213.559C683.946 213.871 683.886 214.159 683.766 214.423C683.654 214.687 683.494 214.915 683.286 215.107C683.078 215.291 682.822 215.435 682.518 215.539C682.222 215.643 681.894 215.695 681.534 215.695C681.43 215.695 681.33 215.691 681.234 215.683C681.138 215.675 681.042 215.663 680.946 215.647C680.85 215.663 680.75 215.691 680.646 215.731C680.542 215.763 680.446 215.811 680.358 215.875C680.27 215.931 680.198 215.999 680.142 216.079C680.086 216.159 680.058 216.251 680.058 216.355C680.058 216.539 680.15 216.663 680.334 216.727C680.518 216.783 680.758 216.811 681.054 216.811H682.422C683.222 216.811 683.802 216.963 684.162 217.267C684.522 217.563 684.702 217.963 684.702 218.467ZM683.802 218.515C683.802 218.267 683.702 218.067 683.502 217.915C683.302 217.771 682.954 217.699 682.458 217.699H680.31C679.894 217.867 679.686 218.147 679.686 218.539C679.686 218.811 679.794 219.043 680.01 219.235C680.226 219.435 680.586 219.535 681.09 219.535H682.026C682.586 219.535 683.022 219.447 683.334 219.271C683.646 219.103 683.802 218.851 683.802 218.515ZM681.534 214.951C682.014 214.951 682.366 214.839 682.59 214.615C682.822 214.391 682.938 214.095 682.938 213.727V213.379C682.938 213.011 682.822 212.719 682.59 212.503C682.366 212.279 682.014 212.167 681.534 212.167C681.054 212.167 680.702 212.279 680.478 212.503C680.254 212.719 680.142 213.011 680.142 213.379V213.727C680.142 214.095 680.254 214.391 680.478 214.615C680.702 214.839 681.054 214.951 681.534 214.951ZM689.066 217.759C688.594 217.759 688.246 217.627 688.022 217.363C687.806 217.099 687.698 216.759 687.698 216.343V212.383H685.634V211.567H687.17C687.378 211.567 687.522 211.527 687.602 211.447C687.69 211.359 687.734 211.211 687.734 211.003V209.383H688.658V211.567H691.478V212.383H688.658V216.943H691.478V217.759H689.066ZM693.381 217.759V216.835L697.377 212.383H693.513V211.567H698.421V212.491L694.425 216.943H698.541V217.759H693.381ZM700.576 217.759V216.835L704.572 212.383H700.708V211.567H705.616V212.491L701.62 216.943H705.736V217.759H700.576ZM707.111 211.567H707.963L708.671 216.919H708.779L709.835 211.567H710.891L711.947 216.919H712.055L712.763 211.567H713.591L712.643 217.759H711.395L710.411 212.575H710.315L709.307 217.759H708.059L707.111 211.567ZM714.943 216.943H717.031V212.383H714.823V211.567H717.031V210.295C717.031 209.879 717.139 209.539 717.355 209.275C717.579 209.011 717.927 208.879 718.399 208.879H720.475V209.695H717.991V211.567H720.475V212.383H717.991V216.943H720.199V217.759H714.943V216.943ZM727.154 210.259H723.41L723.17 213.463H723.254C723.462 213.183 723.694 212.963 723.95 212.803C724.206 212.635 724.558 212.551 725.006 212.551C725.374 212.551 725.71 212.611 726.014 212.731C726.326 212.843 726.594 213.011 726.818 213.235C727.042 213.459 727.218 213.731 727.346 214.051C727.474 214.363 727.538 214.723 727.538 215.131C727.538 215.539 727.474 215.915 727.346 216.259C727.218 216.595 727.03 216.887 726.782 217.135C726.534 217.375 726.234 217.563 725.882 217.699C725.53 217.835 725.13 217.903 724.682 217.903C724.33 217.903 724.014 217.863 723.734 217.783C723.462 217.703 723.218 217.595 723.002 217.459C722.794 217.323 722.61 217.171 722.45 217.003C722.29 216.835 722.146 216.659 722.018 216.475L722.774 215.899C722.886 216.067 722.998 216.219 723.11 216.355C723.23 216.491 723.366 216.611 723.518 216.715C723.67 216.811 723.842 216.887 724.034 216.943C724.226 216.999 724.45 217.027 724.706 217.027C725.282 217.027 725.722 216.871 726.026 216.559C726.338 216.247 726.494 215.815 726.494 215.263V215.167C726.494 214.615 726.338 214.183 726.026 213.871C725.714 213.559 725.266 213.403 724.682 213.403C724.282 213.403 723.97 213.471 723.746 213.607C723.53 213.743 723.33 213.911 723.146 214.111L722.294 213.991L722.594 209.383H727.154V210.259ZM728.985 217.759V211.567H729.873V212.287H729.921C730.017 212.047 730.153 211.843 730.329 211.675C730.505 211.507 730.765 211.423 731.109 211.423C731.469 211.423 731.737 211.515 731.913 211.699C732.089 211.875 732.197 212.107 732.237 212.395H732.273C732.385 212.115 732.545 211.883 732.753 211.699C732.961 211.515 733.249 211.423 733.617 211.423C734.121 211.423 734.457 211.599 734.625 211.951C734.801 212.303 734.889 212.807 734.889 213.463V217.759H734.001V213.619C734.001 213.091 733.945 212.727 733.833 212.527C733.729 212.319 733.533 212.215 733.245 212.215C732.989 212.215 732.781 212.299 732.621 212.467C732.461 212.627 732.381 212.875 732.381 213.211V217.759H731.493V213.619C731.493 213.091 731.437 212.727 731.325 212.527C731.221 212.319 731.029 212.215 730.749 212.215C730.493 212.215 730.281 212.299 730.113 212.467C729.953 212.627 729.873 212.875 729.873 213.211V217.759H728.985ZM740.633 216.751H740.585C740.185 217.519 739.549 217.903 738.677 217.903C737.917 217.903 737.321 217.619 736.889 217.051C736.465 216.483 736.253 215.687 736.253 214.663C736.253 213.639 736.465 212.843 736.889 212.275C737.321 211.707 737.917 211.423 738.677 211.423C739.549 211.423 740.185 211.807 740.585 212.575H740.633V208.879H741.593V217.759H740.633V216.751ZM739.049 217.051C739.265 217.051 739.469 217.023 739.661 216.967C739.853 216.911 740.021 216.831 740.165 216.727C740.309 216.615 740.421 216.483 740.501 216.331C740.589 216.171 740.633 215.987 740.633 215.779V213.547C740.633 213.339 740.589 213.159 740.501 213.007C740.421 212.847 740.309 212.715 740.165 212.611C740.021 212.499 739.853 212.415 739.661 212.359C739.469 212.303 739.265 212.275 739.049 212.275C738.489 212.275 738.053 212.447 737.741 212.791C737.437 213.127 737.285 213.575 737.285 214.135V215.191C737.285 215.751 737.437 216.203 737.741 216.547C738.053 216.883 738.489 217.051 739.049 217.051ZM747.828 216.751H747.78C747.38 217.519 746.744 217.903 745.872 217.903C745.112 217.903 744.516 217.619 744.084 217.051C743.66 216.483 743.448 215.687 743.448 214.663C743.448 213.639 743.66 212.843 744.084 212.275C744.516 211.707 745.112 211.423 745.872 211.423C746.744 211.423 747.38 211.807 747.78 212.575H747.828V211.567H748.788V220.159H747.828V216.751ZM746.244 217.051C746.46 217.051 746.664 217.023 746.856 216.967C747.048 216.911 747.216 216.831 747.36 216.727C747.504 216.615 747.616 216.483 747.696 216.331C747.784 216.171 747.828 215.987 747.828 215.779V213.547C747.828 213.339 747.784 213.159 747.696 213.007C747.616 212.847 747.504 212.715 747.36 212.611C747.216 212.499 747.048 212.415 746.856 212.359C746.664 212.303 746.46 212.275 746.244 212.275C745.684 212.275 745.248 212.447 744.936 212.791C744.632 213.127 744.48 213.575 744.48 214.135V215.191C744.48 215.751 744.632 216.203 744.936 216.547C745.248 216.883 745.684 217.051 746.244 217.051Z" fill="black"/>
</g>
<rect x="418.72" y="141.759" width="373" height="117" rx="5" stroke="black" stroke-width="2"/>
</svg>
