<svg width="600" height="500" viewBox="0 0 600 500" fill="none" xmlns="http://www.w3.org/2000/svg">
<rect width="600" height="500" fill="white"/>
<path d="M302 266C302 265.172 301.328 264.5 300.5 264.5C299.672 264.5 299 265.172 299 266H302ZM299.439 312.315C300.025 312.901 300.975 312.901 301.561 312.315L311.107 302.77C311.692 302.184 311.692 301.234 311.107 300.648C310.521 300.062 309.571 300.062 308.985 300.648L300.5 309.134L292.015 300.648C291.429 300.062 290.479 300.062 289.893 300.648C289.308 301.234 289.308 302.184 289.893 302.77L299.439 312.315ZM299 266V311.255H302V266H299Z" fill="black"/>
<path d="M144.585 384.255H146.17V379.474H149.034C152.083 379.474 153.457 377.62 153.457 375.306C153.457 372.992 152.083 371.164 149.009 371.164H144.585V384.255ZM146.17 378.067V372.57H148.957C151.086 372.57 151.898 373.734 151.898 375.306C151.898 376.878 151.086 378.067 148.983 378.067H146.17ZM158.696 384.485C160.409 384.485 161.304 383.565 161.61 382.925H161.687V384.255H163.196V377.786C163.196 374.667 160.818 374.309 159.565 374.309C158.082 374.309 156.395 374.82 155.627 376.61L157.059 377.121C157.392 376.405 158.178 375.638 159.616 375.638C161.003 375.638 161.687 376.373 161.687 377.633V377.684C161.687 378.413 160.946 378.349 159.156 378.579C157.334 378.815 155.346 379.218 155.346 381.468C155.346 383.386 156.829 384.485 158.696 384.485ZM158.926 383.13C157.724 383.13 156.855 382.593 156.855 381.545C156.855 380.394 157.903 380.036 159.079 379.883C159.718 379.806 161.431 379.627 161.687 379.32V380.701C161.687 381.928 160.716 383.13 158.926 383.13ZM166.569 387.937C167.931 387.937 168.889 387.214 169.458 385.687L173.639 374.462L171.99 374.437L169.279 382.261H169.177L166.467 374.437H164.83L168.461 384.306L168.18 385.073C167.63 386.569 166.953 386.709 165.853 386.428L165.47 387.758C165.623 387.834 166.058 387.937 166.569 387.937ZM175.635 384.255H177.143V378.119C177.143 376.68 178.191 375.664 179.368 375.664C180.512 375.664 181.311 376.412 181.311 377.53V384.255H182.845V377.863C182.845 376.597 183.637 375.664 185.018 375.664C186.092 375.664 187.012 376.233 187.012 377.684V384.255H188.521V377.684C188.521 375.376 187.281 374.309 185.529 374.309C184.123 374.309 183.094 374.954 182.589 375.971H182.487C182.001 374.922 181.145 374.309 179.853 374.309C178.575 374.309 177.629 374.922 177.22 375.971H177.092V374.437H175.635V384.255ZM195.396 384.459C197.39 384.459 198.847 383.462 199.308 381.979L197.85 381.57C197.467 382.593 196.578 383.104 195.396 383.104C193.625 383.104 192.404 381.96 192.334 379.857H199.461V379.218C199.461 375.562 197.288 374.309 195.242 374.309C192.583 374.309 190.819 376.405 190.819 379.422C190.819 382.44 192.558 384.459 195.396 384.459ZM192.334 378.553C192.436 377.025 193.516 375.664 195.242 375.664C196.879 375.664 197.927 376.891 197.927 378.553H192.334ZM203.264 378.349C203.264 376.636 204.325 375.664 205.77 375.664C207.17 375.664 208.02 376.578 208.02 378.119V384.255H209.528V378.016C209.528 375.511 208.192 374.309 206.205 374.309C204.722 374.309 203.801 374.974 203.341 375.971H203.213V374.437H201.756V384.255H203.264V378.349ZM216.555 374.437H214.458V372.084H212.95V374.437H211.467V375.715H212.95V381.851C212.95 383.565 214.33 384.383 215.609 384.383C216.171 384.383 216.529 384.28 216.734 384.204L216.427 382.849C216.299 382.874 216.095 382.925 215.762 382.925C215.097 382.925 214.458 382.721 214.458 381.442V375.715H216.555V374.437ZM228.156 374.437H226.06V372.084H224.551V374.437H223.068V375.715H224.551V381.851C224.551 383.565 225.932 384.383 227.21 384.383C227.773 384.383 228.131 384.28 228.335 384.204L228.029 382.849C227.901 382.874 227.696 382.925 227.364 382.925C226.699 382.925 226.06 382.721 226.06 381.442V375.715H228.156V374.437ZM234.309 384.459C236.968 384.459 238.758 382.44 238.758 379.397C238.758 376.329 236.968 374.309 234.309 374.309C231.65 374.309 229.86 376.329 229.86 379.397C229.86 382.44 231.65 384.459 234.309 384.459ZM234.309 383.104C232.289 383.104 231.368 381.366 231.368 379.397C231.368 377.428 232.289 375.664 234.309 375.664C236.329 375.664 237.249 377.428 237.249 379.397C237.249 381.366 236.329 383.104 234.309 383.104ZM254.504 375.344H256.921C256.518 372.775 254.294 370.985 251.398 370.985C247.972 370.985 245.402 373.503 245.402 377.722C245.402 381.864 247.857 384.434 251.468 384.434C254.709 384.434 257.029 382.35 257.029 378.975V377.403H251.718V379.256H254.735C254.696 381.123 253.45 382.305 251.481 382.305C249.289 382.305 247.786 380.663 247.786 377.697C247.786 374.75 249.314 373.114 251.43 373.114C253.009 373.114 254.083 373.957 254.504 375.344ZM262.045 384.453C263.586 384.453 264.506 383.731 264.928 382.906H265.005V384.255H267.229V377.684C267.229 375.089 265.114 374.309 263.241 374.309C261.176 374.309 259.591 375.229 259.08 377.019L261.24 377.326C261.47 376.655 262.122 376.079 263.254 376.079C264.327 376.079 264.915 376.629 264.915 377.594V377.633C264.915 378.297 264.219 378.329 262.487 378.515C260.582 378.719 258.76 379.288 258.76 381.5C258.76 383.43 260.173 384.453 262.045 384.453ZM262.646 382.753C261.681 382.753 260.991 382.312 260.991 381.462C260.991 380.573 261.764 380.202 262.8 380.055C263.407 379.972 264.621 379.819 264.922 379.576V380.733C264.922 381.826 264.04 382.753 262.646 382.753ZM274.459 374.437H272.522V372.084H270.208V374.437H268.815V376.226H270.208V381.685C270.195 383.533 271.538 384.44 273.276 384.389C273.935 384.37 274.388 384.242 274.638 384.159L274.248 382.35C274.12 382.382 273.858 382.44 273.57 382.44C272.989 382.44 272.522 382.235 272.522 381.302V376.226H274.459V374.437ZM280.635 384.447C282.923 384.447 284.496 383.328 284.905 381.621L282.744 381.378C282.431 382.209 281.664 382.644 280.667 382.644C279.171 382.644 278.181 381.66 278.161 379.979H285.001V379.269C285.001 375.824 282.93 374.309 280.514 374.309C277.701 374.309 275.867 376.373 275.867 379.403C275.867 382.484 277.676 384.447 280.635 384.447ZM278.168 378.419C278.238 377.166 279.165 376.111 280.546 376.111C281.875 376.111 282.77 377.083 282.783 378.419H278.168ZM291.861 374.437H289.924V372.084H287.61V374.437H286.217V376.226H287.61V381.685C287.598 383.533 288.94 384.44 290.679 384.389C291.337 384.37 291.791 384.242 292.04 384.159L291.65 382.35C291.522 382.382 291.26 382.44 290.973 382.44C290.391 382.44 289.924 382.235 289.924 381.302V376.226H291.861V374.437ZM298.037 384.447C300.326 384.447 301.898 383.328 302.307 381.621L300.147 381.378C299.834 382.209 299.067 382.644 298.069 382.644C296.574 382.644 295.583 381.66 295.564 379.979H302.403V379.269C302.403 375.824 300.332 374.309 297.916 374.309C295.104 374.309 293.269 376.373 293.269 379.403C293.269 382.484 295.078 384.447 298.037 384.447ZM295.57 378.419C295.64 377.166 296.567 376.111 297.948 376.111C299.278 376.111 300.172 377.083 300.185 378.419H295.57Z" fill="black"/>
<path d="M394.832 384.504C397.99 384.511 399.876 382.018 399.876 377.722C399.876 373.452 397.977 370.985 394.832 370.985C391.687 370.985 389.795 373.446 389.789 377.722C389.789 382.011 391.675 384.504 394.832 384.504ZM394.832 382.503C393.202 382.503 392.18 380.867 392.186 377.722C392.192 374.603 393.209 372.96 394.832 372.96C396.462 372.96 397.479 374.603 397.485 377.722C397.485 380.867 396.469 382.503 394.832 382.503ZM402.941 384.396C403.695 384.396 404.34 383.769 404.347 382.989C404.34 382.222 403.695 381.596 402.941 381.596C402.161 381.596 401.528 382.222 401.534 382.989C401.528 383.769 402.161 384.396 402.941 384.396ZM411.044 370.985C408.206 370.966 406.32 372.915 406.32 375.472C406.327 377.94 408.085 379.723 410.379 379.723C411.792 379.723 413.019 379.039 413.652 377.914H413.741C413.735 380.714 412.719 382.382 410.91 382.382C409.778 382.382 409.018 381.73 408.781 380.688H406.448C406.717 382.855 408.43 384.434 410.91 384.434C414.048 384.434 416.049 381.813 416.043 377.307C416.036 372.538 413.556 370.998 411.044 370.985ZM411.05 372.903C412.45 372.903 413.479 374.066 413.479 375.402C413.486 376.757 412.406 377.92 411.025 377.92C409.631 377.92 408.628 376.821 408.621 375.421C408.621 374.015 409.663 372.903 411.05 372.903ZM422.764 384.255H428.063C431.061 384.255 432.531 382.727 432.531 380.688C432.531 378.707 431.125 377.543 429.731 377.473V377.345C431.01 377.045 432.02 376.15 432.02 374.558C432.02 372.609 430.613 371.164 427.775 371.164H422.764V384.255ZM425.135 382.273V378.438H427.75C429.213 378.438 430.121 379.333 430.121 380.503C430.121 381.545 429.405 382.273 427.686 382.273H425.135ZM425.135 376.731V373.12H427.532C428.926 373.12 429.648 373.855 429.648 374.865C429.648 376.016 428.715 376.731 427.481 376.731H425.135ZM434.019 373.152H438.065V384.255H440.417V373.152H444.463V371.164H434.019V373.152ZM457.119 375.581C456.717 372.672 454.48 370.985 451.578 370.985C448.158 370.985 445.582 373.478 445.582 377.709C445.582 381.935 448.126 384.434 451.578 384.434C454.691 384.434 456.755 382.42 457.119 379.921L454.729 379.908C454.428 381.442 453.176 382.305 451.61 382.305C449.487 382.305 447.966 380.714 447.966 377.709C447.966 374.756 449.475 373.114 451.616 373.114C453.208 373.114 454.454 374.015 454.729 375.581H457.119Z" fill="black"/>
<g opacity="0.6">
<path d="M144.14 402.375H145.1V406.071H145.148C145.548 405.303 146.184 404.919 147.056 404.919C147.816 404.919 148.408 405.203 148.832 405.771C149.264 406.339 149.48 407.135 149.48 408.159C149.48 409.183 149.264 409.979 148.832 410.547C148.408 411.115 147.816 411.399 147.056 411.399C146.184 411.399 145.548 411.015 145.148 410.247H145.1V411.255H144.14V402.375ZM146.684 410.547C147.244 410.547 147.676 410.379 147.98 410.043C148.292 409.699 148.448 409.247 148.448 408.687V407.631C148.448 407.071 148.292 406.623 147.98 406.287C147.676 405.943 147.244 405.771 146.684 405.771C146.468 405.771 146.264 405.799 146.072 405.855C145.88 405.911 145.712 405.995 145.568 406.107C145.424 406.211 145.308 406.343 145.22 406.503C145.14 406.655 145.1 406.835 145.1 407.043V409.275C145.1 409.483 145.14 409.667 145.22 409.827C145.308 409.979 145.424 410.111 145.568 410.223C145.712 410.327 145.88 410.407 146.072 410.463C146.264 410.519 146.468 410.547 146.684 410.547ZM154.011 411.399C153.563 411.399 153.163 411.323 152.811 411.171C152.467 411.011 152.175 410.791 151.935 410.511C151.695 410.231 151.511 409.891 151.383 409.491C151.263 409.091 151.203 408.647 151.203 408.159C151.203 407.671 151.267 407.227 151.395 406.827C151.523 406.427 151.707 406.087 151.947 405.807C152.187 405.519 152.479 405.299 152.823 405.147C153.167 404.995 153.559 404.919 153.999 404.919C154.599 404.919 155.087 405.051 155.463 405.315C155.839 405.579 156.115 405.923 156.291 406.347L155.523 406.755C155.411 406.435 155.223 406.187 154.959 406.011C154.703 405.835 154.383 405.747 153.999 405.747C153.719 405.747 153.467 405.795 153.243 405.891C153.027 405.979 152.843 406.107 152.691 406.275C152.539 406.443 152.423 406.643 152.343 406.875C152.271 407.107 152.235 407.359 152.235 407.631V408.687C152.235 408.959 152.271 409.211 152.343 409.443C152.423 409.675 152.539 409.875 152.691 410.043C152.843 410.211 153.031 410.343 153.255 410.439C153.479 410.527 153.735 410.571 154.023 410.571C154.439 410.571 154.783 410.475 155.055 410.283C155.327 410.091 155.543 409.827 155.703 409.491L156.387 409.959C156.203 410.375 155.915 410.719 155.523 410.991C155.139 411.263 154.635 411.399 154.011 411.399ZM158.411 411.255V410.379H160.811V403.623H160.727L158.615 405.591L158.027 404.955L160.247 402.879H161.819V410.379H164.027V411.255H158.411ZM169.686 410.247H169.638C169.238 411.015 168.602 411.399 167.73 411.399C166.97 411.399 166.374 411.115 165.942 410.547C165.518 409.979 165.306 409.183 165.306 408.159C165.306 407.135 165.518 406.339 165.942 405.771C166.374 405.203 166.97 404.919 167.73 404.919C168.602 404.919 169.238 405.303 169.638 406.071H169.686V405.063H170.646V413.655H169.686V410.247ZM168.102 410.547C168.318 410.547 168.522 410.519 168.714 410.463C168.906 410.407 169.074 410.327 169.218 410.223C169.362 410.111 169.474 409.979 169.554 409.827C169.642 409.667 169.686 409.483 169.686 409.275V407.043C169.686 406.835 169.642 406.655 169.554 406.503C169.474 406.343 169.362 406.211 169.218 406.107C169.074 405.995 168.906 405.911 168.714 405.855C168.522 405.799 168.318 405.771 168.102 405.771C167.542 405.771 167.106 405.943 166.794 406.287C166.49 406.623 166.338 407.071 166.338 407.631V408.687C166.338 409.247 166.49 409.699 166.794 410.043C167.106 410.379 167.542 410.547 168.102 410.547ZM177.721 411.255C177.345 411.255 177.077 411.159 176.917 410.967C176.757 410.775 176.657 410.535 176.617 410.247H176.557C176.421 410.607 176.201 410.891 175.897 411.099C175.601 411.299 175.201 411.399 174.697 411.399C174.049 411.399 173.533 411.231 173.149 410.895C172.765 410.559 172.573 410.099 172.573 409.515C172.573 408.939 172.781 408.495 173.197 408.183C173.621 407.871 174.301 407.715 175.237 407.715H176.557V407.103C176.557 406.647 176.429 406.307 176.173 406.083C175.917 405.851 175.553 405.735 175.081 405.735C174.665 405.735 174.325 405.819 174.061 405.987C173.797 406.147 173.585 406.367 173.425 406.647L172.777 406.167C172.857 406.007 172.965 405.851 173.101 405.699C173.237 405.547 173.405 405.415 173.605 405.303C173.805 405.183 174.033 405.091 174.289 405.027C174.545 404.955 174.829 404.919 175.141 404.919C175.869 404.919 176.445 405.103 176.869 405.471C177.301 405.839 177.517 406.351 177.517 407.007V410.415H178.381V411.255H177.721ZM174.865 410.595C175.113 410.595 175.337 410.567 175.537 410.511C175.745 410.447 175.925 410.367 176.077 410.271C176.229 410.167 176.345 410.047 176.425 409.911C176.513 409.767 176.557 409.615 176.557 409.455V408.435H175.237C174.661 408.435 174.241 408.515 173.977 408.675C173.713 408.835 173.581 409.067 173.581 409.371V409.623C173.581 409.943 173.693 410.187 173.917 410.355C174.149 410.515 174.465 410.595 174.865 410.595ZM179.901 410.439H181.713V405.879H179.901V405.063H182.673V406.623H182.733C182.861 406.135 183.101 405.755 183.453 405.483C183.813 405.203 184.269 405.063 184.821 405.063H185.685V406.023H184.521C183.969 406.023 183.521 406.183 183.177 406.503C182.841 406.823 182.673 407.243 182.673 407.763V410.439H185.073V411.255H179.901V410.439ZM189.772 411.399C189.26 411.399 188.82 411.303 188.452 411.111C188.084 410.911 187.78 410.627 187.54 410.259C187.3 409.891 187.124 409.439 187.012 408.903C186.9 408.367 186.844 407.755 186.844 407.067C186.844 406.387 186.9 405.779 187.012 405.243C187.124 404.699 187.3 404.243 187.54 403.875C187.78 403.507 188.084 403.227 188.452 403.035C188.82 402.835 189.26 402.735 189.772 402.735C190.284 402.735 190.724 402.835 191.092 403.035C191.46 403.227 191.764 403.507 192.004 403.875C192.244 404.243 192.42 404.699 192.532 405.243C192.644 405.779 192.7 406.387 192.7 407.067C192.7 407.755 192.644 408.367 192.532 408.903C192.42 409.439 192.244 409.891 192.004 410.259C191.764 410.627 191.46 410.911 191.092 411.111C190.724 411.303 190.284 411.399 189.772 411.399ZM189.772 410.523C190.108 410.523 190.396 410.459 190.636 410.331C190.876 410.195 191.068 410.007 191.212 409.767C191.364 409.527 191.476 409.239 191.548 408.903C191.62 408.559 191.656 408.175 191.656 407.751V406.383C191.656 405.967 191.62 405.587 191.548 405.243C191.476 404.899 191.364 404.607 191.212 404.367C191.068 404.127 190.876 403.943 190.636 403.815C190.396 403.679 190.108 403.611 189.772 403.611C189.436 403.611 189.148 403.679 188.908 403.815C188.668 403.943 188.472 404.127 188.32 404.367C188.176 404.607 188.068 404.899 187.996 405.243C187.924 405.587 187.888 405.967 187.888 406.383V407.751C187.888 408.175 187.924 408.559 187.996 408.903C188.068 409.239 188.176 409.527 188.32 409.767C188.472 410.007 188.668 410.195 188.908 410.331C189.148 410.459 189.436 410.523 189.772 410.523ZM189.772 407.775C189.492 407.775 189.296 407.719 189.184 407.607C189.08 407.495 189.028 407.359 189.028 407.199V406.935C189.028 406.775 189.08 406.639 189.184 406.527C189.296 406.415 189.492 406.359 189.772 406.359C190.052 406.359 190.244 406.415 190.348 406.527C190.46 406.639 190.516 406.775 190.516 406.935V407.199C190.516 407.359 190.46 407.495 190.348 407.607C190.244 407.719 190.052 407.775 189.772 407.775ZM197.039 411.399C196.391 411.399 195.831 411.291 195.359 411.075C194.895 410.851 194.499 410.555 194.171 410.187L194.819 409.623C195.115 409.935 195.439 410.175 195.791 410.343C196.143 410.511 196.567 410.595 197.063 410.595C197.543 410.595 197.935 410.511 198.239 410.343C198.551 410.167 198.707 409.895 198.707 409.527C198.707 409.367 198.675 409.235 198.611 409.131C198.555 409.019 198.475 408.931 198.371 408.867C198.267 408.803 198.151 408.755 198.023 408.723C197.895 408.683 197.759 408.651 197.615 408.627L196.643 408.483C196.427 408.451 196.191 408.407 195.935 408.351C195.687 408.295 195.459 408.207 195.251 408.087C195.043 407.959 194.867 407.791 194.723 407.583C194.587 407.375 194.519 407.103 194.519 406.767C194.519 406.455 194.579 406.187 194.699 405.963C194.827 405.731 195.003 405.539 195.227 405.387C195.451 405.227 195.715 405.111 196.019 405.039C196.323 404.959 196.655 404.919 197.015 404.919C197.575 404.919 198.059 405.007 198.467 405.183C198.883 405.359 199.239 405.603 199.535 405.915L198.911 406.503C198.839 406.415 198.747 406.327 198.635 406.239C198.531 406.143 198.399 406.059 198.239 405.987C198.087 405.907 197.907 405.843 197.699 405.795C197.491 405.747 197.251 405.723 196.979 405.723C196.491 405.723 196.115 405.807 195.851 405.975C195.595 406.143 195.467 406.387 195.467 406.707C195.467 406.867 195.495 407.003 195.551 407.115C195.615 407.219 195.699 407.303 195.803 407.367C195.907 407.431 196.023 407.483 196.151 407.523C196.287 407.555 196.423 407.583 196.559 407.607L197.531 407.751C197.755 407.783 197.991 407.827 198.239 407.883C198.487 407.939 198.715 408.031 198.923 408.159C199.131 408.279 199.303 408.443 199.439 408.651C199.583 408.859 199.655 409.131 199.655 409.467C199.655 410.083 199.415 410.559 198.935 410.895C198.463 411.231 197.831 411.399 197.039 411.399ZM201.487 410.439H203.299V405.879H201.487V405.063H204.259V406.623H204.319C204.447 406.135 204.687 405.755 205.039 405.483C205.399 405.203 205.855 405.063 206.407 405.063H207.271V406.023H206.107C205.555 406.023 205.107 406.183 204.763 406.503C204.427 406.823 204.259 407.243 204.259 407.763V410.439H206.659V411.255H201.487V410.439ZM208.682 410.439H210.494V405.879H208.682V405.063H211.454V406.623H211.514C211.642 406.135 211.882 405.755 212.234 405.483C212.594 405.203 213.05 405.063 213.602 405.063H214.466V406.023H213.302C212.75 406.023 212.302 406.183 211.958 406.503C211.622 406.823 211.454 407.243 211.454 407.763V410.439H213.854V411.255H208.682V410.439ZM215.877 410.439H217.689V405.879H215.877V405.063H218.649V406.623H218.709C218.837 406.135 219.077 405.755 219.429 405.483C219.789 405.203 220.245 405.063 220.797 405.063H221.661V406.023H220.497C219.945 406.023 219.497 406.183 219.153 406.503C218.817 406.823 218.649 407.243 218.649 407.763V410.439H221.049V411.255H215.877V410.439ZM224.224 411.255L227.5 403.743H223.828V405.303H222.928V402.879H228.52V403.767L225.304 411.255H224.224ZM230.076 411.255L232.38 408.111L230.136 405.063H231.288L232.224 406.371L232.968 407.403H233.016L233.736 406.371L234.66 405.063H235.764L233.496 408.099L235.824 411.255H234.672L233.628 409.803L232.92 408.819H232.872L232.188 409.803L231.18 411.255H230.076ZM237.535 410.439H239.623V405.879H237.415V405.063H239.623V403.791C239.623 403.375 239.731 403.035 239.947 402.771C240.171 402.507 240.519 402.375 240.991 402.375H243.067V403.191H240.583V405.063H243.067V405.879H240.583V410.439H242.791V411.255H237.535V410.439ZM244.994 402.375H245.954V407.979H246.002L247.082 406.959L249.146 405.063H250.322L247.754 407.487L250.622 411.255H249.434L247.022 408.039L245.954 409.011V411.255H244.994V402.375ZM253.918 411.255L251.698 405.063H252.67L253.558 407.655L254.518 410.451H254.566L255.526 407.655L256.414 405.063H257.362L255.142 411.255H253.918ZM263.729 405.063H264.689L261.617 412.611C261.545 412.787 261.465 412.939 261.377 413.067C261.289 413.203 261.185 413.311 261.065 413.391C260.945 413.479 260.801 413.543 260.633 413.583C260.465 413.631 260.265 413.655 260.033 413.655H259.121V412.839H260.561L261.257 411.135L258.761 405.063H259.745L260.789 407.655L261.713 410.007H261.761L262.685 407.655L263.729 405.063ZM271.332 403.755H267.588L267.348 406.959H267.432C267.64 406.679 267.872 406.459 268.128 406.299C268.384 406.131 268.736 406.047 269.184 406.047C269.552 406.047 269.888 406.107 270.192 406.227C270.504 406.339 270.772 406.507 270.996 406.731C271.22 406.955 271.396 407.227 271.524 407.547C271.652 407.859 271.716 408.219 271.716 408.627C271.716 409.035 271.652 409.411 271.524 409.755C271.396 410.091 271.208 410.383 270.96 410.631C270.712 410.871 270.412 411.059 270.06 411.195C269.708 411.331 269.308 411.399 268.86 411.399C268.508 411.399 268.192 411.359 267.912 411.279C267.64 411.199 267.396 411.091 267.18 410.955C266.972 410.819 266.788 410.667 266.628 410.499C266.468 410.331 266.324 410.155 266.196 409.971L266.952 409.395C267.064 409.563 267.176 409.715 267.288 409.851C267.408 409.987 267.544 410.107 267.696 410.211C267.848 410.307 268.02 410.383 268.212 410.439C268.404 410.495 268.628 410.523 268.884 410.523C269.46 410.523 269.9 410.367 270.204 410.055C270.516 409.743 270.672 409.311 270.672 408.759V408.663C270.672 408.111 270.516 407.679 270.204 407.367C269.892 407.055 269.444 406.899 268.86 406.899C268.46 406.899 268.148 406.967 267.924 407.103C267.708 407.239 267.508 407.407 267.324 407.607L266.472 407.487L266.772 402.879H271.332V403.755ZM273.476 410.439H275.636V403.191H273.476V402.375H276.596V410.439H278.756V411.255H273.476V410.439ZM283.323 411.399C282.883 411.399 282.487 411.327 282.135 411.183C281.783 411.031 281.483 410.819 281.235 410.547C280.995 410.267 280.807 409.927 280.671 409.527C280.543 409.127 280.479 408.679 280.479 408.183C280.479 407.559 280.571 406.975 280.755 406.431C280.947 405.879 281.187 405.379 281.475 404.931C281.771 404.475 282.099 404.075 282.459 403.731C282.819 403.379 283.171 403.095 283.515 402.879H284.811C284.355 403.207 283.947 403.527 283.587 403.839C283.235 404.151 282.923 404.479 282.651 404.823C282.379 405.159 282.151 405.523 281.967 405.915C281.783 406.299 281.631 406.735 281.511 407.223L281.571 407.247C281.771 406.903 282.035 406.619 282.363 406.395C282.691 406.163 283.115 406.047 283.635 406.047C284.003 406.047 284.339 406.107 284.643 406.227C284.947 406.347 285.211 406.519 285.435 406.743C285.659 406.967 285.831 407.239 285.951 407.559C286.079 407.879 286.143 408.235 286.143 408.627C286.143 409.035 286.075 409.411 285.939 409.755C285.803 410.091 285.611 410.383 285.363 410.631C285.123 410.871 284.827 411.059 284.475 411.195C284.131 411.331 283.747 411.399 283.323 411.399ZM283.311 410.547C283.887 410.547 284.331 410.391 284.643 410.079C284.963 409.767 285.123 409.327 285.123 408.759V408.663C285.123 408.095 284.963 407.655 284.643 407.343C284.331 407.031 283.887 406.875 283.311 406.875C282.735 406.875 282.287 407.031 281.967 407.343C281.655 407.655 281.499 408.095 281.499 408.663V408.759C281.499 409.327 281.655 409.767 281.967 410.079C282.287 410.391 282.735 410.547 283.311 410.547ZM291.442 411.255V409.611H287.314V408.723L290.938 402.879H292.402V408.783H293.65V409.611H292.402V411.255H291.442ZM288.214 408.783H291.442V403.659H291.394L288.214 408.783ZM297.342 406.431C297.926 406.431 298.362 406.303 298.65 406.047C298.946 405.783 299.094 405.447 299.094 405.039V404.955C299.094 404.507 298.95 404.171 298.662 403.947C298.382 403.723 298.014 403.611 297.558 403.611C297.11 403.611 296.746 403.711 296.466 403.911C296.194 404.103 295.97 404.359 295.794 404.679L295.038 404.103C295.142 403.935 295.27 403.771 295.422 403.611C295.574 403.443 295.75 403.295 295.95 403.167C296.158 403.039 296.394 402.935 296.658 402.855C296.93 402.775 297.238 402.735 297.582 402.735C297.942 402.735 298.278 402.783 298.59 402.879C298.902 402.967 299.174 403.103 299.406 403.287C299.638 403.463 299.818 403.683 299.946 403.947C300.082 404.211 300.15 404.511 300.15 404.847C300.15 405.119 300.106 405.363 300.018 405.579C299.938 405.795 299.822 405.983 299.67 406.143C299.526 406.303 299.354 406.439 299.154 406.551C298.954 406.663 298.742 406.747 298.518 406.803V406.851C298.75 406.899 298.974 406.979 299.19 407.091C299.406 407.195 299.598 407.335 299.766 407.511C299.934 407.679 300.066 407.887 300.162 408.135C300.266 408.375 300.318 408.651 300.318 408.963C300.318 409.323 300.246 409.655 300.102 409.959C299.966 410.255 299.77 410.511 299.514 410.727C299.266 410.935 298.962 411.099 298.602 411.219C298.25 411.339 297.858 411.399 297.426 411.399C297.058 411.399 296.73 411.359 296.442 411.279C296.162 411.199 295.91 411.091 295.686 410.955C295.47 410.819 295.278 410.667 295.11 410.499C294.95 410.331 294.806 410.155 294.678 409.971L295.434 409.395C295.546 409.563 295.662 409.715 295.782 409.851C295.902 409.987 296.038 410.107 296.19 410.211C296.35 410.307 296.53 410.383 296.73 410.439C296.93 410.495 297.162 410.523 297.426 410.523C298.018 410.523 298.47 410.387 298.782 410.115C299.102 409.843 299.262 409.455 299.262 408.951V408.855C299.262 408.359 299.106 407.975 298.794 407.703C298.49 407.431 298.03 407.295 297.414 407.295H296.418V406.431H297.342ZM302.257 410.439H304.417V403.191H302.257V402.375H305.377V410.439H307.537V411.255H302.257V410.439ZM314.096 405.063H315.056L311.984 412.611C311.912 412.787 311.832 412.939 311.744 413.067C311.656 413.203 311.552 413.311 311.432 413.391C311.312 413.479 311.168 413.543 311 413.583C310.832 413.631 310.632 413.655 310.4 413.655H309.488V412.839H310.928L311.624 411.135L309.128 405.063H310.112L311.156 407.655L312.08 410.007H312.128L313.052 407.655L314.096 405.063ZM320.788 410.247H320.74C320.34 411.015 319.704 411.399 318.832 411.399C318.072 411.399 317.476 411.115 317.044 410.547C316.62 409.979 316.408 409.183 316.408 408.159C316.408 407.135 316.62 406.339 317.044 405.771C317.476 405.203 318.072 404.919 318.832 404.919C319.704 404.919 320.34 405.303 320.74 406.071H320.788V402.375H321.747V411.255H320.788V410.247ZM319.204 410.547C319.42 410.547 319.624 410.519 319.816 410.463C320.008 410.407 320.176 410.327 320.32 410.223C320.464 410.111 320.576 409.979 320.656 409.827C320.744 409.667 320.788 409.483 320.788 409.275V407.043C320.788 406.835 320.744 406.655 320.656 406.503C320.576 406.343 320.464 406.211 320.32 406.107C320.176 405.995 320.008 405.911 319.816 405.855C319.624 405.799 319.42 405.771 319.204 405.771C318.644 405.771 318.208 405.943 317.896 406.287C317.592 406.623 317.44 407.071 317.44 407.631V408.687C317.44 409.247 317.592 409.699 317.896 410.043C318.208 410.379 318.644 410.547 319.204 410.547ZM324.059 411.255V405.063H325.019V406.071H325.067C325.131 405.919 325.211 405.775 325.307 405.639C325.403 405.495 325.519 405.371 325.655 405.267C325.799 405.163 325.967 405.079 326.159 405.015C326.351 404.951 326.575 404.919 326.831 404.919C327.479 404.919 327.999 405.127 328.391 405.543C328.783 405.951 328.979 406.531 328.979 407.283V411.255H328.019V407.451C328.019 406.883 327.895 406.463 327.647 406.191C327.399 405.911 327.035 405.771 326.555 405.771C326.363 405.771 326.175 405.795 325.991 405.843C325.807 405.891 325.643 405.963 325.499 406.059C325.355 406.155 325.239 406.279 325.151 406.431C325.063 406.583 325.019 406.759 325.019 406.959V411.255H324.059ZM330.438 405.063H331.29L331.998 410.415H332.106L333.162 405.063H334.218L335.274 410.415H335.382L336.09 405.063H336.918L335.97 411.255H334.722L333.738 406.071H333.642L332.634 411.255H331.386L330.438 405.063ZM343.705 405.951C343.705 406.575 343.609 407.163 343.417 407.715C343.233 408.259 342.993 408.759 342.697 409.215C342.401 409.663 342.073 410.063 341.713 410.415C341.361 410.759 341.013 411.039 340.669 411.255H339.373C339.829 410.927 340.233 410.607 340.585 410.295C340.945 409.983 341.261 409.659 341.533 409.323C341.805 408.979 342.033 408.615 342.217 408.231C342.401 407.839 342.553 407.399 342.673 406.911L342.613 406.887C342.405 407.231 342.137 407.519 341.809 407.751C341.489 407.975 341.069 408.087 340.549 408.087C340.181 408.087 339.841 408.027 339.529 407.907C339.225 407.787 338.961 407.615 338.737 407.391C338.521 407.167 338.349 406.899 338.221 406.587C338.101 406.267 338.041 405.907 338.041 405.507C338.041 405.099 338.105 404.727 338.233 404.391C338.369 404.047 338.561 403.755 338.809 403.515C339.057 403.267 339.353 403.075 339.697 402.939C340.049 402.803 340.437 402.735 340.861 402.735C341.301 402.735 341.697 402.811 342.049 402.963C342.401 403.107 342.697 403.319 342.937 403.599C343.185 403.871 343.373 404.207 343.501 404.607C343.637 405.007 343.705 405.455 343.705 405.951ZM340.873 407.259C341.449 407.259 341.893 407.103 342.205 406.791C342.525 406.479 342.685 406.039 342.685 405.471V405.375C342.685 404.807 342.525 404.367 342.205 404.055C341.893 403.743 341.449 403.587 340.873 403.587C340.297 403.587 339.849 403.743 339.529 404.055C339.217 404.367 339.061 404.807 339.061 405.375V405.471C339.061 406.039 339.217 406.479 339.529 406.791C339.849 407.103 340.297 407.259 340.873 407.259ZM345.393 410.439H347.205V405.879H345.393V405.063H348.165V406.623H348.225C348.353 406.135 348.593 405.755 348.945 405.483C349.305 405.203 349.761 405.063 350.313 405.063H351.177V406.023H350.013C349.461 406.023 349.013 406.183 348.669 406.503C348.333 406.823 348.165 407.243 348.165 407.763V410.439H350.565V411.255H345.393V410.439ZM355.372 411.399C354.924 411.399 354.52 411.323 354.16 411.171C353.808 411.019 353.504 410.803 353.248 410.523C353 410.235 352.808 409.895 352.672 409.503C352.536 409.103 352.468 408.659 352.468 408.171C352.468 407.675 352.536 407.227 352.672 406.827C352.816 406.427 353.012 406.087 353.26 405.807C353.508 405.519 353.804 405.299 354.148 405.147C354.5 404.995 354.888 404.919 355.312 404.919C355.728 404.919 356.104 404.995 356.44 405.147C356.784 405.299 357.076 405.511 357.316 405.783C357.556 406.047 357.74 406.363 357.868 406.731C357.996 407.099 358.06 407.503 358.06 407.943V408.399H353.476V408.687C353.476 408.959 353.52 409.211 353.608 409.443C353.696 409.675 353.82 409.875 353.98 410.043C354.148 410.211 354.348 410.343 354.58 410.439C354.82 410.527 355.084 410.571 355.372 410.571C355.788 410.571 356.148 410.475 356.452 410.283C356.756 410.091 356.988 409.827 357.148 409.491L357.856 409.971C357.672 410.387 357.364 410.731 356.932 411.003C356.508 411.267 355.988 411.399 355.372 411.399ZM355.312 405.711C355.048 405.711 354.804 405.759 354.58 405.855C354.356 405.951 354.16 406.083 353.992 406.251C353.832 406.419 353.704 406.619 353.608 406.851C353.52 407.075 353.476 407.323 353.476 407.595V407.679H357.028V407.547C357.028 407.275 356.984 407.027 356.896 406.803C356.816 406.579 356.7 406.387 356.548 406.227C356.404 406.059 356.224 405.931 356.008 405.843C355.8 405.755 355.568 405.711 355.312 405.711ZM364.871 403.755H361.127L360.887 406.959H360.971C361.179 406.679 361.411 406.459 361.667 406.299C361.923 406.131 362.275 406.047 362.723 406.047C363.091 406.047 363.427 406.107 363.731 406.227C364.043 406.339 364.311 406.507 364.535 406.731C364.759 406.955 364.935 407.227 365.063 407.547C365.191 407.859 365.255 408.219 365.255 408.627C365.255 409.035 365.191 409.411 365.063 409.755C364.935 410.091 364.747 410.383 364.499 410.631C364.251 410.871 363.951 411.059 363.599 411.195C363.247 411.331 362.847 411.399 362.399 411.399C362.047 411.399 361.731 411.359 361.451 411.279C361.179 411.199 360.935 411.091 360.719 410.955C360.511 410.819 360.327 410.667 360.167 410.499C360.007 410.331 359.863 410.155 359.735 409.971L360.491 409.395C360.603 409.563 360.715 409.715 360.827 409.851C360.947 409.987 361.083 410.107 361.235 410.211C361.387 410.307 361.559 410.383 361.751 410.439C361.943 410.495 362.167 410.523 362.423 410.523C362.999 410.523 363.439 410.367 363.743 410.055C364.055 409.743 364.211 409.311 364.211 408.759V408.663C364.211 408.111 364.055 407.679 363.743 407.367C363.431 407.055 362.983 406.899 362.399 406.899C361.999 406.899 361.687 406.967 361.463 407.103C361.247 407.239 361.047 407.407 360.863 407.607L360.011 407.487L360.311 402.879H364.871V403.755ZM372.487 405.951C372.487 406.575 372.391 407.163 372.199 407.715C372.015 408.259 371.775 408.759 371.479 409.215C371.183 409.663 370.855 410.063 370.495 410.415C370.143 410.759 369.795 411.039 369.451 411.255H368.155C368.611 410.927 369.015 410.607 369.367 410.295C369.727 409.983 370.043 409.659 370.315 409.323C370.587 408.979 370.815 408.615 370.999 408.231C371.183 407.839 371.335 407.399 371.455 406.911L371.395 406.887C371.187 407.231 370.919 407.519 370.591 407.751C370.271 407.975 369.851 408.087 369.331 408.087C368.963 408.087 368.623 408.027 368.311 407.907C368.007 407.787 367.743 407.615 367.519 407.391C367.303 407.167 367.131 406.899 367.003 406.587C366.883 406.267 366.823 405.907 366.823 405.507C366.823 405.099 366.887 404.727 367.015 404.391C367.151 404.047 367.343 403.755 367.591 403.515C367.839 403.267 368.135 403.075 368.479 402.939C368.831 402.803 369.219 402.735 369.643 402.735C370.083 402.735 370.479 402.811 370.831 402.963C371.183 403.107 371.479 403.319 371.719 403.599C371.967 403.871 372.155 404.207 372.283 404.607C372.419 405.007 372.487 405.455 372.487 405.951ZM369.655 407.259C370.231 407.259 370.675 407.103 370.987 406.791C371.307 406.479 371.467 406.039 371.467 405.471V405.375C371.467 404.807 371.307 404.367 370.987 404.055C370.675 403.743 370.231 403.587 369.655 403.587C369.079 403.587 368.631 403.743 368.311 404.055C367.999 404.367 367.843 404.807 367.843 405.375V405.471C367.843 406.039 367.999 406.479 368.311 406.791C368.631 407.103 369.079 407.259 369.655 407.259ZM379.982 411.963C379.982 412.587 379.722 413.047 379.202 413.343C378.682 413.647 377.902 413.799 376.862 413.799C375.862 413.799 375.142 413.667 374.702 413.403C374.27 413.139 374.054 412.759 374.054 412.263C374.054 411.927 374.142 411.667 374.318 411.483C374.494 411.299 374.742 411.163 375.062 411.075V410.931C374.886 410.843 374.75 410.731 374.654 410.595C374.558 410.459 374.51 410.287 374.51 410.079C374.51 409.759 374.614 409.519 374.822 409.359C375.038 409.199 375.306 409.079 375.626 408.999V408.951C375.242 408.783 374.942 408.535 374.726 408.207C374.518 407.879 374.414 407.495 374.414 407.055C374.414 406.743 374.47 406.455 374.582 406.191C374.694 405.927 374.854 405.703 375.062 405.519C375.278 405.327 375.534 405.179 375.83 405.075C376.126 404.971 376.454 404.919 376.814 404.919C377.278 404.919 377.686 405.003 378.038 405.171V405.063C378.038 404.823 378.094 404.623 378.206 404.463C378.318 404.303 378.51 404.223 378.782 404.223H379.922V405.063H378.53V405.483C378.754 405.675 378.926 405.903 379.046 406.167C379.166 406.431 379.226 406.727 379.226 407.055C379.226 407.367 379.166 407.655 379.046 407.919C378.934 408.183 378.774 408.411 378.566 408.603C378.358 408.787 378.102 408.931 377.798 409.035C377.502 409.139 377.174 409.191 376.814 409.191C376.71 409.191 376.61 409.187 376.514 409.179C376.418 409.171 376.322 409.159 376.226 409.143C376.13 409.159 376.03 409.187 375.926 409.227C375.822 409.259 375.726 409.307 375.638 409.371C375.55 409.427 375.478 409.495 375.422 409.575C375.366 409.655 375.338 409.747 375.338 409.851C375.338 410.035 375.43 410.159 375.614 410.223C375.798 410.279 376.038 410.307 376.334 410.307H377.702C378.502 410.307 379.082 410.459 379.442 410.763C379.802 411.059 379.982 411.459 379.982 411.963ZM379.082 412.011C379.082 411.763 378.982 411.563 378.782 411.411C378.582 411.267 378.234 411.195 377.738 411.195H375.59C375.174 411.363 374.966 411.643 374.966 412.035C374.966 412.307 375.074 412.539 375.29 412.731C375.506 412.931 375.866 413.031 376.37 413.031H377.306C377.866 413.031 378.302 412.943 378.614 412.767C378.926 412.599 379.082 412.347 379.082 412.011ZM376.814 408.447C377.294 408.447 377.646 408.335 377.87 408.111C378.102 407.887 378.218 407.591 378.218 407.223V406.875C378.218 406.507 378.102 406.215 377.87 405.999C377.646 405.775 377.294 405.663 376.814 405.663C376.334 405.663 375.982 405.775 375.758 405.999C375.534 406.215 375.422 406.507 375.422 406.875V407.223C375.422 407.591 375.534 407.887 375.758 408.111C375.982 408.335 376.334 408.447 376.814 408.447ZM384.345 411.255C383.873 411.255 383.525 411.123 383.301 410.859C383.085 410.595 382.977 410.255 382.977 409.839V405.879H380.913V405.063H382.449C382.657 405.063 382.801 405.023 382.881 404.943C382.969 404.855 383.013 404.707 383.013 404.499V402.879H383.937V405.063H386.757V405.879H383.937V410.439H386.757V411.255H384.345ZM388.661 411.255V410.331L392.657 405.879H388.793V405.063H393.701V405.987L389.705 410.439H393.821V411.255H388.661ZM395.856 411.255V410.331L399.852 405.879H395.988V405.063H400.896V405.987L396.9 410.439H401.016V411.255H395.856ZM402.391 405.063H403.243L403.951 410.415H404.059L405.115 405.063H406.171L407.227 410.415H407.335L408.043 405.063H408.871L407.923 411.255H406.675L405.691 406.071H405.595L404.587 411.255H403.339L402.391 405.063ZM410.223 410.439H412.311V405.879H410.103V405.063H412.311V403.791C412.311 403.375 412.419 403.035 412.635 402.771C412.859 402.507 413.207 402.375 413.679 402.375H415.755V403.191H413.271V405.063H415.755V405.879H413.271V410.439H415.479V411.255H410.223V410.439ZM422.434 403.755H418.69L418.45 406.959H418.534C418.742 406.679 418.974 406.459 419.23 406.299C419.486 406.131 419.838 406.047 420.286 406.047C420.654 406.047 420.99 406.107 421.294 406.227C421.606 406.339 421.874 406.507 422.098 406.731C422.322 406.955 422.498 407.227 422.626 407.547C422.754 407.859 422.818 408.219 422.818 408.627C422.818 409.035 422.754 409.411 422.626 409.755C422.498 410.091 422.31 410.383 422.062 410.631C421.814 410.871 421.514 411.059 421.162 411.195C420.81 411.331 420.41 411.399 419.962 411.399C419.61 411.399 419.294 411.359 419.014 411.279C418.742 411.199 418.498 411.091 418.282 410.955C418.074 410.819 417.89 410.667 417.73 410.499C417.57 410.331 417.426 410.155 417.298 409.971L418.054 409.395C418.166 409.563 418.278 409.715 418.39 409.851C418.51 409.987 418.646 410.107 418.798 410.211C418.95 410.307 419.122 410.383 419.314 410.439C419.506 410.495 419.73 410.523 419.986 410.523C420.562 410.523 421.002 410.367 421.306 410.055C421.618 409.743 421.774 409.311 421.774 408.759V408.663C421.774 408.111 421.618 407.679 421.306 407.367C420.994 407.055 420.546 406.899 419.962 406.899C419.562 406.899 419.25 406.967 419.026 407.103C418.81 407.239 418.61 407.407 418.426 407.607L417.574 407.487L417.874 402.879H422.434V403.755ZM424.265 411.255V405.063H425.153V405.783H425.201C425.297 405.543 425.433 405.339 425.609 405.171C425.785 405.003 426.045 404.919 426.389 404.919C426.749 404.919 427.017 405.011 427.193 405.195C427.369 405.371 427.477 405.603 427.517 405.891H427.553C427.665 405.611 427.825 405.379 428.033 405.195C428.241 405.011 428.529 404.919 428.897 404.919C429.401 404.919 429.737 405.095 429.905 405.447C430.081 405.799 430.169 406.303 430.169 406.959V411.255H429.281V407.115C429.281 406.587 429.225 406.223 429.113 406.023C429.009 405.815 428.813 405.711 428.525 405.711C428.269 405.711 428.061 405.795 427.901 405.963C427.741 406.123 427.661 406.371 427.661 406.707V411.255H426.773V407.115C426.773 406.587 426.717 406.223 426.605 406.023C426.501 405.815 426.309 405.711 426.029 405.711C425.773 405.711 425.561 405.795 425.393 405.963C425.233 406.123 425.153 406.371 425.153 406.707V411.255H424.265ZM435.913 410.247H435.865C435.465 411.015 434.829 411.399 433.957 411.399C433.197 411.399 432.601 411.115 432.169 410.547C431.745 409.979 431.533 409.183 431.533 408.159C431.533 407.135 431.745 406.339 432.169 405.771C432.601 405.203 433.197 404.919 433.957 404.919C434.829 404.919 435.465 405.303 435.865 406.071H435.913V402.375H436.872V411.255H435.913V410.247ZM434.329 410.547C434.545 410.547 434.749 410.519 434.941 410.463C435.133 410.407 435.301 410.327 435.445 410.223C435.589 410.111 435.701 409.979 435.781 409.827C435.869 409.667 435.913 409.483 435.913 409.275V407.043C435.913 406.835 435.869 406.655 435.781 406.503C435.701 406.343 435.589 406.211 435.445 406.107C435.301 405.995 435.133 405.911 434.941 405.855C434.749 405.799 434.545 405.771 434.329 405.771C433.769 405.771 433.333 405.943 433.021 406.287C432.717 406.623 432.565 407.071 432.565 407.631V408.687C432.565 409.247 432.717 409.699 433.021 410.043C433.333 410.379 433.769 410.547 434.329 410.547ZM443.108 410.247H443.06C442.66 411.015 442.024 411.399 441.152 411.399C440.392 411.399 439.796 411.115 439.364 410.547C438.94 409.979 438.728 409.183 438.728 408.159C438.728 407.135 438.94 406.339 439.364 405.771C439.796 405.203 440.392 404.919 441.152 404.919C442.024 404.919 442.66 405.303 443.06 406.071H443.108V405.063H444.068V413.655H443.108V410.247ZM441.524 410.547C441.74 410.547 441.944 410.519 442.136 410.463C442.328 410.407 442.496 410.327 442.64 410.223C442.784 410.111 442.896 409.979 442.976 409.827C443.064 409.667 443.108 409.483 443.108 409.275V407.043C443.108 406.835 443.064 406.655 442.976 406.503C442.896 406.343 442.784 406.211 442.64 406.107C442.496 405.995 442.328 405.911 442.136 405.855C441.944 405.799 441.74 405.771 441.524 405.771C440.964 405.771 440.528 405.943 440.216 406.287C439.912 406.623 439.76 407.071 439.76 407.631V408.687C439.76 409.247 439.912 409.699 440.216 410.043C440.528 410.379 440.964 410.547 441.524 410.547Z" fill="black"/>
</g>
<rect x="114" y="335.255" width="373" height="117" rx="5" stroke="black" stroke-width="2"/>
<path d="M334.813 248.518C336.941 248.499 339.044 248.088 341.008 247.248C342.979 246.405 344.775 245.159 346.261 243.602C347.748 242.045 348.917 240.186 349.682 238.164C350.377 236.326 350.724 234.373 350.732 232.406C350.734 232.06 350.732 231.713 350.732 231.367C350.732 230.46 350.732 229.554 350.732 228.648C350.732 227.234 350.732 225.821 350.732 224.407C350.732 222.539 350.732 220.671 350.732 218.803C350.732 216.532 350.732 214.261 350.732 211.991C350.732 209.378 350.732 206.765 350.732 204.153C350.732 201.244 350.732 198.335 350.732 195.426C350.732 192.264 350.732 189.102 350.732 185.941C350.732 182.586 350.732 179.232 350.732 175.877C350.732 172.382 350.732 168.887 350.732 165.392C350.732 161.819 350.732 158.245 350.732 154.672C350.732 151.063 350.732 147.453 350.732 143.844C350.732 140.242 350.732 136.64 350.732 133.038C350.732 129.504 350.732 125.971 350.732 122.438C350.732 119.025 350.732 115.613 350.732 112.202C350.732 108.972 350.732 105.742 350.732 102.512C350.732 99.5066 350.732 96.5017 350.732 93.4965C350.732 90.7612 350.732 88.0262 350.732 85.2909C350.732 82.8863 350.732 80.4819 350.732 78.0773C350.732 76.0559 350.732 74.0345 350.732 72.0132C350.732 70.4311 350.732 68.8488 350.732 67.2667C350.732 66.1698 350.732 65.0727 350.732 63.9758C350.732 63.4153 350.732 62.855 350.732 62.2945C350.732 61.0396 350.615 59.7928 350.342 58.5672C349.876 56.473 348.992 54.478 347.756 52.7326C346.521 50.9873 344.939 49.4975 343.129 48.3764C341.318 47.2544 339.289 46.5066 337.19 46.185C336.118 46.0209 335.045 46.0039 333.965 46.0039C332.489 46.0039 331.014 46.0039 329.538 46.0039C327.077 46.0039 324.615 46.0039 322.153 46.0039C319.017 46.0039 315.881 46.0039 312.745 46.0039C309.267 46.0039 305.787 46.0039 302.308 46.0039C298.759 46.0039 295.21 46.0039 291.661 46.0039C288.372 46.0039 285.083 46.0039 281.794 46.0039C279.077 46.0039 276.36 46.0039 273.643 46.0039C271.809 46.0039 269.976 46.0039 268.143 46.0039C267.417 46.0039 266.69 45.9937 265.964 46.0063C263.847 46.0428 261.745 46.509 259.808 47.3713C257.855 48.2403 256.083 49.5118 254.623 51.084C253.156 52.6622 252.011 54.5416 251.277 56.5762C250.635 58.3539 250.314 60.2313 250.307 62.1227C250.306 62.491 250.307 62.8594 250.307 63.2277C250.307 64.154 250.307 65.0806 250.307 66.0068C250.307 67.4385 250.307 68.8698 250.307 70.3014C250.307 72.1858 250.307 74.0699 250.307 75.9543C250.307 78.2388 250.307 80.5234 250.307 82.808C250.307 85.4256 250.307 88.0431 250.307 90.6604C250.307 93.587 250.307 96.5137 250.307 99.44C250.307 102.61 250.307 105.78 250.307 108.95C250.307 112.311 250.307 115.672 250.307 119.032C250.307 122.532 250.307 126.031 250.307 129.531C250.307 133.097 250.307 136.663 250.307 140.229C250.307 143.848 250.307 147.467 250.307 151.086C250.307 154.687 250.307 158.287 250.307 161.888C250.307 165.418 250.307 168.947 250.307 172.477C250.307 175.884 250.307 179.29 250.307 182.696C250.307 185.919 250.307 189.141 250.307 192.363C250.307 195.359 250.307 198.355 250.307 201.35C250.307 204.074 250.307 206.798 250.307 209.521C250.307 211.912 250.307 214.303 250.307 216.694C250.307 218.7 250.307 220.706 250.307 222.712C250.307 224.277 250.307 225.842 250.307 227.406C250.307 228.484 250.307 229.562 250.307 230.639C250.307 231.178 250.307 231.717 250.307 232.257C250.307 233.579 250.443 234.894 250.75 236.182C251.25 238.279 252.167 240.271 253.439 242.004C254.699 243.722 256.295 245.178 258.114 246.269C259.937 247.363 261.978 248.081 264.078 248.37C265.109 248.512 266.14 248.518 267.177 248.518C268.695 248.518 270.214 248.518 271.731 248.518C274.224 248.518 276.717 248.518 279.21 248.518C282.365 248.518 285.52 248.518 288.675 248.518C292.161 248.518 295.648 248.518 299.135 248.518C302.68 248.518 306.225 248.518 309.77 248.518C313.043 248.518 316.316 248.518 319.589 248.518C322.279 248.518 324.969 248.518 327.658 248.518C329.452 248.518 331.246 248.518 333.04 248.518C333.127 248.518 334.813 248.518 334.813 248.518Z" stroke="black" stroke-width="2" stroke-miterlimit="10" stroke-linecap="round" stroke-linejoin="round"/>
<path d="M318.368 60.1007C316.48 60.1007 314.592 60.1007 312.704 60.1007C309.57 60.1007 306.436 60.1007 303.302 60.1007C302.127 60.1007 300.952 60.1007 299.776 60.1007C297.049 60.1007 294.321 60.1007 291.593 60.1007C288.899 60.1007 286.203 60.1007 283.508 60.1007C281.962 60.1007 280.388 60.0425 279.018 59.2227C278.198 58.7323 277.557 58.0027 277.143 57.139C276.917 56.6677 276.756 56.1661 276.645 55.6555C276.562 55.2767 276.539 54.8861 276.45 54.5096C276.34 54.0391 276.086 53.5994 275.608 53.4428C275.424 53.3824 275.234 53.3757 275.042 53.3754C274.608 53.3748 274.174 53.3754 273.74 53.3754C271.204 53.3754 268.669 53.3646 266.133 53.3754C264 53.3845 261.917 54.1885 260.339 55.6418C258.755 57.101 257.754 59.1463 257.569 61.3035C257.53 61.7561 257.537 62.2099 257.537 62.6637C257.537 63.3611 257.537 64.0585 257.537 64.7559C257.537 65.9079 257.537 67.06 257.537 68.2121C257.537 69.7764 257.537 71.3409 257.537 72.9052C257.537 74.8457 257.537 76.7863 257.537 78.7271C257.537 80.9972 257.537 83.2674 257.537 85.5376C257.537 88.0871 257.537 90.6362 257.537 93.1857C257.537 95.9782 257.537 98.7704 257.537 101.563C257.537 104.556 257.537 107.549 257.537 110.542C257.537 113.694 257.537 116.845 257.537 119.997C257.537 123.265 257.537 126.533 257.537 129.8C257.537 133.152 257.537 136.503 257.537 139.855C257.537 143.238 257.537 146.621 257.537 150.004C257.537 153.366 257.537 156.729 257.537 160.091C257.537 163.401 257.537 166.71 257.537 170.019C257.537 173.233 257.537 176.447 257.537 179.661C257.537 182.738 257.537 185.814 257.537 188.89C257.537 191.787 257.537 194.683 257.537 197.579C257.537 200.253 257.537 202.927 257.537 205.601C257.537 208.017 257.537 210.433 257.537 212.849C257.537 214.957 257.537 217.064 257.537 219.172C257.537 220.923 257.537 222.675 257.537 224.426C257.537 225.786 257.537 227.146 257.537 228.506C257.537 229.432 257.537 230.358 257.537 231.284C257.537 231.734 257.536 232.184 257.537 232.634C257.539 234.027 257.831 235.396 258.454 236.644C259.421 238.586 261.112 240.116 263.129 240.875C264.271 241.304 265.446 241.422 266.652 241.422C267.841 241.422 269.03 241.422 270.22 241.422C272.323 241.422 274.425 241.422 276.528 241.422C279.293 241.422 282.057 241.422 284.822 241.422C287.996 241.422 291.17 241.422 294.344 241.422C297.676 241.422 301.007 241.422 304.339 241.422C307.576 241.422 310.812 241.422 314.049 241.422C316.947 241.422 319.844 241.422 322.742 241.422C325.036 241.422 327.33 241.422 329.625 241.422C331.059 241.422 332.493 241.422 333.927 241.422C334.787 241.422 335.644 241.443 336.497 241.293C338.61 240.921 340.542 239.738 341.846 238.019C342.994 236.505 343.608 234.637 343.615 232.733C343.617 232.408 343.615 232.083 343.615 231.758C343.615 230.943 343.615 230.129 343.615 229.314C343.615 228.053 343.615 226.791 343.615 225.53C343.615 223.869 343.615 222.209 343.615 220.549C343.615 218.529 343.615 216.509 343.615 214.489C343.615 212.152 343.615 209.814 343.615 207.477C343.615 204.865 343.615 202.253 343.615 199.641C343.615 196.796 343.615 193.951 343.615 191.106C343.615 188.07 343.615 185.035 343.615 181.999C343.615 178.806 343.615 175.613 343.615 172.42C343.615 169.12 343.615 165.821 343.615 162.521C343.615 159.168 343.615 155.815 343.615 152.461C343.615 149.086 343.615 145.712 343.615 142.337C343.615 138.984 343.615 135.63 343.615 132.276C343.615 128.986 343.615 125.696 343.615 122.406C343.615 119.222 343.615 116.037 343.615 112.853C343.615 109.808 343.615 106.763 343.615 103.718C343.615 100.865 343.615 98.0109 343.615 95.1576C343.615 92.5454 343.615 89.933 343.615 87.3209C343.615 84.9836 343.615 82.6464 343.615 80.3092C343.615 78.2894 343.615 76.2695 343.615 74.2494C343.615 72.589 343.615 70.9287 343.615 69.2684C343.615 68.01 343.615 66.7514 343.615 65.4931C343.615 64.6789 343.615 63.8644 343.615 63.0502C343.615 62.722 343.617 62.3938 343.615 62.0658C343.608 60.1616 342.994 58.294 341.846 56.7795C340.542 55.06 338.61 53.8772 336.497 53.5054C335.705 53.3661 334.912 53.3766 334.113 53.3766C332.606 53.3766 331.099 53.3766 329.593 53.3766C328.43 53.3766 327.266 53.374 326.103 53.3766C325.68 53.3775 325.283 53.4703 325.008 53.821C324.601 54.3401 324.636 55.0794 324.499 55.6945C324.282 56.6662 323.878 57.6069 323.207 58.3476C322.607 59.0093 321.828 59.4672 320.985 59.7374C320.561 59.8733 320.124 59.9643 319.683 60.0214C319.568 60.0352 318.368 60.1324 318.368 60.1007Z" stroke="black" stroke-width="2" stroke-miterlimit="10" stroke-linecap="round" stroke-linejoin="round"/>
<path d="M309.868 222.14C309.868 227.61 305.472 232.03 300.068 232.03C294.663 232.03 290.267 227.61 290.267 222.14C290.267 216.67 294.663 212.25 300.068 212.25C305.472 212.25 309.868 216.67 309.868 222.14Z" stroke="black" stroke-width="2"/>
<path d="M268.267 104.138H264.267V108.138H268.267V104.138Z" fill="black"/>
<path d="M284.267 104.138H280.267V108.138H284.267V104.138Z" fill="black"/>
<path d="M300.267 136.138H296.267V140.138H300.267V136.138Z" fill="black"/>
<path d="M316.267 136.138H312.267V140.138H316.267V136.138Z" fill="black"/>
<path d="M240.267 144.138H236.267V148.138H240.267V144.138Z" fill="black"/>
<path d="M236.267 148.138L232.267 148.138V152.138H236.267V148.138Z" fill="black"/>
<path d="M316.267 184.138H312.267V188.138H316.267V184.138Z" fill="black"/>
<path d="M296.267 112.138H300.267H304.267H308.267V116.138V120.138V124.138H304.267H300.267H296.267V120.138V116.138V112.138Z" fill="black"/>
<path fill-rule="evenodd" clip-rule="evenodd" d="M288.267 104.138H292.267H296.267H300.267H304.267H308.267H312.267H316.267V108.138V112.138V116.138V120.138V124.138V128.138V132.138H312.267H308.267H304.267H300.267H296.267H292.267H288.267V128.138V124.138V120.138V116.138V112.138V108.138V104.138ZM292.267 108.138H296.267H300.267H304.267H308.267H312.267V112.138V116.138V120.138V124.138V128.138H308.267H304.267H300.267H296.267H292.267V124.138V120.138V116.138V112.138V108.138Z" fill="black"/>
<path d="M240.267 112.138H244.267H248.267H250.307V124.138H248.267H244.267H240.267V120.138V116.138V112.138Z" fill="black"/>
<path d="M232.267 104.138H236.267H240.267H244.267H248.267H250.307V108.138H248.267H244.267H240.267H236.267V112.138V116.138V120.138V124.138V128.138H240.267H244.267H248.267H250.307V132.138H248.267H244.267H240.267H236.267H232.267V128.138V124.138V120.138V116.138V112.138V108.138V104.138Z" fill="black"/>
<path d="M257.537 132.138H260.267V104.138H257.537V132.138Z" fill="black"/>
<path d="M244.267 140.138V136.138H250.307V140.138H248.267V144.138H250.307V148.138H244.267V144.138V140.138Z" fill="black"/>
<path d="M244.267 156.138V152.138H250.307V156.138H244.267Z" fill="black"/>
<path d="M236.267 136.138H232.267V144.138H236.267V136.138Z" fill="black"/>
<path d="M268.267 128.138H264.267V132.138V136.138H260.267H257.537V139.855V140.138V144.138V148.138V150.004V152.138V156.138H260.267H264.267V152.138H268.267L268.267 156.138H272.267V152.138H276.267L276.267 148.138H272.267V144.138H276.267V140.138H272.267H268.267L268.267 144.138V148.138L264.267 148.138L260.267 148.138V144.138H264.267V140.138H268.267V136.138H272.267H276.267H280.267H284.267V132.138V128.138H280.267V132.138H276.267L276.267 128.138H272.267V132.138H268.267L268.267 128.138Z" fill="black"/>
<path d="M268.267 120.138H264.267V124.138H268.267L268.267 128.138H272.267V124.138H276.267L276.267 128.138H280.267V124.138V120.138H276.267H272.267H268.267Z" fill="black"/>
<path fill-rule="evenodd" clip-rule="evenodd" d="M268.267 168.138H272.267V172.138H268.267V168.138Z" fill="black"/>
<path fill-rule="evenodd" clip-rule="evenodd" d="M316.267 152.138H312.267V156.138H308.267V160.138H304.267V164.138H300.267V160.138H296.267V164.138H292.267V168.138H296.267V172.138H292.267V176.138H296.267V180.138H292.267V184.138H296.267V188.138H300.267H304.267V184.138V180.138H300.267V176.138H304.267V180.138H308.267H312.267H316.267V176.138H312.267H308.267V172.138H312.267V168.138H308.267V164.138H312.267H316.267V160.138V156.138V152.138ZM300.267 168.138H304.267V172.138H300.267V168.138Z" fill="black"/>
<path d="M272.267 180.138H268.267V184.138H264.267V188.138H268.267H272.267V184.138V180.138Z" fill="black"/>
<path d="M257.537 160.138H260.267V188.138H257.537V160.138Z" fill="black"/>
<path fill-rule="evenodd" clip-rule="evenodd" d="M288.267 136.138H284.267V140.138H288.267V144.138H292.267V148.138V152.138H288.267H284.267H280.267V156.138H276.267V160.138H272.267V164.138H268.267V160.138L268.267 156.138H264.267L264.267 160.138V164.138V168.138V172.138V176.138H268.267H272.267V180.138H276.267H280.267V184.138V188.138H284.267V184.138V180.138H288.267V176.138H284.267H280.267H276.267V172.138H280.267V168.138H276.267V164.138H280.267H284.267H288.267V160.138H292.267V156.138H296.267V152.138H300.267V156.138H304.267V152.138H308.267V148.138H312.267H316.267V144.138H312.267H308.267V140.138H304.267V144.138V148.138L300.267 148.138L296.267 148.138V144.138V140.138H292.267V136.138H288.267ZM268.267 168.138H272.267V172.138H268.267V168.138Z" fill="black"/>
<path d="M272.267 108.138H268.267L268.267 112.138V116.138H272.267H276.267H280.267V112.138V108.138H276.267V112.138H272.267V108.138Z" fill="black"/>
<path d="M250.307 168.138V180.138H240.267V168.138H250.307Z" fill="black"/>
<path d="M250.307 188.138V184.138H236.267V164.138H250.307V160.138H232.267V188.138H250.307Z" fill="black"/>
<path d="M280.267 144.138H276.267L276.267 148.138H280.267H284.267V144.138H280.267Z" fill="black"/>
</svg>
