<svg width="600" height="664" viewBox="0 0 600 664" fill="none" xmlns="http://www.w3.org/2000/svg">
<rect width="600" height="664" fill="white"/>
<path d="M333.506 621.518C335.635 621.499 337.737 621.088 339.701 620.248C341.672 619.405 343.468 618.159 344.955 616.602C346.441 615.045 347.611 613.186 348.375 611.164C349.07 609.326 349.417 607.373 349.425 605.406C349.427 605.06 349.425 604.713 349.425 604.367C349.425 603.46 349.425 602.554 349.425 601.648C349.425 600.234 349.425 598.821 349.425 597.407C349.425 595.539 349.425 593.671 349.425 591.803C349.425 589.532 349.425 587.261 349.425 584.991C349.425 582.378 349.425 579.765 349.425 577.153C349.425 574.244 349.425 571.335 349.425 568.426C349.425 565.264 349.425 562.102 349.425 558.941C349.425 555.586 349.425 552.232 349.425 548.877C349.425 545.382 349.425 541.887 349.425 538.392C349.425 534.819 349.425 531.245 349.425 527.672C349.425 524.063 349.425 520.453 349.425 516.844C349.425 513.242 349.425 509.64 349.425 506.038C349.425 502.504 349.425 498.971 349.425 495.438C349.425 492.025 349.425 488.613 349.425 485.202C349.425 481.972 349.425 478.742 349.425 475.512C349.425 472.507 349.425 469.502 349.425 466.496C349.425 463.761 349.425 461.026 349.425 458.291C349.425 455.886 349.425 453.482 349.425 451.077C349.425 449.056 349.425 447.035 349.425 445.013C349.425 443.431 349.425 441.849 349.425 440.267C349.425 439.17 349.425 438.073 349.425 436.976C349.425 436.415 349.425 435.855 349.425 435.294C349.425 434.04 349.309 432.793 349.036 431.567C348.569 429.473 347.685 427.478 346.45 425.733C345.214 423.987 343.632 422.498 341.822 421.376C340.012 420.254 337.983 419.507 335.883 419.185C334.811 419.021 333.738 419.004 332.658 419.004C331.182 419.004 329.707 419.004 328.232 419.004C325.77 419.004 323.308 419.004 320.847 419.004C317.711 419.004 314.575 419.004 311.439 419.004C307.96 419.004 304.481 419.004 301.002 419.004C297.453 419.004 293.904 419.004 290.355 419.004C287.066 419.004 283.776 419.004 280.488 419.004C277.77 419.004 275.053 419.004 272.336 419.004C270.503 419.004 268.67 419.004 266.836 419.004C266.11 419.004 265.383 418.994 264.657 419.006C262.54 419.043 260.439 419.509 258.501 420.371C256.549 421.24 254.777 422.512 253.316 424.084C251.85 425.662 250.705 427.542 249.97 429.576C249.328 431.354 249.008 433.231 249.001 435.123C248.999 435.491 249.001 435.859 249.001 436.228C249.001 437.154 249.001 438.081 249.001 439.007C249.001 440.438 249.001 441.87 249.001 443.301C249.001 445.186 249.001 447.07 249.001 448.954C249.001 451.239 249.001 453.523 249.001 455.808C249.001 458.426 249.001 461.043 249.001 463.66C249.001 466.587 249.001 469.514 249.001 472.44C249.001 475.61 249.001 478.78 249.001 481.95C249.001 485.311 249.001 488.672 249.001 492.032C249.001 495.532 249.001 499.031 249.001 502.531C249.001 506.097 249.001 509.663 249.001 513.229C249.001 516.848 249.001 520.467 249.001 524.086C249.001 527.687 249.001 531.287 249.001 534.888C249.001 538.418 249.001 541.947 249.001 545.477C249.001 548.884 249.001 552.29 249.001 555.696C249.001 558.919 249.001 562.141 249.001 565.363C249.001 568.359 249.001 571.355 249.001 574.35C249.001 577.074 249.001 579.798 249.001 582.521C249.001 584.912 249.001 587.303 249.001 589.694C249.001 591.7 249.001 593.706 249.001 595.712C249.001 597.277 249.001 598.842 249.001 600.406C249.001 601.484 249.001 602.562 249.001 603.639C249.001 604.178 249.001 604.717 249.001 605.257C249.001 606.579 249.136 607.894 249.443 609.182C249.943 611.279 250.86 613.271 252.132 615.004C253.392 616.722 254.989 618.178 256.808 619.269C258.63 620.363 260.672 621.081 262.771 621.37C263.803 621.512 264.833 621.518 265.87 621.518C267.389 621.518 268.907 621.518 270.425 621.518C272.918 621.518 275.41 621.518 277.903 621.518C281.058 621.518 284.213 621.518 287.368 621.518C290.855 621.518 294.342 621.518 297.828 621.518C301.373 621.518 304.918 621.518 308.463 621.518C311.736 621.518 315.009 621.518 318.283 621.518C320.972 621.518 323.662 621.518 326.351 621.518C328.145 621.518 329.939 621.518 331.733 621.518C331.821 621.518 333.506 621.518 333.506 621.518Z" stroke="black" stroke-width="2" stroke-miterlimit="10" stroke-linecap="round" stroke-linejoin="round"/>
<path d="M317.061 433.101C315.173 433.101 313.286 433.101 311.398 433.101C308.264 433.101 305.13 433.101 301.995 433.101C300.82 433.101 299.645 433.101 298.47 433.101C295.742 433.101 293.015 433.101 290.287 433.101C287.592 433.101 284.897 433.101 282.202 433.101C280.656 433.101 279.081 433.042 277.711 432.223C276.891 431.732 276.25 431.003 275.836 430.139C275.61 429.668 275.45 429.166 275.338 428.656C275.256 428.277 275.232 427.886 275.144 427.51C275.033 427.039 274.779 426.599 274.301 426.443C274.117 426.382 273.927 426.376 273.736 426.375C273.302 426.375 272.867 426.375 272.433 426.375C269.898 426.375 267.362 426.365 264.827 426.375C262.693 426.384 260.611 427.188 259.032 428.642C257.448 430.101 256.447 432.146 256.262 434.303C256.223 434.756 256.23 435.21 256.23 435.664C256.23 436.361 256.23 437.058 256.23 437.756C256.23 438.908 256.23 440.06 256.23 441.212C256.23 442.776 256.23 444.341 256.23 445.905C256.23 447.846 256.23 449.786 256.23 451.727C256.23 453.997 256.23 456.267 256.23 458.538C256.23 461.087 256.23 463.636 256.23 466.186C256.23 468.978 256.23 471.77 256.23 474.563C256.23 477.556 256.23 480.549 256.23 483.542C256.23 486.694 256.23 489.845 256.23 492.997C256.23 496.265 256.23 499.533 256.23 502.8C256.23 506.152 256.23 509.503 256.23 512.855C256.23 516.238 256.23 519.621 256.23 523.004C256.23 526.366 256.23 529.729 256.23 533.091C256.23 536.401 256.23 539.71 256.23 543.019C256.23 546.233 256.23 549.447 256.23 552.661C256.23 555.738 256.23 558.814 256.23 561.89C256.23 564.787 256.23 567.683 256.23 570.579C256.23 573.253 256.23 575.927 256.23 578.601C256.23 581.017 256.23 583.433 256.23 585.849C256.23 587.957 256.23 590.064 256.23 592.172C256.23 593.923 256.23 595.675 256.23 597.426C256.23 598.786 256.23 600.146 256.23 601.506C256.23 602.432 256.23 603.358 256.23 604.284C256.23 604.734 256.23 605.184 256.23 605.634C256.232 607.027 256.525 608.396 257.147 609.644C258.115 611.586 259.805 613.116 261.823 613.875C262.965 614.304 264.14 614.422 265.346 614.422C266.535 614.422 267.724 614.422 268.913 614.422C271.016 614.422 273.119 614.422 275.222 614.422C277.986 614.422 280.751 614.422 283.515 614.422C286.689 614.422 289.863 614.422 293.037 614.422C296.369 614.422 299.701 614.422 303.032 614.422C306.269 614.422 309.506 614.422 312.743 614.422C315.64 614.422 318.538 614.422 321.435 614.422C323.729 614.422 326.024 614.422 328.318 614.422C329.752 614.422 331.186 614.422 332.62 614.422C333.481 614.422 334.338 614.443 335.191 614.293C337.303 613.921 339.236 612.738 340.539 611.019C341.687 609.505 342.302 607.637 342.309 605.733C342.31 605.408 342.309 605.083 342.309 604.758C342.309 603.943 342.309 603.129 342.309 602.314C342.309 601.053 342.309 599.791 342.309 598.53C342.309 596.869 342.309 595.209 342.309 593.549C342.309 591.529 342.309 589.509 342.309 587.489C342.309 585.152 342.309 582.814 342.309 580.477C342.309 577.865 342.309 575.253 342.309 572.641C342.309 569.796 342.309 566.951 342.309 564.106C342.309 561.07 342.309 558.035 342.309 554.999C342.309 551.806 342.309 548.613 342.309 545.42C342.309 542.12 342.309 538.821 342.309 535.521C342.309 532.168 342.309 528.815 342.309 525.461C342.309 522.086 342.309 518.712 342.309 515.337C342.309 511.984 342.309 508.63 342.309 505.276C342.309 501.986 342.309 498.696 342.309 495.406C342.309 492.222 342.309 489.037 342.309 485.853C342.309 482.808 342.309 479.763 342.309 476.718C342.309 473.865 342.309 471.011 342.309 468.158C342.309 465.545 342.309 462.933 342.309 460.321C342.309 457.984 342.309 455.646 342.309 453.309C342.309 451.289 342.309 449.27 342.309 447.249C342.309 445.589 342.309 443.929 342.309 442.268C342.309 441.01 342.309 439.751 342.309 438.493C342.309 437.679 342.309 436.864 342.309 436.05C342.309 435.722 342.31 435.394 342.309 435.066C342.301 433.162 341.687 431.294 340.539 429.78C339.236 428.06 337.303 426.877 335.191 426.505C334.399 426.366 333.606 426.377 332.806 426.377C331.3 426.377 329.793 426.377 328.286 426.377C327.123 426.377 325.96 426.374 324.796 426.377C324.373 426.377 323.976 426.47 323.701 426.821C323.295 427.34 323.329 428.079 323.192 428.694C322.975 429.666 322.571 430.607 321.9 431.348C321.3 432.009 320.521 432.467 319.678 432.737C319.254 432.873 318.817 432.964 318.376 433.021C318.262 433.035 317.061 433.132 317.061 433.101Z" stroke="black" stroke-width="2" stroke-miterlimit="10" stroke-linecap="round" stroke-linejoin="round"/>
<rect x="262" y="523" width="74.5217" height="35.4312" rx="9" fill="white" stroke="black" stroke-width="2"/>
<path d="M279.681 550H282.843V544.102H286.184C290.215 544.102 292.38 541.682 292.38 538.324C292.38 534.991 290.241 532.545 286.226 532.545H279.681V550ZM282.843 541.503V535.188H285.741C288.11 535.188 289.158 536.466 289.158 538.324C289.158 540.182 288.11 541.503 285.758 541.503H282.843ZM298.523 550.264C300.576 550.264 301.804 549.301 302.366 548.202H302.469V550H305.434V541.239C305.434 537.778 302.613 536.739 300.116 536.739C297.363 536.739 295.25 537.966 294.568 540.352L297.449 540.761C297.755 539.866 298.625 539.099 300.133 539.099C301.565 539.099 302.349 539.832 302.349 541.119V541.17C302.349 542.057 301.42 542.099 299.111 542.347C296.571 542.619 294.142 543.378 294.142 546.327C294.142 548.901 296.025 550.264 298.523 550.264ZM299.324 547.997C298.037 547.997 297.116 547.409 297.116 546.276C297.116 545.091 298.148 544.597 299.528 544.401C300.338 544.29 301.957 544.085 302.358 543.761V545.304C302.358 546.761 301.182 547.997 299.324 547.997ZM309.986 554.909C312.389 554.909 313.778 553.673 314.52 551.585L319.778 536.926L316.48 536.909L313.454 546.795H313.318L310.301 536.909H307.028L311.775 550.273L311.511 550.98C310.94 552.472 310.037 552.574 308.69 552.182L307.974 554.585C308.392 554.756 309.142 554.909 309.986 554.909Z" fill="black"/>
<path d="M319.886 595.427L316.286 588.333C315.9 587.447 315 585.293 315 583.14C315 576.933 320.143 575.667 320.143 575.667V547.673C320.143 545.267 322.2 544 324 544C325.8 544 327.857 545.267 327.857 547.8V568.067V565.533C327.857 563.76 329.271 561.733 331.714 561.733C334.157 561.733 335.571 563.76 335.571 565.533C335.571 565.533 335.571 567.433 335.571 566.8C335.571 565.027 336.471 563 339.429 563C342 563 343.286 565.787 343.286 569.333C343.286 567.56 343.929 565.533 347.143 565.533C350.357 565.533 351 568.827 351 570.6V590.867C351 596.44 346.371 601 340.714 601H329.014C325.157 601 321.557 598.847 319.886 595.427ZM330.429 589.6V578.2V589.6ZM336.857 589.6V578.2V589.6ZM343.286 589.6V578.2Z" fill="white"/>
<path d="M343.286 589.6V578.2M319.886 595.427L316.286 588.333C315.9 587.447 315 585.293 315 583.14C315 576.933 320.143 575.667 320.143 575.667V547.673C320.143 545.267 322.2 544 324 544C325.8 544 327.857 545.267 327.857 547.8V568.067V565.533C327.857 563.76 329.271 561.733 331.714 561.733C334.157 561.733 335.571 563.76 335.571 565.533C335.571 565.533 335.571 567.433 335.571 566.8C335.571 565.027 336.471 563 339.429 563C342 563 343.286 565.787 343.286 569.333C343.286 567.56 343.929 565.533 347.143 565.533C350.357 565.533 351 568.827 351 570.6V590.867C351 596.44 346.371 601 340.714 601H329.014C325.157 601 321.557 598.847 319.886 595.427ZM330.429 589.6V578.2V589.6ZM336.857 589.6V578.2V589.6Z" stroke="black" stroke-width="2" stroke-miterlimit="10" stroke-linecap="round" stroke-linejoin="round"/>
<mask id="path-6-inside-1" fill="white">
<path fill-rule="evenodd" clip-rule="evenodd" d="M312.164 213.155H257.911C252.388 213.155 247.911 217.632 247.911 223.155V345.634C247.911 351.157 252.388 355.634 257.911 355.634H341.596C347.119 355.634 351.596 351.157 351.596 345.634V252.89L312.164 213.155Z"/>
</mask>
<path fill-rule="evenodd" clip-rule="evenodd" d="M312.164 213.155H257.911C252.388 213.155 247.911 217.632 247.911 223.155V345.634C247.911 351.157 252.388 355.634 257.911 355.634H341.596C347.119 355.634 351.596 351.157 351.596 345.634V252.89L312.164 213.155Z" fill="white"/>
<path d="M312.164 213.155L313.584 211.746L312.997 211.155H312.164V213.155ZM351.596 252.89H353.596V252.067L353.015 251.482L351.596 252.89ZM257.911 215.155H312.164V211.155H257.911V215.155ZM249.911 223.155C249.911 218.736 253.493 215.155 257.911 215.155V211.155C251.284 211.155 245.911 216.527 245.911 223.155H249.911ZM249.911 345.634V223.155H245.911V345.634H249.911ZM257.911 353.634C253.493 353.634 249.911 350.052 249.911 345.634H245.911C245.911 352.261 251.284 357.634 257.911 357.634V353.634ZM341.596 353.634H257.911V357.634H341.596V353.634ZM349.596 345.634C349.596 350.052 346.014 353.634 341.596 353.634V357.634C348.223 357.634 353.596 352.261 353.596 345.634H349.596ZM349.596 252.89V345.634H353.596V252.89H349.596ZM353.015 251.482L313.584 211.746L310.745 214.564L350.176 254.299L353.015 251.482Z" fill="black" mask="url(#path-6-inside-1)"/>
<path d="M309.179 217.904V255.898H346.883" stroke="black" stroke-width="2" stroke-linecap="round" stroke-linejoin="round"/>
<path d="M275.279 230.166C276.567 230.166 277.426 230.857 277.426 231.893V236.644C277.426 237.076 277.426 239.667 275.279 239.667C276.138 239.667 278.284 240.186 278.284 242.259V247.442C278.284 248.449 277.769 250.465 275.709 250.465H270.987H265.407V239.667V230.166H270.987H275.279Z" fill="white"/>
<path d="M270.987 226.71V253.92M261.543 230.166H265.407M275.279 239.667C277.426 239.667 277.426 237.076 277.426 236.644C277.426 235.492 277.426 232.93 277.426 231.893C277.426 230.857 276.567 230.166 275.279 230.166H265.407M275.279 239.667C273.219 239.667 267.839 239.667 265.407 239.667M275.279 239.667C276.138 239.667 278.284 240.186 278.284 242.259C278.284 244.332 278.284 246.578 278.284 247.442C278.284 248.449 277.769 250.465 275.709 250.465C274.182 250.465 269.146 250.465 265.407 250.465M261.973 250.465C262.899 250.465 264.1 250.465 265.407 250.465M265.407 230.166V250.465" stroke="black" stroke-width="2" stroke-linecap="round" stroke-linejoin="round"/>
<line x1="337.767" y1="266.892" x2="262.004" y2="266.892" stroke="black" stroke-width="2" stroke-linecap="round" stroke-linejoin="round"/>
<line x1="316.166" y1="276.611" x2="262.003" y2="276.611" stroke="black" stroke-width="2" stroke-linecap="round" stroke-linejoin="round"/>
<rect width="77.2235" height="35.1318" transform="translate(261.543 284.638)" fill="white"/>
<rect x="262.543" y="285.638" width="75.2235" height="33.5096" rx="3" stroke="black" stroke-width="2" stroke-linecap="round" stroke-linejoin="round"/>
<line x1="337.227" y1="296.593" x2="263.084" y2="296.593" stroke="black" stroke-width="2" stroke-linecap="round" stroke-linejoin="round"/>
<line x1="337.227" y1="309.059" x2="263.084" y2="309.059" stroke="black" stroke-width="2" stroke-linecap="round" stroke-linejoin="round"/>
<line x1="303.045" y1="285.638" x2="303.045" y2="318.77" stroke="black" stroke-width="2" stroke-linecap="round" stroke-linejoin="round"/>
<line x1="320.326" y1="285.638" x2="320.326" y2="318.77" stroke="black" stroke-width="2" stroke-linecap="round" stroke-linejoin="round"/>
<path d="M337.926 331.867C335.793 332.031 332.758 334.123 331.241 334.82C330.051 335.353 328.985 335.804 328.124 335.804C327.18 335.804 327.057 335.148 327.221 333.671C327.262 333.343 327.713 330.431 325.499 330.554C324.432 330.636 322.833 331.58 318.526 335.722L320.249 331.498C321.479 328.38 318.034 325.263 314.917 327.273L312.661 328.791C312.374 328.955 312.251 329.365 312.456 329.693L313.153 330.8C313.358 331.087 313.768 331.21 314.055 331.005L316.434 329.406C317.213 328.914 318.116 329.693 317.788 330.513L313.768 340.603C313.481 341.259 313.891 342.367 314.999 342.367C315.327 342.367 315.655 342.244 315.901 341.998C317.624 340.275 322.258 335.804 324.555 333.958C324.473 335.148 324.473 336.378 325.417 337.404C326.032 338.101 326.934 338.429 328.083 338.429C329.559 338.429 330.872 337.855 332.307 337.199C333.661 336.625 336.368 334.656 337.967 334.533C338.336 334.492 338.583 334.205 338.583 333.876V332.564C338.624 332.195 338.295 331.867 337.926 331.867Z" fill="black"/>
<line x1="329.254" y1="393.711" x2="329.254" y2="366.711" stroke="black" stroke-width="2" stroke-linecap="round" stroke-linejoin="round"/>
<line x1="298.254" y1="384.711" x2="298.254" y2="366.711" stroke="black" stroke-width="2" stroke-linecap="round" stroke-linejoin="round"/>
<line x1="268.254" y1="376.711" x2="268.254" y2="366.711" stroke="black" stroke-width="2" stroke-linecap="round" stroke-linejoin="round"/>
<rect x="239.24" y="128.881" width="119.259" height="43.4721" rx="2" fill="black"/>
<circle cx="253.24" cy="150.881" r="4" fill="#78E185" stroke="black" stroke-width="2"/>
<rect x="239.24" y="128.881" width="119.259" height="43.4721" rx="2" stroke="black" stroke-width="2"/>
<path d="M320.294 182.295L307.986 194.6L295.679 182.293M307.986 151.506V194.038" stroke="white" stroke-width="6" stroke-miterlimit="10" stroke-linecap="round" stroke-linejoin="round"/>
<path d="M322.758 163.812L335.066 151.507L347.373 163.813M335.066 194.601L335.066 152.069" stroke="white" stroke-width="6" stroke-miterlimit="10" stroke-linecap="round" stroke-linejoin="round"/>
<path d="M320.294 182.295L307.986 194.6L295.679 182.293M307.986 151.506V194.038" stroke="black" stroke-width="2" stroke-miterlimit="10" stroke-linecap="round" stroke-linejoin="round"/>
<path d="M322.758 163.812L335.066 151.507L347.373 163.813M335.066 194.601L335.066 152.069" stroke="black" stroke-width="2" stroke-miterlimit="10" stroke-linecap="round" stroke-linejoin="round"/>
<rect x="168" y="44.0005" width="119.259" height="43.4721" rx="2" fill="black"/>
<circle cx="182" cy="66.0005" r="4" fill="#78E185" stroke="black" stroke-width="2"/>
<rect x="168" y="44.0005" width="119.259" height="43.4721" rx="2" stroke="black" stroke-width="2"/>
<path d="M249.054 97.4138L236.746 109.72L224.439 97.4126M236.746 66.625V109.157" stroke="white" stroke-width="6" stroke-miterlimit="10" stroke-linecap="round" stroke-linejoin="round"/>
<path d="M251.518 78.931L263.826 66.6252L276.133 78.9321M263.826 109.72L263.826 67.188" stroke="white" stroke-width="6" stroke-miterlimit="10" stroke-linecap="round" stroke-linejoin="round"/>
<path d="M249.054 97.4138L236.746 109.72L224.439 97.4126M236.746 66.625V109.157" stroke="black" stroke-width="2" stroke-miterlimit="10" stroke-linecap="round" stroke-linejoin="round"/>
<path d="M251.518 78.931L263.826 66.6252L276.133 78.9321M263.826 109.72L263.826 67.188" stroke="black" stroke-width="2" stroke-miterlimit="10" stroke-linecap="round" stroke-linejoin="round"/>
<rect x="311.995" y="44" width="119.259" height="43.4721" rx="2" fill="black"/>
<circle cx="325.995" cy="66" r="4" fill="#78E185" stroke="black" stroke-width="2"/>
<rect x="311.995" y="44" width="119.259" height="43.4721" rx="2" stroke="black" stroke-width="2"/>
<path d="M393.049 97.4138L380.741 109.72L368.434 97.4126M380.741 66.625V109.157" stroke="white" stroke-width="6" stroke-miterlimit="10" stroke-linecap="round" stroke-linejoin="round"/>
<path d="M395.513 78.931L407.822 66.6252L420.128 78.9321M407.822 109.72L407.822 67.188" stroke="white" stroke-width="6" stroke-miterlimit="10" stroke-linecap="round" stroke-linejoin="round"/>
<path d="M393.049 97.4138L380.741 109.72L368.434 97.4126M380.741 66.625V109.157" stroke="black" stroke-width="2" stroke-miterlimit="10" stroke-linecap="round" stroke-linejoin="round"/>
<path d="M395.513 78.931L407.822 66.6252L420.128 78.9321M407.822 109.72L407.822 67.188" stroke="black" stroke-width="2" stroke-miterlimit="10" stroke-linecap="round" stroke-linejoin="round"/>
</svg>
