<svg width="1336" height="400" viewBox="0 0 1336 400" fill="none" xmlns="http://www.w3.org/2000/svg">
<rect width="1336" height="400" fill="white"/>
<path d="M339.506 301.339C341.635 301.32 343.737 300.909 345.701 300.069C347.672 299.226 349.468 297.98 350.955 296.423C352.441 294.866 353.611 293.007 354.375 290.986C355.07 289.148 355.417 287.194 355.425 285.228C355.427 284.881 355.425 284.535 355.425 284.188C355.425 283.282 355.425 282.375 355.425 281.469C355.425 280.056 355.425 278.642 355.425 277.229C355.425 275.36 355.425 273.492 355.425 271.624C355.425 269.353 355.425 267.083 355.425 264.813C355.425 262.2 355.425 259.587 355.425 256.974C355.425 254.065 355.425 251.156 355.425 248.247C355.425 245.085 355.425 241.924 355.425 238.762C355.425 235.408 355.425 232.053 355.425 228.698C355.425 225.203 355.425 221.708 355.425 218.213C355.425 214.64 355.425 211.066 355.425 207.493C355.425 203.884 355.425 200.275 355.425 196.666C355.425 193.063 355.425 189.461 355.425 185.859C355.425 182.326 355.425 178.792 355.425 175.259C355.425 171.847 355.425 168.435 355.425 165.023C355.425 161.793 355.425 158.563 355.425 155.333C355.425 152.328 355.425 149.323 355.425 146.318C355.425 143.582 355.425 140.847 355.425 138.112C355.425 135.708 355.425 133.303 355.425 130.899C355.425 128.877 355.425 126.856 355.425 124.834C355.425 123.252 355.425 121.67 355.425 120.088C355.425 118.991 355.425 117.894 355.425 116.797C355.425 116.237 355.425 115.676 355.425 115.116C355.425 113.861 355.309 112.614 355.036 111.388C354.569 109.294 353.685 107.299 352.45 105.554C351.214 103.809 349.632 102.319 347.822 101.198C346.012 100.076 343.983 99.3279 341.883 99.0063C340.811 98.8422 339.738 98.8252 338.658 98.8252C337.182 98.8252 335.707 98.8252 334.232 98.8252C331.77 98.8252 329.308 98.8252 326.847 98.8252C323.711 98.8252 320.575 98.8252 317.439 98.8252C313.96 98.8252 310.481 98.8252 307.002 98.8252C303.453 98.8252 299.904 98.8252 296.355 98.8252C293.066 98.8252 289.776 98.8252 286.488 98.8252C283.77 98.8252 281.053 98.8252 278.336 98.8252C276.503 98.8252 274.67 98.8252 272.836 98.8252C272.11 98.8252 271.383 98.815 270.657 98.8275C268.54 98.8641 266.439 99.3303 264.501 100.193C262.549 101.062 260.777 102.333 259.316 103.905C257.85 105.484 256.705 107.363 255.97 109.397C255.328 111.175 255.008 113.053 255.001 114.944C254.999 115.312 255.001 115.681 255.001 116.049C255.001 116.975 255.001 117.902 255.001 118.828C255.001 120.26 255.001 121.691 255.001 123.123C255.001 125.007 255.001 126.891 255.001 128.776C255.001 131.06 255.001 133.345 255.001 135.629C255.001 138.247 255.001 140.864 255.001 143.482C255.001 146.408 255.001 149.335 255.001 152.261C255.001 155.431 255.001 158.601 255.001 161.771C255.001 165.132 255.001 168.493 255.001 171.854C255.001 175.353 255.001 178.852 255.001 182.352C255.001 185.918 255.001 189.484 255.001 193.05C255.001 196.669 255.001 200.288 255.001 203.907C255.001 207.508 255.001 211.109 255.001 214.709C255.001 218.239 255.001 221.769 255.001 225.298C255.001 228.705 255.001 232.111 255.001 235.518C255.001 238.74 255.001 241.962 255.001 245.185C255.001 248.18 255.001 251.176 255.001 254.171C255.001 256.895 255.001 259.619 255.001 262.342C255.001 264.733 255.001 267.125 255.001 269.515C255.001 271.521 255.001 273.527 255.001 275.533C255.001 277.098 255.001 278.663 255.001 280.228C255.001 281.305 255.001 282.383 255.001 283.46C255.001 284 255.001 284.539 255.001 285.078C255.001 286.401 255.136 287.716 255.443 289.003C255.943 291.1 256.86 293.092 258.132 294.825C259.392 296.543 260.989 297.999 262.808 299.091C264.63 300.185 266.672 300.902 268.771 301.191C269.803 301.333 270.833 301.339 271.87 301.339C273.389 301.339 274.907 301.339 276.425 301.339C278.918 301.339 281.41 301.339 283.903 301.339C287.058 301.339 290.213 301.339 293.368 301.339C296.855 301.339 300.342 301.339 303.828 301.339C307.373 301.339 310.918 301.339 314.463 301.339C317.736 301.339 321.009 301.339 324.283 301.339C326.972 301.339 329.662 301.339 332.351 301.339C334.145 301.339 335.939 301.339 337.733 301.339C337.821 301.339 339.506 301.339 339.506 301.339Z" stroke="black" stroke-width="2" stroke-miterlimit="10" stroke-linecap="round" stroke-linejoin="round"/>
<path d="M323.061 112.922C321.173 112.922 319.286 112.922 317.398 112.922C314.264 112.922 311.13 112.922 307.995 112.922C306.82 112.922 305.645 112.922 304.47 112.922C301.742 112.922 299.015 112.922 296.287 112.922C293.592 112.922 290.897 112.922 288.202 112.922C286.656 112.922 285.081 112.864 283.711 112.044C282.891 111.554 282.25 110.824 281.836 109.96C281.61 109.489 281.45 108.987 281.338 108.477C281.256 108.098 281.232 107.707 281.144 107.331C281.033 106.86 280.779 106.421 280.301 106.264C280.117 106.204 279.927 106.197 279.736 106.197C279.302 106.196 278.867 106.197 278.433 106.197C275.898 106.197 273.362 106.186 270.827 106.197C268.693 106.206 266.611 107.01 265.032 108.463C263.448 109.922 262.447 111.968 262.262 114.125C262.223 114.577 262.23 115.031 262.23 115.485C262.23 116.182 262.23 116.88 262.23 117.577C262.23 118.729 262.23 119.881 262.23 121.033C262.23 122.598 262.23 124.162 262.23 125.727C262.23 127.667 262.23 129.608 262.23 131.548C262.23 133.819 262.23 136.089 262.23 138.359C262.23 140.908 262.23 143.458 262.23 146.007C262.23 148.799 262.23 151.592 262.23 154.384C262.23 157.377 262.23 160.371 262.23 163.364C262.23 166.515 262.23 169.667 262.23 172.818C262.23 176.086 262.23 179.354 262.23 182.622C262.23 185.973 262.23 189.324 262.23 192.676C262.23 196.059 262.23 199.442 262.23 202.825C262.23 206.188 262.23 209.55 262.23 212.913C262.23 216.222 262.23 219.531 262.23 222.841C262.23 226.055 262.23 229.269 262.23 232.483C262.23 235.559 262.23 238.635 262.23 241.711C262.23 244.608 262.23 247.504 262.23 250.4C262.23 253.074 262.23 255.749 262.23 258.422C262.23 260.838 262.23 263.255 262.23 265.671C262.23 267.778 262.23 269.885 262.23 271.993C262.23 273.744 262.23 275.496 262.23 277.247C262.23 278.607 262.23 279.967 262.23 281.327C262.23 282.253 262.23 283.179 262.23 284.105C262.23 284.555 262.23 285.005 262.23 285.455C262.232 286.849 262.525 288.217 263.147 289.466C264.115 291.407 265.805 292.938 267.823 293.696C268.965 294.125 270.14 294.243 271.346 294.243C272.535 294.243 273.724 294.243 274.913 294.243C277.016 294.243 279.119 294.243 281.222 294.243C283.986 294.243 286.751 294.243 289.515 294.243C292.689 294.243 295.863 294.243 299.037 294.243C302.369 294.243 305.701 294.243 309.032 294.243C312.269 294.243 315.506 294.243 318.743 294.243C321.64 294.243 324.538 294.243 327.435 294.243C329.729 294.243 332.024 294.243 334.318 294.243C335.752 294.243 337.186 294.243 338.62 294.243C339.481 294.243 340.338 294.264 341.191 294.114C343.303 293.742 345.236 292.559 346.539 290.84C347.687 289.326 348.302 287.458 348.309 285.554C348.31 285.229 348.309 284.904 348.309 284.58C348.309 283.765 348.309 282.95 348.309 282.135C348.309 280.874 348.309 279.613 348.309 278.351C348.309 276.691 348.309 275.03 348.309 273.37C348.309 271.35 348.309 269.33 348.309 267.31C348.309 264.973 348.309 262.636 348.309 260.299C348.309 257.686 348.309 255.074 348.309 252.462C348.309 249.617 348.309 246.772 348.309 243.927C348.309 240.891 348.309 237.856 348.309 234.82C348.309 231.627 348.309 228.434 348.309 225.241C348.309 221.942 348.309 218.642 348.309 215.343C348.309 211.989 348.309 208.636 348.309 205.282C348.309 201.908 348.309 198.533 348.309 195.158C348.309 191.805 348.309 188.451 348.309 185.098C348.309 181.807 348.309 178.518 348.309 175.227C348.309 172.043 348.309 168.859 348.309 165.674C348.309 162.629 348.309 159.584 348.309 156.539C348.309 153.686 348.309 150.832 348.309 147.979C348.309 145.367 348.309 142.754 348.309 140.142C348.309 137.805 348.309 135.468 348.309 133.131C348.309 131.111 348.309 129.091 348.309 127.071C348.309 125.41 348.309 123.75 348.309 122.09C348.309 120.831 348.309 119.573 348.309 118.314C348.309 117.5 348.309 116.686 348.309 115.871C348.309 115.543 348.31 115.215 348.309 114.887C348.301 112.983 347.687 111.115 346.539 109.601C345.236 107.881 343.303 106.699 341.191 106.327C340.399 106.187 339.606 106.198 338.806 106.198C337.3 106.198 335.793 106.198 334.286 106.198C333.123 106.198 331.96 106.195 330.796 106.198C330.373 106.199 329.976 106.292 329.701 106.642C329.295 107.161 329.329 107.901 329.192 108.516C328.975 109.487 328.571 110.428 327.9 111.169C327.3 111.831 326.521 112.288 325.678 112.559C325.254 112.695 324.817 112.786 324.376 112.843C324.262 112.856 323.061 112.954 323.061 112.922Z" stroke="black" stroke-width="2" stroke-miterlimit="10" stroke-linecap="round" stroke-linejoin="round"/>
<rect x="268" y="202.821" width="74.5217" height="35.4312" rx="9" fill="white" stroke="black" stroke-width="2"/>
<path d="M285.681 229.821H288.843V223.924H292.184C296.215 223.924 298.38 221.503 298.38 218.145C298.38 214.813 296.241 212.367 292.226 212.367H285.681V229.821ZM288.843 221.324V215.009H291.741C294.11 215.009 295.158 216.287 295.158 218.145C295.158 220.003 294.11 221.324 291.758 221.324H288.843ZM304.523 230.085C306.576 230.085 307.804 229.122 308.366 228.023H308.469V229.821H311.434V221.06C311.434 217.6 308.613 216.56 306.116 216.56C303.363 216.56 301.25 217.787 300.568 220.174L303.449 220.583C303.755 219.688 304.625 218.921 306.133 218.921C307.565 218.921 308.349 219.654 308.349 220.941V220.992C308.349 221.878 307.42 221.921 305.111 222.168C302.571 222.441 300.142 223.199 300.142 226.148C300.142 228.722 302.025 230.085 304.523 230.085ZM305.324 227.818C304.037 227.818 303.116 227.23 303.116 226.097C303.116 224.912 304.148 224.418 305.528 224.222C306.338 224.111 307.957 223.907 308.358 223.583V225.125C308.358 226.583 307.182 227.818 305.324 227.818ZM315.986 234.73C318.389 234.73 319.778 233.495 320.52 231.407L325.778 216.747L322.48 216.73L319.454 226.617H319.318L316.301 216.73H313.028L317.775 230.094L317.511 230.801C316.94 232.293 316.037 232.395 314.69 232.003L313.974 234.407C314.392 234.577 315.142 234.73 315.986 234.73Z" fill="black"/>
<path d="M325.886 275.248L322.286 268.155C321.9 267.268 321 265.115 321 262.961C321 256.755 326.143 255.488 326.143 255.488V227.495C326.143 225.088 328.2 223.821 330 223.821C331.8 223.821 333.857 225.088 333.857 227.621V247.888V245.355C333.857 243.581 335.271 241.555 337.714 241.555C340.157 241.555 341.571 243.581 341.571 245.355C341.571 245.355 341.571 247.255 341.571 246.621C341.571 244.848 342.471 242.821 345.429 242.821C348 242.821 349.286 245.608 349.286 249.155C349.286 247.381 349.929 245.355 353.143 245.355C356.357 245.355 357 248.648 357 250.421V270.688C357 276.261 352.371 280.821 346.714 280.821H335.014C331.157 280.821 327.557 278.668 325.886 275.248ZM336.429 269.421V258.021V269.421ZM342.857 269.421V258.021V269.421ZM349.286 269.421V258.021Z" fill="white"/>
<path d="M349.286 269.421V258.021M325.886 275.248L322.286 268.155C321.9 267.268 321 265.115 321 262.961C321 256.755 326.143 255.488 326.143 255.488V227.495C326.143 225.088 328.2 223.821 330 223.821C331.8 223.821 333.857 225.088 333.857 227.621V247.888V245.355C333.857 243.581 335.271 241.555 337.714 241.555C340.157 241.555 341.571 243.581 341.571 245.355C341.571 245.355 341.571 247.255 341.571 246.621C341.571 244.848 342.471 242.821 345.429 242.821C348 242.821 349.286 245.608 349.286 249.155C349.286 247.381 349.929 245.355 353.143 245.355C356.357 245.355 357 248.648 357 250.421V270.688C357 276.261 352.371 280.821 346.714 280.821H335.014C331.157 280.821 327.557 278.668 325.886 275.248ZM336.429 269.421V258.021V269.421ZM342.857 269.421V258.021V269.421Z" stroke="black" stroke-width="2" stroke-miterlimit="10" stroke-linecap="round" stroke-linejoin="round"/>
<path d="M441 198.58C440.172 198.58 439.5 199.252 439.5 200.08C439.5 200.909 440.172 201.58 441 201.58V198.58ZM487.315 201.141C487.901 200.555 487.901 199.605 487.315 199.019L477.77 189.473C477.184 188.888 476.234 188.888 475.648 189.473C475.062 190.059 475.062 191.009 475.648 191.595L484.134 200.08L475.648 208.565C475.062 209.151 475.062 210.101 475.648 210.687C476.234 211.272 477.184 211.272 477.77 210.687L487.315 201.141ZM441 201.58H486.255V198.58H441V201.58Z" fill="black"/>
<mask id="path-7-inside-1" fill="white">
<path fill-rule="evenodd" clip-rule="evenodd" d="M674.419 128.994H620.166C614.643 128.994 610.166 133.471 610.166 138.994V261.473C610.166 266.996 614.643 271.473 620.166 271.473H703.851C709.374 271.473 713.851 266.996 713.851 261.473V168.73L674.419 128.994Z"/>
</mask>
<path fill-rule="evenodd" clip-rule="evenodd" d="M674.419 128.994H620.166C614.643 128.994 610.166 133.471 610.166 138.994V261.473C610.166 266.996 614.643 271.473 620.166 271.473H703.851C709.374 271.473 713.851 266.996 713.851 261.473V168.73L674.419 128.994Z" fill="white"/>
<path d="M674.419 128.994L675.839 127.585L675.252 126.994H674.419V128.994ZM713.851 168.73H715.851V167.906L715.27 167.321L713.851 168.73ZM620.166 130.994H674.419V126.994H620.166V130.994ZM612.166 138.994C612.166 134.576 615.748 130.994 620.166 130.994V126.994C613.539 126.994 608.166 132.367 608.166 138.994H612.166ZM612.166 261.473V138.994H608.166V261.473H612.166ZM620.166 269.473C615.748 269.473 612.166 265.892 612.166 261.473H608.166C608.166 268.101 613.539 273.473 620.166 273.473V269.473ZM703.851 269.473H620.166V273.473H703.851V269.473ZM711.851 261.473C711.851 265.892 708.269 269.473 703.851 269.473V273.473C710.478 273.473 715.851 268.101 715.851 261.473H711.851ZM711.851 168.73V261.473H715.851V168.73H711.851ZM715.27 167.321L675.839 127.585L673 130.403L712.431 170.139L715.27 167.321Z" fill="black" mask="url(#path-7-inside-1)"/>
<path d="M671.434 133.743V171.738H709.138" stroke="black" stroke-width="2" stroke-linecap="round" stroke-linejoin="round"/>
<path d="M637.534 146.005C638.822 146.005 639.681 146.696 639.681 147.733V152.483C639.681 152.915 639.681 155.507 637.534 155.507C638.393 155.507 640.539 156.025 640.539 158.098V163.281C640.539 164.289 640.024 166.304 637.964 166.304H633.242H627.662V155.507V146.005H633.242H637.534Z" fill="white"/>
<path d="M633.242 142.55V169.759M623.798 146.005H627.662M637.534 155.507C639.681 155.507 639.681 152.915 639.681 152.483C639.681 151.332 639.681 148.769 639.681 147.733C639.681 146.696 638.822 146.005 637.534 146.005H627.662M637.534 155.507C635.474 155.507 630.094 155.507 627.662 155.507M637.534 155.507C638.393 155.507 640.539 156.025 640.539 158.098C640.539 160.171 640.539 162.417 640.539 163.281C640.539 164.289 640.024 166.304 637.964 166.304C636.437 166.304 631.401 166.304 627.662 166.304M624.228 166.304C625.154 166.304 626.355 166.304 627.662 166.304M627.662 146.005V166.304" stroke="black" stroke-width="2" stroke-linecap="round" stroke-linejoin="round"/>
<line x1="700.022" y1="182.731" x2="624.258" y2="182.731" stroke="black" stroke-width="2" stroke-linecap="round" stroke-linejoin="round"/>
<line x1="678.421" y1="192.451" x2="624.258" y2="192.451" stroke="black" stroke-width="2" stroke-linecap="round" stroke-linejoin="round"/>
<rect width="77.2235" height="35.1318" transform="translate(623.798 200.477)" fill="white"/>
<rect x="624.798" y="201.477" width="75.2235" height="33.5096" rx="3" stroke="black" stroke-width="2" stroke-linecap="round" stroke-linejoin="round"/>
<line x1="699.482" y1="212.432" x2="625.339" y2="212.432" stroke="black" stroke-width="2" stroke-linecap="round" stroke-linejoin="round"/>
<line x1="699.482" y1="224.898" x2="625.339" y2="224.898" stroke="black" stroke-width="2" stroke-linecap="round" stroke-linejoin="round"/>
<line x1="665.3" y1="201.477" x2="665.3" y2="234.609" stroke="black" stroke-width="2" stroke-linecap="round" stroke-linejoin="round"/>
<line x1="682.581" y1="201.477" x2="682.581" y2="234.609" stroke="black" stroke-width="2" stroke-linecap="round" stroke-linejoin="round"/>
<path d="M700.181 247.706C698.048 247.87 695.013 249.962 693.496 250.659C692.306 251.192 691.24 251.644 690.378 251.644C689.435 251.644 689.312 250.987 689.476 249.511C689.517 249.183 689.968 246.271 687.753 246.394C686.687 246.476 685.087 247.419 680.781 251.562L682.503 247.337C683.734 244.22 680.289 241.103 677.171 243.112L674.916 244.63C674.628 244.794 674.505 245.204 674.71 245.532L675.408 246.64C675.613 246.927 676.023 247.05 676.31 246.845L678.689 245.245C679.468 244.753 680.371 245.532 680.043 246.353L676.023 256.442C675.736 257.099 676.146 258.206 677.253 258.206C677.582 258.206 677.91 258.083 678.156 257.837C679.878 256.114 684.513 251.644 686.81 249.798C686.728 250.987 686.728 252.218 687.671 253.243C688.287 253.94 689.189 254.269 690.337 254.269C691.814 254.269 693.127 253.694 694.562 253.038C695.916 252.464 698.623 250.495 700.222 250.372C700.591 250.331 700.837 250.044 700.837 249.716V248.403C700.878 248.034 700.55 247.706 700.181 247.706Z" fill="black"/>
<line x1="571.731" y1="243.839" x2="598.731" y2="243.839" stroke="black" stroke-width="2" stroke-linecap="round" stroke-linejoin="round"/>
<line x1="580.731" y1="212.839" x2="598.731" y2="212.839" stroke="black" stroke-width="2" stroke-linecap="round" stroke-linejoin="round"/>
<line x1="588.731" y1="182.839" x2="598.731" y2="182.839" stroke="black" stroke-width="2" stroke-linecap="round" stroke-linejoin="round"/>
<rect x="799.255" y="177.36" width="119.259" height="43.4721" rx="2" fill="black"/>
<circle cx="813.255" cy="199.36" r="4" fill="#78E185" stroke="black" stroke-width="2"/>
<rect x="799.255" y="177.36" width="119.259" height="43.4721" rx="2" stroke="black" stroke-width="2"/>
<path d="M880.309 230.774L868.001 243.079L855.694 230.773M868.001 199.985V242.517" stroke="white" stroke-width="6" stroke-miterlimit="10" stroke-linecap="round" stroke-linejoin="round"/>
<path d="M882.773 212.291L895.081 199.985L907.388 212.292M895.081 243.08L895.081 200.548" stroke="white" stroke-width="6" stroke-miterlimit="10" stroke-linecap="round" stroke-linejoin="round"/>
<path d="M880.309 230.774L868.001 243.079L855.694 230.773M868.001 199.985V242.517" stroke="black" stroke-width="2" stroke-miterlimit="10" stroke-linecap="round" stroke-linejoin="round"/>
<path d="M882.773 212.291L895.081 199.985L907.388 212.292M895.081 243.08L895.081 200.548" stroke="black" stroke-width="2" stroke-miterlimit="10" stroke-linecap="round" stroke-linejoin="round"/>
<rect x="960.514" y="134" width="119.259" height="43.4721" rx="2" fill="black"/>
<circle cx="974.514" cy="156" r="4" fill="#78E185" stroke="black" stroke-width="2"/>
<rect x="960.514" y="134" width="119.259" height="43.4721" rx="2" stroke="black" stroke-width="2"/>
<path d="M1041.57 187.414L1029.26 199.72L1016.95 187.413M1029.26 156.625V199.157" stroke="white" stroke-width="6" stroke-miterlimit="10" stroke-linecap="round" stroke-linejoin="round"/>
<path d="M1044.03 168.931L1056.34 156.625L1068.65 168.932M1056.34 199.72L1056.34 157.188" stroke="white" stroke-width="6" stroke-miterlimit="10" stroke-linecap="round" stroke-linejoin="round"/>
<path d="M1041.57 187.414L1029.26 199.72L1016.95 187.413M1029.26 156.625V199.157" stroke="black" stroke-width="2" stroke-miterlimit="10" stroke-linecap="round" stroke-linejoin="round"/>
<path d="M1044.03 168.931L1056.34 156.625L1068.65 168.932M1056.34 199.72L1056.34 157.188" stroke="black" stroke-width="2" stroke-miterlimit="10" stroke-linecap="round" stroke-linejoin="round"/>
<rect x="960.514" y="220.72" width="119.259" height="43.4721" rx="2" fill="black"/>
<circle cx="974.514" cy="242.72" r="4" fill="#78E185" stroke="black" stroke-width="2"/>
<rect x="960.514" y="220.72" width="119.259" height="43.4721" rx="2" stroke="black" stroke-width="2"/>
<path d="M1041.57 274.133L1029.26 286.439L1016.95 274.132M1029.26 243.344V285.876" stroke="white" stroke-width="6" stroke-miterlimit="10" stroke-linecap="round" stroke-linejoin="round"/>
<path d="M1044.03 255.651L1056.34 243.345L1068.65 255.652M1056.34 286.439L1056.34 243.908" stroke="white" stroke-width="6" stroke-miterlimit="10" stroke-linecap="round" stroke-linejoin="round"/>
<path d="M1041.57 274.133L1029.26 286.439L1016.95 274.132M1029.26 243.344V285.876" stroke="black" stroke-width="2" stroke-miterlimit="10" stroke-linecap="round" stroke-linejoin="round"/>
<path d="M1044.03 255.651L1056.34 243.345L1068.65 255.652M1056.34 286.439L1056.34 243.908" stroke="black" stroke-width="2" stroke-miterlimit="10" stroke-linecap="round" stroke-linejoin="round"/>
</svg>
