<svg width="1000" height="300" viewBox="0 0 1000 300" fill="none" xmlns="http://www.w3.org/2000/svg">
<rect width="1000" height="300" fill="white"/>
<circle cx="530" cy="134" r="31" fill="white" stroke="black" stroke-width="2"/>
<circle cx="530" cy="134" r="27.5" fill="white" stroke="black"/>
<path d="M524.216 132.194C526.672 132.199 528.139 130.26 528.139 126.919C528.139 123.598 526.662 121.679 524.216 121.679C521.77 121.679 520.299 123.593 520.294 126.919C520.294 130.255 521.76 132.194 524.216 132.194ZM524.216 130.638C522.948 130.638 522.153 129.365 522.158 126.919C522.163 124.493 522.953 123.215 524.216 123.215C525.484 123.215 526.274 124.493 526.279 126.919C526.279 129.365 525.489 130.638 524.216 130.638ZM530.523 132.109C531.109 132.109 531.611 131.622 531.616 131.016C531.611 130.419 531.109 129.932 530.523 129.932C529.916 129.932 529.424 130.419 529.429 131.016C529.424 131.622 529.916 132.109 530.523 132.109ZM533.513 132H535.427L539.752 123.394V121.818H532.817V123.359H537.843V123.429L533.513 132ZM516.799 147H520.921C523.252 147 524.396 145.812 524.396 144.226C524.396 142.685 523.302 141.78 522.218 141.725V141.626C523.213 141.392 523.998 140.696 523.998 139.458C523.998 137.942 522.904 136.818 520.697 136.818H516.799V147ZM518.644 145.459V142.476H520.677C521.816 142.476 522.521 143.172 522.521 144.082C522.521 144.892 521.965 145.459 520.627 145.459H518.644ZM518.644 141.148V138.339H520.508C521.592 138.339 522.154 138.911 522.154 139.697C522.154 140.592 521.428 141.148 520.468 141.148H518.644ZM525.553 138.364H528.7V147H530.529V138.364H533.676V136.818H525.553V138.364ZM543.52 140.254C543.207 137.991 541.467 136.679 539.21 136.679C536.55 136.679 534.547 138.618 534.547 141.909C534.547 145.195 536.525 147.139 539.21 147.139C541.631 147.139 543.237 145.573 543.52 143.629L541.661 143.619C541.427 144.812 540.453 145.484 539.235 145.484C537.584 145.484 536.401 144.246 536.401 141.909C536.401 139.612 537.574 138.335 539.24 138.335C540.478 138.335 541.447 139.036 541.661 140.254H543.52Z" fill="black"/>
<path d="M587.97 178.559L587.96 178.55C584.642 175.51 579.571 175.711 575.808 178.601C575.806 178.602 575.804 178.604 575.802 178.605L547.078 201.388C543.406 204.71 538.46 206 533.925 206H497.035C493.67 206 491.033 203.365 491.033 200C491.033 196.988 493.63 194 497.035 194H521.42C526.066 194 530.199 191.116 530.745 186.751L530.746 186.739L530.748 186.727C531.602 181.034 527.327 176 522.045 176H472.025C463.824 176 455.602 179.039 449.207 184.215L449.204 184.217L434.823 195.779L434.549 196H434.197H417.002C414.78 196 413 198.012 413 200V230C413 232.26 414.74 234 417.002 234H528.298C532.81 234 536.923 232.8 540.131 229.885L540.155 229.863L540.18 229.843L587.698 192.032L587.97 178.559ZM587.97 178.559L587.981 178.568M587.97 178.559L587.981 178.568M587.981 178.568C592.184 182.21 591.914 188.659 587.7 192.03L587.981 178.568Z" stroke="black" stroke-width="2"/>
</svg>
