<svg width="1000" height="400" viewBox="0 0 1000 400" fill="none" xmlns="http://www.w3.org/2000/svg">
<rect width="1000" height="400" fill="white"/>
<path d="M384.707 338.901C384.317 339.291 383.683 339.291 383.293 338.901C382.902 338.51 382.902 337.877 383.293 337.487L384.707 338.901ZM416 305.194C416.552 305.194 417 305.642 417 306.194V315.194C417 315.746 416.552 316.194 416 316.194C415.448 316.194 415 315.746 415 315.194L415 307.194L407 307.194C406.448 307.194 406 306.746 406 306.194C406 305.642 406.448 305.194 407 305.194H416ZM383.293 337.487L415.293 305.487L416.707 306.901L384.707 338.901L383.293 337.487Z" fill="black"/>
<path d="M616.818 106.79C617.209 106.399 617.209 105.766 616.818 105.375C616.428 104.985 615.795 104.985 615.404 105.375L616.818 106.79ZM583.111 138.083C583.111 138.635 583.559 139.083 584.111 139.083H593.111C593.663 139.083 594.111 138.635 594.111 138.083C594.111 137.53 593.663 137.083 593.111 137.083H585.111V129.083C585.111 128.53 584.663 128.083 584.111 128.083C583.559 128.083 583.111 128.53 583.111 129.083V138.083ZM615.404 105.375L583.404 137.375L584.818 138.79L616.818 106.79L615.404 105.375Z" fill="black"/>
<mask id="path-3-inside-1" fill="white">
<path fill-rule="evenodd" clip-rule="evenodd" d="M527.671 100H471.322C465.799 100 461.322 104.477 461.322 110V236C461.322 241.523 465.799 246 471.322 246H558.388C563.911 246 568.388 241.523 568.388 236V140.718L527.671 100Z"/>
</mask>
<path fill-rule="evenodd" clip-rule="evenodd" d="M527.671 100H471.322C465.799 100 461.322 104.477 461.322 110V236C461.322 241.523 465.799 246 471.322 246H558.388C563.911 246 568.388 241.523 568.388 236V140.718L527.671 100Z" fill="white"/>
<path d="M527.671 100L529.085 98.5858L528.499 98H527.671V100ZM568.388 140.718H570.388V139.889L569.803 139.304L568.388 140.718ZM471.322 102H527.671V98H471.322V102ZM463.322 110C463.322 105.582 466.903 102 471.322 102V98C464.694 98 459.322 103.373 459.322 110H463.322ZM463.322 236V110H459.322V236H463.322ZM471.322 244C466.903 244 463.322 240.418 463.322 236H459.322C459.322 242.628 464.694 248 471.322 248V244ZM558.388 244H471.322V248H558.388V244ZM566.388 236C566.388 240.418 562.807 244 558.388 244V248C565.016 248 570.388 242.628 570.388 236H566.388ZM566.388 140.718V236H570.388V140.718H566.388ZM569.803 139.304L529.085 98.5858L526.256 101.414L566.974 142.132L569.803 139.304Z" fill="black" mask="url(#path-3-inside-1)"/>
<path d="M524.588 104.866V143.8H563.522" stroke="black" stroke-width="2" stroke-linecap="round" stroke-linejoin="round"/>
<path d="M489.447 117.431C490.776 117.431 491.663 118.139 491.663 119.201V124.069C491.663 124.512 491.663 127.167 489.447 127.167C490.333 127.167 492.549 127.698 492.549 129.823V135.134C492.549 136.166 492.017 138.232 489.89 138.232H485.014H479.252V127.167V117.431H485.014H489.447Z" fill="white"/>
<path d="M485.014 113.89V141.772M475.263 117.431H479.252M489.447 127.167C491.663 127.167 491.663 124.512 491.663 124.069C491.663 122.889 491.663 120.263 491.663 119.201C491.663 118.139 490.776 117.431 489.447 117.431H479.252M489.447 127.167C487.319 127.167 481.764 127.167 479.252 127.167M489.447 127.167C490.333 127.167 492.549 127.698 492.549 129.823C492.549 131.947 492.549 134.248 492.549 135.134C492.549 136.166 492.017 138.232 489.89 138.232C488.313 138.232 483.113 138.232 479.252 138.232M475.706 138.232C476.662 138.232 477.902 138.232 479.252 138.232M479.252 117.431V138.232" stroke="black" stroke-width="2" stroke-linecap="round" stroke-linejoin="round"/>
<line x1="554.005" y1="155.041" x2="475.705" y2="155.041" stroke="black" stroke-width="2" stroke-linecap="round" stroke-linejoin="round"/>
<line x1="531.699" y1="165" x2="475.705" y2="165" stroke="black" stroke-width="2" stroke-linecap="round" stroke-linejoin="round"/>
<rect width="79.7425" height="36" transform="translate(475.263 173.25)" fill="white"/>
<rect x="476.263" y="174.25" width="77.7425" height="34.3871" rx="3" stroke="black" stroke-width="2" stroke-linecap="round" stroke-linejoin="round"/>
<line x1="553.447" y1="185.476" x2="476.82" y2="185.476" stroke="black" stroke-width="2" stroke-linecap="round" stroke-linejoin="round"/>
<line x1="553.447" y1="198.25" x2="476.82" y2="198.249" stroke="black" stroke-width="2" stroke-linecap="round" stroke-linejoin="round"/>
<line x1="518.086" y1="174.25" x2="518.086" y2="208.25" stroke="black" stroke-width="2" stroke-linecap="round" stroke-linejoin="round"/>
<line x1="535.93" y1="174.25" x2="535.93" y2="208.25" stroke="black" stroke-width="2" stroke-linecap="round" stroke-linejoin="round"/>
<path d="M553.928 221.5C551.795 221.664 548.76 223.756 547.242 224.453C546.053 224.986 544.986 225.438 544.125 225.438C543.182 225.438 543.059 224.781 543.223 223.305C543.264 222.977 543.715 220.064 541.5 220.188C540.434 220.27 538.834 221.213 534.527 225.355L536.25 221.131C537.48 218.014 534.035 214.896 530.918 216.906L528.662 218.424C528.375 218.588 528.252 218.998 528.457 219.326L529.154 220.434C529.359 220.721 529.77 220.844 530.057 220.639L532.436 219.039C533.215 218.547 534.117 219.326 533.789 220.146L529.77 230.236C529.482 230.893 529.893 232 531 232C531.328 232 531.656 231.877 531.902 231.631C533.625 229.908 538.26 225.438 540.557 223.592C540.475 224.781 540.475 226.012 541.418 227.037C542.033 227.734 542.936 228.062 544.084 228.062C545.561 228.062 546.873 227.488 548.309 226.832C549.662 226.258 552.369 224.289 553.969 224.166C554.338 224.125 554.584 223.838 554.584 223.51V222.197C554.625 221.828 554.297 221.5 553.928 221.5Z" fill="#F7931A"/>
<rect x="451" y="189.901" width="74.7237" height="33.4584" rx="5" fill="black"/>
<path d="M462.5 214H465.266V208.839H468.19C471.717 208.839 473.611 206.722 473.611 203.783C473.611 200.868 471.74 198.727 468.227 198.727H462.5V214ZM465.266 206.565V201.039H467.802C469.875 201.039 470.792 202.158 470.792 203.783C470.792 205.409 469.875 206.565 467.817 206.565H465.266ZM484.315 202.926H486.977C486.925 200.346 484.725 198.518 481.473 198.518C478.267 198.518 475.858 200.323 475.865 203.023C475.865 205.215 477.424 206.475 479.937 207.124L481.675 207.572C483.323 207.989 484.411 208.504 484.419 209.69C484.411 210.995 483.174 211.867 481.369 211.867C479.639 211.867 478.296 211.092 478.185 209.488H475.463C475.574 212.523 477.834 214.231 481.391 214.231C485.053 214.231 487.178 212.404 487.186 209.712C487.178 207.065 484.993 205.857 482.696 205.312L481.264 204.954C480.012 204.656 478.654 204.126 478.669 202.851C478.677 201.703 479.706 200.86 481.436 200.86C483.084 200.86 484.173 201.628 484.315 202.926ZM489.652 214H495.834C499.332 214 501.047 212.218 501.047 209.839C501.047 207.527 499.406 206.17 497.781 206.088V205.939C499.272 205.588 500.45 204.544 500.45 202.687C500.45 200.413 498.81 198.727 495.499 198.727H489.652V214ZM492.419 211.688V207.214H495.469C497.177 207.214 498.236 208.258 498.236 209.623C498.236 210.838 497.4 211.688 495.394 211.688H492.419ZM492.419 205.223V201.009H495.215C496.841 201.009 497.684 201.867 497.684 203.045C497.684 204.387 496.595 205.223 495.156 205.223H492.419ZM502.783 201.047H507.503V214H510.248V201.047H514.968V198.727H502.783V201.047Z" fill="white"/>
<mask id="path-18-inside-2" fill="white">
<path fill-rule="evenodd" clip-rule="evenodd" d="M489.671 154H433.322C427.799 154 423.322 158.477 423.322 164V290C423.322 295.523 427.799 300 433.322 300H520.388C525.911 300 530.388 295.523 530.388 290V194.718L489.671 154Z"/>
</mask>
<path fill-rule="evenodd" clip-rule="evenodd" d="M489.671 154H433.322C427.799 154 423.322 158.477 423.322 164V290C423.322 295.523 427.799 300 433.322 300H520.388C525.911 300 530.388 295.523 530.388 290V194.718L489.671 154Z" fill="white"/>
<path d="M489.671 154L491.085 152.586L490.499 152H489.671V154ZM530.388 194.718H532.388V193.889L531.803 193.304L530.388 194.718ZM433.322 156H489.671V152H433.322V156ZM425.322 164C425.322 159.582 428.903 156 433.322 156V152C426.694 152 421.322 157.373 421.322 164H425.322ZM425.322 290V164H421.322V290H425.322ZM433.322 298C428.903 298 425.322 294.418 425.322 290H421.322C421.322 296.628 426.694 302 433.322 302V298ZM520.388 298H433.322V302H520.388V298ZM528.388 290C528.388 294.418 524.807 298 520.388 298V302C527.016 302 532.388 296.628 532.388 290H528.388ZM528.388 194.718V290H532.388V194.718H528.388ZM531.803 193.304L491.085 152.586L488.256 155.414L528.974 196.132L531.803 193.304Z" fill="black" mask="url(#path-18-inside-2)"/>
<path d="M486.588 158.866V197.8H525.522" stroke="black" stroke-width="2" stroke-linecap="round" stroke-linejoin="round"/>
<path d="M451.447 171.431C452.776 171.431 453.663 172.139 453.663 173.201V178.069C453.663 178.512 453.663 181.167 451.447 181.167C452.333 181.167 454.549 181.698 454.549 183.823V189.134C454.549 190.166 454.017 192.232 451.89 192.232H447.014H441.252V181.167V171.431H447.014H451.447Z" fill="white"/>
<path d="M447.014 167.89V195.772M437.263 171.431H441.252M451.447 181.167C453.663 181.167 453.663 178.512 453.663 178.069C453.663 176.889 453.663 174.263 453.663 173.201C453.663 172.139 452.776 171.431 451.447 171.431H441.252M451.447 181.167C449.319 181.167 443.764 181.167 441.252 181.167M451.447 181.167C452.333 181.167 454.549 181.698 454.549 183.823C454.549 185.947 454.549 188.248 454.549 189.134C454.549 190.166 454.017 192.232 451.89 192.232C450.313 192.232 445.113 192.232 441.252 192.232M437.706 192.232C438.662 192.232 439.902 192.232 441.252 192.232M441.252 171.431V192.232" stroke="black" stroke-width="2" stroke-linecap="round" stroke-linejoin="round"/>
<line x1="516.005" y1="209.041" x2="437.705" y2="209.041" stroke="black" stroke-width="2" stroke-linecap="round" stroke-linejoin="round"/>
<line x1="493.699" y1="219" x2="437.705" y2="219" stroke="black" stroke-width="2" stroke-linecap="round" stroke-linejoin="round"/>
<rect width="79.7425" height="36" transform="translate(437.263 227.25)" fill="white"/>
<rect x="438.263" y="228.25" width="77.7425" height="34.3871" rx="3" stroke="black" stroke-width="2" stroke-linecap="round" stroke-linejoin="round"/>
<line x1="515.447" y1="239.476" x2="438.82" y2="239.476" stroke="black" stroke-width="2" stroke-linecap="round" stroke-linejoin="round"/>
<line x1="515.447" y1="252.25" x2="438.82" y2="252.249" stroke="black" stroke-width="2" stroke-linecap="round" stroke-linejoin="round"/>
<line x1="480.086" y1="228.25" x2="480.086" y2="262.25" stroke="black" stroke-width="2" stroke-linecap="round" stroke-linejoin="round"/>
<line x1="497.93" y1="228.25" x2="497.93" y2="262.25" stroke="black" stroke-width="2" stroke-linecap="round" stroke-linejoin="round"/>
<path d="M515.928 275.5C513.795 275.664 510.76 277.756 509.242 278.453C508.053 278.986 506.986 279.438 506.125 279.438C505.182 279.438 505.059 278.781 505.223 277.305C505.264 276.977 505.715 274.064 503.5 274.188C502.434 274.27 500.834 275.213 496.527 279.355L498.25 275.131C499.48 272.014 496.035 268.896 492.918 270.906L490.662 272.424C490.375 272.588 490.252 272.998 490.457 273.326L491.154 274.434C491.359 274.721 491.77 274.844 492.057 274.639L494.436 273.039C495.215 272.547 496.117 273.326 495.789 274.146L491.77 284.236C491.482 284.893 491.893 286 493 286C493.328 286 493.656 285.877 493.902 285.631C495.625 283.908 500.26 279.438 502.557 277.592C502.475 278.781 502.475 280.012 503.418 281.037C504.033 281.734 504.936 282.062 506.084 282.062C507.561 282.062 508.873 281.488 510.309 280.832C511.662 280.258 514.369 278.289 515.969 278.166C516.338 278.125 516.584 277.838 516.584 277.51V276.197C516.625 275.828 516.297 275.5 515.928 275.5Z" fill="black"/>
<rect x="413" y="243.901" width="74.7237" height="33.4584" rx="5" fill="black"/>
<path d="M424.5 268H427.266V262.839H430.19C433.717 262.839 435.611 260.722 435.611 257.783C435.611 254.868 433.74 252.727 430.227 252.727H424.5V268ZM427.266 260.565V255.039H429.802C431.875 255.039 432.792 256.158 432.792 257.783C432.792 259.409 431.875 260.565 429.817 260.565H427.266ZM446.315 256.926H448.977C448.925 254.346 446.725 252.518 443.473 252.518C440.267 252.518 437.858 254.323 437.865 257.023C437.865 259.215 439.424 260.475 441.937 261.124L443.675 261.572C445.323 261.989 446.411 262.504 446.419 263.69C446.411 264.995 445.174 265.867 443.369 265.867C441.639 265.867 440.296 265.092 440.185 263.488H437.463C437.574 266.523 439.834 268.231 443.391 268.231C447.053 268.231 449.178 266.404 449.186 263.712C449.178 261.065 446.993 259.857 444.696 259.312L443.264 258.954C442.012 258.656 440.654 258.126 440.669 256.851C440.677 255.703 441.706 254.86 443.436 254.86C445.084 254.86 446.173 255.628 446.315 256.926ZM451.652 268H457.834C461.332 268 463.047 266.218 463.047 263.839C463.047 261.527 461.406 260.17 459.781 260.088V259.939C461.272 259.588 462.45 258.544 462.45 256.687C462.45 254.413 460.81 252.727 457.499 252.727H451.652V268ZM454.419 265.688V261.214H457.469C459.177 261.214 460.236 262.258 460.236 263.623C460.236 264.838 459.4 265.688 457.394 265.688H454.419ZM454.419 259.223V255.009H457.215C458.841 255.009 459.684 255.867 459.684 257.045C459.684 258.387 458.595 259.223 457.156 259.223H454.419ZM464.783 255.047H469.503V268H472.248V255.047H476.968V252.727H464.783V255.047Z" fill="white"/>
</svg>
