<svg width="730" height="641" viewBox="0 0 730 641" fill="none" xmlns="http://www.w3.org/2000/svg">
<rect width="730" height="641" fill="white"/>
<path d="M40 43C40 40.2386 42.2386 38 45 38H685C687.761 38 690 40.2386 690 43V107H40V43Z" fill="black"/>
<path d="M65.4596 81H69.0652L72.3888 69.5595H72.5256L75.8577 81H79.4633L84.4701 63.5018H80.4288L77.5324 75.6856H77.3786L74.1916 63.5018H70.7313L67.5358 75.66H67.3906L64.4942 63.5018H60.4528L65.4596 81ZM88.7144 81.2478C90.6539 81.2478 91.9098 80.4019 92.5506 79.1801H92.6532V81H96.1049V72.1484C96.1049 69.0213 93.4563 67.7055 90.5342 67.7055C87.39 67.7055 85.3224 69.2092 84.8183 71.6016L88.1846 71.875C88.4324 71.0035 89.2099 70.3627 90.5171 70.3627C91.756 70.3627 92.4652 70.9864 92.4652 72.0629V72.1142C92.4652 72.9601 91.5681 73.0711 89.2868 73.2933C86.6894 73.5325 84.3569 74.404 84.3569 77.3346C84.3569 79.932 86.211 81.2478 88.7144 81.2478ZM89.7567 78.7358C88.6375 78.7358 87.8343 78.2146 87.8343 77.215C87.8343 76.1897 88.6802 75.6856 89.9618 75.5062C90.7564 75.3951 92.0551 75.2071 92.4908 74.9166V76.3093C92.4908 77.6849 91.3545 78.7358 89.7567 78.7358ZM102.569 63.5018H98.9288V81H102.569V63.5018ZM109.124 63.5018H105.484V81H109.124V63.5018ZM118.02 81.2563C121.267 81.2563 123.454 79.6757 123.967 77.2406L120.601 77.0185C120.233 78.0181 119.293 78.5393 118.08 78.5393C116.26 78.5393 115.107 77.3346 115.107 75.378V75.3695H124.044V74.3698C124.044 69.9098 121.344 67.7055 117.875 67.7055C114.013 67.7055 111.51 70.4481 111.51 74.498C111.51 78.6589 113.979 81.2563 118.02 81.2563ZM115.107 73.1139C115.184 71.6187 116.32 70.4225 117.935 70.4225C119.516 70.4225 120.609 71.5503 120.618 73.1139H115.107ZM133.4 67.8764H130.93V64.7322H127.291V67.8764H125.496V70.6105H127.291V77.4457C127.274 80.0174 129.025 81.2905 131.665 81.1794C132.605 81.1452 133.271 80.9573 133.639 80.8377L133.066 78.1292C132.887 78.1634 132.503 78.2488 132.161 78.2488C131.435 78.2488 130.93 77.9754 130.93 76.9672V70.6105H133.4V67.8764Z" fill="white"/>
<g opacity="0.1">
<rect x="81" y="148" width="273" height="76" rx="4" fill="black"/>
<rect x="81" y="148" width="273" height="76" rx="4" stroke="black" stroke-width="2"/>
</g>
<path d="M398.58 180.384C402.98 180.384 405.637 177.035 405.646 171.268C405.654 165.543 402.963 162.263 398.58 162.263C394.188 162.263 391.522 165.535 391.514 171.268C391.497 177.018 394.171 180.376 398.58 180.384ZM398.58 177.317C396.572 177.317 395.273 175.301 395.282 171.268C395.29 167.295 396.581 165.296 398.58 165.296C400.571 165.296 401.869 167.295 401.869 171.268C401.878 175.301 400.579 177.317 398.58 177.317ZM409.717 180.222C410.811 180.222 411.759 179.308 411.768 178.172C411.759 177.052 410.811 176.138 409.717 176.138C408.589 176.138 407.658 177.052 407.666 178.172C407.658 179.308 408.589 180.222 409.717 180.222ZM420.972 180.239C424.868 180.239 427.516 177.702 427.508 174.164C427.516 170.815 425.175 168.406 422.023 168.406C420.485 168.406 419.16 169.047 418.545 169.909H418.443L418.895 165.526H426.542V162.502H415.845L415.016 171.729L418.306 172.319C418.844 171.593 419.887 171.14 420.92 171.14C422.68 171.148 423.945 172.421 423.945 174.258C423.945 176.078 422.706 177.334 420.972 177.334C419.502 177.334 418.314 176.412 418.229 175.053H414.64C414.709 178.078 417.349 180.239 420.972 180.239ZM435.759 180H439.348V177.898H439.51C440.014 178.992 441.116 180.214 443.235 180.214C446.226 180.214 448.558 177.847 448.558 173.455C448.558 168.944 446.123 166.705 443.244 166.705C441.048 166.705 439.997 168.013 439.51 169.081H439.399V162.502H435.759V180ZM439.322 173.438C439.322 171.097 440.313 169.602 442.082 169.602C443.885 169.602 444.842 171.165 444.842 173.438C444.842 175.728 443.867 177.317 442.082 177.317C440.33 177.317 439.322 175.779 439.322 173.438ZM450.987 180H454.627V166.876H450.987V180ZM452.815 165.185C453.9 165.185 454.789 164.356 454.789 163.339C454.789 162.331 453.9 161.502 452.815 161.502C451.739 161.502 450.85 162.331 450.85 163.339C450.85 164.356 451.739 165.185 452.815 165.185ZM464.523 166.876H462.053V163.732H458.414V166.876H456.619V169.61H458.414V176.446C458.397 179.017 460.148 180.29 462.788 180.179C463.728 180.145 464.395 179.957 464.762 179.838L464.189 177.129C464.01 177.163 463.626 177.249 463.284 177.249C462.558 177.249 462.053 176.975 462.053 175.967V169.61H464.523V166.876ZM472.682 180.256C476.177 180.256 478.373 178.206 478.543 175.19H475.109C474.895 176.591 473.972 177.377 472.725 177.377C471.025 177.377 469.923 175.95 469.923 173.438C469.923 170.96 471.033 169.542 472.725 169.542C474.058 169.542 474.912 170.422 475.109 171.729H478.543C478.39 168.696 476.091 166.705 472.665 166.705C468.684 166.705 466.223 169.465 466.223 173.489C466.223 177.48 468.641 180.256 472.682 180.256ZM486.803 180.256C490.785 180.256 493.263 177.531 493.263 173.489C493.263 169.422 490.785 166.705 486.803 166.705C482.822 166.705 480.344 169.422 480.344 173.489C480.344 177.531 482.822 180.256 486.803 180.256ZM486.82 177.437C484.984 177.437 484.044 175.754 484.044 173.464C484.044 171.174 484.984 169.482 486.82 169.482C488.623 169.482 489.563 171.174 489.563 173.464C489.563 175.754 488.623 177.437 486.82 177.437ZM495.629 180H499.269V166.876H495.629V180ZM497.458 165.185C498.543 165.185 499.431 164.356 499.431 163.339C499.431 162.331 498.543 161.502 497.458 161.502C496.381 161.502 495.493 162.331 495.493 163.339C495.493 164.356 496.381 165.185 497.458 165.185ZM505.825 172.413C505.833 170.721 506.841 169.73 508.311 169.73C509.772 169.73 510.652 170.687 510.643 172.293V180H514.283V171.644C514.283 168.585 512.489 166.705 509.755 166.705C507.807 166.705 506.397 167.662 505.807 169.192H505.654V166.876H502.185V180H505.825V172.413Z" fill="black"/>
<path d="M392.119 209H394.238V202.165H398.066C398.219 202.165 398.365 202.165 398.51 202.156L402.201 209H404.662L400.706 201.772C402.936 201.011 403.978 199.191 403.978 196.867C403.978 193.775 402.133 191.502 398.031 191.502H392.119V209ZM394.238 200.251V193.382H397.963C400.8 193.382 401.893 194.766 401.893 196.867C401.893 198.969 400.8 200.251 397.997 200.251H394.238ZM412.597 209.273C415.263 209.273 417.211 207.941 417.826 205.958L415.878 205.412C415.365 206.779 414.177 207.462 412.597 207.462C410.23 207.462 408.598 205.933 408.504 203.122H418.031V202.267C418.031 197.38 415.126 195.705 412.392 195.705C408.837 195.705 406.479 198.508 406.479 202.541C406.479 206.573 408.803 209.273 412.597 209.273ZM408.504 201.379C408.641 199.337 410.085 197.517 412.392 197.517C414.579 197.517 415.98 199.157 415.98 201.379H408.504ZM426.43 209.273C429.335 209.273 431.248 207.496 431.59 205.172H429.574C429.198 206.608 428.002 207.462 426.43 207.462C424.037 207.462 422.499 205.48 422.499 202.438C422.499 199.465 424.071 197.517 426.43 197.517C428.207 197.517 429.266 198.61 429.574 199.807H431.59C431.248 197.346 429.164 195.705 426.395 195.705C422.841 195.705 420.483 198.508 420.483 202.507C420.483 206.437 422.739 209.273 426.43 209.273ZM440.04 209.273C442.706 209.273 444.654 207.941 445.269 205.958L443.321 205.412C442.809 206.779 441.621 207.462 440.04 207.462C437.674 207.462 436.042 205.933 435.948 203.122H445.474V202.267C445.474 197.38 442.569 195.705 439.835 195.705C436.281 195.705 433.923 198.508 433.923 202.541C433.923 206.573 436.247 209.273 440.04 209.273ZM435.948 201.379C436.084 199.337 437.528 197.517 439.835 197.517C442.022 197.517 443.424 199.157 443.424 201.379H435.948ZM448.542 209H450.558V195.876H448.542V209ZM449.567 193.689C450.353 193.689 451.002 193.074 451.002 192.322C451.002 191.57 450.353 190.955 449.567 190.955C448.781 190.955 448.131 191.57 448.131 192.322C448.131 193.074 448.781 193.689 449.567 193.689ZM464.982 195.876H462.795L459.172 206.334H459.036L455.413 195.876H453.226L458.079 209H460.129L464.982 195.876ZM472.676 209.273C475.342 209.273 477.29 207.941 477.905 205.958L475.957 205.412C475.445 206.779 474.257 207.462 472.676 207.462C470.31 207.462 468.678 205.933 468.584 203.122H478.11V202.267C478.11 197.38 475.205 195.705 472.471 195.705C468.917 195.705 466.559 198.508 466.559 202.541C466.559 206.573 468.883 209.273 472.676 209.273ZM468.584 201.379C468.72 199.337 470.164 197.517 472.471 197.517C474.659 197.517 476.06 199.157 476.06 201.379H468.584ZM486.133 209.273C488.662 209.273 489.517 207.701 489.961 206.984H490.2V209H492.148V191.502H490.132V197.961H489.961C489.517 197.278 488.731 195.705 486.167 195.705C482.852 195.705 480.562 198.337 480.562 202.472C480.562 206.642 482.852 209.273 486.133 209.273ZM486.407 207.462C483.878 207.462 482.579 205.241 482.579 202.438C482.579 199.67 483.843 197.517 486.407 197.517C488.867 197.517 490.166 199.499 490.166 202.438C490.166 205.412 488.833 207.462 486.407 207.462ZM504.187 213.921C506.007 213.921 507.288 212.956 508.049 210.914L513.636 195.911L511.432 195.876L507.809 206.334H507.673L504.05 195.876H501.863L506.716 209.068L506.34 210.094C505.605 212.093 504.699 212.281 503.23 211.905L502.717 213.682C502.922 213.785 503.503 213.921 504.187 213.921ZM521.337 209.273C524.002 209.273 525.951 207.941 526.566 205.958L524.618 205.412C524.105 206.779 522.917 207.462 521.337 207.462C518.97 207.462 517.338 205.933 517.244 203.122H526.771V202.267C526.771 197.38 523.866 195.705 521.132 195.705C517.577 195.705 515.219 198.508 515.219 202.541C515.219 206.573 517.543 209.273 521.337 209.273ZM517.244 201.379C517.381 199.337 518.825 197.517 521.132 197.517C523.319 197.517 524.72 199.157 524.72 201.379H517.244ZM539.134 198.816C538.502 196.953 537.083 195.705 534.486 195.705C531.718 195.705 529.667 197.278 529.667 199.499C529.667 201.31 530.744 202.524 533.153 203.088L535.34 203.6C536.665 203.908 537.288 204.54 537.288 205.446C537.288 206.573 536.092 207.496 534.213 207.496C532.564 207.496 531.53 206.787 531.171 205.377L529.257 205.856C529.727 208.086 531.564 209.273 534.247 209.273C537.297 209.273 539.373 207.607 539.373 205.343C539.373 203.515 538.228 202.361 535.887 201.789L533.939 201.31C532.384 200.926 531.684 200.405 531.684 199.397C531.684 198.269 532.88 197.448 534.486 197.448C536.246 197.448 536.972 198.422 537.323 199.328L539.134 198.816ZM548.116 195.876H545.313V192.732H543.297V195.876H541.315V197.585H543.297V205.787C543.297 208.077 545.143 209.171 546.851 209.171C547.603 209.171 548.082 209.034 548.355 208.932L547.945 207.12C547.774 207.154 547.501 207.223 547.056 207.223C546.168 207.223 545.313 206.949 545.313 205.241V197.585H548.116V195.876ZM556.51 209.273C559.176 209.273 561.124 207.941 561.739 205.958L559.791 205.412C559.279 206.779 558.091 207.462 556.51 207.462C554.144 207.462 552.512 205.933 552.418 203.122H561.944V202.267C561.944 197.38 559.039 195.705 556.305 195.705C552.751 195.705 550.393 198.508 550.393 202.541C550.393 206.573 552.717 209.273 556.51 209.273ZM552.418 201.379C552.555 199.337 553.998 197.517 556.305 197.517C558.493 197.517 559.894 199.157 559.894 201.379H552.418ZM565.012 209H567.028V200.695C567.028 198.918 568.429 197.619 570.343 197.619C570.881 197.619 571.437 197.722 571.574 197.756V195.705C571.343 195.688 570.813 195.671 570.514 195.671C568.942 195.671 567.575 196.56 567.096 197.859H566.96V195.876H565.012V209ZM578.52 209.273C581.049 209.273 581.903 207.701 582.348 206.984H582.587V209H584.535V191.502H582.518V197.961H582.348C581.903 197.278 581.117 195.705 578.554 195.705C575.239 195.705 572.949 198.337 572.949 202.472C572.949 206.642 575.239 209.273 578.52 209.273ZM578.793 207.462C576.264 207.462 574.965 205.241 574.965 202.438C574.965 199.67 576.23 197.517 578.793 197.517C581.254 197.517 582.553 199.499 582.553 202.438C582.553 205.412 581.22 207.462 578.793 207.462ZM592.37 209.308C594.66 209.308 595.856 208.077 596.266 207.223H596.368V209H598.385V200.353C598.385 196.184 595.206 195.705 593.532 195.705C591.549 195.705 589.294 196.389 588.269 198.781L590.182 199.465C590.627 198.508 591.678 197.483 593.6 197.483C595.454 197.483 596.368 198.465 596.368 200.148V200.217C596.368 201.191 595.377 201.105 592.985 201.413C590.55 201.729 587.893 202.267 587.893 205.275C587.893 207.838 589.875 209.308 592.37 209.308ZM592.677 207.496C591.071 207.496 589.909 206.779 589.909 205.377C589.909 203.839 591.31 203.361 592.882 203.156C593.737 203.053 596.027 202.814 596.368 202.404V204.25C596.368 205.89 595.07 207.496 592.677 207.496ZM602.894 213.921C604.714 213.921 605.995 212.956 606.756 210.914L612.344 195.911L610.139 195.876L606.516 206.334H606.38L602.757 195.876H600.57L605.423 209.068L605.047 210.094C604.312 212.093 603.406 212.281 601.937 211.905L601.424 213.682C601.629 213.785 602.21 213.921 602.894 213.921Z" fill="black"/>
<rect x="376" y="148" width="273" height="76" rx="4" stroke="black" stroke-width="2"/>
<path d="M96.8261 278H109.3V274.975H101.952V274.856L104.507 272.352C108.104 269.071 109.07 267.431 109.07 265.44C109.07 262.407 106.592 260.263 102.841 260.263C99.1671 260.263 96.6466 262.458 96.6552 265.893H100.167C100.158 264.218 101.218 263.193 102.815 263.193C104.353 263.193 105.498 264.15 105.498 265.688C105.498 267.081 104.644 268.038 103.055 269.567L96.8261 275.334V278ZM117.652 278H121.241V275.898H121.403C121.907 276.992 123.009 278.214 125.128 278.214C128.119 278.214 130.451 275.847 130.451 271.455C130.451 266.944 128.016 264.705 125.137 264.705C122.941 264.705 121.89 266.013 121.403 267.081H121.292V260.502H117.652V278ZM121.215 271.438C121.215 269.097 122.206 267.602 123.975 267.602C125.778 267.602 126.734 269.165 126.734 271.438C126.734 273.728 125.76 275.317 123.975 275.317C122.223 275.317 121.215 273.779 121.215 271.438ZM132.88 278H136.52V264.876H132.88V278ZM134.708 263.185C135.793 263.185 136.682 262.356 136.682 261.339C136.682 260.331 135.793 259.502 134.708 259.502C133.632 259.502 132.743 260.331 132.743 261.339C132.743 262.356 133.632 263.185 134.708 263.185ZM146.416 264.876H143.946V261.732H140.307V264.876H138.512V267.61H140.307V274.446C140.29 277.017 142.041 278.29 144.681 278.179C145.621 278.145 146.287 277.957 146.655 277.838L146.082 275.129C145.903 275.163 145.519 275.249 145.177 275.249C144.45 275.249 143.946 274.975 143.946 273.967V267.61H146.416V264.876ZM154.575 278.256C158.07 278.256 160.266 276.206 160.436 273.19H157.002C156.788 274.591 155.865 275.377 154.618 275.377C152.918 275.377 151.815 273.95 151.815 271.438C151.815 268.96 152.926 267.542 154.618 267.542C155.951 267.542 156.805 268.422 157.002 269.729H160.436C160.283 266.696 157.984 264.705 154.558 264.705C150.577 264.705 148.116 267.465 148.116 271.489C148.116 275.48 150.534 278.256 154.575 278.256ZM168.696 278.256C172.678 278.256 175.156 275.531 175.156 271.489C175.156 267.422 172.678 264.705 168.696 264.705C164.715 264.705 162.237 267.422 162.237 271.489C162.237 275.531 164.715 278.256 168.696 278.256ZM168.713 275.437C166.876 275.437 165.937 273.754 165.937 271.464C165.937 269.174 166.876 267.482 168.713 267.482C170.516 267.482 171.456 269.174 171.456 271.464C171.456 273.754 170.516 275.437 168.713 275.437ZM177.522 278H181.162V264.876H177.522V278ZM179.351 263.185C180.436 263.185 181.324 262.356 181.324 261.339C181.324 260.331 180.436 259.502 179.351 259.502C178.274 259.502 177.386 260.331 177.386 261.339C177.386 262.356 178.274 263.185 179.351 263.185ZM187.717 270.413C187.726 268.721 188.734 267.73 190.204 267.73C191.665 267.73 192.545 268.687 192.536 270.293V278H196.176V269.644C196.176 266.585 194.382 264.705 191.648 264.705C189.7 264.705 188.29 265.662 187.7 267.192H187.547V264.876H184.078V278H187.717V270.413Z" fill="black"/>
<path d="M97.1189 307H99.2378V300.165H103.066C103.219 300.165 103.365 300.165 103.51 300.156L107.201 307H109.662L105.706 299.772C107.936 299.011 108.978 297.191 108.978 294.867C108.978 291.775 107.133 289.502 103.031 289.502H97.1189V307ZM99.2378 298.251V291.382H102.963C105.8 291.382 106.893 292.766 106.893 294.867C106.893 296.969 105.8 298.251 102.997 298.251H99.2378ZM117.597 307.273C120.263 307.273 122.211 305.941 122.826 303.958L120.878 303.412C120.365 304.779 119.177 305.462 117.597 305.462C115.23 305.462 113.598 303.933 113.504 301.122H123.031V300.267C123.031 295.38 120.126 293.705 117.392 293.705C113.837 293.705 111.479 296.508 111.479 300.541C111.479 304.573 113.803 307.273 117.597 307.273ZM113.504 299.379C113.641 297.337 115.085 295.517 117.392 295.517C119.579 295.517 120.98 297.157 120.98 299.379H113.504ZM131.43 307.273C134.335 307.273 136.248 305.496 136.59 303.172H134.574C134.198 304.608 133.002 305.462 131.43 305.462C129.037 305.462 127.499 303.48 127.499 300.438C127.499 297.465 129.071 295.517 131.43 295.517C133.207 295.517 134.266 296.61 134.574 297.807H136.59C136.248 295.346 134.164 293.705 131.395 293.705C127.841 293.705 125.483 296.508 125.483 300.507C125.483 304.437 127.739 307.273 131.43 307.273ZM145.04 307.273C147.706 307.273 149.654 305.941 150.269 303.958L148.321 303.412C147.809 304.779 146.621 305.462 145.04 305.462C142.674 305.462 141.042 303.933 140.948 301.122H150.474V300.267C150.474 295.38 147.569 293.705 144.835 293.705C141.281 293.705 138.923 296.508 138.923 300.541C138.923 304.573 141.247 307.273 145.04 307.273ZM140.948 299.379C141.084 297.337 142.528 295.517 144.835 295.517C147.022 295.517 148.424 297.157 148.424 299.379H140.948ZM153.542 307H155.558V293.876H153.542V307ZM154.567 291.689C155.353 291.689 156.002 291.074 156.002 290.322C156.002 289.57 155.353 288.955 154.567 288.955C153.781 288.955 153.131 289.57 153.131 290.322C153.131 291.074 153.781 291.689 154.567 291.689ZM169.982 293.876H167.795L164.172 304.334H164.036L160.413 293.876H158.226L163.079 307H165.129L169.982 293.876ZM177.676 307.273C180.342 307.273 182.29 305.941 182.905 303.958L180.957 303.412C180.445 304.779 179.257 305.462 177.676 305.462C175.31 305.462 173.678 303.933 173.584 301.122H183.11V300.267C183.11 295.38 180.205 293.705 177.471 293.705C173.917 293.705 171.559 296.508 171.559 300.541C171.559 304.573 173.883 307.273 177.676 307.273ZM173.584 299.379C173.72 297.337 175.164 295.517 177.471 295.517C179.659 295.517 181.06 297.157 181.06 299.379H173.584ZM191.133 307.273C193.662 307.273 194.517 305.701 194.961 304.984H195.2V307H197.148V289.502H195.132V295.961H194.961C194.517 295.278 193.731 293.705 191.167 293.705C187.852 293.705 185.562 296.337 185.562 300.472C185.562 304.642 187.852 307.273 191.133 307.273ZM191.407 305.462C188.878 305.462 187.579 303.241 187.579 300.438C187.579 297.67 188.843 295.517 191.407 295.517C193.867 295.517 195.166 297.499 195.166 300.438C195.166 303.412 193.833 305.462 191.407 305.462ZM209.904 289.502H207.888V307H209.904V289.502ZM217.459 307.308C219.749 307.308 220.945 306.077 221.356 305.223H221.458V307H223.474V298.353C223.474 294.184 220.296 293.705 218.621 293.705C216.639 293.705 214.384 294.389 213.358 296.781L215.272 297.465C215.717 296.508 216.767 295.483 218.69 295.483C220.544 295.483 221.458 296.465 221.458 298.148V298.217C221.458 299.191 220.467 299.105 218.075 299.413C215.64 299.729 212.982 300.267 212.982 303.275C212.982 305.838 214.965 307.308 217.459 307.308ZM217.767 305.496C216.161 305.496 214.999 304.779 214.999 303.377C214.999 301.839 216.4 301.361 217.972 301.156C218.827 301.053 221.116 300.814 221.458 300.404V302.25C221.458 303.89 220.159 305.496 217.767 305.496ZM236.451 296.816C235.818 294.953 234.4 293.705 231.803 293.705C229.035 293.705 226.984 295.278 226.984 297.499C226.984 299.31 228.061 300.524 230.47 301.088L232.657 301.6C233.982 301.908 234.605 302.54 234.605 303.446C234.605 304.573 233.409 305.496 231.529 305.496C229.88 305.496 228.847 304.787 228.488 303.377L226.574 303.856C227.044 306.086 228.881 307.273 231.564 307.273C234.614 307.273 236.69 305.607 236.69 303.343C236.69 301.515 235.545 300.361 233.204 299.789L231.256 299.31C229.701 298.926 229 298.405 229 297.397C229 296.269 230.197 295.448 231.803 295.448C233.563 295.448 234.289 296.422 234.639 297.328L236.451 296.816ZM245.433 293.876H242.63V290.732H240.614V293.876H238.632V295.585H240.614V303.787C240.614 306.077 242.459 307.171 244.168 307.171C244.92 307.171 245.398 307.034 245.672 306.932L245.262 305.12C245.091 305.154 244.817 305.223 244.373 305.223C243.485 305.223 242.63 304.949 242.63 303.241V295.585H245.433V293.876ZM258.206 307H260.188L263.059 296.918H263.264L266.135 307H268.117L272.116 293.876H269.997L267.16 303.89H267.023L264.255 293.876H262.102L259.3 303.924H259.163L256.326 293.876H254.207L258.206 307ZM279.837 307.273C282.503 307.273 284.451 305.941 285.066 303.958L283.118 303.412C282.606 304.779 281.418 305.462 279.837 305.462C277.471 305.462 275.839 303.933 275.745 301.122H285.271V300.267C285.271 295.38 282.366 293.705 279.632 293.705C276.078 293.705 273.72 296.508 273.72 300.541C273.72 304.573 276.044 307.273 279.837 307.273ZM275.745 299.379C275.881 297.337 277.325 295.517 279.632 295.517C281.82 295.517 283.221 297.157 283.221 299.379H275.745ZM293.841 307.273C296.507 307.273 298.455 305.941 299.07 303.958L297.122 303.412C296.609 304.779 295.422 305.462 293.841 305.462C291.474 305.462 289.842 303.933 289.748 301.122H299.275V300.267C299.275 295.38 296.37 293.705 293.636 293.705C290.082 293.705 287.723 296.508 287.723 300.541C287.723 304.573 290.047 307.273 293.841 307.273ZM289.748 299.379C289.885 297.337 291.329 295.517 293.636 295.517C295.823 295.517 297.224 297.157 297.224 299.379H289.748ZM302.342 307H304.359V302.087L305.768 300.78L310.681 307H313.245L307.289 299.481L312.834 293.876H310.34L304.598 299.72H304.359V289.502H302.342V307Z" fill="black"/>
<rect x="81" y="246" width="273" height="76" rx="4" stroke="black" stroke-width="2"/>
<g opacity="0.1">
<rect x="376" y="246" width="273" height="76" rx="4" fill="black"/>
<rect x="376" y="246" width="273" height="76" rx="4" stroke="black" stroke-width="2"/>
</g>
<rect x="41" y="39" width="648" height="323" rx="4" stroke="black" stroke-width="2"/>
<path d="M138.993 429.038H144.35V443.486H148.007V429.038H153.364V425.988H138.993V429.038ZM154.299 443.486H157.939V436.061C157.939 434.446 159.118 433.336 160.724 433.336C161.228 433.336 161.921 433.421 162.262 433.532V430.302C161.938 430.226 161.485 430.174 161.117 430.174C159.648 430.174 158.443 431.029 157.965 432.652H157.828V430.362H154.299V443.486ZM167.51 443.734C169.45 443.734 170.706 442.888 171.347 441.666H171.449V443.486H174.901V434.634C174.901 431.507 172.252 430.191 169.33 430.191C166.186 430.191 164.118 431.695 163.614 434.087L166.981 434.361C167.228 433.489 168.006 432.849 169.313 432.849C170.552 432.849 171.261 433.472 171.261 434.549V434.6C171.261 435.446 170.364 435.557 168.083 435.779C165.485 436.018 163.153 436.89 163.153 439.82C163.153 442.418 165.007 443.734 167.51 443.734ZM168.553 441.222C167.434 441.222 166.63 440.7 166.63 439.701C166.63 438.676 167.476 438.171 168.758 437.992C169.552 437.881 170.851 437.693 171.287 437.402V438.795C171.287 440.171 170.151 441.222 168.553 441.222ZM181.365 435.899C181.373 434.207 182.381 433.216 183.851 433.216C185.312 433.216 186.192 434.173 186.183 435.779V443.486H189.823V435.13C189.823 432.071 188.029 430.191 185.295 430.191C183.347 430.191 181.937 431.148 181.347 432.678H181.194V430.362H177.725V443.486H181.365V435.899ZM203.611 434.104C203.286 431.687 201.338 430.191 198.023 430.191C194.666 430.191 192.453 431.746 192.461 434.275C192.453 436.24 193.691 437.514 196.255 438.026L198.527 438.479C199.672 438.71 200.193 439.128 200.211 439.786C200.193 440.564 199.348 441.119 198.075 441.119C196.776 441.119 195.913 440.564 195.691 439.496L192.111 439.684C192.453 442.196 194.589 443.742 198.066 443.742C201.467 443.742 203.902 442.008 203.91 439.419C203.902 437.522 202.663 436.386 200.117 435.865L197.741 435.386C196.52 435.121 196.067 434.703 196.075 434.07C196.067 433.284 196.955 432.772 198.083 432.772C199.348 432.772 200.1 433.464 200.279 434.31L203.611 434.104ZM209.944 443.734C211.884 443.734 213.14 442.888 213.781 441.666H213.883V443.486H217.335V434.634C217.335 431.507 214.686 430.191 211.764 430.191C208.62 430.191 206.552 431.695 206.048 434.087L209.415 434.361C209.662 433.489 210.44 432.849 211.747 432.849C212.986 432.849 213.695 433.472 213.695 434.549V434.6C213.695 435.446 212.798 435.557 210.517 435.779C207.919 436.018 205.587 436.89 205.587 439.82C205.587 442.418 207.441 443.734 209.944 443.734ZM210.987 441.222C209.867 441.222 209.064 440.7 209.064 439.701C209.064 438.676 209.91 438.171 211.192 437.992C211.986 437.881 213.285 437.693 213.721 437.402V438.795C213.721 440.171 212.584 441.222 210.987 441.222ZM226.088 443.742C229.583 443.742 231.779 441.692 231.95 438.676H228.515C228.301 440.077 227.378 440.863 226.131 440.863C224.431 440.863 223.329 439.436 223.329 436.924C223.329 434.446 224.439 433.028 226.131 433.028C227.464 433.028 228.318 433.908 228.515 435.215H231.95C231.796 432.182 229.497 430.191 226.071 430.191C222.09 430.191 219.629 432.951 219.629 436.975C219.629 440.965 222.047 443.742 226.088 443.742ZM241.26 430.362H238.791V427.218H235.151V430.362H233.357V433.096H235.151V439.932C235.134 442.503 236.886 443.776 239.526 443.665C240.466 443.631 241.132 443.443 241.5 443.324L240.927 440.615C240.748 440.649 240.363 440.735 240.022 440.735C239.295 440.735 238.791 440.461 238.791 439.453V433.096H241.26V430.362ZM243.631 443.486H247.271V430.362H243.631V443.486ZM245.46 428.67C246.545 428.67 247.433 427.842 247.433 426.825C247.433 425.817 246.545 424.988 245.46 424.988C244.383 424.988 243.495 425.817 243.495 426.825C243.495 427.842 244.383 428.67 245.46 428.67ZM256.116 443.742C260.098 443.742 262.576 441.017 262.576 436.975C262.576 432.908 260.098 430.191 256.116 430.191C252.135 430.191 249.657 432.908 249.657 436.975C249.657 441.017 252.135 443.742 256.116 443.742ZM256.133 440.923C254.296 440.923 253.357 439.239 253.357 436.95C253.357 434.66 254.296 432.968 256.133 432.968C257.936 432.968 258.876 434.66 258.876 436.95C258.876 439.239 257.936 440.923 256.133 440.923ZM268.582 435.899C268.591 434.207 269.599 433.216 271.068 433.216C272.529 433.216 273.409 434.173 273.401 435.779V443.486H277.041V435.13C277.041 432.071 275.246 430.191 272.512 430.191C270.564 430.191 269.155 431.148 268.565 432.678H268.411V430.362H264.942V443.486H268.582V435.899Z" fill="black"/>
<line x1="98.1382" y1="468.486" x2="646.138" y2="468.486" stroke="black" stroke-width="2" stroke-dasharray="10 10"/>
<path d="M162.169 524.988H158.692L154.36 527.73V531.011L158.367 528.499H158.47V542.486H162.169V524.988ZM171.999 542.486H175.588V540.384H175.75C176.254 541.478 177.356 542.699 179.475 542.699C182.466 542.699 184.798 540.333 184.798 535.941C184.798 531.43 182.363 529.191 179.484 529.191C177.288 529.191 176.237 530.499 175.75 531.567H175.639V524.988H171.999V542.486ZM175.562 535.924C175.562 533.583 176.553 532.088 178.322 532.088C180.125 532.088 181.081 533.651 181.081 535.924C181.081 538.214 180.107 539.803 178.322 539.803C176.57 539.803 175.562 538.265 175.562 535.924ZM187.227 542.486H190.866V529.362H187.227V542.486ZM189.055 527.67C190.14 527.67 191.029 526.842 191.029 525.825C191.029 524.817 190.14 523.988 189.055 523.988C187.979 523.988 187.09 524.817 187.09 525.825C187.09 526.842 187.979 527.67 189.055 527.67ZM200.763 529.362H198.293V526.218H194.654V529.362H192.859V532.096H194.654V538.932C194.637 541.503 196.388 542.776 199.028 542.665C199.968 542.631 200.634 542.443 201.002 542.324L200.429 539.615C200.25 539.649 199.866 539.735 199.524 539.735C198.797 539.735 198.293 539.461 198.293 538.453V532.096H200.763V529.362ZM208.922 542.742C212.417 542.742 214.613 540.692 214.783 537.676H211.349C211.135 539.077 210.212 539.863 208.965 539.863C207.265 539.863 206.162 538.436 206.162 535.924C206.162 533.446 207.273 532.028 208.965 532.028C210.298 532.028 211.152 532.908 211.349 534.215H214.783C214.63 531.182 212.331 529.191 208.905 529.191C204.924 529.191 202.463 531.951 202.463 535.975C202.463 539.965 204.881 542.742 208.922 542.742ZM223.043 542.742C227.025 542.742 229.503 540.017 229.503 535.975C229.503 531.908 227.025 529.191 223.043 529.191C219.062 529.191 216.584 531.908 216.584 535.975C216.584 540.017 219.062 542.742 223.043 542.742ZM223.06 539.923C221.223 539.923 220.284 538.239 220.284 535.95C220.284 533.66 221.223 531.968 223.06 531.968C224.863 531.968 225.803 533.66 225.803 535.95C225.803 538.239 224.863 539.923 223.06 539.923ZM231.869 542.486H235.509V529.362H231.869V542.486ZM233.698 527.67C234.783 527.67 235.671 526.842 235.671 525.825C235.671 524.817 234.783 523.988 233.698 523.988C232.621 523.988 231.733 524.817 231.733 525.825C231.733 526.842 232.621 527.67 233.698 527.67ZM242.064 534.899C242.073 533.207 243.081 532.216 244.551 532.216C246.012 532.216 246.892 533.173 246.883 534.779V542.486H250.523V534.13C250.523 531.071 248.729 529.191 245.995 529.191C244.047 529.191 242.637 530.148 242.047 531.678H241.894V529.362H238.425V542.486H242.064V534.899Z" fill="black"/>
<rect x="139.138" y="510.486" width="222" height="47" rx="4" stroke="black" stroke-width="2"/>
<g opacity="0.1">
<rect x="382.138" y="509.486" width="224" height="49" rx="5" fill="black"/>
</g>
<rect x="99.1382" y="401.486" width="546" height="196" rx="4" stroke="black" stroke-width="2" stroke-dasharray="10 10"/>
<rect x="397.984" y="477.337" width="223" height="47" rx="4" transform="rotate(3.73207 397.984 477.337)" fill="white"/>
<path d="M411.693 510.3L424.141 511.112L424.338 508.093L417.006 507.615L417.013 507.496L419.726 505.164C423.529 502.124 424.599 500.55 424.728 498.563C424.926 495.537 422.593 493.235 418.85 492.991C415.184 492.752 412.526 494.779 412.311 498.207L415.815 498.436C415.915 496.764 417.039 495.81 418.634 495.914C420.168 496.014 421.249 497.044 421.148 498.578C421.058 499.968 420.143 500.867 418.458 502.29L411.867 507.639L411.693 510.3ZM432.475 511.655L436.056 511.889L436.193 509.791L436.355 509.802C436.787 510.926 437.807 512.217 439.921 512.355C442.906 512.55 445.387 510.34 445.673 505.957C445.967 501.456 443.682 499.063 440.809 498.876C438.618 498.733 437.484 499.969 436.929 501.003L436.818 500.996L437.246 494.431L433.614 494.194L432.475 511.655ZM436.458 505.339C436.61 503.003 437.696 501.576 439.461 501.691C441.26 501.808 442.113 503.431 441.965 505.698C441.816 507.983 440.741 509.506 438.959 509.39C437.211 509.276 436.305 507.675 436.458 505.339ZM447.67 512.646L451.303 512.883L452.157 499.787L448.525 499.551L447.67 512.646ZM450.459 497.981C451.542 498.052 452.483 497.283 452.549 496.268C452.615 495.262 451.782 494.377 450.699 494.307C449.625 494.237 448.684 495.006 448.619 496.012C448.552 497.026 449.385 497.911 450.459 497.981ZM462.032 500.432L459.568 500.271L459.773 497.133L456.141 496.896L455.936 500.034L454.145 499.917L453.967 502.645L455.758 502.762L455.313 509.583C455.129 512.148 456.793 513.533 459.435 513.594C460.375 513.621 461.053 513.476 461.427 513.381L461.032 510.641C460.851 510.663 460.462 510.724 460.12 510.701C459.396 510.654 458.911 510.349 458.976 509.342L459.39 502.999L461.854 503.16L462.032 500.432ZM469.303 514.314C472.79 514.542 475.115 512.638 475.482 509.64L472.054 509.416C471.75 510.801 470.778 511.525 469.533 511.444C467.837 511.333 466.83 509.838 466.993 507.331C467.154 504.858 468.355 503.515 470.043 503.626C471.373 503.712 472.169 504.646 472.28 505.963L475.707 506.187C475.751 503.15 473.587 501.014 470.168 500.791C466.195 500.532 463.56 503.126 463.298 507.141C463.038 511.123 465.27 514.051 469.303 514.314ZM483.394 515.233C487.368 515.493 490.017 512.934 490.28 508.901C490.545 504.843 488.25 501.971 484.276 501.711C480.303 501.452 477.654 504.002 477.389 508.06C477.126 512.093 479.421 514.974 483.394 515.233ZM483.595 512.421C481.762 512.301 480.934 510.561 481.083 508.276C481.232 505.991 482.28 504.364 484.113 504.483C485.912 504.601 486.739 506.35 486.59 508.635C486.441 510.92 485.394 512.538 483.595 512.421ZM492.218 515.552L495.85 515.789L496.705 502.693L493.073 502.456L492.218 515.552ZM495.007 500.887C496.09 500.958 497.031 500.189 497.097 499.174C497.163 498.168 496.33 497.283 495.247 497.213C494.173 497.143 493.232 497.912 493.166 498.918C493.1 499.932 493.933 500.817 495.007 500.887ZM502.886 508.645C503.004 506.957 504.075 506.034 505.541 506.129C506.999 506.225 507.815 507.237 507.702 508.839L507.201 516.529L510.833 516.766L511.376 508.428C511.576 505.376 509.908 503.383 507.179 503.205C505.235 503.078 503.766 503.942 503.078 505.429L502.925 505.419L503.076 503.109L499.614 502.883L498.76 515.979L502.392 516.216L502.886 508.645Z" fill="black"/>
<rect x="397.984" y="477.337" width="223" height="47" rx="4" transform="rotate(3.73207 397.984 477.337)" stroke="black" stroke-width="2"/>
<path d="M599.273 466.809L596.413 437.947M599.273 466.809L628.081 461.25M599.273 466.809C624.962 446.515 633.541 394.814 632.619 353.839" stroke="white" stroke-width="26" stroke-linecap="round" stroke-linejoin="round"/>
<path d="M625.833 307.595C637.825 339.378 637.017 436.993 599.273 466.809M599.273 466.809L596.414 437.947M599.273 466.809L628.081 461.25" stroke="black" stroke-width="3" stroke-linecap="round" stroke-linejoin="round"/>
</svg>
