<svg width="600" height="400" viewBox="0 0 600 400" fill="none" xmlns="http://www.w3.org/2000/svg">
<rect width="600" height="400" fill="white"/>
<path d="M184.707 319.901C184.317 320.291 183.683 320.291 183.293 319.901C182.902 319.51 182.902 318.877 183.293 318.487L184.707 319.901ZM216 286.194C216.552 286.194 217 286.642 217 287.194V296.194C217 296.746 216.552 297.194 216 297.194C215.448 297.194 215 296.746 215 296.194V288.194L207 288.194C206.448 288.194 206 287.746 206 287.194C206 286.642 206.448 286.194 207 286.194H216ZM183.293 318.487L215.293 286.487L216.707 287.901L184.707 319.901L183.293 318.487Z" fill="black"/>
<path d="M416.818 87.7896C417.209 87.3991 417.209 86.7659 416.818 86.3754C416.428 85.9849 415.795 85.9849 415.404 86.3754L416.818 87.7896ZM383.111 119.083C383.111 119.635 383.559 120.083 384.111 120.083H393.111C393.663 120.083 394.111 119.635 394.111 119.083C394.111 118.53 393.663 118.083 393.111 118.083H385.111L385.111 110.083C385.111 109.53 384.663 109.083 384.111 109.083C383.559 109.083 383.111 109.53 383.111 110.083V119.083ZM415.404 86.3754L383.404 118.375L384.818 119.79L416.818 87.7896L415.404 86.3754Z" fill="black"/>
<mask id="path-3-inside-1" fill="white">
<path fill-rule="evenodd" clip-rule="evenodd" d="M327.671 81H271.322C265.799 81 261.322 85.4772 261.322 91V217C261.322 222.523 265.799 227 271.322 227H358.388C363.911 227 368.388 222.523 368.388 217V121.718L327.671 81Z"/>
</mask>
<path fill-rule="evenodd" clip-rule="evenodd" d="M327.671 81H271.322C265.799 81 261.322 85.4772 261.322 91V217C261.322 222.523 265.799 227 271.322 227H358.388C363.911 227 368.388 222.523 368.388 217V121.718L327.671 81Z" fill="white"/>
<path d="M327.671 81L329.085 79.5858L328.499 79H327.671V81ZM368.388 121.718H370.388V120.889L369.803 120.304L368.388 121.718ZM271.322 83H327.671V79H271.322V83ZM263.322 91C263.322 86.5817 266.903 83 271.322 83V79C264.694 79 259.322 84.3726 259.322 91H263.322ZM263.322 217V91H259.322V217H263.322ZM271.322 225C266.903 225 263.322 221.418 263.322 217H259.322C259.322 223.628 264.694 229 271.322 229V225ZM358.388 225H271.322V229H358.388V225ZM366.388 217C366.388 221.418 362.807 225 358.388 225V229C365.016 229 370.388 223.628 370.388 217H366.388ZM366.388 121.718V217H370.388V121.718H366.388ZM369.803 120.304L329.085 79.5858L326.256 82.4142L366.974 123.132L369.803 120.304Z" fill="black" mask="url(#path-3-inside-1)"/>
<path d="M324.588 85.8662V124.8H363.522" stroke="black" stroke-width="2" stroke-linecap="round" stroke-linejoin="round"/>
<path d="M289.447 98.4307C290.776 98.4307 291.663 99.1388 291.663 100.201V105.069C291.663 105.512 291.663 108.167 289.447 108.167C290.333 108.167 292.549 108.698 292.549 110.823V116.134C292.549 117.166 292.017 119.232 289.89 119.232H285.014H279.252V108.167V98.4307H285.014H289.447Z" fill="white"/>
<path d="M285.014 94.8901V122.772M275.263 98.4307H279.252M289.447 108.167C291.663 108.167 291.663 105.512 291.663 105.069C291.663 103.889 291.663 101.263 291.663 100.201C291.663 99.1388 290.776 98.4307 289.447 98.4307H279.252M289.447 108.167C287.319 108.167 281.764 108.167 279.252 108.167M289.447 108.167C290.333 108.167 292.549 108.698 292.549 110.823C292.549 112.947 292.549 115.248 292.549 116.134C292.549 117.166 292.017 119.232 289.89 119.232C288.313 119.232 283.113 119.232 279.252 119.232M275.706 119.232C276.662 119.232 277.902 119.232 279.252 119.232M279.252 98.4307V119.232" stroke="black" stroke-width="2" stroke-linecap="round" stroke-linejoin="round"/>
<line x1="354.005" y1="136.041" x2="275.705" y2="136.041" stroke="black" stroke-width="2" stroke-linecap="round" stroke-linejoin="round"/>
<line x1="331.699" y1="146" x2="275.705" y2="146" stroke="black" stroke-width="2" stroke-linecap="round" stroke-linejoin="round"/>
<rect width="79.7425" height="36" transform="translate(275.263 154.25)" fill="white"/>
<rect x="276.263" y="155.25" width="77.7425" height="34.3871" rx="3" stroke="black" stroke-width="2" stroke-linecap="round" stroke-linejoin="round"/>
<line x1="353.447" y1="166.476" x2="276.82" y2="166.476" stroke="black" stroke-width="2" stroke-linecap="round" stroke-linejoin="round"/>
<line x1="353.447" y1="179.25" x2="276.82" y2="179.249" stroke="black" stroke-width="2" stroke-linecap="round" stroke-linejoin="round"/>
<line x1="318.086" y1="155.25" x2="318.086" y2="189.25" stroke="black" stroke-width="2" stroke-linecap="round" stroke-linejoin="round"/>
<line x1="335.93" y1="155.25" x2="335.93" y2="189.25" stroke="black" stroke-width="2" stroke-linecap="round" stroke-linejoin="round"/>
<path d="M353.928 202.5C351.795 202.664 348.76 204.756 347.242 205.453C346.053 205.986 344.986 206.438 344.125 206.438C343.182 206.438 343.059 205.781 343.223 204.305C343.264 203.977 343.715 201.064 341.5 201.188C340.434 201.27 338.834 202.213 334.527 206.355L336.25 202.131C337.48 199.014 334.035 195.896 330.918 197.906L328.662 199.424C328.375 199.588 328.252 199.998 328.457 200.326L329.154 201.434C329.359 201.721 329.77 201.844 330.057 201.639L332.436 200.039C333.215 199.547 334.117 200.326 333.789 201.146L329.77 211.236C329.482 211.893 329.893 213 331 213C331.328 213 331.656 212.877 331.902 212.631C333.625 210.908 338.26 206.438 340.557 204.592C340.475 205.781 340.475 207.012 341.418 208.037C342.033 208.734 342.936 209.062 344.084 209.062C345.561 209.062 346.873 208.488 348.309 207.832C349.662 207.258 352.369 205.289 353.969 205.166C354.338 205.125 354.584 204.838 354.584 204.51V203.197C354.625 202.828 354.297 202.5 353.928 202.5Z" fill="#F7931A"/>
<rect x="251" y="170.901" width="74.7237" height="33.4584" rx="5" fill="black"/>
<path d="M262.5 195H265.266V189.839H268.19C271.717 189.839 273.611 187.722 273.611 184.783C273.611 181.868 271.74 179.727 268.227 179.727H262.5V195ZM265.266 187.565V182.039H267.802C269.875 182.039 270.792 183.158 270.792 184.783C270.792 186.409 269.875 187.565 267.817 187.565H265.266ZM284.315 183.926H286.977C286.925 181.346 284.725 179.518 281.473 179.518C278.267 179.518 275.858 181.323 275.865 184.023C275.865 186.215 277.424 187.475 279.937 188.124L281.675 188.572C283.323 188.989 284.411 189.504 284.419 190.69C284.411 191.995 283.174 192.867 281.369 192.867C279.639 192.867 278.296 192.092 278.185 190.488H275.463C275.574 193.523 277.834 195.231 281.391 195.231C285.053 195.231 287.178 193.404 287.186 190.712C287.178 188.065 284.993 186.857 282.696 186.312L281.264 185.954C280.012 185.656 278.654 185.126 278.669 183.851C278.677 182.703 279.706 181.86 281.436 181.86C283.084 181.86 284.173 182.628 284.315 183.926ZM289.652 195H295.834C299.332 195 301.047 193.218 301.047 190.839C301.047 188.527 299.406 187.17 297.781 187.088V186.939C299.272 186.588 300.45 185.544 300.45 183.687C300.45 181.413 298.81 179.727 295.499 179.727H289.652V195ZM292.419 192.688V188.214H295.469C297.177 188.214 298.236 189.258 298.236 190.623C298.236 191.838 297.4 192.688 295.394 192.688H292.419ZM292.419 186.223V182.009H295.215C296.841 182.009 297.684 182.867 297.684 184.045C297.684 185.387 296.595 186.223 295.156 186.223H292.419ZM302.783 182.047H307.503V195H310.248V182.047H314.968V179.727H302.783V182.047Z" fill="white"/>
<mask id="path-18-inside-2" fill="white">
<path fill-rule="evenodd" clip-rule="evenodd" d="M289.671 135H233.322C227.799 135 223.322 139.477 223.322 145V271C223.322 276.523 227.799 281 233.322 281H320.388C325.911 281 330.388 276.523 330.388 271V175.718L289.671 135Z"/>
</mask>
<path fill-rule="evenodd" clip-rule="evenodd" d="M289.671 135H233.322C227.799 135 223.322 139.477 223.322 145V271C223.322 276.523 227.799 281 233.322 281H320.388C325.911 281 330.388 276.523 330.388 271V175.718L289.671 135Z" fill="white"/>
<path d="M289.671 135L291.085 133.586L290.499 133H289.671V135ZM330.388 175.718H332.388V174.889L331.803 174.304L330.388 175.718ZM233.322 137H289.671V133H233.322V137ZM225.322 145C225.322 140.582 228.903 137 233.322 137V133C226.694 133 221.322 138.373 221.322 145H225.322ZM225.322 271V145H221.322V271H225.322ZM233.322 279C228.903 279 225.322 275.418 225.322 271H221.322C221.322 277.628 226.694 283 233.322 283V279ZM320.388 279H233.322V283H320.388V279ZM328.388 271C328.388 275.418 324.807 279 320.388 279V283C327.016 283 332.388 277.628 332.388 271H328.388ZM328.388 175.718V271H332.388V175.718H328.388ZM331.803 174.304L291.085 133.586L288.256 136.414L328.974 177.132L331.803 174.304Z" fill="black" mask="url(#path-18-inside-2)"/>
<path d="M286.588 139.866V178.8H325.522" stroke="black" stroke-width="2" stroke-linecap="round" stroke-linejoin="round"/>
<path d="M251.447 152.431C252.776 152.431 253.663 153.139 253.663 154.201V159.069C253.663 159.512 253.663 162.167 251.447 162.167C252.333 162.167 254.549 162.698 254.549 164.823V170.134C254.549 171.166 254.017 173.232 251.89 173.232H247.014H241.252V162.167V152.431H247.014H251.447Z" fill="white"/>
<path d="M247.014 148.89V176.772M237.263 152.431H241.252M251.447 162.167C253.663 162.167 253.663 159.512 253.663 159.069C253.663 157.889 253.663 155.263 253.663 154.201C253.663 153.139 252.776 152.431 251.447 152.431H241.252M251.447 162.167C249.319 162.167 243.764 162.167 241.252 162.167M251.447 162.167C252.333 162.167 254.549 162.698 254.549 164.823C254.549 166.947 254.549 169.248 254.549 170.134C254.549 171.166 254.017 173.232 251.89 173.232C250.313 173.232 245.113 173.232 241.252 173.232M237.706 173.232C238.662 173.232 239.902 173.232 241.252 173.232M241.252 152.431V173.232" stroke="black" stroke-width="2" stroke-linecap="round" stroke-linejoin="round"/>
<line x1="316.005" y1="190.041" x2="237.705" y2="190.041" stroke="black" stroke-width="2" stroke-linecap="round" stroke-linejoin="round"/>
<line x1="293.699" y1="200" x2="237.705" y2="200" stroke="black" stroke-width="2" stroke-linecap="round" stroke-linejoin="round"/>
<rect width="79.7425" height="36" transform="translate(237.263 208.25)" fill="white"/>
<rect x="238.263" y="209.25" width="77.7425" height="34.3871" rx="3" stroke="black" stroke-width="2" stroke-linecap="round" stroke-linejoin="round"/>
<line x1="315.447" y1="220.476" x2="238.82" y2="220.476" stroke="black" stroke-width="2" stroke-linecap="round" stroke-linejoin="round"/>
<line x1="315.447" y1="233.25" x2="238.82" y2="233.249" stroke="black" stroke-width="2" stroke-linecap="round" stroke-linejoin="round"/>
<line x1="280.086" y1="209.25" x2="280.086" y2="243.25" stroke="black" stroke-width="2" stroke-linecap="round" stroke-linejoin="round"/>
<line x1="297.93" y1="209.25" x2="297.93" y2="243.25" stroke="black" stroke-width="2" stroke-linecap="round" stroke-linejoin="round"/>
<path d="M315.928 256.5C313.795 256.664 310.76 258.756 309.242 259.453C308.053 259.986 306.986 260.438 306.125 260.438C305.182 260.438 305.059 259.781 305.223 258.305C305.264 257.977 305.715 255.064 303.5 255.188C302.434 255.27 300.834 256.213 296.527 260.355L298.25 256.131C299.48 253.014 296.035 249.896 292.918 251.906L290.662 253.424C290.375 253.588 290.252 253.998 290.457 254.326L291.154 255.434C291.359 255.721 291.77 255.844 292.057 255.639L294.436 254.039C295.215 253.547 296.117 254.326 295.789 255.146L291.77 265.236C291.482 265.893 291.893 267 293 267C293.328 267 293.656 266.877 293.902 266.631C295.625 264.908 300.26 260.438 302.557 258.592C302.475 259.781 302.475 261.012 303.418 262.037C304.033 262.734 304.936 263.062 306.084 263.062C307.561 263.062 308.873 262.488 310.309 261.832C311.662 261.258 314.369 259.289 315.969 259.166C316.338 259.125 316.584 258.838 316.584 258.51V257.197C316.625 256.828 316.297 256.5 315.928 256.5Z" fill="black"/>
<rect x="213" y="224.901" width="74.7237" height="33.4584" rx="5" fill="black"/>
<path d="M224.5 249H227.266V243.839H230.19C233.717 243.839 235.611 241.722 235.611 238.783C235.611 235.868 233.74 233.727 230.227 233.727H224.5V249ZM227.266 241.565V236.039H229.802C231.875 236.039 232.792 237.158 232.792 238.783C232.792 240.409 231.875 241.565 229.817 241.565H227.266ZM246.315 237.926H248.977C248.925 235.346 246.725 233.518 243.473 233.518C240.267 233.518 237.858 235.323 237.865 238.023C237.865 240.215 239.424 241.475 241.937 242.124L243.675 242.572C245.323 242.989 246.411 243.504 246.419 244.69C246.411 245.995 245.174 246.867 243.369 246.867C241.639 246.867 240.296 246.092 240.185 244.488H237.463C237.574 247.523 239.834 249.231 243.391 249.231C247.053 249.231 249.178 247.404 249.186 244.712C249.178 242.065 246.993 240.857 244.696 240.312L243.264 239.954C242.012 239.656 240.654 239.126 240.669 237.851C240.677 236.703 241.706 235.86 243.436 235.86C245.084 235.86 246.173 236.628 246.315 237.926ZM251.652 249H257.834C261.332 249 263.047 247.218 263.047 244.839C263.047 242.527 261.406 241.17 259.781 241.088V240.939C261.272 240.588 262.45 239.544 262.45 237.687C262.45 235.413 260.81 233.727 257.499 233.727H251.652V249ZM254.419 246.688V242.214H257.469C259.177 242.214 260.236 243.258 260.236 244.623C260.236 245.838 259.4 246.688 257.394 246.688H254.419ZM254.419 240.223V236.009H257.215C258.841 236.009 259.684 236.867 259.684 238.045C259.684 239.387 258.595 240.223 257.156 240.223H254.419ZM264.783 236.047H269.503V249H272.248V236.047H276.968V233.727H264.783V236.047Z" fill="white"/>
</svg>
