<svg width="1000" height="300" viewBox="0 0 1000 300" fill="none" xmlns="http://www.w3.org/2000/svg">
<g clip-path="url(#clip0)">
<rect width="1000" height="300" fill="white"/>
<rect x="438" y="185" width="106" height="18" rx="9" stroke="#222426" stroke-width="2"/>
<circle cx="492" cy="164" r="31" fill="white" stroke="#222426" stroke-width="2"/>
<circle cx="492" cy="164" r="27.5" fill="white" stroke="#222426"/>
<g filter="url(#filter0_ddddddd)">
<path fill-rule="evenodd" clip-rule="evenodd" d="M513 154C513 154.552 513.448 155 514 155C514.552 155 515 154.552 515 154V144H525C525.552 144 526 143.552 526 143C526 142.448 525.552 142 525 142H515V132C515 131.448 514.552 131 514 131C513.448 131 513 131.448 513 132V142H503C502.448 142 502 142.448 502 143C502 143.552 502.448 144 503 144H513V154Z" fill="#222426"/>
</g>
<path d="M477.838 162.18C480.118 162.185 481.48 160.384 481.48 157.282C481.48 154.198 480.109 152.416 477.838 152.416C475.566 152.416 474.2 154.194 474.195 157.282C474.195 160.38 475.557 162.18 477.838 162.18ZM477.838 160.735C476.661 160.735 475.922 159.553 475.927 157.282C475.931 155.029 476.665 153.843 477.838 153.843C479.015 153.843 479.749 155.029 479.754 157.282C479.754 159.553 479.02 160.735 477.838 160.735ZM483.694 162.102C484.239 162.102 484.705 161.649 484.709 161.086C484.705 160.532 484.239 160.08 483.694 160.08C483.131 160.08 482.674 160.532 482.678 161.086C482.674 161.649 483.131 162.102 483.694 162.102ZM489.422 162.129C491.467 162.129 492.93 161.003 492.935 159.466C492.93 158.284 492.058 157.296 490.959 157.111V157.047C491.915 156.834 492.579 155.975 492.584 154.951C492.579 153.496 491.241 152.416 489.422 152.416C487.589 152.416 486.25 153.492 486.255 154.951C486.25 155.975 486.906 156.834 487.88 157.047V157.111C486.763 157.296 485.899 158.284 485.904 159.466C485.899 161.003 487.358 162.129 489.422 162.129ZM489.422 160.809C488.351 160.809 487.658 160.218 487.667 159.346C487.658 158.441 488.401 157.799 489.422 157.799C490.428 157.799 491.167 158.445 491.176 159.346C491.167 160.218 490.479 160.809 489.422 160.809ZM489.422 156.502C488.545 156.502 487.917 155.934 487.926 155.112C487.917 154.3 488.526 153.755 489.422 153.755C490.303 153.755 490.908 154.3 490.917 155.112C490.908 155.939 490.285 156.502 489.422 156.502ZM494.282 160.246H498.792V162H500.426V160.246H501.636V158.838H500.426V152.545H498.293L494.282 158.884V160.246ZM498.81 158.838H496.036V158.764L498.737 154.484H498.81V158.838ZM506.398 162.129C508.397 162.129 509.791 160.772 509.791 158.893C509.791 157.074 508.526 155.763 506.809 155.763C506.042 155.763 505.364 156.068 505.013 156.483H504.957L505.23 153.977H509.297V152.545H503.812L503.318 157.42L504.865 157.674C505.184 157.324 505.784 157.088 506.351 157.093C507.39 157.097 508.138 157.864 508.133 158.935C508.138 159.992 507.409 160.744 506.398 160.744C505.544 160.744 504.856 160.204 504.796 159.429H503.134C503.18 160.998 504.551 162.129 506.398 162.129ZM479.742 175H483.569C485.734 175 486.796 173.897 486.796 172.424C486.796 170.993 485.78 170.153 484.774 170.102V170.01C485.697 169.793 486.427 169.146 486.427 167.997C486.427 166.589 485.411 165.545 483.361 165.545H479.742V175ZM481.455 173.569V170.799H483.343C484.4 170.799 485.056 171.445 485.056 172.29C485.056 173.043 484.539 173.569 483.297 173.569H481.455ZM481.455 169.566V166.958H483.186C484.192 166.958 484.714 167.489 484.714 168.218C484.714 169.049 484.04 169.566 483.149 169.566H481.455ZM487.871 166.981H490.793V175H492.492V166.981H495.414V165.545H487.871V166.981ZM504.555 168.735C504.264 166.635 502.648 165.416 500.552 165.416C498.082 165.416 496.222 167.217 496.222 170.273C496.222 173.324 498.059 175.129 500.552 175.129C502.8 175.129 504.291 173.675 504.555 171.87L502.828 171.861C502.611 172.969 501.706 173.592 500.575 173.592C499.042 173.592 497.944 172.442 497.944 170.273C497.944 168.14 499.033 166.953 500.58 166.953C501.729 166.953 502.629 167.604 502.828 168.735H504.555Z" fill="#222426"/>
<circle cx="529" cy="129" r="31" fill="white" stroke="#222426" stroke-width="2"/>
<circle cx="529" cy="129" r="27.5" fill="white" stroke="#222426"/>
<path d="M514.741 123.818H512.987L510.456 125.444V127.134L512.837 125.613H512.897V134H514.741V123.818ZM520.899 134H525.02C527.352 134 528.495 132.812 528.495 131.226C528.495 129.685 527.402 128.78 526.318 128.725V128.626C527.312 128.392 528.098 127.696 528.098 126.458C528.098 124.942 527.004 123.818 524.797 123.818H520.899V134ZM522.743 132.459V129.476H524.777C525.915 129.476 526.621 130.172 526.621 131.082C526.621 131.892 526.064 132.459 524.727 132.459H522.743ZM522.743 128.148V125.339H524.608C525.691 125.339 526.253 125.911 526.253 126.697C526.253 127.592 525.527 128.148 524.568 128.148H522.743ZM529.653 125.364H532.8V134H534.629V125.364H537.776V123.818H529.653V125.364ZM547.62 127.254C547.307 124.991 545.567 123.679 543.309 123.679C540.65 123.679 538.646 125.618 538.646 128.909C538.646 132.195 540.625 134.139 543.309 134.139C545.731 134.139 547.336 132.573 547.62 130.629L545.76 130.619C545.527 131.812 544.552 132.484 543.334 132.484C541.684 132.484 540.501 131.246 540.501 128.909C540.501 126.612 541.674 125.335 543.339 125.335C544.577 125.335 545.547 126.036 545.76 127.254H547.62Z" fill="#222426"/>
</g>
<defs>
<filter id="filter0_ddddddd" x="478" y="107" width="72" height="72" filterUnits="userSpaceOnUse" color-interpolation-filters="sRGB">
<feFlood flood-opacity="0" result="BackgroundImageFix"/>
<feColorMatrix in="SourceAlpha" type="matrix" values="0 0 0 0 0 0 0 0 0 0 0 0 0 0 0 0 0 0 127 0"/>
<feOffset/>
<feGaussianBlur stdDeviation="7"/>
<feColorMatrix type="matrix" values="0 0 0 0 0.133333 0 0 0 0 0.141176 0 0 0 0 0.14902 0 0 0 1 0"/>
<feBlend mode="normal" in2="BackgroundImageFix" result="effect1_dropShadow"/>
<feColorMatrix in="SourceAlpha" type="matrix" values="0 0 0 0 0 0 0 0 0 0 0 0 0 0 0 0 0 0 127 0"/>
<feOffset/>
<feGaussianBlur stdDeviation="12"/>
<feColorMatrix type="matrix" values="0 0 0 0 0 0 0 0 0 0 0 0 0 0 0 0 0 0 0.25 0"/>
<feBlend mode="normal" in2="effect1_dropShadow" result="effect2_dropShadow"/>
<feColorMatrix in="SourceAlpha" type="matrix" values="0 0 0 0 0 0 0 0 0 0 0 0 0 0 0 0 0 0 127 0"/>
<feOffset/>
<feGaussianBlur stdDeviation="2"/>
<feColorMatrix type="matrix" values="0 0 0 0 0 0 0 0 0 0 0 0 0 0 0 0 0 0 0.25 0"/>
<feBlend mode="normal" in2="effect2_dropShadow" result="effect3_dropShadow"/>
<feColorMatrix in="SourceAlpha" type="matrix" values="0 0 0 0 0 0 0 0 0 0 0 0 0 0 0 0 0 0 127 0"/>
<feOffset/>
<feGaussianBlur stdDeviation="2"/>
<feColorMatrix type="matrix" values="0 0 0 0 0 0 0 0 0 0 0 0 0 0 0 0 0 0 0.25 0"/>
<feBlend mode="normal" in2="effect3_dropShadow" result="effect4_dropShadow"/>
<feColorMatrix in="SourceAlpha" type="matrix" values="0 0 0 0 0 0 0 0 0 0 0 0 0 0 0 0 0 0 127 0"/>
<feOffset/>
<feGaussianBlur stdDeviation="2"/>
<feColorMatrix type="matrix" values="0 0 0 0 0 0 0 0 0 0 0 0 0 0 0 0 0 0 0.25 0"/>
<feBlend mode="normal" in2="effect4_dropShadow" result="effect5_dropShadow"/>
<feColorMatrix in="SourceAlpha" type="matrix" values="0 0 0 0 0 0 0 0 0 0 0 0 0 0 0 0 0 0 127 0"/>
<feOffset/>
<feGaussianBlur stdDeviation="2"/>
<feColorMatrix type="matrix" values="0 0 0 0 0 0 0 0 0 0 0 0 0 0 0 0 0 0 0.25 0"/>
<feBlend mode="normal" in2="effect5_dropShadow" result="effect6_dropShadow"/>
<feColorMatrix in="SourceAlpha" type="matrix" values="0 0 0 0 0 0 0 0 0 0 0 0 0 0 0 0 0 0 127 0"/>
<feOffset dy="4"/>
<feGaussianBlur stdDeviation="2"/>
<feColorMatrix type="matrix" values="0 0 0 0 0 0 0 0 0 0 0 0 0 0 0 0 0 0 0.25 0"/>
<feBlend mode="normal" in2="effect6_dropShadow" result="effect7_dropShadow"/>
<feBlend mode="normal" in="SourceGraphic" in2="effect7_dropShadow" result="shape"/>
</filter>
<clipPath id="clip0">
<rect width="1000" height="300" fill="white"/>
</clipPath>
</defs>
</svg>
