<svg width="1336" height="400" viewBox="0 0 1336 400" fill="none" xmlns="http://www.w3.org/2000/svg">
<rect width="1336" height="400" fill="white"/>
<mask id="path-1-inside-1" fill="white">
<path fill-rule="evenodd" clip-rule="evenodd" d="M690.981 69.0908H582C576.477 69.0908 572 73.568 572 79.0908V320.909C572 326.432 576.477 330.909 582 330.909H754C759.523 330.909 764 326.432 764 320.909V142.109L690.981 69.0908Z"/>
</mask>
<path d="M690.981 69.0908L693.81 66.2624L692.638 65.0908H690.981V69.0908ZM764 142.109H768V140.453L766.828 139.281L764 142.109ZM582 73.0908H690.981V65.0908H582V73.0908ZM576 79.0908C576 75.7771 578.686 73.0908 582 73.0908V65.0908C574.268 65.0908 568 71.3588 568 79.0908H576ZM576 320.909V79.0908H568V320.909H576ZM582 326.909C578.686 326.909 576 324.223 576 320.909H568C568 328.641 574.268 334.909 582 334.909V326.909ZM754 326.909H582V334.909H754V326.909ZM760 320.909C760 324.223 757.314 326.909 754 326.909V334.909C761.732 334.909 768 328.641 768 320.909H760ZM760 142.109V320.909H768V142.109H760ZM766.828 139.281L693.81 66.2624L688.153 71.9192L761.172 144.938L766.828 139.281Z" fill="black" mask="url(#path-1-inside-1)"/>
<path d="M685.455 77.8181V147.636H755.273" stroke="black" stroke-width="4" stroke-linecap="round" stroke-linejoin="round"/>
</svg>
