<svg width="1336" height="400" viewBox="0 0 1336 400" fill="none" xmlns="http://www.w3.org/2000/svg">
<rect width="1336" height="400" fill="white"/>
<path d="M40 43C40 40.2386 42.2386 38 45 38H685C687.761 38 690 40.2386 690 43V107H40V43Z" fill="black"/>
<path d="M65.4596 81H69.0652L72.3888 69.5595H72.5256L75.8577 81H79.4633L84.4701 63.5018H80.4288L77.5324 75.6856H77.3786L74.1916 63.5018H70.7313L67.5358 75.66H67.3906L64.4942 63.5018H60.4528L65.4596 81ZM88.7144 81.2478C90.6539 81.2478 91.9098 80.4019 92.5506 79.1801H92.6532V81H96.1049V72.1484C96.1049 69.0213 93.4563 67.7055 90.5342 67.7055C87.39 67.7055 85.3224 69.2092 84.8183 71.6016L88.1846 71.875C88.4324 71.0035 89.2099 70.3627 90.5171 70.3627C91.756 70.3627 92.4652 70.9864 92.4652 72.0629V72.1142C92.4652 72.9601 91.5681 73.0711 89.2868 73.2933C86.6894 73.5325 84.3569 74.404 84.3569 77.3346C84.3569 79.932 86.211 81.2478 88.7144 81.2478ZM89.7567 78.7358C88.6375 78.7358 87.8343 78.2146 87.8343 77.215C87.8343 76.1897 88.6802 75.6856 89.9618 75.5062C90.7564 75.3951 92.0551 75.2071 92.4908 74.9166V76.3093C92.4908 77.6849 91.3545 78.7358 89.7567 78.7358ZM102.569 63.5018H98.9288V81H102.569V63.5018ZM109.124 63.5018H105.484V81H109.124V63.5018ZM118.02 81.2563C121.267 81.2563 123.454 79.6757 123.967 77.2406L120.601 77.0185C120.233 78.0181 119.293 78.5393 118.08 78.5393C116.26 78.5393 115.107 77.3346 115.107 75.378V75.3695H124.044V74.3698C124.044 69.9098 121.344 67.7055 117.875 67.7055C114.013 67.7055 111.51 70.4481 111.51 74.498C111.51 78.6589 113.979 81.2563 118.02 81.2563ZM115.107 73.1139C115.184 71.6187 116.32 70.4225 117.935 70.4225C119.516 70.4225 120.609 71.5503 120.618 73.1139H115.107ZM133.4 67.8764H130.93V64.7322H127.291V67.8764H125.496V70.6105H127.291V77.4457C127.274 80.0174 129.025 81.2905 131.665 81.1794C132.605 81.1452 133.271 80.9573 133.639 80.8377L133.066 78.1292C132.887 78.1634 132.503 78.2488 132.161 78.2488C131.435 78.2488 130.93 77.9754 130.93 76.9672V70.6105H133.4V67.8764Z" fill="white"/>
<g opacity="0.1">
<rect x="81" y="148" width="273" height="76" rx="4" fill="black"/>
<rect x="81" y="148" width="273" height="76" rx="4" stroke="black" stroke-width="2"/>
</g>
<path d="M398.58 180.384C402.98 180.384 405.637 177.035 405.646 171.268C405.654 165.543 402.963 162.263 398.58 162.263C394.188 162.263 391.522 165.535 391.514 171.268C391.497 177.018 394.171 180.376 398.58 180.384ZM398.58 177.317C396.572 177.317 395.273 175.301 395.282 171.268C395.29 167.295 396.581 165.296 398.58 165.296C400.571 165.296 401.869 167.295 401.869 171.268C401.878 175.301 400.579 177.317 398.58 177.317ZM409.717 180.222C410.811 180.222 411.759 179.308 411.768 178.172C411.759 177.052 410.811 176.138 409.717 176.138C408.589 176.138 407.658 177.052 407.666 178.172C407.658 179.308 408.589 180.222 409.717 180.222ZM420.972 180.239C424.868 180.239 427.516 177.702 427.508 174.164C427.516 170.815 425.175 168.406 422.023 168.406C420.485 168.406 419.16 169.047 418.545 169.909H418.443L418.895 165.526H426.542V162.502H415.845L415.016 171.729L418.306 172.319C418.844 171.593 419.887 171.14 420.92 171.14C422.68 171.148 423.945 172.421 423.945 174.258C423.945 176.078 422.706 177.334 420.972 177.334C419.502 177.334 418.314 176.412 418.229 175.053H414.64C414.709 178.078 417.349 180.239 420.972 180.239ZM435.759 180H439.348V177.898H439.51C440.014 178.992 441.116 180.214 443.235 180.214C446.226 180.214 448.558 177.847 448.558 173.455C448.558 168.944 446.123 166.705 443.244 166.705C441.048 166.705 439.997 168.013 439.51 169.081H439.399V162.502H435.759V180ZM439.322 173.438C439.322 171.097 440.313 169.602 442.082 169.602C443.885 169.602 444.842 171.165 444.842 173.438C444.842 175.728 443.867 177.317 442.082 177.317C440.33 177.317 439.322 175.779 439.322 173.438ZM450.987 180H454.627V166.876H450.987V180ZM452.815 165.185C453.9 165.185 454.789 164.356 454.789 163.339C454.789 162.331 453.9 161.502 452.815 161.502C451.739 161.502 450.85 162.331 450.85 163.339C450.85 164.356 451.739 165.185 452.815 165.185ZM464.523 166.876H462.053V163.732H458.414V166.876H456.619V169.61H458.414V176.446C458.397 179.017 460.148 180.29 462.788 180.179C463.728 180.145 464.395 179.957 464.762 179.838L464.189 177.129C464.01 177.163 463.626 177.249 463.284 177.249C462.558 177.249 462.053 176.975 462.053 175.967V169.61H464.523V166.876ZM472.682 180.256C476.177 180.256 478.373 178.206 478.543 175.19H475.109C474.895 176.591 473.972 177.377 472.725 177.377C471.025 177.377 469.923 175.95 469.923 173.438C469.923 170.96 471.033 169.542 472.725 169.542C474.058 169.542 474.912 170.422 475.109 171.729H478.543C478.39 168.696 476.091 166.705 472.665 166.705C468.684 166.705 466.223 169.465 466.223 173.489C466.223 177.48 468.641 180.256 472.682 180.256ZM486.803 180.256C490.785 180.256 493.263 177.531 493.263 173.489C493.263 169.422 490.785 166.705 486.803 166.705C482.822 166.705 480.344 169.422 480.344 173.489C480.344 177.531 482.822 180.256 486.803 180.256ZM486.82 177.437C484.984 177.437 484.044 175.754 484.044 173.464C484.044 171.174 484.984 169.482 486.82 169.482C488.623 169.482 489.563 171.174 489.563 173.464C489.563 175.754 488.623 177.437 486.82 177.437ZM495.629 180H499.269V166.876H495.629V180ZM497.458 165.185C498.543 165.185 499.431 164.356 499.431 163.339C499.431 162.331 498.543 161.502 497.458 161.502C496.381 161.502 495.493 162.331 495.493 163.339C495.493 164.356 496.381 165.185 497.458 165.185ZM505.825 172.413C505.833 170.721 506.841 169.73 508.311 169.73C509.772 169.73 510.652 170.687 510.643 172.293V180H514.283V171.644C514.283 168.585 512.489 166.705 509.755 166.705C507.807 166.705 506.397 167.662 505.807 169.192H505.654V166.876H502.185V180H505.825V172.413Z" fill="black"/>
<path d="M392.119 209H394.238V202.165H398.066C398.219 202.165 398.365 202.165 398.51 202.156L402.201 209H404.662L400.706 201.772C402.936 201.011 403.978 199.191 403.978 196.867C403.978 193.775 402.133 191.502 398.031 191.502H392.119V209ZM394.238 200.251V193.382H397.963C400.8 193.382 401.893 194.766 401.893 196.867C401.893 198.969 400.8 200.251 397.997 200.251H394.238ZM412.597 209.273C415.263 209.273 417.211 207.941 417.826 205.958L415.878 205.412C415.365 206.779 414.177 207.462 412.597 207.462C410.23 207.462 408.598 205.933 408.504 203.122H418.031V202.267C418.031 197.38 415.126 195.705 412.392 195.705C408.837 195.705 406.479 198.508 406.479 202.541C406.479 206.573 408.803 209.273 412.597 209.273ZM408.504 201.379C408.641 199.337 410.085 197.517 412.392 197.517C414.579 197.517 415.98 199.157 415.98 201.379H408.504ZM426.43 209.273C429.335 209.273 431.248 207.496 431.59 205.172H429.574C429.198 206.608 428.002 207.462 426.43 207.462C424.037 207.462 422.499 205.48 422.499 202.438C422.499 199.465 424.071 197.517 426.43 197.517C428.207 197.517 429.266 198.61 429.574 199.807H431.59C431.248 197.346 429.164 195.705 426.395 195.705C422.841 195.705 420.483 198.508 420.483 202.507C420.483 206.437 422.739 209.273 426.43 209.273ZM440.04 209.273C442.706 209.273 444.654 207.941 445.269 205.958L443.321 205.412C442.809 206.779 441.621 207.462 440.04 207.462C437.674 207.462 436.042 205.933 435.948 203.122H445.474V202.267C445.474 197.38 442.569 195.705 439.835 195.705C436.281 195.705 433.923 198.508 433.923 202.541C433.923 206.573 436.247 209.273 440.04 209.273ZM435.948 201.379C436.084 199.337 437.528 197.517 439.835 197.517C442.022 197.517 443.424 199.157 443.424 201.379H435.948ZM448.542 209H450.558V195.876H448.542V209ZM449.567 193.689C450.353 193.689 451.002 193.074 451.002 192.322C451.002 191.57 450.353 190.955 449.567 190.955C448.781 190.955 448.131 191.57 448.131 192.322C448.131 193.074 448.781 193.689 449.567 193.689ZM464.982 195.876H462.795L459.172 206.334H459.036L455.413 195.876H453.226L458.079 209H460.129L464.982 195.876ZM472.676 209.273C475.342 209.273 477.29 207.941 477.905 205.958L475.957 205.412C475.445 206.779 474.257 207.462 472.676 207.462C470.31 207.462 468.678 205.933 468.584 203.122H478.11V202.267C478.11 197.38 475.205 195.705 472.471 195.705C468.917 195.705 466.559 198.508 466.559 202.541C466.559 206.573 468.883 209.273 472.676 209.273ZM468.584 201.379C468.72 199.337 470.164 197.517 472.471 197.517C474.659 197.517 476.06 199.157 476.06 201.379H468.584ZM486.133 209.273C488.662 209.273 489.517 207.701 489.961 206.984H490.2V209H492.148V191.502H490.132V197.961H489.961C489.517 197.278 488.731 195.705 486.167 195.705C482.852 195.705 480.562 198.337 480.562 202.472C480.562 206.642 482.852 209.273 486.133 209.273ZM486.407 207.462C483.878 207.462 482.579 205.241 482.579 202.438C482.579 199.67 483.843 197.517 486.407 197.517C488.867 197.517 490.166 199.499 490.166 202.438C490.166 205.412 488.833 207.462 486.407 207.462ZM504.187 213.921C506.007 213.921 507.288 212.956 508.049 210.914L513.636 195.911L511.432 195.876L507.809 206.334H507.673L504.05 195.876H501.863L506.716 209.068L506.34 210.094C505.605 212.093 504.699 212.281 503.23 211.905L502.717 213.682C502.922 213.785 503.503 213.921 504.187 213.921ZM521.337 209.273C524.002 209.273 525.951 207.941 526.566 205.958L524.618 205.412C524.105 206.779 522.917 207.462 521.337 207.462C518.97 207.462 517.338 205.933 517.244 203.122H526.771V202.267C526.771 197.38 523.866 195.705 521.132 195.705C517.577 195.705 515.219 198.508 515.219 202.541C515.219 206.573 517.543 209.273 521.337 209.273ZM517.244 201.379C517.381 199.337 518.825 197.517 521.132 197.517C523.319 197.517 524.72 199.157 524.72 201.379H517.244ZM539.134 198.816C538.502 196.953 537.083 195.705 534.486 195.705C531.718 195.705 529.667 197.278 529.667 199.499C529.667 201.31 530.744 202.524 533.153 203.088L535.34 203.6C536.665 203.908 537.288 204.54 537.288 205.446C537.288 206.573 536.092 207.496 534.213 207.496C532.564 207.496 531.53 206.787 531.171 205.377L529.257 205.856C529.727 208.086 531.564 209.273 534.247 209.273C537.297 209.273 539.373 207.607 539.373 205.343C539.373 203.515 538.228 202.361 535.887 201.789L533.939 201.31C532.384 200.926 531.684 200.405 531.684 199.397C531.684 198.269 532.88 197.448 534.486 197.448C536.246 197.448 536.972 198.422 537.323 199.328L539.134 198.816ZM548.116 195.876H545.313V192.732H543.297V195.876H541.315V197.585H543.297V205.787C543.297 208.077 545.143 209.171 546.851 209.171C547.603 209.171 548.082 209.034 548.355 208.932L547.945 207.12C547.774 207.154 547.501 207.223 547.056 207.223C546.168 207.223 545.313 206.949 545.313 205.241V197.585H548.116V195.876ZM556.51 209.273C559.176 209.273 561.124 207.941 561.739 205.958L559.791 205.412C559.279 206.779 558.091 207.462 556.51 207.462C554.144 207.462 552.512 205.933 552.418 203.122H561.944V202.267C561.944 197.38 559.039 195.705 556.305 195.705C552.751 195.705 550.393 198.508 550.393 202.541C550.393 206.573 552.717 209.273 556.51 209.273ZM552.418 201.379C552.555 199.337 553.998 197.517 556.305 197.517C558.493 197.517 559.894 199.157 559.894 201.379H552.418ZM565.012 209H567.028V200.695C567.028 198.918 568.429 197.619 570.343 197.619C570.881 197.619 571.437 197.722 571.574 197.756V195.705C571.343 195.688 570.813 195.671 570.514 195.671C568.942 195.671 567.575 196.56 567.096 197.859H566.96V195.876H565.012V209ZM578.52 209.273C581.049 209.273 581.903 207.701 582.348 206.984H582.587V209H584.535V191.502H582.518V197.961H582.348C581.903 197.278 581.117 195.705 578.554 195.705C575.239 195.705 572.949 198.337 572.949 202.472C572.949 206.642 575.239 209.273 578.52 209.273ZM578.793 207.462C576.264 207.462 574.965 205.241 574.965 202.438C574.965 199.67 576.23 197.517 578.793 197.517C581.254 197.517 582.553 199.499 582.553 202.438C582.553 205.412 581.22 207.462 578.793 207.462ZM592.37 209.308C594.66 209.308 595.856 208.077 596.266 207.223H596.368V209H598.385V200.353C598.385 196.184 595.206 195.705 593.532 195.705C591.549 195.705 589.294 196.389 588.269 198.781L590.182 199.465C590.627 198.508 591.678 197.483 593.6 197.483C595.454 197.483 596.368 198.465 596.368 200.148V200.217C596.368 201.191 595.377 201.105 592.985 201.413C590.55 201.729 587.893 202.267 587.893 205.275C587.893 207.838 589.875 209.308 592.37 209.308ZM592.677 207.496C591.071 207.496 589.909 206.779 589.909 205.377C589.909 203.839 591.31 203.361 592.882 203.156C593.737 203.053 596.027 202.814 596.368 202.404V204.25C596.368 205.89 595.07 207.496 592.677 207.496ZM602.894 213.921C604.714 213.921 605.995 212.956 606.756 210.914L612.344 195.911L610.139 195.876L606.516 206.334H606.38L602.757 195.876H600.57L605.423 209.068L605.047 210.094C604.312 212.093 603.406 212.281 601.937 211.905L601.424 213.682C601.629 213.785 602.21 213.921 602.894 213.921Z" fill="black"/>
<rect x="376" y="148" width="273" height="76" rx="4" stroke="black" stroke-width="2"/>
<path d="M96.8261 278H109.3V274.975H101.952V274.856L104.507 272.352C108.104 269.071 109.07 267.431 109.07 265.44C109.07 262.407 106.592 260.263 102.841 260.263C99.1671 260.263 96.6466 262.458 96.6552 265.893H100.167C100.158 264.218 101.218 263.193 102.815 263.193C104.353 263.193 105.498 264.15 105.498 265.688C105.498 267.081 104.644 268.038 103.055 269.567L96.8261 275.334V278ZM117.652 278H121.241V275.898H121.403C121.907 276.992 123.009 278.214 125.128 278.214C128.119 278.214 130.451 275.847 130.451 271.455C130.451 266.944 128.016 264.705 125.137 264.705C122.941 264.705 121.89 266.013 121.403 267.081H121.292V260.502H117.652V278ZM121.215 271.438C121.215 269.097 122.206 267.602 123.975 267.602C125.778 267.602 126.734 269.165 126.734 271.438C126.734 273.728 125.76 275.317 123.975 275.317C122.223 275.317 121.215 273.779 121.215 271.438ZM132.88 278H136.52V264.876H132.88V278ZM134.708 263.185C135.793 263.185 136.682 262.356 136.682 261.339C136.682 260.331 135.793 259.502 134.708 259.502C133.632 259.502 132.743 260.331 132.743 261.339C132.743 262.356 133.632 263.185 134.708 263.185ZM146.416 264.876H143.946V261.732H140.307V264.876H138.512V267.61H140.307V274.446C140.29 277.017 142.041 278.29 144.681 278.179C145.621 278.145 146.287 277.957 146.655 277.838L146.082 275.129C145.903 275.163 145.519 275.249 145.177 275.249C144.45 275.249 143.946 274.975 143.946 273.967V267.61H146.416V264.876ZM154.575 278.256C158.07 278.256 160.266 276.206 160.436 273.19H157.002C156.788 274.591 155.865 275.377 154.618 275.377C152.918 275.377 151.815 273.95 151.815 271.438C151.815 268.96 152.926 267.542 154.618 267.542C155.951 267.542 156.805 268.422 157.002 269.729H160.436C160.283 266.696 157.984 264.705 154.558 264.705C150.577 264.705 148.116 267.465 148.116 271.489C148.116 275.48 150.534 278.256 154.575 278.256ZM168.696 278.256C172.678 278.256 175.156 275.531 175.156 271.489C175.156 267.422 172.678 264.705 168.696 264.705C164.715 264.705 162.237 267.422 162.237 271.489C162.237 275.531 164.715 278.256 168.696 278.256ZM168.713 275.437C166.876 275.437 165.937 273.754 165.937 271.464C165.937 269.174 166.876 267.482 168.713 267.482C170.516 267.482 171.456 269.174 171.456 271.464C171.456 273.754 170.516 275.437 168.713 275.437ZM177.522 278H181.162V264.876H177.522V278ZM179.351 263.185C180.436 263.185 181.324 262.356 181.324 261.339C181.324 260.331 180.436 259.502 179.351 259.502C178.274 259.502 177.386 260.331 177.386 261.339C177.386 262.356 178.274 263.185 179.351 263.185ZM187.717 270.413C187.726 268.721 188.734 267.73 190.204 267.73C191.665 267.73 192.545 268.687 192.536 270.293V278H196.176V269.644C196.176 266.585 194.382 264.705 191.648 264.705C189.7 264.705 188.29 265.662 187.7 267.192H187.547V264.876H184.078V278H187.717V270.413Z" fill="black"/>
<path d="M97.1189 307H99.2378V300.165H103.066C103.219 300.165 103.365 300.165 103.51 300.156L107.201 307H109.662L105.706 299.772C107.936 299.011 108.978 297.191 108.978 294.867C108.978 291.775 107.133 289.502 103.031 289.502H97.1189V307ZM99.2378 298.251V291.382H102.963C105.8 291.382 106.893 292.766 106.893 294.867C106.893 296.969 105.8 298.251 102.997 298.251H99.2378ZM117.597 307.273C120.263 307.273 122.211 305.941 122.826 303.958L120.878 303.412C120.365 304.779 119.177 305.462 117.597 305.462C115.23 305.462 113.598 303.933 113.504 301.122H123.031V300.267C123.031 295.38 120.126 293.705 117.392 293.705C113.837 293.705 111.479 296.508 111.479 300.541C111.479 304.573 113.803 307.273 117.597 307.273ZM113.504 299.379C113.641 297.337 115.085 295.517 117.392 295.517C119.579 295.517 120.98 297.157 120.98 299.379H113.504ZM131.43 307.273C134.335 307.273 136.248 305.496 136.59 303.172H134.574C134.198 304.608 133.002 305.462 131.43 305.462C129.037 305.462 127.499 303.48 127.499 300.438C127.499 297.465 129.071 295.517 131.43 295.517C133.207 295.517 134.266 296.61 134.574 297.807H136.59C136.248 295.346 134.164 293.705 131.395 293.705C127.841 293.705 125.483 296.508 125.483 300.507C125.483 304.437 127.739 307.273 131.43 307.273ZM145.04 307.273C147.706 307.273 149.654 305.941 150.269 303.958L148.321 303.412C147.809 304.779 146.621 305.462 145.04 305.462C142.674 305.462 141.042 303.933 140.948 301.122H150.474V300.267C150.474 295.38 147.569 293.705 144.835 293.705C141.281 293.705 138.923 296.508 138.923 300.541C138.923 304.573 141.247 307.273 145.04 307.273ZM140.948 299.379C141.084 297.337 142.528 295.517 144.835 295.517C147.022 295.517 148.424 297.157 148.424 299.379H140.948ZM153.542 307H155.558V293.876H153.542V307ZM154.567 291.689C155.353 291.689 156.002 291.074 156.002 290.322C156.002 289.57 155.353 288.955 154.567 288.955C153.781 288.955 153.131 289.57 153.131 290.322C153.131 291.074 153.781 291.689 154.567 291.689ZM169.982 293.876H167.795L164.172 304.334H164.036L160.413 293.876H158.226L163.079 307H165.129L169.982 293.876ZM177.676 307.273C180.342 307.273 182.29 305.941 182.905 303.958L180.957 303.412C180.445 304.779 179.257 305.462 177.676 305.462C175.31 305.462 173.678 303.933 173.584 301.122H183.11V300.267C183.11 295.38 180.205 293.705 177.471 293.705C173.917 293.705 171.559 296.508 171.559 300.541C171.559 304.573 173.883 307.273 177.676 307.273ZM173.584 299.379C173.72 297.337 175.164 295.517 177.471 295.517C179.659 295.517 181.06 297.157 181.06 299.379H173.584ZM191.133 307.273C193.662 307.273 194.517 305.701 194.961 304.984H195.2V307H197.148V289.502H195.132V295.961H194.961C194.517 295.278 193.731 293.705 191.167 293.705C187.852 293.705 185.562 296.337 185.562 300.472C185.562 304.642 187.852 307.273 191.133 307.273ZM191.407 305.462C188.878 305.462 187.579 303.241 187.579 300.438C187.579 297.67 188.843 295.517 191.407 295.517C193.867 295.517 195.166 297.499 195.166 300.438C195.166 303.412 193.833 305.462 191.407 305.462ZM209.904 289.502H207.888V307H209.904V289.502ZM217.459 307.308C219.749 307.308 220.945 306.077 221.356 305.223H221.458V307H223.474V298.353C223.474 294.184 220.296 293.705 218.621 293.705C216.639 293.705 214.384 294.389 213.358 296.781L215.272 297.465C215.717 296.508 216.767 295.483 218.69 295.483C220.544 295.483 221.458 296.465 221.458 298.148V298.217C221.458 299.191 220.467 299.105 218.075 299.413C215.64 299.729 212.982 300.267 212.982 303.275C212.982 305.838 214.965 307.308 217.459 307.308ZM217.767 305.496C216.161 305.496 214.999 304.779 214.999 303.377C214.999 301.839 216.4 301.361 217.972 301.156C218.827 301.053 221.116 300.814 221.458 300.404V302.25C221.458 303.89 220.159 305.496 217.767 305.496ZM236.451 296.816C235.818 294.953 234.4 293.705 231.803 293.705C229.035 293.705 226.984 295.278 226.984 297.499C226.984 299.31 228.061 300.524 230.47 301.088L232.657 301.6C233.982 301.908 234.605 302.54 234.605 303.446C234.605 304.573 233.409 305.496 231.529 305.496C229.88 305.496 228.847 304.787 228.488 303.377L226.574 303.856C227.044 306.086 228.881 307.273 231.564 307.273C234.614 307.273 236.69 305.607 236.69 303.343C236.69 301.515 235.545 300.361 233.204 299.789L231.256 299.31C229.701 298.926 229 298.405 229 297.397C229 296.269 230.197 295.448 231.803 295.448C233.563 295.448 234.289 296.422 234.639 297.328L236.451 296.816ZM245.433 293.876H242.63V290.732H240.614V293.876H238.632V295.585H240.614V303.787C240.614 306.077 242.459 307.171 244.168 307.171C244.92 307.171 245.398 307.034 245.672 306.932L245.262 305.12C245.091 305.154 244.817 305.223 244.373 305.223C243.485 305.223 242.63 304.949 242.63 303.241V295.585H245.433V293.876ZM258.206 307H260.188L263.059 296.918H263.264L266.135 307H268.117L272.116 293.876H269.997L267.16 303.89H267.023L264.255 293.876H262.102L259.3 303.924H259.163L256.326 293.876H254.207L258.206 307ZM279.837 307.273C282.503 307.273 284.451 305.941 285.066 303.958L283.118 303.412C282.606 304.779 281.418 305.462 279.837 305.462C277.471 305.462 275.839 303.933 275.745 301.122H285.271V300.267C285.271 295.38 282.366 293.705 279.632 293.705C276.078 293.705 273.72 296.508 273.72 300.541C273.72 304.573 276.044 307.273 279.837 307.273ZM275.745 299.379C275.881 297.337 277.325 295.517 279.632 295.517C281.82 295.517 283.221 297.157 283.221 299.379H275.745ZM293.841 307.273C296.507 307.273 298.455 305.941 299.07 303.958L297.122 303.412C296.609 304.779 295.422 305.462 293.841 305.462C291.474 305.462 289.842 303.933 289.748 301.122H299.275V300.267C299.275 295.38 296.37 293.705 293.636 293.705C290.082 293.705 287.723 296.508 287.723 300.541C287.723 304.573 290.047 307.273 293.841 307.273ZM289.748 299.379C289.885 297.337 291.329 295.517 293.636 295.517C295.823 295.517 297.224 297.157 297.224 299.379H289.748ZM302.342 307H304.359V302.087L305.768 300.78L310.681 307H313.245L307.289 299.481L312.834 293.876H310.34L304.598 299.72H304.359V289.502H302.342V307Z" fill="black"/>
<rect x="81" y="246" width="273" height="76" rx="4" stroke="black" stroke-width="2"/>
<g opacity="0.1">
<rect x="376" y="246" width="273" height="76" rx="4" fill="black"/>
<rect x="376" y="246" width="273" height="76" rx="4" stroke="black" stroke-width="2"/>
</g>
<rect x="41" y="39" width="648" height="323" rx="4" stroke="black" stroke-width="2"/>
<path d="M714.2 232.535L703.457 240.242M714.2 232.535L705.439 222.429M714.2 232.535C700.333 227.018 677.967 235.416 662 245.119" stroke="white" stroke-width="18" stroke-linecap="round" stroke-linejoin="round"/>
<path d="M645.29 258.339C655.104 246.36 693.826 224.429 714.2 232.535M714.2 232.535L703.457 240.242M714.2 232.535L705.439 222.428" stroke="black" stroke-width="3" stroke-linecap="round" stroke-linejoin="round"/>
<path d="M787.854 159.552H793.212V174H796.868V159.552H802.225V156.502H787.854V159.552ZM803.161 174H806.801V166.575C806.801 164.96 807.98 163.85 809.586 163.85C810.09 163.85 810.782 163.935 811.124 164.046V160.817C810.799 160.74 810.347 160.688 809.979 160.688C808.51 160.688 807.305 161.543 806.826 163.166H806.69V160.876H803.161V174ZM816.372 174.248C818.312 174.248 819.568 173.402 820.209 172.18H820.311V174H823.763V165.148C823.763 162.021 821.114 160.705 818.192 160.705C815.048 160.705 812.98 162.209 812.476 164.602L815.843 164.875C816.09 164.003 816.868 163.363 818.175 163.363C819.414 163.363 820.123 163.986 820.123 165.063V165.114C820.123 165.96 819.226 166.071 816.945 166.293C814.347 166.533 812.015 167.404 812.015 170.335C812.015 172.932 813.869 174.248 816.372 174.248ZM817.415 171.736C816.295 171.736 815.492 171.215 815.492 170.215C815.492 169.19 816.338 168.686 817.62 168.506C818.414 168.395 819.713 168.207 820.149 167.917V169.309C820.149 170.685 819.012 171.736 817.415 171.736ZM830.226 166.413C830.235 164.721 831.243 163.73 832.713 163.73C834.174 163.73 835.054 164.687 835.045 166.293V174H838.685V165.644C838.685 162.585 836.891 160.705 834.157 160.705C832.209 160.705 830.799 161.662 830.209 163.192H830.056V160.876H826.587V174H830.226V166.413ZM852.473 164.619C852.148 162.201 850.2 160.705 846.885 160.705C843.527 160.705 841.314 162.26 841.323 164.79C841.314 166.755 842.553 168.028 845.117 168.54L847.389 168.993C848.534 169.224 849.055 169.643 849.072 170.3C849.055 171.078 848.209 171.633 846.936 171.633C845.638 171.633 844.775 171.078 844.553 170.01L840.973 170.198C841.314 172.71 843.45 174.256 846.928 174.256C850.328 174.256 852.763 172.522 852.772 169.933C852.763 168.036 851.525 166.9 848.978 166.379L846.603 165.9C845.381 165.635 844.929 165.217 844.937 164.584C844.929 163.798 845.817 163.286 846.945 163.286C848.209 163.286 848.961 163.978 849.141 164.824L852.473 164.619ZM858.806 174.248C860.746 174.248 862.002 173.402 862.642 172.18H862.745V174H866.197V165.148C866.197 162.021 863.548 160.705 860.626 160.705C857.482 160.705 855.414 162.209 854.91 164.602L858.276 164.875C858.524 164.003 859.302 163.363 860.609 163.363C861.848 163.363 862.557 163.986 862.557 165.063V165.114C862.557 165.96 861.66 166.071 859.379 166.293C856.781 166.533 854.449 167.404 854.449 170.335C854.449 172.932 856.303 174.248 858.806 174.248ZM859.849 171.736C858.729 171.736 857.926 171.215 857.926 170.215C857.926 169.19 858.772 168.686 860.054 168.506C860.848 168.395 862.147 168.207 862.583 167.917V169.309C862.583 170.685 861.446 171.736 859.849 171.736ZM874.95 174.256C878.445 174.256 880.64 172.206 880.811 169.19H877.377C877.163 170.591 876.24 171.377 874.993 171.377C873.293 171.377 872.19 169.95 872.19 167.438C872.19 164.96 873.301 163.542 874.993 163.542C876.326 163.542 877.18 164.422 877.377 165.729H880.811C880.658 162.696 878.359 160.705 874.933 160.705C870.952 160.705 868.491 163.465 868.491 167.489C868.491 171.48 870.909 174.256 874.95 174.256ZM890.122 160.876H887.653V157.732H884.013V160.876H882.219V163.61H884.013V170.446C883.996 173.017 885.748 174.29 888.388 174.179C889.328 174.145 889.994 173.957 890.361 173.838L889.789 171.129C889.61 171.163 889.225 171.249 888.883 171.249C888.157 171.249 887.653 170.975 887.653 169.967V163.61H890.122V160.876ZM892.493 174H896.133V160.876H892.493V174ZM894.322 159.185C895.407 159.185 896.295 158.356 896.295 157.339C896.295 156.331 895.407 155.502 894.322 155.502C893.245 155.502 892.356 156.331 892.356 157.339C892.356 158.356 893.245 159.185 894.322 159.185ZM904.978 174.256C908.96 174.256 911.437 171.531 911.437 167.489C911.437 163.422 908.96 160.705 904.978 160.705C900.997 160.705 898.519 163.422 898.519 167.489C898.519 171.531 900.997 174.256 904.978 174.256ZM904.995 171.437C903.158 171.437 902.218 169.754 902.218 167.464C902.218 165.174 903.158 163.482 904.995 163.482C906.798 163.482 907.738 165.174 907.738 167.464C907.738 169.754 906.798 171.437 904.995 171.437ZM917.444 166.413C917.452 164.721 918.461 163.73 919.93 163.73C921.391 163.73 922.271 164.687 922.263 166.293V174H925.902V165.644C925.902 162.585 924.108 160.705 921.374 160.705C919.426 160.705 918.016 161.662 917.427 163.192H917.273V160.876H913.804V174H917.444V166.413Z" fill="black"/>
<line x1="747" y1="199" x2="1295" y2="199" stroke="black" stroke-width="2" stroke-dasharray="10 10"/>
<g opacity="0.1">
<rect x="787" y="240" width="224" height="49" rx="5" fill="black"/>
</g>
<path d="M1055.03 255.502H1051.55L1047.22 258.244V261.525L1051.23 259.013H1051.33V273H1055.03V255.502ZM1064.86 273H1068.45V270.898H1068.61C1069.12 271.992 1070.22 273.214 1072.34 273.214C1075.33 273.214 1077.66 270.847 1077.66 266.455C1077.66 261.944 1075.22 259.705 1072.35 259.705C1070.15 259.705 1069.1 261.013 1068.61 262.081H1068.5V255.502H1064.86V273ZM1068.42 266.438C1068.42 264.097 1069.41 262.602 1071.18 262.602C1072.99 262.602 1073.94 264.165 1073.94 266.438C1073.94 268.728 1072.97 270.317 1071.18 270.317C1069.43 270.317 1068.42 268.779 1068.42 266.438ZM1080.09 273H1083.73V259.876H1080.09V273ZM1081.92 258.185C1083 258.185 1083.89 257.356 1083.89 256.339C1083.89 255.331 1083 254.502 1081.92 254.502C1080.84 254.502 1079.95 255.331 1079.95 256.339C1079.95 257.356 1080.84 258.185 1081.92 258.185ZM1093.62 259.876H1091.16V256.732H1087.52V259.876H1085.72V262.61H1087.52V269.446C1087.5 272.017 1089.25 273.29 1091.89 273.179C1092.83 273.145 1093.5 272.957 1093.86 272.838L1093.29 270.129C1093.11 270.163 1092.73 270.249 1092.39 270.249C1091.66 270.249 1091.16 269.975 1091.16 268.967V262.61H1093.62V259.876ZM1101.78 273.256C1105.28 273.256 1107.47 271.206 1107.65 268.19H1104.21C1104 269.591 1103.07 270.377 1101.83 270.377C1100.13 270.377 1099.02 268.95 1099.02 266.438C1099.02 263.96 1100.13 262.542 1101.83 262.542C1103.16 262.542 1104.01 263.422 1104.21 264.729H1107.65C1107.49 261.696 1105.19 259.705 1101.77 259.705C1097.79 259.705 1095.32 262.465 1095.32 266.489C1095.32 270.48 1097.74 273.256 1101.78 273.256ZM1115.91 273.256C1119.89 273.256 1122.36 270.531 1122.36 266.489C1122.36 262.422 1119.89 259.705 1115.91 259.705C1111.92 259.705 1109.45 262.422 1109.45 266.489C1109.45 270.531 1111.92 273.256 1115.91 273.256ZM1115.92 270.437C1114.09 270.437 1113.15 268.754 1113.15 266.464C1113.15 264.174 1114.09 262.482 1115.92 262.482C1117.73 262.482 1118.66 264.174 1118.66 266.464C1118.66 268.754 1117.73 270.437 1115.92 270.437ZM1124.73 273H1128.37V259.876H1124.73V273ZM1126.56 258.185C1127.64 258.185 1128.53 257.356 1128.53 256.339C1128.53 255.331 1127.64 254.502 1126.56 254.502C1125.48 254.502 1124.59 255.331 1124.59 256.339C1124.59 257.356 1125.48 258.185 1126.56 258.185ZM1134.93 265.413C1134.93 263.721 1135.94 262.73 1137.41 262.73C1138.87 262.73 1139.75 263.687 1139.75 265.293V273H1143.38V264.644C1143.38 261.585 1141.59 259.705 1138.86 259.705C1136.91 259.705 1135.5 260.662 1134.91 262.192H1134.76V259.876H1131.29V273H1134.93V265.413Z" fill="black"/>
<rect x="1032" y="241" width="222" height="47" rx="4" stroke="black" stroke-width="2"/>
<rect x="748" y="132" width="546" height="196" rx="4" stroke="black" stroke-width="2" stroke-dasharray="10 10"/>
<rect x="736.846" y="207.851" width="223" height="47" rx="4" transform="rotate(3.73207 736.846 207.851)" fill="white"/>
<path d="M750.555 240.813L763.003 241.625L763.2 238.607L755.868 238.129L755.875 238.01L758.588 235.678C762.391 232.638 763.461 231.064 763.59 229.077C763.788 226.051 761.455 223.749 757.712 223.505C754.046 223.266 751.388 225.293 751.173 228.721L754.677 228.95C754.777 227.278 755.901 226.324 757.496 226.428C759.03 226.528 760.111 227.557 760.01 229.092C759.92 230.482 759.005 231.381 757.319 232.804L750.729 238.153L750.555 240.813ZM771.337 242.169L774.918 242.403L775.055 240.305L775.217 240.316C775.649 241.44 776.669 242.731 778.783 242.869C781.767 243.063 784.249 240.854 784.535 236.471C784.829 231.97 782.544 229.577 779.671 229.39C777.48 229.247 776.346 230.483 775.791 231.517L775.68 231.51L776.108 224.945L772.476 224.708L771.337 242.169ZM775.32 235.853C775.472 233.517 776.558 232.089 778.323 232.205C780.122 232.322 780.975 233.944 780.827 236.212C780.678 238.497 779.603 240.02 777.821 239.903C776.073 239.789 775.167 238.189 775.32 235.853ZM786.532 243.16L790.164 243.397L791.019 230.301L787.387 230.064L786.532 243.16ZM789.321 228.495C790.404 228.566 791.345 227.797 791.411 226.782C791.477 225.776 790.644 224.891 789.561 224.821C788.487 224.751 787.546 225.52 787.48 226.526C787.414 227.54 788.247 228.425 789.321 228.495ZM800.894 230.946L798.43 230.785L798.635 227.647L795.002 227.41L794.798 230.548L793.007 230.431L792.829 233.159L794.62 233.276L794.175 240.097C793.99 242.662 795.655 244.046 798.297 244.107C799.237 244.135 799.914 243.99 800.289 243.895L799.894 241.155C799.713 241.177 799.323 241.238 798.982 241.215C798.258 241.168 797.772 240.862 797.838 239.856L798.252 233.513L800.716 233.674L800.894 230.946ZM808.165 244.828C811.652 245.056 813.977 243.152 814.344 240.154L810.916 239.93C810.612 241.315 809.64 242.039 808.395 241.958C806.699 241.847 805.692 240.352 805.855 237.845C806.016 235.372 807.217 234.029 808.905 234.139C810.235 234.226 811.031 235.16 811.142 236.477L814.569 236.701C814.613 233.664 812.449 231.528 809.03 231.305C805.057 231.046 802.422 233.64 802.16 237.655C801.9 241.637 804.132 244.565 808.165 244.828ZM822.256 245.747C826.229 246.007 828.879 243.448 829.142 239.415C829.407 235.357 827.111 232.484 823.138 232.225C819.165 231.966 816.516 234.516 816.251 238.574C815.988 242.607 818.283 245.488 822.256 245.747ZM822.457 242.935C820.624 242.815 819.796 241.075 819.945 238.79C820.094 236.505 821.142 234.878 822.975 234.997C824.774 235.115 825.601 236.864 825.452 239.149C825.303 241.434 824.256 243.052 822.457 242.935ZM831.08 246.066L834.712 246.303L835.567 233.207L831.935 232.97L831.08 246.066ZM833.869 231.401C834.952 231.472 835.893 230.703 835.959 229.688C836.024 228.682 835.192 227.797 834.109 227.726C833.035 227.656 832.094 228.426 832.028 229.432C831.962 230.446 832.795 231.331 833.869 231.401ZM841.748 239.159C841.866 237.471 842.937 236.548 844.403 236.643C845.861 236.738 846.677 237.751 846.564 239.353L846.062 247.043L849.695 247.28L850.238 238.942C850.438 235.89 848.769 233.897 846.041 233.719C844.097 233.592 842.628 234.456 841.94 235.943L841.787 235.933L841.938 233.623L838.476 233.397L837.622 246.493L841.254 246.73L841.748 239.159Z" fill="black"/>
<rect x="736.846" y="207.851" width="223" height="47" rx="4" transform="rotate(3.73207 736.846 207.851)" stroke="black" stroke-width="2"/>
</svg>
