<svg width="1336" height="400" viewBox="0 0 1336 400" fill="none" xmlns="http://www.w3.org/2000/svg">
<rect width="1336" height="400" fill="white"/>
<path d="M339.506 301.339C341.635 301.32 343.737 300.909 345.701 300.069C347.672 299.226 349.468 297.98 350.955 296.423C352.441 294.866 353.611 293.007 354.375 290.986C355.07 289.148 355.417 287.194 355.425 285.228C355.427 284.881 355.425 284.535 355.425 284.188C355.425 283.282 355.425 282.375 355.425 281.469C355.425 280.056 355.425 278.642 355.425 277.229C355.425 275.36 355.425 273.492 355.425 271.624C355.425 269.353 355.425 267.083 355.425 264.813C355.425 262.2 355.425 259.587 355.425 256.974C355.425 254.065 355.425 251.156 355.425 248.247C355.425 245.085 355.425 241.924 355.425 238.762C355.425 235.408 355.425 232.053 355.425 228.698C355.425 225.203 355.425 221.708 355.425 218.213C355.425 214.64 355.425 211.066 355.425 207.493C355.425 203.884 355.425 200.275 355.425 196.666C355.425 193.063 355.425 189.461 355.425 185.859C355.425 182.326 355.425 178.792 355.425 175.259C355.425 171.847 355.425 168.435 355.425 165.023C355.425 161.793 355.425 158.563 355.425 155.333C355.425 152.328 355.425 149.323 355.425 146.318C355.425 143.582 355.425 140.847 355.425 138.112C355.425 135.708 355.425 133.303 355.425 130.899C355.425 128.877 355.425 126.856 355.425 124.834C355.425 123.252 355.425 121.67 355.425 120.088C355.425 118.991 355.425 117.894 355.425 116.797C355.425 116.237 355.425 115.676 355.425 115.116C355.425 113.861 355.309 112.614 355.036 111.388C354.569 109.294 353.685 107.299 352.45 105.554C351.214 103.809 349.632 102.319 347.822 101.198C346.012 100.076 343.983 99.3279 341.883 99.0063C340.811 98.8422 339.738 98.8252 338.658 98.8252C337.182 98.8252 335.707 98.8252 334.232 98.8252C331.77 98.8252 329.308 98.8252 326.847 98.8252C323.711 98.8252 320.575 98.8252 317.439 98.8252C313.96 98.8252 310.481 98.8252 307.002 98.8252C303.453 98.8252 299.904 98.8252 296.355 98.8252C293.066 98.8252 289.776 98.8252 286.488 98.8252C283.77 98.8252 281.053 98.8252 278.336 98.8252C276.503 98.8252 274.67 98.8252 272.836 98.8252C272.11 98.8252 271.383 98.815 270.657 98.8275C268.54 98.8641 266.439 99.3303 264.501 100.193C262.549 101.062 260.777 102.333 259.316 103.905C257.85 105.484 256.705 107.363 255.97 109.397C255.328 111.175 255.008 113.053 255.001 114.944C254.999 115.312 255.001 115.681 255.001 116.049C255.001 116.975 255.001 117.902 255.001 118.828C255.001 120.26 255.001 121.691 255.001 123.123C255.001 125.007 255.001 126.891 255.001 128.776C255.001 131.06 255.001 133.345 255.001 135.629C255.001 138.247 255.001 140.864 255.001 143.482C255.001 146.408 255.001 149.335 255.001 152.261C255.001 155.431 255.001 158.601 255.001 161.771C255.001 165.132 255.001 168.493 255.001 171.854C255.001 175.353 255.001 178.852 255.001 182.352C255.001 185.918 255.001 189.484 255.001 193.05C255.001 196.669 255.001 200.288 255.001 203.907C255.001 207.508 255.001 211.109 255.001 214.709C255.001 218.239 255.001 221.769 255.001 225.298C255.001 228.705 255.001 232.111 255.001 235.518C255.001 238.74 255.001 241.962 255.001 245.185C255.001 248.18 255.001 251.176 255.001 254.171C255.001 256.895 255.001 259.619 255.001 262.342C255.001 264.733 255.001 267.125 255.001 269.515C255.001 271.521 255.001 273.527 255.001 275.533C255.001 277.098 255.001 278.663 255.001 280.228C255.001 281.305 255.001 282.383 255.001 283.46C255.001 284 255.001 284.539 255.001 285.078C255.001 286.401 255.136 287.716 255.443 289.003C255.943 291.1 256.86 293.092 258.132 294.825C259.392 296.543 260.989 297.999 262.808 299.091C264.63 300.185 266.672 300.902 268.771 301.191C269.803 301.333 270.833 301.339 271.87 301.339C273.389 301.339 274.907 301.339 276.425 301.339C278.918 301.339 281.41 301.339 283.903 301.339C287.058 301.339 290.213 301.339 293.368 301.339C296.855 301.339 300.342 301.339 303.828 301.339C307.373 301.339 310.918 301.339 314.463 301.339C317.736 301.339 321.009 301.339 324.283 301.339C326.972 301.339 329.662 301.339 332.351 301.339C334.145 301.339 335.939 301.339 337.733 301.339C337.821 301.339 339.506 301.339 339.506 301.339Z" stroke="black" stroke-width="2" stroke-miterlimit="10" stroke-linecap="round" stroke-linejoin="round"/>
<path d="M323.061 112.922C321.173 112.922 319.286 112.922 317.398 112.922C314.264 112.922 311.13 112.922 307.995 112.922C306.82 112.922 305.645 112.922 304.47 112.922C301.742 112.922 299.015 112.922 296.287 112.922C293.592 112.922 290.897 112.922 288.202 112.922C286.656 112.922 285.081 112.864 283.711 112.044C282.891 111.554 282.25 110.824 281.836 109.96C281.61 109.489 281.45 108.987 281.338 108.477C281.256 108.098 281.232 107.707 281.144 107.331C281.033 106.86 280.779 106.421 280.301 106.264C280.117 106.204 279.927 106.197 279.736 106.197C279.302 106.196 278.867 106.197 278.433 106.197C275.898 106.197 273.362 106.186 270.827 106.197C268.693 106.206 266.611 107.01 265.032 108.463C263.448 109.922 262.447 111.968 262.262 114.125C262.223 114.577 262.23 115.031 262.23 115.485C262.23 116.182 262.23 116.88 262.23 117.577C262.23 118.729 262.23 119.881 262.23 121.033C262.23 122.598 262.23 124.162 262.23 125.727C262.23 127.667 262.23 129.608 262.23 131.548C262.23 133.819 262.23 136.089 262.23 138.359C262.23 140.908 262.23 143.458 262.23 146.007C262.23 148.799 262.23 151.592 262.23 154.384C262.23 157.377 262.23 160.371 262.23 163.364C262.23 166.515 262.23 169.667 262.23 172.818C262.23 176.086 262.23 179.354 262.23 182.622C262.23 185.973 262.23 189.324 262.23 192.676C262.23 196.059 262.23 199.442 262.23 202.825C262.23 206.188 262.23 209.55 262.23 212.913C262.23 216.222 262.23 219.531 262.23 222.841C262.23 226.055 262.23 229.269 262.23 232.483C262.23 235.559 262.23 238.635 262.23 241.711C262.23 244.608 262.23 247.504 262.23 250.4C262.23 253.074 262.23 255.749 262.23 258.422C262.23 260.838 262.23 263.255 262.23 265.671C262.23 267.778 262.23 269.885 262.23 271.993C262.23 273.744 262.23 275.496 262.23 277.247C262.23 278.607 262.23 279.967 262.23 281.327C262.23 282.253 262.23 283.179 262.23 284.105C262.23 284.555 262.23 285.005 262.23 285.455C262.232 286.849 262.525 288.217 263.147 289.466C264.115 291.407 265.805 292.938 267.823 293.696C268.965 294.125 270.14 294.243 271.346 294.243C272.535 294.243 273.724 294.243 274.913 294.243C277.016 294.243 279.119 294.243 281.222 294.243C283.986 294.243 286.751 294.243 289.515 294.243C292.689 294.243 295.863 294.243 299.037 294.243C302.369 294.243 305.701 294.243 309.032 294.243C312.269 294.243 315.506 294.243 318.743 294.243C321.64 294.243 324.538 294.243 327.435 294.243C329.729 294.243 332.024 294.243 334.318 294.243C335.752 294.243 337.186 294.243 338.62 294.243C339.481 294.243 340.338 294.264 341.191 294.114C343.303 293.742 345.236 292.559 346.539 290.84C347.687 289.326 348.302 287.458 348.309 285.554C348.31 285.229 348.309 284.904 348.309 284.58C348.309 283.765 348.309 282.95 348.309 282.135C348.309 280.874 348.309 279.613 348.309 278.351C348.309 276.691 348.309 275.03 348.309 273.37C348.309 271.35 348.309 269.33 348.309 267.31C348.309 264.973 348.309 262.636 348.309 260.299C348.309 257.686 348.309 255.074 348.309 252.462C348.309 249.617 348.309 246.772 348.309 243.927C348.309 240.891 348.309 237.856 348.309 234.82C348.309 231.627 348.309 228.434 348.309 225.241C348.309 221.942 348.309 218.642 348.309 215.343C348.309 211.989 348.309 208.636 348.309 205.282C348.309 201.908 348.309 198.533 348.309 195.158C348.309 191.805 348.309 188.451 348.309 185.098C348.309 181.807 348.309 178.518 348.309 175.227C348.309 172.043 348.309 168.859 348.309 165.674C348.309 162.629 348.309 159.584 348.309 156.539C348.309 153.686 348.309 150.832 348.309 147.979C348.309 145.367 348.309 142.754 348.309 140.142C348.309 137.805 348.309 135.468 348.309 133.131C348.309 131.111 348.309 129.091 348.309 127.071C348.309 125.41 348.309 123.75 348.309 122.09C348.309 120.831 348.309 119.573 348.309 118.314C348.309 117.5 348.309 116.686 348.309 115.871C348.309 115.543 348.31 115.215 348.309 114.887C348.301 112.983 347.687 111.115 346.539 109.601C345.236 107.881 343.303 106.699 341.191 106.327C340.399 106.187 339.606 106.198 338.806 106.198C337.3 106.198 335.793 106.198 334.286 106.198C333.123 106.198 331.96 106.195 330.796 106.198C330.373 106.199 329.976 106.292 329.701 106.642C329.295 107.161 329.329 107.901 329.192 108.516C328.975 109.487 328.571 110.428 327.9 111.169C327.3 111.831 326.521 112.288 325.678 112.559C325.254 112.695 324.817 112.786 324.376 112.843C324.262 112.856 323.061 112.954 323.061 112.922Z" stroke="black" stroke-width="2" stroke-miterlimit="10" stroke-linecap="round" stroke-linejoin="round"/>
<rect x="268" y="202.821" width="74.5217" height="35.4312" rx="9" fill="white" stroke="black" stroke-width="2"/>
<path d="M275.373 226.821H277.481V222.56H279.628L281.912 226.821H284.265L281.748 222.208C283.117 221.657 283.839 220.486 283.839 218.907C283.839 216.685 282.407 215.185 279.736 215.185H275.373V226.821ZM277.481 220.81V216.946H279.412C280.986 216.946 281.691 217.668 281.691 218.907C281.691 220.145 280.986 220.81 279.424 220.81H277.481ZM289.427 226.992C291.461 226.992 292.858 225.997 293.222 224.48L291.302 224.264C291.023 225.003 290.341 225.389 289.455 225.389C288.125 225.389 287.245 224.514 287.228 223.02H293.307V222.389C293.307 219.327 291.466 217.98 289.319 217.98C286.819 217.98 285.188 219.816 285.188 222.509C285.188 225.247 286.796 226.992 289.427 226.992ZM287.233 221.634C287.296 220.52 288.12 219.583 289.347 219.583C290.529 219.583 291.324 220.446 291.336 221.634H287.233ZM295.047 230.094H297.104V225.446H297.189C297.513 226.083 298.189 226.975 299.689 226.975C301.746 226.975 303.286 225.344 303.286 222.469C303.286 219.56 301.701 217.98 299.684 217.98C298.144 217.98 297.502 218.907 297.189 219.537H297.07V218.094H295.047V230.094ZM297.064 222.458C297.064 220.764 297.792 219.668 299.116 219.668C300.485 219.668 301.189 220.833 301.189 222.458C301.189 224.094 300.473 225.287 299.116 225.287C297.803 225.287 297.064 224.151 297.064 222.458ZM307.104 215.185H305.047V226.821H307.104V215.185ZM311.731 226.997C313.1 226.997 313.918 226.355 314.293 225.622H314.361V226.821H316.339V220.98C316.339 218.674 314.458 217.98 312.793 217.98C310.958 217.98 309.549 218.799 309.094 220.389L311.015 220.662C311.219 220.066 311.799 219.554 312.804 219.554C313.759 219.554 314.282 220.043 314.282 220.901V220.935C314.282 221.526 313.662 221.554 312.123 221.719C310.429 221.901 308.81 222.407 308.81 224.372C308.81 226.088 310.066 226.997 311.731 226.997ZM312.265 225.486C311.407 225.486 310.793 225.094 310.793 224.338C310.793 223.549 311.481 223.219 312.401 223.088C312.941 223.014 314.02 222.878 314.287 222.662V223.691C314.287 224.662 313.503 225.486 312.265 225.486ZM322.214 226.992C324.407 226.992 325.804 225.691 325.952 223.838H323.986C323.81 224.776 323.134 225.316 322.231 225.316C320.947 225.316 320.117 224.242 320.117 222.458C320.117 220.696 320.964 219.639 322.231 219.639C323.219 219.639 323.827 220.276 323.986 221.117H325.952C325.81 219.225 324.333 217.98 322.202 217.98C319.645 217.98 318.032 219.827 318.032 222.492C318.032 225.134 319.606 226.992 322.214 226.992ZM331.505 226.992C333.539 226.992 334.937 225.997 335.3 224.48L333.38 224.264C333.101 225.003 332.42 225.389 331.533 225.389C330.204 225.389 329.323 224.514 329.306 223.02H335.385V222.389C335.385 219.327 333.545 217.98 331.397 217.98C328.897 217.98 327.266 219.816 327.266 222.509C327.266 225.247 328.874 226.992 331.505 226.992ZM329.312 221.634C329.374 220.52 330.198 219.583 331.425 219.583C332.607 219.583 333.402 220.446 333.414 221.634H329.312Z" fill="black"/>
<path d="M325.886 275.248L322.286 268.155C321.9 267.268 321 265.115 321 262.961C321 256.755 326.143 255.488 326.143 255.488V227.495C326.143 225.088 328.2 223.821 330 223.821C331.8 223.821 333.857 225.088 333.857 227.621V247.888V245.355C333.857 243.581 335.271 241.555 337.714 241.555C340.157 241.555 341.571 243.581 341.571 245.355C341.571 245.355 341.571 247.255 341.571 246.621C341.571 244.848 342.471 242.821 345.429 242.821C348 242.821 349.286 245.608 349.286 249.155C349.286 247.381 349.929 245.355 353.143 245.355C356.357 245.355 357 248.648 357 250.421V270.688C357 276.261 352.371 280.821 346.714 280.821H335.014C331.157 280.821 327.557 278.668 325.886 275.248ZM336.429 269.421V258.021V269.421ZM342.857 269.421V258.021V269.421ZM349.286 269.421V258.021Z" fill="white"/>
<path d="M349.286 269.421V258.021M325.886 275.248L322.286 268.155C321.9 267.268 321 265.115 321 262.961C321 256.755 326.143 255.488 326.143 255.488V227.495C326.143 225.088 328.2 223.821 330 223.821C331.8 223.821 333.857 225.088 333.857 227.621V247.888V245.355C333.857 243.581 335.271 241.555 337.714 241.555C340.157 241.555 341.571 243.581 341.571 245.355C341.571 245.355 341.571 247.255 341.571 246.621C341.571 244.848 342.471 242.821 345.429 242.821C348 242.821 349.286 245.608 349.286 249.155C349.286 247.381 349.929 245.355 353.143 245.355C356.357 245.355 357 248.648 357 250.421V270.688C357 276.261 352.371 280.821 346.714 280.821H335.014C331.157 280.821 327.557 278.668 325.886 275.248ZM336.429 269.421V258.021V269.421ZM342.857 269.421V258.021V269.421Z" stroke="black" stroke-width="2" stroke-miterlimit="10" stroke-linecap="round" stroke-linejoin="round"/>
<path d="M441 198.58C440.172 198.58 439.5 199.252 439.5 200.08C439.5 200.909 440.172 201.58 441 201.58V198.58ZM487.315 201.141C487.901 200.555 487.901 199.605 487.315 199.019L477.77 189.473C477.184 188.888 476.234 188.888 475.648 189.473C475.062 190.059 475.062 191.009 475.648 191.595L484.134 200.08L475.648 208.565C475.062 209.151 475.062 210.101 475.648 210.687C476.234 211.272 477.184 211.272 477.77 210.687L487.315 201.141ZM441 201.58H486.255V198.58H441V201.58Z" fill="black"/>
<g opacity="0.4" filter="url(#filter0_f)">
<mask id="path-7-inside-1" fill="white">
<path fill-rule="evenodd" clip-rule="evenodd" d="M668.634 151.749H626.428C620.905 151.749 616.428 156.226 616.428 161.749V258.503C616.428 264.026 620.905 268.503 626.428 268.503H690.672C696.194 268.503 700.672 264.026 700.672 258.503V184.31L668.634 151.749Z"/>
</mask>
<path fill-rule="evenodd" clip-rule="evenodd" d="M668.634 151.749H626.428C620.905 151.749 616.428 156.226 616.428 161.749V258.503C616.428 264.026 620.905 268.503 626.428 268.503H690.672C696.194 268.503 700.672 264.026 700.672 258.503V184.31L668.634 151.749Z" fill="white"/>
<path d="M668.634 151.749L670.059 150.346L669.471 149.749H668.634V151.749ZM700.672 184.31H702.672V183.491L702.097 182.908L700.672 184.31ZM626.428 153.749H668.634V149.749H626.428V153.749ZM618.428 161.749C618.428 157.331 622.009 153.749 626.428 153.749V149.749C619.8 149.749 614.428 155.122 614.428 161.749H618.428ZM618.428 258.503V161.749H614.428V258.503H618.428ZM626.428 266.503C622.009 266.503 618.428 262.921 618.428 258.503H614.428C614.428 265.13 619.8 270.503 626.428 270.503V266.503ZM690.672 266.503H626.428V270.503H690.672V266.503ZM698.672 258.503C698.672 262.921 695.09 266.503 690.672 266.503V270.503C697.299 270.503 702.672 265.13 702.672 258.503H698.672ZM698.672 184.31V258.503H702.672V184.31H698.672ZM702.097 182.908L670.059 150.346L667.208 153.152L699.246 185.713L702.097 182.908Z" fill="black" mask="url(#path-7-inside-1)"/>
<path d="M666.208 155.641V186.775H696.842" stroke="black" stroke-width="2" stroke-linecap="round" stroke-linejoin="round"/>
<path d="M638.664 165.688C639.711 165.688 640.408 166.255 640.408 167.104V170.997C640.408 171.351 640.408 173.474 638.664 173.474C639.362 173.474 641.106 173.899 641.106 175.598V179.845C641.106 180.671 640.687 182.322 639.013 182.322H635.177H630.643V173.474V165.688H635.177H638.664Z" fill="white"/>
<path d="M635.177 162.857V185.154M627.504 165.688H630.643M638.664 173.474C640.408 173.474 640.408 171.351 640.408 170.997C640.408 170.053 640.408 167.953 640.408 167.104C640.408 166.255 639.711 165.688 638.664 165.688H630.643M638.664 173.474C636.99 173.474 632.619 173.474 630.643 173.474M638.664 173.474C639.362 173.474 641.106 173.899 641.106 175.598C641.106 177.297 641.106 179.137 641.106 179.845C641.106 180.671 640.687 182.322 639.013 182.322C637.773 182.322 633.681 182.322 630.643 182.322M627.853 182.322C628.605 182.322 629.581 182.322 630.643 182.322M630.643 165.688V182.322" stroke="black" stroke-width="2" stroke-linecap="round" stroke-linejoin="round"/>
<line x1="689.248" y1="195.964" x2="628.065" y2="195.964" stroke="black" stroke-width="2" stroke-linecap="round" stroke-linejoin="round"/>
<line x1="671.697" y1="203.929" x2="628.065" y2="203.929" stroke="black" stroke-width="2" stroke-linecap="round" stroke-linejoin="round"/>
<rect width="62.7441" height="28.7886" transform="translate(627.504 210.326)" fill="white"/>
<rect x="628.504" y="211.326" width="60.7441" height="27.0981" rx="3" stroke="black" stroke-width="2" stroke-linecap="round" stroke-linejoin="round"/>
<line x1="688.809" y1="220.303" x2="628.943" y2="220.303" stroke="black" stroke-width="2" stroke-linecap="round" stroke-linejoin="round"/>
<line x1="688.809" y1="230.518" x2="628.943" y2="230.518" stroke="black" stroke-width="2" stroke-linecap="round" stroke-linejoin="round"/>
<line x1="661.412" y1="211.326" x2="661.412" y2="238.114" stroke="black" stroke-width="2" stroke-linecap="round" stroke-linejoin="round"/>
<line x1="675.452" y1="211.326" x2="675.452" y2="238.114" stroke="black" stroke-width="2" stroke-linecap="round" stroke-linejoin="round"/>
<path d="M691.895 248.645C689.762 248.809 686.727 250.901 685.21 251.598C684.02 252.131 682.954 252.583 682.093 252.583C681.149 252.583 681.026 251.926 681.19 250.45C681.231 250.122 681.682 247.209 679.468 247.333C678.401 247.415 676.802 248.358 672.495 252.5L674.218 248.276C675.448 245.159 672.003 242.042 668.886 244.051L666.63 245.569C666.343 245.733 666.219 246.143 666.425 246.471L667.122 247.579C667.327 247.866 667.737 247.989 668.024 247.784L670.403 246.184C671.182 245.692 672.085 246.471 671.757 247.292L667.737 257.381C667.45 258.038 667.86 259.145 668.968 259.145C669.296 259.145 669.624 259.022 669.87 258.776C671.593 257.053 676.227 252.583 678.524 250.737C678.442 251.926 678.442 253.157 679.386 254.182C680.001 254.879 680.903 255.208 682.052 255.208C683.528 255.208 684.841 254.633 686.276 253.977C687.63 253.403 690.337 251.434 691.936 251.311C692.305 251.27 692.552 250.983 692.552 250.655V249.342C692.593 248.973 692.264 248.645 691.895 248.645Z" fill="black"/>
<line x1="585.851" y1="245.677" x2="612.851" y2="245.677" stroke="black" stroke-width="2" stroke-linecap="round" stroke-linejoin="round"/>
<line x1="591.851" y1="220.274" x2="609.851" y2="220.274" stroke="black" stroke-width="2" stroke-linecap="round" stroke-linejoin="round"/>
<line x1="596.851" y1="195.691" x2="606.851" y2="195.691" stroke="black" stroke-width="2" stroke-linecap="round" stroke-linejoin="round"/>
</g>
<rect x="799.255" y="177.36" width="119.259" height="43.4721" rx="2" fill="black"/>
<circle cx="813.255" cy="199.36" r="4" fill="#78E185" stroke="black" stroke-width="2"/>
<rect x="799.255" y="177.36" width="119.259" height="43.4721" rx="2" stroke="black" stroke-width="2"/>
<path d="M880.308 230.774L868 243.079L855.693 230.773M868 199.985V242.517" stroke="white" stroke-width="6" stroke-miterlimit="10" stroke-linecap="round" stroke-linejoin="round"/>
<path d="M882.773 212.291L895.081 199.985L907.388 212.292M895.081 243.08L895.081 200.548" stroke="white" stroke-width="6" stroke-miterlimit="10" stroke-linecap="round" stroke-linejoin="round"/>
<path d="M880.308 230.774L868 243.079L855.693 230.773M868 199.985V242.517" stroke="black" stroke-width="2" stroke-miterlimit="10" stroke-linecap="round" stroke-linejoin="round"/>
<path d="M882.773 212.291L895.081 199.985L907.388 212.292M895.081 243.08L895.081 200.548" stroke="black" stroke-width="2" stroke-miterlimit="10" stroke-linecap="round" stroke-linejoin="round"/>
<rect x="960.514" y="134" width="119.259" height="43.4721" rx="2" fill="black"/>
<circle cx="974.514" cy="156" r="4" fill="#78E185" stroke="black" stroke-width="2"/>
<rect x="960.514" y="134" width="119.259" height="43.4721" rx="2" stroke="black" stroke-width="2"/>
<path d="M1041.57 187.414L1029.26 199.72L1016.95 187.413M1029.26 156.625V199.157" stroke="white" stroke-width="6" stroke-miterlimit="10" stroke-linecap="round" stroke-linejoin="round"/>
<path d="M1044.03 168.931L1056.34 156.625L1068.65 168.932M1056.34 199.72L1056.34 157.188" stroke="white" stroke-width="6" stroke-miterlimit="10" stroke-linecap="round" stroke-linejoin="round"/>
<path d="M1041.57 187.414L1029.26 199.72L1016.95 187.413M1029.26 156.625V199.157" stroke="black" stroke-width="2" stroke-miterlimit="10" stroke-linecap="round" stroke-linejoin="round"/>
<path d="M1044.03 168.931L1056.34 156.625L1068.65 168.932M1056.34 199.72L1056.34 157.188" stroke="black" stroke-width="2" stroke-miterlimit="10" stroke-linecap="round" stroke-linejoin="round"/>
<rect x="960.514" y="220.72" width="119.259" height="43.4721" rx="2" fill="black"/>
<circle cx="974.514" cy="242.72" r="4" fill="#78E185" stroke="black" stroke-width="2"/>
<rect x="960.514" y="220.72" width="119.259" height="43.4721" rx="2" stroke="black" stroke-width="2"/>
<path d="M1041.57 274.133L1029.26 286.439L1016.95 274.132M1029.26 243.344V285.876" stroke="white" stroke-width="6" stroke-miterlimit="10" stroke-linecap="round" stroke-linejoin="round"/>
<path d="M1044.03 255.651L1056.34 243.345L1068.65 255.652M1056.34 286.439L1056.34 243.908" stroke="white" stroke-width="6" stroke-miterlimit="10" stroke-linecap="round" stroke-linejoin="round"/>
<path d="M1041.57 274.133L1029.26 286.439L1016.95 274.132M1029.26 243.344V285.876" stroke="black" stroke-width="2" stroke-miterlimit="10" stroke-linecap="round" stroke-linejoin="round"/>
<path d="M1044.03 255.651L1056.34 243.345L1068.65 255.652M1056.34 286.439L1056.34 243.908" stroke="black" stroke-width="2" stroke-miterlimit="10" stroke-linecap="round" stroke-linejoin="round"/>
<mask id="path-41-inside-2" fill="white">
<path fill-rule="evenodd" clip-rule="evenodd" d="M713.164 138.914H658.911C653.388 138.914 648.911 143.391 648.911 148.914V271.393C648.911 276.916 653.388 281.393 658.911 281.393H742.596C748.119 281.393 752.596 276.916 752.596 271.393V178.65L713.164 138.914Z"/>
</mask>
<path fill-rule="evenodd" clip-rule="evenodd" d="M713.164 138.914H658.911C653.388 138.914 648.911 143.391 648.911 148.914V271.393C648.911 276.916 653.388 281.393 658.911 281.393H742.596C748.119 281.393 752.596 276.916 752.596 271.393V178.65L713.164 138.914Z" fill="white"/>
<path d="M713.164 138.914L714.584 137.505L713.997 136.914H713.164V138.914ZM752.596 178.65H754.596V177.826L754.015 177.241L752.596 178.65ZM658.911 140.914H713.164V136.914H658.911V140.914ZM650.911 148.914C650.911 144.496 654.493 140.914 658.911 140.914V136.914C652.284 136.914 646.911 142.287 646.911 148.914H650.911ZM650.911 271.393V148.914H646.911V271.393H650.911ZM658.911 279.393C654.493 279.393 650.911 275.812 650.911 271.393H646.911C646.911 278.021 652.284 283.393 658.911 283.393V279.393ZM742.596 279.393H658.911V283.393H742.596V279.393ZM750.596 271.393C750.596 275.812 747.014 279.393 742.596 279.393V283.393C749.223 283.393 754.596 278.021 754.596 271.393H750.596ZM750.596 178.65V271.393H754.596V178.65H750.596ZM754.015 177.241L714.584 137.505L711.745 140.323L751.176 180.059L754.015 177.241Z" fill="black" mask="url(#path-41-inside-2)"/>
<path d="M710.179 143.663V181.658H747.883" stroke="black" stroke-width="2" stroke-linecap="round" stroke-linejoin="round"/>
<path d="M676.279 155.925C677.567 155.925 678.426 156.616 678.426 157.653V162.403C678.426 162.835 678.426 165.427 676.279 165.427C677.138 165.427 679.284 165.945 679.284 168.018V173.201C679.284 174.209 678.769 176.224 676.709 176.224H671.987H666.407V165.427V155.925H671.987H676.279Z" fill="white"/>
<path d="M671.987 152.47V179.679M662.543 155.925H666.407M676.279 165.427C678.426 165.427 678.426 162.835 678.426 162.403C678.426 161.252 678.426 158.689 678.426 157.653C678.426 156.616 677.567 155.925 676.279 155.925H666.407M676.279 165.427C674.219 165.427 668.839 165.427 666.407 165.427M676.279 165.427C677.138 165.427 679.284 165.945 679.284 168.018C679.284 170.091 679.284 172.337 679.284 173.201C679.284 174.209 678.769 176.224 676.709 176.224C675.182 176.224 670.146 176.224 666.407 176.224M662.973 176.224C663.899 176.224 665.1 176.224 666.407 176.224M666.407 155.925V176.224" stroke="black" stroke-width="2" stroke-linecap="round" stroke-linejoin="round"/>
<line x1="738.767" y1="192.651" x2="663.003" y2="192.651" stroke="black" stroke-width="2" stroke-linecap="round" stroke-linejoin="round"/>
<line x1="717.166" y1="202.371" x2="663.003" y2="202.371" stroke="black" stroke-width="2" stroke-linecap="round" stroke-linejoin="round"/>
<rect width="77.2235" height="35.1318" transform="translate(662.543 210.397)" fill="white"/>
<rect x="663.543" y="211.397" width="75.2235" height="33.5096" rx="3" stroke="black" stroke-width="2" stroke-linecap="round" stroke-linejoin="round"/>
<line x1="738.227" y1="222.352" x2="664.083" y2="222.352" stroke="black" stroke-width="2" stroke-linecap="round" stroke-linejoin="round"/>
<line x1="738.227" y1="234.818" x2="664.083" y2="234.818" stroke="black" stroke-width="2" stroke-linecap="round" stroke-linejoin="round"/>
<line x1="704.045" y1="211.397" x2="704.045" y2="244.529" stroke="black" stroke-width="2" stroke-linecap="round" stroke-linejoin="round"/>
<line x1="721.326" y1="211.397" x2="721.326" y2="244.529" stroke="black" stroke-width="2" stroke-linecap="round" stroke-linejoin="round"/>
<path d="M738.926 257.626C736.793 257.79 733.758 259.882 732.241 260.579C731.051 261.112 729.985 261.563 729.124 261.563C728.18 261.563 728.057 260.907 728.221 259.431C728.262 259.103 728.713 256.19 726.499 256.313C725.432 256.396 723.833 257.339 719.526 261.481L721.249 257.257C722.479 254.14 719.034 251.022 715.917 253.032L713.661 254.55C713.374 254.714 713.251 255.124 713.456 255.452L714.153 256.56C714.358 256.847 714.768 256.97 715.055 256.765L717.434 255.165C718.213 254.673 719.116 255.452 718.788 256.272L714.768 266.362C714.481 267.019 714.891 268.126 715.999 268.126C716.327 268.126 716.655 268.003 716.901 267.757C718.624 266.034 723.258 261.563 725.555 259.718C725.473 260.907 725.473 262.138 726.417 263.163C727.032 263.86 727.934 264.188 729.083 264.188C730.559 264.188 731.872 263.614 733.307 262.958C734.661 262.384 737.368 260.415 738.967 260.292C739.336 260.251 739.583 259.964 739.583 259.636V258.323C739.624 257.954 739.295 257.626 738.926 257.626Z" fill="black"/>
<line x1="610.476" y1="253.759" x2="637.476" y2="253.759" stroke="black" stroke-width="2" stroke-linecap="round" stroke-linejoin="round"/>
<line x1="619.476" y1="222.759" x2="637.476" y2="222.759" stroke="black" stroke-width="2" stroke-linecap="round" stroke-linejoin="round"/>
<line x1="627.476" y1="192.759" x2="637.476" y2="192.759" stroke="black" stroke-width="2" stroke-linecap="round" stroke-linejoin="round"/>
<line x1="580.476" y1="239.759" x2="637.476" y2="239.759" stroke="black" stroke-width="2" stroke-linecap="round" stroke-linejoin="round"/>
<line x1="589.476" y1="208.759" x2="637.476" y2="208.759" stroke="black" stroke-width="2" stroke-linecap="round" stroke-linejoin="round"/>
<line x1="597.476" y1="178.759" x2="637.476" y2="178.759" stroke="black" stroke-width="2" stroke-linecap="round" stroke-linejoin="round"/>
<defs>
<filter id="filter0_f" x="581" y="148" width="123" height="124" filterUnits="userSpaceOnUse" color-interpolation-filters="sRGB">
<feFlood flood-opacity="0" result="BackgroundImageFix"/>
<feBlend mode="normal" in="SourceGraphic" in2="BackgroundImageFix" result="shape"/>
<feGaussianBlur stdDeviation="1.5" result="effect1_foregroundBlur"/>
</filter>
</defs>
</svg>
