<svg width="1336" height="400" viewBox="0 0 1336 400" fill="none" xmlns="http://www.w3.org/2000/svg">
<rect width="1336" height="400" fill="white"/>
<path d="M297.545 300.996C299.674 300.977 301.776 300.566 303.74 299.726C305.711 298.883 307.507 297.637 308.994 296.08C310.481 294.523 311.65 292.664 312.415 290.642C313.11 288.804 313.457 286.851 313.465 284.884C313.466 284.538 313.465 284.191 313.465 283.845C313.465 282.938 313.465 282.032 313.465 281.126C313.465 279.712 313.465 278.299 313.465 276.885C313.465 275.017 313.465 273.149 313.465 271.281C313.465 269.01 313.465 266.74 313.465 264.469C313.465 261.856 313.465 259.243 313.465 256.631C313.465 253.722 313.465 250.813 313.465 247.904C313.465 244.742 313.465 241.58 313.465 238.419C313.465 235.064 313.465 231.71 313.465 228.355C313.465 224.86 313.465 221.365 313.465 217.87C313.465 214.297 313.465 210.723 313.465 207.15C313.465 203.541 313.465 199.931 313.465 196.322C313.465 192.72 313.465 189.118 313.465 185.516C313.465 181.982 313.465 178.449 313.465 174.916C313.465 171.504 313.465 168.091 313.465 164.68C313.465 161.45 313.465 158.22 313.465 154.99C313.465 151.985 313.465 148.98 313.465 145.975C313.465 143.239 313.465 140.504 313.465 137.769C313.465 135.364 313.465 132.96 313.465 130.555C313.465 128.534 313.465 126.513 313.465 124.491C313.465 122.909 313.465 121.327 313.465 119.745C313.465 118.648 313.465 117.551 313.465 116.454C313.465 115.893 313.465 115.333 313.465 114.772C313.465 113.518 313.348 112.271 313.075 111.045C312.608 108.951 311.724 106.956 310.489 105.211C309.254 103.465 307.671 101.976 305.862 100.854C304.051 99.7325 302.022 98.9847 299.923 98.6631C298.85 98.4989 297.777 98.482 296.697 98.482C295.222 98.482 293.746 98.482 292.271 98.482C289.809 98.482 287.348 98.482 284.886 98.482C281.75 98.482 278.614 98.482 275.478 98.482C271.999 98.482 268.52 98.482 265.041 98.482C261.492 98.482 257.943 98.482 254.394 98.482C251.105 98.482 247.816 98.482 244.527 98.482C241.81 98.482 239.093 98.482 236.375 98.482C234.542 98.482 232.709 98.482 230.876 98.482C230.149 98.482 229.423 98.4717 228.696 98.4843C226.58 98.5208 224.478 98.987 222.54 99.8493C220.588 100.718 218.816 101.99 217.356 103.562C215.889 105.14 214.744 107.02 214.009 109.054C213.367 110.832 213.047 112.709 213.04 114.601C213.039 114.969 213.04 115.337 213.04 115.706C213.04 116.632 213.04 117.559 213.04 118.485C213.04 119.916 213.04 121.348 213.04 122.779C213.04 124.664 213.04 126.548 213.04 128.432C213.04 130.717 213.04 133.001 213.04 135.286C213.04 137.904 213.04 140.521 213.04 143.138C213.04 146.065 213.04 148.992 213.04 151.918C213.04 155.088 213.04 158.258 213.04 161.428C213.04 164.789 213.04 168.15 213.04 171.511C213.04 175.01 213.04 178.509 213.04 182.009C213.04 185.575 213.04 189.141 213.04 192.707C213.04 196.326 213.04 199.945 213.04 203.564C213.04 207.165 213.04 210.765 213.04 214.366C213.04 217.896 213.04 221.426 213.04 224.955C213.04 228.362 213.04 231.768 213.04 235.174C213.04 238.397 213.04 241.619 213.04 244.841C213.04 247.837 213.04 250.833 213.04 253.828C213.04 256.552 213.04 259.276 213.04 261.999C213.04 264.39 213.04 266.781 213.04 269.172C213.04 271.178 213.04 273.184 213.04 275.19C213.04 276.755 213.04 278.32 213.04 279.884C213.04 280.962 213.04 282.04 213.04 283.117C213.04 283.656 213.04 284.195 213.04 284.735C213.04 286.057 213.176 287.372 213.483 288.66C213.982 290.757 214.9 292.749 216.171 294.482C217.432 296.2 219.028 297.656 220.847 298.747C222.67 299.841 224.711 300.559 226.811 300.848C227.842 300.99 228.872 300.996 229.91 300.996C231.428 300.996 232.946 300.996 234.464 300.996C236.957 300.996 239.449 300.996 241.942 300.996C245.097 300.996 248.253 300.996 251.408 300.996C254.894 300.996 258.381 300.996 261.867 300.996C265.412 300.996 268.957 300.996 272.502 300.996C275.775 300.996 279.049 300.996 282.322 300.996C285.011 300.996 287.701 300.996 290.391 300.996C292.185 300.996 293.978 300.996 295.772 300.996C295.86 300.996 297.545 300.996 297.545 300.996Z" stroke="black" stroke-width="2" stroke-miterlimit="10" stroke-linecap="round" stroke-linejoin="round"/>
<path d="M281.1 112.579C279.213 112.579 277.325 112.579 275.437 112.579C272.303 112.579 269.169 112.579 266.035 112.579C264.859 112.579 263.684 112.579 262.509 112.579C259.781 112.579 257.054 112.579 254.326 112.579C251.631 112.579 248.936 112.579 246.241 112.579C244.695 112.579 243.121 112.521 241.75 111.701C240.93 111.21 240.29 110.481 239.875 109.617C239.649 109.146 239.489 108.644 239.377 108.134C239.295 107.755 239.271 107.364 239.183 106.988C239.072 106.517 238.819 106.077 238.341 105.921C238.156 105.86 237.967 105.854 237.775 105.853C237.341 105.853 236.907 105.853 236.473 105.853C233.937 105.853 231.401 105.843 228.866 105.853C226.733 105.863 224.65 106.666 223.072 108.12C221.487 109.579 220.486 111.624 220.301 113.781C220.263 114.234 220.27 114.688 220.27 115.142C220.27 115.839 220.27 116.536 220.27 117.234C220.27 118.386 220.27 119.538 220.27 120.69C220.27 122.254 220.27 123.819 220.27 125.383C220.27 127.324 220.27 129.264 220.27 131.205C220.27 133.475 220.27 135.745 220.27 138.016C220.27 140.565 220.27 143.114 220.27 145.664C220.27 148.456 220.27 151.248 220.27 154.041C220.27 157.034 220.27 160.027 220.27 163.02C220.27 166.172 220.27 169.323 220.27 172.475C220.27 175.743 220.27 179.011 220.27 182.278C220.27 185.63 220.27 188.981 220.27 192.333C220.27 195.716 220.27 199.099 220.27 202.482C220.27 205.844 220.27 209.207 220.27 212.569C220.27 215.879 220.27 219.188 220.27 222.497C220.27 225.712 220.27 228.925 220.27 232.139C220.27 235.216 220.27 238.292 220.27 241.368C220.27 244.265 220.27 247.161 220.27 250.057C220.27 252.731 220.27 255.405 220.27 258.079C220.27 260.495 220.27 262.911 220.27 265.327C220.27 267.435 220.27 269.542 220.27 271.65C220.27 273.401 220.27 275.153 220.27 276.904C220.27 278.264 220.27 279.624 220.27 280.984C220.27 281.91 220.27 282.836 220.27 283.762C220.27 284.212 220.269 284.662 220.27 285.112C220.271 286.505 220.564 287.874 221.186 289.122C222.154 291.064 223.844 292.594 225.862 293.353C227.004 293.782 228.179 293.9 229.385 293.9C230.574 293.9 231.763 293.9 232.952 293.9C235.055 293.9 237.158 293.9 239.261 293.9C242.025 293.9 244.79 293.9 247.555 293.9C250.729 293.9 253.903 293.9 257.077 293.9C260.408 293.9 263.74 293.9 267.071 293.9C270.308 293.9 273.545 293.9 276.782 293.9C279.679 293.9 282.577 293.9 285.474 293.9C287.769 293.9 290.063 293.9 292.357 293.9C293.792 293.9 295.226 293.9 296.66 293.9C297.52 293.9 298.377 293.921 299.23 293.771C301.343 293.399 303.275 292.216 304.579 290.497C305.726 288.983 306.341 287.115 306.348 285.211C306.349 284.886 306.348 284.561 306.348 284.236C306.348 283.421 306.348 282.607 306.348 281.792C306.348 280.531 306.348 279.269 306.348 278.008C306.348 276.347 306.348 274.687 306.348 273.027C306.348 271.007 306.348 268.987 306.348 266.967C306.348 264.63 306.348 262.293 306.348 259.955C306.348 257.343 306.348 254.731 306.348 252.119C306.348 249.274 306.348 246.429 306.348 243.584C306.348 240.548 306.348 237.513 306.348 234.477C306.348 231.284 306.348 228.091 306.348 224.898C306.348 221.598 306.348 218.299 306.348 214.999C306.348 211.646 306.348 208.293 306.348 204.939C306.348 201.564 306.348 198.19 306.348 194.815C306.348 191.462 306.348 188.108 306.348 184.754C306.348 181.464 306.348 178.174 306.348 174.884C306.348 171.7 306.348 168.515 306.348 165.331C306.348 162.286 306.348 159.241 306.348 156.196C306.348 153.343 306.348 150.489 306.348 147.636C306.348 145.023 306.348 142.411 306.348 139.799C306.348 137.462 306.348 135.124 306.348 132.787C306.348 130.767 306.348 128.748 306.348 126.727C306.348 125.067 306.348 123.407 306.348 121.746C306.348 120.488 306.348 119.229 306.348 117.971C306.348 117.157 306.348 116.342 306.348 115.528C306.348 115.2 306.349 114.872 306.348 114.544C306.341 112.64 305.726 110.772 304.579 109.258C303.275 107.538 301.343 106.355 299.23 105.983C298.438 105.844 297.645 105.855 296.845 105.855C295.339 105.855 293.832 105.855 292.326 105.855C291.162 105.855 289.999 105.852 288.836 105.855C288.413 105.855 288.015 105.948 287.74 106.299C287.334 106.818 287.369 107.557 287.231 108.173C287.015 109.144 286.611 110.085 285.939 110.826C285.339 111.487 284.56 111.945 283.717 112.215C283.294 112.351 282.857 112.442 282.416 112.499C282.301 112.513 281.1 112.61 281.1 112.579Z" stroke="black" stroke-width="2" stroke-miterlimit="10" stroke-linecap="round" stroke-linejoin="round"/>
<path d="M272.6 274.618C272.6 280.088 268.205 284.508 262.8 284.508C257.395 284.508 253 280.088 253 274.618C253 269.149 257.395 264.729 262.8 264.729C268.205 264.729 272.6 269.149 272.6 274.618Z" stroke="black" stroke-width="2"/>
<mask id="path-3-inside-1" fill="white">
<path fill-rule="evenodd" clip-rule="evenodd" d="M313.671 89.478H257.322C251.799 89.478 247.322 93.9552 247.322 99.478V225.478C247.322 231.001 251.799 235.478 257.322 235.478H344.388C349.911 235.478 354.388 231.001 354.388 225.478V130.196L313.671 89.478Z"/>
</mask>
<path fill-rule="evenodd" clip-rule="evenodd" d="M313.671 89.478H257.322C251.799 89.478 247.322 93.9552 247.322 99.478V225.478C247.322 231.001 251.799 235.478 257.322 235.478H344.388C349.911 235.478 354.388 231.001 354.388 225.478V130.196L313.671 89.478Z" fill="white"/>
<path d="M313.671 89.478L315.085 88.0638L314.499 87.478H313.671V89.478ZM354.388 130.196H356.388V129.367L355.803 128.782L354.388 130.196ZM257.322 91.478H313.671V87.478H257.322V91.478ZM249.322 99.478C249.322 95.0598 252.903 91.478 257.322 91.478V87.478C250.694 87.478 245.322 92.8506 245.322 99.478H249.322ZM249.322 225.478V99.478H245.322V225.478H249.322ZM257.322 233.478C252.903 233.478 249.322 229.896 249.322 225.478H245.322C245.322 232.106 250.694 237.478 257.322 237.478V233.478ZM344.388 233.478H257.322V237.478H344.388V233.478ZM352.388 225.478C352.388 229.896 348.807 233.478 344.388 233.478V237.478C351.016 237.478 356.388 232.106 356.388 225.478H352.388ZM352.388 130.196V225.478H356.388V130.196H352.388ZM355.803 128.782L315.085 88.0638L312.256 90.8922L352.974 131.61L355.803 128.782Z" fill="black" mask="url(#path-3-inside-1)"/>
<path d="M310.588 94.3442V133.278H349.522" stroke="black" stroke-width="2" stroke-linecap="round" stroke-linejoin="round"/>
<path d="M275.447 106.909C276.776 106.909 277.663 107.617 277.663 108.679V113.547C277.663 113.99 277.663 116.645 275.447 116.645C276.333 116.645 278.549 117.176 278.549 119.301V124.612C278.549 125.644 278.017 127.71 275.89 127.71H271.014H265.252V116.645V106.909H271.014H275.447Z" fill="white"/>
<path d="M271.014 103.368V131.25M261.263 106.909H265.252M275.447 116.645C277.663 116.645 277.663 113.99 277.663 113.547C277.663 112.367 277.663 109.741 277.663 108.679C277.663 107.617 276.776 106.909 275.447 106.909H265.252M275.447 116.645C273.319 116.645 267.764 116.645 265.252 116.645M275.447 116.645C276.333 116.645 278.549 117.176 278.549 119.301C278.549 121.425 278.549 123.726 278.549 124.612C278.549 125.644 278.017 127.71 275.89 127.71C274.313 127.71 269.113 127.71 265.252 127.71M261.706 127.71C262.662 127.71 263.902 127.71 265.252 127.71M265.252 106.909V127.71" stroke="black" stroke-width="2" stroke-linecap="round" stroke-linejoin="round"/>
<line x1="340.005" y1="144.519" x2="261.705" y2="144.519" stroke="black" stroke-width="2" stroke-linecap="round" stroke-linejoin="round"/>
<line x1="317.699" y1="154.478" x2="261.705" y2="154.478" stroke="black" stroke-width="2" stroke-linecap="round" stroke-linejoin="round"/>
<rect width="79.7425" height="36" transform="translate(261.263 162.728)" fill="white"/>
<rect x="262.263" y="163.728" width="77.7425" height="34.3871" rx="3" stroke="black" stroke-width="2" stroke-linecap="round" stroke-linejoin="round"/>
<line x1="339.447" y1="174.954" x2="262.82" y2="174.954" stroke="black" stroke-width="2" stroke-linecap="round" stroke-linejoin="round"/>
<line x1="339.447" y1="187.728" x2="262.82" y2="187.728" stroke="black" stroke-width="2" stroke-linecap="round" stroke-linejoin="round"/>
<line x1="304.086" y1="163.728" x2="304.086" y2="197.728" stroke="black" stroke-width="2" stroke-linecap="round" stroke-linejoin="round"/>
<line x1="321.93" y1="163.728" x2="321.93" y2="197.728" stroke="black" stroke-width="2" stroke-linecap="round" stroke-linejoin="round"/>
<path d="M286.928 210.978C284.795 211.142 281.76 213.234 280.242 213.931C279.053 214.464 277.986 214.916 277.125 214.916C276.182 214.916 276.059 214.259 276.223 212.783C276.264 212.455 276.715 209.542 274.5 209.666C273.434 209.748 271.834 210.691 267.527 214.833L269.25 210.609C270.48 207.492 267.035 204.375 263.918 206.384L261.662 207.902C261.375 208.066 261.252 208.476 261.457 208.804L262.154 209.912C262.359 210.199 262.77 210.322 263.057 210.117L265.436 208.517C266.215 208.025 267.117 208.804 266.789 209.625L262.77 219.714C262.482 220.371 262.893 221.478 264 221.478C264.328 221.478 264.656 221.355 264.902 221.109C266.625 219.386 271.26 214.916 273.557 213.07C273.475 214.259 273.475 215.49 274.418 216.515C275.033 217.212 275.936 217.541 277.084 217.541C278.561 217.541 279.873 216.966 281.309 216.31C282.662 215.736 285.369 213.767 286.969 213.644C287.338 213.603 287.584 213.316 287.584 212.988V211.675C287.625 211.306 287.297 210.978 286.928 210.978Z" fill="#F7931A"/>
<path d="M287.008 211.51L287.009 211.496L287.011 211.482L287.936 202.696L309.264 181.367L318.111 190.214L296.782 211.542L287.996 212.467L287.982 212.469L287.968 212.47C287.419 212.544 286.934 212.059 287.008 211.51ZM325.151 179.137L325.16 179.147L325.17 179.156C326.266 180.194 326.294 182.031 325.151 183.174L321.369 186.956L312.522 178.11L316.304 174.327C317.447 173.184 319.284 173.212 320.322 174.308L320.331 174.318L320.341 174.327L325.151 179.137Z" fill="white" stroke="#F7931A" stroke-width="2"/>
<path d="M393 198.237C392.172 198.237 391.5 198.909 391.5 199.737C391.5 200.566 392.172 201.237 393 201.237V198.237ZM439.315 200.798C439.901 200.212 439.901 199.262 439.315 198.677L429.77 189.131C429.184 188.545 428.234 188.545 427.648 189.131C427.062 189.716 427.062 190.666 427.648 191.252L436.134 199.737L427.648 208.223C427.062 208.808 427.062 209.758 427.648 210.344C428.234 210.93 429.184 210.93 429.77 210.344L439.315 200.798ZM393 201.237H438.255V198.237H393V201.237Z" fill="black"/>
<g clip-path="url(#clip0)">
<rect x="522.255" y="152.737" width="86" height="148" rx="9" stroke="black" stroke-width="2"/>
<rect x="535.255" y="173.737" width="38" height="18" stroke="black" stroke-width="2"/>
<circle cx="544.255" cy="219.737" r="8" stroke="black" stroke-width="2"/>
<circle cx="544.255" cy="240.737" r="8" stroke="black" stroke-width="2"/>
<circle cx="544.255" cy="261.737" r="8" stroke="black" stroke-width="2"/>
<circle cx="544.255" cy="282.737" r="8" stroke="black" stroke-width="2"/>
<circle cx="565.255" cy="219.737" r="8" stroke="black" stroke-width="2"/>
<circle cx="565.255" cy="240.737" r="8" stroke="black" stroke-width="2"/>
<circle cx="565.255" cy="261.737" r="8" stroke="black" stroke-width="2"/>
<circle cx="565.255" cy="282.737" r="8" stroke="black" stroke-width="2"/>
<circle cx="586.255" cy="219.737" r="8" stroke="black" stroke-width="2"/>
<circle cx="586.255" cy="240.737" r="8" stroke="black" stroke-width="2"/>
<circle cx="586.255" cy="261.737" r="8" stroke="black" stroke-width="2"/>
<circle cx="586.255" cy="282.737" r="8" stroke="black" stroke-width="2"/>
</g>
<mask id="path-32-inside-2" fill="white">
<path fill-rule="evenodd" clip-rule="evenodd" d="M622.926 89.478H566.577C561.054 89.478 556.577 93.9552 556.577 99.478V225.478C556.577 231.001 561.054 235.478 566.577 235.478H653.643C659.166 235.478 663.643 231.001 663.643 225.478V130.196L622.926 89.478Z"/>
</mask>
<path fill-rule="evenodd" clip-rule="evenodd" d="M622.926 89.478H566.577C561.054 89.478 556.577 93.9552 556.577 99.478V225.478C556.577 231.001 561.054 235.478 566.577 235.478H653.643C659.166 235.478 663.643 231.001 663.643 225.478V130.196L622.926 89.478Z" fill="white"/>
<path d="M622.926 89.478L624.34 88.0638L623.754 87.478H622.926V89.478ZM663.643 130.196H665.643V129.367L665.058 128.782L663.643 130.196ZM566.577 91.478H622.926V87.478H566.577V91.478ZM558.577 99.478C558.577 95.0598 562.158 91.478 566.577 91.478V87.478C559.949 87.478 554.577 92.8506 554.577 99.478H558.577ZM558.577 225.478V99.478H554.577V225.478H558.577ZM566.577 233.478C562.158 233.478 558.577 229.896 558.577 225.478H554.577C554.577 232.106 559.949 237.478 566.577 237.478V233.478ZM653.643 233.478H566.577V237.478H653.643V233.478ZM661.643 225.478C661.643 229.896 658.062 233.478 653.643 233.478V237.478C660.271 237.478 665.643 232.106 665.643 225.478H661.643ZM661.643 130.196V225.478H665.643V130.196H661.643ZM665.058 128.782L624.34 88.0638L621.511 90.8922L662.229 131.61L665.058 128.782Z" fill="black" mask="url(#path-32-inside-2)"/>
<path d="M619.843 94.3442V133.278H658.777" stroke="black" stroke-width="2" stroke-linecap="round" stroke-linejoin="round"/>
<path d="M584.702 106.909C586.031 106.909 586.918 107.617 586.918 108.679V113.547C586.918 113.99 586.918 116.645 584.702 116.645C585.588 116.645 587.804 117.176 587.804 119.301V124.612C587.804 125.644 587.273 127.71 585.145 127.71H580.269H574.507V116.645V106.909H580.269H584.702Z" fill="white"/>
<path d="M580.269 103.368V131.25M570.518 106.909H574.507M584.702 116.645C586.918 116.645 586.918 113.99 586.918 113.547C586.918 112.367 586.918 109.741 586.918 108.679C586.918 107.617 586.031 106.909 584.702 106.909H574.507M584.702 116.645C582.574 116.645 577.019 116.645 574.507 116.645M584.702 116.645C585.588 116.645 587.804 117.176 587.804 119.301C587.804 121.425 587.804 123.726 587.804 124.612C587.804 125.644 587.273 127.71 585.145 127.71C583.568 127.71 578.368 127.71 574.507 127.71M570.961 127.71C571.917 127.71 573.157 127.71 574.507 127.71M574.507 106.909V127.71" stroke="black" stroke-width="2" stroke-linecap="round" stroke-linejoin="round"/>
<line x1="649.26" y1="144.519" x2="570.96" y2="144.519" stroke="black" stroke-width="2" stroke-linecap="round" stroke-linejoin="round"/>
<line x1="626.954" y1="154.478" x2="570.96" y2="154.478" stroke="black" stroke-width="2" stroke-linecap="round" stroke-linejoin="round"/>
<rect width="79.7425" height="36" transform="translate(570.518 162.728)" fill="white"/>
<rect x="571.518" y="163.728" width="77.7425" height="34.3871" rx="3" stroke="black" stroke-width="2" stroke-linecap="round" stroke-linejoin="round"/>
<line x1="648.702" y1="174.954" x2="572.075" y2="174.954" stroke="black" stroke-width="2" stroke-linecap="round" stroke-linejoin="round"/>
<line x1="648.702" y1="187.728" x2="572.075" y2="187.728" stroke="black" stroke-width="2" stroke-linecap="round" stroke-linejoin="round"/>
<line x1="613.341" y1="163.728" x2="613.341" y2="197.728" stroke="black" stroke-width="2" stroke-linecap="round" stroke-linejoin="round"/>
<line x1="631.185" y1="163.728" x2="631.185" y2="197.728" stroke="black" stroke-width="2" stroke-linecap="round" stroke-linejoin="round"/>
<path d="M596.183 210.978C594.05 211.142 591.015 213.234 589.497 213.931C588.308 214.464 587.241 214.916 586.38 214.916C585.437 214.916 585.313 214.259 585.478 212.783C585.519 212.455 585.97 209.542 583.755 209.666C582.688 209.748 581.089 210.691 576.782 214.833L578.505 210.609C579.735 207.492 576.29 204.375 573.173 206.384L570.917 207.902C570.63 208.066 570.507 208.476 570.712 208.804L571.409 209.912C571.614 210.199 572.024 210.322 572.312 210.117L574.69 208.517C575.47 208.025 576.372 208.804 576.044 209.625L572.024 219.714C571.737 220.371 572.147 221.478 573.255 221.478C573.583 221.478 573.911 221.355 574.157 221.109C575.88 219.386 580.515 214.916 582.812 213.07C582.729 214.259 582.729 215.49 583.673 216.515C584.288 217.212 585.19 217.541 586.339 217.541C587.815 217.541 589.128 216.966 590.563 216.31C591.917 215.736 594.624 213.767 596.224 213.644C596.593 213.603 596.839 213.316 596.839 212.988V211.675C596.88 211.306 596.552 210.978 596.183 210.978Z" fill="#F7931A"/>
<path d="M623.183 210.978C621.05 211.142 618.015 213.234 616.497 213.931C615.308 214.464 614.241 214.916 613.38 214.916C612.437 214.916 612.313 214.259 612.478 212.783C612.519 212.455 612.97 209.542 610.755 209.666C609.688 209.748 608.089 210.691 603.782 214.833L605.505 210.609C606.735 207.492 603.29 204.375 600.173 206.384L597.917 207.902C597.63 208.066 597.507 208.476 597.712 208.804L598.409 209.912C598.614 210.199 599.024 210.322 599.312 210.117L601.69 208.517C602.47 208.025 603.372 208.804 603.044 209.625L599.024 219.714C598.737 220.371 599.147 221.478 600.255 221.478C600.583 221.478 600.911 221.355 601.157 221.109C602.88 219.386 607.515 214.916 609.812 213.07C609.729 214.259 609.729 215.49 610.673 216.515C611.288 217.212 612.19 217.541 613.339 217.541C614.815 217.541 616.128 216.966 617.563 216.31C618.917 215.736 621.624 213.767 623.224 213.644C623.593 213.603 623.839 213.316 623.839 212.988V211.675C623.88 211.306 623.552 210.978 623.183 210.978Z" fill="#00B9D2"/>
<path d="M623.262 211.51L623.264 211.496L623.266 211.482L624.191 202.696L645.519 181.367L654.365 190.214L633.037 211.542L624.251 212.467L624.237 212.469L624.223 212.47C623.674 212.544 623.189 212.059 623.262 211.51ZM661.405 179.137L661.415 179.147L661.425 179.156C662.521 180.194 662.549 182.031 661.405 183.174L657.623 186.956L648.777 178.11L652.559 174.327C653.702 173.184 655.539 173.212 656.577 174.308L656.586 174.318L656.596 174.327L661.405 179.137Z" fill="white" stroke="#00B9D2" stroke-width="2"/>
<path d="M729.255 198.237C728.426 198.237 727.755 198.909 727.755 199.737C727.755 200.566 728.426 201.237 729.255 201.237V198.237ZM775.57 200.798C776.156 200.212 776.156 199.262 775.57 198.677L766.024 189.131C765.439 188.545 764.489 188.545 763.903 189.131C763.317 189.716 763.317 190.666 763.903 191.252L772.388 199.737L763.903 208.223C763.317 208.808 763.317 209.758 763.903 210.344C764.489 210.93 765.439 210.93 766.024 210.344L775.57 200.798ZM729.255 201.237H774.51V198.237H729.255V201.237Z" fill="black"/>
<path d="M841.04 295.379C840.655 294.293 840.51 293.171 840.51 292.025C840.51 291.278 840.51 290.531 840.51 289.785C840.51 288.359 840.51 286.933 840.51 285.507C840.51 283.474 840.51 281.441 840.51 279.407C840.51 276.838 840.51 274.27 840.51 271.701C840.51 268.655 840.51 265.61 840.51 262.564C840.51 259.139 840.51 255.715 840.51 252.29C840.51 248.547 840.51 244.803 840.51 241.059C840.51 237.051 840.51 233.043 840.51 229.035C840.51 224.869 840.51 220.702 840.51 216.536C840.51 212.267 840.51 207.998 840.51 203.729C840.51 199.429 840.51 195.129 840.51 190.829C840.51 186.553 840.51 182.277 840.51 178.001C840.51 173.857 840.51 169.712 840.51 165.568C840.51 161.609 840.51 157.65 840.51 153.691C840.51 149.991 840.51 146.289 840.51 142.588C840.51 139.203 840.51 135.818 840.51 132.433C840.51 129.465 840.51 126.497 840.51 123.529C840.51 121.035 840.51 118.541 840.51 116.047C840.51 114.092 840.51 112.137 840.51 110.182C840.51 108.854 840.51 107.527 840.51 106.2C840.51 105.563 840.509 104.925 840.51 104.288C840.513 102.87 840.793 101.481 841.409 100.198C842.309 98.3203 843.851 96.7856 845.732 95.8895C846.997 95.287 848.37 95.0064 849.767 95.0009C850.205 94.9994 850.642 95.0009 851.08 95.0009C852.001 95.0009 852.923 95.0009 853.844 95.0009C855.224 95.0009 856.604 95.0009 857.983 95.0009C859.777 95.0009 861.571 95.0009 863.365 95.0009C865.546 95.0009 867.726 95.0009 869.907 95.0009C872.454 95.0009 875 95.0009 877.547 95.0009C880.406 95.0009 883.265 95.0009 886.123 95.0009C889.272 95.0009 892.42 95.0009 895.569 95.0009C898.975 95.0009 902.38 95.0009 905.787 95.0009C909.418 95.0009 913.049 95.0009 916.68 95.0009C920.521 95.0009 924.361 95.0009 928.201 95.0009C932.186 95.0009 936.172 95.0009 940.157 95.0009C944.27 95.0009 948.384 95.0009 952.497 95.0009C956.724 95.0009 960.95 95.0009 965.177 95.0009C969.45 95.0009 973.723 95.0009 977.995 95.0009C982.299 95.0009 986.603 95.0009 990.907 95.0009C995.209 95.0009 999.512 95.0009 1003.81 95.0009C1008.1 95.0009 1012.39 95.0009 1016.68 95.0009C1020.88 95.0009 1025.08 95.0009 1029.28 95.0009C1033.39 95.0009 1037.49 95.0009 1041.6 95.0009C1045.57 95.0009 1049.55 95.0009 1053.52 95.0009C1057.35 95.0009 1061.17 95.0009 1065 95.0009C1068.62 95.0009 1072.23 95.0009 1075.85 95.0009C1079.23 95.0009 1082.62 95.0009 1086.01 95.0009C1089.15 95.0009 1092.29 95.0009 1095.43 95.0009C1098.26 95.0009 1101.1 95.0009 1103.93 95.0009C1106.44 95.0009 1108.95 95.0009 1111.46 95.0009C1113.61 95.0009 1115.76 95.0009 1117.92 95.0009C1119.68 95.0009 1121.44 95.0009 1123.21 95.0009C1124.55 95.0009 1125.9 95.0009 1127.25 95.0009C1128.13 95.0009 1129.02 95.0009 1129.9 95.0009C1130.3 95.0009 1130.7 94.9989 1131.1 95.0009C1132.65 95.0094 1134.16 95.3674 1135.52 96.1038C1137.35 97.0959 1138.81 98.7084 1139.62 100.63C1140.11 101.818 1140.32 103.074 1140.32 104.356C1140.32 105.048 1140.32 105.74 1140.32 106.432C1140.32 107.816 1140.32 109.2 1140.32 110.584C1140.32 112.576 1140.32 114.568 1140.32 116.561C1140.32 119.094 1140.32 121.626 1140.32 124.159C1140.32 127.16 1140.32 130.161 1140.32 133.162C1140.32 136.575 1140.32 139.987 1140.32 143.4C1140.32 147.123 1140.32 150.846 1140.32 154.57C1140.32 158.545 1140.32 162.52 1140.32 166.496C1140.32 170.669 1140.32 174.842 1140.32 179.016C1140.32 183.28 1140.32 187.544 1140.32 191.808C1140.32 196.108 1140.32 200.408 1140.32 204.708C1140.32 208.971 1140.32 213.235 1140.32 217.499C1140.32 221.655 1140.32 225.81 1140.32 229.966C1140.32 233.957 1140.32 237.949 1140.32 241.941C1140.32 245.663 1140.32 249.385 1140.32 253.107C1140.32 256.505 1140.32 259.902 1140.32 263.3C1140.32 266.312 1140.32 269.326 1140.32 272.338C1140.32 274.868 1140.32 277.399 1140.32 279.93C1140.32 281.919 1140.32 283.91 1140.32 285.899C1140.32 287.28 1140.32 288.662 1140.32 290.043C1140.32 290.732 1140.32 291.421 1140.32 292.11C1140.32 293.228 1140.17 294.322 1139.79 295.38" fill="white"/>
<path d="M841.04 295.379C840.655 294.293 840.51 293.171 840.51 292.025C840.51 291.278 840.51 290.531 840.51 289.785C840.51 288.359 840.51 286.933 840.51 285.507C840.51 283.474 840.51 281.441 840.51 279.407C840.51 276.838 840.51 274.27 840.51 271.701C840.51 268.655 840.51 265.61 840.51 262.564C840.51 259.139 840.51 255.715 840.51 252.29C840.51 248.547 840.51 244.803 840.51 241.059C840.51 237.051 840.51 233.043 840.51 229.035C840.51 224.869 840.51 220.702 840.51 216.536C840.51 212.267 840.51 207.998 840.51 203.729C840.51 199.429 840.51 195.129 840.51 190.829C840.51 186.553 840.51 182.277 840.51 178.001C840.51 173.857 840.51 169.712 840.51 165.568C840.51 161.609 840.51 157.65 840.51 153.691C840.51 149.991 840.51 146.289 840.51 142.588C840.51 139.203 840.51 135.818 840.51 132.433C840.51 129.465 840.51 126.497 840.51 123.529C840.51 121.035 840.51 118.541 840.51 116.047C840.51 114.092 840.51 112.137 840.51 110.182C840.51 108.854 840.51 107.527 840.51 106.2C840.51 105.563 840.509 104.925 840.51 104.288C840.513 102.87 840.793 101.481 841.409 100.198C842.309 98.3203 843.851 96.7856 845.732 95.8895C846.997 95.287 848.37 95.0064 849.767 95.0009C850.205 94.9994 850.642 95.0009 851.08 95.0009C852.001 95.0009 852.923 95.0009 853.844 95.0009C855.224 95.0009 856.604 95.0009 857.983 95.0009C859.777 95.0009 861.571 95.0009 863.365 95.0009C865.546 95.0009 867.726 95.0009 869.907 95.0009C872.454 95.0009 875 95.0009 877.547 95.0009C880.406 95.0009 883.265 95.0009 886.123 95.0009C889.272 95.0009 892.42 95.0009 895.569 95.0009C898.975 95.0009 902.38 95.0009 905.787 95.0009C909.418 95.0009 913.049 95.0009 916.68 95.0009C920.521 95.0009 924.361 95.0009 928.201 95.0009C932.186 95.0009 936.172 95.0009 940.157 95.0009C944.27 95.0009 948.384 95.0009 952.497 95.0009C956.724 95.0009 960.95 95.0009 965.177 95.0009C969.45 95.0009 973.723 95.0009 977.995 95.0009C982.299 95.0009 986.603 95.0009 990.907 95.0009C995.209 95.0009 999.512 95.0009 1003.81 95.0009C1008.1 95.0009 1012.39 95.0009 1016.68 95.0009C1020.88 95.0009 1025.08 95.0009 1029.28 95.0009C1033.39 95.0009 1037.49 95.0009 1041.6 95.0009C1045.57 95.0009 1049.55 95.0009 1053.52 95.0009C1057.35 95.0009 1061.17 95.0009 1065 95.0009C1068.62 95.0009 1072.23 95.0009 1075.85 95.0009C1079.23 95.0009 1082.62 95.0009 1086.01 95.0009C1089.15 95.0009 1092.29 95.0009 1095.43 95.0009C1098.26 95.0009 1101.1 95.0009 1103.93 95.0009C1106.44 95.0009 1108.95 95.0009 1111.46 95.0009C1113.61 95.0009 1115.76 95.0009 1117.92 95.0009C1119.68 95.0009 1121.44 95.0009 1123.21 95.0009C1124.55 95.0009 1125.9 95.0009 1127.25 95.0009C1128.13 95.0009 1129.02 95.0009 1129.9 95.0009C1130.3 95.0009 1130.7 94.9989 1131.1 95.0009C1132.65 95.0094 1134.16 95.3674 1135.52 96.1038C1137.35 97.0959 1138.81 98.7084 1139.62 100.63C1140.11 101.818 1140.32 103.074 1140.32 104.356C1140.32 105.048 1140.32 105.74 1140.32 106.432C1140.32 107.816 1140.32 109.2 1140.32 110.584C1140.32 112.576 1140.32 114.568 1140.32 116.561C1140.32 119.094 1140.32 121.626 1140.32 124.159C1140.32 127.16 1140.32 130.161 1140.32 133.162C1140.32 136.575 1140.32 139.987 1140.32 143.4C1140.32 147.123 1140.32 150.846 1140.32 154.57C1140.32 158.545 1140.32 162.52 1140.32 166.496C1140.32 170.669 1140.32 174.842 1140.32 179.016C1140.32 183.28 1140.32 187.544 1140.32 191.808C1140.32 196.108 1140.32 200.408 1140.32 204.708C1140.32 208.971 1140.32 213.235 1140.32 217.499C1140.32 221.655 1140.32 225.81 1140.32 229.966C1140.32 233.957 1140.32 237.949 1140.32 241.941C1140.32 245.663 1140.32 249.385 1140.32 253.107C1140.32 256.505 1140.32 259.902 1140.32 263.3C1140.32 266.312 1140.32 269.326 1140.32 272.338C1140.32 274.868 1140.32 277.399 1140.32 279.93C1140.32 281.919 1140.32 283.91 1140.32 285.899C1140.32 287.28 1140.32 288.662 1140.32 290.043C1140.32 290.732 1140.32 291.421 1140.32 292.11C1140.32 293.228 1140.17 294.322 1139.79 295.38" stroke="black" stroke-width="2" stroke-miterlimit="10" stroke-linecap="round" stroke-linejoin="round"/>
<path d="M990.409 304.475C989.975 304.475 989.54 304.475 989.106 304.475C987.875 304.475 986.643 304.475 985.412 304.475C983.494 304.475 981.575 304.475 979.657 304.475C977.16 304.475 974.663 304.475 972.166 304.475C969.184 304.475 966.202 304.475 963.221 304.475C959.893 304.475 956.564 304.475 953.236 304.475C949.657 304.475 946.078 304.475 942.499 304.475C938.778 304.475 935.057 304.475 931.336 304.475C927.583 304.475 923.83 304.475 920.076 304.475C916.399 304.475 912.722 304.475 909.045 304.475C905.554 304.475 902.062 304.475 898.571 304.475C895.374 304.475 892.176 304.475 888.98 304.475C886.174 304.475 883.368 304.475 880.562 304.475C878.284 304.475 876.006 304.475 873.728 304.475C872.072 304.475 870.416 304.475 868.76 304.475C867.835 304.475 866.91 304.475 865.985 304.475C864.904 304.475 863.823 304.475 862.742 304.455C860.216 304.409 857.691 304.336 855.171 304.164C852.799 304.001 850.427 303.76 848.085 303.35C845.932 302.972 843.657 302.474 841.748 301.374C841.396 301.171 841.057 300.944 840.749 300.68C840.491 300.459 840.545 300.326 840.545 299.978C840.545 299.139 840.545 298.301 840.545 297.462C840.545 297.045 840.545 296.628 840.545 296.211C840.545 296.043 840.465 295.633 840.545 295.481C840.624 295.332 840.833 295.393 841.05 295.393C841.578 295.393 842.105 295.393 842.632 295.393C843.501 295.393 844.368 295.393 845.236 295.393C846.426 295.393 847.615 295.393 848.805 295.393C850.297 295.393 851.789 295.393 853.282 295.393C855.058 295.393 856.834 295.393 858.61 295.393C860.651 295.393 862.691 295.393 864.732 295.393C867.019 295.393 869.305 295.393 871.592 295.393C874.118 295.393 876.644 295.393 879.17 295.393C881.892 295.393 884.615 295.393 887.337 295.393C890.248 295.393 893.16 295.393 896.071 295.393C899.152 295.393 902.233 295.393 905.314 295.393C908.546 295.393 911.778 295.393 915.01 295.393C918.375 295.393 921.739 295.393 925.103 295.393C928.58 295.393 932.057 295.393 935.535 295.393C939.106 295.393 942.678 295.393 946.249 295.393C949.895 295.393 953.542 295.393 957.188 295.393C960.909 295.393 964.63 295.393 968.351 295.393C972.091 295.393 975.831 295.393 979.571 295.393C983.329 295.393 987.088 295.393 990.846 295.393C994.604 295.393 998.361 295.393 1002.12 295.393C1005.86 295.393 1009.59 295.393 1013.33 295.393C1017.03 295.393 1020.73 295.393 1024.43 295.393C1028.07 295.393 1031.71 295.393 1035.36 295.393C1038.92 295.393 1042.49 295.393 1046.05 295.393C1049.52 295.393 1052.99 295.393 1056.46 295.393C1059.83 295.393 1063.2 295.393 1066.57 295.393C1069.79 295.393 1073.02 295.393 1076.24 295.393C1079.31 295.393 1082.37 295.393 1085.44 295.393C1088.34 295.393 1091.24 295.393 1094.14 295.393C1096.84 295.393 1099.55 295.393 1102.26 295.393C1104.75 295.393 1107.25 295.393 1109.75 295.393C1112.02 295.393 1114.29 295.393 1116.56 295.393C1118.58 295.393 1120.6 295.393 1122.62 295.393C1124.39 295.393 1126.15 295.393 1127.92 295.393C1129.39 295.393 1130.86 295.393 1132.32 295.393C1133.49 295.393 1134.66 295.393 1135.82 295.393C1136.66 295.393 1137.51 295.393 1138.35 295.393C1138.85 295.393 1139.35 295.393 1139.85 295.393C1140.31 295.393 1140.28 295.308 1140.28 295.844C1140.28 296.669 1140.28 297.495 1140.28 298.32C1140.28 298.745 1140.28 299.169 1140.28 299.595C1140.28 299.831 1140.34 300.162 1140.28 300.392C1140.14 300.908 1139.15 301.344 1138.7 301.576C1136.7 302.611 1134.4 303.073 1132.19 303.442C1129.81 303.839 1127.4 304.051 1124.99 304.206C1122.61 304.36 1120.22 304.43 1117.83 304.46C1116.79 304.473 1115.75 304.475 1114.71 304.475C1113.72 304.475 1112.74 304.475 1111.75 304.475C1110.04 304.475 1108.33 304.475 1106.63 304.475C1104.3 304.475 1101.98 304.475 1099.66 304.475C1096.83 304.475 1094.01 304.475 1091.18 304.475C1087.96 304.475 1084.74 304.475 1081.52 304.475C1078.01 304.475 1074.5 304.475 1070.99 304.475C1067.29 304.475 1063.58 304.475 1059.88 304.475C1056.12 304.475 1052.37 304.475 1048.61 304.475C1044.9 304.475 1041.19 304.475 1037.47 304.475C1033.91 304.475 1030.35 304.475 1026.78 304.475C1023.48 304.475 1020.17 304.475 1016.87 304.475C1013.93 304.475 1011 304.475 1008.06 304.475C1005.6 304.475 1003.14 304.475 1000.68 304.475C998.812 304.475 996.94 304.475 995.067 304.475C993.89 304.475 992.713 304.475 991.536 304.475C991.16 304.475 990.785 304.475 990.409 304.475Z" fill="white" stroke="black" stroke-width="2" stroke-miterlimit="10" stroke-linecap="round" stroke-linejoin="round"/>
<path d="M969.65 295.38C969.758 296.252 970.189 297.068 971.068 297.471C971.654 297.74 972.307 297.795 972.949 297.798C977.177 297.814 981.405 297.798 985.633 297.798C988.268 297.798 990.903 297.798 993.538 297.798C998.123 297.798 1002.71 297.798 1007.29 297.798C1008.98 297.798 1010.72 297.579 1011.13 295.708C1011.15 295.599 1011.17 295.49 1011.18 295.38" stroke="black" stroke-width="2" stroke-miterlimit="10" stroke-linecap="round" stroke-linejoin="round"/>
<path d="M1140.02 300.534H840.813" stroke="black" stroke-width="2" stroke-miterlimit="10" stroke-linecap="round" stroke-linejoin="round"/>
<rect x="846.875" y="104.397" width="287.08" height="179.463" rx="0.303146" fill="white" stroke="black" stroke-width="2"/>
<path d="M991.477 101.512C991.468 100.528 990.195 100.072 989.579 100.85C988.984 101.602 989.658 102.732 990.601 102.561C991.102 102.471 991.476 102.021 991.477 101.512Z" stroke="black" stroke-width="2" stroke-miterlimit="10" stroke-linecap="round" stroke-linejoin="round"/>
<mask id="path-55-inside-3" fill="white">
<path fill-rule="evenodd" clip-rule="evenodd" d="M1008.18 120H951.831C946.308 120 941.831 124.477 941.831 130V256C941.831 261.523 946.308 266 951.831 266H1038.9C1044.42 266 1048.9 261.523 1048.9 256V160.718L1008.18 120Z"/>
</mask>
<path fill-rule="evenodd" clip-rule="evenodd" d="M1008.18 120H951.831C946.308 120 941.831 124.477 941.831 130V256C941.831 261.523 946.308 266 951.831 266H1038.9C1044.42 266 1048.9 261.523 1048.9 256V160.718L1008.18 120Z" fill="white"/>
<path d="M1008.18 120L1009.59 118.586L1009.01 118H1008.18V120ZM1048.9 160.718H1050.9V159.889L1050.31 159.304L1048.9 160.718ZM951.831 122H1008.18V118H951.831V122ZM943.831 130C943.831 125.582 947.413 122 951.831 122V118C945.204 118 939.831 123.373 939.831 130H943.831ZM943.831 256V130H939.831V256H943.831ZM951.831 264C947.413 264 943.831 260.418 943.831 256H939.831C939.831 262.628 945.204 268 951.831 268V264ZM1038.9 264H951.831V268H1038.9V264ZM1046.9 256C1046.9 260.418 1043.32 264 1038.9 264V268C1045.53 268 1050.9 262.628 1050.9 256H1046.9ZM1046.9 160.718V256H1050.9V160.718H1046.9ZM1050.31 159.304L1009.59 118.586L1006.77 121.414L1047.48 162.132L1050.31 159.304Z" fill="black" mask="url(#path-55-inside-3)"/>
<path d="M1005.1 124.866V163.8H1044.03" stroke="black" stroke-width="2" stroke-linecap="round" stroke-linejoin="round"/>
<path d="M969.957 137.431C971.286 137.431 972.173 138.139 972.173 139.201V144.069C972.173 144.512 972.173 147.167 969.957 147.167C970.843 147.167 973.059 147.698 973.059 149.823V155.134C973.059 156.166 972.527 158.232 970.4 158.232H965.524H959.762V147.167V137.431H965.524H969.957Z" fill="white"/>
<path d="M965.524 133.89V161.772M955.772 137.431H959.762M969.957 147.167C972.173 147.167 972.173 144.512 972.173 144.069C972.173 142.889 972.173 140.263 972.173 139.201C972.173 138.139 971.286 137.431 969.957 137.431H959.762M969.957 147.167C967.829 147.167 962.273 147.167 959.762 147.167M969.957 147.167C970.843 147.167 973.059 147.698 973.059 149.823C973.059 151.947 973.059 154.248 973.059 155.134C973.059 156.166 972.527 158.232 970.4 158.232C968.823 158.232 963.623 158.232 959.762 158.232M956.216 158.232C957.172 158.232 958.412 158.232 959.762 158.232M959.762 137.431V158.232" stroke="black" stroke-width="2" stroke-linecap="round" stroke-linejoin="round"/>
<line x1="1034.51" y1="175.041" x2="956.215" y2="175.041" stroke="black" stroke-width="2" stroke-linecap="round" stroke-linejoin="round"/>
<line x1="1012.21" y1="185" x2="956.215" y2="185" stroke="black" stroke-width="2" stroke-linecap="round" stroke-linejoin="round"/>
<rect width="79.7425" height="36" transform="translate(955.772 193.25)" fill="white"/>
<rect x="956.772" y="194.25" width="77.7425" height="34.3871" rx="3" stroke="black" stroke-width="2" stroke-linecap="round" stroke-linejoin="round"/>
<line x1="1033.96" y1="205.476" x2="957.33" y2="205.476" stroke="black" stroke-width="2" stroke-linecap="round" stroke-linejoin="round"/>
<line x1="1033.96" y1="218.25" x2="957.33" y2="218.249" stroke="black" stroke-width="2" stroke-linecap="round" stroke-linejoin="round"/>
<line x1="998.595" y1="194.25" x2="998.595" y2="228.25" stroke="black" stroke-width="2" stroke-linecap="round" stroke-linejoin="round"/>
<line x1="1016.44" y1="194.25" x2="1016.44" y2="228.25" stroke="black" stroke-width="2" stroke-linecap="round" stroke-linejoin="round"/>
<path d="M981.438 241.5C979.305 241.664 976.27 243.756 974.752 244.453C973.562 244.986 972.496 245.438 971.635 245.438C970.691 245.438 970.568 244.781 970.732 243.305C970.773 242.977 971.225 240.064 969.01 240.188C967.943 240.27 966.344 241.213 962.037 245.355L963.76 241.131C964.99 238.014 961.545 234.896 958.428 236.906L956.172 238.424C955.885 238.588 955.762 238.998 955.967 239.326L956.664 240.434C956.869 240.721 957.279 240.844 957.566 240.639L959.945 239.039C960.725 238.547 961.627 239.326 961.299 240.146L957.279 250.236C956.992 250.893 957.402 252 958.51 252C958.838 252 959.166 251.877 959.412 251.631C961.135 249.908 965.77 245.438 968.066 243.592C967.984 244.781 967.984 246.012 968.928 247.037C969.543 247.734 970.445 248.062 971.594 248.062C973.07 248.062 974.383 247.488 975.818 246.832C977.172 246.258 979.879 244.289 981.479 244.166C981.848 244.125 982.094 243.838 982.094 243.51V242.197C982.135 241.828 981.807 241.5 981.438 241.5Z" fill="#F7931A"/>
<path d="M1008.44 241.5C1006.3 241.664 1003.27 243.756 1001.75 244.453C1000.56 244.986 999.496 245.438 998.635 245.438C997.691 245.438 997.568 244.781 997.732 243.305C997.773 242.977 998.225 240.064 996.01 240.188C994.943 240.27 993.344 241.213 989.037 245.355L990.76 241.131C991.99 238.014 988.545 234.896 985.428 236.906L983.172 238.424C982.885 238.588 982.762 238.998 982.967 239.326L983.664 240.434C983.869 240.721 984.279 240.844 984.566 240.639L986.945 239.039C987.725 238.547 988.627 239.326 988.299 240.146L984.279 250.236C983.992 250.893 984.402 252 985.51 252C985.838 252 986.166 251.877 986.412 251.631C988.135 249.908 992.77 245.438 995.066 243.592C994.984 244.781 994.984 246.012 995.928 247.037C996.543 247.734 997.445 248.062 998.594 248.062C1000.07 248.062 1001.38 247.488 1002.82 246.832C1004.17 246.258 1006.88 244.289 1008.48 244.166C1008.85 244.125 1009.09 243.838 1009.09 243.51V242.197C1009.13 241.828 1008.81 241.5 1008.44 241.5Z" fill="#00B9D2"/>
<path d="M1035.44 241.5C1033.3 241.664 1030.27 243.756 1028.75 244.453C1027.56 244.986 1026.5 245.438 1025.63 245.438C1024.69 245.438 1024.57 244.781 1024.73 243.305C1024.77 242.977 1025.22 240.064 1023.01 240.188C1021.94 240.27 1020.34 241.213 1016.04 245.355L1017.76 241.131C1018.99 238.014 1015.54 234.896 1012.43 236.906L1010.17 238.424C1009.88 238.588 1009.76 238.998 1009.97 239.326L1010.66 240.434C1010.87 240.721 1011.28 240.844 1011.57 240.639L1013.95 239.039C1014.72 238.547 1015.63 239.326 1015.3 240.146L1011.28 250.236C1010.99 250.893 1011.4 252 1012.51 252C1012.84 252 1013.17 251.877 1013.41 251.631C1015.13 249.908 1019.77 245.438 1022.07 243.592C1021.98 244.781 1021.98 246.012 1022.93 247.037C1023.54 247.734 1024.45 248.062 1025.59 248.062C1027.07 248.062 1028.38 247.488 1029.82 246.832C1031.17 246.258 1033.88 244.289 1035.48 244.166C1035.85 244.125 1036.09 243.838 1036.09 243.51V242.197C1036.13 241.828 1035.81 241.5 1035.44 241.5Z" fill="black"/>
<path d="M1036.03 242.032L1036.03 242.018L1036.03 242.004L1036.96 233.218L1058.28 211.889L1067.13 220.736L1045.8 242.064L1037.02 242.989L1037 242.991L1036.99 242.992C1036.44 243.066 1035.95 242.581 1036.03 242.032ZM1074.17 209.659L1074.18 209.669L1074.19 209.678C1075.29 210.716 1075.31 212.553 1074.17 213.696L1070.39 217.478L1061.54 208.631L1065.32 204.849C1066.47 203.706 1068.3 203.734 1069.34 204.83L1069.35 204.84L1069.36 204.849L1074.17 209.659Z" fill="white" stroke="black" stroke-width="2"/>
<defs>
<clipPath id="clip0">
<rect width="88" height="150" fill="white" transform="translate(521.255 151.737)"/>
</clipPath>
</defs>
</svg>
