<svg width="945" height="400" viewBox="0 0 945 400" fill="none" xmlns="http://www.w3.org/2000/svg">
<rect width="945" height="400" fill="white"/>
<path d="M161.545 300.996C163.674 300.977 165.776 300.566 167.74 299.726C169.711 298.883 171.507 297.637 172.994 296.08C174.481 294.523 175.65 292.664 176.415 290.642C177.11 288.804 177.457 286.851 177.465 284.884C177.466 284.538 177.465 284.191 177.465 283.845C177.465 282.938 177.465 282.032 177.465 281.126C177.465 279.712 177.465 278.299 177.465 276.885C177.465 275.017 177.465 273.149 177.465 271.281C177.465 269.01 177.465 266.74 177.465 264.469C177.465 261.856 177.465 259.243 177.465 256.631C177.465 253.722 177.465 250.813 177.465 247.904C177.465 244.742 177.465 241.58 177.465 238.419C177.465 235.064 177.465 231.71 177.465 228.355C177.465 224.86 177.465 221.365 177.465 217.87C177.465 214.297 177.465 210.723 177.465 207.15C177.465 203.541 177.465 199.931 177.465 196.322C177.465 192.72 177.465 189.118 177.465 185.516C177.465 181.982 177.465 178.449 177.465 174.916C177.465 171.504 177.465 168.091 177.465 164.68C177.465 161.45 177.465 158.22 177.465 154.99C177.465 151.985 177.465 148.98 177.465 145.975C177.465 143.239 177.465 140.504 177.465 137.769C177.465 135.364 177.465 132.96 177.465 130.555C177.465 128.534 177.465 126.513 177.465 124.491C177.465 122.909 177.465 121.327 177.465 119.745C177.465 118.648 177.465 117.551 177.465 116.454C177.465 115.893 177.465 115.333 177.465 114.772C177.465 113.518 177.348 112.271 177.075 111.045C176.608 108.951 175.724 106.956 174.489 105.211C173.254 103.465 171.671 101.976 169.862 100.854C168.051 99.7325 166.022 98.9847 163.923 98.6631C162.85 98.4989 161.777 98.482 160.697 98.482C159.222 98.482 157.746 98.482 156.271 98.482C153.809 98.482 151.348 98.482 148.886 98.482C145.75 98.482 142.614 98.482 139.478 98.482C135.999 98.482 132.52 98.482 129.041 98.482C125.492 98.482 121.943 98.482 118.394 98.482C115.105 98.482 111.816 98.482 108.527 98.482C105.81 98.482 103.093 98.482 100.375 98.482C98.5421 98.482 96.7088 98.482 94.8755 98.482C94.1493 98.482 93.4225 98.4717 92.6963 98.4843C90.5798 98.5208 88.478 98.987 86.5404 99.8493C84.5879 100.718 82.8161 101.99 81.3556 103.562C79.8891 105.14 78.7442 107.02 78.0093 109.054C77.3674 110.832 77.0469 112.709 77.0399 114.601C77.0385 114.969 77.0399 115.337 77.0399 115.706C77.0399 116.632 77.0399 117.559 77.0399 118.485C77.0399 119.916 77.0399 121.348 77.0399 122.779C77.0399 124.664 77.0399 126.548 77.0399 128.432C77.0399 130.717 77.0399 133.001 77.0399 135.286C77.0399 137.904 77.0399 140.521 77.0399 143.138C77.0399 146.065 77.0399 148.992 77.0399 151.918C77.0399 155.088 77.0399 158.258 77.0399 161.428C77.0399 164.789 77.0399 168.15 77.0399 171.511C77.0399 175.01 77.0399 178.509 77.0399 182.009C77.0399 185.575 77.0399 189.141 77.0399 192.707C77.0399 196.326 77.0399 199.945 77.0399 203.564C77.0399 207.165 77.0399 210.765 77.0399 214.366C77.0399 217.896 77.0399 221.426 77.0399 224.955C77.0399 228.362 77.0399 231.768 77.0399 235.174C77.0399 238.397 77.0399 241.619 77.0399 244.841C77.0399 247.837 77.0399 250.833 77.0399 253.828C77.0399 256.552 77.0399 259.276 77.0399 261.999C77.0399 264.39 77.0399 266.781 77.0399 269.172C77.0399 271.178 77.0399 273.184 77.0399 275.19C77.0399 276.755 77.0399 278.32 77.0399 279.884C77.0399 280.962 77.0399 282.04 77.0399 283.117C77.0399 283.656 77.0399 284.195 77.0399 284.735C77.0399 286.057 77.1757 287.372 77.4826 288.66C77.9824 290.757 78.8998 292.749 80.1712 294.482C81.4316 296.2 83.0281 297.656 84.8469 298.747C86.6695 299.841 88.711 300.559 90.8108 300.848C91.8419 300.99 92.8725 300.996 93.9097 300.996C95.4279 300.996 96.9462 300.996 98.4641 300.996C100.957 300.996 103.449 300.996 105.942 300.996C109.097 300.996 112.253 300.996 115.408 300.996C118.894 300.996 122.381 300.996 125.867 300.996C129.412 300.996 132.957 300.996 136.502 300.996C139.775 300.996 143.049 300.996 146.322 300.996C149.011 300.996 151.701 300.996 154.391 300.996C156.185 300.996 157.978 300.996 159.772 300.996C159.86 300.996 161.545 300.996 161.545 300.996Z" stroke="black" stroke-width="2" stroke-miterlimit="10" stroke-linecap="round" stroke-linejoin="round"/>
<path d="M145.1 112.579C143.213 112.579 141.325 112.579 139.437 112.579C136.303 112.579 133.169 112.579 130.035 112.579C128.859 112.579 127.684 112.579 126.509 112.579C123.781 112.579 121.054 112.579 118.326 112.579C115.631 112.579 112.936 112.579 110.241 112.579C108.695 112.579 107.121 112.521 105.75 111.701C104.93 111.21 104.29 110.481 103.875 109.617C103.649 109.146 103.489 108.644 103.377 108.134C103.295 107.755 103.271 107.364 103.183 106.988C103.072 106.517 102.819 106.077 102.341 105.921C102.156 105.86 101.967 105.854 101.775 105.853C101.341 105.853 100.907 105.853 100.473 105.853C97.9371 105.853 95.4014 105.843 92.866 105.853C90.7325 105.863 88.6501 106.666 87.0718 108.12C85.4874 109.579 84.4862 111.624 84.3014 113.781C84.2626 114.234 84.2695 114.688 84.2695 115.142C84.2695 115.839 84.2695 116.536 84.2695 117.234C84.2695 118.386 84.2695 119.538 84.2695 120.69C84.2695 122.254 84.2695 123.819 84.2695 125.383C84.2695 127.324 84.2695 129.264 84.2695 131.205C84.2695 133.475 84.2695 135.745 84.2695 138.016C84.2695 140.565 84.2695 143.114 84.2695 145.664C84.2695 148.456 84.2695 151.248 84.2695 154.041C84.2695 157.034 84.2695 160.027 84.2695 163.02C84.2695 166.172 84.2695 169.323 84.2695 172.475C84.2695 175.743 84.2695 179.011 84.2695 182.278C84.2695 185.63 84.2695 188.981 84.2695 192.333C84.2695 195.716 84.2695 199.099 84.2695 202.482C84.2695 205.844 84.2695 209.207 84.2695 212.569C84.2695 215.879 84.2695 219.188 84.2695 222.497C84.2695 225.712 84.2695 228.925 84.2695 232.139C84.2695 235.216 84.2695 238.292 84.2695 241.368C84.2695 244.265 84.2695 247.161 84.2695 250.057C84.2695 252.731 84.2695 255.405 84.2695 258.079C84.2695 260.495 84.2695 262.911 84.2695 265.327C84.2695 267.435 84.2695 269.542 84.2695 271.65C84.2695 273.401 84.2695 275.153 84.2695 276.904C84.2695 278.264 84.2695 279.624 84.2695 280.984C84.2695 281.91 84.2695 282.836 84.2695 283.762C84.2695 284.212 84.2689 284.662 84.2695 285.112C84.2713 286.505 84.5639 287.874 85.1863 289.122C86.1538 291.064 87.8444 292.594 89.8622 293.353C91.004 293.782 92.1789 293.9 93.3848 293.9C94.574 293.9 95.7631 293.9 96.9522 293.9C99.0552 293.9 101.158 293.9 103.261 293.9C106.025 293.9 108.79 293.9 111.555 293.9C114.729 293.9 117.903 293.9 121.077 293.9C124.408 293.9 127.74 293.9 131.071 293.9C134.308 293.9 137.545 293.9 140.782 293.9C143.679 293.9 146.577 293.9 149.474 293.9C151.769 293.9 154.063 293.9 156.357 293.9C157.792 293.9 159.226 293.9 160.66 293.9C161.52 293.9 162.377 293.921 163.23 293.771C165.343 293.399 167.275 292.216 168.579 290.497C169.726 288.983 170.341 287.115 170.348 285.211C170.349 284.886 170.348 284.561 170.348 284.236C170.348 283.421 170.348 282.607 170.348 281.792C170.348 280.531 170.348 279.269 170.348 278.008C170.348 276.347 170.348 274.687 170.348 273.027C170.348 271.007 170.348 268.987 170.348 266.967C170.348 264.63 170.348 262.293 170.348 259.955C170.348 257.343 170.348 254.731 170.348 252.119C170.348 249.274 170.348 246.429 170.348 243.584C170.348 240.548 170.348 237.513 170.348 234.477C170.348 231.284 170.348 228.091 170.348 224.898C170.348 221.598 170.348 218.299 170.348 214.999C170.348 211.646 170.348 208.293 170.348 204.939C170.348 201.564 170.348 198.19 170.348 194.815C170.348 191.462 170.348 188.108 170.348 184.754C170.348 181.464 170.348 178.174 170.348 174.884C170.348 171.7 170.348 168.515 170.348 165.331C170.348 162.286 170.348 159.241 170.348 156.196C170.348 153.343 170.348 150.489 170.348 147.636C170.348 145.023 170.348 142.411 170.348 139.799C170.348 137.462 170.348 135.124 170.348 132.787C170.348 130.767 170.348 128.748 170.348 126.727C170.348 125.067 170.348 123.407 170.348 121.746C170.348 120.488 170.348 119.229 170.348 117.971C170.348 117.157 170.348 116.342 170.348 115.528C170.348 115.2 170.349 114.872 170.348 114.544C170.341 112.64 169.726 110.772 168.579 109.258C167.275 107.538 165.343 106.355 163.23 105.983C162.438 105.844 161.645 105.855 160.845 105.855C159.339 105.855 157.832 105.855 156.326 105.855C155.162 105.855 153.999 105.852 152.836 105.855C152.413 105.855 152.015 105.948 151.74 106.299C151.334 106.818 151.369 107.557 151.231 108.173C151.015 109.144 150.611 110.085 149.939 110.826C149.339 111.487 148.56 111.945 147.717 112.215C147.294 112.351 146.857 112.442 146.416 112.499C146.301 112.513 145.1 112.61 145.1 112.579Z" stroke="black" stroke-width="2" stroke-miterlimit="10" stroke-linecap="round" stroke-linejoin="round"/>
<path d="M136.6 274.618C136.6 280.088 132.205 284.508 126.8 284.508C121.395 284.508 117 280.088 117 274.618C117 269.149 121.395 264.729 126.8 264.729C132.205 264.729 136.6 269.149 136.6 274.618Z" stroke="black" stroke-width="2"/>
<mask id="path-3-inside-1" fill="white">
<path fill-rule="evenodd" clip-rule="evenodd" d="M177.671 89.478H121.322C115.799 89.478 111.322 93.9552 111.322 99.478V225.478C111.322 231.001 115.799 235.478 121.322 235.478H208.388C213.911 235.478 218.388 231.001 218.388 225.478V130.196L177.671 89.478Z"/>
</mask>
<path fill-rule="evenodd" clip-rule="evenodd" d="M177.671 89.478H121.322C115.799 89.478 111.322 93.9552 111.322 99.478V225.478C111.322 231.001 115.799 235.478 121.322 235.478H208.388C213.911 235.478 218.388 231.001 218.388 225.478V130.196L177.671 89.478Z" fill="white"/>
<path d="M177.671 89.478L179.085 88.0638L178.499 87.478H177.671V89.478ZM218.388 130.196H220.388V129.367L219.803 128.782L218.388 130.196ZM121.322 91.478H177.671V87.478H121.322V91.478ZM113.322 99.478C113.322 95.0598 116.903 91.478 121.322 91.478V87.478C114.694 87.478 109.322 92.8506 109.322 99.478H113.322ZM113.322 225.478V99.478H109.322V225.478H113.322ZM121.322 233.478C116.903 233.478 113.322 229.896 113.322 225.478H109.322C109.322 232.106 114.694 237.478 121.322 237.478V233.478ZM208.388 233.478H121.322V237.478H208.388V233.478ZM216.388 225.478C216.388 229.896 212.807 233.478 208.388 233.478V237.478C215.016 237.478 220.388 232.106 220.388 225.478H216.388ZM216.388 130.196V225.478H220.388V130.196H216.388ZM219.803 128.782L179.085 88.0638L176.256 90.8922L216.974 131.61L219.803 128.782Z" fill="black" mask="url(#path-3-inside-1)"/>
<path d="M174.588 94.3442V133.278H213.522" stroke="black" stroke-width="2" stroke-linecap="round" stroke-linejoin="round"/>
<path d="M139.447 106.909C140.776 106.909 141.663 107.617 141.663 108.679V113.547C141.663 113.99 141.663 116.645 139.447 116.645C140.333 116.645 142.549 117.176 142.549 119.301V124.612C142.549 125.644 142.017 127.71 139.89 127.71H135.014H129.252V116.645V106.909H135.014H139.447Z" fill="white"/>
<path d="M135.014 103.368V131.25M125.263 106.909H129.252M139.447 116.645C141.663 116.645 141.663 113.99 141.663 113.547C141.663 112.367 141.663 109.741 141.663 108.679C141.663 107.617 140.776 106.909 139.447 106.909H129.252M139.447 116.645C137.319 116.645 131.764 116.645 129.252 116.645M139.447 116.645C140.333 116.645 142.549 117.176 142.549 119.301C142.549 121.425 142.549 123.726 142.549 124.612C142.549 125.644 142.017 127.71 139.89 127.71C138.313 127.71 133.113 127.71 129.252 127.71M125.706 127.71C126.662 127.71 127.902 127.71 129.252 127.71M129.252 106.909V127.71" stroke="black" stroke-width="2" stroke-linecap="round" stroke-linejoin="round"/>
<line x1="204.005" y1="144.519" x2="125.705" y2="144.519" stroke="black" stroke-width="2" stroke-linecap="round" stroke-linejoin="round"/>
<line x1="181.699" y1="154.478" x2="125.705" y2="154.478" stroke="black" stroke-width="2" stroke-linecap="round" stroke-linejoin="round"/>
<rect width="79.7425" height="36" transform="translate(125.263 162.728)" fill="white"/>
<rect x="126.263" y="163.728" width="77.7425" height="34.3871" rx="3" stroke="black" stroke-width="2" stroke-linecap="round" stroke-linejoin="round"/>
<line x1="203.447" y1="174.954" x2="126.82" y2="174.954" stroke="black" stroke-width="2" stroke-linecap="round" stroke-linejoin="round"/>
<line x1="203.447" y1="187.728" x2="126.82" y2="187.728" stroke="black" stroke-width="2" stroke-linecap="round" stroke-linejoin="round"/>
<line x1="168.086" y1="163.728" x2="168.086" y2="197.728" stroke="black" stroke-width="2" stroke-linecap="round" stroke-linejoin="round"/>
<line x1="185.93" y1="163.728" x2="185.93" y2="197.728" stroke="black" stroke-width="2" stroke-linecap="round" stroke-linejoin="round"/>
<path d="M150.928 210.978C148.795 211.142 145.76 213.234 144.242 213.931C143.053 214.464 141.986 214.916 141.125 214.916C140.182 214.916 140.059 214.259 140.223 212.783C140.264 212.455 140.715 209.542 138.5 209.666C137.434 209.748 135.834 210.691 131.527 214.833L133.25 210.609C134.48 207.492 131.035 204.375 127.918 206.384L125.662 207.902C125.375 208.066 125.252 208.476 125.457 208.804L126.154 209.912C126.359 210.199 126.77 210.322 127.057 210.117L129.436 208.517C130.215 208.025 131.117 208.804 130.789 209.625L126.77 219.714C126.482 220.371 126.893 221.478 128 221.478C128.328 221.478 128.656 221.355 128.902 221.109C130.625 219.386 135.26 214.916 137.557 213.07C137.475 214.259 137.475 215.49 138.418 216.515C139.033 217.212 139.936 217.541 141.084 217.541C142.561 217.541 143.873 216.966 145.309 216.31C146.662 215.736 149.369 213.767 150.969 213.644C151.338 213.603 151.584 213.316 151.584 212.988V211.675C151.625 211.306 151.297 210.978 150.928 210.978Z" fill="#F7931A"/>
<path d="M151.008 211.51L151.009 211.496L151.011 211.482L151.936 202.696L173.264 181.367L182.111 190.214L160.782 211.542L151.996 212.467L151.982 212.469L151.968 212.47C151.419 212.544 150.934 212.059 151.008 211.51ZM189.151 179.137L189.16 179.147L189.17 179.156C190.266 180.194 190.294 182.031 189.151 183.174L185.369 186.956L176.522 178.11L180.304 174.327C181.447 173.184 183.284 173.212 184.322 174.308L184.331 174.318L184.341 174.327L189.151 179.137Z" fill="white" stroke="#F7931A" stroke-width="2"/>
<path d="M242 198.237C241.172 198.237 240.5 198.909 240.5 199.737C240.5 200.566 241.172 201.237 242 201.237V198.237ZM288.315 200.798C288.901 200.212 288.901 199.262 288.315 198.677L278.77 189.131C278.184 188.545 277.234 188.545 276.648 189.131C276.062 189.716 276.062 190.666 276.648 191.252L285.134 199.737L276.648 208.223C276.062 208.808 276.062 209.758 276.648 210.344C277.234 210.93 278.184 210.93 278.77 210.344L288.315 200.798ZM242 201.237H287.255V198.237H242V201.237Z" fill="black"/>
<g clip-path="url(#clip0)">
<rect x="331.255" y="152.737" width="86" height="148" rx="9" stroke="black" stroke-width="2"/>
<rect x="344.255" y="173.737" width="38" height="18" stroke="black" stroke-width="2"/>
<circle cx="353.255" cy="219.737" r="8" stroke="black" stroke-width="2"/>
<circle cx="353.255" cy="240.737" r="8" stroke="black" stroke-width="2"/>
<circle cx="353.255" cy="261.737" r="8" stroke="black" stroke-width="2"/>
<circle cx="353.255" cy="282.737" r="8" stroke="black" stroke-width="2"/>
<circle cx="374.255" cy="219.737" r="8" stroke="black" stroke-width="2"/>
<circle cx="374.255" cy="240.737" r="8" stroke="black" stroke-width="2"/>
<circle cx="374.255" cy="261.737" r="8" stroke="black" stroke-width="2"/>
<circle cx="374.255" cy="282.737" r="8" stroke="black" stroke-width="2"/>
<circle cx="395.255" cy="219.737" r="8" stroke="black" stroke-width="2"/>
<circle cx="395.255" cy="240.737" r="8" stroke="black" stroke-width="2"/>
<circle cx="395.255" cy="261.737" r="8" stroke="black" stroke-width="2"/>
<circle cx="395.255" cy="282.737" r="8" stroke="black" stroke-width="2"/>
</g>
<mask id="path-32-inside-2" fill="white">
<path fill-rule="evenodd" clip-rule="evenodd" d="M431.925 89.478H375.576C370.054 89.478 365.576 93.9552 365.576 99.478V225.478C365.576 231.001 370.054 235.478 375.576 235.478H462.643C468.166 235.478 472.643 231.001 472.643 225.478V130.196L431.925 89.478Z"/>
</mask>
<path fill-rule="evenodd" clip-rule="evenodd" d="M431.925 89.478H375.576C370.054 89.478 365.576 93.9552 365.576 99.478V225.478C365.576 231.001 370.054 235.478 375.576 235.478H462.643C468.166 235.478 472.643 231.001 472.643 225.478V130.196L431.925 89.478Z" fill="white"/>
<path d="M431.925 89.478L433.34 88.0638L432.754 87.478H431.925V89.478ZM472.643 130.196H474.643V129.367L474.057 128.782L472.643 130.196ZM375.576 91.478H431.925V87.478H375.576V91.478ZM367.576 99.478C367.576 95.0598 371.158 91.478 375.576 91.478V87.478C368.949 87.478 363.576 92.8506 363.576 99.478H367.576ZM367.576 225.478V99.478H363.576V225.478H367.576ZM375.576 233.478C371.158 233.478 367.576 229.896 367.576 225.478H363.576C363.576 232.106 368.949 237.478 375.576 237.478V233.478ZM462.643 233.478H375.576V237.478H462.643V233.478ZM470.643 225.478C470.643 229.896 467.061 233.478 462.643 233.478V237.478C469.271 237.478 474.643 232.106 474.643 225.478H470.643ZM470.643 130.196V225.478H474.643V130.196H470.643ZM474.057 128.782L433.34 88.0638L430.511 90.8922L471.229 131.61L474.057 128.782Z" fill="black" mask="url(#path-32-inside-2)"/>
<path d="M428.843 94.3442V133.278H467.777" stroke="black" stroke-width="2" stroke-linecap="round" stroke-linejoin="round"/>
<path d="M393.701 106.909C395.031 106.909 395.918 107.617 395.918 108.679V113.547C395.918 113.99 395.918 116.645 393.701 116.645C394.588 116.645 396.804 117.176 396.804 119.301V124.612C396.804 125.644 396.272 127.71 394.145 127.71H389.269H383.507V116.645V106.909H389.269H393.701Z" fill="white"/>
<path d="M389.269 103.368V131.25M379.517 106.909H383.507M393.701 116.645C395.918 116.645 395.918 113.99 395.918 113.547C395.918 112.367 395.918 109.741 395.918 108.679C395.918 107.617 395.031 106.909 393.701 106.909H383.507M393.701 116.645C391.574 116.645 386.018 116.645 383.507 116.645M393.701 116.645C394.588 116.645 396.804 117.176 396.804 119.301C396.804 121.425 396.804 123.726 396.804 124.612C396.804 125.644 396.272 127.71 394.145 127.71C392.568 127.71 387.368 127.71 383.507 127.71M379.961 127.71C380.917 127.71 382.157 127.71 383.507 127.71M383.507 106.909V127.71" stroke="black" stroke-width="2" stroke-linecap="round" stroke-linejoin="round"/>
<line x1="458.26" y1="144.519" x2="379.96" y2="144.519" stroke="black" stroke-width="2" stroke-linecap="round" stroke-linejoin="round"/>
<line x1="435.954" y1="154.478" x2="379.96" y2="154.478" stroke="black" stroke-width="2" stroke-linecap="round" stroke-linejoin="round"/>
<rect width="79.7425" height="36" transform="translate(379.517 162.728)" fill="white"/>
<rect x="380.517" y="163.728" width="77.7425" height="34.3871" rx="3" stroke="black" stroke-width="2" stroke-linecap="round" stroke-linejoin="round"/>
<line x1="457.702" y1="174.954" x2="381.075" y2="174.954" stroke="black" stroke-width="2" stroke-linecap="round" stroke-linejoin="round"/>
<line x1="457.702" y1="187.728" x2="381.075" y2="187.728" stroke="black" stroke-width="2" stroke-linecap="round" stroke-linejoin="round"/>
<line x1="422.34" y1="163.728" x2="422.34" y2="197.728" stroke="black" stroke-width="2" stroke-linecap="round" stroke-linejoin="round"/>
<line x1="440.185" y1="163.728" x2="440.185" y2="197.728" stroke="black" stroke-width="2" stroke-linecap="round" stroke-linejoin="round"/>
<path d="M405.183 210.978C403.05 211.142 400.015 213.234 398.497 213.931C397.308 214.464 396.241 214.916 395.38 214.916C394.436 214.916 394.313 214.259 394.477 212.783C394.518 212.455 394.97 209.542 392.755 209.666C391.688 209.748 390.089 210.691 385.782 214.833L387.505 210.609C388.735 207.492 385.29 204.375 382.173 206.384L379.917 207.902C379.63 208.066 379.507 208.476 379.712 208.804L380.409 209.912C380.614 210.199 381.024 210.322 381.311 210.117L383.69 208.517C384.47 208.025 385.372 208.804 385.044 209.625L381.024 219.714C380.737 220.371 381.147 221.478 382.255 221.478C382.583 221.478 382.911 221.355 383.157 221.109C384.88 219.386 389.515 214.916 391.811 213.07C391.729 214.259 391.729 215.49 392.673 216.515C393.288 217.212 394.19 217.541 395.339 217.541C396.815 217.541 398.128 216.966 399.563 216.31C400.917 215.736 403.624 213.767 405.224 213.644C405.593 213.603 405.839 213.316 405.839 212.988V211.675C405.88 211.306 405.552 210.978 405.183 210.978Z" fill="#F7931A"/>
<path d="M432.183 210.978C430.05 211.142 427.015 213.234 425.497 213.931C424.308 214.464 423.241 214.916 422.38 214.916C421.436 214.916 421.313 214.259 421.477 212.783C421.518 212.455 421.97 209.542 419.755 209.666C418.688 209.748 417.089 210.691 412.782 214.833L414.505 210.609C415.735 207.492 412.29 204.375 409.173 206.384L406.917 207.902C406.63 208.066 406.507 208.476 406.712 208.804L407.409 209.912C407.614 210.199 408.024 210.322 408.311 210.117L410.69 208.517C411.47 208.025 412.372 208.804 412.044 209.625L408.024 219.714C407.737 220.371 408.147 221.478 409.255 221.478C409.583 221.478 409.911 221.355 410.157 221.109C411.88 219.386 416.515 214.916 418.811 213.07C418.729 214.259 418.729 215.49 419.673 216.515C420.288 217.212 421.19 217.541 422.339 217.541C423.815 217.541 425.128 216.966 426.563 216.31C427.917 215.736 430.624 213.767 432.224 213.644C432.593 213.603 432.839 213.316 432.839 212.988V211.675C432.88 211.306 432.552 210.978 432.183 210.978Z" fill="#00B9D2"/>
<path d="M432.262 211.51L432.264 211.496L432.266 211.482L433.191 202.696L454.519 181.367L463.365 190.214L442.037 211.542L433.251 212.467L433.237 212.469L433.223 212.47C432.674 212.544 432.189 212.059 432.262 211.51ZM470.405 179.137L470.415 179.147L470.425 179.156C471.521 180.194 471.549 182.031 470.405 183.174L466.623 186.956L457.777 178.11L461.559 174.327C462.702 173.184 464.539 173.212 465.577 174.308L465.586 174.318L465.596 174.327L470.405 179.137Z" fill="white" stroke="#00B9D2" stroke-width="2"/>
<path d="M498.255 198.237C497.426 198.237 496.755 198.909 496.755 199.737C496.755 200.566 497.426 201.237 498.255 201.237V198.237ZM544.57 200.798C545.156 200.212 545.156 199.262 544.57 198.677L535.024 189.131C534.439 188.545 533.489 188.545 532.903 189.131C532.317 189.716 532.317 190.666 532.903 191.252L541.388 199.737L532.903 208.223C532.317 208.808 532.317 209.758 532.903 210.344C533.489 210.93 534.439 210.93 535.024 210.344L544.57 200.798ZM498.255 201.237H543.51V198.237H498.255V201.237Z" fill="black"/>
<path d="M570.04 295.379C569.655 294.293 569.51 293.171 569.51 292.025C569.51 291.278 569.51 290.531 569.51 289.785C569.51 288.359 569.51 286.933 569.51 285.507C569.51 283.474 569.51 281.441 569.51 279.407C569.51 276.838 569.51 274.27 569.51 271.701C569.51 268.655 569.51 265.61 569.51 262.564C569.51 259.139 569.51 255.715 569.51 252.29C569.51 248.547 569.51 244.803 569.51 241.059C569.51 237.051 569.51 233.043 569.51 229.035C569.51 224.869 569.51 220.702 569.51 216.536C569.51 212.267 569.51 207.998 569.51 203.729C569.51 199.429 569.51 195.129 569.51 190.829C569.51 186.553 569.51 182.277 569.51 178.001C569.51 173.857 569.51 169.712 569.51 165.568C569.51 161.609 569.51 157.65 569.51 153.691C569.51 149.991 569.51 146.289 569.51 142.588C569.51 139.203 569.51 135.818 569.51 132.433C569.51 129.465 569.51 126.497 569.51 123.529C569.51 121.035 569.51 118.541 569.51 116.047C569.51 114.092 569.51 112.137 569.51 110.182C569.51 108.854 569.51 107.527 569.51 106.2C569.51 105.563 569.509 104.925 569.51 104.288C569.513 102.87 569.793 101.481 570.409 100.198C571.309 98.3203 572.851 96.7856 574.732 95.8895C575.997 95.287 577.369 95.0064 578.767 95.0009C579.205 94.9994 579.642 95.0009 580.08 95.0009C581.001 95.0009 581.923 95.0009 582.844 95.0009C584.224 95.0009 585.603 95.0009 586.983 95.0009C588.777 95.0009 590.571 95.0009 592.365 95.0009C594.546 95.0009 596.726 95.0009 598.907 95.0009C601.454 95.0009 604 95.0009 606.547 95.0009C609.406 95.0009 612.264 95.0009 615.123 95.0009C618.272 95.0009 621.42 95.0009 624.569 95.0009C627.975 95.0009 631.38 95.0009 634.787 95.0009C638.418 95.0009 642.049 95.0009 645.68 95.0009C649.521 95.0009 653.361 95.0009 657.201 95.0009C661.186 95.0009 665.172 95.0009 669.157 95.0009C673.27 95.0009 677.383 95.0009 681.496 95.0009C685.724 95.0009 689.95 95.0009 694.177 95.0009C698.45 95.0009 702.723 95.0009 706.995 95.0009C711.299 95.0009 715.603 95.0009 719.907 95.0009C724.209 95.0009 728.512 95.0009 732.814 95.0009C737.101 95.0009 741.388 95.0009 745.675 95.0009C749.878 95.0009 754.081 95.0009 758.283 95.0009C762.388 95.0009 766.493 95.0009 770.597 95.0009C774.572 95.0009 778.545 95.0009 782.52 95.0009C786.347 95.0009 790.173 95.0009 794 95.0009C797.615 95.0009 801.231 95.0009 804.845 95.0009C808.233 95.0009 811.62 95.0009 815.008 95.0009C818.148 95.0009 821.288 95.0009 824.429 95.0009C827.263 95.0009 830.097 95.0009 832.931 95.0009C835.441 95.0009 837.95 95.0009 840.46 95.0009C842.612 95.0009 844.765 95.0009 846.917 95.0009C848.68 95.0009 850.443 95.0009 852.207 95.0009C853.553 95.0009 854.9 95.0009 856.246 95.0009C857.131 95.0009 858.017 95.0009 858.903 95.0009C859.303 95.0009 859.702 94.9989 860.102 95.0009C861.645 95.0094 863.161 95.3674 864.522 96.1038C866.355 97.0959 867.814 98.7084 868.616 100.63C869.112 101.818 869.32 103.074 869.321 104.356C869.322 105.048 869.321 105.74 869.321 106.432C869.321 107.816 869.321 109.2 869.321 110.584C869.321 112.576 869.321 114.568 869.321 116.561C869.321 119.094 869.321 121.626 869.321 124.159C869.321 127.16 869.321 130.161 869.321 133.162C869.321 136.575 869.321 139.987 869.321 143.4C869.321 147.123 869.321 150.846 869.321 154.57C869.321 158.545 869.321 162.52 869.321 166.496C869.321 170.669 869.321 174.842 869.321 179.016C869.321 183.28 869.321 187.544 869.321 191.808C869.321 196.108 869.321 200.408 869.321 204.708C869.321 208.971 869.321 213.235 869.321 217.499C869.321 221.655 869.321 225.81 869.321 229.966C869.321 233.957 869.321 237.949 869.321 241.941C869.321 245.663 869.321 249.385 869.321 253.107C869.321 256.505 869.321 259.902 869.321 263.3C869.321 266.312 869.321 269.326 869.321 272.338C869.321 274.868 869.321 277.399 869.321 279.93C869.321 281.919 869.321 283.91 869.321 285.899C869.321 287.28 869.321 288.662 869.321 290.043C869.321 290.732 869.322 291.421 869.321 292.11C869.32 293.228 869.165 294.322 868.791 295.38" fill="white"/>
<path d="M570.04 295.379C569.655 294.293 569.51 293.171 569.51 292.025C569.51 291.278 569.51 290.531 569.51 289.785C569.51 288.359 569.51 286.933 569.51 285.507C569.51 283.474 569.51 281.441 569.51 279.407C569.51 276.838 569.51 274.27 569.51 271.701C569.51 268.655 569.51 265.61 569.51 262.564C569.51 259.139 569.51 255.715 569.51 252.29C569.51 248.547 569.51 244.803 569.51 241.059C569.51 237.051 569.51 233.043 569.51 229.035C569.51 224.869 569.51 220.702 569.51 216.536C569.51 212.267 569.51 207.998 569.51 203.729C569.51 199.429 569.51 195.129 569.51 190.829C569.51 186.553 569.51 182.277 569.51 178.001C569.51 173.857 569.51 169.712 569.51 165.568C569.51 161.609 569.51 157.65 569.51 153.691C569.51 149.991 569.51 146.289 569.51 142.588C569.51 139.203 569.51 135.818 569.51 132.433C569.51 129.465 569.51 126.497 569.51 123.529C569.51 121.035 569.51 118.541 569.51 116.047C569.51 114.092 569.51 112.137 569.51 110.182C569.51 108.854 569.51 107.527 569.51 106.2C569.51 105.563 569.509 104.925 569.51 104.288C569.513 102.87 569.793 101.481 570.409 100.198C571.309 98.3203 572.851 96.7856 574.732 95.8895C575.997 95.287 577.369 95.0064 578.767 95.0009C579.205 94.9994 579.642 95.0009 580.08 95.0009C581.001 95.0009 581.923 95.0009 582.844 95.0009C584.224 95.0009 585.603 95.0009 586.983 95.0009C588.777 95.0009 590.571 95.0009 592.365 95.0009C594.546 95.0009 596.726 95.0009 598.907 95.0009C601.454 95.0009 604 95.0009 606.547 95.0009C609.406 95.0009 612.264 95.0009 615.123 95.0009C618.272 95.0009 621.42 95.0009 624.569 95.0009C627.975 95.0009 631.38 95.0009 634.787 95.0009C638.418 95.0009 642.049 95.0009 645.68 95.0009C649.521 95.0009 653.361 95.0009 657.201 95.0009C661.186 95.0009 665.172 95.0009 669.157 95.0009C673.27 95.0009 677.383 95.0009 681.496 95.0009C685.724 95.0009 689.95 95.0009 694.177 95.0009C698.45 95.0009 702.723 95.0009 706.995 95.0009C711.299 95.0009 715.603 95.0009 719.907 95.0009C724.209 95.0009 728.512 95.0009 732.814 95.0009C737.101 95.0009 741.388 95.0009 745.675 95.0009C749.878 95.0009 754.081 95.0009 758.283 95.0009C762.388 95.0009 766.493 95.0009 770.597 95.0009C774.572 95.0009 778.545 95.0009 782.52 95.0009C786.347 95.0009 790.173 95.0009 794 95.0009C797.615 95.0009 801.231 95.0009 804.845 95.0009C808.233 95.0009 811.62 95.0009 815.008 95.0009C818.148 95.0009 821.288 95.0009 824.429 95.0009C827.263 95.0009 830.097 95.0009 832.931 95.0009C835.441 95.0009 837.95 95.0009 840.46 95.0009C842.612 95.0009 844.765 95.0009 846.917 95.0009C848.68 95.0009 850.443 95.0009 852.207 95.0009C853.553 95.0009 854.9 95.0009 856.246 95.0009C857.131 95.0009 858.017 95.0009 858.903 95.0009C859.303 95.0009 859.702 94.9989 860.102 95.0009C861.645 95.0094 863.161 95.3674 864.522 96.1038C866.355 97.0959 867.814 98.7084 868.616 100.63C869.112 101.818 869.32 103.074 869.321 104.356C869.322 105.048 869.321 105.74 869.321 106.432C869.321 107.816 869.321 109.2 869.321 110.584C869.321 112.576 869.321 114.568 869.321 116.561C869.321 119.094 869.321 121.626 869.321 124.159C869.321 127.16 869.321 130.161 869.321 133.162C869.321 136.575 869.321 139.987 869.321 143.4C869.321 147.123 869.321 150.846 869.321 154.57C869.321 158.545 869.321 162.52 869.321 166.496C869.321 170.669 869.321 174.842 869.321 179.016C869.321 183.28 869.321 187.544 869.321 191.808C869.321 196.108 869.321 200.408 869.321 204.708C869.321 208.971 869.321 213.235 869.321 217.499C869.321 221.655 869.321 225.81 869.321 229.966C869.321 233.957 869.321 237.949 869.321 241.941C869.321 245.663 869.321 249.385 869.321 253.107C869.321 256.505 869.321 259.902 869.321 263.3C869.321 266.312 869.321 269.326 869.321 272.338C869.321 274.868 869.321 277.399 869.321 279.93C869.321 281.919 869.321 283.91 869.321 285.899C869.321 287.28 869.321 288.662 869.321 290.043C869.321 290.732 869.322 291.421 869.321 292.11C869.32 293.228 869.165 294.322 868.791 295.38" stroke="black" stroke-width="2" stroke-miterlimit="10" stroke-linecap="round" stroke-linejoin="round"/>
<path d="M719.409 304.475C718.975 304.475 718.54 304.475 718.106 304.475C716.875 304.475 715.643 304.475 714.412 304.475C712.494 304.475 710.575 304.475 708.657 304.475C706.16 304.475 703.663 304.475 701.166 304.475C698.184 304.475 695.202 304.475 692.22 304.475C688.892 304.475 685.564 304.475 682.236 304.475C678.657 304.475 675.078 304.475 671.499 304.475C667.778 304.475 664.057 304.475 660.336 304.475C656.583 304.475 652.83 304.475 649.076 304.475C645.399 304.475 641.722 304.475 638.045 304.475C634.554 304.475 631.062 304.475 627.571 304.475C624.374 304.475 621.176 304.475 617.979 304.475C615.173 304.475 612.368 304.475 609.562 304.475C607.284 304.475 605.005 304.475 602.727 304.475C601.071 304.475 599.415 304.475 597.76 304.475C596.835 304.475 595.91 304.475 594.985 304.475C593.904 304.475 592.823 304.475 591.742 304.455C589.216 304.409 586.691 304.336 584.171 304.164C581.799 304.001 579.427 303.76 577.085 303.35C574.932 302.972 572.657 302.474 570.747 301.374C570.396 301.171 570.057 300.944 569.749 300.68C569.491 300.459 569.545 300.326 569.545 299.978C569.545 299.139 569.545 298.301 569.545 297.462C569.545 297.045 569.545 296.628 569.545 296.211C569.545 296.043 569.465 295.633 569.545 295.481C569.624 295.332 569.833 295.393 570.05 295.393C570.578 295.393 571.105 295.393 571.632 295.393C572.5 295.393 573.368 295.393 574.236 295.393C575.426 295.393 576.615 295.393 577.805 295.393C579.297 295.393 580.789 295.393 582.281 295.393C584.058 295.393 585.834 295.393 587.61 295.393C589.65 295.393 591.691 295.393 593.732 295.393C596.019 295.393 598.305 295.393 600.592 295.393C603.118 295.393 605.644 295.393 608.17 295.393C610.892 295.393 613.615 295.393 616.337 295.393C619.248 295.393 622.16 295.393 625.071 295.393C628.152 295.393 631.233 295.393 634.314 295.393C637.546 295.393 640.778 295.393 644.01 295.393C647.374 295.393 650.739 295.393 654.103 295.393C657.58 295.393 661.057 295.393 664.535 295.393C668.106 295.393 671.677 295.393 675.249 295.393C678.895 295.393 682.542 295.393 686.188 295.393C689.909 295.393 693.63 295.393 697.351 295.393C701.091 295.393 704.831 295.393 708.571 295.393C712.329 295.393 716.088 295.393 719.846 295.393C723.604 295.393 727.361 295.393 731.119 295.393C734.857 295.393 738.595 295.393 742.333 295.393C746.032 295.393 749.731 295.393 753.431 295.393C757.072 295.393 760.714 295.393 764.356 295.393C767.921 295.393 771.486 295.393 775.051 295.393C778.521 295.393 781.991 295.393 785.46 295.393C788.832 295.393 792.203 295.393 795.574 295.393C798.795 295.393 802.016 295.393 805.237 295.393C808.306 295.393 811.375 295.393 814.444 295.393C817.341 295.393 820.238 295.393 823.135 295.393C825.842 295.393 828.549 295.393 831.256 295.393C833.754 295.393 836.252 295.393 838.75 295.393C841.019 295.393 843.288 295.393 845.558 295.393C847.58 295.393 849.602 295.393 851.625 295.393C853.389 295.393 855.152 295.393 856.916 295.393C858.386 295.393 859.855 295.393 861.325 295.393C862.49 295.393 863.655 295.393 864.821 295.393C865.664 295.393 866.506 295.393 867.348 295.393C867.848 295.393 868.348 295.393 868.848 295.393C869.31 295.393 869.275 295.308 869.275 295.844C869.275 296.669 869.275 297.495 869.275 298.32C869.275 298.745 869.275 299.169 869.275 299.595C869.275 299.831 869.336 300.162 869.275 300.392C869.139 300.908 868.151 301.344 867.701 301.576C865.696 302.611 863.399 303.073 861.188 303.442C858.807 303.839 856.397 304.051 853.989 304.206C851.607 304.36 849.218 304.43 846.832 304.46C845.79 304.473 844.748 304.475 843.706 304.475C842.721 304.475 841.736 304.475 840.751 304.475C839.042 304.475 837.335 304.475 835.627 304.475C833.305 304.475 830.983 304.475 828.661 304.475C825.835 304.475 823.009 304.475 820.182 304.475C816.96 304.475 813.738 304.475 810.516 304.475C807.008 304.475 803.499 304.475 799.99 304.475C796.286 304.475 792.582 304.475 788.878 304.475C785.123 304.475 781.368 304.475 777.614 304.475C773.9 304.475 770.186 304.475 766.473 304.475C762.909 304.475 759.346 304.475 755.783 304.475C752.478 304.475 749.174 304.475 745.87 304.475C742.934 304.475 739.997 304.475 737.061 304.475C734.603 304.475 732.144 304.475 729.685 304.475C727.812 304.475 725.94 304.475 724.067 304.475C722.89 304.475 721.713 304.475 720.536 304.475C720.159 304.475 719.785 304.475 719.409 304.475Z" fill="white" stroke="black" stroke-width="2" stroke-miterlimit="10" stroke-linecap="round" stroke-linejoin="round"/>
<path d="M698.65 295.38C698.758 296.252 699.189 297.068 700.068 297.471C700.654 297.74 701.307 297.795 701.949 297.798C706.177 297.814 710.405 297.798 714.632 297.798C717.268 297.798 719.903 297.798 722.538 297.798C727.123 297.798 731.707 297.798 736.291 297.798C737.98 297.798 739.722 297.579 740.126 295.708C740.15 295.599 740.168 295.49 740.181 295.38" stroke="black" stroke-width="2" stroke-miterlimit="10" stroke-linecap="round" stroke-linejoin="round"/>
<path d="M869.018 300.534H569.813" stroke="black" stroke-width="2" stroke-miterlimit="10" stroke-linecap="round" stroke-linejoin="round"/>
<rect x="575.875" y="104.397" width="287.08" height="179.463" rx="0.303146" fill="white" stroke="black" stroke-width="2"/>
<path d="M720.476 101.512C720.468 100.528 719.195 100.072 718.578 100.85C717.984 101.602 718.658 102.732 719.601 102.561C720.102 102.471 720.476 102.021 720.476 101.512Z" stroke="black" stroke-width="2" stroke-miterlimit="10" stroke-linecap="round" stroke-linejoin="round"/>
<mask id="path-55-inside-3" fill="white">
<path fill-rule="evenodd" clip-rule="evenodd" d="M737.18 120H680.831C675.308 120 670.831 124.477 670.831 130V256C670.831 261.523 675.308 266 680.831 266H767.898C773.421 266 777.898 261.523 777.898 256V160.718L737.18 120Z"/>
</mask>
<path fill-rule="evenodd" clip-rule="evenodd" d="M737.18 120H680.831C675.308 120 670.831 124.477 670.831 130V256C670.831 261.523 675.308 266 680.831 266H767.898C773.421 266 777.898 261.523 777.898 256V160.718L737.18 120Z" fill="white"/>
<path d="M737.18 120L738.594 118.586L738.009 118H737.18V120ZM777.898 160.718H779.898V159.889L779.312 159.304L777.898 160.718ZM680.831 122H737.18V118H680.831V122ZM672.831 130C672.831 125.582 676.413 122 680.831 122V118C674.204 118 668.831 123.373 668.831 130H672.831ZM672.831 256V130H668.831V256H672.831ZM680.831 264C676.413 264 672.831 260.418 672.831 256H668.831C668.831 262.628 674.204 268 680.831 268V264ZM767.898 264H680.831V268H767.898V264ZM775.898 256C775.898 260.418 772.316 264 767.898 264V268C774.525 268 779.898 262.628 779.898 256H775.898ZM775.898 160.718V256H779.898V160.718H775.898ZM779.312 159.304L738.594 118.586L735.766 121.414L776.484 162.132L779.312 159.304Z" fill="black" mask="url(#path-55-inside-3)"/>
<path d="M734.098 124.866V163.8H773.031" stroke="black" stroke-width="2" stroke-linecap="round" stroke-linejoin="round"/>
<path d="M698.956 137.431C700.286 137.431 701.173 138.139 701.173 139.201V144.069C701.173 144.512 701.173 147.167 698.956 147.167C699.843 147.167 702.059 147.698 702.059 149.823V155.134C702.059 156.166 701.527 158.232 699.4 158.232H694.524H688.761V147.167V137.431H694.524H698.956Z" fill="white"/>
<path d="M694.524 133.89V161.772M684.772 137.431H688.761M698.956 147.167C701.173 147.167 701.173 144.512 701.173 144.069C701.173 142.889 701.173 140.263 701.173 139.201C701.173 138.139 700.286 137.431 698.956 137.431H688.761M698.956 147.167C696.829 147.167 691.273 147.167 688.761 147.167M698.956 147.167C699.843 147.167 702.059 147.698 702.059 149.823C702.059 151.947 702.059 154.248 702.059 155.134C702.059 156.166 701.527 158.232 699.4 158.232C697.823 158.232 692.623 158.232 688.761 158.232M685.215 158.232C686.172 158.232 687.412 158.232 688.761 158.232M688.761 137.431V158.232" stroke="black" stroke-width="2" stroke-linecap="round" stroke-linejoin="round"/>
<line x1="763.515" y1="175.041" x2="685.215" y2="175.041" stroke="black" stroke-width="2" stroke-linecap="round" stroke-linejoin="round"/>
<line x1="741.209" y1="185" x2="685.215" y2="185" stroke="black" stroke-width="2" stroke-linecap="round" stroke-linejoin="round"/>
<rect width="79.7425" height="36" transform="translate(684.772 193.25)" fill="white"/>
<rect x="685.772" y="194.25" width="77.7425" height="34.3871" rx="3" stroke="black" stroke-width="2" stroke-linecap="round" stroke-linejoin="round"/>
<line x1="762.957" y1="205.476" x2="686.33" y2="205.476" stroke="black" stroke-width="2" stroke-linecap="round" stroke-linejoin="round"/>
<line x1="762.957" y1="218.25" x2="686.33" y2="218.249" stroke="black" stroke-width="2" stroke-linecap="round" stroke-linejoin="round"/>
<line x1="727.595" y1="194.25" x2="727.595" y2="228.25" stroke="black" stroke-width="2" stroke-linecap="round" stroke-linejoin="round"/>
<line x1="745.44" y1="194.25" x2="745.44" y2="228.25" stroke="black" stroke-width="2" stroke-linecap="round" stroke-linejoin="round"/>
<path d="M710.437 241.5C708.305 241.664 705.269 243.756 703.752 244.453C702.562 244.986 701.496 245.438 700.635 245.438C699.691 245.438 699.568 244.781 699.732 243.305C699.773 242.977 700.224 240.064 698.01 240.188C696.943 240.27 695.344 241.213 691.037 245.355L692.76 241.131C693.99 238.014 690.545 234.896 687.428 236.906L685.172 238.424C684.885 238.588 684.762 238.998 684.967 239.326L685.664 240.434C685.869 240.721 686.279 240.844 686.566 240.639L688.945 239.039C689.724 238.547 690.627 239.326 690.299 240.146L686.279 250.236C685.992 250.893 686.402 252 687.51 252C687.838 252 688.166 251.877 688.412 251.631C690.135 249.908 694.769 245.438 697.066 243.592C696.984 244.781 696.984 246.012 697.928 247.037C698.543 247.734 699.445 248.062 700.594 248.062C702.07 248.062 703.383 247.488 704.818 246.832C706.172 246.258 708.879 244.289 710.478 244.166C710.848 244.125 711.094 243.838 711.094 243.51V242.197C711.135 241.828 710.807 241.5 710.437 241.5Z" fill="#F7931A"/>
<path d="M737.437 241.5C735.305 241.664 732.269 243.756 730.752 244.453C729.562 244.986 728.496 245.438 727.635 245.438C726.691 245.438 726.568 244.781 726.732 243.305C726.773 242.977 727.224 240.064 725.01 240.188C723.943 240.27 722.344 241.213 718.037 245.355L719.76 241.131C720.99 238.014 717.545 234.896 714.428 236.906L712.172 238.424C711.885 238.588 711.762 238.998 711.967 239.326L712.664 240.434C712.869 240.721 713.279 240.844 713.566 240.639L715.945 239.039C716.724 238.547 717.627 239.326 717.299 240.146L713.279 250.236C712.992 250.893 713.402 252 714.51 252C714.838 252 715.166 251.877 715.412 251.631C717.135 249.908 721.769 245.438 724.066 243.592C723.984 244.781 723.984 246.012 724.928 247.037C725.543 247.734 726.445 248.062 727.594 248.062C729.07 248.062 730.383 247.488 731.818 246.832C733.172 246.258 735.879 244.289 737.478 244.166C737.848 244.125 738.094 243.838 738.094 243.51V242.197C738.135 241.828 737.807 241.5 737.437 241.5Z" fill="#00B9D2"/>
<path d="M764.437 241.5C762.305 241.664 759.269 243.756 757.752 244.453C756.562 244.986 755.496 245.438 754.635 245.438C753.691 245.438 753.568 244.781 753.732 243.305C753.773 242.977 754.224 240.064 752.01 240.188C750.943 240.27 749.344 241.213 745.037 245.355L746.76 241.131C747.99 238.014 744.545 234.896 741.428 236.906L739.172 238.424C738.885 238.588 738.762 238.998 738.967 239.326L739.664 240.434C739.869 240.721 740.279 240.844 740.566 240.639L742.945 239.039C743.724 238.547 744.627 239.326 744.299 240.146L740.279 250.236C739.992 250.893 740.402 252 741.51 252C741.838 252 742.166 251.877 742.412 251.631C744.135 249.908 748.769 245.438 751.066 243.592C750.984 244.781 750.984 246.012 751.928 247.037C752.543 247.734 753.445 248.062 754.594 248.062C756.07 248.062 757.383 247.488 758.818 246.832C760.172 246.258 762.879 244.289 764.478 244.166C764.848 244.125 765.094 243.838 765.094 243.51V242.197C765.135 241.828 764.807 241.5 764.437 241.5Z" fill="black"/>
<path d="M765.027 242.032L765.029 242.018L765.03 242.004L765.955 233.218L787.283 211.889L796.13 220.736L774.802 242.064L766.015 242.989L766.002 242.991L765.988 242.992C765.439 243.066 764.954 242.581 765.027 242.032ZM803.17 209.659L803.18 209.669L803.189 209.678C804.285 210.716 804.313 212.553 803.17 213.696L799.388 217.478L790.541 208.631L794.323 204.849C795.467 203.706 797.303 203.734 798.341 204.83L798.351 204.84L798.36 204.849L803.17 209.659Z" fill="white" stroke="black" stroke-width="2"/>
<defs>
<clipPath id="clip0">
<rect width="88" height="150" fill="white" transform="translate(330.255 151.737)"/>
</clipPath>
</defs>
</svg>
