<svg width="1336" height="542" viewBox="0 0 1336 542" fill="none" xmlns="http://www.w3.org/2000/svg">
<rect width="1336" height="542" fill="white"/>
<path d="M570.209 253V243.926H573.823C574.638 243.926 575.262 244.16 575.695 244.628C576.137 245.087 576.358 245.72 576.358 246.526C576.358 247.332 576.137 247.969 575.695 248.437C575.262 248.896 574.638 249.126 573.823 249.126H571.301V253H570.209ZM571.301 248.164H573.823C574.256 248.164 574.59 248.051 574.824 247.826C575.067 247.601 575.188 247.28 575.188 246.864V246.188C575.188 245.772 575.067 245.451 574.824 245.226C574.59 245.001 574.256 244.888 573.823 244.888H571.301V248.164ZM582.737 253C582.347 253 582.065 252.896 581.892 252.688C581.727 252.48 581.623 252.22 581.58 251.908H581.515C581.368 252.324 581.125 252.636 580.787 252.844C580.449 253.052 580.046 253.156 579.578 253.156C578.867 253.156 578.313 252.974 577.914 252.61C577.524 252.246 577.329 251.752 577.329 251.128C577.329 250.495 577.559 250.01 578.018 249.672C578.486 249.334 579.21 249.165 580.189 249.165H581.515V248.502C581.515 248.025 581.385 247.661 581.125 247.41C580.865 247.159 580.466 247.033 579.929 247.033C579.522 247.033 579.179 247.124 578.902 247.306C578.633 247.488 578.408 247.731 578.226 248.034L577.602 247.449C577.784 247.085 578.074 246.777 578.473 246.526C578.872 246.266 579.374 246.136 579.981 246.136C580.796 246.136 581.428 246.335 581.879 246.734C582.33 247.133 582.555 247.687 582.555 248.398V252.09H583.322V253H582.737ZM579.747 252.272C580.007 252.272 580.245 252.242 580.462 252.181C580.679 252.12 580.865 252.034 581.021 251.921C581.177 251.808 581.298 251.678 581.385 251.531C581.472 251.384 581.515 251.223 581.515 251.05V249.945H580.137C579.539 249.945 579.101 250.032 578.824 250.205C578.555 250.378 578.421 250.63 578.421 250.959V251.232C578.421 251.561 578.538 251.817 578.772 251.999C579.015 252.181 579.34 252.272 579.747 252.272ZM588.877 246.292H589.904L586.901 254.56C586.823 254.759 586.745 254.924 586.667 255.054C586.589 255.193 586.493 255.301 586.381 255.379C586.268 255.457 586.125 255.513 585.952 255.548C585.787 255.583 585.583 255.6 585.341 255.6H584.808V254.69H585.861L586.368 253.26L583.859 246.292H584.899L586.511 250.855L586.823 251.947H586.888L587.252 250.855L588.877 246.292ZM591.23 253V246.292H592.27V247.384H592.322C592.4 247.211 592.487 247.05 592.582 246.903C592.686 246.747 592.807 246.613 592.946 246.5C593.093 246.387 593.262 246.301 593.453 246.24C593.644 246.171 593.869 246.136 594.129 246.136C594.571 246.136 594.978 246.244 595.351 246.461C595.724 246.669 596.001 247.016 596.183 247.501H596.209C596.33 247.137 596.556 246.821 596.885 246.552C597.223 246.275 597.678 246.136 598.25 246.136C598.935 246.136 599.468 246.361 599.849 246.812C600.239 247.254 600.434 247.882 600.434 248.697V253H599.394V248.879C599.394 248.281 599.277 247.83 599.043 247.527C598.809 247.224 598.436 247.072 597.925 247.072C597.717 247.072 597.518 247.098 597.327 247.15C597.145 247.202 596.98 247.28 596.833 247.384C596.686 247.488 596.569 247.622 596.482 247.787C596.395 247.943 596.352 248.129 596.352 248.346V253H595.312V248.879C595.312 248.281 595.195 247.83 594.961 247.527C594.727 247.224 594.363 247.072 593.869 247.072C593.661 247.072 593.462 247.098 593.271 247.15C593.08 247.202 592.911 247.28 592.764 247.384C592.617 247.488 592.495 247.622 592.4 247.787C592.313 247.943 592.27 248.129 592.27 248.346V253H591.23ZM605.102 253.156C604.642 253.156 604.226 253.074 603.854 252.909C603.49 252.744 603.173 252.51 602.905 252.207C602.645 251.895 602.441 251.527 602.294 251.102C602.155 250.669 602.086 250.183 602.086 249.646C602.086 249.117 602.155 248.636 602.294 248.203C602.441 247.77 602.645 247.401 602.905 247.098C603.173 246.786 603.49 246.548 603.854 246.383C604.226 246.218 604.642 246.136 605.102 246.136C605.552 246.136 605.955 246.218 606.311 246.383C606.666 246.548 606.969 246.777 607.221 247.072C607.472 247.358 607.663 247.7 607.793 248.099C607.931 248.498 608.001 248.935 608.001 249.412V249.906H603.178V250.218C603.178 250.504 603.221 250.773 603.308 251.024C603.403 251.267 603.533 251.479 603.698 251.661C603.871 251.843 604.079 251.986 604.322 252.09C604.573 252.194 604.855 252.246 605.167 252.246C605.591 252.246 605.96 252.146 606.272 251.947C606.592 251.748 606.839 251.462 607.013 251.089L607.754 251.622C607.537 252.081 607.199 252.454 606.74 252.74C606.28 253.017 605.734 253.156 605.102 253.156ZM605.102 247.007C604.816 247.007 604.556 247.059 604.322 247.163C604.088 247.258 603.884 247.397 603.711 247.579C603.546 247.761 603.416 247.978 603.321 248.229C603.225 248.472 603.178 248.74 603.178 249.035V249.126H606.883V248.983C606.883 248.385 606.718 247.908 606.389 247.553C606.068 247.189 605.639 247.007 605.102 247.007ZM609.714 253V246.292H610.754V247.384H610.806C610.971 247.003 611.201 246.699 611.495 246.474C611.799 246.249 612.202 246.136 612.704 246.136C613.398 246.136 613.944 246.361 614.342 246.812C614.75 247.254 614.953 247.882 614.953 248.697V253H613.913V248.879C613.913 247.674 613.406 247.072 612.392 247.072C612.184 247.072 611.981 247.098 611.781 247.15C611.591 247.202 611.417 247.28 611.261 247.384C611.105 247.488 610.98 247.622 610.884 247.787C610.798 247.943 610.754 248.129 610.754 248.346V253H609.714ZM618.585 253C618.221 253 617.944 252.9 617.753 252.701C617.571 252.493 617.48 252.224 617.48 251.895V247.202H616.375V246.292H616.999C617.224 246.292 617.376 246.249 617.454 246.162C617.541 246.067 617.584 245.906 617.584 245.681V244.433H618.52V246.292H619.989V247.202H618.52V252.09H619.885V253H618.585ZM626.215 253C625.851 253 625.574 252.9 625.383 252.701C625.201 252.493 625.11 252.224 625.11 251.895V247.202H624.005V246.292H624.629C624.854 246.292 625.006 246.249 625.084 246.162C625.171 246.067 625.214 245.906 625.214 245.681V244.433H626.15V246.292H627.619V247.202H626.15V252.09H627.515V253H626.215ZM631.775 253.156C631.324 253.156 630.912 253.074 630.54 252.909C630.167 252.744 629.846 252.51 629.578 252.207C629.318 251.895 629.114 251.527 628.967 251.102C628.819 250.669 628.746 250.183 628.746 249.646C628.746 249.117 628.819 248.636 628.967 248.203C629.114 247.77 629.318 247.401 629.578 247.098C629.846 246.786 630.167 246.548 630.54 246.383C630.912 246.218 631.324 246.136 631.775 246.136C632.225 246.136 632.633 246.218 632.997 246.383C633.369 246.548 633.69 246.786 633.959 247.098C634.227 247.401 634.435 247.77 634.583 248.203C634.73 248.636 634.804 249.117 634.804 249.646C634.804 250.183 634.73 250.669 634.583 251.102C634.435 251.527 634.227 251.895 633.959 252.207C633.69 252.51 633.369 252.744 632.997 252.909C632.633 253.074 632.225 253.156 631.775 253.156ZM631.775 252.233C632.338 252.233 632.797 252.06 633.153 251.713C633.508 251.366 633.686 250.838 633.686 250.127V249.165C633.686 248.454 633.508 247.926 633.153 247.579C632.797 247.232 632.338 247.059 631.775 247.059C631.211 247.059 630.752 247.232 630.397 247.579C630.041 247.926 629.864 248.454 629.864 249.165V250.127C629.864 250.838 630.041 251.366 630.397 251.713C630.752 252.06 631.211 252.233 631.775 252.233ZM645.332 251.596H645.28C645.202 252.038 644.955 252.411 644.539 252.714C644.132 253.009 643.586 253.156 642.901 253.156C642.364 253.156 641.866 253.056 641.406 252.857C640.956 252.658 640.561 252.363 640.223 251.973C639.894 251.574 639.634 251.085 639.443 250.504C639.253 249.923 639.157 249.252 639.157 248.489C639.157 247.726 639.253 247.055 639.443 246.474C639.643 245.885 639.92 245.391 640.275 244.992C640.631 244.593 641.055 244.29 641.549 244.082C642.043 243.874 642.594 243.77 643.2 243.77C644.015 243.77 644.708 243.948 645.28 244.303C645.852 244.658 646.303 245.17 646.632 245.837L645.241 246.656C645.077 246.266 644.83 245.941 644.5 245.681C644.18 245.421 643.746 245.291 643.2 245.291C642.524 245.291 641.983 245.499 641.575 245.915C641.177 246.322 640.977 246.929 640.977 247.735V249.191C640.977 249.988 641.181 250.595 641.588 251.011C641.996 251.427 642.542 251.635 643.226 251.635C643.495 251.635 643.746 251.605 643.98 251.544C644.214 251.475 644.418 251.375 644.591 251.245C644.765 251.115 644.903 250.955 645.007 250.764C645.111 250.573 645.163 250.348 645.163 250.088V249.503H643.382V248.06H646.814V253H645.332V251.596ZM653.69 253C653.326 253 653.036 252.896 652.819 252.688C652.611 252.471 652.481 252.185 652.429 251.83H652.351C652.239 252.272 652.009 252.606 651.662 252.831C651.316 253.048 650.887 253.156 650.375 253.156C649.682 253.156 649.149 252.974 648.776 252.61C648.404 252.246 648.217 251.761 648.217 251.154C648.217 250.452 648.469 249.932 648.971 249.594C649.474 249.247 650.189 249.074 651.116 249.074H652.273V248.58C652.273 248.199 652.174 247.904 651.974 247.696C651.775 247.488 651.454 247.384 651.012 247.384C650.622 247.384 650.306 247.471 650.063 247.644C649.829 247.809 649.63 248.008 649.465 248.242L648.477 247.358C648.729 246.968 649.062 246.656 649.478 246.422C649.894 246.179 650.445 246.058 651.129 246.058C652.048 246.058 652.746 246.266 653.222 246.682C653.699 247.098 653.937 247.696 653.937 248.476V251.674H654.613V253H653.69ZM650.934 251.947C651.307 251.947 651.623 251.865 651.883 251.7C652.143 251.535 652.273 251.293 652.273 250.972V250.075H651.207C650.341 250.075 649.907 250.352 649.907 250.907V251.128C649.907 251.405 649.994 251.613 650.167 251.752C650.349 251.882 650.605 251.947 650.934 251.947ZM658.028 253C657.456 253 657.019 252.853 656.715 252.558C656.421 252.255 656.273 251.826 656.273 251.271V247.54H655.272V246.214H655.792C656.044 246.214 656.213 246.158 656.299 246.045C656.395 245.924 656.442 245.746 656.442 245.512V244.355H657.937V246.214H659.328V247.54H657.937V251.674H659.224V253H658.028ZM663.464 253.156C662.961 253.156 662.51 253.074 662.112 252.909C661.722 252.736 661.388 252.497 661.111 252.194C660.842 251.882 660.634 251.509 660.487 251.076C660.339 250.634 660.266 250.14 660.266 249.594C660.266 249.057 660.335 248.571 660.474 248.138C660.621 247.705 660.829 247.336 661.098 247.033C661.366 246.721 661.696 246.483 662.086 246.318C662.476 246.145 662.918 246.058 663.412 246.058C663.94 246.058 664.4 246.149 664.79 246.331C665.18 246.513 665.5 246.76 665.752 247.072C666.003 247.384 666.189 247.748 666.311 248.164C666.441 248.571 666.506 249.009 666.506 249.477V250.023H661.995V250.192C661.995 250.686 662.133 251.085 662.411 251.388C662.688 251.683 663.1 251.83 663.646 251.83C664.062 251.83 664.4 251.743 664.66 251.57C664.928 251.397 665.167 251.176 665.375 250.907L666.272 251.908C665.994 252.298 665.613 252.606 665.128 252.831C664.651 253.048 664.096 253.156 663.464 253.156ZM663.438 247.306C662.996 247.306 662.645 247.453 662.385 247.748C662.125 248.043 661.995 248.424 661.995 248.892V248.996H664.777V248.879C664.777 248.411 664.66 248.034 664.426 247.748C664.2 247.453 663.871 247.306 663.438 247.306ZM670.089 253C669.517 253 669.079 252.853 668.776 252.558C668.481 252.255 668.334 251.826 668.334 251.271V247.54H667.333V246.214H667.853C668.104 246.214 668.273 246.158 668.36 246.045C668.455 245.924 668.503 245.746 668.503 245.512V244.355H669.998V246.214H671.389V247.54H669.998V251.674H671.285V253H670.089ZM675.524 253.156C675.022 253.156 674.571 253.074 674.172 252.909C673.782 252.736 673.449 252.497 673.171 252.194C672.903 251.882 672.695 251.509 672.547 251.076C672.4 250.634 672.326 250.14 672.326 249.594C672.326 249.057 672.396 248.571 672.534 248.138C672.682 247.705 672.89 247.336 673.158 247.033C673.427 246.721 673.756 246.483 674.146 246.318C674.536 246.145 674.978 246.058 675.472 246.058C676.001 246.058 676.46 246.149 676.85 246.331C677.24 246.513 677.561 246.76 677.812 247.072C678.064 247.384 678.25 247.748 678.371 248.164C678.501 248.571 678.566 249.009 678.566 249.477V250.023H674.055V250.192C674.055 250.686 674.194 251.085 674.471 251.388C674.749 251.683 675.16 251.83 675.706 251.83C676.122 251.83 676.46 251.743 676.72 251.57C676.989 251.397 677.227 251.176 677.435 250.907L678.332 251.908C678.055 252.298 677.674 252.606 677.188 252.831C676.712 253.048 676.157 253.156 675.524 253.156ZM675.498 247.306C675.056 247.306 674.705 247.453 674.445 247.748C674.185 248.043 674.055 248.424 674.055 248.892V248.996H676.837V248.879C676.837 248.411 676.72 248.034 676.486 247.748C676.261 247.453 675.932 247.306 675.498 247.306Z" fill="#222426"/>
<path d="M724.511 253.156C723.931 253.156 723.428 253.052 723.003 252.844C722.579 252.627 722.228 252.32 721.95 251.921C721.673 251.522 721.465 251.033 721.326 250.452C721.196 249.871 721.131 249.208 721.131 248.463C721.131 247.726 721.196 247.068 721.326 246.487C721.465 245.898 721.673 245.404 721.95 245.005C722.228 244.606 722.579 244.303 723.003 244.095C723.428 243.878 723.931 243.77 724.511 243.77C725.664 243.77 726.513 244.182 727.059 245.005C727.614 245.828 727.891 246.981 727.891 248.463C727.891 249.945 727.614 251.098 727.059 251.921C726.513 252.744 725.664 253.156 724.511 253.156ZM724.511 251.713C725.092 251.713 725.495 251.496 725.72 251.063C725.954 250.621 726.071 250.027 726.071 249.282V247.644C726.071 246.899 725.954 246.309 725.72 245.876C725.495 245.434 725.092 245.213 724.511 245.213C723.931 245.213 723.523 245.434 723.289 245.876C723.064 246.309 722.951 246.899 722.951 247.644V249.282C722.951 250.027 723.064 250.621 723.289 251.063C723.523 251.496 723.931 251.713 724.511 251.713ZM730.343 253.143C729.988 253.143 729.724 253.056 729.55 252.883C729.386 252.701 729.303 252.471 729.303 252.194V251.96C729.303 251.683 729.386 251.453 729.55 251.271C729.724 251.089 729.988 250.998 730.343 250.998C730.707 250.998 730.972 251.089 731.136 251.271C731.301 251.453 731.383 251.683 731.383 251.96V252.194C731.383 252.471 731.301 252.701 731.136 252.883C730.972 253.056 730.707 253.143 730.343 253.143ZM739.454 247.332C739.454 247.982 739.354 248.597 739.155 249.178C738.964 249.75 738.713 250.279 738.401 250.764C738.089 251.241 737.738 251.67 737.348 252.051C736.967 252.424 736.585 252.74 736.204 253H733.89C734.419 252.619 734.895 252.25 735.32 251.895C735.745 251.54 736.113 251.18 736.425 250.816C736.746 250.452 737.006 250.075 737.205 249.685C737.413 249.286 737.569 248.857 737.673 248.398L737.569 248.372C737.482 248.545 737.378 248.714 737.257 248.879C737.144 249.044 737.006 249.187 736.841 249.308C736.676 249.429 736.486 249.529 736.269 249.607C736.052 249.676 735.801 249.711 735.515 249.711C735.134 249.711 734.783 249.646 734.462 249.516C734.141 249.386 733.86 249.2 733.617 248.957C733.383 248.706 733.197 248.411 733.058 248.073C732.928 247.726 732.863 247.336 732.863 246.903C732.863 246.444 732.941 246.023 733.097 245.642C733.253 245.261 733.474 244.931 733.76 244.654C734.046 244.377 734.388 244.16 734.787 244.004C735.194 243.848 735.649 243.77 736.152 243.77C736.672 243.77 737.136 243.857 737.543 244.03C737.95 244.195 738.297 244.433 738.583 244.745C738.869 245.048 739.086 245.421 739.233 245.863C739.38 246.296 739.454 246.786 739.454 247.332ZM736.152 248.385C736.637 248.385 737.014 248.255 737.283 247.995C737.552 247.726 737.686 247.345 737.686 246.851V246.656C737.686 246.162 737.552 245.785 737.283 245.525C737.014 245.256 736.637 245.122 736.152 245.122C735.675 245.122 735.298 245.256 735.021 245.525C734.752 245.785 734.618 246.162 734.618 246.656V246.851C734.618 247.345 734.752 247.726 735.021 247.995C735.298 248.255 735.675 248.385 736.152 248.385ZM744.224 243.926H748.423C748.796 243.926 749.13 243.982 749.424 244.095C749.728 244.208 749.983 244.364 750.191 244.563C750.399 244.762 750.555 245.009 750.659 245.304C750.772 245.59 750.828 245.906 750.828 246.253C750.828 246.6 750.781 246.894 750.685 247.137C750.599 247.371 750.477 247.566 750.321 247.722C750.174 247.878 750.001 247.995 749.801 248.073C749.611 248.151 749.411 248.194 749.203 248.203V248.281C749.403 248.281 749.615 248.32 749.84 248.398C750.074 248.476 750.287 248.602 750.477 248.775C750.677 248.94 750.841 249.156 750.971 249.425C751.101 249.685 751.166 250.01 751.166 250.4C751.166 250.764 751.106 251.106 750.984 251.427C750.872 251.739 750.711 252.012 750.503 252.246C750.295 252.48 750.048 252.666 749.762 252.805C749.476 252.935 749.164 253 748.826 253H744.224V243.926ZM745.94 251.544H748.332C748.662 251.544 748.917 251.462 749.099 251.297C749.281 251.124 749.372 250.877 749.372 250.556V250.114C749.372 249.793 749.281 249.546 749.099 249.373C748.917 249.2 748.662 249.113 748.332 249.113H745.94V251.544ZM745.94 247.709H748.059C748.371 247.709 748.614 247.627 748.787 247.462C748.961 247.289 749.047 247.05 749.047 246.747V246.344C749.047 246.041 748.961 245.807 748.787 245.642C748.614 245.469 748.371 245.382 748.059 245.382H745.94V247.709ZM756.064 245.447V253H754.348V245.447H751.774V243.926H758.638V245.447H756.064ZM763.248 253.156C762.65 253.156 762.109 253.061 761.623 252.87C761.147 252.671 760.735 252.376 760.388 251.986C760.05 251.596 759.79 251.115 759.608 250.543C759.426 249.962 759.335 249.291 759.335 248.528C759.335 247.765 759.426 247.089 759.608 246.5C759.79 245.902 760.05 245.404 760.388 245.005C760.735 244.598 761.147 244.29 761.623 244.082C762.109 243.874 762.65 243.77 763.248 243.77C764.063 243.77 764.739 243.943 765.276 244.29C765.814 244.637 766.243 245.161 766.563 245.863L765.094 246.643C764.964 246.236 764.752 245.911 764.457 245.668C764.163 245.417 763.76 245.291 763.248 245.291C762.607 245.291 762.096 245.508 761.714 245.941C761.342 246.374 761.155 246.981 761.155 247.761V249.191C761.155 249.98 761.342 250.586 761.714 251.011C762.096 251.427 762.607 251.635 763.248 251.635C763.76 251.635 764.176 251.496 764.496 251.219C764.826 250.942 765.064 250.599 765.211 250.192L766.602 251.011C766.273 251.687 765.835 252.216 765.289 252.597C764.743 252.97 764.063 253.156 763.248 253.156Z" fill="#222426"/>
<g opacity="0.6">
<path d="M569.76 267.08H570.4V269.544H570.432C570.699 269.032 571.123 268.776 571.704 268.776C572.211 268.776 572.605 268.965 572.888 269.344C573.176 269.723 573.32 270.253 573.32 270.936C573.32 271.619 573.176 272.149 572.888 272.528C572.605 272.907 572.211 273.096 571.704 273.096C571.123 273.096 570.699 272.84 570.432 272.328H570.4V273H569.76V267.08ZM571.456 272.528C571.829 272.528 572.117 272.416 572.32 272.192C572.528 271.963 572.632 271.661 572.632 271.288V270.584C572.632 270.211 572.528 269.912 572.32 269.688C572.117 269.459 571.829 269.344 571.456 269.344C571.312 269.344 571.176 269.363 571.048 269.4C570.92 269.437 570.808 269.493 570.712 269.568C570.616 269.637 570.539 269.725 570.48 269.832C570.427 269.933 570.4 270.053 570.4 270.192V271.68C570.4 271.819 570.427 271.941 570.48 272.048C570.539 272.149 570.616 272.237 570.712 272.312C570.808 272.381 570.92 272.435 571.048 272.472C571.176 272.509 571.312 272.528 571.456 272.528ZM576.341 273.096C576.042 273.096 575.776 273.045 575.541 272.944C575.312 272.837 575.117 272.691 574.957 272.504C574.797 272.317 574.674 272.091 574.589 271.824C574.509 271.557 574.469 271.261 574.469 270.936C574.469 270.611 574.512 270.315 574.597 270.048C574.682 269.781 574.805 269.555 574.965 269.368C575.125 269.176 575.32 269.029 575.549 268.928C575.778 268.827 576.04 268.776 576.333 268.776C576.733 268.776 577.058 268.864 577.309 269.04C577.56 269.216 577.744 269.445 577.861 269.728L577.349 270C577.274 269.787 577.149 269.621 576.973 269.504C576.802 269.387 576.589 269.328 576.333 269.328C576.146 269.328 575.978 269.36 575.829 269.424C575.685 269.483 575.562 269.568 575.461 269.68C575.36 269.792 575.282 269.925 575.229 270.08C575.181 270.235 575.157 270.403 575.157 270.584V271.288C575.157 271.469 575.181 271.637 575.229 271.792C575.282 271.947 575.36 272.08 575.461 272.192C575.562 272.304 575.688 272.392 575.837 272.456C575.986 272.515 576.157 272.544 576.349 272.544C576.626 272.544 576.856 272.48 577.037 272.352C577.218 272.224 577.362 272.048 577.469 271.824L577.925 272.136C577.802 272.413 577.61 272.643 577.349 272.824C577.093 273.005 576.757 273.096 576.341 273.096ZM579.274 273V272.416H580.874V267.912H580.818L579.41 269.224L579.018 268.8L580.498 267.416H581.546V272.416H583.018V273H579.274ZM586.791 272.328H586.759C586.492 272.84 586.068 273.096 585.487 273.096C584.98 273.096 584.583 272.907 584.295 272.528C584.012 272.149 583.871 271.619 583.871 270.936C583.871 270.253 584.012 269.723 584.295 269.344C584.583 268.965 584.98 268.776 585.487 268.776C586.068 268.776 586.492 269.032 586.759 269.544H586.791V268.872H587.431V274.6H586.791V272.328ZM585.735 272.528C585.879 272.528 586.015 272.509 586.143 272.472C586.271 272.435 586.383 272.381 586.479 272.312C586.575 272.237 586.649 272.149 586.703 272.048C586.761 271.941 586.791 271.819 586.791 271.68V270.192C586.791 270.053 586.761 269.933 586.703 269.832C586.649 269.725 586.575 269.637 586.479 269.568C586.383 269.493 586.271 269.437 586.143 269.4C586.015 269.363 585.879 269.344 585.735 269.344C585.361 269.344 585.071 269.459 584.863 269.688C584.66 269.912 584.559 270.211 584.559 270.584V271.288C584.559 271.661 584.66 271.963 584.863 272.192C585.071 272.416 585.361 272.528 585.735 272.528ZM592.148 273C591.897 273 591.718 272.936 591.612 272.808C591.505 272.68 591.438 272.52 591.412 272.328H591.372C591.281 272.568 591.134 272.757 590.932 272.896C590.734 273.029 590.468 273.096 590.132 273.096C589.7 273.096 589.356 272.984 589.1 272.76C588.844 272.536 588.715 272.229 588.715 271.84C588.715 271.456 588.854 271.16 589.132 270.952C589.414 270.744 589.868 270.64 590.492 270.64H591.372V270.232C591.372 269.928 591.286 269.701 591.116 269.552C590.945 269.397 590.702 269.32 590.388 269.32C590.11 269.32 589.884 269.376 589.708 269.488C589.532 269.595 589.39 269.741 589.284 269.928L588.852 269.608C588.905 269.501 588.977 269.397 589.068 269.296C589.158 269.195 589.27 269.107 589.404 269.032C589.537 268.952 589.689 268.891 589.86 268.848C590.03 268.8 590.22 268.776 590.428 268.776C590.913 268.776 591.297 268.899 591.58 269.144C591.868 269.389 592.012 269.731 592.012 270.168V272.44H592.588V273H592.148ZM590.243 272.56C590.409 272.56 590.558 272.541 590.692 272.504C590.83 272.461 590.95 272.408 591.052 272.344C591.153 272.275 591.23 272.195 591.284 272.104C591.342 272.008 591.372 271.907 591.372 271.8V271.12H590.492C590.108 271.12 589.828 271.173 589.652 271.28C589.476 271.387 589.388 271.541 589.388 271.744V271.912C589.388 272.125 589.462 272.288 589.612 272.4C589.766 272.507 589.977 272.56 590.243 272.56ZM593.6 272.456H594.808V269.416H593.6V268.872H595.448V269.912H595.488C595.574 269.587 595.734 269.333 595.968 269.152C596.208 268.965 596.512 268.872 596.88 268.872H597.456V269.512H596.68C596.312 269.512 596.014 269.619 595.784 269.832C595.56 270.045 595.448 270.325 595.448 270.672V272.456H597.048V273H593.6V272.456ZM600.181 273.096C599.84 273.096 599.547 273.032 599.301 272.904C599.056 272.771 598.853 272.581 598.693 272.336C598.533 272.091 598.416 271.789 598.341 271.432C598.267 271.075 598.229 270.667 598.229 270.208C598.229 269.755 598.267 269.349 598.341 268.992C598.416 268.629 598.533 268.325 598.693 268.08C598.853 267.835 599.056 267.648 599.301 267.52C599.547 267.387 599.84 267.32 600.181 267.32C600.523 267.32 600.816 267.387 601.061 267.52C601.307 267.648 601.509 267.835 601.669 268.08C601.829 268.325 601.947 268.629 602.021 268.992C602.096 269.349 602.133 269.755 602.133 270.208C602.133 270.667 602.096 271.075 602.021 271.432C601.947 271.789 601.829 272.091 601.669 272.336C601.509 272.581 601.307 272.771 601.061 272.904C600.816 273.032 600.523 273.096 600.181 273.096ZM600.181 272.512C600.405 272.512 600.597 272.469 600.757 272.384C600.917 272.293 601.045 272.168 601.141 272.008C601.243 271.848 601.317 271.656 601.365 271.432C601.413 271.203 601.437 270.947 601.437 270.664V269.752C601.437 269.475 601.413 269.221 601.365 268.992C601.317 268.763 601.243 268.568 601.141 268.408C601.045 268.248 600.917 268.125 600.757 268.04C600.597 267.949 600.405 267.904 600.181 267.904C599.957 267.904 599.765 267.949 599.605 268.04C599.445 268.125 599.315 268.248 599.213 268.408C599.117 268.568 599.045 268.763 598.997 268.992C598.949 269.221 598.925 269.475 598.925 269.752V270.664C598.925 270.947 598.949 271.203 598.997 271.432C599.045 271.656 599.117 271.848 599.213 272.008C599.315 272.168 599.445 272.293 599.605 272.384C599.765 272.469 599.957 272.512 600.181 272.512ZM600.181 270.68C599.995 270.68 599.864 270.643 599.789 270.568C599.72 270.493 599.685 270.403 599.685 270.296V270.12C599.685 270.013 599.72 269.923 599.789 269.848C599.864 269.773 599.995 269.736 600.181 269.736C600.368 269.736 600.496 269.773 600.565 269.848C600.64 269.923 600.677 270.013 600.677 270.12V270.296C600.677 270.403 600.64 270.493 600.565 270.568C600.496 270.643 600.368 270.68 600.181 270.68ZM605.026 273.096C604.594 273.096 604.221 273.024 603.906 272.88C603.597 272.731 603.333 272.533 603.114 272.288L603.546 271.912C603.743 272.12 603.959 272.28 604.194 272.392C604.429 272.504 604.711 272.56 605.042 272.56C605.362 272.56 605.623 272.504 605.826 272.392C606.034 272.275 606.138 272.093 606.138 271.848C606.138 271.741 606.117 271.653 606.074 271.584C606.037 271.509 605.983 271.451 605.914 271.408C605.845 271.365 605.767 271.333 605.682 271.312C605.597 271.285 605.506 271.264 605.41 271.248L604.762 271.152C604.618 271.131 604.461 271.101 604.29 271.064C604.125 271.027 603.973 270.968 603.834 270.888C603.695 270.803 603.578 270.691 603.482 270.552C603.391 270.413 603.346 270.232 603.346 270.008C603.346 269.8 603.386 269.621 603.466 269.472C603.551 269.317 603.669 269.189 603.818 269.088C603.967 268.981 604.143 268.904 604.346 268.856C604.549 268.803 604.77 268.776 605.01 268.776C605.383 268.776 605.706 268.835 605.978 268.952C606.255 269.069 606.493 269.232 606.69 269.44L606.274 269.832C606.226 269.773 606.165 269.715 606.09 269.656C606.021 269.592 605.933 269.536 605.826 269.488C605.725 269.435 605.605 269.392 605.466 269.36C605.327 269.328 605.167 269.312 604.986 269.312C604.661 269.312 604.41 269.368 604.234 269.48C604.063 269.592 603.978 269.755 603.978 269.968C603.978 270.075 603.997 270.165 604.034 270.24C604.077 270.309 604.133 270.365 604.202 270.408C604.271 270.451 604.349 270.485 604.434 270.512C604.525 270.533 604.615 270.552 604.706 270.568L605.354 270.664C605.503 270.685 605.661 270.715 605.826 270.752C605.991 270.789 606.143 270.851 606.282 270.936C606.421 271.016 606.535 271.125 606.626 271.264C606.722 271.403 606.77 271.584 606.77 271.808C606.77 272.219 606.61 272.536 606.29 272.76C605.975 272.984 605.554 273.096 605.026 273.096ZM607.991 272.456H609.199V269.416H607.991V268.872H609.839V269.912H609.879C609.964 269.587 610.124 269.333 610.359 269.152C610.599 268.965 610.903 268.872 611.271 268.872H611.847V269.512H611.071C610.703 269.512 610.404 269.619 610.175 269.832C609.951 270.045 609.839 270.325 609.839 270.672V272.456H611.439V273H607.991V272.456ZM612.788 272.456H613.996V269.416H612.788V268.872H614.636V269.912H614.676C614.761 269.587 614.921 269.333 615.156 269.152C615.396 268.965 615.7 268.872 616.068 268.872H616.644V269.512H615.868C615.5 269.512 615.201 269.619 614.972 269.832C614.748 270.045 614.636 270.325 614.636 270.672V272.456H616.236V273H612.788V272.456ZM617.585 272.456H618.793V269.416H617.585V268.872H619.433V269.912H619.473C619.558 269.587 619.718 269.333 619.953 269.152C620.193 268.965 620.497 268.872 620.865 268.872H621.441V269.512H620.665C620.297 269.512 619.998 269.619 619.769 269.832C619.545 270.045 619.433 270.325 619.433 270.672V272.456H621.033V273H617.585V272.456ZM623.15 273L625.334 267.992H622.886V269.032H622.286V267.416H626.014V268.008L623.87 273H623.15ZM627.051 273L628.587 270.904L627.09 268.872H627.859L628.483 269.744L628.979 270.432H629.011L629.491 269.744L630.107 268.872H630.843L629.331 270.896L630.883 273H630.115L629.419 272.032L628.947 271.376H628.914L628.459 272.032L627.787 273H627.051ZM632.023 272.456H633.415V269.416H631.943V268.872H633.415V268.024C633.415 267.747 633.487 267.52 633.631 267.344C633.781 267.168 634.013 267.08 634.327 267.08H635.711V267.624H634.055V268.872H635.711V269.416H634.055V272.456H635.527V273H632.023V272.456ZM636.996 267.08H637.636V270.816H637.668L638.388 270.136L639.764 268.872H640.548L638.836 270.488L640.748 273H639.956L638.348 270.856L637.636 271.504V273H636.996V267.08ZM642.945 273L641.465 268.872H642.113L642.705 270.6L643.345 272.464H643.377L644.017 270.6L644.609 268.872H645.241L643.761 273H642.945ZM649.486 268.872H650.126L648.078 273.904C648.03 274.021 647.977 274.123 647.918 274.208C647.859 274.299 647.79 274.371 647.71 274.424C647.63 274.483 647.534 274.525 647.422 274.552C647.31 274.584 647.177 274.6 647.022 274.6H646.414V274.056H647.374L647.838 272.92L646.174 268.872H646.83L647.526 270.6L648.142 272.168H648.174L648.79 270.6L649.486 268.872ZM654.555 268H652.059L651.899 270.136H651.955C652.094 269.949 652.248 269.803 652.419 269.696C652.59 269.584 652.824 269.528 653.123 269.528C653.368 269.528 653.592 269.568 653.795 269.648C654.003 269.723 654.182 269.835 654.331 269.984C654.48 270.133 654.598 270.315 654.683 270.528C654.768 270.736 654.811 270.976 654.811 271.248C654.811 271.52 654.768 271.771 654.683 272C654.598 272.224 654.472 272.419 654.307 272.584C654.142 272.744 653.942 272.869 653.707 272.96C653.472 273.051 653.206 273.096 652.907 273.096C652.672 273.096 652.462 273.069 652.275 273.016C652.094 272.963 651.931 272.891 651.787 272.8C651.648 272.709 651.526 272.608 651.419 272.496C651.312 272.384 651.216 272.267 651.131 272.144L651.635 271.76C651.71 271.872 651.784 271.973 651.859 272.064C651.939 272.155 652.03 272.235 652.131 272.304C652.232 272.368 652.347 272.419 652.475 272.456C652.603 272.493 652.752 272.512 652.923 272.512C653.307 272.512 653.6 272.408 653.803 272.2C654.011 271.992 654.115 271.704 654.115 271.336V271.272C654.115 270.904 654.011 270.616 653.803 270.408C653.595 270.2 653.296 270.096 652.907 270.096C652.64 270.096 652.432 270.141 652.283 270.232C652.139 270.323 652.006 270.435 651.883 270.568L651.315 270.488L651.515 267.416H654.555V268ZM655.984 272.456H657.424V267.624H655.984V267.08H658.064V272.456H659.504V273H655.984V272.456ZM662.549 273.096C662.255 273.096 661.991 273.048 661.757 272.952C661.522 272.851 661.322 272.709 661.157 272.528C660.997 272.341 660.871 272.115 660.781 271.848C660.695 271.581 660.653 271.283 660.653 270.952C660.653 270.536 660.714 270.147 660.837 269.784C660.965 269.416 661.125 269.083 661.317 268.784C661.514 268.48 661.733 268.213 661.973 267.984C662.213 267.749 662.447 267.56 662.677 267.416H663.541C663.237 267.635 662.965 267.848 662.725 268.056C662.49 268.264 662.282 268.483 662.101 268.712C661.919 268.936 661.767 269.179 661.645 269.44C661.522 269.696 661.421 269.987 661.341 270.312L661.381 270.328C661.514 270.099 661.69 269.909 661.909 269.76C662.127 269.605 662.41 269.528 662.757 269.528C663.002 269.528 663.226 269.568 663.429 269.648C663.631 269.728 663.807 269.843 663.957 269.992C664.106 270.141 664.221 270.323 664.301 270.536C664.386 270.749 664.429 270.987 664.429 271.248C664.429 271.52 664.383 271.771 664.293 272C664.202 272.224 664.074 272.419 663.909 272.584C663.749 272.744 663.551 272.869 663.317 272.96C663.087 273.051 662.831 273.096 662.549 273.096ZM662.541 272.528C662.925 272.528 663.221 272.424 663.429 272.216C663.642 272.008 663.749 271.715 663.749 271.336V271.272C663.749 270.893 663.642 270.6 663.429 270.392C663.221 270.184 662.925 270.08 662.541 270.08C662.157 270.08 661.858 270.184 661.645 270.392C661.437 270.6 661.333 270.893 661.333 271.272V271.336C661.333 271.715 661.437 272.008 661.645 272.216C661.858 272.424 662.157 272.528 662.541 272.528ZM667.962 273V271.904H665.21V271.312L667.626 267.416H668.602V271.352H669.434V271.904H668.602V273H667.962ZM665.81 271.352H667.962V267.936H667.93L665.81 271.352ZM671.894 269.784C672.284 269.784 672.574 269.699 672.766 269.528C672.964 269.352 673.062 269.128 673.062 268.856V268.8C673.062 268.501 672.966 268.277 672.774 268.128C672.588 267.979 672.342 267.904 672.038 267.904C671.74 267.904 671.497 267.971 671.31 268.104C671.129 268.232 670.98 268.403 670.862 268.616L670.358 268.232C670.428 268.12 670.513 268.011 670.614 267.904C670.716 267.792 670.833 267.693 670.966 267.608C671.105 267.523 671.262 267.453 671.438 267.4C671.62 267.347 671.825 267.32 672.054 267.32C672.294 267.32 672.518 267.352 672.726 267.416C672.934 267.475 673.116 267.565 673.27 267.688C673.425 267.805 673.545 267.952 673.63 268.128C673.721 268.304 673.766 268.504 673.766 268.728C673.766 268.909 673.737 269.072 673.678 269.216C673.625 269.36 673.548 269.485 673.446 269.592C673.35 269.699 673.236 269.789 673.102 269.864C672.969 269.939 672.828 269.995 672.678 270.032V270.064C672.833 270.096 672.982 270.149 673.126 270.224C673.27 270.293 673.398 270.387 673.51 270.504C673.622 270.616 673.71 270.755 673.774 270.92C673.844 271.08 673.878 271.264 673.878 271.472C673.878 271.712 673.83 271.933 673.734 272.136C673.644 272.333 673.513 272.504 673.342 272.648C673.177 272.787 672.974 272.896 672.734 272.976C672.5 273.056 672.238 273.096 671.95 273.096C671.705 273.096 671.486 273.069 671.294 273.016C671.108 272.963 670.94 272.891 670.79 272.8C670.646 272.709 670.518 272.608 670.406 272.496C670.3 272.384 670.204 272.267 670.118 272.144L670.622 271.76C670.697 271.872 670.774 271.973 670.854 272.064C670.934 272.155 671.025 272.235 671.126 272.304C671.233 272.368 671.353 272.419 671.486 272.456C671.62 272.493 671.774 272.512 671.95 272.512C672.345 272.512 672.646 272.421 672.854 272.24C673.068 272.059 673.174 271.8 673.174 271.464V271.4C673.174 271.069 673.07 270.813 672.862 270.632C672.66 270.451 672.353 270.36 671.942 270.36H671.278V269.784H671.894ZM675.171 272.456H676.611V267.624H675.171V267.08H677.251V272.456H678.691V273H675.171V272.456ZM683.064 268.872H683.704L681.656 273.904C681.608 274.021 681.555 274.123 681.496 274.208C681.437 274.299 681.368 274.371 681.288 274.424C681.208 274.483 681.112 274.525 681 274.552C680.888 274.584 680.755 274.6 680.6 274.6H679.992V274.056H680.952L681.416 272.92L679.752 268.872H680.408L681.104 270.6L681.72 272.168H681.752L682.368 270.6L683.064 268.872ZM687.525 272.328H687.493C687.226 272.84 686.802 273.096 686.221 273.096C685.714 273.096 685.317 272.907 685.029 272.528C684.746 272.149 684.605 271.619 684.605 270.936C684.605 270.253 684.746 269.723 685.029 269.344C685.317 268.965 685.714 268.776 686.221 268.776C686.802 268.776 687.226 269.032 687.493 269.544H687.525V267.08H688.165V273H687.525V272.328ZM686.469 272.528C686.613 272.528 686.749 272.509 686.877 272.472C687.005 272.435 687.117 272.381 687.213 272.312C687.309 272.237 687.384 272.149 687.437 272.048C687.496 271.941 687.525 271.819 687.525 271.68V270.192C687.525 270.053 687.496 269.933 687.437 269.832C687.384 269.725 687.309 269.637 687.213 269.568C687.117 269.493 687.005 269.437 686.877 269.4C686.749 269.363 686.613 269.344 686.469 269.344C686.096 269.344 685.805 269.459 685.597 269.688C685.394 269.912 685.293 270.211 685.293 270.584V271.288C685.293 271.661 685.394 271.963 685.597 272.192C685.805 272.416 686.096 272.528 686.469 272.528ZM689.706 273V268.872H690.346V269.544H690.378C690.421 269.443 690.474 269.347 690.538 269.256C690.602 269.16 690.679 269.077 690.77 269.008C690.866 268.939 690.978 268.883 691.106 268.84C691.234 268.797 691.383 268.776 691.554 268.776C691.986 268.776 692.333 268.915 692.594 269.192C692.855 269.464 692.986 269.851 692.986 270.352V273H692.346V270.464C692.346 270.085 692.263 269.805 692.098 269.624C691.933 269.437 691.69 269.344 691.37 269.344C691.242 269.344 691.117 269.36 690.994 269.392C690.871 269.424 690.762 269.472 690.666 269.536C690.57 269.6 690.493 269.683 690.434 269.784C690.375 269.885 690.346 270.003 690.346 270.136V273H689.706ZM693.959 268.872H694.527L694.999 272.44H695.071L695.775 268.872H696.479L697.183 272.44H697.255L697.727 268.872H698.279L697.647 273H696.815L696.159 269.544H696.095L695.423 273H694.591L693.959 268.872ZM702.804 269.464C702.804 269.88 702.74 270.272 702.612 270.64C702.489 271.003 702.329 271.336 702.132 271.64C701.934 271.939 701.716 272.205 701.476 272.44C701.241 272.669 701.009 272.856 700.78 273H699.916C700.22 272.781 700.489 272.568 700.724 272.36C700.964 272.152 701.174 271.936 701.356 271.712C701.537 271.483 701.689 271.24 701.812 270.984C701.934 270.723 702.036 270.429 702.116 270.104L702.076 270.088C701.937 270.317 701.758 270.509 701.54 270.664C701.326 270.813 701.046 270.888 700.7 270.888C700.454 270.888 700.228 270.848 700.02 270.768C699.817 270.688 699.641 270.573 699.492 270.424C699.348 270.275 699.233 270.096 699.148 269.888C699.068 269.675 699.028 269.435 699.028 269.168C699.028 268.896 699.07 268.648 699.156 268.424C699.246 268.195 699.374 268 699.54 267.84C699.705 267.675 699.902 267.547 700.132 267.456C700.366 267.365 700.625 267.32 700.908 267.32C701.201 267.32 701.465 267.371 701.7 267.472C701.934 267.568 702.132 267.709 702.292 267.896C702.457 268.077 702.582 268.301 702.668 268.568C702.758 268.835 702.804 269.133 702.804 269.464ZM700.916 270.336C701.3 270.336 701.596 270.232 701.804 270.024C702.017 269.816 702.124 269.523 702.124 269.144V269.08C702.124 268.701 702.017 268.408 701.804 268.2C701.596 267.992 701.3 267.888 700.916 267.888C700.532 267.888 700.233 267.992 700.02 268.2C699.812 268.408 699.708 268.701 699.708 269.08V269.144C699.708 269.523 699.812 269.816 700.02 270.024C700.233 270.232 700.532 270.336 700.916 270.336ZM703.929 272.456H705.137V269.416H703.929V268.872H705.777V269.912H705.817C705.902 269.587 706.062 269.333 706.297 269.152C706.537 268.965 706.841 268.872 707.209 268.872H707.785V269.512H707.009C706.641 269.512 706.342 269.619 706.113 269.832C705.889 270.045 705.777 270.325 705.777 270.672V272.456H707.377V273H703.929V272.456ZM710.581 273.096C710.283 273.096 710.013 273.045 709.773 272.944C709.539 272.843 709.336 272.699 709.165 272.512C709 272.32 708.872 272.093 708.781 271.832C708.691 271.565 708.645 271.269 708.645 270.944C708.645 270.613 708.691 270.315 708.781 270.048C708.877 269.781 709.008 269.555 709.173 269.368C709.339 269.176 709.536 269.029 709.765 268.928C710 268.827 710.259 268.776 710.541 268.776C710.819 268.776 711.069 268.827 711.293 268.928C711.523 269.029 711.717 269.171 711.877 269.352C712.037 269.528 712.16 269.739 712.245 269.984C712.331 270.229 712.373 270.499 712.373 270.792V271.096H709.317V271.288C709.317 271.469 709.347 271.637 709.405 271.792C709.464 271.947 709.547 272.08 709.653 272.192C709.765 272.304 709.899 272.392 710.053 272.456C710.213 272.515 710.389 272.544 710.581 272.544C710.859 272.544 711.099 272.48 711.301 272.352C711.504 272.224 711.659 272.048 711.765 271.824L712.237 272.144C712.115 272.421 711.909 272.651 711.621 272.832C711.339 273.008 710.992 273.096 710.581 273.096ZM710.541 269.304C710.365 269.304 710.203 269.336 710.053 269.4C709.904 269.464 709.773 269.552 709.661 269.664C709.555 269.776 709.469 269.909 709.405 270.064C709.347 270.213 709.317 270.379 709.317 270.56V270.616H711.685V270.528C711.685 270.347 711.656 270.181 711.597 270.032C711.544 269.883 711.467 269.755 711.365 269.648C711.269 269.536 711.149 269.451 711.005 269.392C710.867 269.333 710.712 269.304 710.541 269.304ZM716.914 268H714.418L714.258 270.136H714.314C714.453 269.949 714.608 269.803 714.778 269.696C714.949 269.584 715.184 269.528 715.482 269.528C715.728 269.528 715.952 269.568 716.154 269.648C716.362 269.723 716.541 269.835 716.69 269.984C716.84 270.133 716.957 270.315 717.042 270.528C717.128 270.736 717.17 270.976 717.17 271.248C717.17 271.52 717.128 271.771 717.042 272C716.957 272.224 716.832 272.419 716.666 272.584C716.501 272.744 716.301 272.869 716.066 272.96C715.832 273.051 715.565 273.096 715.266 273.096C715.032 273.096 714.821 273.069 714.634 273.016C714.453 272.963 714.29 272.891 714.146 272.8C714.008 272.709 713.885 272.608 713.778 272.496C713.672 272.384 713.576 272.267 713.49 272.144L713.994 271.76C714.069 271.872 714.144 271.973 714.218 272.064C714.298 272.155 714.389 272.235 714.49 272.304C714.592 272.368 714.706 272.419 714.834 272.456C714.962 272.493 715.112 272.512 715.282 272.512C715.666 272.512 715.96 272.408 716.162 272.2C716.37 271.992 716.474 271.704 716.474 271.336V271.272C716.474 270.904 716.37 270.616 716.162 270.408C715.954 270.2 715.656 270.096 715.266 270.096C715 270.096 714.792 270.141 714.642 270.232C714.498 270.323 714.365 270.435 714.242 270.568L713.674 270.488L713.874 267.416H716.914V268ZM721.991 269.464C721.991 269.88 721.927 270.272 721.799 270.64C721.676 271.003 721.516 271.336 721.319 271.64C721.122 271.939 720.903 272.205 720.663 272.44C720.428 272.669 720.196 272.856 719.967 273H719.103C719.407 272.781 719.676 272.568 719.911 272.36C720.151 272.152 720.362 271.936 720.543 271.712C720.724 271.483 720.876 271.24 720.999 270.984C721.122 270.723 721.223 270.429 721.303 270.104L721.263 270.088C721.124 270.317 720.946 270.509 720.727 270.664C720.514 270.813 720.234 270.888 719.887 270.888C719.642 270.888 719.415 270.848 719.207 270.768C719.004 270.688 718.828 270.573 718.679 270.424C718.535 270.275 718.42 270.096 718.335 269.888C718.255 269.675 718.215 269.435 718.215 269.168C718.215 268.896 718.258 268.648 718.343 268.424C718.434 268.195 718.562 268 718.727 267.84C718.892 267.675 719.09 267.547 719.319 267.456C719.554 267.365 719.812 267.32 720.095 267.32C720.388 267.32 720.652 267.371 720.887 267.472C721.122 267.568 721.319 267.709 721.479 267.896C721.644 268.077 721.77 268.301 721.855 268.568C721.946 268.835 721.991 269.133 721.991 269.464ZM720.103 270.336C720.487 270.336 720.783 270.232 720.991 270.024C721.204 269.816 721.311 269.523 721.311 269.144V269.08C721.311 268.701 721.204 268.408 720.991 268.2C720.783 267.992 720.487 267.888 720.103 267.888C719.719 267.888 719.42 267.992 719.207 268.2C718.999 268.408 718.895 268.701 718.895 269.08V269.144C718.895 269.523 718.999 269.816 719.207 270.024C719.42 270.232 719.719 270.336 720.103 270.336ZM726.988 273.472C726.988 273.888 726.815 274.195 726.468 274.392C726.121 274.595 725.601 274.696 724.908 274.696C724.241 274.696 723.761 274.608 723.468 274.432C723.18 274.256 723.036 274.003 723.036 273.672C723.036 273.448 723.095 273.275 723.212 273.152C723.329 273.029 723.495 272.939 723.708 272.88V272.784C723.591 272.725 723.5 272.651 723.436 272.56C723.372 272.469 723.34 272.355 723.34 272.216C723.34 272.003 723.409 271.843 723.548 271.736C723.692 271.629 723.871 271.549 724.084 271.496V271.464C723.828 271.352 723.628 271.187 723.484 270.968C723.345 270.749 723.276 270.493 723.276 270.2C723.276 269.992 723.313 269.8 723.388 269.624C723.463 269.448 723.569 269.299 723.708 269.176C723.852 269.048 724.023 268.949 724.22 268.88C724.417 268.811 724.636 268.776 724.876 268.776C725.185 268.776 725.457 268.832 725.692 268.944V268.872C725.692 268.712 725.729 268.579 725.804 268.472C725.879 268.365 726.007 268.312 726.188 268.312H726.948V268.872H726.02V269.152C726.169 269.28 726.284 269.432 726.364 269.608C726.444 269.784 726.484 269.981 726.484 270.2C726.484 270.408 726.444 270.6 726.364 270.776C726.289 270.952 726.183 271.104 726.044 271.232C725.905 271.355 725.735 271.451 725.532 271.52C725.335 271.589 725.116 271.624 724.876 271.624C724.807 271.624 724.74 271.621 724.676 271.616C724.612 271.611 724.548 271.603 724.484 271.592C724.42 271.603 724.353 271.621 724.284 271.648C724.215 271.669 724.151 271.701 724.092 271.744C724.033 271.781 723.985 271.827 723.948 271.88C723.911 271.933 723.892 271.995 723.892 272.064C723.892 272.187 723.953 272.269 724.076 272.312C724.199 272.349 724.359 272.368 724.556 272.368H725.468C726.001 272.368 726.388 272.469 726.628 272.672C726.868 272.869 726.988 273.136 726.988 273.472ZM726.388 273.504C726.388 273.339 726.321 273.205 726.188 273.104C726.055 273.008 725.823 272.96 725.492 272.96H724.06C723.783 273.072 723.644 273.259 723.644 273.52C723.644 273.701 723.716 273.856 723.86 273.984C724.004 274.117 724.244 274.184 724.58 274.184H725.204C725.577 274.184 725.868 274.125 726.076 274.008C726.284 273.896 726.388 273.728 726.388 273.504ZM724.876 271.128C725.196 271.128 725.431 271.053 725.58 270.904C725.735 270.755 725.812 270.557 725.812 270.312V270.08C725.812 269.835 725.735 269.64 725.58 269.496C725.431 269.347 725.196 269.272 724.876 269.272C724.556 269.272 724.321 269.347 724.172 269.496C724.023 269.64 723.948 269.835 723.948 270.08V270.312C723.948 270.557 724.023 270.755 724.172 270.904C724.321 271.053 724.556 271.128 724.876 271.128ZM729.897 273C729.582 273 729.35 272.912 729.201 272.736C729.057 272.56 728.985 272.333 728.985 272.056V269.416H727.609V268.872H728.633C728.772 268.872 728.868 268.845 728.921 268.792C728.98 268.733 729.009 268.635 729.009 268.496V267.416H729.625V268.872H731.505V269.416H729.625V272.456H731.505V273H729.897ZM732.774 273V272.384L735.438 269.416H732.862V268.872H736.134V269.488L733.47 272.456H736.214V273H732.774ZM737.571 273V272.384L740.235 269.416H737.659V268.872H740.931V269.488L738.267 272.456H741.011V273H737.571ZM741.928 268.872H742.496L742.968 272.44H743.04L743.743 268.872H744.448L745.152 272.44H745.224L745.696 268.872H746.248L745.616 273H744.784L744.128 269.544H744.064L743.392 273H742.56L741.928 268.872ZM747.148 272.456H748.54V269.416H747.068V268.872H748.54V268.024C748.54 267.747 748.612 267.52 748.756 267.344C748.906 267.168 749.138 267.08 749.452 267.08H750.836V267.624H749.18V268.872H750.836V269.416H749.18V272.456H750.652V273H747.148V272.456ZM755.289 268H752.793L752.633 270.136H752.689C752.828 269.949 752.983 269.803 753.153 269.696C753.324 269.584 753.559 269.528 753.857 269.528C754.103 269.528 754.327 269.568 754.529 269.648C754.737 269.723 754.916 269.835 755.065 269.984C755.215 270.133 755.332 270.315 755.417 270.528C755.503 270.736 755.545 270.976 755.545 271.248C755.545 271.52 755.503 271.771 755.417 272C755.332 272.224 755.207 272.419 755.041 272.584C754.876 272.744 754.676 272.869 754.441 272.96C754.207 273.051 753.94 273.096 753.641 273.096C753.407 273.096 753.196 273.069 753.009 273.016C752.828 272.963 752.665 272.891 752.521 272.8C752.383 272.709 752.26 272.608 752.153 272.496C752.047 272.384 751.951 272.267 751.865 272.144L752.369 271.76C752.444 271.872 752.519 271.973 752.593 272.064C752.673 272.155 752.764 272.235 752.865 272.304C752.967 272.368 753.081 272.419 753.209 272.456C753.337 272.493 753.487 272.512 753.657 272.512C754.041 272.512 754.335 272.408 754.537 272.2C754.745 271.992 754.849 271.704 754.849 271.336V271.272C754.849 270.904 754.745 270.616 754.537 270.408C754.329 270.2 754.031 270.096 753.641 270.096C753.375 270.096 753.167 270.141 753.017 270.232C752.873 270.323 752.74 270.435 752.617 270.568L752.049 270.488L752.249 267.416H755.289V268ZM756.51 273V268.872H757.102V269.352H757.134C757.198 269.192 757.289 269.056 757.406 268.944C757.523 268.832 757.697 268.776 757.926 268.776C758.166 268.776 758.345 268.837 758.462 268.96C758.579 269.077 758.651 269.232 758.678 269.424H758.702C758.777 269.237 758.883 269.083 759.022 268.96C759.161 268.837 759.353 268.776 759.598 268.776C759.934 268.776 760.158 268.893 760.27 269.128C760.387 269.363 760.446 269.699 760.446 270.136V273H759.854V270.24C759.854 269.888 759.817 269.645 759.742 269.512C759.673 269.373 759.542 269.304 759.35 269.304C759.179 269.304 759.041 269.36 758.934 269.472C758.827 269.579 758.774 269.744 758.774 269.968V273H758.182V270.24C758.182 269.888 758.145 269.645 758.07 269.512C758.001 269.373 757.873 269.304 757.686 269.304C757.515 269.304 757.374 269.36 757.262 269.472C757.155 269.579 757.102 269.744 757.102 269.968V273H756.51ZM764.275 272.328H764.243C763.976 272.84 763.552 273.096 762.971 273.096C762.464 273.096 762.067 272.907 761.779 272.528C761.496 272.149 761.355 271.619 761.355 270.936C761.355 270.253 761.496 269.723 761.779 269.344C762.067 268.965 762.464 268.776 762.971 268.776C763.552 268.776 763.976 269.032 764.243 269.544H764.275V267.08H764.915V273H764.275V272.328ZM763.219 272.528C763.363 272.528 763.499 272.509 763.627 272.472C763.755 272.435 763.867 272.381 763.963 272.312C764.059 272.237 764.134 272.149 764.187 272.048C764.246 271.941 764.275 271.819 764.275 271.68V270.192C764.275 270.053 764.246 269.933 764.187 269.832C764.134 269.725 764.059 269.637 763.963 269.568C763.867 269.493 763.755 269.437 763.627 269.4C763.499 269.363 763.363 269.344 763.219 269.344C762.846 269.344 762.555 269.459 762.347 269.688C762.144 269.912 762.043 270.211 762.043 270.584V271.288C762.043 271.661 762.144 271.963 762.347 272.192C762.555 272.416 762.846 272.528 763.219 272.528ZM769.072 272.328H769.04C768.773 272.84 768.349 273.096 767.768 273.096C767.261 273.096 766.864 272.907 766.576 272.528C766.293 272.149 766.152 271.619 766.152 270.936C766.152 270.253 766.293 269.723 766.576 269.344C766.864 268.965 767.261 268.776 767.768 268.776C768.349 268.776 768.773 269.032 769.04 269.544H769.072V268.872H769.712V274.6H769.072V272.328ZM768.016 272.528C768.16 272.528 768.296 272.509 768.424 272.472C768.552 272.435 768.664 272.381 768.76 272.312C768.856 272.237 768.931 272.149 768.984 272.048C769.043 271.941 769.072 271.819 769.072 271.68V270.192C769.072 270.053 769.043 269.933 768.984 269.832C768.931 269.725 768.856 269.637 768.76 269.568C768.664 269.493 768.552 269.437 768.424 269.4C768.296 269.363 768.16 269.344 768.016 269.344C767.643 269.344 767.352 269.459 767.144 269.688C766.941 269.912 766.84 270.211 766.84 270.584V271.288C766.84 271.661 766.941 271.963 767.144 272.192C767.352 272.416 767.643 272.528 768.016 272.528Z" fill="#222426"/>
</g>
<path d="M575.781 285.969C572.035 285.969 569 289.004 569 292.75C569 296.496 572.035 299.531 575.781 299.531C579.527 299.531 582.562 296.496 582.562 292.75C582.562 289.004 579.527 285.969 575.781 285.969ZM575.781 288.594C577.094 288.594 578.188 289.688 578.188 291C578.188 292.34 577.094 293.406 575.781 293.406C574.441 293.406 573.375 292.34 573.375 291C573.375 289.688 574.441 288.594 575.781 288.594ZM575.781 298C574.168 298 572.719 297.289 571.762 296.141C572.281 295.184 573.293 294.5 574.469 294.5C574.523 294.5 574.578 294.527 574.66 294.555C575.016 294.664 575.371 294.719 575.781 294.719C576.164 294.719 576.547 294.664 576.875 294.555C576.957 294.527 577.012 294.5 577.094 294.5C578.242 294.5 579.254 295.184 579.773 296.141C578.816 297.289 577.367 298 575.781 298Z" fill="#222426"/>
<path d="M595.781 285.969C592.035 285.969 589 289.004 589 292.75C589 296.496 592.035 299.531 595.781 299.531C599.527 299.531 602.562 296.496 602.562 292.75C602.562 289.004 599.527 285.969 595.781 285.969ZM595.781 288.594C597.094 288.594 598.188 289.688 598.188 291C598.188 292.34 597.094 293.406 595.781 293.406C594.441 293.406 593.375 292.34 593.375 291C593.375 289.688 594.441 288.594 595.781 288.594ZM595.781 298C594.168 298 592.719 297.289 591.762 296.141C592.281 295.184 593.293 294.5 594.469 294.5C594.523 294.5 594.578 294.527 594.66 294.555C595.016 294.664 595.371 294.719 595.781 294.719C596.164 294.719 596.547 294.664 596.875 294.555C596.957 294.527 597.012 294.5 597.094 294.5C598.242 294.5 599.254 295.184 599.773 296.141C598.816 297.289 597.367 298 595.781 298Z" fill="#222426"/>
<path d="M615.781 285.969C612.035 285.969 609 289.004 609 292.75C609 296.496 612.035 299.531 615.781 299.531C619.527 299.531 622.562 296.496 622.562 292.75C622.562 289.004 619.527 285.969 615.781 285.969ZM615.781 288.594C617.094 288.594 618.188 289.688 618.188 291C618.188 292.34 617.094 293.406 615.781 293.406C614.441 293.406 613.375 292.34 613.375 291C613.375 289.688 614.441 288.594 615.781 288.594ZM615.781 298C614.168 298 612.719 297.289 611.762 296.141C612.281 295.184 613.293 294.5 614.469 294.5C614.523 294.5 614.578 294.527 614.66 294.555C615.016 294.664 615.371 294.719 615.781 294.719C616.164 294.719 616.547 294.664 616.875 294.555C616.957 294.527 617.012 294.5 617.094 294.5C618.242 294.5 619.254 295.184 619.773 296.141C618.816 297.289 617.367 298 615.781 298Z" fill="#222426"/>
<path d="M733.469 290.5C731.844 290.625 729.531 292.219 728.375 292.75C727.469 293.156 726.656 293.5 726 293.5C725.281 293.5 725.188 293 725.312 291.875C725.344 291.625 725.688 289.406 724 289.5C723.188 289.562 721.969 290.281 718.688 293.438L720 290.219C720.938 287.844 718.312 285.469 715.938 287L714.219 288.156C714 288.281 713.906 288.594 714.062 288.844L714.594 289.688C714.75 289.906 715.062 290 715.281 289.844L717.094 288.625C717.688 288.25 718.375 288.844 718.125 289.469L715.062 297.156C714.844 297.656 715.156 298.5 716 298.5C716.25 298.5 716.5 298.406 716.688 298.219C718 296.906 721.531 293.5 723.281 292.094C723.219 293 723.219 293.938 723.938 294.719C724.406 295.25 725.094 295.5 725.969 295.5C727.094 295.5 728.094 295.062 729.188 294.562C730.219 294.125 732.281 292.625 733.5 292.531C733.781 292.5 733.969 292.281 733.969 292.031V291.031C734 290.75 733.75 290.5 733.469 290.5Z" fill="#222426"/>
<path d="M743.392 295.596C742.912 295.596 742.504 295.511 742.168 295.34C741.837 295.169 741.552 294.945 741.312 294.668L742.024 293.98C742.216 294.204 742.429 294.375 742.664 294.492C742.904 294.609 743.168 294.668 743.456 294.668C743.781 294.668 744.027 294.599 744.192 294.46C744.357 294.316 744.44 294.124 744.44 293.884C744.44 293.697 744.387 293.545 744.28 293.428C744.173 293.311 743.973 293.225 743.68 293.172L743.152 293.092C742.037 292.916 741.48 292.375 741.48 291.468C741.48 291.217 741.525 290.991 741.616 290.788C741.712 290.585 741.848 290.412 742.024 290.268C742.2 290.124 742.411 290.015 742.656 289.94C742.907 289.86 743.189 289.82 743.504 289.82C743.925 289.82 744.293 289.889 744.608 290.028C744.923 290.167 745.192 290.372 745.416 290.644L744.696 291.324C744.557 291.153 744.389 291.015 744.192 290.908C743.995 290.801 743.747 290.748 743.448 290.748C743.144 290.748 742.915 290.807 742.76 290.924C742.611 291.036 742.536 291.196 742.536 291.404C742.536 291.617 742.597 291.775 742.72 291.876C742.843 291.977 743.04 292.052 743.312 292.1L743.832 292.196C744.397 292.297 744.813 292.479 745.08 292.74C745.352 292.996 745.488 293.356 745.488 293.82C745.488 294.087 745.44 294.329 745.344 294.548C745.253 294.761 745.117 294.948 744.936 295.108C744.76 295.263 744.541 295.383 744.28 295.468C744.024 295.553 743.728 295.596 743.392 295.596ZM746.995 290.716C746.781 290.716 746.627 290.668 746.531 290.572C746.44 290.476 746.395 290.353 746.395 290.204V290.044C746.395 289.895 746.44 289.772 746.531 289.676C746.627 289.58 746.781 289.532 746.995 289.532C747.203 289.532 747.355 289.58 747.451 289.676C747.547 289.772 747.595 289.895 747.595 290.044V290.204C747.595 290.353 747.547 290.476 747.451 290.572C747.355 290.668 747.203 290.716 746.995 290.716ZM746.483 291.324H747.507V295.5H746.483V291.324ZM752.462 295.852C752.462 296.071 752.422 296.263 752.342 296.428C752.267 296.599 752.142 296.74 751.966 296.852C751.79 296.964 751.563 297.049 751.286 297.108C751.008 297.167 750.67 297.196 750.27 297.196C749.918 297.196 749.619 297.172 749.374 297.124C749.128 297.081 748.926 297.017 748.766 296.932C748.611 296.852 748.499 296.751 748.43 296.628C748.36 296.505 748.326 296.367 748.326 296.212C748.326 295.977 748.39 295.793 748.518 295.66C748.651 295.532 748.835 295.449 749.07 295.412V295.324C748.899 295.281 748.766 295.199 748.67 295.076C748.579 294.948 748.534 294.799 748.534 294.628C748.534 294.521 748.555 294.428 748.598 294.348C748.64 294.263 748.696 294.191 748.766 294.132C748.84 294.073 748.923 294.025 749.014 293.988C749.104 293.945 749.2 293.913 749.302 293.892V293.86C749.046 293.743 748.854 293.58 748.726 293.372C748.603 293.164 748.542 292.921 748.542 292.644C748.542 292.217 748.688 291.876 748.982 291.62C749.275 291.359 749.704 291.228 750.27 291.228C750.398 291.228 750.523 291.236 750.646 291.252C750.774 291.268 750.891 291.295 750.998 291.332V291.196C750.998 290.791 751.195 290.588 751.59 290.588H752.238V291.372H751.35V291.484C751.568 291.607 751.731 291.767 751.838 291.964C751.944 292.161 751.998 292.388 751.998 292.644C751.998 293.065 751.851 293.404 751.558 293.66C751.27 293.916 750.84 294.044 750.27 294.044C750.024 294.044 749.811 294.02 749.63 293.972C749.55 294.009 749.48 294.06 749.422 294.124C749.363 294.183 749.334 294.257 749.334 294.348C749.334 294.556 749.515 294.66 749.878 294.66H750.998C751.51 294.66 751.88 294.767 752.11 294.98C752.344 295.188 752.462 295.479 752.462 295.852ZM751.502 295.972C751.502 295.839 751.448 295.735 751.342 295.66C751.235 295.585 751.051 295.548 750.79 295.548H749.366C749.222 295.655 749.15 295.799 749.15 295.98C749.15 296.14 749.216 296.265 749.35 296.356C749.483 296.447 749.71 296.492 750.03 296.492H750.542C750.878 296.492 751.12 296.449 751.27 296.364C751.424 296.279 751.502 296.148 751.502 295.972ZM750.27 293.348C750.771 293.348 751.022 293.135 751.022 292.708V292.572C751.022 292.145 750.771 291.932 750.27 291.932C749.768 291.932 749.518 292.145 749.518 292.572V292.708C749.518 293.135 749.768 293.348 750.27 293.348ZM753.053 295.5V291.324H754.077V292.02H754.117C754.202 291.796 754.336 291.609 754.517 291.46C754.704 291.305 754.96 291.228 755.285 291.228C755.717 291.228 756.048 291.369 756.277 291.652C756.506 291.935 756.621 292.337 756.621 292.86V295.5H755.597V292.964C755.597 292.665 755.544 292.441 755.437 292.292C755.33 292.143 755.154 292.068 754.909 292.068C754.802 292.068 754.698 292.084 754.597 292.116C754.501 292.143 754.413 292.185 754.333 292.244C754.258 292.297 754.197 292.367 754.149 292.452C754.101 292.532 754.077 292.628 754.077 292.74V295.5H753.053ZM759.444 295.596C759.135 295.596 758.857 295.545 758.612 295.444C758.372 295.337 758.167 295.191 757.996 295.004C757.831 294.812 757.703 294.583 757.612 294.316C757.521 294.044 757.476 293.74 757.476 293.404C757.476 293.073 757.519 292.775 757.604 292.508C757.695 292.241 757.823 292.015 757.988 291.828C758.153 291.636 758.356 291.489 758.596 291.388C758.836 291.281 759.108 291.228 759.412 291.228C759.737 291.228 760.02 291.284 760.26 291.396C760.5 291.508 760.697 291.66 760.852 291.852C761.007 292.044 761.121 292.268 761.196 292.524C761.276 292.775 761.316 293.044 761.316 293.332V293.668H758.54V293.772C758.54 294.076 758.625 294.321 758.796 294.508C758.967 294.689 759.22 294.78 759.556 294.78C759.812 294.78 760.02 294.727 760.18 294.62C760.345 294.513 760.492 294.377 760.62 294.212L761.172 294.828C761.001 295.068 760.767 295.257 760.468 295.396C760.175 295.529 759.833 295.596 759.444 295.596ZM759.428 291.996C759.156 291.996 758.94 292.087 758.78 292.268C758.62 292.449 758.54 292.684 758.54 292.972V293.036H760.252V292.964C760.252 292.676 760.18 292.444 760.036 292.268C759.897 292.087 759.695 291.996 759.428 291.996ZM764.809 294.804H764.769C764.694 295.044 764.553 295.236 764.345 295.38C764.137 295.524 763.894 295.596 763.617 295.596C763.089 295.596 762.684 295.407 762.401 295.028C762.124 294.649 761.985 294.108 761.985 293.404C761.985 292.705 762.124 292.169 762.401 291.796C762.684 291.417 763.089 291.228 763.617 291.228C763.894 291.228 764.137 291.3 764.345 291.444C764.553 291.583 764.694 291.772 764.769 292.012H764.809V289.58H765.833V295.5H764.809V294.804ZM763.945 294.748C764.19 294.748 764.396 294.689 764.561 294.572C764.726 294.455 764.809 294.287 764.809 294.068V292.74C764.809 292.537 764.726 292.375 764.561 292.252C764.396 292.129 764.19 292.068 763.945 292.068C763.678 292.068 763.462 292.159 763.297 292.34C763.137 292.516 763.057 292.753 763.057 293.052V293.772C763.057 294.071 763.137 294.308 763.297 294.484C763.462 294.66 763.678 294.748 763.945 294.748Z" fill="#222426"/>
<rect x="555" y="224" width="226" height="94" rx="5" stroke="#222426" stroke-width="2"/>
</svg>
