<svg width="75" height="75" viewBox="0 0 75 75" fill="none" xmlns="http://www.w3.org/2000/svg">
<path d="M0 4.5C0 2.01472 2.01472 0 4.5 0H70.5C72.9853 0 75 2.01472 75 4.5V70.5C75 72.9853 72.9853 75 70.5 75H4.5C2.01472 75 0 72.9853 0 70.5V4.5Z" fill="#6FCF97"/>
<path d="M8.876 55V46.504H10.94V55H8.876ZM20.1723 53.824C19.7963 54.256 19.3323 54.6 18.7803 54.856C18.2283 55.104 17.5923 55.228 16.8723 55.228C16.2163 55.228 15.6083 55.12 15.0483 54.904C14.4963 54.688 14.0163 54.384 13.6083 53.992C13.2003 53.592 12.8803 53.116 12.6483 52.564C12.4163 52.012 12.3003 51.404 12.3003 50.74C12.3003 50.06 12.4163 49.444 12.6483 48.892C12.8883 48.34 13.2163 47.872 13.6323 47.488C14.0483 47.096 14.5363 46.796 15.0963 46.588C15.6563 46.38 16.2603 46.276 16.9083 46.276C17.5083 46.276 18.0963 46.384 18.6723 46.6C19.2563 46.808 19.7283 47.116 20.0883 47.524L18.6963 48.916C18.5043 48.652 18.2523 48.456 17.9403 48.328C17.6283 48.2 17.3083 48.136 16.9803 48.136C16.6203 48.136 16.2883 48.204 15.9843 48.34C15.6883 48.468 15.4323 48.648 15.2163 48.88C15.0003 49.112 14.8323 49.388 14.7123 49.708C14.5923 50.02 14.5323 50.364 14.5323 50.74C14.5323 51.124 14.5923 51.476 14.7123 51.796C14.8323 52.116 14.9963 52.392 15.2043 52.624C15.4203 52.848 15.6763 53.024 15.9723 53.152C16.2683 53.28 16.5923 53.344 16.9443 53.344C17.3523 53.344 17.7083 53.264 18.0123 53.104C18.3163 52.944 18.5603 52.736 18.7443 52.48L20.1723 53.824ZM29.7672 50.716C29.7672 51.388 29.6512 52.004 29.4192 52.564C29.1872 53.116 28.8632 53.592 28.4472 53.992C28.0392 54.384 27.5512 54.688 26.9832 54.904C26.4152 55.12 25.7992 55.228 25.1352 55.228C24.4712 55.228 23.8552 55.12 23.2872 54.904C22.7272 54.688 22.2392 54.384 21.8232 53.992C21.4152 53.592 21.0952 53.116 20.8632 52.564C20.6312 52.004 20.5152 51.388 20.5152 50.716C20.5152 50.036 20.6312 49.424 20.8632 48.88C21.0952 48.328 21.4152 47.86 21.8232 47.476C22.2392 47.092 22.7272 46.796 23.2872 46.588C23.8552 46.38 24.4712 46.276 25.1352 46.276C25.7992 46.276 26.4152 46.38 26.9832 46.588C27.5512 46.796 28.0392 47.092 28.4472 47.476C28.8632 47.86 29.1872 48.328 29.4192 48.88C29.6512 49.424 29.7672 50.036 29.7672 50.716ZM27.5712 50.716C27.5712 50.348 27.5112 50.004 27.3912 49.684C27.2712 49.364 27.1032 49.092 26.8872 48.868C26.6792 48.636 26.4232 48.456 26.1192 48.328C25.8232 48.192 25.4952 48.124 25.1352 48.124C24.7752 48.124 24.4472 48.192 24.1512 48.328C23.8552 48.456 23.5992 48.636 23.3832 48.868C23.1672 49.092 22.9992 49.364 22.8792 49.684C22.7672 50.004 22.7112 50.348 22.7112 50.716C22.7112 51.1 22.7712 51.456 22.8912 51.784C23.0112 52.104 23.1752 52.38 23.3832 52.612C23.5992 52.844 23.8552 53.028 24.1512 53.164C24.4472 53.292 24.7752 53.356 25.1352 53.356C25.4952 53.356 25.8232 53.292 26.1192 53.164C26.4152 53.028 26.6712 52.844 26.8872 52.612C27.1032 52.38 27.2712 52.104 27.3912 51.784C27.5112 51.456 27.5712 51.1 27.5712 50.716ZM36.5182 55L33.0982 49.444H33.0622L33.1102 55H31.1182V46.504H33.4582L36.8662 52.048H36.9022L36.8542 46.504H38.8462V55H36.5182ZM13.364 59.712C13.188 59.488 12.956 59.312 12.668 59.184C12.388 59.048 12.116 58.98 11.852 58.98C11.716 58.98 11.576 58.992 11.432 59.016C11.296 59.04 11.172 59.088 11.06 59.16C10.948 59.224 10.852 59.312 10.772 59.424C10.7 59.528 10.664 59.664 10.664 59.832C10.664 59.976 10.692 60.096 10.748 60.192C10.812 60.288 10.9 60.372 11.012 60.444C11.132 60.516 11.272 60.584 11.432 60.648C11.592 60.704 11.772 60.764 11.972 60.828C12.26 60.924 12.56 61.032 12.872 61.152C13.184 61.264 13.468 61.416 13.724 61.608C13.98 61.8 14.192 62.04 14.36 62.328C14.528 62.608 14.612 62.96 14.612 63.384C14.612 63.872 14.52 64.296 14.336 64.656C14.16 65.008 13.92 65.3 13.616 65.532C13.312 65.764 12.964 65.936 12.572 66.048C12.18 66.16 11.776 66.216 11.36 66.216C10.752 66.216 10.164 66.112 9.596 65.904C9.028 65.688 8.556 65.384 8.18 64.992L9.524 63.624C9.732 63.88 10.004 64.096 10.34 64.272C10.684 64.44 11.024 64.524 11.36 64.524C11.512 64.524 11.66 64.508 11.804 64.476C11.948 64.444 12.072 64.392 12.176 64.32C12.288 64.248 12.376 64.152 12.44 64.032C12.504 63.912 12.536 63.768 12.536 63.6C12.536 63.44 12.496 63.304 12.416 63.192C12.336 63.08 12.22 62.98 12.068 62.892C11.924 62.796 11.74 62.712 11.516 62.64C11.3 62.56 11.052 62.476 10.772 62.388C10.5 62.3 10.232 62.196 9.968 62.076C9.712 61.956 9.48 61.804 9.272 61.62C9.072 61.428 8.908 61.2 8.78 60.936C8.66 60.664 8.6 60.336 8.6 59.952C8.6 59.48 8.696 59.076 8.888 58.74C9.08 58.404 9.332 58.128 9.644 57.912C9.956 57.696 10.308 57.54 10.7 57.444C11.092 57.34 11.488 57.288 11.888 57.288C12.368 57.288 12.856 57.376 13.352 57.552C13.856 57.728 14.296 57.988 14.672 58.332L13.364 59.712ZM15.9658 66V57.504H21.6778V59.244H17.9458V60.84H21.4738V62.484H17.9458V64.248H21.8938V66H15.9658ZM26.8909 59.256V66H24.8389V59.256H22.4389V57.504H29.2909V59.256H26.8909Z" fill="white"/>
<mask id="path-3-inside-1" fill="white">
<path fill-rule="evenodd" clip-rule="evenodd" d="M25.1641 32.5404H31.4882C33.8166 32.5404 35.7042 30.6528 35.7042 28.3243V15.6761C35.7042 13.3476 33.8166 11.46 31.4882 11.46H25.1641C27.4925 11.46 29.3801 13.3476 29.3801 15.6761V28.3243C29.3801 30.6528 27.4925 32.5404 25.1641 32.5404Z"/>
</mask>
<path d="M31.4882 30.4323H25.1641V34.6484H31.4882V30.4323ZM33.5962 28.3243C33.5962 29.4885 32.6524 30.4323 31.4882 30.4323V34.6484C34.9809 34.6484 37.8123 31.817 37.8123 28.3243H33.5962ZM33.5962 15.6761V28.3243H37.8123V15.6761H33.5962ZM31.4882 13.568C32.6524 13.568 33.5962 14.5118 33.5962 15.6761H37.8123C37.8123 12.1834 34.9809 9.35196 31.4882 9.35196V13.568ZM25.1641 13.568H31.4882V9.35196H25.1641V13.568ZM25.1641 13.568C26.3283 13.568 27.2721 14.5118 27.2721 15.6761H31.4882C31.4882 12.1834 28.6568 9.35196 25.1641 9.35196V13.568ZM27.2721 15.6761V28.3243H31.4882V15.6761H27.2721ZM27.2721 28.3243C27.2721 29.4885 26.3283 30.4323 25.1641 30.4323V34.6484C28.6568 34.6484 31.4882 31.817 31.4882 28.3243H27.2721Z" fill="white" mask="url(#path-3-inside-1)"/>
<path fill-rule="evenodd" clip-rule="evenodd" d="M12.5159 11.46C10.1874 11.46 8.2998 13.3476 8.2998 15.6761V28.3243C8.2998 30.6528 10.1874 32.5404 12.5159 32.5404H27.2721C29.6006 32.5404 31.4882 30.6528 31.4882 28.3243V15.6761C31.4882 13.3476 29.6006 11.46 27.2721 11.46H12.5159ZM14.6027 24.6141C15.9649 24.6141 17.0691 23.5099 17.0691 22.1477C17.0691 20.7856 15.9649 19.6813 14.6027 19.6813C13.2406 19.6813 12.1363 20.7856 12.1363 22.1477C12.1363 23.5099 13.2406 24.6141 14.6027 24.6141Z" fill="white"/>
</svg>
