<svg width="75" height="75" viewBox="0 0 75 75" fill="none" xmlns="http://www.w3.org/2000/svg">
<rect width="75" height="75" rx="4.5" fill="#F2994A"/>
<path d="M12.5205 57L10.9905 54.19H10.4105V57H8.73047V49.92H11.4305C11.7705 49.92 12.1005 49.9566 12.4205 50.03C12.7471 50.0966 13.0371 50.2133 13.2905 50.38C13.5505 50.5466 13.7571 50.7666 13.9105 51.04C14.0638 51.3133 14.1405 51.6533 14.1405 52.06C14.1405 52.54 14.0105 52.9433 13.7505 53.27C13.4905 53.5966 13.1305 53.83 12.6705 53.97L14.5205 57H12.5205ZM12.4505 52.09C12.4505 51.9233 12.4138 51.79 12.3405 51.69C12.2738 51.5833 12.1838 51.5033 12.0705 51.45C11.9638 51.39 11.8405 51.35 11.7005 51.33C11.5671 51.31 11.4371 51.3 11.3105 51.3H10.4005V52.95H11.2105C11.3505 52.95 11.4938 52.94 11.6405 52.92C11.7871 52.8933 11.9205 52.85 12.0405 52.79C12.1605 52.73 12.2571 52.6433 12.3305 52.53C12.4105 52.4166 12.4505 52.27 12.4505 52.09Z" fill="white"/>
<path d="M15.3613 57V49.92H20.1213V51.37H17.0113V52.7H19.9513V54.07H17.0113V55.54H20.3013V57H15.3613Z" fill="white"/>
<path d="M25.1755 51.76C25.0289 51.5733 24.8355 51.4266 24.5955 51.32C24.3622 51.2066 24.1355 51.15 23.9155 51.15C23.8022 51.15 23.6855 51.16 23.5655 51.18C23.4522 51.2 23.3489 51.24 23.2555 51.3C23.1622 51.3533 23.0822 51.4266 23.0155 51.52C22.9555 51.6066 22.9255 51.72 22.9255 51.86C22.9255 51.98 22.9489 52.08 22.9955 52.16C23.0489 52.24 23.1222 52.31 23.2155 52.37C23.3155 52.43 23.4322 52.4866 23.5655 52.54C23.6989 52.5866 23.8489 52.6366 24.0155 52.69C24.2555 52.77 24.5055 52.86 24.7655 52.96C25.0255 53.0533 25.2622 53.18 25.4755 53.34C25.6889 53.5 25.8655 53.7 26.0055 53.94C26.1455 54.1733 26.2155 54.4666 26.2155 54.82C26.2155 55.2266 26.1389 55.58 25.9855 55.88C25.8389 56.1733 25.6389 56.4166 25.3855 56.61C25.1322 56.8033 24.8422 56.9466 24.5155 57.04C24.1889 57.1333 23.8522 57.18 23.5055 57.18C22.9989 57.18 22.5089 57.0933 22.0355 56.92C21.5622 56.74 21.1689 56.4866 20.8555 56.16L21.9755 55.02C22.1489 55.2333 22.3755 55.4133 22.6555 55.56C22.9422 55.7 23.2255 55.77 23.5055 55.77C23.6322 55.77 23.7555 55.7566 23.8755 55.73C23.9955 55.7033 24.0989 55.66 24.1855 55.6C24.2789 55.54 24.3522 55.46 24.4055 55.36C24.4589 55.26 24.4855 55.14 24.4855 55C24.4855 54.8666 24.4522 54.7533 24.3855 54.66C24.3189 54.5666 24.2222 54.4833 24.0955 54.41C23.9755 54.33 23.8222 54.26 23.6355 54.2C23.4555 54.1333 23.2489 54.0633 23.0155 53.99C22.7889 53.9166 22.5655 53.83 22.3455 53.73C22.1322 53.63 21.9389 53.5033 21.7655 53.35C21.5989 53.19 21.4622 53 21.3555 52.78C21.2555 52.5533 21.2055 52.28 21.2055 51.96C21.2055 51.5666 21.2855 51.23 21.4455 50.95C21.6055 50.67 21.8155 50.44 22.0755 50.26C22.3355 50.08 22.6289 49.95 22.9555 49.87C23.2822 49.7833 23.6122 49.74 23.9455 49.74C24.3455 49.74 24.7522 49.8133 25.1655 49.96C25.5855 50.1066 25.9522 50.3233 26.2655 50.61L25.1755 51.76Z" fill="white"/>
<path d="M27.3438 57V49.92H32.1038V51.37H28.9937V52.7H31.9338V54.07H28.9937V55.54H32.2838V57H27.3438Z" fill="white"/>
<path d="M38.218 57L37.668 55.61H34.928L34.408 57H32.548L35.518 49.92H37.178L40.118 57H38.218ZM36.318 51.81L35.418 54.24H37.198L36.318 51.81Z" fill="white"/>
<path d="M44.4931 57L42.9631 54.19H42.3831V57H40.7031V49.92H43.4031C43.7431 49.92 44.0731 49.9566 44.3931 50.03C44.7198 50.0966 45.0098 50.2133 45.2631 50.38C45.5231 50.5466 45.7298 50.7666 45.8831 51.04C46.0365 51.3133 46.1131 51.6533 46.1131 52.06C46.1131 52.54 45.9831 52.9433 45.7231 53.27C45.4631 53.5966 45.1031 53.83 44.6431 53.97L46.4931 57H44.4931ZM44.4231 52.09C44.4231 51.9233 44.3865 51.79 44.3131 51.69C44.2465 51.5833 44.1565 51.5033 44.0431 51.45C43.9365 51.39 43.8131 51.35 43.6731 51.33C43.5398 51.31 43.4098 51.3 43.2831 51.3H42.3731V52.95H43.1831C43.3231 52.95 43.4665 52.94 43.6131 52.92C43.7598 52.8933 43.8931 52.85 44.0131 52.79C44.1331 52.73 44.2298 52.6433 44.3031 52.53C44.3831 52.4166 44.4231 52.27 44.4231 52.09Z" fill="white"/>
<path d="M53.564 56.02C53.2507 56.38 52.864 56.6666 52.404 56.88C51.944 57.0866 51.414 57.19 50.814 57.19C50.2673 57.19 49.7607 57.1 49.294 56.92C48.834 56.74 48.434 56.4866 48.094 56.16C47.754 55.8266 47.4873 55.43 47.294 54.97C47.1007 54.51 47.004 54.0033 47.004 53.45C47.004 52.8833 47.1007 52.37 47.294 51.91C47.494 51.45 47.7673 51.06 48.114 50.74C48.4606 50.4133 48.8673 50.1633 49.334 49.99C49.8007 49.8166 50.304 49.73 50.844 49.73C51.344 49.73 51.834 49.82 52.314 50C52.8007 50.1733 53.194 50.43 53.494 50.77L52.334 51.93C52.174 51.71 51.964 51.5466 51.704 51.44C51.444 51.3333 51.1773 51.28 50.904 51.28C50.604 51.28 50.3273 51.3366 50.074 51.45C49.8273 51.5566 49.614 51.7066 49.434 51.9C49.254 52.0933 49.114 52.3233 49.014 52.59C48.914 52.85 48.864 53.1366 48.864 53.45C48.864 53.77 48.914 54.0633 49.014 54.33C49.114 54.5966 49.2507 54.8266 49.424 55.02C49.604 55.2066 49.8173 55.3533 50.064 55.46C50.3107 55.5666 50.5807 55.62 50.874 55.62C51.214 55.62 51.5107 55.5533 51.764 55.42C52.0173 55.2866 52.2207 55.1133 52.374 54.9L53.564 56.02Z" fill="white"/>
<path d="M58.7669 57V54.04H56.0069V57H54.2969V49.92H56.0069V52.6H58.7669V49.92H60.4769V57H58.7669Z" fill="white"/>
<path d="M13.0605 66L10.4305 62.74H10.4105V66H8.73047V58.92H10.4105V61.8H10.4405L12.9705 58.92H15.1105L12.0605 62.18L15.2905 66H13.0605Z" fill="white"/>
<path d="M15.8398 66V58.92H17.5598V66H15.8398Z" fill="white"/>
<path d="M22.0534 60.38V66H20.3434V60.38H18.3434V58.92H24.0534V60.38H22.0534Z" fill="white"/>
<path d="M16.1273 20.388C17.2523 19.6802 18 18.4274 18 17C18 14.7909 16.2091 13 14 13C11.7909 13 10 14.7909 10 17C10 18.4274 10.7477 19.6802 11.8727 20.388C9.60905 21.2466 8 23.4354 8 26V27H20V26C20 23.4354 18.3909 21.2466 16.1273 20.388Z" fill="white"/>
<path d="M30.1273 29.388C31.2523 28.6802 32 27.4274 32 26C32 23.7909 30.2091 22 28 22C25.7909 22 24 23.7909 24 26C24 27.4274 24.7477 28.6802 25.8727 29.388C23.6091 30.2466 22 32.4354 22 35V36H34V35C34 32.4354 32.3909 30.2466 30.1273 29.388Z" fill="white"/>
<path fill-rule="evenodd" clip-rule="evenodd" d="M25.9998 8C24.8952 8 23.9998 8.89543 23.9998 10V16.9378L21.5016 19.1237C21.1542 19.4277 21.3692 20 21.8309 20H36.9998C38.1044 20 38.9998 19.1046 38.9998 18V10C38.9998 8.89543 38.1044 8 36.9998 8H25.9998ZM27 12C27 11.4477 27.4477 11 28 11H35C35.5523 11 36 11.4477 36 12C36 12.5523 35.5523 13 35 13H28C27.4477 13 27 12.5523 27 12ZM28 15C27.4477 15 27 15.4477 27 16C27 16.5523 27.4477 17 28 17H35C35.5523 17 36 16.5523 36 16C36 15.4477 35.5523 15 35 15H28Z" fill="white"/>
</svg>
